<svg xmlns="http://www.w3.org/2000/svg" viewBox="-30 -30 60 60"><clipPath id="a"><circle r="30"/></clipPath><g clip-path="url(#a)"><circle r="30" fill="#0a0a0a"/><path fill="none" stroke="#fff" stroke-linecap="round" stroke-width="3" d="m1.5 0 .018.026.017.028.017.027.016.029.016.029.015.03.015.03.014.03.014.031.013.032.012.032.012.033.011.033.01.034.01.034.01.035.008.035.008.036.007.036.006.036.005.037.005.038.004.037.003.038.002.039.002.038v.118l-.002.04-.003.04-.003.04-.004.04-.006.041-.006.04-.007.042-.008.04-.008.042-.01.041-.01.041-.012.042-.013.041-.013.041-.015.042-.015.041-.016.041-.017.041-.019.042-.019.04-.02.041-.02.041-.023.04-.023.041-.023.04-.025.04-.026.04-.027.039-.027.039-.029.039-.03.038-.03.038-.031.038-.033.037-.033.036-.034.037-.035.036-.036.035-.037.035-.038.034-.039.034-.04.033-.04.033-.041.032-.042.03-.043.032-.044.03-.045.029-.045.028-.047.028-.047.027-.048.027-.048.025-.05.025L.315 3l-.05.023-.052.022-.052.021-.053.02-.054.02L0 3.124l-.055.018-.055.017-.056.015-.057.015-.057.014-.058.012-.058.012-.059.01-.06.01-.059.008-.06.007-.06.006-.062.005-.061.004-.062.003-.062.001h-.125l-.063-.002-.063-.004-.064-.004-.063-.006-.064-.007-.064-.008-.064-.01-.064-.01-.065-.012-.064-.013-.065-.014-.064-.016-.064-.017-.065-.018-.064-.02-.064-.02-.064-.023-.064-.024-.064-.024-.064-.026-.063-.028-.063-.028-.063-.03-.063-.032-.062-.032-.062-.034-.062-.035-.06-.037-.062-.038-.06-.039-.06-.04-.059-.041-.059-.043-.058-.045-.057-.045-.057-.047-.057-.047-.055-.05-.055-.05-.055-.051-.053-.053-.053-.054-.052-.055-.05-.057-.051-.057-.05-.059-.048-.06-.048-.06-.046-.063-.046-.063-.045-.064-.043-.065-.043-.067-.042-.067-.04-.068-.04-.07-.038-.07-.037-.071-.036-.072-.034-.074-.034-.074-.032-.075-.031-.076-.03-.076-.028-.078-.027-.078-.026-.079-.024-.08-.023-.08-.022-.082-.02-.081L-4.75 0l-.017-.083-.016-.084-.015-.084-.012-.085-.012-.086-.01-.086-.008-.086-.007-.087-.005-.087-.004-.088-.002-.088v-.088l.001-.09.003-.088.004-.09.006-.089.008-.09.01-.089.01-.09.013-.09.015-.09.016-.09.017-.09.02-.09.021-.09.023-.09.024-.09.027-.089.028-.09.03-.088.03-.09.034-.088.035-.088.036-.088.038-.087.04-.087.042-.087.043-.086.045-.086.047-.085.048-.084.05-.084.052-.083.054-.083.055-.081.056-.081.059-.08.06-.08.061-.079.063-.077.065-.077.066-.076.068-.075.07-.074.07-.072.073-.072.074-.07.076-.07.077-.069.078-.067.08-.066.081-.064.083-.064.084-.062.085-.06.087-.06.088-.058.09-.056.09-.055.092-.054.093-.052.094-.05.095-.05.097-.047.097-.046.1-.044.1-.043.1-.04.102-.04.103-.037.103-.036.105-.033.106-.033.106-.03.107-.028.108-.027.11-.025.109-.023.11-.02.111-.02.112-.017.112-.015.112-.013.114-.011.113-.01.115-.006.114-.005.115-.003.115-.001h.116l.116.004.116.005.117.007.116.01.117.011.116.014.117.016.117.017.117.02.116.023.117.024.116.026.117.029.116.03.115.034L3-6.15l.115.037.114.04.115.04.114.044.113.046.113.048.112.05.111.052.111.055.11.056.11.059.108.06.108.063.107.065.106.066.105.07.104.07.103.073.102.075.101.077.1.079.098.08.098.083.096.085.095.087.093.088.092.09.09.093.09.094.088.096.086.097.085.1.083.1.082.104.08.104.078.106.076.108.075.11.073.11.07.113.07.114.067.116.066.117.063.118.062.12.06.12.057.123.056.124.053.125.051.126.05.128.046.128.045.13.043.13.04.132.038.133.036.134.033.134.032.136.028.136.027.137.024.138.022.139.019.139.017.14.014.14.012.141.01.142.006.142.005.142.002.143v.143l-.004.144-.006.143-.008.144-.01.144-.014.144-.016.144-.019.144-.021.144-.024.144-.026.144-.03.144-.031.143-.034.143-.037.143-.04.142-.042.142-.044.142-.048.14-.05.141-.052.14-.055.14-.058.138-.06.137-.062.137-.066.136-.068.136-.07.134-.073.133-.075.132-.078.131-.08.13-.083.13-.085.127-.088.126-.09.125-.092.124-.095.122-.097.12-.1.12-.102.118-.104.116-.106.114-.108.113-.111.111-.113.11-.115.107-.117.106-.12.104-.12.102-.124.1-.125.097-.128.096-.129.094-.13.092-.134.09-.135.087-.136.085-.138.083-.14.08-.142.079-.143.076-.145.073-.147.071-.148.069-.15.066-.15.063-.153.061-.153.058-.155.056-.156.053-.158.05-.158.049-.16.045-.16.042-.163.04-.162.036-.164.034-.165.031-.165.028-.166.026-.167.022-.168.02-.168.016-.17.014-.168.01-.17.008-.17.005-.171.001h-.171l-.171-.005-.172-.008-.171-.01-.172-.013-.172-.017-.171-.02-.172-.022-.172-.026-.17-.029-.172-.032-.17-.034-.171-.038-.17-.042-.17-.044-.17-.047-.168-.05-.168-.054-.167-.056-.167-.06-.166-.062-.165-.066-.164-.068-.163-.072-.162-.074-.161-.078-.16-.08-.159-.084-.158-.086-.156-.09-.155-.092-.153-.095-.153-.098-.15-.1-.15-.104-.147-.107-.146-.109-.144-.112-.142-.115-.141-.117-.139-.12-.137-.123-.135-.125-.133-.128-.13-.13-.13-.133-.126-.135-.124-.138-.123-.14-.12-.143-.117-.145-.115-.147-.113-.15-.11-.151-.108-.154-.105-.156-.103-.158-.1-.16-.097-.163-.095-.164-.092-.166-.089-.168-.086-.17-.083-.17-.081-.174-.078-.175-.074-.176-.072-.179-.068-.18-.066-.18-.062-.183-.06-.184-.055-.185-.053-.186-.05-.188-.047-.189-.043-.19-.04-.19-.036-.193-.034-.192-.03-.194-.026-.195-.023-.195-.02-.196-.016-.197-.013-.197-.01-.197-.006-.199-.002-.198v-.199l.005-.2.008-.198.012-.2.015-.2.019-.199.022-.2.026-.199.029-.199.033-.199.036-.199.04-.198.043-.198.047-.197.051-.197.054-.196.058-.196.06-.195.066-.194.068-.193.071-.192.076-.191.078-.19.082-.19.086-.187.089-.187.092-.185.096-.184.099-.182.102-.181.106-.18.11-.178.112-.176.115-.174.12-.173.121-.17.125-.169.129-.167.131-.165.135-.162.137-.16.141-.159.144-.156.146-.154.15-.151.152-.149.155-.146.158-.144.16-.142.164-.138.166-.136.168-.133.171-.13.174-.128.176-.125.179-.122.18-.119.184-.115.185-.113.188-.11.19-.106.192-.103.194-.1.196-.097.198-.093.2-.09.202-.087.203-.083.206-.08.207-.075.208-.073.21-.069.212-.065.213-.062.214-.058.216-.055.217-.05.218-.047.219-.043.22-.04.221-.035.222-.032.223-.028.224-.023.224-.02.225-.017.225-.012.226-.008.227-.004h.227l.227.003.227.008.227.012.228.016.227.02.228.023.227.028.227.032.227.036.226.04.226.044.226.047.225.052.224.056.224.06.223.065.222.068.22.072.22.076.22.08.217.083.217.088.215.092.214.096.212.099.212.103.209.108.208.11.206.115.204.119.203.122.2.126.199.13.196.133.195.137.192.14.19.144.188.148.185.15.183.155.18.158.178.161.175.165.173.167.17.171.166.174.165.178.16.18.159.183.155.187.152.19.149.191.145.195.143.198.139.2.136.204.132.206.129.208.125.211.122.213.118.216.114.218.111.22.107.223.104.225.099.226.096.229.091.23.088.233.084.234.08.236.075.238.071.24.068.24.063.242.06.244.054.245.05.246.047.247.042.248.038.25.033.25.03.251.024.252.02.253.016.253.011.254.007.254.003.255-.002.255-.007.256-.01.255-.016.256-.02.255-.024.256-.03.255-.033.255-.038.255-.042.254-.047.254-.052.253-.056.253-.06.252-.065.251-.07.25-.074.25-.078.248-.083.247-.087.246-.092.245-.096.243-.1.242-.106.24-.109.24-.113.237-.118.235-.122.234-.126.232-.13.23-.135.227-.139.225-.143.224-.146.22-.151.22-.155.216-.16.214-.162.211-.167.209-.17.205-.174.204-.178.2-.182.197-.186.194-.189.192-.192.188-.196.185-.2.182-.202.178-.207.175-.209.172-.213.168-.216.164-.219.161-.222.157-.224.154-.228.15-.231.145-.234.142-.236.138-.239.134-.241.13-.244.126-.247.121-.249.118-.25.113-.254.109-.256.105-.258.1-.26.095-.26.092-.264.086-.265.083-.267.077-.269.073-.27.069-.272.064-.273.059-.274.054-.275.05-.277.044-.278.04-.278.035-.28.03-.28.026-.281.02-.282.016-.282.01-.283.006-.283.001-.283-.004-.283-.01-.284-.013-.284-.02-.283-.024-.284-.029-.283-.034-.283-.039-.282-.044-.282-.05-.281-.053-.281-.06-.28-.063-.279-.07-.278-.074-.277-.078-.276-.084-.275-.09-.273-.093-.272-.098-.27-.104-.27-.108-.267-.113-.265-.118-.264-.123-.262-.127-.26-.132-.258-.137-.255-.142-.254-.146-.25-.15-.25-.156-.245-.16-.244-.163-.241-.169-.238-.173-.236-.177-.232-.182-.23-.186-.226-.19-.223-.194-.22-.198-.217-.202-.214-.207-.21-.21-.206-.214-.203-.218-.2-.221-.195-.226-.192-.229-.188-.232-.184-.236-.18-.24-.177-.243-.172-.246-.168-.25-.163-.252-.16-.255-.155-.26-.15-.26-.146-.265-.142-.268-.137-.27-.133-.272-.128-.276-.123-.277-.118-.28-.113-.283-.11-.285-.103-.286-.099-.29-.094-.29-.089-.293-.083-.295-.08-.296-.073-.298-.068-.3-.063-.3-.058-.303-.053-.303-.048-.305-.042-.306-.037-.307-.031-.308-.026-.309-.021-.309-.015-.31-.01-.31-.005-.312.001-.31.007-.312.012-.312.017-.312.023-.312.028-.311.034-.312.04-.31.044-.311.05-.31.056-.31.061-.309.067-.308.072-.307.078-.306.083-.305.088-.304.094-.302.099-.301.104-.3.11-.298.116-.296.12-.295.126-.292.13-.291.137-.289.141-.286.147-.285.152-.281.156-.28.162-.277.167-.274.171-.272.177-.27.181-.265.186-.263.191-.26.196-.257.2-.254.205-.25.21-.247.214-.244.219-.24.222-.236.228-.233.231-.229.236-.225.24-.22.243-.218.248-.213.252-.209.255-.204.26-.2.263-.196.267-.191.27-.187.274-.183.277-.177.28-.173.285-.168.287-.163.29-.159.293-.153.296-.149.299-.143.301-.138.305-.133.307-.128.309-.122.312-.118.314-.112.316-.106.318-.1.32-.096.323-.09.324-.085.326-.078.327-.074.33-.067.33-.062.332-.056.333-.05.334-.044.335-.039.336-.033.337-.027.338-.02.338-.016.34-.009.339-.003.34.003.339.008.34.015.34.02.34.027.34.033.339.038.339.044.338.05.338.057.337.063.336.068.336.074.334.08.333.087.332.092.33.097.33.104.327.11.325.115.324.121.323.127.32.133.318.138.316.145.313.15.312.155.308.16.306.167.304.172.3.177.298.183.295.188.292.193.288.2.286.203.282.209.278.214.275.22.271.223.268.23.264.233.26.239.255.243.252.249.248.252.243.257.24.262.234.266.23.27.226.275.22.279.217.282.211.287.207.291.202.294.196.299.192.302.186.305.182.31.175.312.171.315.165.32.16.321.154.325.149.328.143.331.137.334.131.336.126.339.12.34.114.344.108.346.102.348.096.35.09.352.084.354.078.355.072.357.065.359.06.36.052.361.047.363.04.363.034.365.028.365.021.366.015.367.008.367.002.368-.004.368-.011.368-.017.368-.024.368-.03.368-.037.368-.043.367-.05.367-.056.366-.062.365-.07.365-.075.364-.082.362-.088.362-.095.36-.1.359-.108.357-.114.355-.12.354-.126.352-.132.35-.139.348-.145.346-.151.343-.157.341-.163.339-.17.336-.175.333-.181.33-.187.328-.193.324-.2.321-.204.318-.21.314-.216.311-.222.308-.227.304-.232.3-.238.296-.243.292-.249.288-.254.284-.259.28-.264.275-.269.271-.273.267-.28.262-.283.257-.288.252-.293.248-.297.242-.302.237-.306.233-.31.227-.315.222-.319.216-.323.211-.326.206-.33.2-.335.194-.337.189-.342.182-.344.177-.348.171-.352.165-.354.16-.357.152-.36.147-.364.14-.366.135-.368.128-.371.121-.373.115-.376.11-.377.101-.38.096-.382.09-.383.082-.385.075-.387.07-.388.062-.39.056-.39.048-.392.042-.393.036-.394.028-.394.021-.395.015-.396.008h-.396l-.396-.006-.396-.013-.397-.02-.396-.027-.396-.034-.396-.04-.395-.048-.395-.055-.394-.062-.393-.069-.392-.075-.391-.083-.39-.09-.389-.095-.387-.104-.386-.11-.383-.116-.383-.124-.38-.13-.378-.137-.376-.144-.374-.15-.371-.158-.369-.164-.366-.17-.363-.177-.361-.183-.358-.19-.354-.196-.351-.202-.348-.209-.345-.215-.34-.22-.338-.228-.334-.233-.33-.24-.325-.244-.322-.251-.317-.257-.313-.262-.309-.268-.304-.274-.3-.28-.295-.284-.29-.29-.285-.295-.28-.3-.275-.305-.27-.31-.265-.316-.26-.32-.253-.325-.249-.33-.242-.334-.237-.338-.232-.343-.225-.347-.22-.352-.213-.355-.207-.36-.202-.362-.195-.367-.188-.37-.183-.375-.176-.377-.169-.38-.163-.385-.156-.387-.15-.39-.142-.393-.136-.395-.13-.399-.122-.4-.115-.403-.108-.406-.102-.407-.094-.41-.087-.411-.08-.413-.073-.415-.065-.416-.059-.418-.05-.419-.045-.42-.036-.421-.03-.422-.021-.423-.014-.423-.007-.424v-.425l.008-.424.015-.425.023-.424.03-.425.038-.424.045-.424.053-.423.06-.423.067-.421.075-.421.082-.42.09-.419.097-.417.104-.416.112-.414.119-.412.126-.411.133-.409.141-.406.148-.405.155-.402.162-.4.17-.396.176-.394.183-.392.19-.388.198-.385.204-.382.21-.379.219-.375.224-.372.23-.368.238-.364.244-.36.25-.356.258-.352.263-.347.27-.343.275-.339.281-.334.288-.33.293-.324.3-.32.305-.314.31-.309.317-.304.322-.299.327-.293.333-.287.337-.282.343-.277.348-.27.353-.264.358-.259.362-.252.367-.246.372-.24.376-.233.38-.227.385-.22.388-.215.393-.207.396-.2.4-.194.404-.187.407-.18.41-.172.414-.166.417-.158.42-.152.423-.144.425-.137.428-.129.43-.122.434-.114.435-.107.437-.1.44-.092.441-.084.443-.076.444-.07.446-.06.448-.053.448-.046.45-.038.45-.03.451-.021.452-.015.452-.006.453.002.452.01.453.017.453.025.453.034.452.041.452.05.451.057.45.065.45.073.449.08.447.09.446.096.445.105.443.112.44.12.44.129.438.135.435.144.433.15.43.16.428.166.426.174.422.182.42.189.416.196.414.204.41.211.406.219.403.225.399.233.395.24.391.247.387.254.383.26.379.269.374.274.37.281.364.288.36.294.355.301.35.307.344.314.34.32.334.325.328.332.323.337.317.344.311.349.305.355.3.36.293.366.287.37.28.377.274.381.268.387.26.39.255.397.247.4.24.406.234.41.227.413.22.418.211.422.205.426.198.43.19.434.183.437.175.44.167.444.16.447.152.45.145.453.136.455.129.458.12.461.113.463.105.465.096.468.088.469.08.471.073.473.063.474.056.475.047.477.04.478.03.479.022.479.014.48.005.48-.003.482-.01.48-.02.482-.029.481-.037.48-.045.481-.053.48-.062.48-.07.478-.079.477-.087.476-.095.475-.104.474-.112.471-.12.47-.13.469-.137.466-.145.464-.153.462-.162.46-.17.456-.177.454-.186.451-.194.448-.201.445-.21.442-.217.438-.225.435-.233.43-.24.428-.249.423-.255.419-.263.414-.27.41-.279.406-.285.401-.292.396-.299.392-.306.386-.313.381-.32.376-.327.37-.333.365-.34.36-.346.353-.353.347-.358.342-.365.335-.371.33-.377.323-.383.316-.389.31-.394.303-.4.297-.404.29-.41.282-.416.276-.42.269-.426.261-.43.254-.435.247-.439.239-.444.232-.447.223-.452.217-.457.208-.46.2-.463.193-.467.185-.47.176-.475.169-.477.16-.48.152-.483.143-.486.136-.488.126-.491.119-.493.11-.496.1-.497.093-.499.084-.5.075-.503.067-.504.058-.505.049-.506.04-.507.031-.508.022-.508.014-.51.005-.509-.004-.51-.013-.509-.022-.509-.031-.509-.04-.508-.049-.508-.058-.507-.066-.507-.076-.505-.084-.504-.093-.502-.102-.501-.111-.5-.12-.497-.128-.495-.138-.493-.146-.49-.154-.49-.164-.485-.171-.483-.181-.48-.189-.477-.198-.474-.205-.47-.215-.467-.222-.463-.231-.459-.24-.455-.247-.451-.255-.447-.263-.443-.272-.438-.279-.433-.287-.429-.294-.423-.302-.419-.31-.413-.317-.408-.325-.402-.332-.397-.339-.39-.346-.386-.353-.379-.36-.373-.367-.367-.374-.36-.38-.354-.386-.347-.393-.34-.4-.334-.405-.327-.41-.32-.418-.313-.423-.305-.429-.298-.434-.29-.44-.284-.444-.275-.45-.267-.455-.26-.46-.252-.465-.244-.469-.236-.474-.227-.478-.22-.482-.21-.486-.203-.49-.194-.494-.185-.498-.177-.5-.169-.505-.159-.508-.15-.51-.142-.514-.133-.516-.124-.518-.115-.521-.106-.523-.097-.526-.087-.527-.079-.529-.07-.53-.06-.533-.05-.533-.041-.534-.032-.536-.023-.536-.013-.537-.004-.537.005-.538.015-.537.024-.538.034-.538.043-.537.052-.536.062-.536.071-.535.08-.535.09-.532.1-.532.109-.53.118-.528.127-.527.137-.525.146-.522.155-.52.164-.518.173-.514.182-.513.192-.509.2-.506.21-.502.217-.5.227-.495.236-.492.244-.488.254-.484.261-.48.27-.475.279-.471.287-.466.295-.462.303-.456.312-.451.32-.446.327-.44.335-.436.343-.43.35-.423.359-.418.365-.411.373-.406.38-.398.388-.393.395-.386.4-.379.409-.372.415-.366.421-.358.428-.35.434-.345.44-.336.447-.328.452-.321.458-.314.464-.305.469-.297.475-.29.48-.28.485-.274.49-.264.494-.256.5-.248.504-.238.508-.23.513-.222.517-.212.52-.204.525-.194.528-.186.531-.176.535-.167.538-.158.541-.148.544-.14.546-.129.55-.12.55-.11.554-.102.555-.09.557-.082.559-.072.56-.063.562-.052.563-.043.563-.033.565-.022.565-.014.566-.003.566.007.566.016.566.027.565.036.566.046.565.056.563.067.564.075.562.086.56.096.56.105.557.116.556.125.554.135.551.144.55.155.547.164.544.173.542.183.538.193.535.202.532.212.529.22.525.231.52.24.518.249.513.258.508.267.505.276.5.285.494.293.49.303.484.311.48.32.474.328.468.337.463.345.457.354.451.36.445.37.439.378.432.385.425.393.42.4.411.408.405.416.398.422.39.43.384.436.376.444.368.45.36.457.353.463.345.47.337.476.328.482.32.488.312.494.304.5.294.504.286.51.277.515.268.52.26.526.25.53.24.535.233.539.222.543.213.548.203.55.194.556.185.559.174.562.165.565.155.569.145.571.136.574.125.577.115.58.105.58.095.584.085.585.075.587.064.589.054.59.044.591.034.592.023.593.013.594.002.593-.008.595-.018.594-.028.594-.04.594-.049.594-.06.593-.07.592-.08.59-.092.59-.1.589-.113.587-.121.585-.133.583-.142.582-.153.578-.163.577-.173.574-.183.57-.193.569-.203.565-.213.561-.223.558-.233.555-.242.55-.252.546-.262.543-.272.537-.28.534-.291.528-.3.524-.309.519-.318.513-.328.508-.336.503-.345.497-.354.49-.363.486-.371.478-.38.473-.388.466-.397.46-.404.452-.413.446-.42.439-.43.431-.436.424-.443.417-.452.41-.458.4-.466.394-.473.386-.48.377-.486.37-.493.36-.5.352-.505.344-.512.335-.518.326-.525.317-.53.308-.535.3-.54.29-.546.28-.551.27-.557.262-.56.252-.566.242-.57.232-.574.223-.578.212-.582.203-.586.192-.59.182-.592.172-.596.162-.6.151-.601.141-.605.13-.607.12-.61.11-.611.099-.614.088-.615.077-.617.067-.618.056-.62.045-.62.034-.621.023-.622.013-.622.002-.623-.01-.622-.02-.623-.03-.622-.042-.622-.053-.62-.063-.62-.075-.62-.085-.617-.096-.617-.107-.614-.118-.613-.128-.61-.14-.61-.15-.605-.16-.604-.172-.6-.182-.598-.192-.595-.203-.591-.214-.588-.224-.584-.234-.58-.244-.576-.255-.572-.265-.567-.275-.563-.285-.558-.295-.553-.305-.548-.314-.542-.325-.538-.333-.531-.344-.526-.353-.52-.362-.513-.37-.507-.381-.5-.39-.495-.398-.487-.407-.48-.416-.474-.424-.466-.432-.458-.441-.451-.45-.444-.457-.435-.465-.428-.472-.42-.48-.41-.489-.403-.495-.394-.502-.386-.51-.377-.516-.368-.524-.359-.53-.35-.536-.34-.542-.331-.549-.322-.555-.312-.56-.302-.566-.293-.572-.283-.577-.273-.582-.262-.587-.253-.592-.242-.596-.232-.6-.221-.606-.211-.61-.2-.612-.19-.617-.18-.62-.168-.624-.157-.627-.147-.63-.135-.632-.125-.635-.114-.637-.102-.64-.091-.642-.08-.643-.07-.645-.057-.647-.046-.648-.035-.648-.024-.65-.012-.65-.001-.65.01-.652.022-.65.033-.651.044-.65.056-.65.067-.65.079-.648.09-.647.101-.645.113-.644.124-.643.135-.64.146-.638.158-.636.169-.633.18-.63.19-.628.203-.625.213-.621.223-.618.235-.614.246-.61.256-.606.267-.601.278-.597.288-.593.298-.588.31-.582.318-.578.33-.572.34-.566.349-.561.36-.555.368-.548.38-.543.388-.536.398-.53.407-.522.417-.515.426-.509.434-.501.444-.494.453-.486.46-.479.47-.47.479-.463.486-.454.494-.446.502-.438.51-.428.518-.42.526-.412.532-.402.54-.393.547-.383.554-.374.56-.365.567-.355.573-.345.58-.335.586-.325.591-.315.597-.305.603-.295.608-.284.613-.273.618-.263.623-.253.628-.24.632-.231.636-.22.64-.208.644-.198.648-.186.651-.175.655-.163.657-.153.66-.14.664-.13.665-.117.668-.106.67-.095.672-.083.673-.07.675-.06.676-.048.677-.036.678-.023.679-.013h.679l.679.012.679.023.679.035.679.048.678.059.677.07.676.084.675.094.673.107.672.118.67.13.668.142.666.153.663.165.66.177.658.189.654.2.652.211.647.223.644.234.64.246.636.257.632.268.627.279.623.29.618.301.612.312.607.323.602.334.597.344.59.355.584.365.579.375.571.386.566.396.558.406.552.415.544.426.537.435.53.444.522.454.515.464.506.472.498.481.49.49.482.5.473.507.465.516.455.524.446.532.438.54.428.549.418.555.41.564.399.57.389.578.38.584.369.592.359.598.349.604.338.611.328.617.317.623.306.628.295.634.285.64.273.644.262.65.25.654.24.659.228.663.217.668.205.671.193.675.182.679.17.682.157.685.146.689.134.69.122.694.11.696.097.698.086.7.073.702.061.703.05.704.036.706.024.706.012.707v.707l-.013.708-.026.707-.037.708-.05.706-.062.707-.075.705-.087.704-.1.703-.111.701-.124.7-.136.698-.148.695-.161.693-.173.69-.185.688-.197.685-.209.681-.22.678-.233.674-.245.67-.256.667-.269.662-.28.658-.29.652-.304.648-.314.643-.326.638-.336.632-.348.626-.36.62-.37.615-.38.608-.392.601-.402.595-.412.588-.424.581-.433.574-.443.566-.454.559-.463.551-.473.543-.483.535-.492.527-.502.518-.51.51-.52.5-.53.492-.537.483-.546.473-.554.465-.563.454-.57.445-.58.435-.586.425-.594.415-.602.405-.609.394-.616.384-.622.373-.63.362-.636.351-.642.34-.648.33-.655.318-.66.307-.665.295-.671.284-.676.272-.681.26-.686.248-.69.237-.695.225-.699.212-.702.2-.707.189-.71.175-.712.164-.717.151-.719.139-.721.126-.724.113-.726.101-.729.088-.73.076-.73.063-.734.05-.733.037" clip-path="url(#a)"/><path fill="#118" stroke="#110a0c" d="M-50-9H50V9H-50z" clip-path="url(#a)"/><text y="5.5" fill="#fff" stroke-width=".5" font-family="Arial" font-size="16" font-weight="bolder" text-anchor="middle">MWM</text></g><circle r="30" fill="none" stroke="#707070"/></svg>