<svg xmlns="http://www.w3.org/2000/svg" id="dieline" viewBox="0 0 34.02 34.02"><defs><style>.cls-1{fill:#fff}</style></defs><circle cx="17.01" cy="17.01" r="17.01" style="fill:#a368ab"/><path d="m11.93 23.02-2.87 1.57h15.88l-2.88-1.58-1.08-.59-3.87-2.2.68-1.25 3.88 2.2.92-1.68-3.87-2.2.68-1.25 7.81 4.37-7.82-13.48v9.02h-1.42v-4.54h-1.92v4.54h-1.42V6.92L6.77 20.41l7.83-4.37.68 1.25-3.88 2.21.92 1.68 3.89-2.21.68 1.25-3.89 2.2z" class="cls-1"/><path d="m29.64 24.59-1.79-3.09-.38.67-3.81-2.09-.92 1.68 3.81 2.1-.4.73zM7.42 23.87l3.82-2.1-.92-1.68-3.82 2.1-.37-.67-1.79 3.07h3.47zM16.05 5.75v4.42h1.92V5.75h.73l-1.69-2.92-1.7 2.92z" class="cls-1"/></svg>