<svg xmlns="http://www.w3.org/2000/svg" id="dieline" viewBox="0 0 34.02 34.02"><defs><style>.cls-1{fill:#fff}</style></defs><circle cx="17.01" cy="17.01" r="17.01" style="fill:#b59588"/><path d="M12.87 12.27a2.08 2.08 0 0 1-.93.77h.05v3.04c1.03-.17 2.01-.65 2.8-1.45.68-.68 1.12-1.5 1.35-2.36h-3.28Z" class="cls-1"/><path d="M10.26 13.04h.05a2.1 2.1 0 1 1 2.3-3.42c.26.26.43.58.53.91h3.17c-.1-1.18-.6-2.34-1.5-3.25a5.197 5.197 0 1 0-7.35 7.35c.79.79 1.78 1.27 2.8 1.45zM22.19 13.3c-.06-.03-.12-.05-.18-.08a2.13 2.13 0 0 1-.86-.95h-3.32a5.18 5.18 0 0 0 4.35 4.26v-3.24Z" class="cls-1"/><path d="M22.96 6.2c-2.57 0-4.71 1.87-5.12 4.33h3.32c.03-.06.05-.12.08-.18a2.1 2.1 0 0 1 2.87-.77 2.098 2.098 0 0 1-.18 3.73v3.2a5.202 5.202 0 0 0-.98-10.31ZM12 17.8v3.15c.06.03.12.05.18.08 1.01.58 1.35 1.87.77 2.87a2.1 2.1 0 0 1-2.87.77 2.098 2.098 0 0 1 .18-3.73V17.8c-2.46.42-4.33 2.55-4.33 5.12 0 2.87 2.33 5.2 5.2 5.2s5.2-2.33 5.2-5.2c0-2.57-1.87-4.71-4.33-5.12M22.12 25.13a2.17 2.17 0 0 1-1.28-1.97c0-1.19.97-2.16 2.16-2.16s2.16.97 2.16 2.16c0 .89-.53 1.65-1.3 1.98v3.31l5.29-5.29L23 17.01l-6.15 6.15 5.26 5.26v-3.3Z" class="cls-1"/></svg>