<svg xmlns="http://www.w3.org/2000/svg" viewBox="0 0 612 612"><circle cx="306" cy="306" r="306" fill="#5e0000" class="color-red color-main"/><g fill="#fff200" stroke-miterlimit="10" class="color-yellow color-reserved-white"><path stroke="#fff200" stroke-width="3.792" d="M134.4 283.8 176.3 101h140.1l-7.1 30.5h-98.9l-10.1 43.9h97l-7 30.5h-97l-17.8 77.8zm171.4 0L347.6 101h148.5l-7 30.5H381.9l-9.6 41.5H476l-7 30.5H365.3l-12.6 49.6h116.5l-7.1 30.5H305.8zM219 507.2h-39.1l-7.2-152.7-31.8 152.7h-37.2l41.8-182.8h58.7l6.1 128 68.3-128H338l-41.9 182.8h-37.6L298 355.6zm218 0h-44l-35.9-182.8h41.1l25.4 138.3 82.9-138.3h40.8z" class="color-stroke-yellow color-stroke-reserved-white"/><path stroke="#5e0000" stroke-width="7.584" d="m386 315.7 29 15.9c-2.7 4.8-6.2 10-10.6 15.5-4.3 5.6-8.4 10-12.1 13.1 5.3 5.2 12.2 11 20.5 17.4l-25.4 24.1c-3.2-1.5-7.2-4.1-12.1-7.8s-9-7.1-12.4-10.4c-6.7 4.9-15.2 8.9-25.4 12.2-10.2 3.2-21.2 4.9-33 4.9-21.3 0-38-5.1-50.2-15.4s-18.2-22.9-18.2-37.8q0-14.25 7.2-26.4c7.2-12.15 11.1-15.1 18.7-20.9 5.5-4.2 14.5-9.3 26.9-15.4-6.1-12-9.1-22.5-9.1-31.5 0-13.1 5.3-24.2 15.8-33.1 10.5-9 24.4-13.4 41.6-13.4 14.8 0 26.5 3.6 35.1 10.7s13 15.5 13 25c0 8.1-3.7 16.9-11.1 26.3s-19.7 18.1-36.7 25.9c5.3 8.2 12 17.6 19.9 28.2 4.8 6.5 8.6 11.1 11.5 14 4.7-4.6 10.4-11.6 17.1-21.1zm-82.5-5.3c-18.5 8.4-27.8 19.6-27.8 33.4 0 7.9 2.8 14.3 8.3 19.3s12.9 7.6 22 7.6c11.1 0 22.6-3.5 34.4-10.6-14.1-15.7-26.4-32.3-36.9-49.7zm19.4-41.1c11-5.1 18.8-10.3 23.3-15.5q4.8-5.7 4.8-11.4c0-3.5-1.3-6.4-3.9-8.6-2.6-2.3-6.1-3.4-10.6-3.4-5.6 0-10.3 1.8-14 5.3s-5.6 8.2-5.6 13.9c-.1 5.5 1.9 12.1 6 19.7z" class="color-stroke-red color-stroke-main"/></g></svg>