<svg xmlns="http://www.w3.org/2000/svg" width="739.33" height="739.33"><defs><filter id="a" width="1.033" height="1.123" x="-.017" y="-.062" color-interpolation-filters="sRGB"><feGaussianBlur stdDeviation="1.311"/></filter><filter id="b" width="1.033" height="1.123" x="-.017" y="-.062" color-interpolation-filters="sRGB"><feGaussianBlur stdDeviation="1.311"/></filter><filter id="c" width="1.033" height="1.123" x="-.017" y="-.062" color-interpolation-filters="sRGB"><feGaussianBlur stdDeviation="1.311"/></filter><filter id="d" width="1.033" height="1.123" x="-.017" y="-.062" color-interpolation-filters="sRGB"><feGaussianBlur stdDeviation="1.311"/></filter><path id="e" d="M265.058 316.991h255.386v203.321H265.058z"/></defs><path fill-rule="evenodd" stroke="#000" stroke-width="2.127" d="M371.435 13.825c-54.64 2.39-226.74-3.12-226.74 46.41v586.15c0 49.53 100.33 89.405 224.97 89.405 124.63 0 224.97-39.875 224.97-89.405V60.235c0-49.53-153.4-43.972-223.19-46.41z"/><path fill="none" stroke="#000" stroke-width="1.988" d="M144.694 132.485v510.8c0 43.237 100.37 78.055 225.03 78.055s225.03-34.818 225.03-78.055v-510.8z"/><path stroke="#1d1d1d" stroke-width="14.601" d="M471 76.071c0 30.1-90.438 54.5-202 54.5s-202-24.4-202-54.5 90.438-54.5 202-54.5 202 24.4 202 54.5z" transform="matrix(1.1601 0 0 1.0759 57.598 -15.054)"/><path stroke="#1d1d1d" stroke-width="14.601" d="M471 76.071c0 30.1-90.438 54.5-202 54.5s-202-24.4-202-54.5 90.438-54.5 202-54.5 202 24.4 202 54.5z" transform="matrix(1.1601 0 0 1.0759 57.598 181.135)"/><path stroke="#1d1d1d" stroke-width="14.601" d="M471 76.071c0 30.1-90.438 54.5-202 54.5s-202-24.4-202-54.5 90.438-54.5 202-54.5 202 24.4 202 54.5z" transform="matrix(1.1601 0 0 1.0759 57.598 590.695)"/><path stroke="#1d1d1d" stroke-width="14.601" d="M471 76.071c0 30.1-90.438 54.5-202 54.5s-202-24.4-202-54.5 90.438-54.5 202-54.5 202 24.4 202 54.5z" transform="matrix(1.1601 0 0 1.0759 57.598 398.165)"/><path stroke="#cacaca" stroke-width="7.161" d="M471 76.071c0 30.1-90.438 54.5-202 54.5s-202-24.4-202-54.5 90.438-54.5 202-54.5 202 24.4 202 54.5z" filter="url(#a)" opacity=".075" transform="matrix(1.1601 0 0 1.0759 57.093 -14.284)"/><path stroke="#cacaca" stroke-width="7.161" d="M471 76.071c0 30.1-90.438 54.5-202 54.5s-202-24.4-202-54.5 90.438-54.5 202-54.5 202 24.4 202 54.5z" filter="url(#b)" opacity=".075" transform="matrix(1.1601 0 0 1.0759 57.093 181.915)"/><path d="M143.427 195.845h452.31v67.014h-452.31z"/><path stroke="#cacaca" stroke-width="7.161" d="M471 76.071c0 30.1-90.438 54.5-202 54.5s-202-24.4-202-54.5 90.438-54.5 202-54.5 202 24.4 202 54.5z" filter="url(#c)" opacity=".075" transform="matrix(1.1601 0 0 1.0759 57.093 398.935)"/><path d="M143.427 412.235h452.31v67.014h-452.31z"/><path stroke="#cacaca" stroke-width="7.161" d="M471 76.071c0 30.1-90.438 54.5-202 54.5s-202-24.4-202-54.5 90.438-54.5 202-54.5 202 24.4 202 54.5z" filter="url(#d)" opacity=".075" transform="matrix(1.1601 0 0 1.0759 57.093 590.465)"/><path d="M143.427 605.055h452.31v67.014h-452.31z"/><path d="M272.93 326.465v22.676h4.765q6.035 0 8.828-2.735 2.813-2.734 2.813-8.633 0-5.859-2.813-8.574-2.793-2.734-8.828-2.734zm-3.946-3.242h8.106q8.476 0 12.441 3.535 3.965 3.515 3.965 11.015 0 7.54-3.984 11.075t-12.422 3.535h-8.106z" aria-label="D" style="font-size:40px;line-height:1.25;-inkscape-font-specification:&quot;sans-serif, Normal&quot;;white-space:pre;shape-inside:url(#e);fill:#fff" transform="translate(-3434.766 -4199.906)scale(13.52734)"/></svg>