<svg xmlns="http://www.w3.org/2000/svg" width="48" height="48" viewBox="0 0 12.7 12.7"><defs><clipPath id="a"><path d="M40 22c0 9.941-8.059 18-18 18S4 31.941 4 22 12.059 4 22 4s18 8.059 18 18" clip-rule="evenodd"/></clipPath><clipPath id="b"><path d="M0 0h44v44H0z" clip-rule="evenodd"/></clipPath></defs><g clip-path="url(#a)" transform="matrix(.35278 0 0 -.35278 -1.401 14.129)"><g clip-path="url(#b)"><g fill="#ffef00" fill-rule="evenodd"><path d="M0 22h44v22H0zM0 0h44v22H0z"/></g><text x="14.817" y="-18.691" font-family="Times" font-size="10" font-weight="bold" transform="scale(1 -1)"><tspan>AG</tspan></text><path fill="none" stroke="#000" stroke-miterlimit="10" stroke-width=".5" d="M40 22c0 9.941-8.059 18-18 18S4 31.941 4 22 12.059 4 22 4s18 8.059 18 18"/></g></g></svg>