<svg xmlns="http://www.w3.org/2000/svg" width="48" height="48" viewBox="0 0 12.7 12.7"><defs><clipPath id="a"><path d="M36 18c0 9.941-8.059 18-18 18S0 27.941 0 18 8.059 0 18 0s18 8.059 18 18" clip-rule="evenodd"/></clipPath><clipPath id="b"><path d="M0 0h36v36H0z" clip-rule="evenodd"/></clipPath></defs><g clip-path="url(#a)" transform="matrix(.35278 0 0 -.35278 0 12.7)"><g clip-path="url(#b)"><g fill-rule="evenodd"><path fill="#87421f" d="M38 18c0 11.046-8.954 20-20 20S-2 29.046-2 18 6.954-2 18-2s20 8.954 20 20"/><g fill="#fff"><path d="M15 0h6v36h-6z"/><path stroke="#000" stroke-miterlimit="10" stroke-width=".5" d="M0 14h36v8H0z"/></g></g><path d="M11.924 16.316c-.664-.744-1.264-.984-1.888-.984-.248 0-.88.12-1.216.696-.296.512-.344 1.28-.344 1.76 0 1.352.312 2.576 1.48 2.576.912 0 1.584-.936 1.864-1.632h.2v1.872h-.216c-.08-.2-.152-.368-.368-.368-.208 0-.824.392-1.544.392-1.68 0-2.832-1.248-2.832-2.872 0-1.496 1.008-2.808 2.872-2.808 1.024 0 1.648.504 2.232 1.168zm.648 3.992c.376-.024.704-.04.704-.568v-3.872c0-.496-.248-.52-.704-.568v-.2h2.88v.2c-.56.024-.88.04-.88.568v1.864c1.008 0 1.136-.584 1.224-1.24h.2v2.704h-.2c-.112-.64-.232-1.208-1.224-1.192v1.856c0 .344.144.376.576.376 1.376 0 1.592-.504 1.768-1.336h.192v1.608h-4.536zm7.872.056c1.12 0 1.416-1.408 1.416-2.576 0-.696-.048-2.576-1.416-2.576s-1.416 1.88-1.416 2.576c0 1.168.296 2.576 1.416 2.576m0 .264c-1.544 0-2.832-1.096-2.832-2.84 0-1.68 1.192-2.84 2.832-2.84s2.832 1.16 2.832 2.84c0 1.744-1.288 2.84-2.832 2.84m5.32-.728c.04.248.056.336.496.336.64 0 .968-.344.968-1.152 0-1.04-.416-1.216-1.464-1.224zm3.512-4.6a.37.37 0 0 0-.328.152l-1.608 2.28c.432.136 1.256.384 1.256 1.368 0 1.344-1.696 1.408-2.256 1.408h-2.576v-.2c.456-.032.704-.048.704-.736v-3.536c0-.648-.16-.672-.704-.736v-.2h2.704v.2c-.528.072-.704.096-.704.736v1.568h.216l1.656-2.504h1.64z"/><path fill="none" stroke="#000" stroke-miterlimit="10" stroke-width=".5" d="M36 18c0 9.941-8.059 18-18 18S0 27.941 0 18 8.059 0 18 0s18 8.059 18 18"/></g></g></svg>