<svg xmlns="http://www.w3.org/2000/svg" width="48" height="48" viewBox="0 0 12.7 12.7"><defs><clipPath id="a"><path d="M40 22c0 9.941-8.059 18-18 18S4 31.941 4 22 12.059 4 22 4s18 8.059 18 18" clip-rule="evenodd"/></clipPath><clipPath id="b"><path d="M0 0h44v44H0z" clip-rule="evenodd"/></clipPath></defs><g clip-path="url(#a)" transform="matrix(.35278 0 0 -.35278 -1.408 14.113)"><g clip-path="url(#b)"><g fill-rule="evenodd"><path fill="#737373" d="M0 22h22v22H0z"/><g fill="#ccc"><path d="M22 22h22v22H22zM0 0h22v22H0z"/></g><path fill="#737373" d="M22 0h22v22H22z"/><path stroke="#000" stroke-miterlimit="10" stroke-width=".5" d="M0 18h44v8H0z"/></g><text fill="#fff" font-family="Times" font-size="8" font-weight="bold" transform="matrix(1 0 0 -1 16.664 18.9)"><tspan x="0 5.336" y="0">LB</tspan></text><path fill="none" stroke="#000" stroke-miterlimit="10" stroke-width=".5" d="M40 22c0 9.941-8.059 18-18 18S4 31.941 4 22 12.059 4 22 4s18 8.059 18 18"/></g></g></svg>