<svg xmlns="http://www.w3.org/2000/svg" data-name="Layer 1" viewBox="0 0 28 28"><circle cx="14" cy="14" r="13.75" fill="#0ff"/><path fill="#231f20" d="M2.16 8.59h2.46a6.6 6.6 0 0 1 1.77.18 1.75 1.75 0 0 1 1 .73 3.4 3.4 0 0 1 .36 1.79 1.84 1.84 0 0 1-.26 1.15 1.8 1.8 0 0 1-1 .51 1.84 1.84 0 0 1 1.16.64A2.5 2.5 0 0 1 7.9 15v.88a3.4 3.4 0 0 1-.22 1.43 1.18 1.18 0 0 1-.7.63 7 7 0 0 1-2 .17H2.16zm2.46 1.62v2.11h.25c.24 0 .4-.06.46-.18a2.8 2.8 0 0 0 .1-1 1.5 1.5 0 0 0-.08-.62.37.37 0 0 0-.21-.23 1.9 1.9 0 0 0-.52-.08m0 3.58v2.66a1.12 1.12 0 0 0 .67-.16c.1-.1.14-.34.14-.73v-.88c0-.41 0-.65-.13-.74a1.25 1.25 0 0 0-.68-.15m6.53-5.2v1.23H8.71V8.59zm0 1.71v7.77H8.71V10.3zm6.23 0v6a16 16 0 0 1-.05 1.56 1.54 1.54 0 0 1-.4.75 2.1 2.1 0 0 1-.95.61 5 5 0 0 1-1.52.2 3.67 3.67 0 0 1-1.82-.42 1.63 1.63 0 0 1-.71-1.51h2.3c0 .35.12.52.37.52a.39.39 0 0 0 .36-.16 1.6 1.6 0 0 0 .09-.66v-.59a2.5 2.5 0 0 1-.64.42 1.9 1.9 0 0 1-.71.14 2 2 0 0 1-1-.26 1.34 1.34 0 0 1-.57-.68 3.7 3.7 0 0 1-.15-1.19v-2.79a2.52 2.52 0 0 1 .4-1.6 1.49 1.49 0 0 1 1.21-.48 1.8 1.8 0 0 1 .81.18 1.9 1.9 0 0 1 .66.54l.17-.58zM15 12.36a2.3 2.3 0 0 0-.06-.68.27.27 0 0 0-.28-.15.31.31 0 0 0-.29.17 1.8 1.8 0 0 0-.08.66V15a2.3 2.3 0 0 0 .06.68.27.27 0 0 0 .27.15.3.3 0 0 0 .31-.18 3.5 3.5 0 0 0 .07-.85zm10.17-3.77v6.2h.67v1.61h-.67v1.67H22.8V16.4H20v-1.61l2-6.2zm-2.37 6.2v-4l-1.05 4z"/></svg>