<svg xmlns="http://www.w3.org/2000/svg" data-name="Layer 1" viewBox="0 0 28 28"><circle cx="14" cy="14" r="13.75" fill="pink"/><path fill="#231f20" d="M14.59 9.26v9.48h-2.15v-6.4l-.86 6.4h-1.53l-.91-6.25v6.25H7V9.26h3.2c.09.57.19 1.24.29 2l.35 2.42.57-4.43zm6.22 2.87h-2.29v-.71a1.34 1.34 0 0 0-.09-.62.32.32 0 0 0-.29-.14.38.38 0 0 0-.34.18 1.2 1.2 0 0 0-.11.56 1.5 1.5 0 0 0 .13.71 1.9 1.9 0 0 0 .69.58 7 7 0 0 1 2.08 1.61 3.7 3.7 0 0 1 .43 2 3.5 3.5 0 0 1-.24 1.49 1.87 1.87 0 0 1-.92.81 3.7 3.7 0 0 1-1.58.32 3.54 3.54 0 0 1-1.69-.37 1.85 1.85 0 0 1-.92-1 5 5 0 0 1-.21-1.55v-.63h2.29v1.13a1.6 1.6 0 0 0 .09.68.37.37 0 0 0 .35.16.4.4 0 0 0 .36-.2 1.1 1.1 0 0 0 .12-.57 1.75 1.75 0 0 0-.23-1.1 7 7 0 0 0-1.15-.86 12 12 0 0 1-1.22-.88 2.1 2.1 0 0 1-.49-.76 3.4 3.4 0 0 1-.2-1.25 3.4 3.4 0 0 1 .28-1.59 1.8 1.8 0 0 1 .9-.79 3.6 3.6 0 0 1 1.5-.28 3.9 3.9 0 0 1 1.64.31 1.7 1.7 0 0 1 .89.78 4.1 4.1 0 0 1 .22 1.6z"/></svg>