<svg xmlns="http://www.w3.org/2000/svg" stroke-linejoin="round" stroke-miterlimit="2" viewBox="0 0 38 38"><path fill="#202020" d="M36.72 18.72c0-9.875-8.125-18-18-18s-18 8.125-18 18 8.125 18 18 18 18-8.125 18-18"/><path fill="#fff" d="M19.56 28.53V27l2.88-2.79A28.4 28.4 0 0 0 27 18.89a7 7 0 0 0 1-3.5 3.75 3.75 0 0 0-.83-2.6 2.91 2.91 0 0 0-2.28-.91 3.8 3.8 0 0 0-1.91.46 2.2 2.2 0 0 0-1 .94c-.06.14-.26.94-.6 2.36h-1.13a49 49 0 0 0 .57-4.9 7 7 0 0 1 2.31-1.57 7.9 7.9 0 0 1 2.79-.48 6.08 6.08 0 0 1 4.36 1.48 5.07 5.07 0 0 1 1.6 3.88 6.76 6.76 0 0 1-1.26 3.82q-1.23 1.92-6.92 7.06l.08.17H27l5.62-.17.14.17a18 18 0 0 0-.14 1.8q.014.745.14 1.48l-.14.15-6.22-.15zm-13-.06-.14-.17v-.83l.14-.17a19.7 19.7 0 0 0 3-.37.65.65 0 0 0 .38-.34c.196-.9.28-1.82.25-2.74l.12-7.12-.09-4.54c-.09-.29-.11-.25-.26-.25a1.1 1.1 0 0 0-.4.11l-3.87 1.74-.2-.12A10.6 10.6 0 0 0 5.2 12l.12-.23A84 84 0 0 0 14 8.86l.37.23c-.14 1.28-.23 3.05-.29 5.27L14 22.43a28 28 0 0 0 .17 4 .8.8 0 0 0 .31.49 11.2 11.2 0 0 0 2.85.34l.15.17v.83l-.15.17h-1.74c-1.73 0-2.93-.06-3.53-.06l-5.55.1z"/></svg>