<svg xmlns="http://www.w3.org/2000/svg" stroke-linejoin="round" stroke-miterlimit="2" viewBox="0 0 38 38"><path fill="#202020" d="M36.72 18.72c0-9.875-8.125-18-18-18s-18 8.125-18 18 8.125 18 18 18 18-8.125 18-18"/><path fill="#fff" d="M62.54 19.38A5.8 5.8 0 0 0 61 21.3a5 5 0 0 0-.48 2.22 4.33 4.33 0 0 0 1.08 3 3.6 3.6 0 0 0 2.69 1.17 3.05 3.05 0 0 0 2.38-1 3.53 3.53 0 0 0 1-2.58 3.7 3.7 0 0 0-.39-1.71A4.4 4.4 0 0 0 66 21.06a24.5 24.5 0 0 0-3.46-1.68m3.12-2.88A4.8 4.8 0 0 0 67 14.91a4.1 4.1 0 0 0 .45-1.86 3.22 3.22 0 0 0-.87-2.43 3.06 3.06 0 0 0-2.34-.87 3 3 0 0 0-2.22.78 2.67 2.67 0 0 0-.82 2 2.82 2.82 0 0 0 .82 2 12 12 0 0 0 3.64 1.97m-4.42 2.28a6.1 6.1 0 0 1-2.33-2 5.2 5.2 0 0 1-.72-2.78A5.5 5.5 0 0 1 60 9.81a6.74 6.74 0 0 1 4.77-1.65 5.7 5.7 0 0 1 3.93 1.23 4.3 4.3 0 0 1 1.3 3.33 4.3 4.3 0 0 1-.59 2.28 6.9 6.9 0 0 1-2.31 2 6.5 6.5 0 0 1 2.73 1.77 5.3 5.3 0 0 1 1.11 3.51 6.75 6.75 0 0 1-2 4.95 7.1 7.1 0 0 1-5.18 2 6.16 6.16 0 0 1-4.41-1.56 5.12 5.12 0 0 1-1.68-3.93 5.2 5.2 0 0 1 .78-2.91c.74-.91 1.7-1.616 2.79-2.05M27.11 8.46v1.41c-2 3.45-3.87 7-5.61 10.71A91 91 0 0 0 18 29a16 16 0 0 0-1.77-.12 13 13 0 0 0-1.71.12l-.15-.45c1-1.59 2-3.12 2.82-4.59s2.22-3.75 4-6.84l2.64-4.65-.15-.24H18c-.914-.049-1.83.011-2.73.18a.77.77 0 0 0-.39.42 11.8 11.8 0 0 0-.48 2.91l-.12.12-1.2-.09c.06-1.11.12-2.4.12-3.9 0-1-.06-2-.12-3.3l.24-.24c2.85.15 5.79.24 8.79.24z"/></svg>