<svg xmlns="http://www.w3.org/2000/svg" viewBox="0 0 37.44 37.44"><path fill="#00a651" d="M37 18.72a18 18 0 1 0-18 18 18 18 0 0 0 18-18"/><path fill="#fff" d="M31.24 18.72a44 44 0 0 0-.41-6.08l-.18-1.12c0-.21-.07-.42-.11-.64l-4.24-.73-1-.12a59 59 0 0 0-6.3-.34 57 57 0 0 0-8.91.69l-1.58.28-1 .22-.43 2.89c0 .27 0 .49-.07.67l-.2 4.28a44 44 0 0 0 .41 6.08c0 .37.11.75.17 1.12l.12.64 4.24.73 1 .11a56 56 0 0 0 6.32.34 56.6 56.6 0 0 0 8.91-.68l1.58-.28 1.05-.22.43-2.89c0-.27.05-.5.07-.67l.2-4.28m1.44 0-.21 4.41c0 .29 0 .52-.07.7l-.53 3.46a.74.74 0 0 1-.58.58l-1.53.32-1.62.29a59 59 0 0 1-9.14.7 61 61 0 0 1-6.48-.34l-1-.12-4.84-.86a.73.73 0 0 1-.55-.57L6 26.16c-.06-.4-.2-.77-.25-1.16a46 46 0 0 1-.43-6.28q0-2.26.21-4.41c0-.29 0-.52.07-.7l.53-3.46a.72.72 0 0 1 .59-.58l1.52-.32 1.62-.29a58.5 58.5 0 0 1 9.14-.7 61 61 0 0 1 6.48.34l1 .12 4.84.86a.73.73 0 0 1 .55.57l.2 1.13.18 1.16a46 46 0 0 1 .43 6.28zM29 14.79c-.85 0-3.94-.49-4.65 0a.43.43 0 0 0-.18.37.6.6 0 0 0 .09.3 2 2 0 0 0 .26.36l3.15 3.53a6.3 6.3 0 0 1 1.07 1.59 3.8 3.8 0 0 1 .35 1.57 3.2 3.2 0 0 1-.31 1.49 3 3 0 0 1-.93 1.12 3.3 3.3 0 0 1-1.32.55 32.7 32.7 0 0 1-6.22.49l-.26-3c1-.17 3.75-.24 4.51-.8a.51.51 0 0 0 .17-.41.54.54 0 0 0-.08-.26 1.8 1.8 0 0 0-.21-.32L21 17.5a4.5 4.5 0 0 1-.82-1.33 4 4 0 0 1-.28-1.46 3.8 3.8 0 0 1 .17-1.12 3.2 3.2 0 0 1 .5-1 2.8 2.8 0 0 1 1.34-1c2-.69 4.7-.07 6.83.12l.29 3m-11.34-3.38-.05 3.13-4.44.54v3.8h3.71v3.09H13.2v4.23l-3.86-.39c-.08.24 0-7.81 0-13.73l8.38-.66"/></svg>