<svg xmlns="http://www.w3.org/2000/svg" xmlns:xlink="http://www.w3.org/1999/xlink" viewBox="0 0 37.44 37.44"><style>.H{fill-rule:evenodd}.I{fill:#fff200}.J{fill:#ffcb05}.K{fill:#231f20}.L{fill:#ed1b2f}.M{fill:#fff}.N{fill:#034ea2}</style><path fill="#00a4e4" d="M36.72 18.72a18 18 0 1 0-18 18 18 18 0 0 0 18-18"/><path fill="#333133" d="M16.09 15c.34.32.23 8.06.23 8.06s0 1.17-.26 1.37-.46-.28-.46-.28c.18-2-.65-9.81-.65-9.81.3.2.12 11.7 0 12s-1-.14-1-.14c1-1.5-.35-13.09-.35-13.09.28.36.24 10.4-.09 10.41a5.5 5.5 0 0 1-1.09-.28c1.09-1.24 0-11.26 0-11.26.35.63-.45 8.43-.4 9s-1-.09-1-.09c1-1.34.17-10.25.17-10.25.08.33-.45 7.32-.6 8.22s-.93 0-.93 0c1-1.07.46-8.56.39-9.55 0 0 0-1.55.57-.77s3.6 6.6 8 6.33 7.99-5.6 8.38-6.12.37.58.37.58c-.07 1-.6 8.48.39 9.55 0 0-.78.91-.94 0s-.66-7.89-.59-8.22c0 0-.82 8.91.18 10.25 0 0-1.08.71-1 .09s-.75-8.41-.38-9c0 0-1.1 10 0 11.26a5.4 5.4 0 0 1-1.07.28c-.34 0-.39-10-.1-10.41 0 0-1.32 11.59-.35 13.09 0 0-.89.44-1 .14s-.26-11.8 0-12c0 0-.82 7.8-.66 9.81 0 0-.24.48-.44.28s-.26-1.37-.26-1.37-.12-7.74.23-8.06h-5.29" class="H"/><g class="K"><path d="M16.12 15a1.34 1.34 0 0 1 .14.65c.1 1 .12 3.12.12 4.83v2.62s0 .3-.05.62a1.5 1.5 0 0 1-.22.79l-.15.06c-.23 0-.39-.36-.4-.36v-.77c0-1.36-.17-3.62-.34-5.53l-.33-3.49v-.1h.09l.06.15c.09.5.12 2.36.12 4.47v4.89l-.08 2.54a.21.21 0 0 1-.24.14 2.1 2.1 0 0 1-.79-.25 7.5 7.5 0 0 0 .35-3c0-2-.18-4.49-.36-6.53l-.35-3.59h.09a1.6 1.6 0 0 1 .09.48c.07.76.1 2.35.1 4.05l-.07 4c0 .56-.05 1-.09 1.37a3 3 0 0 1-.05.4v.11l-.07.07a6 6 0 0 1-1.11-.29h-.06v-.05c.34-.38.47-1.73.47-3.36l-.25-5.18-.31-2.74h.08a2.6 2.6 0 0 1 .1 1c0 2.16-.5 7.18-.5 8v.07l-.07.18h-.16a2.2 2.2 0 0 1-.84-.35c.36-.47.49-2.06.49-3.83l-.16-4.29-.16-2.1h.09v.17c0 1.12-.48 7.23-.61 8.07 0 .3-.19.44-.35.44-.32 0-.66-.43-.66-.43.45-.46.6-2.34.59-4.3l-.21-5.22v-.17a3 3 0 0 1 0-.55c0-.19.1-.38.27-.39s.21.07.33.23c.61.8 3.48 6.33 7.66 6.33h.29c4.32-.26 7.92-5.6 8.28-6.13.07-.1.13-.16.2-.16l.16.14a2.3 2.3 0 0 1 .1.63c0 .53-.21 2.9-.21 5.16 0 2 .14 3.89.58 4.36s-.35.42-.67.43c-.16 0-.3-.13-.35-.44-.13-.85-.6-7.07-.6-8.1v-.14h.09s-.08.86-.16 2.09a69 69 0 0 0-.16 4.29c0 1.77.13 3.36.48 3.84a2.1 2.1 0 0 1-.83.35h-.17l-.07-.18v-.08c0-.83-.49-5.78-.49-8A2.9 2.9 0 0 1 25 12h.08l-.25 2.68a67 67 0 0 0-.24 5.19A7.2 7.2 0 0 0 25 23.2v.05h-.06a6 6 0 0 1-1.09.29l-.07-.07a10.4 10.4 0 0 1-.19-2.12c0-1.11-.07-2.5-.07-3.82 0-1.12 0-2.2.05-3 0-.41 0-.75.06-1a1.3 1.3 0 0 1 .1-.47h.08s-.18 1.55-.35 3.59-.36 4.56-.36 6.52a7.5 7.5 0 0 0 .35 3h-.05a2.2 2.2 0 0 1-.79.25.21.21 0 0 1-.24-.14c0-.11-.05-1.16-.08-2.62s0-3.31 0-5v-3.05c0-.39 0-.72.05-1s0-.21 0-.28l.06-.15.08-.06v.11s-.08 1.77-.25 3.67-.34 4.24-.34 5.57a6 6 0 0 0 0 .67s-.15.34-.38.36l-.14-.07a1.74 1.74 0 0 1-.22-.79v-6.85c0-.5 0-.93.08-1.26a1.2 1.2 0 0 1 .14-.61l.06.07a1.6 1.6 0 0 0-.11.55c-.1 1-.12 2.95-.12 4.63v2.85a4.5 4.5 0 0 0 .05.61 1.6 1.6 0 0 0 .19.73h.07l.2-.14.1-.16h-.05v-.67c0-2.68.68-9.14.68-9.14h.05a1.2 1.2 0 0 0-.06.39c-.06.72-.08 2.25-.08 4v5c0 1.47.05 2.53.07 2.59s0 .07.14.07a2.5 2.5 0 0 0 .75-.24 7.3 7.3 0 0 1-.37-3c0-3.93.71-10.12.71-10.12a1.4 1.4 0 0 0-.08.42c-.07.74-.1 2.32-.1 4 0 1.41 0 2.9.07 4a12 12 0 0 0 .09 1.39q0 .26.06.39v.09a5.5 5.5 0 0 0 1.31-.05v.05c-.37-.44-.47-1.78-.48-3.42 0-3.35.5-7.87.5-7.88H25A2.9 2.9 0 0 0 25 13c0 2.18.48 7.13.48 8v.06c0 .11 0 .13.14.14a2.2 2.2 0 0 0 .78-.34c-.39-.54-.5-2.12-.5-3.9 0-2.93.32-6.38.32-6.39h.09v.12c0 1 .47 7.25.6 8.09 0 .29.15.36.26.36a.7.7 0 0 0 .39-.19 1.6 1.6 0 0 0 .2-.2c-.49-.54-.61-2.43-.61-4.42 0-2.26.17-4.64.21-5.17a1.5 1.5 0 0 0 0-.36l-.06-.23-.07-.09s-.06 0-.12.13c-.36.52-4 5.89-8.34 6.16h-.3c-4.26 0-7.13-5.59-7.73-6.36-.12-.15-.21-.2-.26-.2s-.15.12-.18.32a4 4 0 0 0 0 .53v.09c0 .54.22 2.95.22 5.23 0 2-.13 3.83-.62 4.36l.2.2a.7.7 0 0 0 .39.19c.1 0 .2-.06.25-.35.14-.83.61-7 .61-8.06v-.15h.09s.32 3.46.32 6.4c0 1.78-.11 3.35-.5 3.89l.3.17a1.2 1.2 0 0 0 .49.17c.09 0 .13 0 .14-.14v-.15c0-.85.49-5.86.49-8a3.1 3.1 0 0 0-.08-.93s.5 4.53.5 7.88c0 1.64-.11 3-.49 3.42v-.05a6 6 0 0 0 1.08.28 2.3 2.3 0 0 0 .1-.59c.1-1.05.15-3.24.15-5.28 0-1.13 0-2.21-.05-3 0-.41 0-.75-.06-1a1.4 1.4 0 0 0-.07-.43s.71 6.2.71 10.13a7.5 7.5 0 0 1-.36 3 2.5 2.5 0 0 0 .75.24c.09 0 .13 0 .15-.08s.05-1.1.08-2.51 0-3.23 0-4.89v-4.52H15s.67 6.29.67 9v.78l.1.15.21.15h.08a1.6 1.6 0 0 0 .2-.73 6 6 0 0 0 0-.61V20.7l-.05-3.5c0-.53 0-1-.07-1.33a1.7 1.7 0 0 0-.11-.58z"/><path d="M17 22.91a41 41 0 0 1-3.22 3.54 6 6 0 0 1-1.17 1 2.35 2.35 0 0 1-1.25.29h-.92a2 2 0 0 0-1.09.24.68.68 0 0 0-.23.4v.11l.33-.21a.63.63 0 0 1 .37-.1c.22 0 .45.07.69.07h.17l.17.12c0 .08-.08.15-.23.24-.71.45-1.34.94-1.34 1.76h.25a1.8 1.8 0 0 1 .52-.79c.45-.33.66-.71 1.33-.93v.05c.22.85.18 1.8 1 2.25V31c0-.59-.35-1.23-.35-1.78a.8.8 0 0 1 .1-.43 1.38 1.38 0 0 1 1.31-.68 4.74 4.74 0 0 1 2.17.69h-.05a2.09 2.09 0 0 0-1.69-1.13h-.18v-.07c.29-.89 1-1.24 1.58-1.89l1.92-2.3-.29-.39.32.42c-.7.72-1.22 1.52-1.92 2.29s-1.29 1-1.56 1.86h.12a2.23 2.23 0 0 1 1.78 1.19l-.07.06a4.6 4.6 0 0 0-2.08-.84 1.29 1.29 0 0 0-1.23.63.8.8 0 0 0-.09.38c0 .51.35 1.16.35 1.78v.13h-.07c-.91-.49-.87-1.5-1.08-2.31v.05c-.64.21-.84.57-1.3.92a1.7 1.7 0 0 0-.5.74l-.15.08h-.17v-.1c0-.87.67-1.39 1.37-1.84.14-.08.19-.15.18-.16h-.25c-.26 0-.49-.08-.69-.08a.6.6 0 0 0-.32.09c-.11.07-.26.22-.38.23h-.05L9 28.33a.7.7 0 0 1 .27-.47 2.3 2.3 0 0 1 1.14-.24h.92a2.3 2.3 0 0 0 1.2-.27 6.7 6.7 0 0 0 1.16-1 44 44 0 0 0 3.21-3.52v-.05.05z"/></g><path fill="#fd0" d="M17 22.91a41 41 0 0 1-3.22 3.52 5.8 5.8 0 0 1-1.17 1c-1 .62-2.28-.07-3.25.5-.1.06-.38.4-.19.57s.25-.13.37-.21c.35-.22.73 0 1.18 0 .2 0 .23.11 0 .27-.71.46-1.37 1-1.35 1.83.1 0 .26 0 .29-.09a1.7 1.7 0 0 1 .51-.76c.46-.34.66-.71 1.31-.93.22.84.18 1.81 1.06 2.29 0-.8-.57-1.66-.25-2.25s1.47-1 3.42 0a2.13 2.13 0 0 0-1.85-1.15c.28-.88 1-1.22 1.56-1.88l1.92-2.3z" class="H"/><path d="M12 30.36a.6.6 0 0 1 .36-.14l.16.08v.16c0 .13 0 .3-.12.37l-.41-.45.36.39s.08-.16.07-.28v-.19h-.07l-.3.11z" class="K"/><path d="M12 30.36c.15-.13.42-.16.45-.08s0 .42-.09.48z" class="H L"/><path d="M15.11 28.47a.42.42 0 0 1 .32-.33h.08a.63.63 0 0 1 .22.41v.09l-.58-.17v-.05l.51.15a.62.62 0 0 0-.18-.33s-.21.13-.23.26h-.05z" class="K"/><path d="M15.11 28.47c0-.19.26-.35.32-.28s.26.32.19.43z" class="H L"/><path d="M9.28 29.84h.35l.13.15-.12.22c-.07.08-.14.16-.24.16l-.11-.57h.05l.09.5v-.05l.17-.13.1-.18-.07-.06h-.34v-.05z" class="K"/><path d="M9.28 29.84c.2 0 .44.06.42.15s-.19.35-.32.35z" class="H L"/><path d="M9.22 28a.44.44 0 0 1 .25.08l.14.18v.05a.7.7 0 0 1-.41.28l.07-.57h.05l-.07.5.33-.24-.09-.1z" class="K"/><path d="M9.22 28c.18 0 .38.16.33.24s-.29.3-.4.26z" class="H L"/><path d="M20.49 22.91a44 44 0 0 0 3.22 3.52 6.7 6.7 0 0 0 1.16 1 2.24 2.24 0 0 0 1.19.27h.91a2.23 2.23 0 0 1 1.14.24.74.74 0 0 1 .27.47l-.08.18h-.05c-.12 0-.27-.16-.37-.23a.65.65 0 0 0-.32-.09c-.21 0-.44.08-.69.08h-.25s0 .08.19.16c.69.45 1.37 1 1.37 1.84v.08h-.24l-.15-.08a1.63 1.63 0 0 0-.49-.74c-.47-.35-.66-.71-1.3-.92v-.05h.05c-.23.81-.17 1.82-1.07 2.31h-.07v-.18c0-.61.33-1.24.33-1.74a.9.9 0 0 0-.08-.37A1.31 1.31 0 0 0 24 28a4.6 4.6 0 0 0-2.11.67l-.07-.05a2.19 2.19 0 0 1 1.77-1.2h.11c-.29-.85-.99-1.2-1.58-1.86l-1.94-2.29.36-.47v.05l-.3.39c.71.73 1.22 1.54 1.94 2.3.57.65 1.29 1 1.55 1.89v.07h-.17a2.08 2.08 0 0 0-1.68 1.12h-.05a4.7 4.7 0 0 1 2.17-.73 1.39 1.39 0 0 1 1.31.68.86.86 0 0 1 .09.42c0 .53-.33 1.16-.33 1.74v.1c.85-.5.8-1.45 1-2.3v-.05h.05c.67.22.88.6 1.32.93a1.8 1.8 0 0 1 .53.79h-.05.05s.16 0 .26.06h-.05c0-.81-.63-1.31-1.32-1.76-.16-.09-.24-.15-.25-.24l.18-.12h.17c.23 0 .46-.07.69-.07a.65.65 0 0 1 .37.1c.11.08.28.22.32.21v-.11a.63.63 0 0 0-.23-.4A2.1 2.1 0 0 0 27 27.7h-.91a2.3 2.3 0 0 1-1.24-.29 6 6 0 0 1-1.17-1 45 45 0 0 1-3.24-3.54z" class="K"/><path fill="#fd0" d="M20.49 22.91a42 42 0 0 0 3.23 3.52 5.8 5.8 0 0 0 1.17 1c1 .62 2.26-.07 3.24.5.09.06.37.4.19.57s-.26-.13-.38-.21c-.35-.22-.74 0-1.16 0-.22 0-.25.11 0 .27.7.46 1.35 1 1.34 1.83-.11 0-.27 0-.3-.09a1.7 1.7 0 0 0-.5-.76c-.46-.34-.66-.71-1.32-.93-.23.84-.17 1.81-1 2.29-.06-.8.55-1.66.24-2.25s-1.48-1-3.41 0a2.1 2.1 0 0 1 1.84-1.15c-.26-.88-1-1.22-1.54-1.88-.73-.77-1.24-1.57-1.95-2.3l.3-.38" class="H"/><path d="m25.49 30.36-.3-.11h-.07v.1c0 .12 0 .32.07.32l.35-.39-.37.41c-.12-.08-.12-.27-.13-.41v-.11l.16-.08a.56.56 0 0 1 .36.14z" class="K"/><path d="M25.49 30.36c-.14-.13-.42-.16-.44-.08s0 .42.09.48z" class="H L"/><path d="M22.36 28.47c0-.14-.2-.28-.25-.27a.7.7 0 0 0-.18.34l.52-.15v.05l-.56.16v-.07a.8.8 0 0 1 .21-.42h.07a.47.47 0 0 1 .34.33v.05z" class="K"/><path d="M22.36 28.47c-.05-.19-.26-.35-.33-.28s-.24.32-.19.43z" class="H L"/><path d="M28.17 29.84v.05h-.29l-.08.11h-.05.05l.12.19.16.13v.05l.09-.5h.05l-.11.53c-.1 0-.17-.08-.24-.16l-.16-.24.12-.14.24-.05h.15z" class="K"/><path d="M28.17 29.84c-.19 0-.43.06-.42.15s.21.35.32.35z" class="H L"/><path d="m28.25 28-.22.07-.09.1.35.24h-.05L28.2 28h.1l.07.53a.8.8 0 0 1-.43-.28v-.05c0-.14.2-.26.4-.26z" class="K"/><g class="H"><path d="M28.25 28c-.2 0-.39.16-.35.24s.31.3.42.26z" class="L"/><path fill="#333133" d="M18.72 31.48c-.09.4-.64.84-.74 1.27 0 .2.1.33.18.49s-.27.94-.55 1.16c-.1-.32.28-.48.16-1.06s-.07-1.12-.63-1.46c-.34.69-1 1.29-.51 2.08a2.36 2.36 0 0 1 0-2.48 4.3 4.3 0 0 0-.95.44l-.59.31c-1 .24-.06 1-.28 1-.34-.45-.8-1-.09-1.14a1.73 1.73 0 0 0 1.38-1.24l-.16-.15c-.12-.08-.22 0-.33.09l-.6.46a2.5 2.5 0 0 1-.79.22l1.79-1.29a3.8 3.8 0 0 0 1.35-1.6s.11-.19-.05-.12A11 11 0 0 0 16 29c1-.5 1.22-1.61 1.69-2.47-.34.08-.19.27-.42.34s-.17 0-.35.05c.42-.38 1.08-.92 1.08-1.47 0 .19-.51.3-.8.33.2-.46.86-.77.68-1.19-.07-.14-.39.23-.68.22a4.3 4.3 0 0 0 .43-1.29c-.51 0-.83.5-1.36.41a1.66 1.66 0 0 1 .47-.93c.2-.19.44-.32.55-.61-.25.09-.4.25-.68.17a10 10 0 0 0 .39-1.67 3 3 0 0 0 0-1.19c0-.1-.24.53-.26.46a19 19 0 0 1 0-2.25 7.6 7.6 0 0 0 0-2.24c-.58 2.15-1.62-1-1.62-1-1.21 1.85-1.28-1.29-1.28-1.29-1 1.72-1.35-1.64-1.35-1.64-.94 1.41-1.14-1.38-1.14-1.38-.94 1.61-1-1.3-1-1.3-.13.55-1.58 1.15-1.58 1.15.45-.35.89-4.68 1.83-4s.41.17.69.81c.44 1 0 .71-.43.33l-.13.82s.63.39.63.75c0 0 .43-.12.64.62 0 0 .16-1.19.79.14 0 0 .78.28.35.89 0 0 .94 1.26 1.44 1.4 0 0 .24-.78.91.6 0 0 0-.1.29.2s.89-.2 1.1-.36a3.6 3.6 0 0 0 .46-1 11 11 0 0 0 .02-1.41c0-.08-.12-.38 0-.6s-.08-.75-.08-.75a1 1 0 0 1 .05.66l-.2-.49a1.4 1.4 0 0 0-.24-.42v.16c0-.01 0-.16-.16-.22v.08l-.11-.16v.08l-.15-.21v.06l-.2-.19a.5.5 0 0 0-.19 0 1.5 1.5 0 0 1-.42.05 2.2 2.2 0 0 1-.47-.05.5.5 0 0 1 .38-.15h.25a1.4 1.4 0 0 0 .39-.08l.1-.06c.14-.22.05-.23-.14-.38S16 7.05 16 7s.16-.08.29-.11 0-.2.5-.3.48-.07.51-.07a4 4 0 0 1 .57 0 3.1 3.1 0 0 1 .86.23 2 2 0 0 1 .37.28 2.4 2.4 0 0 1 .5 1.24 4 4 0 0 0 .23 1l.22 1.81a2.5 2.5 0 0 0 .06 1.23 3.4 3.4 0 0 0 .65.77c1.18.08 1.2-.45 1.2-.45.69-1.38.94-.6.94-.6.47-.14 1.41-1.4 1.41-1.4-.43-.61.35-.89.35-.89.64-1.33.77-.14.77-.14.23-.74.66-.62.66-.62 0-.36.63-.75.63-.75l-.15-.82c-.41.38-.85.66-.41-.33.28-.64-.23-.14.71-.81s1.37 3.65 1.8 4c0 0-1.44-.6-1.59-1.15 0 0-.06 2.91-1 1.3 0 0-.21 2.79-1.14 1.38 0 0-.35 3.36-1.34 1.64 0 0 0 3.14-1.27 1.29 0 0-1.05 3.19-1.64 1a9.3 9.3 0 0 0 0 2.24 15 15 0 0 1 0 2.25c0 .07-.23-.56-.23-.46a3 3 0 0 0 0 1.19 10 10 0 0 0 .41 1.67c-.28.08-.43-.08-.69-.17.11.29.35.42.57.61a1.77 1.77 0 0 1 .45.93c-.52.09-.86-.41-1.35-.41a3.6 3.6 0 0 0 .43 1.29c-.3 0-.62-.36-.69-.22-.17.42.49.73.69 1.19-.31 0-.82-.14-.82-.33 0 .55.71 1.09 1.07 1.44-.17 0-.24 0-.35-.05s-.08-.26-.41-.34c.47.86.71 2 1.69 2.47a12 12 0 0 0-1.28-.54c-.16-.07-.06.12-.06.12a3.9 3.9 0 0 0 1.36 1.6c.55.35 1.29.93 1.8 1.29a2.3 2.3 0 0 1-.8-.22l-.61-.46c-.09-.06-.19-.17-.33-.09l-.15.15a1.7 1.7 0 0 0 1.37 1.24c.73.17.27.69-.08 1.14-.23.06.72-.73-.27-1-.16 0-.44-.23-.61-.31a4.2 4.2 0 0 0-.93-.44 2.38 2.38 0 0 1 0 2.48c.47-.79-.19-1.39-.51-2.08-.57.34-.52.94-.65 1.46s.26.74.19 1.06c-.31-.22-.7-.95-.56-1.16s.21-.29.17-.49c-.09-.43-.65-.87-.76-1.27"/></g><g class="K"><path d="M18.76 31.49c-.1.43-.65.87-.73 1.27v.07c0 .13.1.24.18.38v.13a2.06 2.06 0 0 1-.59 1.1l-.06.05v-.19c0-.25.2-.4.19-.73v-.22c-.12-.53-.07-1.11-.61-1.43-.26.52-.67 1-.67 1.5a1.2 1.2 0 0 0 .16.54l-.08.05a2.2 2.2 0 0 1-.36-1.22 2.6 2.6 0 0 1 .36-1.31 4.7 4.7 0 0 0-.94.44 5 5 0 0 1-.6.31c-.35.09-.43.23-.43.37a.75.75 0 0 0 .1.32.7.7 0 0 1 .12.23h-.05a1.77 1.77 0 0 1-.47-.83c0-.17.13-.31.41-.38a1.69 1.69 0 0 0 1.35-1.2l-.16-.14h-.07l-.22.11v-.05l-.61.47a2.4 2.4 0 0 1-.8.22v-.08l1.8-1.29a3.7 3.7 0 0 0 1.33-1.58v-.08a11 11 0 0 0-1.27.53c.95-.48 1.19-1.58 1.67-2.45v.05c-.16 0-.19.09-.22.14a.29.29 0 0 1-.2.19c-.12.06-.2 0-.36.06v-.09c.38-.34 1.05-.88 1-1.4h.1c0 .14-.16.21-.32.27a2.7 2.7 0 0 1-.53.1h-.08v-.07c.19-.42.71-.72.7-1v-.13s-.13.05-.24.12a.8.8 0 0 1-.38.13h-.1l.05-.07a3.9 3.9 0 0 0 .42-1.27v.05c-.44 0-.75.41-1.23.41h-.18a1.66 1.66 0 0 1 .48-1c.21-.19.44-.32.54-.58v.05a1.9 1.9 0 0 1-.55.18h-.22v-.05a9.6 9.6 0 0 0 .61-1.61 1.7 1.7 0 0 0 .06-.43c0-.16 0-.37-.06-.75a1.1 1.1 0 0 0-.11.24l-.07.15v.05h-.05l-.05-.05-.06-1.61a5 5 0 0 1 0-.64 6 6 0 0 0 .07-.93 10 10 0 0 0-.1-1.3h.09c-.14.55-.32.78-.54.78s-.59-.47-.81-.92a10 10 0 0 1-.36-.9h.05c-.28.43-.5.61-.7.61s-.48-.51-.57-1a7 7 0 0 1-.09-.94c-.21.36-.39.51-.58.51-.36 0-.54-.56-.67-1.1a10 10 0 0 1-.19-1.06h.05c-.19.28-.36.41-.52.42-.33 0-.47-.49-.58-.93s-.13-.9-.13-.9h.05c-.21.35-.37.51-.54.51s-.24-.14-.32-.31a5.7 5.7 0 0 1 0-1.38h.09c-.16.6-1.61 1.18-1.61 1.19l-.05-.08a1.9 1.9 0 0 0 .3-.72l.55-2.1c.21-.68.45-1.22.81-1.24l.22.09.6.42a1.3 1.3 0 0 0 .12.4 1.7 1.7 0 0 1 .18.59v.11h-.09a1.4 1.4 0 0 1-.57-.36l-.13.82h-.05s.64.38.65.79h.08c.15 0 .46.09.62.66h-.09a1 1 0 0 1 .1-.33.3.3 0 0 1 .26-.28c.14-.01.33.18.56.65h-.05v-.05s.5.17.51.59a.66.66 0 0 1-.14.38 9 9 0 0 0 .53.64 2.44 2.44 0 0 0 .88.73s.07-.25.28-.25.4.19.72.84v-.06h.05c.06 0 .11 0 .31.23l.22.09c.28 0 .65-.33.81-.45a1.6 1.6 0 0 0 .29-.56l.15-.45a9 9 0 0 0-.06-1.29 3 3 0 0 1 0-.34l.07-.27.05-.18a1.6 1.6 0 0 0-.14-.52h.08a.67.67 0 0 1 .09.36 3 3 0 0 1 0 .32h-.09l-.2-.48-.23-.41v.15h-.11l-.12-.17v.08h-.09l-.07-.11-.18-.27h.05v.06h-.08L16.23 8v.05h-.15a1.5 1.5 0 0 1-.43.06 2 2 0 0 1-.48-.1L15.1 8h.06a.6.6 0 0 1 .38-.16h.26a1.4 1.4 0 0 0 .38-.08l.1-.07.06-.14s0-.07-.19-.17a.48.48 0 0 1-.15-.32v-.13c.09-.1.2-.09.32-.12 0-.07.07-.24.53-.34a2 2 0 0 1 .45-.07h.66a2.8 2.8 0 0 1 .88.24 1.3 1.3 0 0 1 .37.3 2.45 2.45 0 0 1 .52 1.26 3.8 3.8 0 0 0 .23 1l.21 1.81a3.6 3.6 0 0 0-.05.58 1.5 1.5 0 0 0 .11.62 3.1 3.1 0 0 0 .64.75v-.05H21a1.12 1.12 0 0 0 .81-.22l.1-.13v-.06c.33-.65.55-.84.74-.84s.28.25.29.25a2.8 2.8 0 0 0 .86-.74l.52-.64a.66.66 0 0 1-.14-.38c0-.42.51-.59.51-.59v.05h-.05c.24-.47.4-.64.56-.65s.21.15.26.28a1.2 1.2 0 0 1 .05.26h-.09c.17-.57.48-.66.63-.66h.08c0-.41.65-.78.65-.79l-.15-.82a1.3 1.3 0 0 1-.56.36h-.09v-.11a1.6 1.6 0 0 1 .18-.48 1.4 1.4 0 0 0 .11-.4c.05-.06.14-.09.61-.42l.22-.09c.24 0 .42.26.58.62a14.6 14.6 0 0 1 .6 2.06 4.5 4.5 0 0 0 .46 1.41v.08S27.25 9.63 27.08 9h.09a8 8 0 0 1-.08.9 2.7 2.7 0 0 1-.15.62c-.07.17-.17.31-.32.31s-.32-.16-.53-.51h.05a8 8 0 0 1-.14.9c-.1.44-.25.91-.57.93-.16 0-.33-.14-.52-.42H25a10 10 0 0 1-.19 1.07 3.2 3.2 0 0 1-.25.74c-.11.2-.24.35-.42.35s-.36-.15-.57-.51h.05a7 7 0 0 1-.09.94c-.09.47-.22 1-.57 1-.2 0-.42-.18-.7-.61a7 7 0 0 1-.36.9c-.22.45-.49.91-.81.92s-.4-.23-.55-.78h.09a12 12 0 0 0 .08 1.25 8 8 0 0 0 .05.92 5.5 5.5 0 0 1 0 .79l-.06 1.46-.06.05h-.05c0-.06-.08-.17-.12-.27l-.05-.13h.05c0 .43-.08.64-.08.82a1.2 1.2 0 0 0 .05.36 9.6 9.6 0 0 0 .4 1.66v.05h-.16a1.7 1.7 0 0 1-.55-.18v-.05h.05c.1.26.33.39.55.58a1.86 1.86 0 0 1 .47.95V24H21c-.48 0-.8-.42-1.22-.41v-.05a3.9 3.9 0 0 0 .42 1.27l.06.07h-.11a.9.9 0 0 1-.38-.13c-.1-.07-.2-.13-.23-.12h-.05.05v.13c0 .3.52.6.71 1v.07h-.08a2.7 2.7 0 0 1-.53-.1c-.17-.06-.32-.13-.33-.27h.1c0 .51.69 1.06 1.05 1.41v.08a1.3 1.3 0 0 1-.36-.06.31.31 0 0 1-.2-.19c0-.05-.05-.1-.21-.14v-.06c.47.87.71 2 1.67 2.45a10 10 0 0 0-1.26-.53v.07a3.83 3.83 0 0 0 1.35 1.58c.55.35 1.29.93 1.8 1.29v.08a2.5 2.5 0 0 1-.82-.22l-.6-.47-.21-.1h-.08l-.15.14h.05a1.64 1.64 0 0 0 1.3 1.21c.29.07.43.21.42.38s-.27.56-.48.84h-.1a1 1 0 0 1 .12-.23.7.7 0 0 0 .11-.32c0-.14-.08-.28-.42-.37a5 5 0 0 1-.61-.31 4.2 4.2 0 0 0-.93-.44 2.6 2.6 0 0 1 .36 1.3 2.3 2.3 0 0 1-.33 1.15l-.08-.05a1.06 1.06 0 0 0 .2-.55c0-.51-.42-1-.66-1.5-.54.32-.5.9-.62 1.43v.21c0 .35.21.5.22.77v.16l-.06-.05a1.85 1.85 0 0 1-.61-1.09v-.14c.07-.14.18-.25.17-.38v-.07c-.09-.4-.65-.84-.77-1.27h.09c.1.37.66.82.77 1.27v.09c0 .18-.13.3-.19.43v.09a1.8 1.8 0 0 0 .57 1v-.06c0-.2-.21-.38-.22-.77v-.23c.12-.51.07-1.14.66-1.49h.05v.05c.24.51.68 1 .68 1.54a1.1 1.1 0 0 1-.17.58 2.2 2.2 0 0 0 .34-1.18 2.5 2.5 0 0 0-.34-1.25l.05-.07a4.6 4.6 0 0 1 .95.45 5 5 0 0 0 .59.3c.36.09.5.27.5.46a.85.85 0 0 1-.12.36l-.08.14v.05c.22-.27.47-.58.46-.78s-.07-.22-.35-.29a1.75 1.75 0 0 1-1.4-1.27l.17-.16h.13c.12 0 .19.08.26.11.27.19.35.28.6.47a2.7 2.7 0 0 0 .79.2v.05l-1.79-1.29a3.9 3.9 0 0 1-1.38-1.61v-.18h.14a10 10 0 0 1 1.28.54v.08c-1-.51-1.25-1.64-1.71-2.49l-.05-.09h.1a.4.4 0 0 1 .28.2c0 .07 0 .11.14.14.09.05.15 0 .34.05v.05c-.36-.34-1.08-.88-1.09-1.47h.1c0 .05.09.13.26.18a2.4 2.4 0 0 0 .51.1v.05h-.39c-.16-.38-.7-.66-.71-1.05v-.16l.1-.07a1 1 0 0 1 .28.14.76.76 0 0 0 .33.11 3.9 3.9 0 0 1-.44-1.3v-.06h.06c.48 0 .8.42 1.22.41h.12v.05a1.8 1.8 0 0 0-.45-.9c-.2-.18-.46-.32-.57-.62v-.09h.1a1.9 1.9 0 0 0 .52.18h.13a10 10 0 0 1-.41-1.68 1.3 1.3 0 0 1-.05-.38c0-.19 0-.4.07-.83h.05a1.4 1.4 0 0 1 .11.26l.07.15v.05a14 14 0 0 0 .06-1.45 8 8 0 0 0 0-.78 8 8 0 0 1-.05-.93 12 12 0 0 1 .08-1.32h.09c.14.54.32.71.46.71s.52-.42.73-.87a8 8 0 0 0 .35-.89v-.09l.06.08c.27.42.49.57.62.56s.4-.42.48-.89a6 6 0 0 0 .08-.93h.09c.2.34.37.46.49.46s.23-.11.33-.31a4 4 0 0 0 .34-1.1l.1-.67h.08c.19.28.34.37.44.37s.39-.41.48-.85l.14-.88h.08c.2.34.36.46.45.46s.16-.09.23-.25A5.8 5.8 0 0 0 27.08 9h.09c.06.24.45.53.82.75a8 8 0 0 0 .73.37 2 2 0 0 1-.33-.8l-.54-2.09c-.21-.67-.46-1.19-.71-1.17l-.16.06-.59.4a.9.9 0 0 1-.11.39 1.7 1.7 0 0 0-.18.55v.06a1.2 1.2 0 0 0 .49-.33l.07-.06.16.94a2.3 2.3 0 0 0-.31.24.76.76 0 0 0-.3.47V9h-.12c-.11 0-.37.05-.54.59h-.09a1.2 1.2 0 0 0-.05-.24c0-.12-.11-.22-.17-.22s-.24.13-.47.61a.9.9 0 0 0-.22.13.46.46 0 0 0-.22.37.6.6 0 0 0 .12.33S23.46 11.82 23 12v-.14l-.15-.09c-.11 0-.34.15-.65.79h-.05.05a.4.4 0 0 1-.15.25A1.21 1.21 0 0 1 21 13h-.26a2.8 2.8 0 0 1-.66-.78 1.4 1.4 0 0 1-.12-.66A4 4 0 0 1 20 11l-.21-1.81a3.5 3.5 0 0 1-.23-1 2.4 2.4 0 0 0-.29-.89 1.8 1.8 0 0 0-.17-.3 1.8 1.8 0 0 0-.35-.27 2.8 2.8 0 0 0-.84-.22h-.14a3 3 0 0 0-.43 0h-.07a2 2 0 0 0-.43.07c-.45.12-.43.21-.46.28-.14 0-.22 0-.27.09v.08c0 .06 0 .14.15.25.12.1.22.13.23.25l-.08.19-.1.07a1.6 1.6 0 0 1-.4.08h-.25a.45.45 0 0 0-.32.13 1.6 1.6 0 0 0 .45.09 1.4 1.4 0 0 0 .41 0h.22l.2.22v-.16h.08l.11.16v-.06l.15.22v-.18h.06l.15.15v.06-.12h.08a2 2 0 0 1 .25.45l.2.48h-.05v-.32a.6.6 0 0 0-.08-.32 1.6 1.6 0 0 1 .15.56l-.07.24-.06.21a2 2 0 0 0 .05.34 9.6 9.6 0 0 1-.07 1.33l-.15.46a1.7 1.7 0 0 1-.32.6c-.16.12-.53.47-.87.47a.42.42 0 0 1-.29-.11l-.2-.18h-.08c-.31-.64-.54-.8-.64-.79s-.19.18-.19.18V12h-.05c-.53-.16-1.45-1.41-1.46-1.42a.6.6 0 0 0 .12-.33.47.47 0 0 0-.44-.44 1 1 0 0 0-.23-.13c-.22-.48-.39-.61-.47-.61s-.13.1-.17.22a2 2 0 0 0-.06.24h-.09c-.16-.54-.42-.58-.53-.59h-.12v-.06c0-.15-.14-.33-.3-.47a3 3 0 0 0-.3-.24l.15-.94.06.06c.21.18.43.34.51.33v-.06a1.7 1.7 0 0 0-.24-.56 1 1 0 0 1-.1-.32v-.07s-.13-.07-.57-.4l-.17-.06c-.16 0-.34.2-.49.56a13 13 0 0 0-.61 2 4.1 4.1 0 0 1-.5 1.46 6 6 0 0 0 .74-.37c.38-.21.76-.51.82-.75h.09a8 8 0 0 0 .08.89 2.4 2.4 0 0 0 .15.6c.07.16.15.25.23.25s.26-.12.46-.46h.09a6.5 6.5 0 0 0 .13.88c.09.44.27.87.48.85s.25-.09.44-.37h.09a8 8 0 0 0 .18 1.05c.12.53.34 1.05.58 1s.3-.12.5-.47h.09a7 7 0 0 0 .09.93c.08.47.25.91.48.89s.35-.14.62-.56v-.08.09a9 9 0 0 0 .36.89c.21.45.5.88.72.87s.31-.17.45-.71h.1a13 13 0 0 1 .11 1.41 6 6 0 0 1-.07.94 5 5 0 0 0 0 .63l.06 1.6.11-.25.07-.15v-.05h.06c0 .38.06.59.06.76a1.5 1.5 0 0 1-.06.45 10 10 0 0 1-.39 1.68h.14c.17 0 .3-.11.52-.18h.09v.09a1.7 1.7 0 0 1-.57.62 1.58 1.58 0 0 0-.45.9h-.05v-.05h.12c.42 0 .73-.41 1.23-.41h.06v.06a4 4 0 0 1-.43 1.3.7.7 0 0 0 .33-.11 1 1 0 0 1 .29-.14l.09.07v.16c0 .39-.56.67-.72 1.05v-.05a2.4 2.4 0 0 0 .51-.1c.16-.05.26-.13.25-.18h.1c0 .59-.7 1.13-1.08 1.48v-.05c.18 0 .24 0 .33-.05.1 0 .1-.07.14-.14a.38.38 0 0 1 .28-.2h.1l-.05.09c-.47.85-.71 2-1.71 2.49v-.08a10 10 0 0 1 1.27-.54h.14v.18A3.94 3.94 0 0 1 16 30.19c-.55.35-1.29.92-1.8 1.29v-.05a2.7 2.7 0 0 0 .78-.2l.6-.47c.07 0 .15-.11.26-.11h.12l.17.15a1.77 1.77 0 0 1-1.41 1.27c-.27.07-.34.17-.34.29s.24.51.44.78v-.05a1.6 1.6 0 0 1-.22-.55c0-.19.14-.37.5-.46a4 4 0 0 0 .58-.3 4.1 4.1 0 0 1 .95-.45l.06.07a2.6 2.6 0 0 0-.35 1.27 2 2 0 0 0 .35 1.16 1.1 1.1 0 0 1-.17-.58c0-.56.43-1 .68-1.54.59.35.53 1 .65 1.49v.24c0 .36-.21.54-.2.73v.09a1.9 1.9 0 0 0 .55-1v-.08a1 1 0 0 1-.18-.43v-.09c.1-.45.65-.9.73-1.27z"/><path d="m16.31 7.73.06-.13c0-.06-.07-.11-.17-.19a.38.38 0 0 1-.2-.29l.09-.2V7a3 3 0 0 0-.52.09 1 1 0 0 0-.69.92V8a1 1 0 0 0 .15.55l.1.1a.9.9 0 0 1-.1-.24v-.18l.05-.24a.73.73 0 0 1 .39-.3h.66l.19-.08-.19.08-.2.05h-.46a.6.6 0 0 0-.33.24v.54h-.05c-.09 0-.38-.15-.39-.75V8a1.07 1.07 0 0 1 .77-1 2.4 2.4 0 0 1 .53-.09v.08l-.06.13s0 .13.16.21c.09.08.2.13.21.27l-.09.19z"/></g><g class="H"><path fill="#fd0" d="M16.31 7.73c.16-.22 0-.27-.12-.39s-.23-.29-.11-.41a2.2 2.2 0 0 0-.52.09 1 1 0 0 0-.73 1c0 .62.34.73.35.72a1 1 0 0 1-.09-.23.58.58 0 0 1 0-.39.65.65 0 0 1 .36-.27.5.5 0 0 1 .3 0 .58.58 0 0 0 .36 0l.19-.08"/><path d="m17.5 7.46.12-.09-.12-.09-.11.09z" class="K"/></g><g class="M"><path d="m17.41 7.31.11-.03.01.04-.11.03"/><path d="m17.45 7.31.06-.02.01.04-.06.02"/></g><g class="K"><path d="m17.5 7.49-.01-.02.11-.1-.1-.09-.11.09.12.1zl-.01-.02zl-.01.01-.14-.12-.01-.01.15-.14.01-.01.15.13.01.02-.15.13-.01.01-.01-.01z"/><path d="m17.5 7.5-.01-.01.13-.12-.12-.11-.12.11.13.12zl-.01-.01zl-.01.02-.15-.14-.02-.01.17-.15.01-.01.16.14.02.02-.17.15-.01.01-.01-.01z"/><path d="m17.5 7.5-.01-.01.14-.12-.13-.13-.13.13.14.12zl-.01-.01zl-.01.02-.16-.14-.02-.01.19-.19.19.19-.19.16-.01-.01z"/><path d="m17.36 7.34.14-.11.14.12-.04.01-.1-.09-.1.07z"/><path d="m17.61 7.35-.11-.11-.12.11c0-.1.09-.14.15-.14l.15.15z"/><path d="M17.5 7.51c.1 0 .15 0 .15-.13a.14.14 0 0 0-.15-.13l-.17.14.15.13a.18.18 0 0 1-.19-.17l.18-.16a.18.18 0 0 1 .19.17.17.17 0 0 1-.19.17z"/><path d="M17.5 7.53a.16.16 0 0 0 .17-.16c0-.06-.07-.12-.17-.12s-.17.06-.17.12a.16.16 0 0 0 .17.16.2.2 0 0 1-.21-.2c0-.09.1-.16.21-.16s.21.07.21.16a.2.2 0 0 1-.21.2"/><path d="M17.32 7.19h.37a1 1 0 0 1 .22.07l.34.21-.34-.22a1.2 1.2 0 0 0-.21-.06h-.35zM17.37 7.38l.13.1.12-.07-.15.09a.17.17 0 0 1-.17-.14z"/><path d="m17.36 7.39.14.11.13-.07.03.03-.16.08-.18-.14zM17.63 7.21c.1 0 .11.07.16.07a4 4 0 0 1 .41.21l-.4-.2-.18-.07zM17.7 7.27l.29.13-.02.04-.29-.13"/><path d="m17.69 7.26.05.08-.03.02-.05-.08"/><path d="m17.59 7.18.14.15-.03.03-.13-.15"/><path d="M17.67 7.19a.5.5 0 0 1 .11.14.4.4 0 0 0-.1-.13zm-.06.01a.19.19 0 0 1 .11.18.14.14 0 0 0-.08-.14zM17.23 7.32c.05 0 .14.2.26.2.13 0 .26-.12.36-.12l.23.06h-.22c-.07 0-.21.11-.35.12-.15 0-.25-.19-.28-.2z"/><path d="M17.19 7.33c.06 0 .13.19.27.19a2.4 2.4 0 0 0 .38-.09l.4.08-.41-.08a1.6 1.6 0 0 1-.38.09c-.17 0-.25-.17-.29-.2zM16 7a.54.54 0 0 1 .36-.11A.5.5 0 0 0 16 7m0 .07a.56.56 0 0 1 .37-.14V7a.5.5 0 0 0-.37.1z"/><path d="M16 7.12a1.4 1.4 0 0 1 .39-.12 1.1 1.1 0 0 0-.37.12zM16 7.15a1.6 1.6 0 0 1 .41-.09 1.6 1.6 0 0 0-.4.09zm.05.04.39-.06v.04l-.39.06M16.09 7.23l.35-.03v.04l-.35.03"/><path d="M16.11 7.25h.25v.04h-.25m.05.02.24.02v.04l-.24-.02m.14.05.17.04-.01.04-.17-.04m.07.03.17.04-.01.04-.16-.04m.02.11.2.05-.01.04-.2-.05m.32-.1.12-.05.01.04-.12.05m-.25-.4.12.1-.02.03-.12-.09m.12.27h.11v.04h-.11M16.39 7.22l.09.08-.03.03-.09-.08"/><path d="m16.38 7.27.07.04-.02.03-.07-.03"/><path d="m16.41 7.31.03.01-.02.04-.03-.01m.09-.22.08.11-.03.02-.08-.11m0-.05-.12-.11.03-.03.12.11"/><use xlink:href="#B"/><path d="m16.83 7.53.04.04-.03.03-.04-.04"/><path d="M16.75 7.58h.08v.04h-.08m.77.53a1.4 1.4 0 0 0-.49-.1h-.25l.1-.07H17a1.4 1.4 0 0 1 .5.1zM15.26 8a1.3 1.3 0 0 0 .48.1 2.6 2.6 0 0 0 .49-.1h.19a3 3 0 0 1-.69.1 1.4 1.4 0 0 1-.5-.1zm2.1-.74-.04.09.05.1-.03.03-.06-.13.06-.12z"/><path d="m17.27 7.43-.01-.05.05-.14.03.02-.04.12v.04z"/><path d="m17.33 7.27-.04.06.01.06-.03.01-.02-.07.05-.08z"/><use xlink:href="#C"/><path d="m17.22 7.34.11.14-.03.02-.11-.13m-.1-.09.09.06-.03.03-.08-.05"/><path d="M17.15 7.31h.08v.04h-.08"/><path d="m17.21 7.31.14-.11.03.04-.15.1"/><path d="m17.19 7.32.06-.01.01.04-.06.01m-.15-.12.29-.05v.04l-.28.05m-1.84-.06a1.1 1.1 0 0 0-.34.62V8a2 2 0 0 0 0 .34c.1.25.13.28.24.36a.8.8 0 0 1-.23-.41v-.46a1.1 1.1 0 0 1 .33-.58 1.15 1.15 0 0 0-.32.55v.44a.84.84 0 0 0 .22.4.7.7 0 0 1-.24-.39 1.3 1.3 0 0 1 0-.35v-.08a1.17 1.17 0 0 1 .35-.65z"/><path d="M15.26 7.29a1.07 1.07 0 0 0-.3.47.9.9 0 0 0-.05.34v.18a1 1 0 0 0 .16.33l.09.09a1.1 1.1 0 0 1-.26-.55 1.8 1.8 0 0 1 .1-.45 1 1 0 0 1 .19-.3 1.2 1.2 0 0 0-.18.29 1.7 1.7 0 0 0-.07.48 1 1 0 0 0 .25.52s-.17-.1-.27-.44v-.19a1.2 1.2 0 0 1 .05-.36 1 1 0 0 1 .31-.5z"/><path d="M15.19 7.61c-.16.1-.21.44-.22.54a2.3 2.3 0 0 0 .21.55 2 2 0 0 1-.18-.55V8.1a.85.85 0 0 1 .12-.37.65.65 0 0 0-.12.35 2.3 2.3 0 0 0 .19.58 2.3 2.3 0 0 1-.22-.57c0-.09.05-.44.24-.56z"/><path d="M15.19 7.75 15 8v.13a1.5 1.5 0 0 0 .16.56 1.4 1.4 0 0 1-.16-.52v-.12l.05-.11v-.06l.03.12v.2a1.7 1.7 0 0 0 .14.56 1.6 1.6 0 0 1-.22-.59V8a.6.6 0 0 1 .17-.32z"/><path d="M16.12 7.81h-.13a1.3 1.3 0 0 1-.25 0h-.13c-.12 0-.13 0-.26.1a.45.45 0 0 0-.27.25v.14a.8.8 0 0 0 .13.43.87.87 0 0 1-.21-.43v-.16l.11-.21a1.1 1.1 0 0 1 .24-.15.5.5 0 0 1 .19 0h.43a.4.4 0 0 0 .19 0 .37.37 0 0 1-.21 0h-.61a1.2 1.2 0 0 0-.22.14l-.1.21v.15a.8.8 0 0 0 .14.42.9.9 0 0 1-.16-.41v-.15a.5.5 0 0 1 .29-.27c.13-.07.15-.1.28-.1h.14a1.3 1.3 0 0 0 .24 0h.1z"/><path d="M15 8.34v-.08a.49.49 0 0 1 .34-.44.8.8 0 0 1 .26-.06h.56a.9.9 0 0 1-.24 0h-.33a.9.9 0 0 0-.25.07c-.28.13-.32.31-.32.41v.07z"/><path d="M15 8.21a.6.6 0 0 1 .15-.35.4.4 0 0 0-.1.17.5.5 0 0 0 0 .15z"/><path d="m15 8.11.1-.11.23-.2a.5.5 0 0 1 .24-.07h.71a.38.38 0 0 0-.93.07l-.22.2-.07.12z"/><path d="M15.07 8a.76.76 0 0 1 .43-.29.78.78 0 0 0-.4.29zm.67-1.04.31-.03v.04l-.31.03"/><path d="m15.71 6.99.33-.03V7l-.32.03"/><path d="m15.71 7.03.33-.06v.04l-.32.06"/><path d="m15.7 7.05.31-.05.01.04-.31.05"/><path d="m15.67 7.08.34-.04v.04l-.33.04"/><path d="m15.67 7.12.34-.05.01.04-.34.05"/><path d="m15.7 7.15.31-.03v.04l-.31.03m.79-.17-.1-.14.03-.02.1.13M16.08 7.05l-.01-.02.05-.03h.01l.13.08h.01l.05.12.01.01-.03.07-.01.03-.24-.27.02-.01zl.01-.02.18.21.01-.03-.04-.1-.11-.07-.04.02zl.01-.02z"/><path d="m16.08 7.05.05-.03.12.08.06.11-.03.07z" class="H"/><path d="M16 7v.13l.31.23c-.07-.08-.27-.21-.27-.38V7c0 .14.18.27.26.35l-.31-.23v-.07z"/><path d="M16 7s-.11.08-.05.18l.31.23c-.08-.08-.29-.21-.27-.37" class="H"/><path d="m15.97 7.18-.06.03.49.37-.03.03-.53-.41.11-.05z"/><path d="M15.87 7.36h.26v.04h-.26m-.13.03.23-.03v.04l-.23.03"/><path d="m15.71 7.45.2-.02.01.04-.2.03"/><path d="m15.67 7.5.14-.03v.04l-.13.02m.2-.2h.23l-.01.04h-.22z"/><path d="m15.93 7.32.12-.01v.04l-.12.01"/><path d="m15.93 7.29.08-.01.01.04-.09.01m.14.04h.09v.05h-.09m.02-.37h.02l-.01.11.09.1.06.05.02-.06-.06-.12-.13-.07zh.02l-.01-.02.13.06.01.01.07.14.01.01-.06.12-.1-.08-.1-.11v-.01l.01-.13.01-.03.02.02z"/><path d="m16.09 7.05-.01.12.09.11.08.06.04-.09-.06-.14z" class="H"/><path d="M15.22 8s-.05.09-.12.25v.11a.85.85 0 0 0 .12.35.8.8 0 0 1-.13-.38v-.11a.6.6 0 0 1 .1-.22.8.8 0 0 0-.12.2v.12a.94.94 0 0 0 .13.39.94.94 0 0 1-.2-.39v-.15a1 1 0 0 0 .13-.17l-.07.12v.14a1 1 0 0 0 .13.41.9.9 0 0 1-.19-.33V8.2c.08-.17.08-.16.12-.2a1 1 0 0 0-.12.25v.1a.9.9 0 0 0 .12.36.74.74 0 0 1-.13-.37v-.12l.2-.22z"/><path d="M15 8.34v-.22a.7.7 0 0 1 .29-.24.6.6 0 0 0-.27.22v.23z"/><path d="M15.11 8.22a.38.38 0 0 1 .15-.22.32.32 0 0 0-.14.19z"/><path d="m15.07 8.3.02-.12h.01l.13-.18.02.01.01.02-.14.18-.04-.02.15-.19.03.02-.13.18-.02.11z"/><path d="M16.75 7.7c.09 0 .27.07.39.08s.39 0 .43.08l-.06.14c-.06 0-.2-.08-.41-.08h-.08l.27.12a3 3 0 0 0-.51-.04l-.31-.07H16l.29-.11h.3a1.2 1.2 0 0 1 .23 0h-.07" class="H"/><path d="M16.75 7.68c.1 0 .27.07.39.08.09 0 .38 0 .44.09l-.05.15a3 3 0 0 0-.4-.08H17l.29.13v.05c-.09 0-.36-.07-.47-.07l-.31-.06L16 7.9l.3-.11h.3a1.3 1.3 0 0 1 .24 0 1.4 1.4 0 0 0-.23 0h-.29l-.2.07h.37l.31.07V8c.11 0 .39.06.47.07V8L17 7.9h.1a2 2 0 0 1 .4.08V8l.05-.11-.41-.07c-.13 0-.3-.08-.39-.08zM15.24 8l.46.08c.17 0 .37-.07.51-.08h.2c-.33 0-.53.06-.71.08a4 4 0 0 1-.47-.08z"/><path d="M15.25 8a4 4 0 0 0 .47.06V8l.5-.08h.18V8h-.18l-.5.08a4 4 0 0 1-.48-.08z"/><path d="M16.32 8a.33.33 0 0 1 .15.14.26.26 0 0 0-.14-.12z"/><path d="m16.39 8.04.11.11-.03.02-.11-.1m-1.08-.15.43.07-.01.04-.43-.07"/><path d="M15.33 7.9a4 4 0 0 0 .39 0V8a4 4 0 0 1-.4 0ZM15.34 7.9h.33a2 2 0 0 0 .48-.06 2.4 2.4 0 0 1-.49.05h-.32zm.1-.07h.57a3 3 0 0 1-.57 0"/><path d="M15.47 7.83h.46a1 1 0 0 1-.48 0z"/><path d="M15.5 7.81h.34a.7.7 0 0 1-.36 0z"/><path d="m15.56 7.8.18.02v.04l-.19-.02m-.55.64v-.34a.5.5 0 0 1 .24-.24l-.22.21v.32zM15.29 7.96l.08-.07.02.03-.08.07"/><path d="m15.32 7.93.39.05V8a3 3 0 0 1-.4 0zM15.99 7.9l-.29.04-.31-.04.01-.04.3.04.28-.04z"/><path d="m15.41 7.9.2.04v.04l-.21-.04m.42.04.43-.08.01.04-.43.08"/><path d="M15.46 7.83h.45zm.54.05a2 2 0 0 0-.31 0 .37.37 0 0 0-.22.05.37.37 0 0 1 .25-.06h.32zM15.26 8a.5.5 0 0 1 .22-.16.5.5 0 0 0-.21.14zm.74-.17.31-.09.39-.06a1.8 1.8 0 0 1 .39.06c.2 0 .27 0 .51.06-.24 0-.3 0-.51-.06a1.7 1.7 0 0 0-.38-.06l-.39.06a3 3 0 0 1-.31.09zM15.26 8a1 1 0 0 0 .34.08 1.5 1.5 0 0 1-.36-.08zm1.15-.44.26.07h.27a.72.72 0 0 1-.55-.07zm.66.98a1.27 1.27 0 0 1 .33.57 1.3 1.3 0 0 0-.4-.55zm.34-.39c.14.06.28.12.3.25 0-.09-.14-.16-.27-.21zM17 8c.17.07.29 0 .4.11-.1-.07-.22 0-.4-.11"/><path d="M16.69 8A2 2 0 0 1 17 8a.9.9 0 0 1 .35.06.6.6 0 0 0 .26.06v-.09l-.06-.13.08.16v.13h-.07a1.4 1.4 0 0 1-.27-.07A.9.9 0 0 0 17 8a1.2 1.2 0 0 0-.31 0m-.09.34a.6.6 0 0 1-.19-.34v-.12c0 .16 0 .26.18.43z"/><use xlink:href="#D"/><path d="M16.53 7.86v.15c0 .08 0 .18.19.34a.5.5 0 0 1-.2-.36v-.17z"/><path d="m16.74 8.45-.2-.55.04-.02.2.55"/><path d="M16.55 7.88v.13a.42.42 0 0 0 .13.27.7.7 0 0 1-.23-.28l.06-.11v.08l.08.21.06.08a.5.5 0 0 1-.14-.3v-.14zM16.67 7.9a.8.8 0 0 0 .17.45.86.86 0 0 1-.18-.48v.02zM16.6 7.88v-.07.11a.8.8 0 0 0 .13.38.85.85 0 0 1-.13-.4v-.13z"/><path d="M16.57 7.84v.06a.9.9 0 0 0 .11.36.8.8 0 0 1-.12-.37V7.8zm.78-.1a.8.8 0 0 1 .33 0 .8.8 0 0 0-.32 0z"/><path d="M17.41 7.76c.11 0 .27 0 .35.06h-.33zm-.72.11-.01.06.07.22-.03.02-.08-.24.01-.07zm-.15-.05v.09l.05.19-.03.02-.06-.21v-.09zm.1 0-.02.13.01.05-.03.02-.02-.07.01-.13zm.13.09v.03l.01.09-.02.04-.03-.03.01-.01-.01-.09V7.9z"/><path d="M16.72 7.82V8h.59-.63v-.18z"/><path d="m16.88 8.01-.25-.02v-.04l.25.01m.12.47a2 2 0 0 1 .27.39 4 4 0 0 0-.27-.37z"/><path d="M17.07 8.43c.16.16.17.18.18.21L17 8.45zm.26 0a.7.7 0 0 1 .15.27.7.7 0 0 0-.14-.27z"/><path d="M17.23 8.28c.15.12.17.24.21.27-.06-.05-.07-.15-.21-.27M17.49 8.36a1.4 1.4 0 0 1 .19.24.7.7 0 0 0-.18-.24zM17 8a1.2 1.2 0 0 1 .4.1 1.3 1.3 0 0 0-.4-.03z"/><path d="M16.91 8c.12.07.28.07.46.15a1 1 0 0 1 .2.14c-.08 0 0 0-.2-.13-.17-.08-.33-.08-.47-.15zm.48.33c.11.07.18.05.24.1s-.12 0-.24-.1m.35-.33a.7.7 0 0 1 .14.2 1 1 0 0 0-.13-.2z"/><use xlink:href="#E"/><path d="m16.53 7.8-.03.17h-.04l.03-.18m.17.32v-.33h.04v.33M16.61 8.31a1.2 1.2 0 0 1-.06-.31v-.17a1.2 1.2 0 0 0 .06.48M16.76 8.08v-.17l.06-.09a.33.33 0 0 0-.05.22zm1-.84.33.19-.02.04-.33-.19"/><path d="M17.79 7.34a1.3 1.3 0 0 0 .29.1 1 1 0 0 1-.3-.11ZM17.75 7.36a1 1 0 0 0 .22.07 1.6 1.6 0 0 1-.23-.07zm-.95 1.01a1 1 0 0 1-.09-.37l.1-.22-.06.22a1.1 1.1 0 0 0 .08.34z"/><path d="M16.62 8.24a.9.9 0 0 1-.08-.3l.08-.16a.8.8 0 0 0 .02.4zm1.03-.78.14-.06v.04h-.11l-.01-.14h.04l.01.1h.07l.01.04-.13.05z"/><path d="M18.1 7.49s-.28 0-.38-.08c.09 0 .34.06.4.09ZM17.72 7.21a.8.8 0 0 1 .41.21.8.8 0 0 0-.39-.2zm-.9 1.18a2 2 0 0 1-.09-.39l.08-.14-.05.1a1.5 1.5 0 0 0 .09.41z"/><g class="H"><path d="M16.48 7.8a.34.34 0 0 0 0 .36z"/><path d="M16.44 8.05c0-.06 0-.29.11-.29z"/><path d="M16.52 8.23a.48.48 0 0 1-.08-.37z"/></g><path d="M15.31 8a1.7 1.7 0 0 0 .38.07h.07c.13 0 .41-.07.47-.07h.18c-.23 0-.52.07-.65.07h-.07a2 2 0 0 1-.4-.07zm2.48-.54.09-.01.15.02-.01.04-.14-.02-.08.01zm-.4.32c.06 0 .2 0 .21.12v.09h-.15a1.3 1.3 0 0 0-.45-.11h.15l.16.11-.15.01h-.18a1.5 1.5 0 0 1 .45.11V8h.09v-.07c0-.08-.09-.06-.19-.08zm.14-.08h.46z"/><path d="m17.8 7.67.15-.01.14.03-.02.03-.12-.02-.14.01zm-.21.16.09.07-.02.03-.09-.06"/><path d="m17.61 7.87.09.07-.02.03-.1-.06"/><path d="m17.61 7.92.09.06-.02.04-.1-.07"/><path d="m17.59 7.94.11.07-.02.03-.11-.06"/><path d="m17.59 7.97.09.06-.02.04-.09-.07"/><path d="m17.56 7.99.1.06-.02.03-.1-.05"/><path d="m17.51 8 .1.06-.03.04-.09-.07"/><path d="m17.47 8 .08.05-.02.03-.08-.05"/><path d="m17.41 7.98.1.05-.02.04-.09-.05"/><path d="m17.35 7.95.1.07-.03.03-.09-.06M18.27 7.72a1.3 1.3 0 0 0-.34-.06.8.8 0 0 0-.24 0 .9.9 0 0 1 .25 0 2 2 0 0 1 .35.06zm-.51.03a.5.5 0 0 0 .18 0 .6.6 0 0 1-.19 0zM17.37 7.67a1.3 1.3 0 0 1 .5.07 1.3 1.3 0 0 0-.48-.06z"/><path d="M17.34 7.71a1.5 1.5 0 0 1 .38 0 1.3 1.3 0 0 0-.37 0zm-.01.03c.1 0 .36 0 .42.12 0-.07-.28-.08-.39-.09z"/><path d="M17.47 7.74a.5.5 0 0 1 .3.07c-.06 0-.12 0-.27-.06zm.43-.1h.06l.25.06-.02.03-.23-.05h-.05zm-.11-.34.27.1-.02.04-.27-.11m.23.29a1 1 0 0 1 .2 0 .8.8 0 0 0-.2 0M17.34 7.78h.09c.07 0 .17 0 .17.11l-.1.11h-.11a1.4 1.4 0 0 0-.31-.08l.28.12-.36-.13a1.3 1.3 0 0 1 .4.09h.1l.06-.08-.13-.06h-.09z"/><path d="m17.17 7.89.13.06.07.04-.01.04-.08-.04-.12-.07zm.31-.11a1.6 1.6 0 0 1 .43.11 1.6 1.6 0 0 0-.42-.1z"/><path d="M17.63 7.81a2 2 0 0 1 .23.06 2 2 0 0 0-.23-.07zM17.68 7.83l.11.04-.02.04-.1-.04"/><path d="m17.62 7.78.2.04v.04l-.2-.04M16.67 8H17a1 1 0 0 1 .44.08.4.4 0 0 0 .16.06l.05-.17-.11-.1a2 2 0 0 1 .4.11 1.8 1.8 0 0 0-.38-.11l.12.11v.19h-.08a.6.6 0 0 1-.18-.07A1 1 0 0 0 17 8zm1.72-.41a.9.9 0 0 1 .28.08.9.9 0 0 0-.28-.08m-.31-.03a2.4 2.4 0 0 1 .52.1 2.4 2.4 0 0 0-.5-.09z"/><use xlink:href="#F"/><path d="M17 7.94a2 2 0 0 0 .3.23A2 2 0 0 1 17 8z"/><path d="M17.24 8.1A2 2 0 0 1 17 8a2 2 0 0 0 .21.11zm-.03-.47a1 1 0 0 0 .29 0h.28-.29a2 2 0 0 1-.3 0zm.4-.45a.9.9 0 0 1 .3.09 1.1 1.1 0 0 0-.29-.1zM17.72 7.24a.34.34 0 0 1 .18.06.3.3 0 0 0-.17 0z"/><path d="M17.73 7.3a.7.7 0 0 0 .2.07l-.21-.09ZM17.75 7.33l.16.07-.02.04-.16-.07m-.06.07.13-.04.01.04-.13.04"/><path d="m17.73 7.35.02.07h-.04l-.02-.06m-.7.77-.16-.28.04-.04.03.01-.01.04-.02-.01.15.26zM17.18 8.12 17 8a2 2 0 0 1 .2.15z"/><path d="m17.05 8.12-.12-.15.03-.02.13.14"/><path d="m16.99 8.07-.11-.1.03-.03.11.1"/><g class="H"><path d="m17.16 7.45.23.09zm.53-.2.32.13zm.02.04.27.1zm-.06.21.24-.05zM17.69 7.5l.21-.04zm.09-.12.15.04zM17.74 7.38l.05.01zm.16.07.24.05z"/></g></g><path fill="#ed1a3a" d="m17.5 7.48.11-.11-.11-.11-.11.11z" class="H"/><g class="M"><path d="m17.41 7.31.11-.03.01.04-.11.03"/><path d="m17.45 7.31.06-.02.01.04-.06.02"/></g><g class="K"><path d="m17.36 7.34.14-.11.14.12-.04.01-.1-.09-.1.07zm-.04-.15h.37a1 1 0 0 1 .22.07l.34.21-.34-.22a1.2 1.2 0 0 0-.21-.06h-.35z"/><path d="M17.63 7.21c.1 0 .11.07.16.07a4 4 0 0 1 .41.21l-.4-.2-.18-.07zM17.7 7.27l.29.13-.02.04-.29-.13m-.01-.05.08.08-.02.03-.08-.08"/><path d="m17.59 7.18.14.15-.03.03-.13-.15"/><path d="M17.67 7.19a.5.5 0 0 1 .11.14.4.4 0 0 0-.1-.13zm-.07.01a.2.2 0 0 1 .12.18.14.14 0 0 0-.09-.14zM17.19 7.33c.06 0 .13.19.27.19a3 3 0 0 0 .38-.09l.4.08-.41-.08a2 2 0 0 1-.38.09c-.17 0-.25-.17-.29-.2zM16 7.15a1.6 1.6 0 0 1 .41-.09 1.6 1.6 0 0 0-.4.09zm.05.04.39-.04v.04l-.39.04M16.09 7.23l.35-.03v.04l-.35.03m.07.04.24.02v.04l-.24-.02m.12.05.19.04-.01.04-.19-.04m.11.18.2.05-.01.04-.2-.05"/><path d="m16.67 7.56.12-.05.02.04-.12.05m-.28-.28.16.06-.02.03-.16-.05m.16.15h.11v.04h-.11m-.16-.33.09.08-.03.03-.09-.08"/><path d="m16.41 7.31.03.01-.02.04-.03-.01m.08-.22.09.1-.03.03-.09-.11M16.44 7.11l-.11-.12.03-.03.11.12"/><use xlink:href="#B"/><path d="m16.83 7.53.04.04-.03.03-.04-.04"/><path d="M16.75 7.58h.08v.04h-.08m.77.53a1.4 1.4 0 0 0-.49-.1h-.25l.1-.08H17a1.4 1.4 0 0 1 .5.1zM17.52 8.11l.18-.01.01-.09-.05-.17.03-.01.06.18-.02.11v.02l-.2.01zm-.16-.85-.05.11.03.08-.03.02-.04-.1.07-.14z"/><path d="m17.27 7.43-.01-.05.05-.14.03.02-.04.12v.04z"/><path d="m17.33 7.27-.04.06.01.06-.03.01-.02-.07.05-.08z"/><use xlink:href="#C"/><path d="m17.22 7.34.11.14-.03.02-.11-.13m-.11-.09.09.06-.01.03-.1-.05"/><path d="M17.15 7.31h.08v.04h-.08"/><path d="m17.21 7.31.14-.11.03.04-.15.1"/><path d="m17.19 7.32.06-.01.01.04-.06.01m-.15-.12.29-.05v.04l-.28.05m-1.88.33c-.16.1-.2.44-.21.54a2.3 2.3 0 0 0 .21.55 1.7 1.7 0 0 1-.19-.6.65.65 0 0 1 .12-.37.54.54 0 0 0-.12.35 1.6 1.6 0 0 0 .18.58 2.3 2.3 0 0 1-.22-.57c0-.09 0-.44.23-.56z"/><path d="M15.07 8a.7.7 0 0 1 .41-.29.75.75 0 0 0-.38.29zm.67-1.04.31-.03v.04l-.31.03"/><path d="m15.71 6.99.33-.03V7l-.32.03"/><path d="m15.7 7.03.34-.06v.04l-.33.06"/><path d="m15.7 7.05.31-.05.01.04-.31.05"/><path d="m15.67 7.08.32-.04.01.04-.32.04"/><path d="m15.67 7.12.32-.04.01.04-.32.04"/><path d="m15.68 7.15.33-.03v.04l-.33.03m.8-.17-.1-.14.04-.02.09.13M16.08 7.05v-.02h.06l.12.05h.01l.05.12.01.01-.03.07-.01.03-.26-.28h.05zl.01-.02.18.21.01-.03-.04-.1-.11-.04h-.05zl.01-.02z"/><path d="M16.08 7.05h.05l.12.05.06.11-.03.07z" class="H"/><path d="M16 7v.16l.3.23c-.07-.08-.27-.22-.27-.39v.06c0 .14.18.28.26.36L16 7.21z"/><path d="M16 7s-.1.09 0 .18l.3.23c-.08-.08-.27-.21-.27-.37V7" class="H"/><path d="m15.97 7.18-.06.03.48.37-.03.03-.52-.41.11-.05z"/><path d="M15.87 7.36h.26v.04h-.26m-.13.03.23-.03v.04l-.23.03"/><path d="m15.71 7.45.19-.02.01.04-.19.03"/><path d="m15.67 7.5.14-.03v.04l-.13.02m.19-.17a.8.8 0 0 1 .19 0h.05-.18z"/><path d="m15.9 7.32.15-.01v.04l-.14.01"/><path d="m15.93 7.29.08-.01.01.04-.09.01m.14.04h.09v.05h-.09m-.85.58s-.05.09-.12.25v.11a.85.85 0 0 0 .12.35.8.8 0 0 1-.13-.38v-.11l.07-.19v-.05l-.11.22v.12a.94.94 0 0 0 .13.39 1 1 0 0 1-.18-.38V8l-.06.13v.15a1 1 0 0 0 .14.4.9.9 0 0 1-.08-.34V8.2a.7.7 0 0 1 .11-.2 3 3 0 0 0-.12.26v.1a.9.9 0 0 0 .12.36.74.74 0 0 1-.13-.37v-.12l.21-.23zm1.1 0a.3.3 0 0 1 .15.16c-.06-.11-.07-.1-.14-.14z"/><path d="m16.39 8.04.1.09-.02.03-.11-.09m-.87-.24h.2zM15.56 7.8l.19.03-.01.04-.19-.03m-.26.12.08-.07.02.03-.08.07"/><path d="m15.82 7.98.43-.08.01.04-.43.08m-.21-.22.39.03v.04l-.48-.01v-.04l.48.01v.04l-.39-.03z"/><path d="M15.68 7.83h.1v.04h-.1M15.24 8a.8.8 0 0 1 .24-.16.6.6 0 0 0-.23.15Z"/><path d="m15.25 7.98.32.08-.01.04-.32-.08m1.17-.45.24.06h.31a.62.62 0 0 1-.55-.07zm.66.97a1.27 1.27 0 0 1 .33.57 1.3 1.3 0 0 0-.4-.55zm.34-.39c.14.06.27.13.3.25a.41.41 0 0 0-.27-.22zM17 8c.17.07.29 0 .4.11-.1-.07-.22 0-.4-.11"/><path d="M16.69 8A2 2 0 0 1 17 8a1 1 0 0 1 .36.06.6.6 0 0 0 .26.06v-.09l-.06-.13.08.16v.13h-.07a1.4 1.4 0 0 1-.27-.07A1 1 0 0 0 17 8a1.2 1.2 0 0 0-.3 0zM16.6 8.35a.62.62 0 0 1-.19-.35v-.12a.56.56 0 0 0 .18.44z"/><use xlink:href="#D"/><path d="m16.64 7.82-.02.13.01.05-.03.02-.02-.07.01-.13zm.13.09v.03l.01.09-.02.04-.03-.03.01-.01-.01-.09V7.9z"/><path d="M16.72 7.85V8h.59-.63v-.15z"/><path d="m16.88 8.01-.25-.02v-.04l.25.01m.17.47a4 4 0 0 1 .26.39c-.06-.07-.13-.24-.26-.39m.28 0a1 1 0 0 1 .14.27.8.8 0 0 0-.13-.27z"/><path d="M17.23 8.28c.15.12.17.25.21.26-.07 0-.07-.15-.21-.27zM17.49 8.36a1.4 1.4 0 0 1 .19.24.7.7 0 0 0-.18-.24zM17 8a1.5 1.5 0 0 1 .41.1 1.6 1.6 0 0 0-.4-.09z"/><path d="M16.91 8c.11.07.27.07.45.15a.9.9 0 0 1 .21.14c-.08 0 0 0-.22-.13s-.33-.08-.45-.15zm.48.33c.1.07.18.05.24.1s-.13 0-.24-.1m.35-.33a.7.7 0 0 1 .14.2 1 1 0 0 0-.13-.2z"/><use xlink:href="#E"/><path d="M16.76 8.08c0-.12 0-.24.08-.25v.21zm1.03-.74a1.3 1.3 0 0 0 .29.1 1 1 0 0 1-.3-.11zM17.75 7.36l.2.07-.02.04-.2-.07"/><path d="m17.65 7.46.14-.06v.02l.01.02-.09.03h-.03l-.01-.17h.04l.01.12.07-.02.01.04-.13.05z"/><path d="M18.1 7.49s-.28 0-.38-.08c.09 0 .34.06.4.09Z"/><path d="M16.48 7.8a.34.34 0 0 0 0 .36z" class="H"/><path d="m17.78 7.46.09-.01.16.02-.01.04-.15-.02-.09.01z"/></g><path fill="#f15b5b" d="M17.38 7.8c.08 0 .2 0 .2.1s-.13.07-.16.07a1.8 1.8 0 0 0-.42-.11c-.12 0 0 .06.12.08s.16.06.14.11l.08-.25" class="H"/><g class="K"><path d="M17.39 7.75h.13l.11.13v.11h-.23l-.4-.08h.25l.06.09h-.34l.03-.12a1.4 1.4 0 0 1 .4.11h.09-.14zm.41-.08.15-.01.14.03-.02.03-.12-.02-.14.01z"/><path d="m17.59 7.83.09.07-.02.03-.09-.06"/><path d="m17.61 7.87.09.07-.02.03-.1-.06"/><path d="m17.61 7.92.09.06-.02.04-.1-.07"/><path d="m17.59 7.94.09.07-.02.03-.09-.07"/><path d="m17.58 7.97.09.06-.02.04-.1-.07"/><path d="m17.56 7.99.1.06-.02.03-.1-.05"/><path d="m17.51 8 .1.06-.03.04-.09-.07"/><path d="m17.47 8 .08.05-.02.03-.08-.05"/><path d="m17.41 7.98.1.05-.02.04-.09-.05"/><path d="m17.35 7.95.1.07-.03.03-.09-.06m.94-.25a1.1 1.1 0 0 0-.37-.08h-.21.22a1.1 1.1 0 0 1 .38.08zM17.37 7.67a1.3 1.3 0 0 1 .5.07 1.3 1.3 0 0 0-.48-.06z"/><path d="M17.9 7.64h.06l.25.06-.02.03-.23-.05h-.05zm.1-.02a1 1 0 0 1 .2 0 .8.8 0 0 0-.2 0m-.66.16h.05c.08 0 .21 0 .21.11l-.1.11h-.12a1.4 1.4 0 0 0-.31-.08l.28.12-.35-.13a1.3 1.3 0 0 1 .4.09h.1l.06-.08v-.06h-.17z"/><path d="m17.18 7.89.1.06.09.04-.01.04-.1-.04-.11-.07zm.3-.11a1.6 1.6 0 0 1 .43.11 1.6 1.6 0 0 0-.42-.1zM17.63 7.83a2 2 0 0 1 .23.06h-.22z"/><path d="m17.68 7.83.11.04-.02.04-.1-.04M16.67 8H17a1 1 0 0 1 .44.08.4.4 0 0 0 .16.06l.05-.17-.11-.1a1.5 1.5 0 0 1 .38.11 1.4 1.4 0 0 0-.36-.11l.12.11v.19h-.08a.5.5 0 0 1-.18-.07A1 1 0 0 0 17 8zm1.72-.41a.9.9 0 0 1 .28.08.9.9 0 0 0-.28-.08m-.31-.03a2.4 2.4 0 0 1 .52.1 2.4 2.4 0 0 0-.5-.09z"/><use xlink:href="#F"/><path d="M17 7.94a2 2 0 0 0 .3.23A1.6 1.6 0 0 1 17 8z"/><path d="M17.24 8.1A1.5 1.5 0 0 1 17 8a1 1 0 0 0 .21.11zm-.03-.47a1 1 0 0 0 .29 0h.25-.26a2 2 0 0 1-.3 0zm.4-.45a.8.8 0 0 1 .29.09l-.28-.1zM17.72 7.24a.3.3 0 0 1 .17.06.27.27 0 0 0-.16 0zm.03.09.16.07-.02.04-.16-.07"/><path d="m17.67 7.44.13-.04.01.04-.13.04m.05-.12v.06h-.04v-.06m-.51.76L17 8a2 2 0 0 1 .2.15z"/><path d="m17.05 8.12-.12-.15.03-.02.13.14"/><path d="m16.99 8.07-.11-.1.03-.03.11.1"/><path d="m17.16 7.45.23.09zm.53.05.2-.04zm.05-.12.05.01z" class="H"/></g><path fill="#58595b" d="M15.18 8.11a.6.6 0 0 1 .36-.26z" class="H"/><path d="M15.14 8.08a.68.68 0 0 1 .38-.27v.08a.62.62 0 0 0-.34.24z" class="K"/><path fill="#58595b" d="M15.84 7.86a2 2 0 0 0 .39-.06.65.65 0 0 1 .28-.06z" class="H"/><path d="M15.84 7.82a1.5 1.5 0 0 0 .38-.07.7.7 0 0 1 .31-.06v.09h-.26a1.7 1.7 0 0 1-.39.07z" class="K"/><path d="M16.75 7.7c.09 0 .27.07.37.08s.41 0 .43.08v.11c-.06 0-.21-.08-.41-.08h-.08l.27.12a3 3 0 0 0-.55-.01l-.31-.07H16l.29-.1h.3a1 1 0 0 1 .21 0h-.05" class="H L"/><path d="M16.76 7.66c.1 0 .27.07.37.08h.25c.1 0 .18 0 .23.1V8h-.11a2.3 2.3 0 0 0-.4-.08H17l.31.14v.07L16.8 8H16v-.1l.3-.09a1.5 1.5 0 0 1 .31 0 .7.7 0 0 1 .22 0v.09a.7.7 0 0 0-.2 0 1.3 1.3 0 0 0-.28 0h-.06.22l.32.07c.11 0 .39.06.48.07V8h.05L17 7.92h.08a1.6 1.6 0 0 1 .4.09V7.9h-.39c-.12 0-.29-.07-.38-.08z" class="K"/><path d="M18.75 13h.35l-.18.43.42-.07v.51l-.34-.2c-.16 0-.22.71.16.71 3.74 0 5.78-3.63 5.78-3.63s-.33.19-.51 0-.19-.36 0-.48a.31.31 0 0 1 .43.12s0-.45.37-.45.31.43.09.57c0 0 .5-.29.5.16s-.4.28-.63.2a7 7 0 0 1-12.95 0c-.24.08-.64.17-.64-.2s.51-.16.51-.16c-.23-.14-.32-.57.1-.57s.35.45.35.45a.33.33 0 0 1 .45-.12c.24.12.16.33 0 .48s-.53 0-.53 0 2 3.63 5.81 3.63c.35 0 .32-.71.16-.71l-.36.18v-.51l.42.07-.11-.41z" class="H M"/><path d="m20.7 4.91-.08.28c-.09.09-.22.21-.22.35v.05a.22.22 0 0 1-.18.19c-.12.21-.25.37-.36.55l.14.17-.11.08h-.07l.11.42h-.33c-.05 0-.08 0-.1.11l.06.17v.07h-.18a2.41 2.41 0 0 0-1.85-.82h-.16a2.35 2.35 0 0 0-1 .33l-.1-.12c0-.1.11-.11.16-.16v-.05c0-.13-.17-.12-.28-.21 0-.13.18-.22.17-.3v-.07l-.12-.02.1-.15a4.6 4.6 0 0 0-.3-.91v-.1a2 2 0 0 0-.09-.46l-.07-.05-.08-.07A.16.16 0 0 1 15.9 4l.17.06.09.14h.19l.06.08.05.06h.05l.09.1v.07h.13v.08c0 .1-.1.15-.1.2v.05L16.6 5c-.1 0-.17-.08-.24-.08h-.08l.08.16h.22v.18l-.12.09c.07.1.21.1.34.1a.45.45 0 0 0 .36-.28H17l-.11-.09-.17-.07c0-.09.1-.13.09-.17 0-.1.11-.1.1-.14l.09-.24v-.07l.09-.12h.21v.13l.17.12.14.08.05.08.08.09c-.11.08-.07.27-.25.28h-.19a.26.26 0 0 0 .24.25h.05a.5.5 0 0 0 .37-.29v-.12l.04-.02v-.16h.15v-.09l-.15.04-.16-.13c0-.08-.13 0-.14-.17l.14-.17h.08l.02-.19h.18v-.18c.1 0 .17 0 .2-.12h.22l.06.12s.12 0 .13.16l-.07.18h.2v.18h.06v.21h-.06c-.07 0-.07.15-.19.15l-.11-.08-.06-.06v.06c0 .06.15.1.16.21v.1h-.17v.26l.05.2.21.14.25-.14c-.08 0-.19 0-.24-.15L18.68 5l.07-.11h.11l.13-.1.09-.07h.26l.12.09h.05l.08.08V5l-.1.18h.06v.24l-.1.12h-.31l-.07-.07.11.21a.54.54 0 0 0 .37.15V6v-.21h.22l.12-.13h-.34V5.2h.23V5h.53l.13.06.13-.12h.15l-.26.06h-.12l-.14.11h-.19l-.07.11h-.15v.44h.31v.09l-.18.19v-.08h-.16v.2h-.05a.6.6 0 0 1-.39-.16l-.11-.23v-.06l.08.09h.1l.07-.08h.12l.09-.12v-.22l-.09-.08.1-.18-.13-.02-.07-.06v-.07l-.08-.06h-.29l-.07.06h-.07l-.13.1h-.12V5l.05.19v.07c0 .1.11.06.22.12l-.27.18a.32.32 0 0 1-.24-.16l-.06-.22V5h.17v-.07c0-.07-.15-.1-.16-.21l.06-.09.09.08.08.06h.05c.07 0 .07-.15.19-.16v-.19l-.09-.08v-.11h-.23l.09-.22c0-.08-.11-.05-.13-.16l-.05-.1h-.2c-.05.09-.13.11-.23.14v.2L17.87 4v.13h-.09l-.13.16c0 .08.13.05.14.17l.13.11.17-.09v.16h-.17v.12l.12.09V5a.54.54 0 0 1-.41.32h-.06c-.17 0-.24-.16-.28-.28h.22c.14 0 .1-.16.23-.27l-.06-.06-.07-.11-.15-.1v.03l-.13-.09v-.12h-.19l-.06.08-.08.09-.11.14v.07l-.1.14v.06l-.09.17.18.07.1.07h.15a.49.49 0 0 1-.4.31.44.44 0 0 1-.38-.12l.12-.09v-.13h-.19L16.21 5h.11c.09 0 .16.09.24.08V5l.13-.11v-.08l.1-.2v-.06h-.15v-.09l-.07-.09-.09-.11h-.2l-.09-.14L15.9 4l-.1.12.1.07a2.4 2.4 0 0 1 .09.47v.09a5 5 0 0 1 .19.88l-.09.12.11.06v.09c0 .12-.18.21-.17.3.08.08.29.06.3.24v.06l-.14.13.09.11a2.65 2.65 0 0 1 1.05-.34h.15a2.48 2.48 0 0 1 1.88.83h.15l-.06-.16a.13.13 0 0 1 .14-.14h.2V7l-.11-.41.09-.06h.14l-.08-.18c.11-.2.24-.36.36-.56l.15-.15v-.08c0-.17.15-.29.23-.38l.08-.28z" class="K"/><path fill="#fd0" d="m20.7 4.91-.08.28c-.09.11-.25.25-.21.42s-.07.16-.16.17c-.12.21-.26.37-.36.56l.08.17c0 .13-.19 0-.23.11l.11.4c-.14 0-.33-.14-.37.09 0 .08.08.14 0 .23h-.14a2.5 2.5 0 0 0-2-.81 2.35 2.35 0 0 0-1 .33l-.1-.11c0-.1.08-.12.15-.17.05-.22-.17-.19-.28-.28s.25-.23.15-.38l-.13-.07.1-.13a5 5 0 0 0-.23-.86 1.4 1.4 0 0 0-.08-.55c0-.08-.17 0-.15-.13A.15.15 0 0 1 15.9 4l.18.06.09.14h.2c.1 0 0 .2.15.16l.08.09v.08h.15c.1.16-.16.2-.05.33l-.11.14c-.14 0-.23-.16-.36 0l.08.17h.21v.16l-.11.08c.08.11.23.11.36.11a.49.49 0 0 0 .38-.3h-.16l-.11-.08-.18-.06c0-.12.15-.15.07-.26s.16-.09.08-.23l.15-.12c.12 0 0-.18.13-.19h.2v.12c.1 0 .18 0 .19.11l.15.09c0 .12.14.09.13.19s-.08.27-.24.27h-.19a.29.29 0 0 0 .26.27c.15.01.37-.15.44-.29V4.9L18 4.86v-.15h.16v-.13l-.16.06-.15-.12c0-.1-.16-.06-.14-.18l.13-.16h.08L18 4h.19v-.2c.09 0 .17-.05.21-.13h.21l.06.11c0 .12.12.08.12.19l-.08.2h.23c.1.07-.11.19.08.22v.18c-.15-.06-.12.19-.27.14s-.16-.27-.22-.07.26.15.11.32h-.16a.56.56 0 0 0 0 .4.28.28 0 0 0 .25.15l.27-.1c-.09-.06-.19 0-.23-.14s-.12-.22 0-.34h.11l.12-.1c.14.1.08-.13.22-.08s.26-.08.32.08c-.12.11.08.08.09.18s-.21.18 0 .25v.23l-.09.12c-.07 0-.17-.12-.2 0h-.11l-.07-.07c0 .09.06.18.1.27a.6.6 0 0 0 .41.15v-.22h.19v.07l.15-.16v-.07a.4.4 0 0 1-.32 0v-.45c.07-.13.26.12.26-.09h.18l.2-.04h.12l.15-.12h.1" class="H"/><path d="M20.29 5.72v.02l-.05.01-.13-.11v-.03l.09-.13.01-.02.17.09.01.01-.09.17-.01.01zl-.02-.01.07-.13-.11-.07-.09.13-.01-.02.02.01v.01l.09.06h.04zl-.02-.01z" class="K"/><path fill="#00a651" d="M20.29 5.72c-.1 0-.18 0-.16-.1l.09-.13.15.08z" class="H"/><path d="m19.85 6.29-.13-.12.21-.17a.63.63 0 0 1-.34.12L19.47 6h.28v-.16h.17v.14l.2-.18.11.07a4 4 0 0 0-.34.51 6 6 0 0 1 .34-.51h-.09a.36.36 0 0 1-.22.2v-.25h-.08v.14l-.14.07h-.18V6l.14.12a.6.6 0 0 0 .28-.12c0 .11-.17.13-.25.17l.14.12z" class="I"/><path d="m19.85 6.29-.14-.12c.08 0 .22-.06.24-.16a.54.54 0 0 1-.32.12L19.48 6c.1 0 .23.07.3 0v-.16h.12v.12a.38.38 0 0 0 .22-.19h.09c-.13.15-.21.35-.33.51" class="H J"/><path d="M20.07 5.57h-.29V5.4l.15-.06s-.12 0-.16-.12l.1-.12.09.07.05.05v-.15h.17a1.1 1.1 0 0 1 .07.37l-.11.14.1-.14a1 1 0 0 0-.07-.36H20v.13h-.05l-.08-.07h-.06l-.09.11.16.12h-.14v.15H20z" class="I"/><path d="M20.07 5.57c-.1 0-.2.08-.29 0v-.16l.13-.06s-.13 0-.16-.12l.1-.1c.09 0 .08.17.18.1v-.14h.14a1.1 1.1 0 0 1 .07.37l-.11.13" class="H J"/><path d="M19.85 6.54a3.33 3.33 0 0 0-2.33-.94 2.8 2.8 0 0 0-.71.09 4.5 4.5 0 0 0-.59.21h-.1v-.1a3.2 3.2 0 0 1 1.38-.3 3.46 3.46 0 0 1 2.23.78c0 .05.16.1.17.19l-.08.09.05-.06-.17-.17a3.36 3.36 0 0 0-2.2-.78 3.2 3.2 0 0 0-1.37.3v.06c.19-.08.39-.14.59-.21a3 3 0 0 1 .72-.09 3.37 3.37 0 0 1 2.36.95z" class="I"/><path d="M19.85 6.54a3.34 3.34 0 0 0-3.06-.86l-.59.21h-.07V5.8a3.46 3.46 0 0 1 3.6.48c0 .08.29.15.11.26" class="H J"/><path d="M19.82 7h-.1c-.09 0-.2 0-.2-.13V6.7h.23l.1.29V7a2.4 2.4 0 0 1-.09-.3h-.2v.15c0 .08.07.09.16.09h.1z" class="K"/><path fill="#a3238e" d="M19.82 7c-.1 0-.28 0-.28-.11v-.17h.21l.1.3" class="H"/><path d="M19.51 6.63h-.08a2 2 0 0 1 .08.37l-.07.09a2.82 2.82 0 0 0-1.93-.78 2.1 2.1 0 0 0-.8.14 1.3 1.3 0 0 1-.3.12v-.14c.07-.11.19-.18.24-.29-.09-.06-.32 0-.33-.22a3 3 0 0 1 1.25-.27 3.2 3.2 0 0 1 2.23.88l-.05.11h-.21l.22-.09a3.2 3.2 0 0 0-2.21-.87 2.9 2.9 0 0 0-1.23.27c0 .12.2.12.32.19-.06.13-.18.2-.24.3v.11a1.4 1.4 0 0 0 .29-.12 2.2 2.2 0 0 1 .81-.14 2.86 2.86 0 0 1 2 .79L19.49 7a1.6 1.6 0 0 0-.08-.36h.12z" class="I"/><path d="M19.51 6.63h-.08a1.7 1.7 0 0 1 .08.36l-.07.08a2.73 2.73 0 0 0-2.75-.64 1 1 0 0 1-.29.12v-.12c.07-.11.19-.17.24-.3s-.33 0-.32-.21a3.2 3.2 0 0 1 3.46.6c0 .15-.15.1-.24.11" class="H J"/><path d="M19.44 7.34c-.15-.06-.22-.21-.3-.26a2.32 2.32 0 0 0-1.61-.6 2.1 2.1 0 0 0-.91.19c-.1 0-.2.13-.31.13h-.07v-.13a2.7 2.7 0 0 1 1.34-.35 2.37 2.37 0 0 1 1.28.35 1.54 1.54 0 0 1 .66.58l-.06.09.05-.08a1.63 1.63 0 0 0-.65-.57 2.4 2.4 0 0 0-1.26-.34 2.7 2.7 0 0 0-1.32.34v.11c.09 0 .18-.1.3-.13a2.2 2.2 0 0 1 .93-.19 2.4 2.4 0 0 1 1.64.61c.1.06.16.2.29.25" class="I"/><path d="M19.44 7.34c-.13 0-.2-.2-.29-.25a2.4 2.4 0 0 0-2.55-.42c-.12 0-.23.16-.35.12v-.11a2.65 2.65 0 0 1 2.6 0 1.7 1.7 0 0 1 .66.58l-.06.08" class="H J"/><path d="m19.46 6.48-.02.02-.06-.05-.02-.02.08-.08.04.01v.17l-.04-.03zh-.02v-.07l-.02.02.05.04zh-.02z" class="I"/><g class="H"><path d="m19.46 6.48-.07-.05.07-.07z" class="J"/><path d="m19.46 6.44-.04-.04.04-.04z" class="M"/></g><path d="m19.52 5.57-.12-.09-.08.14-.1-.18v-.06h.05l.15.08c0-.06-.11-.11-.11-.21h.24v.13h-.08l.12.08-.08.1.08-.1-.09-.05h.08v-.16h-.2l.11.19h-.05l-.14-.07h-.08l.07.11.06-.11.1.09z" class="I"/><path d="M19.52 5.57c-.09 0-.09-.07-.14-.09l-.08.14-.08-.14c-.06-.1.05-.07.06-.1l.14.07c0-.08-.13-.12-.11-.23h.22v.12h-.07c0 .07.12 0 .12.1l-.08.09" class="H J"/><path d="m19.28 6.79-.01.02-.08-.09-.03-.02.14-.03.04-.01-.04.14-.01.03-.02-.02zh-.02l.02-.08-.04.01.06.06zh-.02z" class="I"/><g class="H"><path d="m19.28 6.79-.08-.08.11-.03z" class="J"/><path d="m19.28 6.74-.04-.02.04-.02h.06z" class="M"/></g><path d="M19.43 5.19h-.13l.09-.19c-.06 0-.11.13-.22.13v-.2l.1-.12.08.06.09-.08.07.12V5h.08l-.15.2.1-.2h-.13v-.16l-.07.06h-.05l-.06-.06h-.05l-.07.09v.2c.07 0 .12-.11.22-.13l-.11.23h.12z" class="I"/><path d="M19.43 5.19c-.07 0-.15 0-.13-.06l.09-.19c-.08 0-.13.15-.23.13s-.12-.25 0-.31.07.18.15.08l.08-.08.05.1s-.09.11 0 .12h.07a.18.18 0 0 1-.12.22" class="H J"/><path d="M19.1 6.51a.46.46 0 0 1-.38-.31l.12-.12a.46.46 0 0 1 .41.29l-.1.16h-.07v-.08a.42.42 0 0 0-.37-.26l-.1.11a.43.43 0 0 0 .35.28z" class="I"/><path d="M19.1 6.51a.44.44 0 0 1-.37-.3l.11-.1a.44.44 0 0 1 .39.28c0 .05 0 .19-.13.12" class="H J"/><path d="M19.12 6.48a.58.58 0 0 1-.38-.28l.14-.08a.32.32 0 0 1 .31.26l-.06.1.06-.09a.29.29 0 0 0-.27-.22l-.12.07a.48.48 0 0 0 .35.26z" class="K"/><path d="M19.12 6.48a.56.56 0 0 1-.36-.27l.12-.06a.31.31 0 0 1 .29.24z" class="H L"/><path d="M19 5.69v-.14l-.21.14-.11-.05a.4.4 0 0 0 .32-.28l.1.14v.24l.1.14s-.2-.03-.2-.18c0 .1.14.11.21.16l-.1-.13-.05-.14v-.1l-.06-.1a.45.45 0 0 1-.36.26h.1l.25-.16v.21z" class="I"/><path d="M19 5.69v-.17l-.23.14h-.11a.44.44 0 0 0 .34-.29c.17 0 0 .25.12.38l.09.13s-.23 0-.21-.19" class="H J"/><path d="M19.15 5.38 19 5.32l.1-.18c.07 0 .14 0 .17.12l-.15.15c.14-.23.09-.2-.01-.23l-.09.14.11.07z" class="K"/><path d="M19.15 5.38 19 5.3l.09-.16c.08 0 .14 0 .16.11l-.13.13" class="H N"/><path d="m18.88 5.7-.01-.01.09-.08.02-.02.05.17.02.05-.18-.09-.03-.01.03-.02zl.01-.01.09.04-.02-.07-.07.06zl.01-.01z" class="I"/><path d="m18.88 5.7.09-.08.04.15z" class="H J"/><path d="m19.05 5.13-.16-.06c0 .06.1.1.1.2h-.23v-.08l-.09-.07.11-.12h.11l.11-.16c.12 0 .11.16.14.2l-.06.09.01-.13-.09-.12-.07.12H19h-.13v.08l.09.07h-.05v.08H19c0-.07-.09-.1-.1-.2l.19.06z" class="I"/><path d="m19.06 5.13-.17-.06c0 .08.12.12.1.23h-.19v-.11l-.11-.08.11-.11h.2v-.14c.09 0 .09.13.12.19l-.05.08" class="H J"/><path d="m18.88 4.59-.01.02-.12-.06.02.15v.03l-.18-.1h-.01l-.04-.17-.01-.02.13-.02-.11-.04h-.01v-.01l-.01-.04.08-.08.05-.06v-.02l.18.01h.02l.04.14.01.01-.06.03.12.09.02.02-.09.13-.01.02-.02-.01zl-.02-.01.07-.11-.13-.11-.03-.02.09-.03-.04-.09-.14-.01v-.02h.02l-.08.09-.05.05.01.03h-.02l.01-.02.18.07v.04l-.17.02.04.13.1.06-.01-.15v-.04l.18.1zl-.02-.01z" class="I"/><path d="m18.88 4.59-.15-.08v.19l-.15-.08v-.16h.19l-.19-.07c0-.1.12-.08.12-.17h.16v.12h-.07l.15.12-.08.12" class="H J"/><path d="M18.69 6v.02h-.08V5.9h.09l.01.1.01.02h-.03zh-.02l-.01-.06h-.02v.04h.05zh-.02z" class="I"/><g class="H"><path d="M18.69 6h-.06v-.08h.05z" class="J"/><path d="m18.66 5.99-.05-.04.03-.03z" class="M"/></g><path d="m18.56 6.39-.01.01-.07-.05-.02-.01.07-.1.01-.01.11.07.02.02-.1.08-.01.02-.01-.02zl-.01-.02.06-.05-.06-.04-.03.05.05.04zl-.01-.02z" class="I"/><g class="H"><path d="m18.56 6.39-.07-.06.06-.08.09.07z" class="J"/><path d="m18.53 6.36.02-.05.05.01z" class="M"/></g><path d="M18.44 5.56a.55.55 0 0 1-.19-.47 1.1 1.1 0 0 1-.34.38h-.31a.26.26 0 0 1-.26-.13l-.05-.07c-.06.1-.15.23-.27.23H17c.11-.12.26-.26.25-.43V5h.12c0 .15 0 .3.15.38l.17.07h.13a.63.63 0 0 0 .35-.52h-.18v-.18h.15v.06-.2h.25v.21s.14 0 .15.11l-.05.07h-.09v.42a.55.55 0 0 0 .2.2h-.17a.5.5 0 0 1-.05-.21v-.44h.07l.1-.12-.13-.08v-.19h-.18v.19-.08h-.11v.09h.18a.66.66 0 0 1-.38.56h-.14l-.2-.08c-.16-.11-.13-.28-.17-.4V5h-.08a.7.7 0 0 1-.26.46c.09 0 .18-.12.23-.21l.06.1a.24.24 0 0 0 .23.11h.34a1.15 1.15 0 0 0 .33-.37.52.52 0 0 0 .17.44z" class="I"/><path d="M18.44 5.56a.55.55 0 0 1-.18-.46 1.2 1.2 0 0 1-.33.38c-.22-.1-.44.06-.58-.15v-.07c0 .09-.15.22-.25.22.12-.14.28-.29.25-.5h.08c0 .13 0 .29.16.39a.31.31 0 0 0 .32 0 .63.63 0 0 0 .37-.54h-.18v-.08h.14v.07-.2h.23v.18s.13 0 .14.1l-.1.12h-.07a.7.7 0 0 0 0 .43.43.43 0 0 0 .2.2h-.16" class="H J"/><path d="M18.34 6.2a5 5 0 0 1-.53-.08 1.5 1.5 0 0 1 0-.29h.09l.51.1-.08.33.07-.28-.46-.09h-.08a1.3 1.3 0 0 0 0 .28 4 4 0 0 0 .52.08z" class="I"/><path d="M18.34 6.2a5 5 0 0 1-.52-.08 1.3 1.3 0 0 1 0-.28h.08l.48.1-.07.29" class="H J"/><path d="m18.53 4.24-.08-.1a.5.5 0 0 0 0-.22c-.06.08-.05.25-.18.27 0-.09-.15-.17-.15-.28v-.09h.15l.09-.14.17.12v.13h.09v.13c0 .12-.16.16-.19.26 0-.12.17-.16.19-.26v-.09h-.1l.05-.16-.13-.09-.08.11v.07-.08h-.1v.06c0 .08.11.17.15.27.09 0 .1-.15.15-.25a.6.6 0 0 1 0 .23l.08.11z" class="I"/><path d="m18.53 4.24-.08-.11a.5.5 0 0 0 0-.22c-.06.09-.06.25-.16.27s-.19-.18-.09-.35h.12l.05.08v-.13l.09-.13.16.11v.15h.12v.11c0 .1-.15.14-.19.25" class="H J"/><path d="M18.32 6.15a3 3 0 0 1-.46-.06l.1-.28a3 3 0 0 1 .42.11v.2c-.12-.17-.28-.19-.41-.23l-.08.24a3.4 3.4 0 0 0 .46.06z" class="K"/><path d="M18.32 6.15a3.4 3.4 0 0 1-.46-.06l.08-.24a4 4 0 0 1 .42.11v.19" class="H N"/><path d="m18 5.46.19-.25c.06.1.07.2.14.3L18 5.48l.31.07c-.07-.11-.08-.21-.13-.29l-.18.21z" class="I"/><path d="m18 5.46.18-.23a3 3 0 0 0 .13.3z" class="H J"/><path d="M18.38 4.5h-.15l.05-.24h.22v.09a.15.15 0 0 1-.14.16l.1-.12v-.07h-.18v.17h.13z" class="K"/><path d="M18.38 4.5h-.14v-.21h.2c0 .07 0 .22-.1.22" class="H L"/><path d="m18 4.31.16.08a.27.27 0 0 1-.23.19l-.06-.07v-.13h-.13v-.15l.12-.09.11.05v-.16h.21l.08.17-.11.13h-.09l.14-.09-.06-.13H18v.15h-.1l-.09.06v.1h.14v.23l.19-.17-.23-.12H18z" class="I"/><path d="M18 4.31h-.09l.23.12c0 .08-.12.19-.23.17l-.05-.06v-.15h-.16v-.14l.1-.08.11.06v-.17h.18c.1.06.12.33-.1.24" class="H J"/><path d="m17.63 6.19-.02.01-.02-.06v-.01l.02-.07.01-.01h.01l.09.09-.06.07h-.03l-.01-.01h-.01zl.01-.02h.02l.02-.03-.05-.05v-.02h.02l-.02.06.02.05zl.01-.02z" class="I"/><g class="H"><path d="M17.63 6.19v-.12c.1 0 .1.14 0 .12" class="J"/><path d="m17.62 6.16-.01-.05h.06z" class="M"/></g><path d="m17.65 5.81-.02.01-.02-.07v-.03l.15.03v.04l-.1.04-.03.01v-.02zl-.01-.02.04-.01-.02-.01.01.04zl-.01-.02z" class="I"/><g class="H"><path d="m17.65 5.81-.02-.06.12.02z" class="J"/><path d="m17.66 5.78-.01-.01h.06z" class="M"/></g><path d="M17.69 4.94V5h-.09.1l-.11.1c-.13 0-.17-.08-.24-.14 0-.11.15-.13.21-.16h-.13l.16-.18h.11v.11l-.09.08h.21L17.7 5l.09-.12h-.23l.1-.09v-.14h-.05l-.11.12h.1l-.21.23c.07.07.1.13.21.13l.06-.13-.11-.08h.1z" class="I"/><path d="M17.69 4.94h-.1l.12.1-.1.09c-.12 0-.16-.07-.23-.13s.14-.13.21-.15h-.14l.14-.15h.08v.09l-.08.07c.06 0 .16-.07.21 0l-.09.12" class="H J"/><path d="M17.42 6.07a.55.55 0 0 1-.33.09l-.19-.08v-.16a.7.7 0 0 1 .37-.13l.21.07V6h-.09l.07-.15-.19-.06a.73.73 0 0 0-.35.12v.13l.17.08a.53.53 0 0 0 .31-.08z" class="I"/><path d="M17.42 6.07a.6.6 0 0 1-.32.08l-.19-.08v-.15a.5.5 0 0 1 .56-.07V6h-.08" class="H J"/><path d="M17.29 6.07h-.19l-.1-.02v-.13a.6.6 0 0 1 .32-.1h.18v.08c0 .1-.17.14-.22.17l.19-.13v-.06h-.16a.54.54 0 0 0-.3.1V6l.11.05h.19z" class="K"/><path d="M17.29 6.07c-.1 0-.22.06-.31 0v-.15a.51.51 0 0 1 .48-.07c.11.12-.11.19-.17.22" class="H L"/><path d="m17.2 5.45-.01-.01.08-.11.01-.02.13.1.03.02-.23.04-.02-.03zv-.02l.14-.02-.05-.04-.07.09zv-.02z" class="I"/><path d="m17.2 5.45.09-.11.1.08z" class="H J"/><path d="m17.41 4.68-.02.02-.1-.04-.09-.09v-.04l.02.01h.02l-.08.19-.01.02h-.21l-.01-.18v-.02l.14-.03v-.01l.05.03-.07-.14v-.02l.13-.11.01-.01.13.04.01.01-.04.26-.02-.01v-.02h.01l.15-.13.08.04v.01h.01l.02.08-.13.16-.01.01-.01-.01zl-.01-.01.1-.13-.02-.06.02-.01-.02.01-.05-.03-.15.13h-.03l.04-.25-.09-.03-.1.09.08.18-.02.02-.09-.03-.1.02.01.12h.14l.08-.17.04.01-.01.03.07.05.12.05zl-.01-.01z" class="I"/><path d="M17.41 4.68c-.05-.06-.22 0-.19-.14l-.08.18H17v-.16h.21l-.09-.19.12-.11h.12v.24c.08 0 .11-.21.23-.09a.14.14 0 0 1-.09.21" class="H J"/><path d="m17.22 4.91-.02.02-.09-.1-.02-.01.18-.12.02-.02.09.14.01.02-.16.09-.02.01-.01-.01zl-.01-.02.13-.06-.06-.09-.12.08.07.08zl-.01-.02z" class="K"/><path d="m17.22 4.91-.1-.09.17-.11.07.12z" class="H N"/><path d="M17 5.18v-.11h-.15v-.13h.09l-.05-.13h.24L17 4.9h.17V5a.26.26 0 0 1-.17.2.23.23 0 0 0 .19-.2L17 4.93l.11-.14-.16-.05h-.05l.06.15V5h-.1v.07L17 5l.06.13z" class="I"/><path d="M17 5.18v-.12h-.16V5h.1l-.06-.15c.08-.11.16 0 .26 0l-.1.12.2.06a.25.25 0 0 1-.2.21" class="H J"/><path d="m16.75 6.29-.01.02-.06-.04-.02-.02.1-.08.01-.01.01.01.07.09-.06.06-.05-.01zv-.01h.04l.02-.02-.04-.05.01-.02.01.01-.06.05.03.03zv-.01z" class="I"/><g class="H"><path d="M16.75 6.29h-.06l.09-.07c.06 0 .08.15 0 .1" class="J"/><path d="m16.75 6.28-.05-.03.09-.02z" class="M"/></g><path d="m16.71 6.01-.01.02-.09-.08-.02-.03.12-.05.04-.01-.02.15-.01.05-.02-.03zh-.02l.01-.09-.04.02.06.06zh-.02z" class="I"/><g class="H"><path d="m16.71 6.01-.08-.08.09-.04z" class="J"/><path d="m16.7 5.95-.03-.03h.06z" class="M"/></g><path d="m16.41 5.53-.16-.19a.5.5 0 0 0 .22.25l-.3.1c0-.21-.12-.39-.12-.61V5h.14c0 .08.1.15.11.25l.06-.13h.14v.14l-.08.06h-.02c.06.09.2.09.34.13l-.23.06-.13-.08.1.06.23-.06c-.13 0-.29 0-.36-.15v-.07h.05v-.03.12c0-.08-.1-.15-.11-.26V5h-.1v.08c0 .21.12.38.12.61l.22-.08a.65.65 0 0 1-.24-.28l.16.19z" class="I"/><path d="m16.41 5.53-.16-.19a.5.5 0 0 0 .23.27l-.23.08c0-.25-.16-.44-.12-.69h.1c0 .1.09.18.1.28l.06-.14h.12v.12c0 .09-.22 0-.1.11s.22.1.35.14c-.12 0-.25.12-.35 0" class="H J"/><path d="M16.37 6.37c-.05 0-.22 0-.23-.13.06 0 .1-.16.2-.16h.22l-.2.26.15-.2h-.16l-.17.15.21.1z" class="K"/><path fill="#a3238e" d="M16.37 6.37c-.08 0-.27 0-.21-.14s.13-.23.27-.12h.12l-.18.22" class="H"/><path d="M16.64 4.76h-.11c0 .06.13 0 .15.15l-.05.09a2 2 0 0 0-.3-.07v-.1l.16-.08h-.14c.1 0 .06-.29.22-.3h.06v.19h.15v.09l-.13.13.09-.1V4.7h-.18v-.22c-.11 0-.08.22-.2.3h.22l-.2.1v.09a2 2 0 0 1 .31.07V5l.07-.09c0-.09-.07 0-.14-.12h.15z" class="I"/><path d="M16.64 4.76h-.11c.06.07.14 0 .15.14l-.07.1a1.1 1.1 0 0 0-.33-.06v-.1l.21-.11h-.21c.12-.07.07-.35.25-.29v.2h.17a.11.11 0 0 1-.08.18" class="H J"/><path d="m16.21 4.68-.01-.01.09-.13.03.02-.09.14-.03-.03.09-.13.03.02-.09.14-.03-.03z" class="I"/><path d="m16.21 4.68.1-.13z" class="H J"/><path d="m16.15 4.97-.02.01-.09-.08h-.01v-.16l.2.03.01.01.03.08-.11.13h-.02l-.01-.01zv-.02h.01l.07-.09-.02-.05.02-.02-.01.02-.15-.02v.09l.09.07zv-.02z" class="K"/><path fill="#00a651" d="m16.14 5-.09-.08v-.16h.18a.11.11 0 0 1-.09.18" class="H"/><path d="M16.16 4.24c0-.11 0-.07-.12-.17h-.2v.09l.16-.02v.1l.06.22.15.22c0-.15.25-.27.24-.36l-.1-.11h-.14.14l.12.15c0 .13-.23.25-.24.37-.11 0-.11-.18-.17-.24L16 4.27l.09-.1-.15.08-.06-.16h.26c.09.09.1.08.13.19z" class="I"/><path d="M16.16 4.24c0-.11 0-.08-.12-.17h-.23v.13l.19-.04c-.16 0 0 .2 0 .31s.06.2.16.23c0-.19.43-.34.13-.5h-.13" class="H J"/><path d="M16.15 4.43h-.02l.01-.18.04.01-.02.17h-.03l.01-.18.04.01-.02.17h-.03z" class="I"/><path d="m16.14 4.43.02-.18z" class="H J"/><path d="m20.69 4.91-.22.14v.1c0-.08 0-.18-.11-.18V5l-.1.14v.29l.15.06a3 3 0 0 0 .23-.36l.09-.21-.1.2a2.6 2.6 0 0 1-.22.37l-.17-.06V5.2a.18.18 0 0 1 .07-.2c.15 0 .12.16.14.2v-.1c0-.12.18-.13.24-.17z" class="I"/><path d="M20.69 4.91c-.07 0-.2.06-.23.15v.11c0-.06 0-.19-.12-.19s0 .29-.09.44l.15.06c.06-.13.17-.22.23-.37l.09-.2" class="H J"/><path d="m20.36 5.37-.02-.01.05-.15.04.02-.06.15-.03-.02zl-.02-.01.05-.15.04.02-.06.15-.03-.02z" class="I"/><path d="m20.36 5.37.05-.15z" class="H J"/><path d="m20.03 5.42-.02.01-.04-.16.04-.01.04.16-.04.01zl-.02.01-.04-.16.04-.01.04.16-.04.01z" class="I"/><path d="m20.03 5.42-.04-.16z" class="H J"/><defs><path id="B" d="m16.44 7.11-.1-.11.04-.02.09.13-.03.03-.1-.14.04-.02.09.1zm.39.39.11.12-.03.03-.11-.12"/><path id="C" d="M17.29 7.3v.08h-.04V7.3m.11-.09.14-.02v.04l-.13.02m-.31.06a1 1 0 0 0 .18 0 .7.7 0 0 1-.18 0"/><path id="D" d="M16.51 7.84a.22.22 0 0 0-.05.15.6.6 0 0 0 .18.37.63.63 0 0 1-.19-.4.26.26 0 0 1 .06-.18z"/><path id="E" d="M17.73 8c.1.09.12.19.22.23-.11 0-.14-.15-.23-.23zm-1.06-.15-.03.15.01.06-.04.01-.02-.07.04-.15z"/><path id="F" d="M18 7.58a2 2 0 0 1 .46.08 2 2 0 0 0-.46-.04zm-1 .34c.11.1.32.22.45.33-.12-.1-.33-.22-.44-.33z"/></defs></svg>