<svg xmlns="http://www.w3.org/2000/svg" viewBox="0 0 37.44 37.44"><g fill="#ed1c24"><path d="M35.83 18.72a18 18 0 1 0-18 18 18 18 0 0 0 18-18"/><path d="M18.72 2V.12a18.6 18.6 0 1 1-18.6 18.6A18.6 18.6 0 0 1 18.72.12v3.72A14.89 14.89 0 1 0 29.24 8.2a14.8 14.8 0 0 0-10.52-4.36Z"/><path fill-rule="evenodd" d="M18.72 2A16.74 16.74 0 1 1 2 18.72 16.75 16.75 0 0 1 18.72 2"/></g><g fill="#fff"><path d="M31.63 26.24a13.5 13.5 0 0 1-5.14 5.6 14.83 14.83 0 0 1-7.71 1.94A14.83 14.83 0 0 1 8 29.55a14.65 14.65 0 0 1-4.36-10.86A14.5 14.5 0 0 1 8.06 7.93 15.08 15.08 0 0 1 19 3.65a14.7 14.7 0 0 1 6.89 1.5 11.85 11.85 0 0 1 4.85 4.46l-1.87 1.19a10.15 10.15 0 0 0-3.64-3.93 9.33 9.33 0 0 0-5-1.32 9.2 9.2 0 0 0-7.57 3.57c-1.84 2.38-2.76 5.65-2.76 9.75s.87 7.06 2.67 9.26A8.9 8.9 0 0 0 20 31.44a10.24 10.24 0 0 0 5.67-1.59 11.7 11.7 0 0 0 4-4.72Z"/><path d="M14.78 29.75V7.69h10.98v1.65h-7.77v8.08h7.3v1.55h-7.3v10.78z"/><path d="M12.77 22A3.9 3.9 0 0 0 14 23.32a3.2 3.2 0 0 0 1.64.48 2.78 2.78 0 0 0 1.94-.68 2.28 2.28 0 0 0 .75-1.76c0-1.14-1.12-2.11-3.32-2.93a6.5 6.5 0 0 1-2.53-1.51 3 3 0 0 1-.75-2.11A3.68 3.68 0 0 1 13 11.9a4.82 4.82 0 0 1 3.32-1.12 5.65 5.65 0 0 1 2.68.62 3.8 3.8 0 0 1 1.7 1.78l-1 .6a3.27 3.27 0 0 0-1.1-1.47 3.1 3.1 0 0 0-1.75-.5 2.56 2.56 0 0 0-1.77.62 2.18 2.18 0 0 0-.69 1.66 1.84 1.84 0 0 0 .61 1.36 6.2 6.2 0 0 0 2.12 1.18 9 9 0 0 1 3.25 1.84 3.36 3.36 0 0 1 .78 2.25 3.72 3.72 0 0 1-1.39 3 5.2 5.2 0 0 1-3.51 1.18 5.7 5.7 0 0 1-2.64-.54 4.94 4.94 0 0 1-1.93-1.65z"/></g><path fill="#ed1c24" d="M12.77 22h.05a4 4 0 0 0 1.23 1.3 3.1 3.1 0 0 0 1.6.46 2.66 2.66 0 0 0 1.88-.66 2.2 2.2 0 0 0 .74-1.72c0-1.09-1.08-2.05-3.28-2.87h-.05v-.05.05a6.26 6.26 0 0 1-2.55-1.52 3.08 3.08 0 0 1-.76-2.14A3.75 3.75 0 0 1 13 11.87a4.9 4.9 0 0 1 3.36-1.13 5.6 5.6 0 0 1 2.71.63 3.94 3.94 0 0 1 1.72 1.8l-1.08.67v-.07a3.06 3.06 0 0 0-1.07-1.44 3 3 0 0 0-1.71-.48 2.5 2.5 0 0 0-1.72.6h-.05.05a2.07 2.07 0 0 0-.66 1.61 1.78 1.78 0 0 0 .45 1.37 6.1 6.1 0 0 0 2.09 1.16 9 9 0 0 1 3.26 1.85 3.37 3.37 0 0 1 .79 2.29 3.8 3.8 0 0 1-1.4 3l-.05-.05.05.05a5.28 5.28 0 0 1-3.5 1.27 5.8 5.8 0 0 1-2.66-.55v.05a5.15 5.15 0 0 1-1.95-1.67l1.2-.77v.06h-.05l-1.09.7h.05a5.1 5.1 0 0 0 1.91 1.63 5.74 5.74 0 0 0 2.6.53 5.08 5.08 0 0 0 3.45-1.17 3.64 3.64 0 0 0 1.37-2.94 3.32 3.32 0 0 0-.76-2.22h.05a9.2 9.2 0 0 0-3.27-1.82A6.1 6.1 0 0 1 15 15.5a1.85 1.85 0 0 1-.59-1.4 2.22 2.22 0 0 1 .7-1.69 2.67 2.67 0 0 1 1.81-.64 3.1 3.1 0 0 1 1.79.51 3.2 3.2 0 0 1 1.11 1.49h-.06l1-.6h-.06a3.77 3.77 0 0 0-1.7-1.7 5.45 5.45 0 0 0-2.64-.62A4.82 4.82 0 0 0 13 12a3.64 3.64 0 0 0-1.28 2.85 3 3 0 0 0 .74 2.07A6.2 6.2 0 0 0 15 18.36v-.05c2.2.83 3.35 1.81 3.35 3a2.33 2.33 0 0 1-.77 1.8 2.83 2.83 0 0 1-2 .69 3.3 3.3 0 0 1-1.58-.43A4.1 4.1 0 0 1 12.71 22z"/><path fill="#fff" d="M22.61 24.9V10.78h2l6.07 9.75v-9.75h1.04V24.9h-1.04l-7.03-11.25V24.9z"/><path fill="#ed1c24" d="M22.62 24.9h-.05V10.79h2.07l6.03 9.59v-9.59h1.14v14.16h-1.12l-6.98-11.07v11.07h-1.14v-.05zv-.06h.99V13.71l.09-.03 7.04 11.16h.98V10.91h-.96v9.64l-.08.04-6.09-9.68h-1.93V24.9zv-.06z"/></svg>