<svg xmlns="http://www.w3.org/2000/svg" xmlns:xlink="http://www.w3.org/1999/xlink" width="56.719" height="56.719" fill-rule="evenodd" viewBox="0 0 1500.723 1500.723"><circle cx="5986.781" cy="-1655.27" r="750.362" fill="#fff" transform="rotate(60 1285.196 -4987.337)"/><path fill="#ffed00" stroke="#ef7f1a" stroke-width="42.6888" d="m751.664 140.148 597.74 225.06q0 353.925-141.57 646.14c-95.59 196.02-246.84 347.27-456.17 453.75-198.44-106.48-348.48-256.52-451.33-448.91s-152.46-411.4-148.83-655.82z"/><path fill="#fecc00" d="m371.724 1094.838 542.08-871.2 199.65 75.02-600.16 968c-58.08-56.87-94.38-102.85-141.57-171.82m157.3 186.34 603.79-974.05 41.14 14.52-612.26 987.36c-15.73-12.1-22.99-19.36-32.67-27.83"/><g fill="#2b2a29" fill-rule="nonzero" transform="translate(-4606.216 -4468.742)scale(1.21)"><use xlink:href="#a"/><use xlink:href="#b"/><use xlink:href="#c"/></g><g fill="none" stroke="#2b2a29" stroke-width="7.62" transform="translate(-4606.216 -4468.742)scale(1.21)"><use xlink:href="#a"/><use xlink:href="#b"/><use xlink:href="#c"/></g><defs><path id="a" d="M4151 4197h104c-6-21-14-43-22-65l-29-68c-10 22-20 43-28 65-9 23-17 45-25 68m-7 25c-6 18-11 32-14 45-3 12-4 21-4 27 0 2 1 5 2 7s3 4 5 6c2 0 3 2 6 3 5 3 7 6 7 11 0 3-1 5-4 7-3 1-7 2-13 2h-34c-7 0-12-1-14-2-3-2-4-4-4-8 0-2 1-5 5-7l6-6q3-4.5 18-54c11-33 21-64 32-92 16-46 31-82 43-108 13-26 21-39 26-39q9 0 33 48c15 32 32 74 50 126q10.5 30 21 69c10.5 39 12 40 14 44 1 2 4 5 8 9 5 4 8 8 8 12 0 3-2 5-5 6s-9 2-17 2h-36c-6 0-11-1-14-2-2-2-4-4-4-8 0-5 4-10 11-14 2-1 4-2 5-3l3-3c0-2 1-4 1-7q0-6-6-24c-3-12-8-27-15-47z"/><path id="b" d="M4397 4330c-5 0-9-1-11-2-2-2-3-4-3-7 0-4 3-8 10-11 3-1 6-3 8-4s4-4 5-7c1-4 1-10 1-19v-215q0-15-3-18c-2-3-7-4-14-4-8 0-17 1-24 3-8 3-15 6-22 11-3 2-8 7-14 13-5 6-10 9-14 9-2 0-4-1-4-2-1-1-2-4-2-7 0-10 1-19 2-28 2-9 3-14 5-16 1-2 3-3 6-4s7-1 14-1h187l6 3c2 2 5 7 6 16q3 12 3 30c0 3 0 6-1 7s-2 2-4 2c-5 0-10-3-16-10-2-3-5-5-7-7-7-6-15-11-24-14-8-4-18-5-28-5-7 0-11 1-14 4q-3 3-3 18v215c0 8 0 13 1 16 0 3 1 6 3 8 1 2 5 4 11 7 6 2 9 6 9 10 0 3-1 5-3 7-2 1-6 2-11 2z"/><path id="c" d="M4574 4330c-7 0-11-1-13-2-3-2-4-4-4-8 0-3 3-7 10-11 2-2 5-3 6-4 2-2 4-4 5-8 1-3 2-9 2-16v-212c0-6-1-11-1-14-1-2-2-5-3-7-2-2-5-4-11-7-5-4-8-7-8-11 0-3 1-6 4-7 2-2 6-2 13-2h167c12 0 20 2 22 7 3 4 5 17 5 38 0 3-1 5-2 6-1 2-2 3-4 3s-6-3-11-8c-4-5-9-9-13-12-5-4-14-7-25-9-11-1-27-2-47-2-14 0-24 0-31 1-6 1-11 3-14 5s-4 4-5 8c-1 3-2 11-2 23v68h93c4-1 7-2 8-3 2-1 4-2 6-4 5-4 8-6 11-6 2 0 4 1 5 3s2 5 2 10v24c0 5-1 9-2 11s-3 3-5 3c-3 0-6-2-11-6-2-2-4-3-6-4-1-1-4-2-8-3-4 0-9-1-16-1h-77v93q0 27 6 33 4.5 6 24 6h42c14 0 25-1 35-3 10-1 18-4 25-9 5-2 10-7 15-13q9-9 12-9c3 0 5 0 6 2 1 1 2 4 2 7q0 13.5-3 27c-2 8-3 14-4 16-2 2-6 4-10 5s-12 2-22 2z"/></defs></svg>