<svg xmlns="http://www.w3.org/2000/svg" xmlns:xlink="http://www.w3.org/1999/xlink" width="56.719" height="56.719" fill-rule="evenodd" viewBox="0 0 1500.723 1500.723"><circle cx="5059.748" cy="-49.613" r="750.362" fill="#fff" transform="rotate(60 2212.23 -3381.679)"/><path fill="#d9dada" stroke="#727271" stroke-width="42.6888" d="m750.523 140.14 598.95 225.06c0 235.95-47.19 451.33-142.78 646.14-94.38 196.02-246.84 347.27-456.17 453.75-197.23-106.48-348.48-256.52-451.33-448.91s-152.46-411.4-147.62-655.82z"/><path fill="#b2b3b3" d="m371.793 1094.83 542.08-871.2 198.44 75.02-598.95 968c-58.08-56.87-95.59-102.85-141.57-171.82m157.3 186.34 603.79-974.05 41.14 14.52L560.553 1309c-14.52-12.1-21.78-19.36-31.46-27.83"/><g fill="#2b2a29" fill-rule="nonzero" transform="translate(-2362.807 -4468.75)scale(1.21)"><use xlink:href="#a"/><use xlink:href="#b"/></g><g fill="none" stroke="#2b2a29" stroke-width="7.62" transform="translate(-2362.807 -4468.75)scale(1.21)"><use xlink:href="#a"/><use xlink:href="#b"/></g><defs><path id="a" d="M2336 4330c-6 0-10-1-13-2-2-2-3-4-3-8 0-3 3-7 9-11 3-2 5-3 7-4 2-2 4-4 5-8 1-3 1-9 1-16v-212c0-6 0-11-1-14 0-2-1-5-3-7-1-2-4-4-10-7-6-4-8-7-8-11 0-3 1-6 3-7 3-2 7-2 13-2h113c30 0 52 5 66 17 15 11 22 29 22 52 0 15-6 29-16 41-12 13-27 23-46 31 25 3 44 12 59 27 15 16 22 34 22 57 0 13-3 26-8 38-6 12-14 21-24 29-8 6-17 10-28 13-10 2-28 4-52 4zm41-137v78c0 15 2 25 7 29 4 4 18 7 41 7 31 0 54-6 70-16 15-10 23-26 23-47 0-17-6-32-19-44q-18-18-51-24c-18 5-33 8-44 11q-18 4.5-27 6m0-24c41-7 72-17 92-31q30-19.5 30-48c0-17-5-28-17-36-12-7-30-11-56-11-23 0-37 2-42 5-4 4-7 14-7 32z"/><path id="b" d="M2599 4256v-181c0-8-1-13-1-16-1-4-1-6-3-8-1-3-5-5-10-7-1-1-2-1-3-1-1-1-2-1-4-2-7-3-11-6-11-11 0-3 1-6 3-7 2-2 7-2 15-2h41c3 0 5 1 6 1q4.5 3 15 15c7 7 19 24 37 48 20 26 38 53 57 80l53 84v-171c0-13-1-20-1-24-1-4-1-7-2-8-2-2-5-4-10-6h-1c-1-1-3-1-4-2-6-2-8-5-8-9 0-3 1-5 3-7 2-1 6-1 12-1h38c9 0 14 0 17 1 3 2 4 4 4 7 0 4-3 8-8 10-5 3-9 5-10 7-2 2-4 5-5 8 0 3-1 9-1 18v238c0 11 0 18-1 20s-4 3-7 3c-4 0-12-9-22-28-4-7-8-13-10-18-24-40-48-79-74-116s-52-73-80-106v204c0 6 0 11 1 16s1 9 3 13c0 2 1 4 3 5 1 2 4 3 8 5 2 1 4 2 8 3 7 2 10 5 10 10 0 3-1 5-4 7-2 1-7 2-14 2h-53c-6 0-10-1-13-2q-3-1.5-3-6v-5l3-3c1-1 4-2 9-5 5-2 8-4 10-7 3-3 4-8 5-15 1-6 2-17 2-31"/></defs></svg>