<svg xmlns="http://www.w3.org/2000/svg" xmlns:xlink="http://www.w3.org/1999/xlink" width="56.719" height="56.719" fill-rule="evenodd" viewBox="0 0 1500.7 1500.7"><circle cx="8617.3" cy="-6211.4" r="750.36" fill="#fff" transform="rotate(60 -1345.246 -9543.476)"/><path fill="#ecf0c6" stroke="#dbe285" stroke-width="42.6888" d="m750.48 140.19 598.95 225.06c0 235.95-47.19 451.33-142.78 646.14-94.38 196.02-246.84 347.27-456.17 453.75-197.23-106.48-348.48-256.52-451.33-448.91s-152.46-411.4-147.62-655.82z"/><path fill="#dbe285" d="m371.75 1094.88 540.87-871.2 199.65 75.02-598.95 968c-58.08-56.87-95.59-102.85-141.57-171.82m157.3 186.34 603.79-974.05 41.14 14.52-613.47 987.36c-14.52-12.1-21.78-19.36-31.46-27.83"/><g fill="#2b2a29" fill-rule="nonzero" transform="translate(-10972 -4468.7)scale(1.21)"><use xlink:href="#a" width="100%" height="100%"/><use xlink:href="#b" width="100%" height="100%"/><use xlink:href="#c" width="100%" height="100%"/></g><g fill="none" stroke="#2b2a29" stroke-width="7.62" transform="translate(-10972 -4468.7)scale(1.21)"><use xlink:href="#a" width="100%" height="100%"/><use xlink:href="#b" width="100%" height="100%"/><use xlink:href="#c" width="100%" height="100%"/></g><defs><path id="a" d="M9355 4330c-7 0-11-1-13-2-3-2-4-4-4-8 0-3 3-7 10-11 3-2 5-3 6-4 3-2 4-4 5-8 1-3 2-9 2-16v-212c0-6 0-11-1-14-1-2-2-5-3-7s-5-4-10-7c-6-4-9-7-9-11 0-3 1-6 4-7 2-2 6-2 13-2h113c29 0 51 5 66 17 14 11 21 29 21 52 0 15-5 29-16 41-11 13-26 23-46 31q37.5 4.5 60 27c14 16 22 34 22 57 0 13-3 26-9 38-5 12-13 21-23 29-9 6-18 10-28 13-11 2-28 4-53 4zm41-137v78c0 15 2 25 6 29 5 4 19 7 41 7 31 0 55-6 70-16 16-10 23-26 23-47 0-17-6-32-18-44s-30-20-52-24c-17 5-32 8-44 11-11 3-20 5-26 6m0-24c41-7 72-17 92-31q30-19.5 30-48c0-17-6-28-18-36-11-7-30-11-56-11-22 0-36 2-41 5-5 4-7 14-7 32z"/><path id="b" d="M9673 4330c-5 0-9-1-11-2-2-2-3-4-3-7 0-4 3-8 10-11 3-1 6-3 8-4s4-4 5-7c1-4 1-10 1-19v-215q0-15-3-18c-3-3-7-4-14-4-8 0-17 1-24 3-8 3-15 6-22 11-3 2-8 7-14 13-5 6-10 9-14 9-2 0-4-1-5-2 0-1-1-4-1-7 0-10 1-19 2-28 2-9 3-14 5-16 1-2 3-3 6-4s7-1 14-1h186c3 1 5 2 7 3 2 2 5 7 6 16q3 12 3 30c0 3-1 6-1 7-1 1-2 2-5 2-4 0-9-3-15-10l-7-7c-8-6-16-11-24-14-9-4-18-5-28-5-7 0-12 1-14 4q-3 3-3 18v215c0 8 0 13 1 16 0 3 1 6 3 8 1 2 5 4 11 7 6 2 9 6 9 10 0 3-1 5-3 7-2 1-6 2-11 2z"/><path id="c" d="M9849 4330c-6 0-10-1-13-2-2-2-3-4-3-8 0-3 3-7 10-11 2-2 4-3 6-4 2-2 4-4 5-8 1-3 2-9 2-16v-212c0-6-1-11-1-14-1-2-2-5-3-7-2-2-5-4-11-7-5-4-8-7-8-11 0-3 1-6 3-7 3-2 7-2 13-2h168c12 0 20 2 22 7 3 4 4 17 4 38 0 3 0 5-1 6-1 2-2 3-4 3-3 0-6-3-11-8s-9-9-13-12c-5-4-14-7-25-9-11-1-27-2-47-2-14 0-24 0-31 1-6 1-11 3-14 5s-5 4-6 8c-1 3-1 11-1 23v68h93c4-1 6-2 8-3s4-2 6-4c5-4 8-6 10-6q4.5 0 6 3c1.5 3 2 5 2 10v24c0 5-1 9-2 11s-3 3-6 3c-2 0-5-2-10-6-2-2-4-3-6-4-1-1-4-2-8-3-4 0-9-1-16-1h-77v93c0 18 2 29 5 33 4 4 12 6 25 6h42c14 0 25-1 35-3 10-1 18-4 25-9 5-2 10-7 15-13s9-9 12-9 5 0 6 2c1 1 1 4 1 7 0 9 0 18-2 27-2 8-3 14-5 16s-5 4-9 5-12 2-22 2z"/></defs></svg>