<svg xmlns="http://www.w3.org/2000/svg" xmlns:xlink="http://www.w3.org/1999/xlink" width="56.719" height="56.719" fill-rule="evenodd" viewBox="0 0 1500.723 1500.723"><circle cx="12179.324" cy="-12380.904" r="750.362" fill="#fff" transform="rotate(60 -4907.27 -15713.018)"/><path fill="#a2d9f7" stroke="#008dd2" stroke-width="42.6888" d="m750.523 140.14 598.95 225.06c0 235.95-47.19 451.33-142.78 646.14-94.38 196.02-246.84 347.27-456.17 453.75-197.23-106.48-348.48-256.52-451.33-448.91s-152.46-411.4-147.62-655.82z"/><path fill="#1aa6df" d="m371.793 1094.83 542.08-871.2 198.44 75.02-598.95 968c-58.08-56.87-95.59-102.85-141.57-171.82m157.3 186.34 603.79-974.05 41.14 14.52L560.553 1309c-14.52-12.1-21.78-19.36-31.46-27.83"/><g fill="#2b2a29" fill-rule="nonzero" transform="translate(-19591.997 -4468.75)scale(1.21)"><use xlink:href="#a"/><use xlink:href="#b"/><use xlink:href="#c"/></g><g fill="none" stroke="#2b2a29" stroke-width="7.62" transform="translate(-19591.997 -4468.75)scale(1.21)"><use xlink:href="#a"/><use xlink:href="#b"/><use xlink:href="#c"/></g><defs><path id="a" d="M16512 4281c0 6 1 11 1 14 1 3 2 5 3 7s5 4 11 8c5 3 8 6 8 10s-1 6-3 8c-3 1-7 2-13 2h-47c-7 0-11-1-13-2-3-2-4-4-4-8 0-3 3-7 10-11 3-2 5-3 6-4 3-2 4-4 5-8 1-3 2-9 2-16v-212c0-6 0-11-1-14-1-2-2-5-3-7s-5-4-10-7c-6-4-9-7-9-11 0-3 1-6 4-7 2-2 6-2 13-2h47c6 0 10 0 13 2 2 1 3 4 3 7 0 4-3 8-9 11-3 2-6 3-7 4-3 2-4 5-5 8s-2 9-2 16v116c33-34 60-62 79-86 20-24 29-39 29-45 0-3 0-4-1-6s-3-4-6-6c-1-1-2-1-4-2-5-3-7-7-7-11 0-3 2-5 4-7 3-1 8-1 15-1h43c8 0 12 0 15 2 3 1 4 4 4 7 0 4-3 7-10 11-7 5-13 9-17 15l-3 3c-32 41-56 70-71 85q22.5 22.5 45 57c14 23 29 50 43 80 1 2 2 4 3 7q6 13.5 9 15c3 1.5 3 2 6 4 6 3 9 7 9 11s-2 7-5 9-7 3-14 3h-37c-8 0-14-1-16-2-3-2-5-5-5-9 0-1 1-3 2-5 1-1 3-3 6-5 1-1 2-1 3-2 3-2 5-4 5-8 0-10-7-29-22-54-14-25-33-50-55-75-7 7-14 15-22 23s-16 16-25 24z"/><path id="b" d="M16757 4281c0 6 0 11 1 14 0 3 1 5 3 7 1 2 5 4 11 7 7 3 10 7 10 11s-1 6-4 8c-2 1-6 2-13 2h-51c-6 0-11-1-13-2-3-2-4-4-4-8s3-8 11-12c3-1 6-3 8-4s4-3 5-7 1-9 1-16v-212c0-6 0-11-1-14 0-2-1-5-3-7-1-2-4-4-10-7-6-4-8-7-8-11 0-3 1-6 3-7 3-2 7-2 13-2h156c14 0 24 2 28 8 3 6 5 17 5 34 0 4 0 7-2 9-1 1-2 2-5 2s-6-3-11-8c-5-6-10-10-14-12q-10.5-6-33-9c-14-2-31-3-50-3-14 0-23 2-27 7q-6 6-6 27v83h70c5-1 10-1 14-2s9-2 15-5c5-3 9-4 12-4s6 1 7 3c1 1 2 5 2 11v20c0 5-1 9-2 11-2 2-4 3-7 3-2 0-6-2-12-5s-11-5-15-6-9-2-15-3h-69z"/><path id="c" d="M16941 4256v-197c-1-4-2-6-3-8-2-3-5-5-11-7-1-1-2-1-2-1-1-1-3-1-5-2-7-3-10-6-10-11 0-3 1-6 3-7 2-2 7-2 14-2h42c2 0 4 1 6 1q4.5 3 15 15c7 7 19 24 37 48 19 26 38 53 56 80l53 84v-171c0-13 0-20-1-24 0-4-1-7-2-8q-1.5-3-9-6h-2c-1-1-2-1-4-2-5-2-8-5-8-9 0-3 1-5 3-7 3-1 7-1 12-1h39c8 0 14 0 17 1 2 2 4 4 4 7 0 4-3 8-8 10-6 3-9 5-11 7s-3 5-4 8-1 9-1 18v238c0 11-1 18-2 20s-3 3-6 3c-5 0-12-9-23-28l-10-18c-23-40-48-79-73-116-26-37-53-73-80-106v204c0 6 0 11 1 16 0 5 1 9 2 13 1 2 2 4 3 5 2 2 5 3 8 5 2 1 5 2 8 3 7 2 11 5 11 10 0 3-1 5-4 7-3 1-7 2-14 2h-54c-5 0-9-1-12-2s-4-3-4-6c0-2 0-4 1-5s1-2 2-3c2-1 5-2 10-5 5-2 8-4 10-7s4-8 5-15c1-6 1-17 1-31"/></defs></svg>