<svg xmlns="http://www.w3.org/2000/svg" xmlns:xlink="http://www.w3.org/1999/xlink" width="56.719" height="56.719" fill-rule="evenodd" viewBox="0 0 1500.724 1500.724"><circle r="671" fill="#cc6f3c" transform="rotate(60 -274.656 1025.018)scale(1.11827)"/><g fill="#2b2a29" fill-rule="nonzero"><use xlink:href="#a"/><use xlink:href="#b"/></g><g fill="none" stroke="#2b2a29" stroke-width="7.62"><use xlink:href="#a"/><use xlink:href="#b"/></g><defs><path id="a" d="m451.362 547.082-2 1c5 6 8 11 9 18q3 9 3 30v294q0 22.5-3 36c-3 13.5-5 16-9 20l2 1c9-5 16-11 20-19 3-9 5-23 5-44v-278c0-20-2-33-5-40-4-7-10-13-20-19m116 271-12 7 68 101c9 13 15 22 20 28 5 5 8 8 10 8s4 0 7-1q3-1.5 3-3l-14-20c-10-13-19-26-28-38zm49-109v2c3 1 6 3 8 6s3 7 3 11c0 3-1 6-3 10-2 3-5 8-9 13l3 1c7-5 13-10 17-16 4-5 6-10 6-14s-2-8-6-10-10-3-19-3m-99-103v216l83-71c6-6 10-10 13-14 2-3 4-6 4-9q0-9-15-12-15-1.5-15-12c0-3 0-5 2-7 2-1 5-1 10-1 3 0 10 0 22 1 11 1 21 1 29 1 9 0 19 0 32-1s21-1 25-1c5 0 9 0 11 2 2 1 3 4 3 7 0 5-6 9-20 13-14 3-27 9-39 16-15 8-30 18-44 31s-21 21-21 25c0 5 9 21 27 50 18 28 38 54 60 79 13 15 27 25 41 30s21 9 21 13-2 8-4 10q-4.5 3-12 3c-4 0-12-1-22-2-11-1-19-2-25-2-3 0-8 1-15 2s-12 2-16 2c-10 0-29-22-59-67l-38-59c-3-5-6-9-8-12-3-2-4-3-6-3h-3l-3 3-18 15v39c0 16 1 27 4 34 2 7 5 12 11 16 4 4 11 7 20 10 8 2 12 6 12 13 0 3-1 6-3 8s-6 3-11 3c-2 0-9-1-23-2-13-1-25-2-36-2q-30 0-60 3c-3 1-6 1-7 1-3 0-6-1-8-3s-3-4-3-7 6-9 17-17c12-9 18-22 18-40v-317c0-16-1-27-2-32-2-5-5-9-9-11-3-2-9-4-17-4-8-1-12-4-12-10s6-11 19-14c12-3 22-6 31-10 11-4 23-9 35-14s18-8 19-8c3 0 5 1 7 3 2 3 2 5 2 9v17c-3 32-4 62-4 89"/><path id="b" d="m808.362 547.082-2 1c5 6 8 11 9 18q3 9 3 30v294q0 22.5-3 36c-3 13.5-5 16-9 20l2 1c9-5 16-11 20-19 3-9 5-23 5-44v-278c0-20-2-33-5-40-4-7-10-13-20-19m116 271-12 7 68 101c9 13 15 22 20 28 5 5 8 8 10 8s4 0 7-1q3-1.5 3-3l-14-20c-10-13-19-26-28-38zm49-109v2c3 1 6 3 8 6s3 7 3 11c0 3-1 6-3 10-2 3-5 8-9 13l3 1c7-5 13-10 17-16 4-5 6-10 6-14s-2-8-6-10-10-3-19-3m-99-103v216l83-71c6-6 10-10 13-14 2-3 4-6 4-9q0-9-15-12-15-1.5-15-12c0-3 0-5 2-7 2-1 5-1 10-1 3 0 10 0 22 1 11 1 21 1 29 1 9 0 19 0 32-1s21-1 25-1c5 0 9 0 11 2 2 1 3 4 3 7 0 5-6 9-20 13-14 3-27 9-39 16-15 8-30 18-44 31s-21 21-21 25c0 5 9 21 27 50 18 28 38 54 60 79 13 15 27 25 41 30s21 9 21 13-2 8-4 10q-4.5 3-12 3c-4 0-12-1-22-2-11-1-19-2-25-2-3 0-8 1-15 2s-12 2-16 2c-10 0-29-22-59-67l-38-59c-3-5-6-9-8-12-3-2-4-3-6-3h-3l-3 3-18 15v39c0 16 1 27 3 34 3 7 6 12 12 16 4 4 11 7 20 10 8 2 12 6 12 13 0 3-1 6-3 8s-6 3-11 3c-2 0-9-1-23-2-13-1-25-2-36-2q-30 0-60 3c-3 1-6 1-7 1-3 0-6-1-8-3s-3-4-3-7 6-9 17-17c12-9 18-22 18-40v-317c0-16-1-27-3-32-1-5-4-9-8-11-3-2-9-4-17-4-8-1-12-4-12-10s6-11 19-14c12-3 22-6 31-10 11-4 23-9 35-14s18-8 19-8c3 0 5 1 7 3 1 3 2 5 2 9v17c-3 32-4 62-4 89"/></defs></svg>