<svg xmlns="http://www.w3.org/2000/svg" id="art" viewBox="0 0 34.02 34.02"><defs><clipPath id="clip-path"><circle cx="17.01" cy="17.01" r="16.67" style="fill:none"/></clipPath><style>.cls-4{fill:#fff}</style></defs><g style="clip-path:url(#clip-path)"><path d="M37.84 17A20.84 20.84 0 1 1 17-3.83 20.83 20.83 0 0 1 37.84 17" style="fill:#2ab24b"/></g><path d="M12.82 9.61 16 23.26a2.26 2.26 0 0 0 .49 1v.13h-3.35v-.15a1.23 1.23 0 0 0 .21-1.05l-.53-2.07h-2.08l-.59 2.18a1.11 1.11 0 0 0 .17.94v.15h-3.1v-.09a2.1 2.1 0 0 0 .4-.75l3.27-12.85a1 1 0 0 0-.32-.95v-.14Zm-1.68 9.54h1.32L11.82 16ZM23.91 24.41l-2.29-7.29-1 1.59v4.42a2.3 2.3 0 0 0 .38 1.13v.15h-3.22v-.15a2.3 2.3 0 0 0 .36-1.13V11a2.4 2.4 0 0 0-.36-1.13v-.12H21v.15a2.23 2.23 0 0 0-.36 1.1v3.62l2.27-3.83A.87.87 0 0 0 23 9.9v-.15h3.33v.11a5.4 5.4 0 0 0-.76 1l-2.29 3.64 3 9a2.4 2.4 0 0 0 .56.81v.11Z" class="cls-4"/></svg>