<svg xmlns="http://www.w3.org/2000/svg" id="art" viewBox="0 0 34.02 34.02"><defs><clipPath id="clip-path"><circle cx="17.01" cy="17.01" r="16.67" class="cls-1"/></clipPath><clipPath id="clip-path-2"><circle cx="17.01" cy="58.04" r="16.67" class="cls-1"/></clipPath><style>.cls-1{fill:none}.cls-5{fill:#fff}</style></defs><g style="clip-path:url(#clip-path)"><path d="M37.84 17A20.84 20.84 0 1 1 17-3.83 20.83 20.83 0 0 1 37.84 17" style="fill:#ec2785"/></g><g style="clip-path:url(#clip-path-2)"><path d="M12.69 11.26v.1a2.3 2.3 0 0 0-.19.41.9.9 0 0 0-.06.31v8.65a1.3 1.3 0 0 0 .25.72v.1h-2.25v-.1a1.8 1.8 0 0 0 .26-.8v-3.88H8.89v3.88A1 1 0 0 0 9 21a4 4 0 0 0 .2.44v.1H6.82v-.1a1.7 1.7 0 0 0 .27-.8v-8.48a1.7 1.7 0 0 0-.27-.8v-.1h2.34v.1a1.7 1.7 0 0 0-.27.8v3h1.81v-3a1.8 1.8 0 0 0-.26-.8v-.1ZM20.06 11.26v.1a1.75 1.75 0 0 0-.23.8v9.39h-.6L16 15.29v5.36a1.36 1.36 0 0 0 .27.78v.12H14v-.12a1.6 1.6 0 0 0 .27-.78v-8.49a1.1 1.1 0 0 0-.06-.38 4 4 0 0 0-.19-.42v-.1h1.89l2.19 4.47v-3.57a1.32 1.32 0 0 0-.26-.8v-.1ZM27.2 11.26v.1a2.3 2.3 0 0 0-.19.41.9.9 0 0 0-.06.31v8.65a1.3 1.3 0 0 0 .25.72v.1H25v-.1a1.8 1.8 0 0 0 .26-.8v-3.88H23.4v3.88a1 1 0 0 0 .07.36 4 4 0 0 0 .2.44v.1h-2.34v-.1a1.7 1.7 0 0 0 .27-.8v-8.49a1.7 1.7 0 0 0-.27-.8v-.1h2.34v.1a1.7 1.7 0 0 0-.27.8v3h1.81v-3a1.8 1.8 0 0 0-.26-.8v-.1Z" class="cls-5"/></g><path d="M7.82 9.68c1.76 0 2.78 1.51 2.78 3.77a4.22 4.22 0 0 1-1 2.76 4.17 4.17 0 0 1 1.76 3.73c0 2.64-1.4 4.4-3.5 4.4H4.6v-.15a2.6 2.6 0 0 0 .31-1.13V11a2.6 2.6 0 0 0-.31-1.17v-.15Zm.91 3.77c0-1-.39-1.63-.92-1.63H7v3.7a1.85 1.85 0 0 0 1.73-2.07M9.12 20c0-1.49-.41-2.47-1.23-2.47H7v4.88h.8c.79-.02 1.32-.98 1.32-2.41M18.82 23.94a3.87 3.87 0 0 1-2.12.54c-2.7 0-4.5-2.87-4.5-7.14 0-4.69 1.8-7.81 4.54-7.81a3.6 3.6 0 0 1 2 .46l.11 3.19h-.07c-.18-.25-1.09-1.45-2-1.45-1.36 0-2.26 2.16-2.26 5.59 0 2.83.9 4.71 2.22 4.71a3.78 3.78 0 0 0 2.19-1H19ZM29.54 11v12.1a2.46 2.46 0 0 0 .29 1.13v.15h-2.56v-.15a2.6 2.6 0 0 0 .28-1.13v-8.62l-2.26 5.29h-.19l-2.28-5.29v8.68a1.86 1.86 0 0 0 .34 1v.15h-2.69v-.15a2.14 2.14 0 0 0 .37-1.13V10.81a2 2 0 0 0-.33-1v-.13h2.56l2.13 5.23 2-5.23h2.68v.15a1.85 1.85 0 0 0-.34 1.17" class="cls-5"/></svg>