<svg xmlns="http://www.w3.org/2000/svg" id="art" viewBox="0 0 34.02 34.02"><defs><clipPath id="clip-path"><circle cx="17.01" cy="17.01" r="16.67" style="fill:none"/></clipPath><style>.cls-4{fill:#fff}</style></defs><g style="clip-path:url(#clip-path)"><path d="M37.84 17A20.84 20.84 0 1 1 17-3.83 20.83 20.83 0 0 1 37.84 17" style="fill:#cf6d28"/></g><path d="M12 9.68c2.1 0 3.31 1.51 3.31 3.77a3.84 3.84 0 0 1-1.25 2.76 4 4 0 0 1 2.1 3.73 4.06 4.06 0 0 1-4.16 4.4H8.18v-.15a2.2 2.2 0 0 0 .36-1.13V11a2.24 2.24 0 0 0-.36-1.13v-.19Zm1.09 3.77c0-1-.47-1.63-1.11-1.63h-.95v3.7a2 2 0 0 0 2.08-2.07Zm.48 6.55c0-1.49-.49-2.47-1.46-2.47h-1.06v4.88H12c.94-.02 1.57-.98 1.57-2.41M23 24.34l-1.89-6.12h-.72v4.84a2.36 2.36 0 0 0 .34 1.13v.15h-3.2v-.15a2.4 2.4 0 0 0 .36-1.13V11a2.34 2.34 0 0 0-.36-1.13v-.19h4.11c2.29 0 3.82 1.65 3.82 4.1A4.66 4.66 0 0 1 23.24 18l2 5.15a3.9 3.9 0 0 0 .63 1.07v.15ZM22.86 14a1.8 1.8 0 0 0-2-2h-.43v4.13h.72A1.88 1.88 0 0 0 22.86 14" class="cls-4"/></svg>