<svg xmlns="http://www.w3.org/2000/svg" id="art" viewBox="0 0 34.02 34.02"><defs><clipPath id="clip-path"><circle cx="17.01" cy="17.01" r="16.67" style="fill:none"/></clipPath><style>.cls-4{fill:#fff}</style></defs><g style="clip-path:url(#clip-path)"><path d="M37.84 17A20.84 20.84 0 1 1 17-3.83 20.83 20.83 0 0 1 37.84 17" style="fill:#3b60ab"/></g><path d="M16.1 23.94a5.3 5.3 0 0 1-2.53.54c-3.22 0-5.37-2.87-5.37-7.14 0-4.69 2.15-7.81 5.41-7.81A5 5 0 0 1 16 10l.13 3.19h-.09a3.88 3.88 0 0 0-2.4-1.45c-1.61 0-2.69 2.16-2.69 5.59 0 2.83 1.08 4.71 2.65 4.71a4.93 4.93 0 0 0 2.61-1h.09ZM25.64 23.94a5.3 5.3 0 0 1-2.52.54c-3.23 0-5.37-2.87-5.37-7.14 0-4.69 2.14-7.81 5.41-7.81a4.9 4.9 0 0 1 2.35.46l.13 3.19h-.08a3.94 3.94 0 0 0-2.4-1.45c-1.61 0-2.7 2.16-2.7 5.59 0 2.83 1.09 4.71 2.66 4.71a4.93 4.93 0 0 0 2.61-1h.08Z" class="cls-4"/></svg>