<svg xmlns="http://www.w3.org/2000/svg" id="art" viewBox="0 0 34.02 34.02"><defs><clipPath id="clip-path"><circle cx="17.01" cy="17.01" r="16.67" style="fill:none"/></clipPath><style>.cls-4{fill:#fff}</style></defs><g style="clip-path:url(#clip-path)"><path d="M37.84 17A20.84 20.84 0 1 1 17-3.83 20.83 20.83 0 0 1 37.84 17" style="fill:#b94e27"/></g><path d="M16 23.94a5.3 5.3 0 0 1-2.53.54c-3.22 0-5.36-2.87-5.36-7.14 0-4.69 2.14-7.81 5.41-7.81a4.9 4.9 0 0 1 2.35.46l.13 3.19h-.09a3.88 3.88 0 0 0-2.39-1.45c-1.62 0-2.7 2.16-2.7 5.59 0 2.83 1.08 4.71 2.65 4.71a4.9 4.9 0 0 0 2.61-1h.09ZM22.08 9.68c2.33 0 3.88 1.78 3.88 4.44s-1.7 4.58-4.24 4.58h-.94v4.36a1.9 1.9 0 0 0 .45 1.13v.15h-3.31v-.15a2.3 2.3 0 0 0 .36-1.13V11a2.34 2.34 0 0 0-.36-1.13v-.19Zm1.18 4.52c0-1.53-.78-2.53-2-2.53h-.49v5h.91c.97-.04 1.58-1 1.58-2.47" class="cls-4"/></svg>