<svg xmlns="http://www.w3.org/2000/svg" id="art" viewBox="0 0 34.02 34.02"><defs><clipPath id="clip-path"><circle cx="17.01" cy="17.01" r="16.67" style="fill:none"/></clipPath><style>.cls-4{fill:#fff}</style></defs><g style="clip-path:url(#clip-path)"><path d="M37.84 17A20.84 20.84 0 1 1 17-3.83 20.83 20.83 0 0 1 37.84 17" style="fill:#584232"/></g><path d="m9.73 24.85-2.22-7.56-1 1.65v4.58a2.5 2.5 0 0 0 .35 1.17v.16H3.78v-.16a2.44 2.44 0 0 0 .35-1.17V11a2.5 2.5 0 0 0-.35-1.17v-.17h3.13v.15A2.44 2.44 0 0 0 6.56 11v3.75l2.2-4a.92.92 0 0 0 .08-.95v-.14h3.23v.11a5.7 5.7 0 0 0-.74 1l-2.22 3.77L12 23.89a2.6 2.6 0 0 0 .53.85v.11ZM23.35 24.67v.18h-3l-.76-1.24a4.05 4.05 0 0 1-2.92 1.47c-2.26 0-3.74-1.62-3.74-4.33 0-1.92 1.15-3.11 2.38-4.13a1.2 1.2 0 0 0-.16-.26 7.4 7.4 0 0 1-1.28-3.58 3 3 0 0 1 3.17-3.19 2.94 2.94 0 0 1 3.19 3.19A5.29 5.29 0 0 1 18.16 17c.43.7.91 1.48 1.4 2.26a11.4 11.4 0 0 0 .23-2.17h2.59v.15a1.4 1.4 0 0 0-.49.93 14.5 14.5 0 0 1-.89 3.36c.6 1 1.13 1.84 1.3 2a5.1 5.1 0 0 0 1.05 1.14m-4.84-2.82-2.08-3.43a3.17 3.17 0 0 0-1.09 2.33c0 .88.44 1.93 1.59 1.93a2 2 0 0 0 1.58-.83M16 12.72c0 .67.25 1.1 1 2.38a3.3 3.3 0 0 0 1.09-2.34c0-.5-.18-1.45-1-1.45S16 12.26 16 12.72M27.69 9.66c2.26 0 3.76 1.84 3.76 4.6S29.81 19 27.34 19h-.91v4.51a2 2 0 0 0 .44 1.17v.16h-3.21v-.16a2.55 2.55 0 0 0 .34-1.16V11a2.6 2.6 0 0 0-.35-1.17v-.17Zm1.15 4.68c0-1.58-.76-2.62-1.93-2.62h-.48v5.14h.89c.92 0 1.52-1 1.52-2.52" class="cls-4"/></svg>