<svg xmlns="http://www.w3.org/2000/svg" viewBox="0 0 34.02 34.02"><defs><clipPath id="a"><circle cx="17.01" cy="17.01" r="16.67" style="fill:none"/></clipPath></defs><g style="clip-path:url(#a)"><path d="M37.84 17A20.84 20.84 0 1 1 17-3.83 20.83 20.83 0 0 1 37.84 17" style="fill:#fbb116"/></g><path d="M17.4 11v12.1a2.23 2.23 0 0 0 .34 1.13v.15h-3v-.15a2.34 2.34 0 0 0 .26-1.17v-8.58l-2.7 5.29h-.2l-2.72-5.29v8.68a1.67 1.67 0 0 0 .41 1v.15H6.58v-.15a1.9 1.9 0 0 0 .42-1.1V10.81a1.8 1.8 0 0 0-.41-1v-.13h3.09l2.55 5.23 2.35-5.23h3.2v.15A1.62 1.62 0 0 0 17.4 11M27.26 23.94a5.24 5.24 0 0 1-2.52.54c-3.23 0-5.37-2.87-5.37-7.14 0-4.69 2.14-7.81 5.41-7.81a5 5 0 0 1 2.36.46l.12 3.19h-.08a3.9 3.9 0 0 0-2.4-1.45c-1.61 0-2.69 2.16-2.69 5.59 0 2.83 1.08 4.71 2.65 4.71a4.93 4.93 0 0 0 2.61-1h.08Z"/></svg>