<svg xmlns="http://www.w3.org/2000/svg" id="art" viewBox="0 0 34.02 34.02"><defs><clipPath id="clip-path"><circle cx="17.01" cy="17.01" r="16.67" class="cls-1"/></clipPath><clipPath id="clip-path-2"><circle cx="17.01" cy="140.1" r="16.67" class="cls-1"/></clipPath><style>.cls-1{fill:none}.cls-5{fill:#fff}</style></defs><g style="clip-path:url(#clip-path)"><path d="M37.84 17A20.84 20.84 0 1 1 17-3.83 20.84 20.84 0 0 1 37.84 17" style="fill:#f05f72"/></g><g style="clip-path:url(#clip-path-2)"><path d="m10.46 11.23 2.17 9.58a1.7 1.7 0 0 0 .34.72v.09h-2.29v-.1a1 1 0 0 0 .18-.53 1.3 1.3 0 0 0 0-.21l-.37-1.45H9l-.41 1.53a1 1 0 0 0 0 .2 1.1 1.1 0 0 0 .14.46v.1H6.58v-.07a1.5 1.5 0 0 0 .28-.55l2.26-9a.4.4 0 0 0 0-.13.7.7 0 0 0-.08-.31.7.7 0 0 0-.16-.22v-.1Zm-1.16 6.7h.91l-.44-2.2ZM13.09 11.33h2v.12a.66.66 0 0 0-.1.37 1 1 0 0 0 0 .29l.88 4.19 1.12-5h1l1 5 1-4.07a1.6 1.6 0 0 0 .07-.44.74.74 0 0 0-.07-.34v-.12h2v.09a2 2 0 0 0-.26.62l-2.05 9.58h-1l-1.2-5.82-1.25 5.82h-1.06l-1.81-9.44a2.2 2.2 0 0 0-.27-.75ZM23.55 20.05a1.37 1.37 0 0 0 .9.29 1 1 0 0 0 .78-.36 1.4 1.4 0 0 0 .31-1 2.43 2.43 0 0 0-.36-1.2 7.5 7.5 0 0 0-1.1-1.42 5.6 5.6 0 0 1-1-1.43 3.8 3.8 0 0 1-.32-1.53 2 2 0 0 1 .69-1.6 2.68 2.68 0 0 1 1.82-.6 4.6 4.6 0 0 1 .89.07 1.5 1.5 0 0 1 .47.15l.06 2h-.12a2.2 2.2 0 0 0-.57-.52 1.2 1.2 0 0 0-.75-.26.59.59 0 0 0-.49.24.88.88 0 0 0-.2.57 2.1 2.1 0 0 0 .67 1.47 9 9 0 0 1 1.51 2 4.34 4.34 0 0 1 .5 2 2.78 2.78 0 0 1-.74 2 2.62 2.62 0 0 1-2 .76 3 3 0 0 1-1.08-.16 1.45 1.45 0 0 1-.58-.35v-2H23a2.2 2.2 0 0 0 .55.88" class="cls-5"/></g><path d="M17.93 11v12.1a2.23 2.23 0 0 0 .34 1.13v.15h-3v-.15a2.34 2.34 0 0 0 .34-1.13v-8.62l-2.7 5.29h-.23l-2.77-5.29v8.68a1.67 1.67 0 0 0 .41 1v.15H7.11v-.15a1.9 1.9 0 0 0 .45-1.13V10.81a1.85 1.85 0 0 0-.4-1v-.13h3.05l2.55 5.23 2.35-5.23h3.2v.15a1.62 1.62 0 0 0-.38 1.17M23.47 9.68v.15a2.1 2.1 0 0 0-.39 1.17v11.07h2.25c.41 0 .66-.16 1.49-.75h.08v3h-6.68v-.15a2.4 2.4 0 0 0 .36-1.13V11a2.34 2.34 0 0 0-.36-1.13v-.19Z" class="cls-5"/></svg>