<svg xmlns="http://www.w3.org/2000/svg" id="art" viewBox="0 0 34.02 34.02"><defs><clipPath id="clip-path"><circle cx="17.01" cy="17.01" r="16.67" style="fill:none"/></clipPath><style>.cls-4{fill:#fff}</style></defs><g style="clip-path:url(#clip-path)"><path d="M37.84 17A20.84 20.84 0 1 1 17-3.83 20.83 20.83 0 0 1 37.84 17" style="fill:#b43e95"/></g><path d="M7.46 9.6c2.34 0 3.88 1.78 3.88 4.43s-1.69 4.59-4.24 4.59h-.93V23a2 2 0 0 0 .44 1.14v.14H3.3v-.14A2.26 2.26 0 0 0 3.67 23V10.87a2.3 2.3 0 0 0-.37-1.13V9.6Zm1.19 4.52c0-1.53-.78-2.53-2-2.53h-.48v5h.91c.92-.04 1.57-1 1.57-2.47M22.31 24.08v.17h-3.07l-.79-1.19a4.3 4.3 0 0 1-3 1.42c-2.33 0-3.86-1.57-3.86-4.18 0-1.85 1.19-3 2.46-4a1.1 1.1 0 0 0-.17-.25 6.9 6.9 0 0 1-1.32-3.46 3 3 0 0 1 3.27-3.08 2.94 2.94 0 0 1 3.29 3.08A5 5 0 0 1 17 16.67c.44.67.93 1.43 1.44 2.18a10.6 10.6 0 0 0 .23-2.09h2.68v.14a1.34 1.34 0 0 0-.51.9 13 13 0 0 1-1 3.25c.62.94 1.17 1.78 1.34 2a5.5 5.5 0 0 0 1.13 1.03m-5-2.72-2.15-3.31a3 3 0 0 0-1.12 2.25 1.68 1.68 0 0 0 1.63 1.86 2.15 2.15 0 0 0 1.66-.8Zm-2.59-8.81c0 .65.25 1.07 1 2.3a3.1 3.1 0 0 0 1.12-2.26c0-.48-.19-1.4-1.06-1.4s-1.04.92-1.04 1.36ZM28.66 24.25l-1.89-6.11h-.72V23a2.4 2.4 0 0 0 .34 1.14v.14h-3.2v-.14a2.4 2.4 0 0 0 .36-1.14V10.87a2.4 2.4 0 0 0-.36-1.13V9.6h4.11c2.3 0 3.82 1.65 3.82 4.1a4.68 4.68 0 0 1-2.25 4.19l2 5.15a4 4 0 0 0 .63 1.07v.14ZM28.49 14a1.8 1.8 0 0 0-2-2h-.43v4h.72a1.87 1.87 0 0 0 1.71-2" class="cls-4"/></svg>