<svg xmlns="http://www.w3.org/2000/svg" viewBox="0 0 34.02 34.02"><defs><clipPath id="a"><circle cx="17.01" cy="17.01" r="16.67" style="fill:none"/></clipPath></defs><g style="clip-path:url(#a)"><path d="M37.84 17A20.84 20.84 0 1 1 17-3.83 20.84 20.84 0 0 1 37.84 17" style="fill:#6dcef5"/></g><path d="M8.66 9.68c2.34 0 3.88 1.78 3.88 4.44S10.85 18.7 8.3 18.7h-.93v4.36a1.94 1.94 0 0 0 .44 1.13v.15H4.5v-.15a2.23 2.23 0 0 0 .37-1.13V11a2.26 2.26 0 0 0-.37-1.17v-.15Zm1.19 4.52c0-1.53-.78-2.53-2-2.53h-.48v5h.91c.95-.04 1.57-1 1.57-2.47M15.83 22.51c.87 0 1.57-.69 1.57-1.9s-.7-2.26-2.1-3.73a5.9 5.9 0 0 1-1.91-4.21c0-1.88 1.44-3.14 3.63-3.14a4.4 4.4 0 0 1 1.98.32l.09 2.89h-.17a2.47 2.47 0 0 0-1.92-1.2 1.09 1.09 0 0 0-1 1.16 2.94 2.94 0 0 0 1 2.09c1.93 2 2.9 3.81 2.9 5.73a3.72 3.72 0 0 1-3.9 4 3.28 3.28 0 0 1-2.4-.73l-.06-2.83h.17a2.25 2.25 0 0 0 2.12 1.55M25.63 9.68c2.33 0 3.88 1.78 3.88 4.44s-1.7 4.58-4.24 4.58h-.93v4.36a1.87 1.87 0 0 0 .44 1.13v.15h-3.31v-.15a2.3 2.3 0 0 0 .36-1.13V11a2.34 2.34 0 0 0-.36-1.13v-.19Zm1.19 4.52c0-1.53-.79-2.53-2-2.53h-.48v5h.91c.95-.04 1.57-1 1.57-2.47"/></svg>