<svg xmlns="http://www.w3.org/2000/svg" id="art" viewBox="0 0 34.02 34.02"><defs><clipPath id="clip-path"><circle cx="17.01" cy="17.01" r="16.67" class="cls-1"/></clipPath><clipPath id="clip-path-2"><circle cx="17.01" cy="99.07" r="16.67" class="cls-1"/></clipPath><style>.cls-1{fill:none}</style></defs><g style="clip-path:url(#clip-path)"><path d="M37.84 17A20.84 20.84 0 1 1 17-3.83 20.83 20.83 0 0 1 37.84 17" style="fill:#e5df17"/></g><path d="M14.4 9.68h2.91v.11a2.2 2.2 0 0 0-.39.75l-3.37 13.8h-1.8l-3-13.42a3.3 3.3 0 0 0-.51-1.09v-.15h3.11v.15a1.4 1.4 0 0 0-.1 1l1.55 7.41L14.42 11a1.87 1.87 0 0 0 0-1.15ZM25.62 23.94a5.3 5.3 0 0 1-2.52.54c-3.23 0-5.37-2.87-5.37-7.14 0-4.69 2.14-7.81 5.41-7.81a4.9 4.9 0 0 1 2.35.46l.13 3.19h-.09a3.88 3.88 0 0 0-2.39-1.45c-1.61 0-2.7 2.16-2.7 5.59 0 2.83 1.09 4.71 2.66 4.71a4.9 4.9 0 0 0 2.6-1h.09Z"/></svg>