<svg xmlns="http://www.w3.org/2000/svg" id="art" viewBox="0 0 34.02 34.02"><defs><clipPath id="clip-path"><circle cx="17.01" cy="17.01" r="16.67" style="fill:none"/></clipPath><style>.cls-4{fill:#fff}</style></defs><g style="clip-path:url(#clip-path)"><path d="M37.84 17A20.84 20.84 0 1 1 17-3.83 20.83 20.83 0 0 1 37.84 17" style="fill:#231f20"/></g><path d="M13.68 9.68h2.9v.11a2.4 2.4 0 0 0-.38.75l-3.37 13.8H11L8 10.92a3.3 3.3 0 0 0-.51-1.09v-.15h3.11v.15a1.35 1.35 0 0 0-.1 1l1.55 7.41L13.7 11a2 2 0 0 0 0-1.15ZM23.6 9.68h2.91v.11a2 2 0 0 0-.38.75l-3.37 13.8H21l-3-13.42a3.1 3.1 0 0 0-.51-1.09v-.15h3.12v.15a1.4 1.4 0 0 0-.11 1l1.5 7.41L23.63 11a2 2 0 0 0 0-1.15Z" class="cls-4"/></svg>