<svg xmlns="http://www.w3.org/2000/svg" data-name="Layer 1" viewBox="0 0 30.56 30.56"><circle cx="15.28" cy="15.28" r="15.28" fill="#247237"/><path fill="#fff" d="M9.61 21.38a3 3 0 0 1-.92.34 6 6 0 0 1-1.28.14A4 4 0 0 1 5 21.07a5.1 5.1 0 0 1-1.64-2.21 8.8 8.8 0 0 1-.58-3.29A10.5 10.5 0 0 1 3.33 12 5.5 5.5 0 0 1 5 9.56a3.85 3.85 0 0 1 2.45-.86 6 6 0 0 1 1.32.14 1.75 1.75 0 0 1 .73.27l.11 2.8h-.08a5.8 5.8 0 0 0-.9-.83 1.86 1.86 0 0 0-1.18-.44 1.57 1.57 0 0 0-1.22.6A4.1 4.1 0 0 0 5.41 13a10 10 0 0 0-.3 2.6 7.2 7.2 0 0 0 .3 2.18 3.36 3.36 0 0 0 .81 1.45 1.6 1.6 0 0 0 1.19.52 2.86 2.86 0 0 0 1.3-.3 5.5 5.5 0 0 0 1-.57h.07zM19 8.83V9a2.16 2.16 0 0 0-.29 1v11.73h-.76l-4.09-7.85v6.72a1.8 1.8 0 0 0 .34 1v.15h-2.88v-.15a2.06 2.06 0 0 0 .33-1V10a1.4 1.4 0 0 0-.07-.48 3.2 3.2 0 0 0-.24-.52v-.17h2.37l2.75 5.6V10a1.7 1.7 0 0 0-.33-1v-.17zm6.37 12.9-1.63-5.38h-.63v4.25a2.3 2.3 0 0 0 .29 1v.13h-2.78v-.13a2.14 2.14 0 0 0 .32-1V10a2.14 2.14 0 0 0-.32-1v-.17h3.58a3.09 3.09 0 0 1 2.4 1 3.7 3.7 0 0 1 .91 2.61 4.46 4.46 0 0 1-.58 2.29 3.5 3.5 0 0 1-1.37 1.4l1.69 4.53a4 4 0 0 0 .56.94v.13zM24.78 14a1.9 1.9 0 0 0 .45-1.33 1.57 1.57 0 0 0-1.75-1.8h-.37v3.63h.63a1.4 1.4 0 0 0 1.04-.5"/></svg>