<svg xmlns="http://www.w3.org/2000/svg" data-name="Layer 1" viewBox="0 0 30.56 30.56"><circle cx="15.28" cy="15.28" r="15.28" fill="#d91a3e"/><path fill="#fff" d="M10.08 21.38a3 3 0 0 1-.92.34 6 6 0 0 1-1.28.14 4 4 0 0 1-2.44-.79 5.1 5.1 0 0 1-1.64-2.21 8.8 8.8 0 0 1-.58-3.29A10.5 10.5 0 0 1 3.8 12a5.5 5.5 0 0 1 1.65-2.44 3.85 3.85 0 0 1 2.47-.86 6 6 0 0 1 1.32.14 1.75 1.75 0 0 1 .73.27l.11 2.8H10a5.8 5.8 0 0 0-.9-.83 1.86 1.86 0 0 0-1.18-.44 1.57 1.57 0 0 0-1.22.6A4.1 4.1 0 0 0 5.88 13a10 10 0 0 0-.3 2.6 7.2 7.2 0 0 0 .3 2.18 3.36 3.36 0 0 0 .81 1.45 1.6 1.6 0 0 0 1.19.52 2.86 2.86 0 0 0 1.3-.3 5.5 5.5 0 0 0 1-.57h.07zM15.4 8.83a3.26 3.26 0 0 1 1.76.49 3.3 3.3 0 0 1 1.19 1.37 4.7 4.7 0 0 1 .42 2.05 4.66 4.66 0 0 1-.46 2.12A3.35 3.35 0 0 1 17 16.27a3.6 3.6 0 0 1-1.92.5h-.81v3.83a1.8 1.8 0 0 0 .38 1v.13h-2.86v-.13a2.1 2.1 0 0 0 .31-1V10a2.2 2.2 0 0 0-.31-1v-.17zm.66 5.54a2.86 2.86 0 0 0 .37-1.56 2.62 2.62 0 0 0-.43-1.62 1.52 1.52 0 0 0-1.26-.61h-.42V15h.79a1.13 1.13 0 0 0 .95-.63m8.84 7.36-1.63-5.38h-.63v4.25a2.3 2.3 0 0 0 .29 1v.13h-2.78v-.13a2.14 2.14 0 0 0 .32-1V10a2.14 2.14 0 0 0-.32-1v-.17h3.58a3.09 3.09 0 0 1 2.4 1 3.7 3.7 0 0 1 .87 2.61 4.46 4.46 0 0 1-.58 2.29 3.5 3.5 0 0 1-1.37 1.4l1.69 4.53a4 4 0 0 0 .56.94v.13zM24.31 14a1.9 1.9 0 0 0 .45-1.33A1.57 1.57 0 0 0 23 10.86h-.37v3.63h.63a1.4 1.4 0 0 0 1.05-.49"/></svg>