<svg xmlns="http://www.w3.org/2000/svg" data-name="Layer 1" viewBox="0 0 30.56 30.56"><circle cx="15.28" cy="15.28" r="15.28"/><path fill="#fff" d="M14.64 15.78V20a2.38 2.38 0 0 1-1 1.39 3.57 3.57 0 0 1-1.88.47A3.4 3.4 0 0 1 9.51 21a5.8 5.8 0 0 1-1.61-2.33 9 9 0 0 1-.59-3.32 9.5 9.5 0 0 1 .6-3.53 5.2 5.2 0 0 1 1.65-2.31 3.8 3.8 0 0 1 2.38-.81 3.6 3.6 0 0 1 1.44.3 3.4 3.4 0 0 1 .91.6V12h-.07a3.3 3.3 0 0 0-.93-.82 2.33 2.33 0 0 0-1.19-.32A2 2 0 0 0 10.3 12a7 7 0 0 0-.63 3.36 7 7 0 0 0 .33 2.22 4.7 4.7 0 0 0 .88 1.63 1.43 1.43 0 0 0 1 .6.77.77 0 0 0 .57-.22v-4a1.6 1.6 0 0 0-.33-.83v-.13H15v.13a1.7 1.7 0 0 0-.36 1.02m3.61 5.95v-.13a3 3 0 0 0 .31-.53 1.1 1.1 0 0 0 .1-.47v-9.78h-1a2.43 2.43 0 0 0-1.14.43l-.22.14h-.07V8.83h7v2.56h-.08l-.15-.14a2.43 2.43 0 0 0-1.14-.43h-1v9.78a1.1 1.1 0 0 0 .11.47 2.5 2.5 0 0 0 .3.53v.13z"/></svg>