<svg xmlns="http://www.w3.org/2000/svg" data-name="Layer 1" viewBox="0 0 30.56 30.56"><circle cx="15.28" cy="15.28" r="15.28" fill="#7f117e"/><path fill="#fff" d="M11.64 23.4a2.3 2.3 0 0 1-1.17.32 2.6 2.6 0 0 1-1.31-.57A21 21 0 0 1 7.1 21.5a3.6 3.6 0 0 1-1.83-1.15 6.1 6.1 0 0 1-1.22-2.27 10.6 10.6 0 0 1-.43-3.14 9.9 9.9 0 0 1 .54-3.41 5.3 5.3 0 0 1 1.52-2.28 3.42 3.42 0 0 1 2.25-.81 3.38 3.38 0 0 1 2.25.82 5.24 5.24 0 0 1 1.51 2.32 10.4 10.4 0 0 1 .53 3.42 9.7 9.7 0 0 1-.68 3.79 4.65 4.65 0 0 1-1.88 2.31c1.07 1 1.74 1.45 2 1.45a2.3 2.3 0 0 0 .68-.14.5.5 0 0 1 .17-.06l.2-.05a.16.16 0 0 1 .11 0l.11.11a7.7 7.7 0 0 1-1.29.99M7 10.9a4.2 4.2 0 0 0-.65 1.62 10.6 10.6 0 0 0-.23 2.38 11.3 11.3 0 0 0 .23 2.45A4.45 4.45 0 0 0 7 19a1.19 1.19 0 0 0 1 .59c.55 0 1-.42 1.33-1.25a8.9 8.9 0 0 0 .49-3.26 10 10 0 0 0-.49-3.45c-.34-.87-.78-1.31-1.33-1.31a1.19 1.19 0 0 0-1 .58m9.77-2.34v.13a2.1 2.1 0 0 0-.33 1v9.78h1.95a1 1 0 0 0 .49-.12 8 8 0 0 0 .8-.54h.08v2.65H14v-.13a2.14 2.14 0 0 0 .32-1V9.69a2.2 2.2 0 0 0-.32-1v-.13zm7.23 0v.13a2.1 2.1 0 0 0-.34 1v9.78h2a1.1 1.1 0 0 0 .49-.12 8 8 0 0 0 .8-.54h.07v2.65h-5.8v-.13a2.1 2.1 0 0 0 .31-1V9.69a2.14 2.14 0 0 0-.31-1v-.13z"/></svg>