<svg xmlns="http://www.w3.org/2000/svg" data-name="Layer 1" viewBox="0 0 30.56 30.56"><circle cx="15.28" cy="15.28" r="15.28" fill="#008ccd"/><path fill="#fff" d="M9.49 19.76a1.7 1.7 0 0 0 1.13.36 1.25 1.25 0 0 0 1-.45 1.85 1.85 0 0 0 .38-1.22 3.06 3.06 0 0 0-.45-1.5 9.4 9.4 0 0 0-1.37-1.78 6.5 6.5 0 0 1-1.25-1.8 4.5 4.5 0 0 1-.41-1.9 2.52 2.52 0 0 1 .87-2 3.36 3.36 0 0 1 2.28-.76 5 5 0 0 1 1.11.1 2 2 0 0 1 .59.18l.07 2.54h-.15a2.9 2.9 0 0 0-.68-.73 1.55 1.55 0 0 0-.94-.32.75.75 0 0 0-.63.31 1.16 1.16 0 0 0-.23.71 2.7 2.7 0 0 0 .82 1.84 11.2 11.2 0 0 1 1.9 2.57 5.3 5.3 0 0 1 .63 2.47 3.48 3.48 0 0 1-.93 2.53 3.27 3.27 0 0 1-2.46 1 3.7 3.7 0 0 1-1.36-.21 1.7 1.7 0 0 1-.72-.44l-.06-2.49h.15a2.9 2.9 0 0 0 .71.99m12.42 1.62a3 3 0 0 1-.92.34 5.8 5.8 0 0 1-1.27.14 3.94 3.94 0 0 1-2.44-.79 5 5 0 0 1-1.64-2.21 8.6 8.6 0 0 1-.58-3.29 10.2 10.2 0 0 1 .58-3.6 5.5 5.5 0 0 1 1.65-2.41 3.83 3.83 0 0 1 2.47-.86 6 6 0 0 1 1.31.14 1.75 1.75 0 0 1 .73.27l.11 2.8h-.07a5.8 5.8 0 0 0-.9-.83 1.9 1.9 0 0 0-1.18-.44 1.59 1.59 0 0 0-1.23.6 4.2 4.2 0 0 0-.82 1.76 10 10 0 0 0-.29 2.6 7.2 7.2 0 0 0 .29 2.18 3.6 3.6 0 0 0 .81 1.45 1.63 1.63 0 0 0 1.2.52 2.86 2.86 0 0 0 1.3-.3 5.5 5.5 0 0 0 1-.57h.07z"/></svg>