<svg xmlns="http://www.w3.org/2000/svg" xmlns:xlink="http://www.w3.org/1999/xlink" xml:space="preserve" id="Layer_1" x="0" y="0" viewBox="0 0 36 36"><style>.st3{fill:none;stroke:#010101;stroke-width:.5;stroke-miterlimit:10}</style><defs><path id="SVGID_1_" d="M36 18c0-9.9-8.1-18-18-18S0 8.1 0 18s8.1 18 18 18 18-8.1 18-18"/></defs><clipPath id="SVGID_2_"><use xlink:href="#SVGID_1_" overflow="visible"/></clipPath><g clip-path="url(#SVGID_2_)"><path fill="#f6eb16" d="M-4-4h44v22H-4zm0 22h44v22H-4z"/><path fill="#fff" d="M-4 14h44v8H-4z"/><path d="M-4 14h44v8H-4z" class="st3"/><text fill="#010101" font-family="Times-Bold" font-size="9" transform="translate(7 21.1)">ERIE</text><path d="M36 18c0-9.9-8.1-18-18-18S0 8.1 0 18s8.1 18 18 18 18-8.1 18-18" class="st3"/></g></svg>