<svg xmlns="http://www.w3.org/2000/svg" xmlns:xlink="http://www.w3.org/1999/xlink" viewBox="0 0 36 36"><defs><path id="a" d="M36 18c0-9.9-8.1-18-18-18S0 8.1 0 18s8.1 18 18 18 18-8.1 18-18"/></defs><clipPath id="b"><use xlink:href="#a" overflow="visible"/></clipPath><g clip-path="url(#b)"><path fill="#d44027" fill-rule="evenodd" d="M42 18C42 4.7 31.3-6 18-6S-6 4.7-6 18 4.7 42 18 42s24-10.7 24-24" clip-rule="evenodd"/><path fill="#405aa9" d="M5 5h26v26H5z"/><text fill="#f6eb16" font-family="Times-Bold" font-size="9" transform="translate(7.25 21.1)">WAB</text><path fill="none" stroke="#010101" stroke-miterlimit="10" stroke-width=".5" d="M36 18c0-9.9-8.1-18-18-18S0 8.1 0 18s8.1 18 18 18 18-8.1 18-18"/></g></svg>