<svg xmlns="http://www.w3.org/2000/svg" width="144" height="144" viewBox="0 0 7.2 7.2"><clipPath id="a"><path d="M0 0v30h60V0z"/></clipPath><clipPath id="b"><path d="M30 15h30v15zm0 0v15H0zm0 0H0V0zm0 0V0h30z"/></clipPath><circle cx="3.6" cy="3.6" r="3.51" fill="#faebd7" class="color-main color-white"/><g clip-path="url(#a)" transform="translate(1.1 2.35)scale(.08333)"><path fill="#00008b" d="M0 0v30h60V0z" class="color-reserved-gray"/><path stroke="#fff" stroke-width="6" d="m0 0 60 30m0-30L0 30"/><path stroke="red" stroke-width="4" d="m0 0 60 30m0-30L0 30" class="color-stroke-reserved-gray" clip-path="url(#b)"/><path stroke="#fff" stroke-width="10" d="M30 0v30M0 15h60"/><path stroke="red" stroke-width="6" d="M30 0v30M0 15h60" class="color-stroke-reserved-gray"/></g></svg>