<svg xmlns="http://www.w3.org/2000/svg" viewBox="0 0 144 144"><circle cx="72" cy="72" r="70.2" fill="#ff9027" class="color-main color-orange"/><path fill="#fff" d="M67.688 40.27c-.676-.046-1.276 0-1.795.011-7.19-.02-14.384-.026-21.577.014l-.066.002c-2.303.138-3.872 1.718-5.033 2.988-9.39 9.407-18.825 18.778-28.182 28.23a1 1 0 0 0-.101.116c-.598.777-.734 1.758-.55 2.588a3.63 3.63 0 0 0 1.321 2.08l-.11-.094c5.412 5.351 10.745 10.81 16.221 16.143l.069.062c1.9 1.59 4.263 1.342 5.96 1.319H84.49c-3.26 3.252-6.55 6.483-9.765 9.812a1.2 1.2 0 0 0-.18.238c-.899 1.558.65 3.458 2.353 2.98l-.343.046c5.76.055 11.51.004 17.246.025h.023c2.14-.034 4.358.06 6.63-.1a1 1 0 0 0 .134-.017c2.778-.508 4.183-2.819 5.512-4.02l.047-.043c9.018-9.041 18.095-18.039 27.076-27.134a1.2 1.2 0 0 0 .138-.168c1.106-1.61.424-3.646-.986-4.643l.158.133c-5.376-5.35-10.7-10.774-16.148-16.088l-.07-.062c-1.906-1.594-4.278-1.341-5.977-1.319H59.72c3.252-3.257 6.538-6.486 9.758-9.814a1.2 1.2 0 0 0 .212-.297c.392-.769.195-1.706-.283-2.258a2.15 2.15 0 0 0-2.039-.71Z"/><path fill="#ff5739" d="M22.35 77.55h99.5a.828.828 67.5 0 1 .586 1.414l-21.222 21.222A4.83 4.83 157.5 0 1 97.8 101.6H86a.828.828 67.5 0 1-.586-1.414l10.272-10.272A.828.828 67.5 0 0 95.1 88.5H33.3a4.83 4.83 22.5 0 1-3.414-1.414l-8.122-8.122a.828.828 112.5 0 1 .586-1.414"/><path fill="#c5271a" d="M121.85 69.548H22.349a.828.828 67.5 0 1-.586-1.414l21.222-21.222a4.83 4.83 157.5 0 1 3.414-1.414h11.8a.828.828 67.5 0 1 .586 1.414L48.513 57.183a.828.828 67.5 0 0 .586 1.415h61.8a4.83 4.83 22.5 0 1 3.414 1.414l8.122 8.122a.828.828 112.5 0 1-.585 1.414"/></svg>