<svg xmlns="http://www.w3.org/2000/svg" id="Layer_1" data-name="Layer 1" viewBox="0 0 31.18 31.18"><defs><style>.cls-3{fill:#fff}.cls-4{fill:#ec2227}</style></defs><g id="New_Symbol_20-11" data-name="New Symbol 20"><g id="New_Symbol_10-10" data-name="New Symbol 10"><path d="M31.18 15.59c.3 20.23-31.48 20.23-31.18 0-.3-20.23 31.48-20.23 31.18 0" style="fill:#c45114;fill-rule:evenodd"/><path d="m28.22 12.07-5.21 14.32-20.05-7.3 5.21-14.3z" style="fill:#231f20"/><path d="M3.865 18.684 8.593 5.687l18.73 6.813-4.728 12.997z" class="cls-3"/><path d="m26.81 12.72-4.45 12.27-18-6.55L8.82 6.19z" class="cls-4"/><path d="M11.29 12.91h-.92s-.67 1.1-2 3.18c.13-1 .28-2.08.47-3.18h-1a16.2 16.2 0 0 1-1.65 4.48h.78c-.28 0 1.24-3.44 1.18-3.55l-.48 3.55c.59.5 2.26-3 2.53-3.16a19 19 0 0 1-1.3 3.16h.79a18.5 18.5 0 0 1 1.6-4.48M11.74 13.64h-.63a13.5 13.5 0 0 1-1.39 3.75h.65a18.5 18.5 0 0 1 1.37-3.75M12.51 13.64h-.64a13.1 13.1 0 0 1-1.38 3.75c.38-.07 1.66.27 1.58-.47a3.7 3.7 0 0 1-.88.06 29 29 0 0 1 1.32-3.34M13.17 9.67c-.35.08-1.67-.26-1.6.44.1-.11.45-.09.57-.09a14.4 14.4 0 0 1-.92 2.21h.64c-.18-.06.58-2.82 1.15-2.14ZM16.84 13.64h-.65c.24.08-1.49 2.87-1.45 3l.4-3c-.49-.41-1.89 2.48-2.12 2.65.08-.08.39-2.76.64-2.65H13a16 16 0 0 1-.87 3.75h.77s.56-.93 1.71-2.66a41 41 0 0 1-.4 2.66H15c-.24-.04 1.71-3.75 1.84-3.75M14.76 9.67h-.54c.14.39-.23 1.28-.81 1.06a5.4 5.4 0 0 1 .45-1.06h-.52a12 12 0 0 1-.95 2.56H13c-.14-.38.27-1.4.86-1.16a6 6 0 0 1-.51 1.16h.55a11.7 11.7 0 0 1 .86-2.56M16.27 9.67H15c.18.16-.82 2.41-.9 2.56.33-.06 1.37.21 1.32-.41a2.7 2.7 0 0 1-.75.06c.1-.52.44-1.08 1-.74l.15-.45a5 5 0 0 1-.77 0c.09-.54.47-.91 1-.66ZM16.49 19.14c.06-.78-.74-.62-1.23-.63a11 11 0 0 1-.95 2.72h.56c-.2 0 .33-1.14.32-1.22.18-.14.47 1.21.37 1.22h.61c-.27-.3-.28-.71-.5-1.24.55-.08.82-.36.82-.85M17.76 13.64h-.87a14.6 14.6 0 0 1-1.72 3.75h.67c-.24 0 .5-1.18.48-1.25h.59c-.05.1-.14 1.27-.32 1.25h.63c-.22-.02.49-3.66.54-3.75" class="cls-3"/><path d="M16.14 19.11c0 .46-.4.55-.8.52.04-.38.52-1.18.8-.52M17.24 14.19c-.17.32 0 1.89-.77 1.54Z" class="cls-4"/><path d="M18.27 19.34c-.38-2.65-3 1.66-1.16 1.89.68.02 1.19-1.29 1.16-1.89" class="cls-3"/><path d="M17.92 19.39c.13.51-1 2.34-1.06.95-.13-.5.95-2.34 1.06-.95" class="cls-4"/><path d="M20.21 13.64h-.65c-.58 3.84-3 4.82-.59 0h-.63c.35.63-2.11 3.73-.3 3.75 1.34.14 1.48-3.15 2.17-3.75M19.89 18.51h-.77c.2.2-1.15 2.55-1.25 2.72h.64c-.11-.31.29-1.09.73-.89 0 .14 0 .83-.18.89h.61a8.4 8.4 0 0 1 .22-2.72M22.17 13.64h-.76c.33 0-1.11 1.38-1.09 1.45.06-.1.46-1.47.62-1.45h-.63a13 13 0 0 1-1.39 3.75h.65c-.15-.25.38-1.31.6-1.48-.07.12.32 1.09 0 1.48h.65c-.6-1.15.02-2.73 1.35-3.75" class="cls-3"/><path d="m19.34 19.17-.07.81h-.29z" class="cls-4"/><path d="M22.29 19.53c.05-1-.74-1.08-1.48-1 .28.11-.84 2.62-.92 2.72 1.19.13 2.47-.32 2.4-1.72" class="cls-3"/><path d="M21.92 19.51a1.19 1.19 0 0 1-1.43 1.33c.16-.48.98-3.32 1.43-1.33" class="cls-4"/><path d="M23.69 13.64h-1.43a13.5 13.5 0 0 1-1.39 3.75c.39-.07 1.66.26 1.6-.47a3.6 3.6 0 0 1-.88.06c.13-.67.64-1.74 1.33-1.29l.2-.5c-.07.09-.79 0-.9.05.21-.68.41-1.49 1.3-1.15ZM25.29 13.64h-1.43a13.5 13.5 0 0 1-1.39 3.75c.39-.07 1.66.26 1.6-.47a3.7 3.7 0 0 1-.88.06c.13-.67.64-1.74 1.33-1.29l.2-.5c-.08.09-.79 0-.9.05.22-.68.41-1.5 1.3-1.15Z" class="cls-3"/></g></g></svg>