<svg xmlns="http://www.w3.org/2000/svg" id="Layer_1" data-name="Layer 1" viewBox="0 0 34.02 34.02"><defs><style>.cls-2,.cls-3{fill-rule:evenodd}.cls-2{fill:#ec1c24}.cls-3,.cls-4{fill:#fff}</style></defs><path d="M17 0A17 17 0 1 1 0 17 17 17 0 0 1 17 0" style="fill:#881319;fill-rule:evenodd"/><path d="M23.59 9h6.69l-2.53 3.19V18l1.54 1.94v5.43h-5.15l-1.49-1.9H18.9L17 25.86l-1.88-2.4h-3.74l-1.51 1.9H4.75V20l1.5-2v-5.75L3.74 9h6.61A16.8 16.8 0 0 1 17 7.63 16.6 16.6 0 0 1 23.59 9" class="cls-2"/><path d="M22.94 9.8h5.42l-1.65 1.91v6.8l1.38 1.75v4.27h-3.46l-1.34-1.72h-4.57L17 25l-1.7-2.19h-4.7l-1.36 1.72H6v-4.42l1.3-1.73v-6.31L5.47 9.8H11a15.1 15.1 0 0 1 6-1.27 14.8 14.8 0 0 1 5.94 1.27" class="cls-3"/><path d="M22.25 10.26h4.87L26 11.81v6.86l1.36 1.76v3.51H25l-1.4-1.74h-5.05L17 24.15l-1.49-1.8h-5.06L9 24.12H6.56v-3.83L8 18.6v-6.69l-1.47-1.65h5a13.7 13.7 0 0 1 5.4-1.14 13.5 13.5 0 0 1 5.35 1.14" class="cls-2"/><path d="M21.75 19.44a2.6 2.6 0 0 1 .25-1.28 1.11 1.11 0 0 1 .93-.54.93.93 0 0 1 .85.56v-1.69h.79v4.73h-.79v-.43l-.18.05a1.4 1.4 0 0 0-.21.19l-.23.21-.16.06a1.05 1.05 0 0 1-.62-.18 1.5 1.5 0 0 1-.45-.64 2.8 2.8 0 0 1-.17-1" class="cls-3"/><path d="M22.57 19.5a2 2 0 0 0 .13.71.53.53 0 0 0 .49.34.55.55 0 0 0 .49-.28 1.5 1.5 0 0 0 .18-.7 2.1 2.1 0 0 0-.14-.82.54.54 0 0 0-.52-.34.49.49 0 0 0-.47.29 1.7 1.7 0 0 0-.16.8" class="cls-2"/><path d="M18.52 21.22v-3.53h.74v.55a1 1 0 0 1 .91-.62 1 1 0 0 1 .77.31 1.36 1.36 0 0 1 .29.85v2.44h-.79v-2.1a1.1 1.1 0 0 0-.1-.52c-.06-.13-.22-.19-.43-.19a.54.54 0 0 0-.47.23 1.14 1.14 0 0 0-.14.59v2h-.78M15.26 20.31a1.2 1.2 0 0 1 .23-.79 1.08 1.08 0 0 1 .62-.34l.7-.12c.16 0 .25-.13.25-.25a.4.4 0 0 0-.45-.45.6.6 0 0 0-.36.11.51.51 0 0 0-.16.4h-.75a1.7 1.7 0 0 1 .18-.71.9.9 0 0 1 .39-.39 1.55 1.55 0 0 1 .7-.15 1.44 1.44 0 0 1 .77.18.9.9 0 0 1 .33.4 1.5 1.5 0 0 1 .09.44v1.91c0 .31.05.49.16.54v.13h-.82a2.4 2.4 0 0 1-.07-.43 1.07 1.07 0 0 1-.9.51 1 1 0 0 1-.63-.21 1 1 0 0 1-.28-.78" class="cls-3"/><path d="M17.06 19.5a1 1 0 0 1-.42.19 2 2 0 0 0-.47.16.54.54 0 0 0-.13.42.38.38 0 0 0 .11.31.31.31 0 0 0 .25.09.85.85 0 0 0 .46-.16.8.8 0 0 0 .2-.54z" class="cls-2"/><path d="M13.93 16.49h.78v4.73h-.78z" class="cls-4"/><path d="M10.6 20.09h.8c0 .33.21.49.64.49a.56.56 0 0 0 .37-.1l.13-.23a.23.23 0 0 0-.16-.25l-.68-.19a1.66 1.66 0 0 1-.72-.36.83.83 0 0 1-.25-.67A1.22 1.22 0 0 1 11 18a1.2 1.2 0 0 1 .9-.33 1.14 1.14 0 0 1 1.31 1.16h-.78a.5.5 0 0 0-.12-.33.54.54 0 0 0-.4-.13c-.3 0-.46.13-.46.34s.2.27.58.36a3.8 3.8 0 0 1 .94.35.81.81 0 0 1 .33.74 1.08 1.08 0 0 1-.3.84 1.37 1.37 0 0 1-.94.32A1.74 1.74 0 0 1 11 21a1.14 1.14 0 0 1-.42-.92" class="cls-3"/><path d="M9.25 16.49h.82v4.73h-.82z" class="cls-4"/><path d="M21.03 15.98v-4.73h.78v2.56l.98-1.34h.94l-1.03 1.38 1.07 2.13h-.92l-.72-1.5-.32.42v1.08zM17.75 14.3A2.9 2.9 0 0 1 18 13a1.17 1.17 0 0 1 1.06-.61 1.33 1.33 0 0 1 .93.36 1.36 1.36 0 0 1 .43 1h-.8a.9.9 0 0 0-.12-.4.5.5 0 0 0-.37-.14.54.54 0 0 0-.48.26 1.6 1.6 0 0 0-.16.73 2.5 2.5 0 0 0 .13.83.47.47 0 0 0 .47.3.53.53 0 0 0 .34-.13.62.62 0 0 0 .19-.48h.78a1.7 1.7 0 0 1-.39 1 1.22 1.22 0 0 1-.95.38 1.33 1.33 0 0 1-1-.35 2.1 2.1 0 0 1-.4-1.4M14.33 14.23a2.16 2.16 0 0 1 .39-1.3 1.31 1.31 0 0 1 1.14-.55 1.4 1.4 0 0 1 .8.24 1.6 1.6 0 0 1 .52.64 2.4 2.4 0 0 1 .2 1 2.1 2.1 0 0 1-.38 1.29 1.36 1.36 0 0 1-1.11.5 1.3 1.3 0 0 1-1.14-.53 2.2 2.2 0 0 1-.39-1.29" class="cls-3"/><path d="M16.57 14.23a1.6 1.6 0 0 0-.16-.73.58.58 0 0 0-.55-.32.54.54 0 0 0-.55.32 1.7 1.7 0 0 0-.17.73c0 .68.25 1 .72 1s.71-.36.71-1" class="cls-2"/><path d="M10.55 16v-4.75h2a1.19 1.19 0 0 1 .93.4 1.4 1.4 0 0 1 .34.94 1.45 1.45 0 0 1-.16.7 1 1 0 0 1-.46.46.56.56 0 0 1 .41.36 2.3 2.3 0 0 1 .09.68v.44a2 2 0 0 0 .06.46c0 .11.06.19.14.19V16H13c0-.1-.05-.22-.05-.31v-.86a.82.82 0 0 0-.13-.51.61.61 0 0 0-.49-.16h-.9V16h-.82" class="cls-3"/><path d="M11.37 13.35h1a.57.57 0 0 0 .63-.65.75.75 0 0 0-.12-.42.55.55 0 0 0-.46-.18h-1.05z" class="cls-2"/></svg>