<svg xmlns="http://www.w3.org/2000/svg" width="100" height="100" viewBox="0 0 26.458 26.458"><circle cx="13.229" cy="13.229" r="13.229" style="fill:#c40017;stroke-width:.908662;stroke-linecap:square;stroke-linejoin:round"/><path d="M26.252 13.278v7.99c0 .107 0 .108-.104.124l-2.413.382-2.07.328-2.25.353-1.881.299-1.699.27-2.355.371-1.534.243-1.939.306c-.052.009-.106.014-.158.025q-.067.014-.062-.053V7.884c0-.117 0-.117.116-.135l1.723-.275 1.705-.27 2.198-.345 2.431-.384 2.665-.422 2.431-.384 2.602-.41q.266-.042.53-.085c.05-.008.068.008.065.056v8.048" class="st0" style="fill:#fff;stroke-width:.0261095" transform="translate(-4.79 -1.343)"/><path d="M10.606 15.735q0-3.644-.002-7.286c0-.068.019-.089.085-.099q.792-.122 1.584-.25l1.407-.22 1.83-.29 1.823-.287 1.824-.289 1.823-.287 1.818-.288 1.83-.288.775-.125c.08-.013.08-.013.08.07q0 7.295.002 14.591c0 .051-.009.072-.066.081q-.758.117-1.515.238l-2.24.356q-.946.15-1.893.297l-1.83.29-1.975.311-1.836.292-2.07.324q-.695.108-1.388.222c-.067.011-.067-.014-.067-.064v-7.299" style="stroke-width:.0261095" transform="translate(-4.79 -1.343)"/><path d="M13.24 21.682c.007-.022.01-.039.018-.054.106-.213.133-.438.126-.674-.011-.367-.005-.734-.002-1.1.001-.063-.015-.085-.08-.097-.833-.15-1.36-.654-1.647-1.434a4.4 4.4 0 0 1-.232-1.024.5.5 0 0 0-.022-.093c-.01-.03-.025-.057-.045-.102l1.264.61c-.027.036-.088.032-.092.067-.003.044.02.09.034.135.069.219.166.423.324.594q.182.193.434.286c.053.02.062.009.062-.045v-2.028q-.001-.934 0-1.868c0-.052-.017-.08-.06-.105a6 6 0 0 1-.877-.594 2.1 2.1 0 0 1-.755-1.423c-.058-.525-.01-1.034.205-1.52.286-.644.754-1.089 1.442-1.282.033-.01.045-.021.045-.055V9.12a.1.1 0 0 0-.025-.063l-.106-.14 1.06-.139q.002.018 0 .023a.7.7 0 0 0-.074.39q.007.3 0 .6c-.003.07.021.089.085.097q.341.046.646.21c.405.217.69.549.897.952q.051.1.096.202c.033.077.051.165.156.178-.007.029-.027.034-.042.043l-.841.559c-.015.01-.031.03-.05.024-.02-.008-.01-.034-.01-.052.001-.19-.085-.354-.168-.516-.15-.294-.359-.528-.678-.644-.09-.033-.09-.033-.09.064v3.237c0 .054.016.082.062.11.329.194.654.393.956.627.37.288.682.623.869 1.061.126.296.186.605.202.924.029.598-.048 1.178-.324 1.718-.337.659-.875 1.05-1.603 1.18-.052.01-.12.004-.151.035-.033.032-.01.101-.01.154q0 .32-.002.64c0 .053.016.062.064.054l.92-.148 1.242-.197 1.247-.2 1.242-.197 2.647-.422.8-.128c.03-.004.052-.019.076-.033l.236-.137c.02.022.009.04.004.057l-.27.924c-.01.038-.026.054-.067.06q-1.107.177-2.212.354l-2.049.325-2.205.353q-1.021.163-2.042.324l-.597.098zM24.384 10.768c-.002.576-.135 1.118-.451 1.605-.3.462-.732.725-1.28.79-.299.037-.587.016-.859-.124a1.3 1.3 0 0 1-.454-.414 2.3 2.3 0 0 1-.409-1.04 3.6 3.6 0 0 1-.038-.777c.037-.58.2-1.118.57-1.576.289-.355.67-.55 1.121-.612.217-.03.432-.032.646.021.316.079.54.277.72.539.24.35.366.74.41 1.16.014.142.028.284.024.428" class="st0" style="fill:#fff;stroke-width:.0261095" transform="translate(-4.79 -1.343)"/><path d="M16.653 11.708c-.004-.555.108-1.048.364-1.503q.476-.848 1.449-.933c.291-.025.569.01.826.157.22.126.367.321.496.532.196.321.296.674.337 1.047.041.378.033.753-.053 1.124-.094.405-.25.781-.521 1.102-.272.32-.618.509-1.03.58a1.7 1.7 0 0 1-.722-.016c-.295-.079-.516-.26-.693-.504a2.35 2.35 0 0 1-.41-1.053 3.5 3.5 0 0 1-.043-.533M20.306 17.087v-.396l.026-1.419c.002-.085.01-.17.009-.255-.002-.099.036-.21-.09-.277l.016-.011.887-.14q.005.016.003.022c-.078.122-.071.259-.074.395q-.013.862-.029 1.725-.011.653-.025 1.304-.003.195-.01.39c-.002.093-.019.19.088.26-.11.032-.209.04-.306.056-.152.026-.306.047-.458.073-.06.011-.097.005-.129-.06q-.504-.99-1.012-1.977c-.014-.027-.024-.058-.063-.094v.216q-.008.54-.017 1.08a55 55 0 0 1-.022.875c-.003.065.057.087.077.145l-.887.14q-.002-.013-.002-.016c.082-.152.07-.317.073-.48l.013-.748.026-1.373q.01-.624.027-1.246c.002-.091-.007-.173-.1-.24l.34-.055c.146-.024.294-.043.44-.07.052-.01.075 0 .098.048q.53 1.045 1.061 2.088c.007.012.008.03.04.04M21.678 14.507l.479-.077 1.12-.176.888-.139c.04-.006.104.046.104.09v.79q-.007.004-.01.003c-.164-.078-.329-.027-.493-.002q-.558.087-1.116.175c-.097.015-.097.012-.098.11q-.004.285-.012.568c-.001.048.015.059.058.052l1.009-.16.378-.058c.025-.004.055-.003.074-.016.068-.046.065-.001.065.046v.821c-.141-.074-.277-.004-.411.014-.371.051-.74.115-1.11.17-.062.01-.085.027-.085.094 0 .262-.008.524-.015.786-.001.043.003.057.054.05.443-.073.887-.14 1.33-.21.129-.021.247-.08.373-.11.016.016.009.036.009.053v.749c.001.049-.01.068-.064.076q-.591.091-1.182.187l-1.24.195-.152.024q-.002-.01-.001-.013c.11-.135.073-.297.078-.448.011-.362.012-.724.018-1.086l.026-1.33q.01-.514.023-1.028c.002-.058-.01-.103-.053-.142-.017-.014-.036-.03-.044-.058M17.881 15.105c-.122.224-.07.457-.079.682-.018.41-.016.822-.023 1.233-.008.443-.014.886-.027 1.33-.006.219-.005.438-.013.658a.18.18 0 0 0 .051.143c.015.015.036.03.04.06l-.958.152c-.006-.035.01-.06.02-.083a.8.8 0 0 0 .061-.335q.01-.786.027-1.572l.025-1.298q.005-.274.011-.55c.003-.095.02-.192-.086-.27z" class="st0" style="fill:#fff;stroke-width:.0261095" transform="translate(-4.79 -1.343)"/><path d="M14.238 15.3c.525.337.948.74 1.067 1.37.098.523.074 1.04-.171 1.525a1.22 1.22 0 0 1-.827.65c-.056.015-.07.006-.07-.054q.003-1.023.002-2.047V15.3M13.375 13.657a2.6 2.6 0 0 1-.468-.416 1.06 1.06 0 0 1-.25-.624c-.03-.377-.012-.749.137-1.104a1.15 1.15 0 0 1 .581-.627zM23.531 10.944c.004.391-.06.735-.243 1.05-.134.23-.326.375-.599.405a.66.66 0 0 1-.623-.274c-.148-.192-.218-.417-.265-.65a3 3 0 0 1-.051-.96c.032-.274.101-.538.254-.774.179-.278.48-.41.803-.353.156.028.27.12.363.242.181.244.272.522.32.818.027.175.046.35.041.496M19.296 11.615c.004.383-.06.723-.238 1.035-.133.233-.325.383-.6.414a.66.66 0 0 1-.633-.281 1.5 1.5 0 0 1-.253-.614c-.084-.404-.108-.81-.02-1.217.048-.218.12-.427.258-.605.199-.254.462-.346.776-.29a.56.56 0 0 1 .345.235c.184.244.276.525.323.823.028.175.047.35.042.5" style="stroke-width:.0261095" transform="translate(-4.79 -1.343)"/></svg>