<svg xmlns="http://www.w3.org/2000/svg" xml:space="preserve" id="Layer_1" x="0" y="0" viewBox="0 0 65.8 65.8"><style>.st3{fill:#ffdea7}.st4{fill:#be2026}</style><circle cx="32.9" cy="32.9" r="32.4" fill="#fff" stroke="#fff" stroke-miterlimit="10"/><path fill="none" stroke="#be2026" stroke-miterlimit="10" stroke-width="2" d="M32.9 63 2.8 32.9 32.9 2.8 63 32.9zM6.5 32.9l26.4 26.5 26.5-26.5L32.9 6.4z"/><path d="M2.782 32.892 32.904 2.769 63.027 32.89 32.905 63.014z" class="st3"/><circle cx="32.9" cy="32.9" r="16.5" class="st4"/><path d="M32.6 25.4v14.4h-2.2V30l-3.3 8.3-3.3-8.3v9.8h-2.2V25.4h2.8l2.7 7.6 2.6-7.6z" class="st4"/><path d="M33.1 40.3h-3.2v-7.6l-2.8 7-2.8-7v7.6H21V24.9h3.7l2.4 6.5 2.3-6.5h3.7zm-2.2-1h1.2V25.9h-2l-3 8.6-3.1-8.6h-2v13.4h1.2V27.4L27 37l3.9-9.6z" class="st3"/><path d="M35.2 25.4h8.2v2.8h-8.2z" class="st4"/><path d="M44 28.7h-9.3v-3.9H44zm-8.3-1h7.2v-1.8h-7.2z" class="st3"/><path d="M35.2 31.5h8.2v2.7h-8.2z" class="st4"/><path d="M44 34.6h-9.3v-3.7H44zm-8.3-1h7.2v-1.7h-7.2z" class="st3"/><path d="M35.2 37.4h8.2v2.4h-8.2z" class="st4"/><path d="M44 40.3h-9.3v-3.4H44zm-8.3-1h7.2v-1.4h-7.2z" class="st3"/></svg>