<svg xmlns="http://www.w3.org/2000/svg" xml:space="preserve" id="Layer_1" x="0" y="0" viewBox="0 0 65.8 65.8"><style>.st9{fill:#06884b}</style><circle cx="32.9" cy="32.9" r="32.4" fill="#fff" stroke="#fff" stroke-miterlimit="10"/><path d="M3.9 40.1v-14h17.6c.2 0 .4-.1.6-.2.5-.3 1-.7 1.5-1.1 3.1-2.1 6.2-4.2 9.3-6.4l2.1 1.5c2.8 1.9 5.5 3.9 8.3 5.8q.45.3.9.3h17.6v14H44.6c-.6 0-1 .1-1.5.5-3.1 2.1-6.2 4.3-9.3 6.4-.5.3-1.1.6-1.7.1-2.9-2.1-5.9-4.2-8.9-6.3-.3-.2-.6-.4-.9-.5-.6-.1-1.3-.1-1.9-.1zm.5-11.7h56.3c.4 0 .7 0 .5-.5H4.4zm57 10.6v-.2H4.5v.2c.2 0 .4.1.6.1h16.5q.45 0 .9.3c3.4 2.3 6.7 4.6 10 6.9.4.3.7.3 1.1 0 1.8-1.3 3.6-2.5 5.4-3.8 1.2-.9 2.4-1.7 3.6-2.5.6-.4 1.1-.9 1.9-.9h16.3c.2 0 .3 0 .6-.1m-19-3.2H12.1c-.4 0-.6.1-.5.6 0 .5.4.3.7.3h30.2c-.1-.3-.1-.6-.1-.9m19 2.1-.1-.1H4.7c-.1 0-.2.1-.3.2.1.1.2.2.3.2h56.4c.1-.1.2-.3.3-.3m-.1-10.8v-.2H44.2c-.3 0-.7-.1-1-.3l-3-2.1c-2.3-1.6-4.7-3.3-7-4.9q-.3-.3-.6 0c-.4.3-.9.6-1.4 1-2.8 2-5.7 4-8.6 6-.3.2-.7.3-1 .3H5c-.2 0-.4 0-.6.1v.1zm-56.4 9h1.2c.9.1 1.8.6 2.8.3.9-.2 1.6-.7 1.8-1.6s-.1-1.9-.9-2.3c-.7-.4-1.6-.6-2.3-.8-.4-.1-.8-.3-.8-.9s.3-1 .8-1.1c.8-.1 1.5.3 1.8 1.2 0 .1.1.3.2.6.4-.8.7-1.5 1-2.1-.5 0-1-.1-1.4-.1-.5-.2-1.1-.3-1.7-.3-1.1 0-2.1 1.1-2 2.2 0 .9.6 1.6 1.8 1.9.6.1 1.2.2 1.7.5.3.1.6.5.7.9s0 .9-.5 1.1c-.6.3-1.9.3-2.3-.2-.3-.4-.6-.9-.9-1.4-.3.7-.6 1.4-1 2.1m21.2-2.8c-.3-.9-.5-1.7-.8-2.6-.1-.4-.3-.4-.6-.3-.3 1-.7 2-1 3.2-.1-.5-.3-.9-.3-1.2-.1-.6-.6-1.2 0-1.8v-.1h-2.2c.1.2.3.4.3.5.2.3.4.6.5.9.2.7.4 1.3.6 2 .1.3.2.6.2.8 0 .3-.3.5-.4.7h2c-.1-.2-.3-.3-.3-.4-.1-.2-.2-.4-.1-.6.1-.6.4-1.1.6-1.8.2.6.3 1.1.5 1.5.2.5.3.9-.4 1.2h2.1c-.5-.7-.5-.7-.2-1.7 0-.1.1-.3.1-.5.3-.9.6-1.9 1-2.8.1-.4.5-.7.7-1.1l-.1-.1c-.6.3-1.3.6-1.9.9.8 1.2 0 2.2-.3 3.3m18.3-3.4.4.4c.4.3.5.7.5 1.2v3.7c0 .6-.1 1.1-.7 1.4.2.1.4.1.5.1h10.1v-1h-8.9v-4c0-.5-.1-1 .4-1.4.1-.1.1-.2.1-.4zm-14.1.5c-.9-.1-1.6-.1-2.4.1.7.4.7 1 .7 1.5v1.2c0 .8.3 1.6-.8 2.2h1.9c-.2-.3-.5-.6-.5-1-.1-.7 0-1.5 0-2.3.2.1.3.3.4.5l1.2 2.4c.1.2.3.4.5.4s.4-.3.4-.4c.3-.7.4-1.3.7-2h.1c-.3.7.4 1.7-.6 2.4h1.9l.1-.1c-.7-.3-.5-.8-.6-1.3v-1.9c0-.5-.1-1.1.4-1.5v-.2H32c.1.3.2.7.1.9-.3.9-.6 1.7-.9 2.7l-1.5-3q.3-.15.6-.6m-12.1 0c.8.7.2 1.3 0 1.9-.2-.1-.4-.1-.5-.2-.1.3-.3.5-.3.6.2.2.4.5.4.6-.3.6-.7 1.1-1.1 1.6-.1.1-.2.2-.3.4h2.1c-.2-.2-.5-.4-.4-.6.1-.4.3-.7.4-1.1.3.3.5.5.7.8l.7-.7c.3.6.6 1.1-.1 1.6h2.3c-.9-.6-.9-1.5-1.2-2.3h.7c-.1-.4-.3-.8-.4-1.2-.2.1-.4.3-.6.4-.2-.6-.7-1.2-.3-1.9-.7.1-1.3.1-2.1.1m-4.1 0-.1.1c1 .5.6 1.3.7 2.1h-1.4c0-.8-.2-1.6.5-2.2h-2l-.1.1c.9.5.4 1.3.6 2-.4.1-.7.4-.6.8.2 0 .4-.1.6-.1-.1.7.3 1.5-.6 2.1h1.9c-.4-.8-.5-1.2-.3-2h1.3c-.1.7.3 1.5-.6 2h2c-.2-.3-.5-.5-.5-.7.1-1.4-.5-2.9.4-4.3-.5.1-1.2.1-1.8.1m38.8 5c-.2-.3-.5-.7-.6-1-.1-.8 0-1.6 0-2.6.1.3.3.4.3.5.4.8.8 1.6 1.2 2.5.3.7.5.7 1.3.5v-3.5c0-.5 0-1 .6-1.2v-.2h-1.6c-.1 0-.2.1-.3.1l.2.2c.1.2.3.4.3.6v2.5h-.1c-.5-.9-1-1.8-1.5-2.6.2-.2.3-.4.6-.7H51c-.1 0-.1.1-.2.1 1 .4.7 1.3.7 2v.9c0 .7.1 1.5-.7 2 .9-.1 1.5-.1 2.1-.1m6.3-1.7v-1.9c-.4.6-.8.8-1.5.6v-1.3c.4 0 .8-.1 1.2 0 .3.1.6.4.9.6.2-.4.4-.8.6-1.3h-4.3l.4.4c.1.4.2.9.2 1.3 0 .1-.3.2-.3.4-.1.2-.3.4-.4.7l.1.1c.2-.1.3-.1.6-.3-.2.8.4 1.7-.6 2.3h4.3c-.3-.5-.5-1-.8-1.5-.4.8-.8 1-1.9.7v-1.7c.3 0 .6 0 .8.1.3.3.5.5.7.8m-25.1-3.3c0 .1 0 .3.1.3.4.2.5.6.4 1v2.1c0 1.2.3 1.6 1.5 1.7 1.1.1 1.9-.2 1.9-1.6v-1.6c0-.7-.2-1.4.5-1.9h-1.7c.2.3.5.6.5.8v3c0 .4-.2.7-.7.6-.4 0-1 .1-1-.6-.1-1.3-.4-2.6.4-3.9-.7.1-1.3.1-1.9.1m5.3 1.5c.3-1 .6-1.1 1.6-.8v2.8c0 .5.2 1.1-.5 1.4h1.8c-.6-.4-.4-.9-.4-1.5V31c1.4-.1 1.4-.1 1.7.7.2-.4.4-.9.6-1.4h-5.7c.4.6.6 1 .9 1.6m9.4-1.6-.1.1c.7.6.5 1.3.5 2v1.4c0 .6.2 1.2-.5 1.6h2.1c-.8-.5-.6-1.2-.6-1.8v-1.5c0-.5-.1-1.1.4-1.5v-.2c-.7-.1-1.3-.1-1.8-.1m7.5 6.4h4.1c.3 0 .5-.1.5-.4 0-.4-.2-.4-.5-.4h-4.1z" class="st9"/><path d="M23 39.2h20c-.5.4-.9.7-1.4 1-2 1.4-4.1 2.8-6.1 4.2l-2.1 1.5c-.4.3-.6.3-1 0-1.6-1.2-3.2-2.3-4.8-3.4-1.5-1-2.9-2-4.4-3.1-.1 0-.2-.1-.3-.1zm19.9-12.3H23.1c.3-.3.6-.5.9-.7 2.8-2 5.6-3.9 8.4-5.9.4-.3.7-.3 1.1 0 2.7 1.9 5.4 3.8 8.2 5.6.3.3.7.6 1.2 1m-24.3 5.9c.1-.4.3-.7.5-1.1.1.3.3.6.4.9v.6c-.2 0-.4-.1-.5-.1-.2-.1-.3-.2-.4-.3" class="st9"/></svg>