<svg xmlns="http://www.w3.org/2000/svg" viewBox="0 0 31.18 31.18"><defs><style>.cls-2{fill:#231f20}.cls-3{fill:#ffcb05}.cls-4{fill:#00aeef}</style></defs><g id="diecut"><circle cx="15.59" cy="15.59" r="15.59" style="fill:sienna"/><path d="M29 19v-4.26c.15-.81-3.54-.26-3.88-.41-1.3-10.85-17.62-10.86-18.91 0C.6 14.24 2.59 14 2.24 19c-.19.83 4.37.25 4.69.41 2.83 7.48 14.62 7.46 17.47 0 .34-.16 4.77.42 4.6-.41" class="cls-2"/><path d="M8.8 15.85a1.44 1.44 0 0 1-.9 1.27l.29 1.22h-.68l-.33-1.19h-.51l-.52 1.17h-.62l1.09-2.76A6.2 6.2 0 0 1 3.93 15c.74.23 5.09-.7 4.87.86M9.91 16.43l-.76 1.89h-.61l.74-1.89zM11.83 17.37c-.06 1.22-2.07 1.52-1.79 0 .08-1.21 2.06-1.5 1.79 0M23.66 19.39c-2.79 6.61-13.3 6.61-16.09 0h2.76a6.44 6.44 0 0 0 10.2 0zM10.14 15.91a.32.32 0 0 1-.64 0 .32.32 0 1 1 .64 0" class="cls-3"/><path d="M20 19.39a6 6 0 0 1-9.1 0z" class="cls-4"/><path d="M16.5 15.87h-.7c-.38-.6-1.25-.06-1.32.58h2c0 1.89-3 3-2.78.57a3 3 0 0 1-1.58-.57h1.72c.18-1.37 2.46-2.23 2.66-.58M18 16.43l-.1.57c-.64-.06-.85.88-1 1.32h-.64L17 16.4h.64v.13a1 1 0 0 1 .41-.1" class="cls-3"/><path d="m20.18 16.36-.78 2h-.62c-1.71.31-.46-2.51.72-1.83v-.09h.62" class="cls-3"/><path d="M21.23 14.33H9.63c1.08-6.11 10.51-6.1 11.6 0" class="cls-4"/><path d="m22.32 17.11-.49 1.21h-.62c0-.15.8-1.43.29-1.38s-.72 1.08-.89 1.38H20l.78-2h.63l-.08.19c.4-.3 1.21-.28 1 .56M24.46 14.33h-2.78c-1-6.7-11.48-6.7-12.51 0h-2.4C8 4.2 23.23 4.2 24.46 14.33" class="cls-3"/><path d="m25.59 15-1.32 3.33h-.63c-1.7.3-.43-2.51.74-1.83l.35-.89c-.94.1-3.95-.06-4.4-.57h5.24M27.15 17.37v.15h-1.23c-.08.37.2.45.47.3l.31.37a.81.81 0 0 1-1.36-.78c.09-1.19 2.05-1.51 1.81 0" class="cls-3"/><path d="M11.19 21.51v.18h-.16l-.11-.08.17-.21.12.09m.27.33c.28-.37-.23-.64-.45-.83l-.81.93.27.22.29-.32.08.08-.06.47.27.19v-.58a.45.45 0 0 0 .39-.14ZM16.72 23a.35.35 0 0 1-.24.17v-.28h.14l.14.15m.54.7-.37-.41c.44-.63-.29-.8-.78-.62l.12 1.22.35-.07v-.41h.1l.33.35Z" class="cls-2"/><path d="M18.16 22.72a.51.51 0 1 0-1 .35.52.52 0 1 0 1-.35m-.24.1a.29.29 0 0 1-.13.42c-.68.08-.22-1.13.13-.42M10.88 20.89l-.2-.21-.33.37-.21-.2.35-.37-.18-.19-.89.85.21.22.31-.31.2.21-.31.31.23.23zM10.18 20.11l-.45-.62-.25.21.11.2-.64.62.16.25.7-.62.17.16zM12.55 22l-.27-.14-.39.61-.23.07v-.23l.42-.58-.25-.16c-.18.33-.88.95-.31 1.27s.8-.55 1.05-.84M13.78 22.45l-.78-.24-.08.33.27.08-.25.89.29.08.22-.87.23.06zM14.77 22.64l-.29-.04-.06.49-.29-.04.08-.5-.26-.03-.21 1.19.31.06.06-.43.27.04-.04.43.31.05zM8.25 16c.1-.63-.68-.32-1-.39l-.39 1c.47 0 1.37.06 1.38-.6M15.45 22.95v-.29h-.6l-.06 1.22.66.02v-.25h-.35v-.23h.33v-.22h-.31v-.27zM11.27 17.39c.1-1.22-1.29.33-.41.48.27 0 .37-.21.41-.48" class="cls-2"/><path d="m19.3 22.66-.3-.08c-.28.67-.92-.4-.25-.39v-.25c-1.37-.13.06 2.12.5.72M15.67 17h-1.31c-.3 1.11 1.21.89 1.31 0M20.47 22.12l-.85-.2v-.7l-.3.25v.43l-.23-.33-.27.18.68 1 .27-.2c-.06-.08-.16-.23-.14-.33l.47.12.35-.25M20.86 21.75l-.87-.86-.24.23.86.88zM11.11 10.4l-1.3-1.19-.39.41.14.84-.9.08-.29.45 1.44 1.07.27-.47-.72-.53.86-.04-.2-.87.74.68zM21.48 21.12l-.19-.17-.25.27-.16-.15.23-.26-.19-.15-.21.25-.18-.16.23-.27-.21-.17-.41.46.9.82zM21.91 20.58c.34-.64-.3-.7-.74-.41l-.06-.12a.33.33 0 0 1 .28-.17v-.2c-1 0-.49 1.21.27.57v.19l-.2.08v.27a.53.53 0 0 0 .45-.21M19.17 17.33c.33-.69-.55-.41-.62 0-.16.69.57.44.62 0M20.39 14.16l-1.03-1.46-.68.39-1.03-1.41-.33.28-1.25-1.89-.64.76-.47-.37-1.3 2.06-1.19-1.32-1.9 2.96zM13.47 9.12l-.61-1.68-.5.18.62 1.69zM24.05 17.33c.32-.67-.55-.43-.62 0-.18.68.57.45.62 0M15.47 8.84V7l-.56.04.05 1.01-.87-.86-.57.1.35 1.75.51-.08-.15-.89.77.79zM17.92 8.84l-.62-.25.33-1.26-.54-.14-.45 1.73a4.4 4.4 0 0 1 1.11.37zM26.68 17.11c0-.39-.55-.33-.62 0zM19.32 7.97l-.5-.25-.76 1.61.43.27zM22.52 11a4.1 4.1 0 0 0-.69-1l-1.47 1.15a5.6 5.6 0 0 1 .68.92l.39-.26-.37-.56.19-.14.41.53.31-.26-.41-.54.24-.18.44.61.28-.29M21.46 9.45l-.44-.35-.7.74.02-1.23-.49-.33-.97 1.48.42.31.51-.72-.02 1.09.35.33zM11.75 9.19l-.25.16-.12-.45zm1 .18-1.5-1.15-.39.29.43 1.81.44-.29-.09-.31.46-.29.24.21Z" class="cls-2"/><path d="m16.87 12.04-.74-.26-.41.18-.52-.18-1.15.63.91-1.48.55.37.47-.76z" style="fill:#fff"/></g></svg>