<svg xmlns="http://www.w3.org/2000/svg" id="Layer_1" data-name="Layer 1" viewBox="0 0 31.18 31.18"><defs><style>.cls-1{fill:#2a358b}.cls-2{fill:#fff}.cls-3{fill:#ed2224}</style></defs><path d="M31.18 15.59a15 15 0 0 0-4.57-11A15 15 0 0 0 15.59 0a15 15 0 0 0-11 4.57A15 15 0 0 0 0 15.59a15 15 0 0 0 4.57 11 15 15 0 0 0 11 4.57 15 15 0 0 0 11-4.57 15 15 0 0 0 4.61-11" class="cls-1"/><g id="New_Symbol_21" data-name="New Symbol 21"><g id="New_Symbol_18" data-name="New Symbol 18"><path d="M4.82 14.9c-.13 3.64-5.71 1.58-3.5-1.28l.61.58c-1.41 3 4 1.78 1.41-.11l-.09.7-.81-.14.2-1.55c1.45.15 2.18.75 2.18 1.8M5.62 11.07l-.22.71H3.88l-.09.26 1.36.45-.22.67L1.32 12c.1-1.47 1.88-2.73 2.6-.94Z" class="cls-2"/><path d="M3.23 11.65c.28-.88-1-.93-1.06-.09l1 .31Z" class="cls-1"/><path d="m6.72 9.23-.83 1.37-3.22-2.02.85-1.34.56.35-.47.74.67.43.47-.76.56.36-.47.73.85.54.47-.74zM8.71 6.99l-.51.51-.61-.4-.49.52.38.6-.51.51-2.11-3.24.63-.61z" class="cls-2"/><path d="M5.19 15.62c.06 13.6 20.75 13.6 20.81 0S5.25 2 5.19 15.62" class="cls-2"/><path d="M25.65 15.59a9.9 9.9 0 0 1-4.91 8.65 8.6 8.6 0 0 1 0-2.35 2 2 0 0 1-.27-.34c-1.39-5.55 3.75-5.29-3.63-8.29-.39-2-2.61-3.12-4.39-3.58a2.3 2.3 0 0 0 .63-.5 1.4 1.4 0 0 0-.65.06c-1.69.46.9-1 .91-1.11-.67-.22-1.62.63-2.1 1a1.3 1.3 0 0 0 .29-.42s-.12 0-.27.09h-.18c-.13-.17 1-1 .9-1.07-.83 0-1.38.94-1.84 1.54-1.17.14-.94.7-1.05 1.55a3.6 3.6 0 0 0-.74 1.08c.09 0-.08.88.23 1a.31.31 0 0 1 .19.28c0 1.09 1.35-.72 1.71-.18 0 1.35.48 2.76 1.23 2.82.33 1.87.6 2.81.81 2.83.61.07.87.44.78 1.1a7 7 0 0 0 0 1.14 3.4 3.4 0 0 0-1.13 1.86c.26 4.69-3.78 0-5-1.62-8.51-15.2 17.45-22.83 18.48-5.54" class="cls-3"/><path d="M9.41 26a1.16 1.16 0 0 1-1 .49l-.52 1.62-.6-.45.47-1.44-.22-.18-.86 1.15-.58-.43 2.29-3c.72.49 1.73 1.33 1.02 2.24" class="cls-2"/><path d="m6.99 6.72-.83-.56.54.85z" class="cls-1"/><path d="m10.13 6.18-.63.38-1.64-2.64-.69.42-.34-.55 1.95-1.24.36.56-.67.43z" class="cls-2"/><path d="M8.83 25.61c.3-.37 0-.69-.32-.88l-.6.81c.27.28.68.46.92.07" class="cls-1"/><path d="m11.7 25.76-.74 3.81-.68-.29.14-.72-.65-.27-.4.58-.68-.26 2.22-3.19z" class="cls-2"/><path d="m10.75 26.88-.56.83.38.16z" class="cls-1"/><path d="m13.31 26.23-.9 3.68-.69-.16.91-3.68zM14.92 4.64l-.65.09-1.16-1.68.29 1.83-.72.12-.58-3.75.65-.11 1.16 1.66-.29-1.79.72-.11zM15.48 29.61l-.04.65-1.55-.06.2-3.79.7.05-.16 3.11z" class="cls-2"/><path d="M18 21c.06 2.3-.5 2.1-2.15 1-.73-.6-2.52-.42-1.65-1.23 0-.38-.21-2.16-.21-2.06-.1-.22.85-.19.91-.58.92-.74 1.23 1.59 1.83 2.17.63-.03 1.27-.16 1.27.7" class="cls-3"/><path d="M19.13 2.91c.06 2.59-4 2.59-4 0s4.06-2.58 4 0M19.33 29.81l-.83.16-.65-1.59-.09 1.73-.83.13-1.25-3.6.78-.16.61 1.63v-1.72l.81-.16.6 1.61.02-1.72.79-.14z" class="cls-2"/><path d="M18.3 2.91a1.16 1.16 0 0 0-2.31 0 1.16 1.16 0 0 0 2.31 0" class="cls-1"/><path d="M19.67 23.86c-1.47-.25-1.64-1.44-.81-2.45.65-.41 1.02 2.1.81 2.45" class="cls-3"/><path d="M21.93 3.63a1.11 1.11 0 0 1-.85.74L21 6.05l-.7-.29.11-1.5-.27-.12-.55 1.3-.65-.27 1.47-3.49c.8.32 2 .86 1.52 1.95M22.87 28.38l-.67.32-.43-.59-.65.29.18.72-.67.29-.87-3.76.78-.36z" class="cls-2"/><path d="M21.28 3.36c.21-.4-.14-.66-.51-.78l-.41.94c.35.19.77.26.92-.16M21.35 27.53l-.61-.81.23.99z" class="cls-1"/><path d="m24.91 26.95-.56.45-1.1-1.42-1.88-1.07.61-.47.87.45-.22-.97.6-.47.58 2.09zM24.75 4.1l-.35.54-.68-.45-1.74 2.6-.59-.41 1.75-2.59-.67-.45.38-.54zM26.95 6.25l-2.73 2.62-.5-.51 1.21-1.17-.63-.63-1.18 1.17-.49-.52 2.71-2.64.49.51-1.03 1.01.6.65 1.06-1zM28.56 8.71l-.56.34-.47-.76-.67.4.47.76-.58.34-.45-.74-.87.52.47.73-.58.36-.81-1.36 3.22-1.95zM29.55 11.09a1.2 1.2 0 0 1-1.84 1.39l-1.37 1-.22-.72 1.21-.9-.09-.27-1.37.45-.22-.69L29.17 10ZM30.22 16.31l-3.79.13-.02-.65 1.84-.96-1.86.07-.03-.72 3.79-.14.03.68-1.8.94 1.82-.05z" class="cls-2"/><path d="m28.92 11.29-.07-.2-1 .31c.05.89 1.33.73 1.07-.11" class="cls-1"/></g></g></svg>