<svg xmlns="http://www.w3.org/2000/svg" id="Layer_1" data-name="Layer 1" viewBox="0 0 31.18 31.18"><defs><style>.cls-1{fill:#ef4129}.cls-1,.cls-10,.cls-2,.cls-3,.cls-4,.cls-5,.cls-6,.cls-9{fill-rule:evenodd}.cls-2{fill:#fff}.cls-3{fill:#fffefe}.cls-4{fill:#fffcfb}.cls-5{fill:#fefbfa}.cls-6{fill:#fffdfd}.cls-9{fill:#fef9f8}.cls-10{fill:#fefafa}</style></defs><g id="New_Symbol_20-11" data-name="New Symbol 20"><g id="New_Symbol_16-10" data-name="New Symbol 16"><path d="M31.18 15.59c.3 20.23-31.48 20.23-31.18 0-.29-20.23 31.48-20.23 31.18 0" class="cls-1"/><path d="M15.6 4h6.25a.78.78 0 0 1 .61.23c1.57 1.5 3.14 3 4.73 4.49a.77.77 0 0 1 .28.62v12.5a.74.74 0 0 1-.26.59q-2.37 2.23-4.73 4.57a.82.82 0 0 1-.63.27H9.3a.74.74 0 0 1-.56-.27Q6.37 24.69 4 22.4a.71.71 0 0 1-.24-.55V9.3A.72.72 0 0 1 4 8.75c1.58-1.51 3.16-3 4.72-4.56A.78.78 0 0 1 9.31 4Z" class="cls-2"/><path d="M4.77 15.5V9.71a1 1 0 0 1 .3-.71c1.34-1.27 2.68-2.56 4-3.85a.8.8 0 0 1 .6-.24h11.78a.8.8 0 0 1 .61.24q2.09 2 4.2 4a.82.82 0 0 1 .29.67v11.59a.75.75 0 0 1-.22.6c-1.43 1.36-2.86 2.74-4.28 4.11a.68.68 0 0 1-.52.21H9.66a.67.67 0 0 1-.52-.33L5 22a.78.78 0 0 1-.23-.61z" class="cls-1"/><path d="M10.2 8.81c.66-1.27.89-2.75 2.66-2.32-2 2.39-.52 3.95-.49 5.83-1.7.32-1.52-1-2.25-2.14.13 1.31.09 2.71-1.55 2.05-.31-1.6 0-3.65-.1-5.37 0-.27.06-.38.35-.36 1.97-.5 1.07 1.25 1.38 2.31M10.74 18c-1.1-.76-3.55.24-1.25.64 3.12.61.93 4.6-1.57 3.61-1.39-.33-1.16 0-.92-1.52.37-.58 2 .83 2.47-.26C8 19.7 5.34 18.84 7.7 16.81c.88-.1 1.73.85 2.75.66.37-.01.21.27.29.53" class="cls-2"/><path d="M11.66 13.64c-1-.6-2.78-.35-2.72 1 0 1.74 2.37.59 2.72 1.17-.05.7.22 1.28-.69 1.3-3.69 1.16-5.39-5.32-1.05-4.64.63.13.24-.47.54-.68.44 0 .34.82.95.63.49.08.15.82.25 1.22" class="cls-2"/><path d="M15.64 20.7a11.4 11.4 0 0 1-2.73 3.3 15 15 0 0 0 2.43.43c-.8.4-8 1.49-6.06-.47 1.16-.81 2.79.55 3.64-.61 1.08-.86 1.08-3.08 2.72-2.65M16.76 17.15c2-6.48 11.69-6.63 4.6-1.2 3.41-3.28.73-5.66-1.87-1.65-1 .89-1.1 3.19-2.73 2.85" class="cls-3"/><path d="M15 9.62c-.12 3.09-1.17-.9-.44-1.58.74-.26.74.65 1.1 1.12.1-2.67.94.05.61 1.24-.25 1-1.14-.15-1.2-.79Z" class="cls-4"/><path d="M23.05 19.18c-.31 4.09-1.66-4.82.66-.51.47-4.3 1.34 4.78-.57.48Z" class="cls-3"/><path d="M18.76 19c.13.57-.11 2-.7 1.06 0-.25.16-.8-.21-.81-.57.06.18 1.09-.53 1.08-.35 0-.34-.18-.34-.43 0-1.22-.09-3.7.91-1.31.36 0 .14-.39.16-.59.5-1.18.88.36.71 1" class="cls-5"/><path d="M19.39 8.06c.91-.24 1.11 2.24.95 2.65-.59.26-.43-.59-.95-.5-1.79 2.09-.83-2.56 0-2.15M13.23 8.05c.94-.14 1 2.1 1 2.65-.6.29-.46-.54-1-.5-.28 0-.36.11-.41.36s-.86.19-.6-.14c.31-.71-.04-2.53 1.01-2.37M22.24 20.17c-.77.62-.93-1.71-1.11-.38-.59 1.88-1.19-2-.42-2.18 2.16-.34 1.01 1.39 1.53 2.56M13.18 18.69c.09-.39-.26-1.09.38-1.07.87.19-.18 1.84.53 2.18.64-.36-.3-2 .51-2.17 1.72 1.37-1.6 4.72-1.42 1.06" class="cls-6"/><path d="M11 18.89c.21-2.48 2.84-.83 1.82.89-.59 1.22-1.99.22-1.82-.89" style="fill-rule:evenodd;fill:#fffdfc"/><path d="M18.61 22.11c1.48-1 .78.72.12 1.39 1.1-.2 1.12-1.59 2.33-1.72a.45.45 0 0 1 .4.81c-.65.42-2.56.77-.85 1.16-.64.51-.92-.17-1.41-.13-2.59 1 .23-1.18-.59-1.51" class="cls-5"/><path d="M16.63 10c.32 0 .87.31 1-.13-.19-.51-1.33-.32-1.15-1.09-.1-.8 1.72-1.22 1.71-.38-.09.54-1-.29-1.08.35.12.58 1.37.13 1.25 1.06.16.93-2.18 1.39-1.73.19" style="fill-rule:evenodd;fill:#fffbfb"/><path d="M21.69 8c.4-.16 1 .52.3.6-.28-.07-.71-.22-.79.15s.4.28.64.36a.8.8 0 0 1 0 1.54c-.53.33-1.79-.34-.88-.58.25.05.66.2.74-.16s-.25-.3-.44-.35c-1.26-.27-.63-1.8.43-1.56" class="cls-4"/><path d="M13.43 14.45c-.08-.31.2-.94-.2-1s-.26-.19-.27-.38c0-.41 1.7-.42 1.72 0 0 .17.06.4-.25.36-.48.16-.1 1.07-.21 1.53-.03 1.18-1.14.31-.79-.51" class="cls-9"/><path d="M14.88 12.9c.67-.28.87.17 1.07.72.23-.53.44-1 1.09-.73-.86.68-.4 2.23-1 2.63-.84-.22-.19-1.97-1.16-2.62M19 19c.08-.39-.18-1.05.1-1.3.32 0 1.2-.25 1.08.29 0 .35-.61-.05-.54.45s.59 0 .56.48-.61 0-.57.53.71.07.62.63c-.82.77-1.5-.08-1.25-1.08" class="cls-10"/><path d="M15.58 19.26c-.09-.35.25-1-.32-1-.23 0-.16-.21-.17-.34 0-.44 1.63-.4 1.7-.06.17.53-.65.3-.46.85.36 1.29-.82 2.62-.75.55" class="cls-6"/><path d="M12.76 14.2c-.09 3-1.19.38-.82-1.1.65-1.02.98.43.82 1.1" class="cls-10"/><path d="M21.53 23a13 13 0 0 1 1.7-1.27 3.55 3.55 0 0 1-.79 1.82l1.22-.07c-.26.68-1.93.67-2.28.17.44-.32 1.18-.17 1.14-1.1-.3.11-.86.79-.99.45" style="fill-rule:evenodd;fill:#fefaf9"/><path d="m18.61 22.11.1.1c-.74.51-1.13 1.84-2.15 1.66.14-.35 1.3-1.44.59-1.31.32-.35 1.12-1.21 1.14-.28ZM16.24 23.4c-2.11 1.91-1-1.79.43-1.55a11.3 11.3 0 0 0-1.33 1.9c.37-.01.78-.75.9-.35" class="cls-9"/><path d="M16.86 20.74a.38.38 0 1 1 0 .75.38.38 0 1 1 0-.75" style="fill-rule:evenodd;fill:#fef8f7"/><path d="m21.53 23 .11.11c-.31.21-.79.76-1.15.52Z" style="fill-rule:evenodd;fill:#fae6e4"/><path d="m16.24 23.4-.11-.11c.16-.16.3-.36.56-.35-.04.26-.28.33-.45.46" style="fill-rule:evenodd;fill:#f7d9d7"/><path d="M16.69 22.94c0-.23.22-.24.36-.33 0 .2-.14.34-.36.32Z" style="fill-rule:evenodd;fill:#f8dddc"/><path d="M11.12 24.3c-.51.23-1.25.59-1.6.15.27-.45 1.06-.27 1.6-.15M19.4 8.91c0 .32.21.48.12.69-.47.16-.25-.36-.12-.69M13.3 9c0 .32.24.47 0 .67-.38.04-.19-.4 0-.67M21.16 18.08c.86 0 0 1.27-.08.51.02-.18-.08-.38.08-.51M12.34 19c-.05 1.81-1.09.26-.56-.7.34-.7.61.32.56.7M20.26 22.83c.17-.44.74-1.07 1.16-.76.12.54-.74.59-1.16.76" class="cls-1"/></g></g></svg>