<svg xmlns="http://www.w3.org/2000/svg" data-name="Layer 1" viewBox="0 0 31.18 31.18"><g data-name="New Symbol 20"><path d="M31.18 15.59C31.09 36 .09 36 0 15.59c.09-20.39 31.09-20.39 31.18 0" style="fill:#fff;fill-rule:evenodd"/><path d="M23.69 15.52c.15 10.63-16.17 10.64-16 0-.17-10.63 16.15-10.62 16 0" style="fill:#ed2224"/><path d="M29.36 15.59c0 18-27.57 18-27.54 0s27.57-18.02 27.54 0m-.78 0c0-17-26-17-26 0s26.01 16.97 26 0m-22.09 1H3.35V16l1.52-.75H3.35v-.58h3.14v.54L4.94 16h1.55Zm-.78-2.36c-1.65.22-3.14-1.92-.94-2.09 1.64-.21 3.11 1.92.94 2.1Zm.52-.82c.19-.43-1.74-1-2-.45s1.77 1.04 2 .46Zm1.66-2.69-.28.54-1.23-.15-.11.23 1.06.5-.26.55L4.25 11c.19-1.18 1.92-2 2.24-.46Zm-2 .19c.35-.67-.72-.91-.84-.21l.77.4Zm2.7-1-.36.47-2.11-1.57-.39.52L5.28 9l1.15-1.54.45.34-.41.54Zm1.83-1.77-.45.39L9 7.46 8.47 8l.92 1-.45.4L6.86 7l.45-.39.79.9.56-.47-.79-.91.45-.4ZM24 15.59c.23 10.88-17 10.88-16.74 0C7 4.71 24.2 4.71 24 15.59m-13.55 8.69a1 1 0 0 1-.86.41L9.16 26l-.5-.38.39-1.19-.19-.13-.71.93-.48-.35 1.9-2.51c.64.42 1.43 1.12.88 1.91m8.84-12.13c.07-5-6.38-4.82-8.95-1.82-4.7 4.35-1.18 13 5.25 12.68a3.76 3.76 0 0 1-2.71-6.3c1.99-1.79 6.47-.71 6.41-4.56M10 23.92c.25-.3 0-.55-.27-.73l-.5.68c.21.21.54.37.77.05m1.91-16.63-1.16.62-1.49-2.78 1.17-.62.27.49-.7.35.32.56.68-.34.27.49-.64.34.39.74.64-.35Zm.45 16.77-.62 3.15-.56-.21.11-.58-.54-.24-.34.5-.56-.24 1.85-2.64Zm-.79.93-.48.67.31.13ZM14.3 6.57l-.58.15-.71-1-.22.07.3 1.14-.59.07-1-3c1.07-.61 2.95-.16 2 1.33Zm-.6 17.88-.76 3.06-.58-.15.77-3.06Zm-.54-19.83c-.09-.37-.44-.36-.75-.24l.23.82c.36-.07.65-.2.52-.58m2.34 22.63v.56l-1.29-.07.17-3.14h.6l-.15 2.6Zm1.32-23.79-.06 3.14h-.53L15.51 5v1.55h-.6l.06-3.14h.56L16.2 5V3.48Zm1.89 24-.69.11-.55-1.33-.07 1.44-.69.11-1.05-3 .66-.11.5 1.35v-1.47l.67-.11.51 1.34v-1.44l.65-.11Zm2.93-1.22-.54.26-.36-.5-.54.26.13.58-.54.26-.73-3.1.66-.3ZM21 6.62a1.5 1.5 0 0 1-.67-.21l-.63 1.11-.52-.28 1.47-2.79c1.17.24 1.96 2.09.35 2.17m-.56 18.91-.5-.67.18.82Zm2.95-.48-.46.35a5.7 5.7 0 0 0-2.47-2.06l.48-.39.75.37-.19-.8.49-.39a5.9 5.9 0 0 0 1.35 2.92Zm.21-18.71L22.09 9.2l-.47-.37.27-.55-.45-.37-.44.37-.47-.37 2.49-2Zm-2.28-.49c.19-.29-.08-.51-.36-.63l-.37.69c.2.17.53.28.68-.06ZM22.54 7l-.64.53.27.22Zm3.16 1.86-.51.38c-.19-1.92-3.16.38-1.36 1l-.52.38c-2.11-1.4 1.63-4.19 2.39-1.76m.89 1.44-2.8 1.44-.28-.54 2.82-1.42Zm.84 2.26-.54.17-.2-.71-.62.19.21.71-.53.16-.22-.7-1.33.41-.2-.58 3-.92Zm.23 1.2-3.1.54-.11-.6 3.1-.54Zm.13 1.94a1.9 1.9 0 0 1-.07.54h-.64c1.11-1.63-2.82-1.63-1.72 0h-.63c-.91-2.06 3.16-2.58 3.06-.54" style="fill:#231f20"/></g></svg>