<svg xmlns="http://www.w3.org/2000/svg" data-name="Layer 1" viewBox="0 0 29 29"><circle cx="14.5" cy="14.5" r="14" fill="#9acd32" transform="rotate(-76.63 14.497 14.498)"/><path d="m24.68 8.62-5.2 16.14c-.07.2-.17.3-.32.3H9.06a.34.34 0 0 1-.35-.3L4.32 8.67c0-.1 0-.15.14-.15h3.15c.17 0 .23 0 .18-.14L6 5.29c0-.08 0-.11.12-.11h16.7c.15 0 .2 0 .16.12l-1.74 3.08c0 .1 0 .14.17.14h3.13c.11 0 .16.03.14.1m-.79.51c0-.07 0-.11-.12-.11h-3.22c-.16 0-.22 0-.17-.14L22 5.77c0-.09 0-.14-.14-.14H7.06c-.13 0-.17 0-.13.11l1.83 3.14c.06.09 0 .14-.18.14H5.15C5 9 5 9.08 5 9.19l4.1 15a.36.36 0 0 0 .36.3h9.28c.15 0 .25-.1.32-.3zm-.62.45-4.54 14.18c-.06.2-.17.3-.32.3h-8.6a.36.36 0 0 1-.36-.3L5.59 9.63c0-.1 0-.15.14-.15h3.64c.17 0 .22-.05.17-.14L7.72 6.2c0-.07 0-.11.13-.11h13.32c.14 0 .19 0 .14.13l-1.55 3.12c-.05.09 0 .14.16.14h3.21c.11 0 .16.03.14.1m-8.95 3.31a1.21 1.21 0 0 0-.61-1.05 2.17 2.17 0 0 0-1.25-.38H9.41c-.44 0-.68 0-.72.11s0 .13 0 .25a1.4 1.4 0 0 1 .09.46v7.32c0-.05.25.14.57.14s.51 0 .52-.09a.24.24 0 0 0 0-.14.6.6 0 0 1 0-.18v-2.58q0-.36.12-.36s.13.05.23.17l2.58 2.75a.6.6 0 0 1 .1.24s0 .06.08.09a1.7 1.7 0 0 0 .67 0 3 3 0 0 0 .74 0c.06-.05 0-.13-.07-.24-2.09-2.23-3.14-3.38-3.14-3.47a.13.13 0 0 1 0-.07v-.8c0-.06 0-.1-.06-.11a.19.19 0 0 0-.18 0c-.59.25-.9.38-.93.38s-.21-.12-.21-.35v-2.12c0-.23.12-.34.36-.34h1.89c.76 0 1.13.22 1.13.67a1 1 0 0 1-.31.66V15c0 .11.08.13.23 0a2.8 2.8 0 0 0 .65-.58 2.2 2.2 0 0 0 .53-.94 3.7 3.7 0 0 0 .04-.59m4-1.9a2.18 2.18 0 0 0-.6-1.45 1.82 1.82 0 0 0-1.45-.69h-4.72c-.14 0-.21.05-.21.13a.24.24 0 0 0 .07.13.2.2 0 0 1 .07.11v1.9c0 .07.3.11.91.11.13 0 .19-.06.19-.18v-.82c0-.1.07-.16.19-.16h3.17a1.12 1.12 0 0 1 1 .44 1.9 1.9 0 0 1 .31.65 2 2 0 0 0 .57.07 3 3 0 0 0 .47 0 .5.5 0 0 0 .05-.23zm-5.65 11.33a.5.5 0 0 0 0-.13.5.5 0 0 1-.05-.18v-2.33a.46.46 0 0 0-.14-.37l-.74-.74c-.09-.07-.15-.09-.19 0a1.3 1.3 0 0 0 0 .4V22a.5.5 0 0 1 0 .23.16.16 0 0 0 0 .09q0 .12.36.12h.53c.11 0 .23-.04.23-.12m5.44-9.61a.44.44 0 0 0-.2-.07 3.7 3.7 0 0 0-.81 0 9.4 9.4 0 0 1-1.41 1.45 17 17 0 0 1-2.56 1.48c-.24.14-.39.2-.43.17s-.12-.17-.12-.4V13c0-.13-.21-.2-.55-.2a2 2 0 0 0-.36 0c-.13 0-.19.15-.19.33V16a1.9 1.9 0 0 0 .43.62c.29.34.5.5.62.5a6.8 6.8 0 0 0 2.07-1 18 18 0 0 0 2-1.26 3.9 3.9 0 0 0 1.51-2.15m2.38.17c0-1-.57-1.43-1.72-1.43h-3a1.6 1.6 0 0 0-.54.05.14.14 0 0 0 0 .17 1 1 0 0 1 0 .18v2.06c0 .1 0 .15.08.15.27 0 .58-.29.94-.79v-.49q0-.33.27-.33h2.35a.44.44 0 0 1 .35.23.67.67 0 0 1 .16.37q0 1.2-3 2.19a11 11 0 0 0-1 .69c-.1.09-.16.38-.16.88v2.5a.5.5 0 0 1 0 .13.15.15 0 0 0 0 .16q0 .09.27.09h.59c.17 0 .26-.05.26-.15a.3.3 0 0 0 0-.11.4.4 0 0 1 0-.12v-2.85c0-.09 0-.14.09-.14s.15.06.22.18l1.74 2.81a.63.63 0 0 0 .17.33 3 3 0 0 0 .68 0 1.5 1.5 0 0 0 .54-.05.09.09 0 0 0 0-.13l-.14-.14c-1.37-2.15-2-3.26-2-3.33s.26-.2.76-.45a5.4 5.4 0 0 0 1.44-.93 2.42 2.42 0 0 0 .65-1.73"/></svg>