<svg xmlns="http://www.w3.org/2000/svg" width="65.8" height="65.8" viewBox="0 0 17.41 17.41"><circle cx="8.71" cy="8.704" r="8.573" fill="#fff" stroke="#fff" stroke-width=".265"/><g fill="#c8242c"><path d="M8.5 11.644a.016.016 0 0 0-.016-.016l-.759-.436c-.718-.317-1.316-.447-2.062-.447a4.7 4.7 0 0 0-1.753.317 4.6 4.6 0 0 0-.992.513.6.6 0 0 1-.108.07c-.014 0-.438-.52-.48-.588-.021-.033-.013-.049.11-.227.294-.429.505-.994.586-1.575.13-.92-.085-1.88-.586-2.62l-.165-.244q-.014-.02.01-.072c.033-.07.47-.547.506-.553a.8.8 0 0 1 .206.106c.582.364 1.297.62 1.996.714.097.013.308.028.47.034a4.83 4.83 0 0 0 2.911-.829 1 1 0 0 1 .153-.093c.01 0 .081.045.158.1.431.305.943.527 1.586.692.353.09.547.11 1.147.11l.732-.036q1.189-.215 2.03-.827l.151-.102c.029 0 .605.607.641.675.02.038.018.047-.05.133a4.3 4.3 0 0 0-.512.966 4.6 4.6 0 0 0-.181.759 5.2 5.2 0 0 0 0 1.095c.127.675.301 1.199.697 1.732l-.606.654-.165-.1a5 5 0 0 0-1.658-.694 4 4 0 0 0-.772-.106c-.685-.032-1.267.041-1.849.234a4.7 4.7 0 0 0-1.205.595c-.124.08-.17.099-.17.066zm.566-1.68c.122-.035.136-.044.234-.143.207-.21.268-.394.25-.735-.016-.286-.064-.401-.232-.537a1.2 1.2 0 0 0-.395-.214c-.185-.061-.295-.157-.295-.261 0-.05.088-.154.132-.154.074 0 .22.127.22.191 0 .05.095.067.327.062l.209-.006a1.05 1.05 0 0 0-.118-.477.8.8 0 0 0-.302-.276c-.087-.043-.105-.045-.3-.045s-.215.001-.302.044a1 1 0 0 0-.355.34 1.18 1.18 0 0 0 0 .782.8.8 0 0 0 .264.295 2 2 0 0 0 .245.12c.312.13.364.168.364.267 0 .072-.034.15-.079.173s-.139.02-.193-.007c-.106-.069-.121-.155-.174-.25h-.528c-.005.438.25.765.55.85.11.025.345.016.478-.02zm1.736 0a.8.8 0 0 0 .298-.25c.117-.176.23-.508.23-.677v-.074a2 2 0 0 0-.49.016 3 3 0 0 0-.084.227c-.06.122-.114.16-.219.148-.198-.022-.284-.22-.284-.652q-.003-.545.159-.687.107-.092.233-.01c.133.161.152.241.19.41h.495c-.11-.612-.216-.902-.677-1.049-.206-.038-.346-.004-.528.128-.328.232-.462.638-.436 1.311.01.303.029.408.095.568.114.275.265.463.44.546.225.102.343.095.578.045m1.86-.02c.201-.091.421-.37.525-.662.04-.115.058-.421.042-.787-.013-.321-.04-.461-.126-.638-.085-.17-.276-.378-.413-.445-.218-.082-.409-.037-.608.007-.399.186-.644.8-.577 1.443.063.582.293.97.66 1.104a.8.8 0 0 0 .498-.021zm-8.169-.889.562-.008v-.559l-.583-.009v-.426l.749-.02.012-.593-1.32.001.027 2.456c.007.043.036.047.33.05l.203.004zm3.321-1.616H7.25l.027 2.466c.013.03.068.036.364.042l.173.003zm-1.84 1.632c.01-.016.042-.02.15-.013a.6.6 0 0 1 .171.03c.053.026.092.134.103.278l.057.53c.015.038.017.038.262.038.297 0 .294.001.266-.157l-.086-.796a.46.46 0 0 0-.21-.215l.066-.068a1 1 0 0 0 .099-.117c.113-.166.108-.652-.01-.886a.44.44 0 0 0-.264-.218c-.446-.047-.654-.033-1.18-.039l.022 2.477c.194.032.312.02.538.02z"/><path d="M12.293 9.347c-.067-.034-.131-.124-.17-.236s-.052-.64-.017-.803c.03-.146.097-.272.17-.319s.158-.049.215-.001c.058.043.148.238.177.378s.03.52 0 .663c-.029.137-.1.267-.162.297l-.074.036c-.041.02-.077.017-.14-.014zM5.949 8.294c.007-.287.007-.285.194-.273a.6.6 0 0 1 .166.031c.135.065.157.3.036.402-.048.04-.088.048-.292.065l-.11.007z"/></g><path d="M14.23 12.06a4.63 4.63 0 0 0-2.173-.877 5.6 5.6 0 0 0-1.127 0 4.9 4.9 0 0 0-2.164.867.7.7 0 0 1-.16.098.2.2 0 0 1-.089-.048 5 5 0 0 0-1.262-.68c-1.094-.387-2.207-.358-3.297.085a4.2 4.2 0 0 0-.855.469l-.166.12-.094.062-.095-.103c-.207-.225-.807-.948-.807-.971 0-.008.041-.061.094-.123.248-.297.556-.922.668-1.361.08-.303.104-.51.103-.847a3 3 0 0 0-.125-.904 3.9 3.9 0 0 0-.695-1.313c-.132-.153-.142-.114.1-.384l.251-.286.528-.572c.007 0 .08.05.162.109.18.133.472.31.686.42a4.6 4.6 0 0 0 2.324.459 4.7 4.7 0 0 0 1.926-.582c.194-.112.398-.242.441-.287.015-.013.032-.023.042-.023a.2.2 0 0 0 .07-.049c.045-.04.06-.045.092-.032.021.008.15.088.286.18.458.306.975.537 1.513.674a4.7 4.7 0 0 0 1.795.068 4.7 4.7 0 0 0 2.07-.908 1 1 0 0 1 .138-.093 32 32 0 0 1 1.095 1.125c.027.042.033.035-.144.237q-.472.544-.68 1.354c-.053.21-.064.281-.078.54-.025.424-.004.705.08 1.03a3.25 3.25 0 0 0 .747 1.422c.064.067.066.07.04.108s-.536.58-.882.933l-.2.204zm.394-.25.681-.755c.022-.04.022-.04-.182-.339a3.5 3.5 0 0 1-.61-1.876c-.03-.791.228-1.573.747-2.263a1 1 0 0 0 .135-.204l-.955-.985c-.009 0-.1.061-.203.135a4.8 4.8 0 0 1-2.225.874 5.3 5.3 0 0 1-1.41-.053c-.552-.108-1.225-.389-1.757-.733L8.6 5.453l-.065.036-.279.175a5 5 0 0 1-1.464.635c-.931.24-2.093.136-2.981-.27a5.4 5.4 0 0 1-.901-.508.2.2 0 0 0-.074-.038c-.009 0-.124.12-.254.267l-.53.647c0 .023.04.084.103.162l.105.135c0 .005.043.081.097.168.258.41.46.954.522 1.42a6 6 0 0 1 0 .9c-.048.403-.137.7-.326 1.097q-.18.371-.42.706a.5.5 0 0 0-.064.097.5.5 0 0 0 .076.108c.097.123.691.784.702.784s.105-.065.224-.144a5 5 0 0 1 1.74-.723 4 4 0 0 1 1.059-.083c.51.013.84.069 1.313.225.446.148.737.289 1.196.584l.232.14c.033.012.073-.009.283-.149a4.8 4.8 0 0 1 2.386-.805c.988-.052 2.002.238 2.867.821l.268.164c.015 0 .109-.086.21-.194z"/></svg>