<svg xmlns="http://www.w3.org/2000/svg" id="Layer_1" data-name="Layer 1" viewBox="0 0 31.18 31.18"><defs><style>.cls-1{fill:#00984c}</style></defs><g id="New_Symbol_20-11" data-name="New Symbol 20"><circle cx="15.59" cy="15.59" r="15.59" class="cls-1"/><path d="M15.53 2.53a13.23 13.23 0 0 1 13.36 13.09 13.23 13.23 0 0 1-13.36 13.09A13.23 13.23 0 0 1 2.16 15.62 13.23 13.23 0 0 1 15.53 2.53" style="fill:#fff9ae;fill-rule:evenodd"/><path d="M20.36 14.37c-2.78.43-2-.87-2.09-2.89a4.94 4.94 0 0 1 2.09 2.89m-5.11 8.55v-8.55h-4.43a4.9 4.9 0 0 1 2.06-2.89c-.35 2.29.69 1.67 2.37 1.73v-5A7.39 7.39 0 0 0 8.37 17c2.72.36 5.16-1.47 4.51 2.72A4.14 4.14 0 0 0 8.7 18.1a7.31 7.31 0 0 0 6.55 4.82m7.67-7.35a7.33 7.33 0 0 0-7-7.31v14.66c3.44.81 2.14-3.91 2.36-5.7l2.12 3.91c1.81-1.06 1.27-2.71.33-4.15 1.14.02 2.56.3 2.19-1.41M7 22.23c-.07.71-.5.1-.66-.17.28-.32.43-.16.66.17m16.44 2.69c-.4.39-1.29-.64-.79-1s1.27.67.76 1Zm1.71-9.32C25.29 28 5.8 28 6 15.6c-.2-12.41 19.3-12.41 19.12 0ZM15 4.16c0 .85-.93.77-.88 0s.88-.85.88 0M24.13 7c.06.72-.46.17-.66-.06.25-.4.42-.26.66.06M7.24 22l-.49-.69c-.07.21-2.1 1.11-1.4 1.43.28-.14.73-.77.93-.2-.11.29-.7.92-.22 1.16l.47-.88a.57.57 0 0 0 .71-.82m3 2.77C9 23.5 8.76 24.69 8 25.67c.24 0 1.22 1.17 1.32.49-.35-.3-1.14-.53-.52-1 .83.74 1.2.23.19-.28.3-.94 1.01.72 1.28-.07ZM9 23.88c-.13-.59-1.45.41-1.71.44 0-.27 1-1.6.39-1.74-1.24 2.35-1.05 2.56 1.32 1.3m2.45 1.9c0-.46-.91-1-1.24-.45-.22.35.07.75.38 1 .34.61-.64.32-.68-.11-.76.43.7 1.28 1.07.61.24-.41 0-.76-.36-1-.33-.58.55-.36.55.11Zm-4.89-4.65L6 19.89c-1.13.59-2.24.67-1.15 2.12.84-.29-.86-1.07.33-1.32.17.23.26 1 .68.58-.11-.32-.65-.8 0-.91.14.17.29 1.22.7.77m-1-2c-.28-1-1.32-.43-1.1.44-.23.64-.66-.26-.41-.6-.81-.21-.38 1.42.33 1.21.47-.12.5-.55.47-.94.13-.64.63.12.27.47.44.2.54-.14.47-.59Zm9.24 7c-.21.08-1.76-.52-1.54.14 1.34-.31-.25 1.82.69 1.76l.22-1.62c.33 0 .72.19.66-.3Zm2 2c-.14-.17.25-2.33-.39-1.95.15.74-.2.81-.85.77v-.75c-.51-.32-.45 2.35.06 2-.15-.77.07-1 .85-.93v.91Zm2.14-.33c-.07-.86-1.25.51-1.18-.69 1.14-.05.95-.66-.08-.33-.34-.58.66-.45.93-.58.21-.67-1.18 0-1.4-.08.27 1.2.03 2.34 1.72 1.64Zm3.27-2.15c-.16-.42-.63-.38-1-.25-.64 0 0-.63.39-.38.25-.84-1.43-.17-1 .47.15.36.65.31 1 .19.68.15-.11.7-.5.52-.02.8 1.44.07 1.1-.59ZM6.86 9.72l-1.4-.85.33-.5c-.39-.65-.89 1-1.1 1.1.33.34.44-.09.6-.33.25.01 1.5 1.34 1.57.58M23.63 25.2c.9-.61-.52-2.27-1.26-1.51-.83.6.54 2.22 1.26 1.51M8.48 7.85 7 6.5c-.47.26.18.56.33.77-.41.53-.69.75-1.15.11-.7.23 1.22 1.39 1.26 1.62.56-.29-.31-.66-.44-.88.88-1.36.89.39 1.48-.27m17.27 7.72c.19-13.15-20.52-13.17-20.32 0-.19 13.22 20.5 13.19 20.32 0m-.52 8.12c.63-.77-.59-1.44-1.05-1.87-.71.51 1.38.94.77 1.62s-1.35-1.21-1.73-.44c.51.35 1.36 1.43 2.01.69M9.83 6.78c-.14-.58-.8.29-1 .35-.56-.44 0-.64.33-.93-.19-.55-.6.09-.85.22-.78-.54 1-.7.36-1.21L7.55 6c.79 1 1.08 2.13 2.28.78M26.49 21.7l-1.43-.79.31-.52c-.4-.6-.85 1-1.05 1.12.34.33.42-.08.58-.33l1.43.83Zm1.16-2.55-1.87-.69c-.34.44.33.44.58.58-.16.66-.31 1-1 .57-.51.35 2 1.31 1.87.67-.78-.17-.95-.42-.55-1.13.32.04.95.61.97 0m-14.3-14.3c0-.7-.84-.38-1-.8 0-.28.57-.19.72 0 .51-.7-1.26-.68-1.1.08 0 .41.5.53.85.55.62.33-.33.63-.63.3-.45.77 1.24.6 1.16-.13m2-.69c0-1.34-1.59-1.32-1.6 0a.82.82 0 1 0 1.58 0Zm2.2-.85c-.77-.34-.11 1.65-1 1.49s.38-1.81-.47-1.74c-.9 2.47 1.52 2.87 1.45.25Zm2 .39c-.23.06-1.7-.77-1.54-.06 1-.16.13 1.31.16 1.73.55.51.56-1.35.72-1.51l.58.17Zm2.06.93c-.4-.38-.45.34-.6.55-1.51-.41 0-.85-.8-1.21 0 .21-1.28 2-.52 1.95L20 5.1c.8.28.87.46.41 1.18.47.62.98-1.55 1.16-1.65Zm1.69 1.13L22.2 5c-.67 1-1.67 1.66 0 2.39.59-.62-1.21-.53-.33-1.32l.68.5C23 6.2 22.24 6 22 5.78c.19-.68.77.16 1.07.28Zm1.08 1-.61-.58c0 .22-1.85 1.41-1.15 1.63.28-.21.6-.9.91-.31-.08.3-.54 1-.06 1.16-.06-1.01 1.53-1.02.91-1.94ZM26.19 9 26 8.7l-1.1.8c0-.28.88-1.59.38-1.79l-1.59 1.18c.1.69 1.06-.48 1.29-.52-1.18 2.36-.15 1.69 1.21.63m2.45 6.63c.24 16.94-26.4 17-26.15 0-.25-17.02 26.4-17 26.15-.03Zm.63 0c.26-17.75-27.61-17.78-27.36 0-.25 17.72 27.62 17.69 27.36-.03Z" class="cls-1"/></g></svg>