<svg xmlns="http://www.w3.org/2000/svg" id="Layer_1" data-name="Layer 1" viewBox="0 0 31.18 31.18"><defs><style>.cls-2{fill:#fff}.cls-4{fill:#231f20}</style></defs><g id="New_Symbol_20-11" data-name="New Symbol 20"><circle cx="15.59" cy="15.59" r="15.59" style="fill:purple"/><path d="m30.63 15.59-4.58-2.46c.1 1.26-7-2.48-5.83-3.15-4.88-2.87-4.39-2.84-9.22.02 1.21.65-5.91 4.41-5.82 3.15L.55 15.59l4.6 2.48c-.11-1.27 7 2.49 5.82 3.14 4.86 2.84 4.4 2.84 9.25 0-1.21-.65 5.92-4.41 5.83-3.14z" class="cls-2"/><path d="M29.9 15.59c-1 .64-3.79 2.19-4.86 1.83L20.22 20c-.19 1.05-3.59 2.83-4.62 3.3-1-.48-4.44-2.22-4.62-3.31l-4.84-2.57c-1 .37-3.9-1.23-4.85-1.83 1-.63 3.81-2.17 4.85-1.83L11 11.2c.18-1.09 3.58-2.83 4.62-3.31 1.06.49 4.42 2.22 4.62 3.31L25 13.76c1-.35 3.91 1.22 4.86 1.83" style="fill:#ed1c24"/><path d="M5.86 15.2h-.24v1.12h-.21V15.2h-.24v-.15h.69zM6.88 16.32h-.63v-1.27h.62v.15h-.41v.41h.33v.14h-.33v.42h.42zM8 16.32c-.25.09-.29-.24-.36-.39-.06.15-.11.48-.35.39a1.28 1.28 0 0 0 0-1.27c.23-.07.28.17.34.33.06-.16.12-.4.34-.33a1.28 1.28 0 0 0 0 1.27M10.19 16.19c-.1.2-.74.21-.68-.1h.21c.21.34.31-.13.26-.34s-.41 0-.47-.18 0-.43.06-.48.66-.12.62.19H10c-.13-.34-.42.16-.2.29.44-.1.43.32.41.62M14.56 19.59h.21v1.26h-.21zM15.62 20.85h-.64v-1.26h.21v1.12h.43zM16.89 19.59c-.09.11-.15 1.49-.5 1.26l-.18-.79-.17.79c-.35.24-.41-1.15-.51-1.26.33-.18.31.68.39.81.16-1 .45-1 .59 0 .08-.13 0-1 .38-.81M18.55 19.59a2.36 2.36 0 0 0-.31 1.26h-.19a2.6 2.6 0 0 0-.3-1.26c.26-.11.32.31.39.45.08-.16.13-.56.41-.45M14.9 10.4h-.24v1.11h-.21V10.4h-.24v-.14h.69zM15.91 11.51h-.21v-.55h-.3v.55h-.21v-1.25h.21v.57h.3v-.57h.21zM16.83 11.51h-.63v-1.25h.61v.14h-.4v.41h.32v.15h-.32v.42h.42zM23.16 16.19c-.83.58-.71-.5-.69-1 .11-.21.78-.21.69.13H23c-.39-.61-.25.7-.27.85s.33.06.27-.1h.21v.13M23.49 15.05h.21v1.26h-.21zM24.64 15.2h-.41v.41h.33v.14h-.33v.57h-.21v-1.27h.62zM24.88 15.05h.21v1.26h-.21zM26.08 16.19c-.83.58-.71-.5-.7-1 .12-.21.78-.21.7.13h-.21c-.4-.61-.25.7-.28.85s.33.06.28-.1h.21v.13" class="cls-2"/><path d="M28.72 15.59v.08L26 14.25v-.09l.06.08c-1.05 1-5.43-2.33-6.42-2.58l.05-.09-.05.09a1.37 1.37 0 0 1-.64-1.27h.1l-.05.08c-3.49-2.13-3.5-2.11-7 0v-.08h.1a1.37 1.37 0 0 1-.75 1.27l-.05-.09.05.09c-1 .27-5.35 3.59-6.42 2.58v-.08.09L2.5 15.59 5 17v-.08a1.36 1.36 0 0 1 1.43-.07v.09-.09c.81.72 6 2.41 5.74 3.93H12v-.09c3.49 2.12 3.49 2.13 7 0l.05.09H19c-.32-1.51 4.95-3.23 5.74-3.93v.09-.09a1.37 1.37 0 0 1 1.43.07l-.06.08H26l2.65-1.45a.12.12 0 0 1 0 .17v-.08l.05.08c-.66.29-2.74 1.81-3.43 1.23-.07-.19-5.34 2.7-5.55 2.79a1.21 1.21 0 0 0-.64 1.17l-3.63 2-3.65-2a1.21 1.21 0 0 0-.64-1.17c-.22-.05-5.48-3-5.55-2.79-.64.61-3-1-3.59-1.31L5 14.05a1.21 1.21 0 0 0 1.28.09v.09-.09c.7-.61 5.86-2.45 5.63-3.71-.18-.19 3.64-2 3.65-2.06 0 .09 3.8 1.88 3.63 2.06-.25 1.24 5 3.11 5.63 3.71v.09-.09a1.21 1.21 0 0 0 1.28-.09l2.87 1.54-.16.08Z" class="cls-4"/><path d="M20 15.59c.1 5-9.16 5-9.07 0-.09-5 9.17-4.95 9.07 0" class="cls-4"/><path d="M18.52 15.07c0 .61-.72.45-1.11.47v-.92c.38 0 1.13-.15 1.11.45m.64 0c.08-1.31-1.58-.94-2.39-1v3.13h.64v-1.13c.79.03 1.82.07 1.75-1M16.18 15.36c0 .08-.21.18-.27.21-.14-.89.36-1.82.27-.21m.21-.08c0-.65.22-1.41-.69-.7v1.25c.19-.12.64-.29.69-.55M15.48 16v-1.29c-.33 0-.17.71-.2.89L15 15c-.37 0-.16 1.22-.21 1.39.33 0 .18-.7.21-.89l.33.57.2-.13M14.27 16.2l-.15.1.07-.37zm.32.3-.29-1.09c-.3 0-.43 1.39-.5 1.56.32-.09.18-.55.5-.64l.08.3ZM14.21 14.63v-.55h-2.53v.55h.94v2.58h.65v-2.58zM21.15 15.59c0-.21.06-.47-.25-.39v.42h.25m.22 0c-.06.17-.33.12-.47.13v.57h-.21v-1.27c.44-.05.8.04.68.57M22 15.83l-.08-.32-.08.32zm.31.49c-.37.11-.11-.46-.5-.34 0 .17 0 .42-.27.34.22-1.63.46-1.6.73 0ZM17.41 20.38l-.08-.32-.06.32zm.33.47c-.25.08-.25-.17-.29-.34-.37-.11-.14.46-.51.34.29-1.61.51-1.6.8 0M14.06 20.38l-.06-.32-.07.32h.15m.32.47c-.36.12-.13-.45-.5-.34 0 .17-.05.42-.29.34.27-1.61.49-1.6.77 0ZM13.19 20.12c0-.2 0-.47-.26-.38v.42h.26m.21.73h-.21c0-.19.12-.69-.26-.56v.56h-.22v-1.3c.17 0 .61-.07.69.15s.07.51-.1.48c.18-.03.07.56.1.63ZM8.81 15.83l-.08-.32-.07.32zm.33.49c-.37.11-.14-.46-.51-.34 0 .17 0 .42-.29.34.29-1.62.51-1.61.8 0" class="cls-2"/></g></svg>