<svg xmlns="http://www.w3.org/2000/svg" id="Layer_1" data-name="Layer 1" viewBox="0 0 31.18 31.18"><defs><style>.cls-3{fill:#010101}.cls-4{fill:#fff}.cls-6{fill:#ef3f49}</style></defs><g id="New_Symbol_20-11" data-name="New Symbol 20"><g id="New_Symbol-10" data-name="New Symbol"><path d="M31.18 15.59c.3 20.23-31.48 20.23-31.18 0-.3-20.23 31.48-20.23 31.18 0" style="fill:#80132f;fill-rule:evenodd"/><path d="M15.59 1.42C34 1.15 34 30 15.59 29.76-2.8 30-2.8 1.15 15.59 1.42" style="fill-rule:evenodd;fill:#7f0d2d"/><path d="M5.64 6.23h20.01v18.93H5.64z" class="cls-3"/><path d="M6.2 6.79h18.82v17.82H6.2z" class="cls-4"/><path d="M6.72 7.3h17.71v16.83H6.72z" style="fill:#231f20"/><path d="M12.83 13c-1.57 1-1.55-3.31-.11-2 0-.14-.13-.76-.12-.92-1.22 1-1.12-2.47-.11-1.37.45-1-2.22-.43-2.58-.57.21.39.1.92-.25 2.38 0-.34-.62-2.14-.12-2.35-1.54-.44-.66 1.31-1.31 2.2 0-.45-.44-1.89 0-2.28a4.3 4.3 0 0 1-1.34 0c.33.32.38 2.71.44 2.42.22.12.22 5.76 1 5.17.08-.13.34-3.57.51-3.52 1.13 8.19 1.09-.4 1.88-3.89.39-.45.24 5.47-.09 5.43.66.02 1.97.17 2.2-.7" class="cls-4"/><path d="M17.6 16c0-2-3 0-6.32.29.45-.31 2.51-.73 6.17-1.28-.12-.61-.57-.55-1.26-.21l.15-.22c-3 .28-4.67.64-5.32 1 0-.06.08-.15.14-.27a5.2 5.2 0 0 0-1.09.64c-.5-.06-1.42 1.11-3 1.6 2.3-.79 1.84-.61 3.31-.12q-.12-.11-.33-.33a3 3 0 0 0 1.58.23c-.27-.08-.45-.1-.51-.27a5.35 5.35 0 0 0 2.88-.14c-2-.15 2.28-.07 3-.59a.7.7 0 0 1-.26-.15c.35-.06.89.28.86-.18" class="cls-6"/><path d="M10.14 19.65c0-1.66-1.59-2.17-2.93-1.94.19.2.3 5.22 0 5.41h1.24c-.3-.1 0-4.68-.12-4.87 1.37.33.42 2.71.23 3.36.87.09 1.6-1.2 1.58-1.96" class="cls-4"/><path d="M13.15 23.13c-.57-.62-1.29-4.65-1.63-5.22 0 0 .05-.1.14-.19h-1.52c1.33.5 0 3.56-.7 5.4h1.15c-1.27-1.29 2.26-1.35 1 0Z" class="cls-4"/><path d="M11.94 17.21c-.62.18-.72-.17-1.29-.29.52.08.65.21 1.29.29M11.51 21.56a4 4 0 0 0-.86 0c.11-.39.26-.92.44-1.61Z" class="cls-3"/><path d="M19.15 15.69c.15-4.21-6.47-4.76-7-.64a6.4 6.4 0 0 0 1.06-.14c-.74-.17-1.09-.6-.39-.8-.21.09-.26.42-.07.45s.11-.11.17-.23l.15.1c-.38.2.35.34.35.32l-.09.14c5-4.48 7.06 4.85-.82 2.49 1.49 3.25 6.77 1.85 6.64-1.69" class="cls-4"/><path d="M14.65 11.27c.24-.8-2.52-3.81-.24-2.45.11-1-.91-.92-1.5-.45-1.27.93 2.71 3.86-.26 3.52q.16.33.48.87c.07-.13 1.68-.83 1.52-1.49" class="cls-4"/><path d="M14.93 13.38c-.12.06-.3.13-.54.22-.06-.37-.59.11-.25.18a9 9 0 0 0-.64.66c0-.09-.69-.64-.77-.51.11-.09.26-.63.54-.49-.53.16-.07.8 0 .25a2 2 0 0 1 .16.11l-.13.2c.19.25.37.22.54-.12 0 0 0 .06.05.07s-.26-.87-.34-.94c.3-.41.79.63 1.12.38 0 .16-.2-1.14-.52-.56-.3-.21.78-.61.74-.26-.65-.27-.04.67.04.81" class="cls-3"/><path d="M15.26 22.48v-.13c-1.88 2-2-4.05-.18-2.05.35-1.18-1.62-1.4-2-.29-1.32 1.59 1.69 4.62 2.18 2.47" class="cls-4"/><path d="M14.23 17.77c0 .21-.13.3-.39.3v.51c-.24-.1-.2-.47-.15-.68.25.2.55-.26.22-.33a2.3 2.3 0 0 0-.57.59.26.26 0 0 1-.19-.19.08.08 0 0 1 .07 0c.14-.15.34-.38.59-.68.28.29.42.44.42.48" class="cls-3"/><path d="M14.14 13.36a1.5 1.5 0 0 0-.28-.16c-.03.23.14.42.28.16" class="cls-4"/><path d="M14.93 18.3a.63.63 0 0 1-.52.6c-1.09-.13.41-1.9.52-.6" class="cls-3"/><path d="M14.75 18.23c0-.68-.59 0-.56.28.04.61.6.03.56-.28M16.92 8.7c.27-.87-2.77-1-2.36.12 1.33-1.55.61 2.87.56 3.06a7 7 0 0 1 1.19 0c-.31-.45-.77-4.21.61-3.18" class="cls-4"/><path d="M15.77 13.32h-.23c.36-.69-.66-.57-.14 0a.8.8 0 0 0-.31.06 1.7 1.7 0 0 0-.11-1 1 1 0 0 0 .25 0c-.26.5.68.56.31 0 .4-.26.16.81.23.94M16.56 18.93a.7.7 0 0 1-.3.07c.07-.13-.16-.76-.14-.84-.15-.06-.27.13-.36 0 .17 1.37-1.09 1.11-.68-.12a.5.5 0 0 0 .18 0c-.19.52.13 1.44.34.62v-.62a1.8 1.8 0 0 0 .94-.19s0 .13 0 .15h-.26a1.66 1.66 0 0 0 .28.93" class="cls-3"/><path d="M16.66 23.13a8.34 8.34 0 0 1 0-3.72 8 8 0 0 1-1.15.14c.11.2.17.29.17.26 0 .2.07 3.31-.17 3.32a11 11 0 0 1 1.15 0" class="cls-4"/><path d="M16.7 12.54v.16c-.8-.49-.23.15-.29.28-.33-.24-.35.48.13.34-.06.08-.11.12-.16.12.11 0-.05 0-.45-.13a1.13 1.13 0 0 0 .16-.92 6 6 0 0 1 .61.15M17.54 13.26c-.22.06-.62.33-.23.65-.39.1-.29-.49-.3-.71.31.17.5-.31.14-.34s-.17 1-.63.64a1.7 1.7 0 0 0 .39-.88c.47.29.69.38.63.64M17.68 18.32c0 .08-.55.4-.61.4a2.6 2.6 0 0 0-.51-.89 1.14 1.14 0 0 0 .49-.31c.31-.05-.71.82.11.42.16.08 0 .17-.13.24.12.44.44.27.62.07a.1.1 0 0 1 .03.07" class="cls-3"/><path d="M18.86 12.52v-.11c-1.43.08-1.32-2.39-.23-1.46V10c-1.2 1.22-1-2.64.05-1.22.32-1.09-1.23-.58-1.68-.69.05.18.08.26.08.23-.08.29.2 3.66-.22 3.75a4.17 4.17 0 0 1 1.88 1.31c-.03-.09.11-.79.12-.86M19.16 18.78c0-2.42-1.06.44-2 .44.44.49.31 3.3.09 3.89h1.15c-.1-.4-.54-3.35.64-2.36v-.9c-.79.48-.81-.5-.75-.63.34-.41.53-.61.87-.44" class="cls-4"/><path d="M18.81 16.85c-.29.85-.56.37-1.06.24-.23.39-.54-.2.09-.17h.38c.25.79.73-.4-.42-.28v-.09l.09-.16c.4.25.63.4.92.32ZM18.58 14.18c0 .51-.71 0-.68.59-.1 0-.14-.06-.17-.14.06-.44.55-.27.71-.49 0-.61-.74.07-.79.24-.51-.25.6-.53.54-.78.1.06.41.45.39.58M17.79 17.74h-.18c-.15-.22.26-.3.18 0M18.9 14.77a1.76 1.76 0 0 0-1 .32.6.6 0 0 0-.05-.28c.16.11.82-.2.91-.34a1.1 1.1 0 0 0 .14.3" class="cls-3"/><path d="M19 15.76a2.6 2.6 0 0 1-.16.76h-.12c.31-.27-.2-.83-.18-.19h-.19c.3-.26-.3-.42-.34-.15 0 .43.2.23-.14.24 0-.16.05-.36.09-.62a1.7 1.7 0 0 0 .9.14c.2-.25-1.07-.43-1-.47a6.7 6.7 0 0 0 1-.57c0 .05 0 .14.07.28-.08-.11-.65.25-.7.31a1.4 1.4 0 0 0 .75.15s.02.09.02.12" class="cls-3"/><path d="M21.65 13.7c-.37-.6-.67-2.58-.67-2.15a2.06 2.06 0 0 0-2.06-3.46 16.7 16.7 0 0 1 0 5.59h1.26c-.32-.62-.53-4.64 0-5.09.82.42.64 2.4-.06 2.94.34 1.57.51 1.6.39 2.15a11 11 0 0 1 1.14.02" class="cls-4"/><path d="M24 14.56c-.45-.9-2.62-.4-4-.22a.46.46 0 0 1 .21-.18c-.21 0-.53 0-1 .08 0 .73.66.52 1.09.51l-.92.14a7 7 0 0 1 .13.95c.46-.1 1.15-.25 2.06-.47a2 2 0 0 1-.37-.19c.49.2 2.57 0 2.8-.62" class="cls-6"/><path d="M20.72 17.68h-1.47a10.2 10.2 0 0 1 0 5.43h1.45a12.3 12.3 0 0 1 .02-5.43" class="cls-4"/><path d="M23.78 23.11a6 6 0 0 1 0-.92c-1.13 1-1.78-.19-1.73-2.19 0-5.63 2.43-2.42.87.66h.79V16.1c-3.71-.43-3.93 7.77.07 7.01M24.1 8.18v-.09H23c.65.37.41 1.87.31 2-.81-1.21-.17-2.32-2.08-2 1.15.25.42 4.85.48 5.59h1.15c-.77-.45-.41-2-.48-2.73.46-.17.47 2.3 1.51 2.71a44 44 0 0 1 .21-5.48" class="cls-4"/></g></g></svg>