<svg xmlns="http://www.w3.org/2000/svg" width="40" height="40" data-name="Layer 1"><circle cx="19.99" cy="20" r="19.62" fill="green"/><path fill="#fff" d="m12.34 15.19 2.93 8.12 1 .31v1.19h-4.38v-1.19l1-.31-.32-1h-3l-.34 1 1.06.33v1.19H6.17v-1.21l1-.31 3-8.07zm-1.23 2.4L10 20.82h2.1zm8.89-2.4h1.43a3.6 3.6 0 0 1 2.19.6 2 2 0 0 1 .81 1.76 2.15 2.15 0 0 1-1.64 2.25c1.3.38 1.95 1.1 1.95 2.18 0 1.88-1.18 2.83-3.54 2.83h-4.26v-1.19c.22-.08.56-.2 1-.34V16.8l-1-.41v-1.13zm0 1.61v2.32h.79c1 0 1.53-.42 1.53-1.27a1 1 0 0 0-.32-.78 1.28 1.28 0 0 0-.84-.27zm.79 3.75H20v2.66h1.13a1.6 1.6 0 0 0 1.08-.33 1.11 1.11 0 0 0 .38-.9 1.3 1.3 0 0 0-.44-1.08 2.17 2.17 0 0 0-1.33-.35zM31.94 17a4.9 4.9 0 0 0-1.52-.21c-1.5 0-2.25 1.11-2.25 3.34s.77 3.13 2.31 3.13a3.6 3.6 0 0 0 1.25-.26 4.7 4.7 0 0 0 1-.48l.34-.23.75 1.22-.16.16a5 5 0 0 1-.47.36 5 5 0 0 1-.76.45 5.7 5.7 0 0 1-1 .36 5 5 0 0 1-1.2.16A4.17 4.17 0 0 1 27 23.74a5.13 5.13 0 0 1-1.14-3.6 5.35 5.35 0 0 1 1.24-3.75A4.35 4.35 0 0 1 30.48 15a7.4 7.4 0 0 1 1.53.16 7 7 0 0 1 1.21.32l.44.16-.07 2.59h-1.33z"/></svg>