<svg xmlns="http://www.w3.org/2000/svg" width="40" height="40" data-name="Layer 1"><circle cx="19.98" cy="20" r="19.62" fill="red"/><path fill="#fff" d="M10.94 18.12 10.6 17a4.7 4.7 0 0 0-1.54-.22c-1.52 0-2.28 1.11-2.28 3.34s.77 3.16 2.32 3.16a4.4 4.4 0 0 0 .69-.06 6 6 0 0 0 .59-.12l.22-.1v-1.73l-1-.32v-1.11l3.92-.07V21l-.93.32v2.78a5 5 0 0 1-.45.26 8 8 0 0 1-1.26.4 7.8 7.8 0 0 1-2 .25 4.2 4.2 0 0 1-3.23-1.23 5.1 5.1 0 0 1-1.15-3.64 5.36 5.36 0 0 1 1.25-3.75A4.29 4.29 0 0 1 9.1 15a8.3 8.3 0 0 1 1.53.16 9 9 0 0 1 1.22.32l.43.17-.07 2.45zm7.43 5.49v1.19h-3.89v-1.19l1-.34V16.8l-1-.41v-1.13l3.52-.07 2 4.54 2.15-4.47 3.27-.07v1.2l-1 .41v6.47l1 .34v1.19h-3.98v-1.19l1.06-.34v-5.16c-.17.42-.35.87-.57 1.32s-.45 1-.72 1.5-.48 1-.62 1.28l-1.47.07-1.57-3.23-.23-.71v4.93zM31.18 15a4 4 0 0 1 3.17 1.28 5.2 5.2 0 0 1 1.13 3.56 5.3 5.3 0 0 1-1.27 3.71 4.22 4.22 0 0 1-3.3 1.45 3.94 3.94 0 0 1-3.14-1.26 5.43 5.43 0 0 1-1.09-3.65 5.4 5.4 0 0 1 1.21-3.7A4.18 4.18 0 0 1 31.18 15m-.07 1.71a1.85 1.85 0 0 0-1.61.76A4.43 4.43 0 0 0 29 20a4.8 4.8 0 0 0 .5 2.47 1.65 1.65 0 0 0 1.52.8 1.91 1.91 0 0 0 1.64-.78 4.44 4.44 0 0 0 .57-2.56 4.5 4.5 0 0 0-.52-2.43 1.77 1.77 0 0 0-1.6-.77z"/></svg>