<svg xmlns="http://www.w3.org/2000/svg" width="40" height="40" data-name="Layer 1"><circle cx="19.99" cy="20" r="19.62" fill="green"/><path fill="#fff" d="M17.59 23.62v1.19h-4.16v-1.19l1-.34V16.8l-1-.41v-1.13l4.16-.07v1.2l-1 .41v6.48zM24.67 17a5 5 0 0 0-1.53-.21c-1.5 0-2.25 1.11-2.25 3.34s.77 3.13 2.32 3.13a3.5 3.5 0 0 0 1.24-.26 5 5 0 0 0 1-.48l.34-.23.75 1.22-.17.16a5 5 0 0 1-.47.36 6 6 0 0 1-.75.45 6 6 0 0 1-1 .36A5 5 0 0 1 23 25a4.17 4.17 0 0 1-3.22-1.23 5.13 5.13 0 0 1-1.14-3.6 5.4 5.4 0 0 1 1.24-3.75A4.35 4.35 0 0 1 23.21 15a7.4 7.4 0 0 1 1.52.16 7.4 7.4 0 0 1 1.22.32l.43.16-.07 2.59H25z"/></svg>