<svg xmlns="http://www.w3.org/2000/svg" width="40" height="40" data-name="Layer 1"><circle cx="20" cy="20" r="19.62" fill="orange"/><path fill="#fff" d="M10.63 23.61v1.19h-4v-1.19l1-.34V16.8l-1-.41v-1.13l3.27-.07 3.68 6.3V16.8l-1-.41v-1.13l3.88-.07v1.2l-1 .41v8h-2.24l-3.66-6.18v4.65zM23.49 17a4.6 4.6 0 0 0-1.49-.27c-1.5 0-2.25 1.11-2.25 3.34s.74 3.13 2.25 3.13a3.6 3.6 0 0 0 1.28-.2 4.3 4.3 0 0 0 1-.48l.34-.23.75 1.23-.16.15a5 5 0 0 1-.47.36 4 4 0 0 1-.76.45 5.5 5.5 0 0 1-1 .36 4.4 4.4 0 0 1-1.18.16 4.17 4.17 0 0 1-3.22-1.23 5.1 5.1 0 0 1-1.14-3.59 5.35 5.35 0 0 1 1.24-3.75A4.32 4.32 0 0 1 22 15a8.3 8.3 0 0 1 1.53.16 8 8 0 0 1 1.21.32l.44.17-.07 2.59h-1.3zM28 21.84l.2 1.16a2.8 2.8 0 0 0 1.33.28A2.23 2.23 0 0 0 30.7 23a.92.92 0 0 0 .48-.81.78.78 0 0 0-.34-.64 2.5 2.5 0 0 0-.84-.45 10 10 0 0 1-1.11-.4 12 12 0 0 1-1.11-.54 2.4 2.4 0 0 1-.86-.88 2.7 2.7 0 0 1-.34-1.37 2.57 2.57 0 0 1 1-2.13A4 4 0 0 1 30 15a8 8 0 0 1 1.43.14 9 9 0 0 1 1.16.27l.4.14.01 2.5h-1.29l-.34-1.16a4 4 0 0 0-1.2-.2 1.82 1.82 0 0 0-1.07.31.81.81 0 0 0 0 1.34 2.7 2.7 0 0 0 .85.43 9 9 0 0 1 1.1.4 10 10 0 0 1 1.11.53 2.35 2.35 0 0 1 .85.84 2.46 2.46 0 0 1 .34 1.31 2.84 2.84 0 0 1-1 2.33 4 4 0 0 1-2.65.84 9 9 0 0 1-1.44-.13 10 10 0 0 1-1.26-.31l-.41-.12v-2.62z"/></svg>