<svg xmlns="http://www.w3.org/2000/svg" width="40" height="40" data-name="Layer 1"><circle cx="20" cy="20" r="19.62" fill="#ff0"/><path fill="green" d="m13.13 21.84.2 1.15a2.9 2.9 0 0 0 1.34.28 2.25 2.25 0 0 0 1.17-.27.92.92 0 0 0 .48-.81.81.81 0 0 0-.34-.64 2.5 2.5 0 0 0-.86-.43A10 10 0 0 1 14 20.7a12 12 0 0 1-1.11-.54 2.4 2.4 0 0 1-.85-.88 2.6 2.6 0 0 1-.34-1.37 2.57 2.57 0 0 1 1-2.13 3.94 3.94 0 0 1 2.5-.76 8 8 0 0 1 1.43.14 9 9 0 0 1 1.16.27l.41.14-.07 2.48h-1.28l-.34-1.16a4 4 0 0 0-1.2-.2 1.8 1.8 0 0 0-1.07.27.83.83 0 0 0-.38.7.84.84 0 0 0 .34.64 2.8 2.8 0 0 0 .86.43 10 10 0 0 1 1.1.4 9 9 0 0 1 1.1.53 2.3 2.3 0 0 1 .86.84 2.55 2.55 0 0 1 .34 1.31 2.86 2.86 0 0 1-1 2.33 4.06 4.06 0 0 1-2.65.84 9.8 9.8 0 0 1-2.63-.4l-.41-.12v-2.62zm10.68 1.77v1.19H19.7v-1.19l1-.34V16.8l-1-.41v-1.13l3.13-.07h1a4.2 4.2 0 0 1 2.62.7 2.44 2.44 0 0 1 .96 2.11 2.65 2.65 0 0 1-1.54 2.58 3.8 3.8 0 0 1 .58.88l.91 1.87.93.31v1.16h-2.53l-1.14-2.52a4.5 4.5 0 0 0-.58-1 1 1 0 0 0-.73-.22h-.48v2.25zm-1-6.81v2.79h.78a1.88 1.88 0 0 0 1.25-.37 1.31 1.31 0 0 0 .45-1.06 1.37 1.37 0 0 0-.36-1 1.34 1.34 0 0 0-1-.37z"/></svg>