<svg xmlns="http://www.w3.org/2000/svg" width="40" height="40" data-name="Layer 1"><circle cx="20" cy="20" r="19.62"/><path fill="#fff" d="M13.51 24.81v-1.19l1.12-.34V16.8h-1.3L13 18.1h-1.26v-2.86l7.91-.05v2.91h-1.27L18 16.8h-1.3v6.48l1.13.34v1.19zM26.38 17a5 5 0 0 0-1.53-.21c-1.5 0-2.25 1.11-2.25 3.34s.77 3.13 2.32 3.13a3.6 3.6 0 0 0 1.25-.26 5 5 0 0 0 1-.48l.34-.23.75 1.22-.16.16c-.08.07-.23.19-.47.36a7 7 0 0 1-.76.45 5.5 5.5 0 0 1-1 .36 4.8 4.8 0 0 1-1.19.16 4.2 4.2 0 0 1-3.23-1.23 5.18 5.18 0 0 1-1.13-3.6 5.35 5.35 0 0 1 1.24-3.75A4.32 4.32 0 0 1 24.92 15a7.5 7.5 0 0 1 1.53.16 7 7 0 0 1 1.21.32l.44.16-.1 2.62h-1.31z"/></svg>