<svg xmlns="http://www.w3.org/2000/svg" xmlns:xlink="http://www.w3.org/1999/xlink" width="8" height="8"><defs><clipPath id="a"><path fill="none" d="M51 25.51A25.51 25.51 0 1 1 25.51 0 25.52 25.52 0 0 1 51 25.51"/></clipPath><clipPath id="b"><circle cx="144" cy="144" r="135.29" fill="none" stroke="#231f20" stroke-width=".5" transform="rotate(-45 143.998 144.004)"/></clipPath><symbol id="c" viewBox="0 0 51.02 51.02"><path fill="#b82837" d="M51 25.51A25.51 25.51 0 1 1 25.51 0 25.52 25.52 0 0 1 51 25.51"/><g clip-path="url(#a)"><path fill="#d68f81" d="M25.51 22.68 24.09 0h2.84zM19 .81l-2.7.88 8.36 21.13zM11.66 4 9.37 5.71l14.48 17.51zM5.71 9.37 4 11.66l19.22 12.19zm-4 6.91L.81 19l22 5.66zM0 24.1v2.83l22.68-1.42zm.81 7.95.88 2.69 21.13-8.35zM4 39.36l1.67 2.29 17.55-14.47zm5.33 6L11.66 47l12.19-19.19zm6.91 4 2.7.87 5.66-22zM24.09 51h2.84l-1.42-22.65zm8-.81 2.69-.87-8.39-21.11zM39.36 47l2.29-1.66-14.47-17.53zm6-5.33L47 39.36 27.8 27.18zm4-6.91.87-2.69-22-5.66zM51 26.93V24.1l-22.65 1.41zM50.21 19l-.87-2.7-21.13 8.34zM47 11.66l-1.68-2.29L27.8 23.85zm-5.35-5.95L39.36 4 27.18 23.22zm-6.91-4-2.69-.9-5.66 22z"/></g><path fill="#b82837" d="M34 25.51A8.51 8.51 0 1 1 25.51 17 8.51 8.51 0 0 1 34 25.51"/></symbol></defs><g transform="translate(-.245 8.133)scale(.02951)"><g clip-path="url(#b)" transform="translate(0 -284)"><use xlink:href="#c" width="51.02" height="51.03" transform="translate(-81.48 -81.49)scale(8.84)"/></g><circle cx="200.816" cy="2.826" r="135.29" fill="none" stroke="#231f20" stroke-width=".5" transform="rotate(-45)"/></g><text x="4" y="5" fill="#fff" font-family="Lato" font-size="3" font-weight="700" text-anchor="middle">GR</text></svg>