<svg xmlns="http://www.w3.org/2000/svg" xmlns:xlink="http://www.w3.org/1999/xlink" id="Layer_1" data-name="Layer 1" viewBox="0 0 288 288"><defs><clipPath id="clip-path"><path d="M286 144A142 142 0 1 1 144 2a142 142 0 0 1 142 142z" class="cls-1"/></clipPath><symbol id="Nouveau_symbole_28" data-name="Nouveau symbole 28" viewBox="0 0 51.02 51.02"><circle cx="25.51" cy="25.51" r="25.51" fill="#009a54"/><path d="M25.51 34a8.49 8.49 0 0 0-8.5 8.5v7a25.67 25.67 0 0 0 17 0v-7a8.5 8.5 0 0 0-8.5-8.5m0-17A8.51 8.51 0 0 0 34 8.5v-7a25.5 25.5 0 0 0-17 0v7a8.5 8.5 0 0 0 8.51 8.5" style="fill:#f3716d"/><path fill="#fff" d="M21.47 19.6h4.08v.32h-.86l1.91 5.52 1.57-4.74a1.2 1.2 0 0 0 .07-.43c0-.25-.14-.37-.42-.37h-.31v-.3h2v.32a1 1 0 0 0-.67.19 1.5 1.5 0 0 0-.36.61L26.77 26v5.11h.85v.3h-4v-.3h.84v-5.03l-2.14-6.16h-.85z"/></symbol><style>.cls-1{fill:none;stroke:#f3eebf;stroke-miterlimit:10}</style></defs><g clip-path="url(#clip-path)"><use xlink:href="#Nouveau_symbole_28" width="51.02" height="51.02" transform="translate(-38.57 -38.57)scale(7.16)"/></g><path d="M286 144A142 142 0 1 1 144 2a142 142 0 0 1 142 142z" class="cls-1"/></svg>