<svg xmlns="http://www.w3.org/2000/svg" data-name="Layer 1" viewBox="0 0 40 40"><circle cx="20" cy="20" r="19.62" fill="brown"/><path fill="#fff" d="M16.52 14.12H18a3.6 3.6 0 0 1 2.19.6 2 2 0 0 1 .81 1.76 2.14 2.14 0 0 1-1.63 2.25c1.3.38 1.94 1.1 1.94 2.18 0 1.88-1.18 2.83-3.54 2.83h-4.34v-1.19l1-.34v-6.48l-1-.41v-1.13zm0 1.61v2.32h.79c1 0 1.53-.42 1.53-1.27a1 1 0 0 0-.32-.78 1.26 1.26 0 0 0-.84-.27zm.79 3.75h-.79v2.66h1.13a1.6 1.6 0 0 0 1.09-.33 1.12 1.12 0 0 0 .37-.9 1.29 1.29 0 0 0-.43-1.08 2.23 2.23 0 0 0-1.37-.35m8.24-3.75v6.56a4.35 4.35 0 0 1-.69 2.71 2.93 2.93 0 0 1-2.42.87l-1-.1.18-1.36h.65c.8 0 1.2-.44 1.2-1.31v-7.37l-1-.41v-1.13l4.16-.07v1.2z"/></svg>