<svg xmlns="http://www.w3.org/2000/svg" id="Layer_1" data-name="Layer 1" viewBox="0 0 40 40"><defs><style>.cls-2{fill:#fff}</style></defs><circle cx="19.99" cy="20" r="19.62" fill="purple"/><path d="M12.34 15.46a4 4 0 0 1 3.17 1.28 5.17 5.17 0 0 1 1.12 3.56 5.35 5.35 0 0 1-1.26 3.7 4.24 4.24 0 0 1-3.3 1.4 4 4 0 0 1-3.14-1.25 5.42 5.42 0 0 1-1.09-3.65 5.3 5.3 0 0 1 1.21-3.69 4.18 4.18 0 0 1 3.29-1.35m-.07 1.71a1.87 1.87 0 0 0-1.61.75 4.47 4.47 0 0 0-.54 2.52 4.8 4.8 0 0 0 .49 2.47 1.69 1.69 0 0 0 1.53.8 1.89 1.89 0 0 0 1.64-.79 4.5 4.5 0 0 0 .56-2.55 4.55 4.55 0 0 0-.51-2.44 1.76 1.76 0 0 0-1.56-.76" class="cls-2"/><path d="M12.34 15.46a4 4 0 0 1 3.17 1.28 5.17 5.17 0 0 1 1.12 3.56 5.36 5.36 0 0 1-1.26 3.7 4.24 4.24 0 0 1-3.3 1.4 4 4 0 0 1-3.14-1.25 5.42 5.42 0 0 1-1.09-3.65 5.3 5.3 0 0 1 1.21-3.69 4.18 4.18 0 0 1 3.29-1.35m-2.6-1.77a1 1 0 0 1 .29-.77 1 1 0 0 1 1.44 0 1.14 1.14 0 0 1 .26.79 1 1 0 0 1-.3.78 1 1 0 0 1-.71.28c-.66-.02-.98-.37-.98-1.08m2.53 3.47a1.88 1.88 0 0 0-1.61.76 4.44 4.44 0 0 0-.54 2.52 4.8 4.8 0 0 0 .49 2.47 1.69 1.69 0 0 0 1.53.8 1.89 1.89 0 0 0 1.64-.79 4.5 4.5 0 0 0 .56-2.55 4.55 4.55 0 0 0-.51-2.44 1.77 1.77 0 0 0-1.56-.77m.44-3.47a1 1 0 0 1 .3-.77 1 1 0 0 1 .71-.3c.65 0 1 .36 1 1.07a1 1 0 0 1-.3.78 1 1 0 0 1-.71.28c-.71 0-1-.35-1-1.06m9.4 10.36v1.18h-4.18v-1.18l1-.34v-6.48l-1-.41v-1.13l4.18-.07v1.2l-1.05.41v2.35H22l2.28-3.89 2.48-.07v1.2l-1.22.39-1.79 3 2.54 3.53 1 .34v1.18h-4.18v-1.21l.79-.33-1.84-2.64h-1v2.63z" class="cls-2"/><path d="M31.11 17.23v6.56a4.35 4.35 0 0 1-.69 2.72 2.92 2.92 0 0 1-2.42.87l-1-.1.17-1.36h.66c.8 0 1.2-.44 1.2-1.31v-7.38l-1-.41v-1.13l4.16-.07v1.2z" class="cls-2"/></svg>