<svg xmlns="http://www.w3.org/2000/svg" data-name="Layer 1" viewBox="0 0 40 40"><circle cx="19.99" cy="20" r="19.62" fill="red"/><path fill="#fff" d="M13.23 15.46a4 4 0 0 1 3.17 1.28 5.2 5.2 0 0 1 1.13 3.56 5.35 5.35 0 0 1-1.27 3.7 4.24 4.24 0 0 1-3.3 1.4 4 4 0 0 1-3.14-1.25 5.48 5.48 0 0 1-1.09-3.65 5.3 5.3 0 0 1 1.21-3.69 4.18 4.18 0 0 1 3.29-1.35m-2.6-1.77a1 1 0 0 1 .29-.77 1.08 1.08 0 0 1 1.45 0 1.2 1.2 0 0 1 .25.79 1 1 0 0 1-.3.78 1 1 0 0 1-.71.28c-.61-.02-.98-.37-.98-1.08m2.53 3.47a1.88 1.88 0 0 0-1.61.76 4.47 4.47 0 0 0-.55 2.52 4.7 4.7 0 0 0 .5 2.47 1.67 1.67 0 0 0 1.52.8 1.89 1.89 0 0 0 1.64-.79 4.4 4.4 0 0 0 .57-2.55 4.5 4.5 0 0 0-.52-2.43 1.76 1.76 0 0 0-1.55-.78m.44-3.47a1 1 0 0 1 .3-.77 1 1 0 0 1 .71-.29c.65 0 1 .35 1 1.06a1.07 1.07 0 0 1-.29.78 1 1 0 0 1-.72.28c-.67 0-1-.35-1-1.06m6.88 8.59.21 1.14a2.84 2.84 0 0 0 1.33.29 2.2 2.2 0 0 0 1.18-.3.9.9 0 0 0 .47-.81.81.81 0 0 0-.34-.64 2.4 2.4 0 0 0-.85-.42 10 10 0 0 1-1.11-.4 10 10 0 0 1-1.11-.55 2.23 2.23 0 0 1-.85-.87 2.63 2.63 0 0 1-.34-1.37 2.55 2.55 0 0 1 1-2.13 3.88 3.88 0 0 1 2.5-.76 8 8 0 0 1 1.43.14 9 9 0 0 1 1.16.27l.41.14-.07 2.48h-1.3l-.34-1.16a3.7 3.7 0 0 0-1.2-.21 1.82 1.82 0 0 0-1.07.28.81.81 0 0 0-.37.69.78.78 0 0 0 .34.64 2.5 2.5 0 0 0 .85.43c.34.11.71.24 1.11.4a10 10 0 0 1 1.1.54 2.35 2.35 0 0 1 .85.84 2.44 2.44 0 0 1 .34 1.31 2.82 2.82 0 0 1-1 2.32 4 4 0 0 1-2.65.84 8.3 8.3 0 0 1-1.44-.13A8 8 0 0 1 19.5 25l-.41-.13v-2.59zm9.74-5.05v6.56a4.35 4.35 0 0 1-.69 2.72 2.93 2.93 0 0 1-2.42.86l-1-.09.18-1.36h.65c.8 0 1.2-.44 1.2-1.31v-7.38l-1-.41v-1.13l4.16-.07v1.2z"/></svg>