<svg xmlns="http://www.w3.org/2000/svg" width="53.6" height="53.44" viewBox="0 0 14.182 14.139"><path fill="#fff" fill-rule="evenodd" d="M.085 7.07C.085 3.21 3.22.085 7.09.085s7.006 3.125 7.006 6.985-3.136 6.985-7.006 6.985S.085 10.929.085 7.07"/><path fill="none" stroke="#000" stroke-miterlimit="10" stroke-width=".169" d="M.085 7.07C.085 3.21 3.22.085 7.09.085s7.006 3.125 7.006 6.985-3.136 6.985-7.006 6.985S.085 10.929.085 7.07z"/><path d="M5.76.84c.464.195.973.3 1.496.314a5 5 0 0 0 1.6-.24l.12.39c-.045.015-.12.06-.21.104-.06.06-.134.12-.179.18a1 1 0 0 0-.15.24c-.044.104-.09.194-.104.313.194.075.389.15.568.225.18.06.374.12.554.15.21.014.389.03.583.014.195 0 .404-.045.613-.134l.39.284a.33.33 0 0 0-.18.194c-.03.09-.045.18-.06.3a1.4 1.4 0 0 0 0 .358c.015.135.03.285.06.45.03.149.075.298.12.433.044.15.09.314.164.464l.18.493c.06.15.134.314.194.464L11.294 6q.427.36.674.898c.15.374.239.793.239 1.286 0 .195-.03.374-.105.569-.06.179-.15.358-.254.553-.105.18-.24.359-.389.538a3.9 3.9 0 0 1-1.675 1.032c-.374.12-.778.195-1.197.255 0 .329-.03.628-.134.852-.075.21-.18.404-.3.539-.12.15-.239.254-.403.359-.15.104-.3.18-.45.239a2.6 2.6 0 0 1-.986.105c-.314-.03-.569-.18-.778-.449-.075-.12-.12-.21-.165-.284a.46.46 0 0 1-.074-.254c-.015-.075-.015-.15-.015-.24 0-.075.015-.15.015-.24.06-.119.104-.223.164-.298a3 3 0 0 1 .21-.195.7.7 0 0 1 .209-.134.6.6 0 0 1 .24-.045c-.225-.06-.42-.12-.614-.18a6 6 0 0 1-.553-.164 4 4 0 0 0-.509-.165c-.15-.045-.314-.09-.464-.134l-.359-.045a1.6 1.6 0 0 0-.374 0c-.134.015-.254.03-.388.09-.12.044-.27.134-.42.254l-.343-.39q.315-.515.583-1.031.248-.516.404-1.077c.105-.359.18-.733.24-1.122.03-.374.06-.808.06-1.286L3.8 5.79a4.3 4.3 0 0 1-.479-.793 1.7 1.7 0 0 1-.194-.673c0-.224.03-.419.105-.598.074-.18.179-.36.299-.539a4.5 4.5 0 0 1 .568-.598 2.7 2.7 0 0 1 .658-.374c.24-.105.479-.164.748-.194.254-.03.509-.015.763.015a1.7 1.7 0 0 0-.284-.554 2.6 2.6 0 0 0-.36-.344zm2.453 1.87q-.135.584-.134 1.166c0 .39.015.763.03 1.122a3 3 0 0 1 1.66.135c.24.075.493.18.718.299q.359.18.718.404a4.5 4.5 0 0 0-.464-1.077 4.6 4.6 0 0 0-.703-.942 5 5 0 0 0-.882-.718 3.2 3.2 0 0 0-.943-.39zm-1.75 0c-.359.075-.643.21-.852.419-.21.209-.314.523-.374.942.03.15.06.284.12.419.044.12.134.239.239.344.104.09.24.164.389.254.15.06.329.12.523.135.015-.404.015-.823.015-1.242-.015-.419-.03-.837-.06-1.271M8.05 6.42c0 .358.015.702.015 1.046 0 .33.03.658.06.987.03.314.09.629.15.943q.089.471.223.987c.27-.12.48-.24.659-.389.194-.15.329-.314.448-.524.12-.194.21-.388.284-.628.045-.224.105-.448.12-.718a1.8 1.8 0 0 0-.18-.733 1.4 1.4 0 0 0-.373-.508 2.8 2.8 0 0 0-.599-.344 2.7 2.7 0 0 0-.807-.12zm-1.616.059c-.18.015-.389.03-.598.015-.194-.015-.404-.03-.598-.06a3.2 3.2 0 0 1-.628-.15 4 4 0 0 1-.599-.254c-.03.24-.06.479-.104.718-.03.27-.045.509-.03.763s.045.524.104.778c.075.254.18.508.33.763.194.314.403.568.673.777.239.225.523.39.822.524.314.135.658.21 1.017.24.36.03.763 0 1.197-.076a2.1 2.1 0 0 0-.314-.463q-.18-.18-.404-.36a2.4 2.4 0 0 0-.464-.268 2 2 0 0 0-.463-.165c-.165-.18-.27-.344-.285-.523a.8.8 0 0 1 .18-.494c.105-.583.164-1.182.164-1.765m.225 4.682c.09.06.164.12.239.18.06.044.105.104.165.179.03.09.044.15.06.239.014.06.014.15-.016.224 0 .045.015.09.045.12.015.03.045.06.075.09.03.015.06.03.105.045h.164c.105-.045.195-.12.3-.195.074-.075.149-.164.209-.24.045-.089.075-.179.105-.283.015-.09.044-.195.074-.3-.269 0-.523 0-.762-.014zm0 0"/></svg>