<svg xmlns="http://www.w3.org/2000/svg" data-name="Layer 1" viewBox="0 0 40 40"><circle cx="19.99" cy="20" r="19.62" fill="#00f"/><path fill="#fff" d="m10 20.86.18 1.14a2.86 2.86 0 0 0 1.34.29 2.25 2.25 0 0 0 1.17-.29.91.91 0 0 0 .47-.81.82.82 0 0 0-.34-.65 2.4 2.4 0 0 0-.85-.42 10 10 0 0 1-1.11-.4 10 10 0 0 1-1.11-.55 2.23 2.23 0 0 1-.85-.87 2.6 2.6 0 0 1-.34-1.37 2.55 2.55 0 0 1 1-2.13A3.88 3.88 0 0 1 12 14a8 8 0 0 1 1.43.14 9 9 0 0 1 1.16.27l.41.14v2.52h-1.3l-.34-1.16a3.7 3.7 0 0 0-1.2-.2 1.8 1.8 0 0 0-1.07.27.82.82 0 0 0-.38.69.78.78 0 0 0 .34.64 2.35 2.35 0 0 0 .85.43c.34.11.71.24 1.11.41a10 10 0 0 1 1.1.53 2.3 2.3 0 0 1 .85.84 2.46 2.46 0 0 1 .34 1.31 2.86 2.86 0 0 1-1 2.33 4.14 4.14 0 0 1-2.66.83 8.3 8.3 0 0 1-1.44-.13A8.6 8.6 0 0 1 9 23.6l-.41-.12v-2.62zm10.43 1.77v1.19h-3.95v-1.19l1-.34v-6.47l-1-.41v-1.14l3.27-.06 3.68 6.29v-4.68l-1-.41v-1.14l3.89-.06v1.2l-1 .41v8H23l-3.65-6.18v4.65zm9.98-6.81v6.55a4.35 4.35 0 0 1-.69 2.72 2.93 2.93 0 0 1-2.42.91l-1-.1.18-1.36h.66c.79 0 1.19-.44 1.19-1.31v-7.41l-1-.41v-1.14l4.16-.06v1.2z"/></svg>