<svg xmlns="http://www.w3.org/2000/svg" data-name="Layer 1" viewBox="0 0 40 40"><circle cx="19.99" cy="20" r="19.62"/><path fill="#fff" d="m11.23 20.86.21 1.14a2.7 2.7 0 0 0 1.33.29A2.27 2.27 0 0 0 14 22a.91.91 0 0 0 .47-.81.78.78 0 0 0-.34-.64 2.35 2.35 0 0 0-.85-.43 10 10 0 0 1-1.11-.4 12 12 0 0 1-1.17-.54 2.3 2.3 0 0 1-.85-.88 2.6 2.6 0 0 1-.34-1.37 2.56 2.56 0 0 1 1-2.13 3.94 3.94 0 0 1 2.5-.76 8 8 0 0 1 1.43.14 9 9 0 0 1 1.16.27l.41.14-.07 2.48H15l-.34-1.16a3.6 3.6 0 0 0-1.19-.2 1.8 1.8 0 0 0-1.07.27.8.8 0 0 0 0 1.34 2.5 2.5 0 0 0 .85.42c.34.11.71.24 1.11.41a10 10 0 0 1 1.1.53 2.3 2.3 0 0 1 .85.84 2.46 2.46 0 0 1 .34 1.31 2.84 2.84 0 0 1-1 2.33 4.1 4.1 0 0 1-2.65.83 9.3 9.3 0 0 1-1.44-.12 10 10 0 0 1-1.19-.27l-.41-.12v-2.62zm7.94 2.96v-1.19l1.11-.34v-6.47H19l-.34 1.29H17.4v-2.86h7.9v2.9H24l-.34-1.29H22.4v6.47l1.13.34v1.19zm9.98-8v6.55a4.35 4.35 0 0 1-.69 2.72A2.93 2.93 0 0 1 26 26l-1-.1.18-1.36h.65c.8 0 1.2-.44 1.2-1.31v-7.41l-1-.41v-1.13l4.16-.07v1.2z"/></svg>