<svg xmlns="http://www.w3.org/2000/svg" data-name="Layer 1" viewBox="0 0 40 40"><circle cx="19.99" cy="20" r="19.62" fill="orange"/><path d="M5.12 23.82v-1.19l1.12-.34v-6.47h-1.3l-.34 1.29H3.35v-2.86h7.9v2.9H10l-.34-1.29H8.35v6.47l1.13.34v1.19zm13.45-6.68L18.23 16a4.7 4.7 0 0 0-1.54-.22c-1.52 0-2.28 1.11-2.28 3.34s.78 3.16 2.32 3.16a4.4 4.4 0 0 0 .69-.06 5 5 0 0 0 .59-.12l.22-.07v-1.74l-1-.32v-1.11l3.92-.07V20l-.92.32v2.78a5 5 0 0 1-.46.26 8 8 0 0 1-1.26.4 7.8 7.8 0 0 1-2 .25 4.15 4.15 0 0 1-3.22-1.23 5.12 5.12 0 0 1-1.14-3.59 5.35 5.35 0 0 1 1.24-3.75A4.31 4.31 0 0 1 16.73 14a8.3 8.3 0 0 1 1.53.16 7.4 7.4 0 0 1 1.22.32l.43.16-.07 2.46zM26.86 14A4 4 0 0 1 30 15.32a5.2 5.2 0 0 1 1.12 3.56 5.35 5.35 0 0 1-1.26 3.71 4.21 4.21 0 0 1-3.3 1.4 3.92 3.92 0 0 1-3.14-1.25 5.4 5.4 0 0 1-1.09-3.65 5.32 5.32 0 0 1 1.21-3.7A4.18 4.18 0 0 1 26.86 14m-.07 1.71a1.87 1.87 0 0 0-1.61.75 4.5 4.5 0 0 0-.54 2.54 4.8 4.8 0 0 0 .49 2.47 1.69 1.69 0 0 0 1.53.8 1.91 1.91 0 0 0 1.64-.78 4.56 4.56 0 0 0 .56-2.49 4.5 4.5 0 0 0-.51-2.43 1.75 1.75 0 0 0-1.56-.82zm8.82.11v6.55a4.35 4.35 0 0 1-.69 2.72 2.92 2.92 0 0 1-2.42.91l-1-.1.17-1.36h.66c.8 0 1.2-.44 1.2-1.31v-7.41l-1-.41v-1.13l4.16-.07v1.2z"/></svg>