<svg xmlns="http://www.w3.org/2000/svg" width="7.2mm" height="7.2mm" viewBox="0 0 7.2 7.2"><g transform="translate(-101.12 -144.75)"><circle cx="104.72" cy="148.35" r="3.6" fill="#fff"/><path fill="#a4c639" fill-rule="evenodd" d="M103.04 147.27h3.365v2.742a.295.295 0 0 1-.295.295h-.337v.835a.38.38 0 0 1-.378.384.38.38 0 0 1-.378-.384v-.835h-.589v.835c0 .212-.17.384-.378.384a.38.38 0 0 1-.378-.384v-.835h-.337a.295.295 0 0 1-.295-.295zm-.66-.022a.385.385 0 0 0-.381.387v1.516c0 .214.17.387.382.387a.385.385 0 0 0 .381-.387v-1.516a.385.385 0 0 0-.381-.387m4.025-.254h-3.365c.041-.48.352-.892.8-1.131l-.32-.47a.139.139 0 1 1 .23-.156l.349.512a1.9 1.9 0 0 1 1.248 0l.348-.512a.138.138 0 1 1 .23.156l-.32.47c.448.239.758.651.8 1.13m-2.206-.652a.186.186 0 1 0-.372 0 .186.186 0 0 0 .372 0m1.443 0a.186.186 0 1 0-.373 0 .186.186 0 0 0 .373 0m1.423.905a.385.385 0 0 0-.382.388v1.516c0 .214.171.388.382.388a.385.385 0 0 0 .381-.388v-1.516a.385.385 0 0 0-.381-.388"/></g></svg>