<svg xmlns="http://www.w3.org/2000/svg" width="153.6mm" height="153.6mm" viewBox="0 0 153.6 153.6"><g transform="translate(-8.651 -75.404)"><circle cx="85.451" cy="152.2" r="75.299" fill="#fffffd" stroke="#fff" stroke-width="3"/><path fill="#fab814" d="m118.519 101.689 3.346-9.547c-2.162.65-3.902-.976-4.942 1.3-.078-.344-.504-.392-.638-.545-.635 2.536-3.186 2.544.361 7.764l-.227.096c-2.098-3.64-2.292-2.016-3.674-3.413-.18.845-.619 1.153-.18 1.87-2.26.098-2.958 5.673-.293 6.73-.227.895.196 1.122.18 1.82 1.284-1.365 2.893-.291 4.161-1.87-.711 3.624-4.516 5.968-8.497 5.236-3.982-.732-6.634-4.262-5.923-7.885.619 1.92 2.504 1.496 3.203 3.219.244-.65.715-.715.83-1.625 2.86-.033 4.21-5.479 2.145-6.39.667-.503.358-.959.488-1.804-1.787.813-1.399-.781-4.65 1.869l-.179-.18c5.398-3.738 2.602-4.583 3.171-7.428-.26.423-.553.179-.83.602.131-1.935-2.26-1.87-3.104-2.992-1.105.878-3.414.244-3.74 2.146-.178-.488-.52-.309-.666-.78-.13 2.894-3.056 3.04 1.268 7.981l-.21.115c-2.521-3.349-2.521-1.708-4.066-2.926-.065.845-.471 1.203.05 1.869-2.229.375-2.244 5.998.536 6.715-.113.91.325 1.089.406 1.787 1.105-1.511 2.83-.634 3.885-2.357-.496 3.702-3.232 6.478-6.612 6.71-4.032.275-7.586-3.129-7.937-7.603.846 1.837 2.666 1.186 3.576 2.812.162-.683.618-.796.618-1.724 2.845-.373 3.511-5.95 1.35-6.6.6-.585.243-.991.275-1.854-1.674 1.025-1.479-.6-4.389 2.423l-.196-.146c4.894-4.373 2.016-4.877 2.229-7.771-.196.456-.521.244-.749.698-.097-1.934-2.47-1.576-3.446-2.583-.976 1.007-3.349.649-3.447 2.583-.227-.454-.552-.242-.748-.698.212 2.894-2.665 3.398 2.228 7.77l-.195.147c-2.91-3.024-2.715-1.398-4.39-2.423.032.863-.325 1.27.276 1.854-2.162.65-1.495 6.227 1.35 6.6 0 .928.456 1.04.618 1.724.91-1.626 2.731-.975 3.576-2.812-.295 3.75-2.872 6.853-6.227 7.496-4.003.77-7.73-2.185-8.322-6.603 1.057 1.723 2.78.846 3.884 2.357.082-.698.521-.877.407-1.787 2.78-.717 2.764-6.34.536-6.715.52-.666.114-1.024.05-1.869-1.545 1.218-1.545-.423-4.066 2.926l-.21-.115c4.324-4.941 1.398-5.087 1.267-7.981-.146.471-.487.292-.665.78-.325-1.902-2.634-1.268-3.74-2.146-.845 1.122-3.236 1.057-3.105 2.992-.277-.423-.569-.18-.83-.602.57 2.666-2.226 3.69 3.171 7.429l-.179.179c-3.252-2.65-2.86-1.056-4.65-1.869.132.845-.178 1.301.489 1.804-2.065.911-.716 6.357 2.145 6.39.115.91.586.974.83 1.625.698-1.723 2.584-1.3 3.202-3.22.711 3.624-1.94 7.154-5.921 7.886-3.983.732-7.787-1.612-8.498-5.235 1.267 1.578 2.877.504 4.161 1.87-.016-.699.407-.926.18-1.82 2.665-1.058 1.966-6.633-.294-6.731.44-.717 0-1.025-.178-1.87-1.382 1.397-1.578-.227-3.675 3.413l-.227-.096c3.69-5.43.78-5.219.292-8.08-.08.487-.455.357-.57.862-1.038-2.277-2.779-.65-4.941-1.301l3.346 9.547a1.38 1.38 0 0 0-.835 1.614c.179.72.896 1.161 1.616 1.014l2.275 10.505c-.645.166-.32 1.835.328 1.673l.033-.007.783 3.611-.02.004h.02l.783 3.608-.006.001c-.65.163-.275 1.918.375 1.756h.011l.07.325h55.273l.07-.325h.012c.65.162 1.024-1.593.375-1.756h-.006l.782-3.609h.02l-.02-.004.783-3.611.033.007c.65.162.974-1.507.328-1.673l2.275-10.505a1.38 1.38 0 0 0 1.617-1.014c.169-.681-.2-1.363-.836-1.614"/><path fill="#171921" d="m53.353 103.539 3.498 16.149a149 149 0 0 1 9.335-1.55l-.544-3.324a.353.353 0 0 1 .696-.115l.548 3.348q4.309-.554 8.625-.85l-.264-3.371a.352.352 0 1 1 .703-.055l.266 3.38a145 145 0 0 1 18.468 0l.266-3.38a.352.352 0 1 1 .703.055l-.265 3.372c2.877.197 5.755.48 8.625.849l.547-3.348a.353.353 0 0 1 .697.114l-.544 3.325q4.676.624 9.336 1.55l3.498-16.15-3.246-.81a.353.353 0 1 1 .171-.684l3.265.815 3.587-10.239c-.631.086-1.216.025-1.748-.03-1.116-.116-1.79-.186-2.333 1a.352.352 0 0 1-.664-.069q-.012-.045-.087-.09c-.19.525-.45.94-.689 1.321-.737 1.174-1.317 2.103 1.136 5.712a.353.353 0 0 1-.153.523l-.227.097a.354.354 0 0 1-.446-.148c-1.269-2.205-1.768-2.364-2.294-2.532a2.7 2.7 0 0 1-.893-.43q-.03.083-.06.159c-.15.391-.211.552 0 .898a.353.353 0 0 1-.284.536c-.853.037-1.418 1.145-1.602 2.226-.255 1.518.15 3.32 1.424 3.825a.35.35 0 0 1 .21.415c-.108.433-.038.653.05.933q.021.062.04.13c.564-.367 1.16-.449 1.698-.523.733-.1 1.366-.186 1.937-.897a.353.353 0 0 1 .622.29c-.748 3.804-4.745 6.276-8.908 5.513-2.115-.39-3.988-1.58-5.137-3.27-1.03-1.512-1.408-3.298-1.068-5.03a.35.35 0 0 1 .325-.284.35.35 0 0 1 .357.244c.279.864.837 1.17 1.483 1.524.477.26 1.002.549 1.393 1.091l.083-.104c.185-.229.332-.41.387-.853a.354.354 0 0 1 .346-.31c1.363-.016 2.388-1.547 2.695-3.051.22-1.078.094-2.318-.687-2.663a.352.352 0 0 1-.07-.603c.316-.24.315-.412.31-.83v-.174c-.422.119-.723.101-.994.085-.554-.032-1.078-.064-3.043 1.539a.355.355 0 0 1-.472-.025l-.18-.178a.353.353 0 0 1 .05-.54c3.587-2.485 3.376-3.558 3.109-4.918-.09-.455-.187-.952-.17-1.534a.3.3 0 0 0-.103.108.353.353 0 0 1-.646-.216c.062-.924-.536-1.255-1.516-1.72-.462-.22-.936-.446-1.297-.787-.432.242-.948.345-1.45.446-1.066.214-1.727.391-1.882 1.297a.353.353 0 0 1-.68.062.3.3 0 0 0-.079-.135c-.124.57-.34 1.032-.539 1.453-.59 1.256-1.055 2.248 1.818 5.53a.354.354 0 0 1-.1.544l-.21.113a.35.35 0 0 1-.45-.098c-1.522-2.025-2.036-2.12-2.58-2.219-.27-.05-.563-.105-.943-.318l-.04.164c-.1.4-.142.566.109.887a.352.352 0 0 1-.22.565c-.844.14-1.269 1.315-1.315 2.415-.067 1.536.559 3.27 1.88 3.61.171.044.284.208.262.384-.055.446.042.658.166.927q.027.059.056.125c.513-.434 1.093-.586 1.618-.724.711-.187 1.326-.347 1.801-1.124a.355.355 0 0 1 .42-.149.355.355 0 0 1 .23.38c-.52 3.885-3.373 6.77-6.936 7.013-4.226.29-7.948-3.267-8.314-7.926a.353.353 0 0 1 .672-.175c.382.83.975 1.065 1.66 1.34.505.2 1.06.422 1.515.911l.07-.114c.154-.25.275-.446.275-.901 0-.177.132-.327.307-.35 1.413-.185 2.186-1.863 2.306-3.343.088-1.101-.19-2.322-1.012-2.569a.354.354 0 0 1-.145-.591c.289-.28.266-.45.215-.863l-.02-.172c-.401.167-.699.186-.97.204-.554.034-1.077.069-2.838 1.897a.35.35 0 0 1-.466.038l-.194-.146a.353.353 0 0 1-.023-.546c3.253-2.908 2.91-3.95 2.477-5.27-.144-.44-.303-.922-.36-1.499a.3.3 0 0 0-.088.118.352.352 0 0 1-.668-.14c-.045-.92-.68-1.176-1.71-1.517-.486-.16-.985-.325-1.384-.619-.398.294-.897.459-1.383.62-1.03.34-1.665.595-1.71 1.516a.354.354 0 0 1-.669.14.3.3 0 0 0-.09-.118c-.054.577-.213 1.058-.357 1.5-.433 1.32-.776 2.361 2.477 5.269a.352.352 0 0 1-.023.546l-.194.146a.35.35 0 0 1-.466-.038c-1.761-1.828-2.284-1.863-2.838-1.897-.271-.018-.569-.037-.97-.204l-.02.172c-.051.412-.073.583.215.863a.35.35 0 0 1 .096.336.36.36 0 0 1-.241.255c-.821.247-1.1 1.468-1.012 2.569.12 1.48.893 3.158 2.306 3.343a.355.355 0 0 1 .307.35c0 .455.121.65.276.901l.069.114c.456-.489 1.011-.71 1.514-.912.686-.274 1.28-.51 1.662-1.34a.351.351 0 0 1 .671.176c-.309 3.924-2.986 7.138-6.512 7.816-1.912.368-3.847-.065-5.446-1.215-1.78-1.28-2.98-3.353-3.293-5.688a.355.355 0 0 1 .232-.38.354.354 0 0 1 .419.149c.477.777 1.09.937 1.801 1.124.526.138 1.105.29 1.62.724q.026-.064.054-.126c.124-.268.22-.48.166-.926a.35.35 0 0 1 .261-.384c1.323-.34 1.948-2.074 1.883-3.61-.048-1.1-.473-2.274-1.316-2.415a.354.354 0 0 1-.22-.565c.25-.321.209-.486.108-.887l-.04-.164c-.38.213-.674.268-.942.318-.545.1-1.059.194-2.581 2.219a.35.35 0 0 1-.45.097l-.21-.113a.352.352 0 0 1-.098-.543c2.872-3.282 2.406-4.274 1.816-5.53-.198-.421-.415-.883-.539-1.453a.3.3 0 0 0-.08.135.352.352 0 0 1-.68-.062c-.153-.906-.815-1.084-1.88-1.297-.503-.1-1.019-.204-1.451-.447-.36.342-.835.568-1.297.787-.98.466-1.578.797-1.516 1.72a.353.353 0 0 1-.646.216.3.3 0 0 0-.1-.106c.01.534-.083 1.005-.169 1.436-.278 1.407-.499 2.518 3.106 5.015a.355.355 0 0 1 .049.54l-.18.178a.355.355 0 0 1-.472.025c-1.965-1.603-2.489-1.571-3.043-1.54-.273.017-.572.035-.993-.084v.175c-.005.416-.006.589.31.829a.35.35 0 0 1-.07.603c-.782.345-.909 1.585-.688 2.663.307 1.504 1.332 3.035 2.695 3.05a.355.355 0 0 1 .346.31c.055.444.201.625.387.854l.083.104c.391-.543.916-.83 1.393-1.091.646-.354 1.204-.66 1.483-1.524.05-.153.2-.254.357-.244a.35.35 0 0 1 .325.284c.34 1.732-.039 3.52-1.068 5.031-1.15 1.688-3.022 2.879-5.136 3.269-4.164.766-8.16-1.71-8.909-5.514a.353.353 0 0 1 .621-.29c.574.712 1.205.799 1.938.898.539.074 1.134.156 1.698.522q.019-.066.04-.13c.09-.28.158-.5.048-.932a.353.353 0 0 1 .212-.415c1.274-.504 1.68-2.307 1.422-3.826-.182-1.08-.747-2.188-1.6-2.225a.35.35 0 0 1-.285-.536c.212-.346.15-.507 0-.899q-.029-.075-.06-.158c-.35.258-.633.349-.892.43-.526.168-1.025.327-2.294 2.531a.353.353 0 0 1-.446.15l-.227-.099a.352.352 0 0 1-.152-.522c2.453-3.61 1.872-4.538 1.135-5.713-.247-.394-.517-.826-.71-1.377a.3.3 0 0 0-.066.148.352.352 0 0 1-.664.068c-.543-1.186-1.217-1.116-2.333-1-.531.055-1.115.116-1.748.03l3.587 10.24 3.265-.817a.353.353 0 0 1 .17.684zm59.734 22.609a.353.353 0 0 1-.344-.427l1.157-5.344q-2.24-.444-4.483-.82l-.666 3.3a.353.353 0 1 1-.691-.139l.66-3.275a147 147 0 0 0-8.75-1.15l-.416 3.383a.353.353 0 0 1-.701-.085l.413-3.367a144.6 144.6 0 0 0-27.632 0l.414 3.367a.353.353 0 0 1-.702.085l-.414-3.383c-2.92.294-5.84.678-8.75 1.15l.66 3.275a.353.353 0 1 1-.693.14l-.665-3.301q-2.243.375-4.483.82l1.158 5.344a.353.353 0 1 1-.69.149l-1.21-5.581a.36.36 0 0 1-.047-.225l-3.615-16.688-3.894-11.117a.352.352 0 0 1 .434-.453c.748.224 1.443.151 2.114.082.989-.103 2.01-.21 2.754.882q.026-.021.05-.041c.1-.077.125-.097.143-.205a.35.35 0 0 1 .347-.295h.002c.17 0 .318.124.347.293.135.791.473 1.331.8 1.855.603.96 1.146 1.826.402 3.712.26-.177.506-.272.772-.357.32-.101.598-.19 1.036-.635a.354.354 0 0 1 .597.175c.05.236.122.425.191.608.124.324.252.657.14 1.075.869.302 1.545 1.31 1.782 2.72.279 1.647-.113 3.686-1.587 4.473.063.459-.033.76-.119 1.03-.06.191-.113.355-.107.58a.354.354 0 0 1-.61.25c-.531-.564-1.113-.643-1.788-.735-.464-.064-.965-.133-1.454-.38 1.141 2.81 4.394 4.511 7.771 3.89 1.93-.355 3.637-1.436 4.681-2.971a6 6 0 0 0 1.067-3.428c-.37.42-.824.669-1.242.897-.594.326-1.108.607-1.396 1.318a.34.34 0 0 1-.332.219.35.35 0 0 1-.325-.229c-.079-.208-.186-.342-.31-.496-.18-.222-.379-.468-.486-.92-1.654-.206-2.751-1.964-3.086-3.597-.287-1.402-.02-2.59.68-3.186-.253-.349-.25-.707-.246-1.056a4 4 0 0 0-.033-.634.353.353 0 0 1 .495-.375c.568.258.858.242 1.196.221.284-.017.553-.017.867.06-1.407-1.546-1.196-2.607-.979-3.712.117-.585.237-1.192.083-1.912a.352.352 0 0 1 .645-.26c.062.101.098.112.218.15q.002.002.007.003c.224-.966 1.123-1.393 1.868-1.746.511-.242.994-.472 1.26-.824a.35.35 0 0 1 .501-.063c.346.274.871.38 1.428.492.813.163 1.79.36 2.238 1.242q.007-.006.016-.011c.108-.064.134-.079.167-.186a.354.354 0 0 1 .689.088c.036.8.307 1.378.57 1.937.482 1.024.916 1.949-.048 3.728.279-.142.532-.204.804-.254.332-.062.619-.114 1.11-.501a.353.353 0 0 1 .571.25c.018.236.068.432.114.62.084.334.17.676.009 1.078.83.407 1.378 1.495 1.438 2.93.072 1.667-.569 3.638-2.126 4.233.006.465-.127.753-.245 1.013-.084.182-.157.339-.182.565a.353.353 0 0 1-.635.167c-.457-.623-1.023-.77-1.679-.943-.431-.113-.897-.235-1.334-.514.47 1.662 1.443 3.1 2.766 4.053a6.28 6.28 0 0 0 4.902 1.095c2.826-.543 5.057-2.892 5.747-5.906-.376.285-.79.45-1.174.604-.63.25-1.174.467-1.549 1.137a.35.35 0 0 1-.355.176.35.35 0 0 1-.295-.267c-.052-.22-.142-.366-.247-.535-.15-.241-.315-.511-.366-.976-1.614-.402-2.49-2.275-2.624-3.931-.116-1.433.295-2.584 1.067-3.093-.21-.377-.166-.73-.123-1.073.023-.196.048-.397.04-.638a.352.352 0 0 1 .536-.314c.533.325.824.344 1.16.365.276.018.535.05.829.158-1.175-1.65-.855-2.622-.5-3.7.192-.587.39-1.193.333-1.99a.354.354 0 0 1 .677-.165c.043.103.071.116.187.168l.008.004c.338-.931 1.283-1.244 2.07-1.504.537-.177 1.044-.345 1.35-.66a.363.363 0 0 1 .508 0c.305.315.813.483 1.35.66.787.26 1.732.573 2.07 1.504l.01-.004c.114-.052.141-.065.186-.17a.355.355 0 0 1 .407-.202c.169.04.282.196.27.368-.059.798.14 1.404.333 1.991.354 1.078.673 2.05-.5 3.7.293-.108.552-.14.828-.158.337-.02.627-.04 1.16-.365a.353.353 0 0 1 .536.314c-.01.241.017.442.04.638.043.343.087.696-.123 1.073.772.509 1.183 1.66 1.067 3.093-.134 1.656-1.01 3.529-2.625 3.931-.05.465-.215.735-.366.976-.104.17-.194.316-.246.535a.35.35 0 0 1-.295.267.35.35 0 0 1-.356-.176c-.374-.67-.919-.886-1.549-1.137-.384-.155-.796-.319-1.172-.602.838 3.63 3.924 6.238 7.367 6.004 2.865-.196 5.224-2.295 6.05-5.25-.437.28-.905.402-1.337.516-.656.172-1.223.32-1.677.943a.353.353 0 0 1-.636-.167c-.026-.226-.099-.383-.183-.565-.118-.26-.25-.549-.245-1.013-1.557-.595-2.198-2.566-2.127-4.233.062-1.435.61-2.523 1.44-2.93-.16-.402-.075-.744.007-1.077.047-.19.097-.385.115-.622a.353.353 0 0 1 .57-.25c.492.388.779.44 1.111.502.272.05.525.112.803.254-.963-1.778-.529-2.703-.046-3.728.261-.56.533-1.137.569-1.937a.353.353 0 0 1 .689-.089c.033.108.059.123.167.187l.016.01c.448-.881 1.425-1.078 2.238-1.241.557-.112 1.082-.218 1.428-.492a.35.35 0 0 1 .501.063c.265.352.748.582 1.26.824.745.353 1.644.78 1.868 1.746l.008-.002c.119-.039.155-.05.217-.15a.354.354 0 0 1 .646.255c-.157.783-.035 1.41.084 2.015.22 1.111.416 2.114-.958 3.608.305-.072.568-.072.844-.055.336.02.627.037 1.196-.22a.354.354 0 0 1 .495.375 4 4 0 0 0-.034.632c.004.35.008.708-.245 1.057.7.597.966 1.784.68 3.186-.335 1.633-1.432 3.391-3.085 3.597-.107.452-.307.698-.486.92-.125.154-.233.288-.311.496a.35.35 0 0 1-.326.229h-.005a.35.35 0 0 1-.326-.22c-.288-.71-.802-.991-1.396-1.317-.418-.228-.87-.476-1.242-.897a6 6 0 0 0 1.067 3.428c1.044 1.535 2.75 2.616 4.68 2.972 3.381.62 6.632-1.082 7.772-3.89-.49.246-.99.315-1.454.379-.675.092-1.257.17-1.787.734a.353.353 0 0 1-.61-.25c.005-.224-.048-.388-.108-.578-.086-.27-.182-.572-.117-1.03-1.476-.788-1.868-2.827-1.59-4.474.238-1.41.914-2.418 1.782-2.72-.111-.418.016-.751.141-1.075.069-.183.142-.372.192-.608a.353.353 0 0 1 .595-.175c.44.445.718.534 1.038.636.265.084.51.179.771.356-.743-1.886-.201-2.753.401-3.712.268-.427.542-.865.707-1.441a.1.1 0 0 1-.008-.033c-.056-.265.12-.477.18-.546a.352.352 0 0 1 .618.284l-.016.092q.08.039.172.094c.747-1.152 1.784-1.043 2.792-.939.672.07 1.365.142 2.114-.082a.352.352 0 0 1 .434.453l-3.895 11.117-3.614 16.688a.352.352 0 0 1-.048.225l-1.209 5.58a.356.356 0 0 1-.346.28"/><path fill="#171921" d="M89.189 99.649h-7.477a.353.353 0 1 1 0-.706h3.548a.35.35 0 0 1-.163-.297v-3.253a.353.353 0 0 1 .706 0v3.253a.35.35 0 0 1-.164.297h3.55a.353.353 0 0 1 0 .706"/><path fill="#fab814" d="M85.45 97.587a1.382 1.382 0 1 1 0 2.764 1.382 1.382 0 0 1 0-2.764"/><path fill="#171921" d="M85.45 97.94a1.03 1.03 0 0 0 0 2.059 1.03 1.03 0 0 0 0-2.059m0 2.764a1.737 1.737 0 0 1-1.734-1.735c0-.956.778-1.735 1.735-1.735.956 0 1.735.779 1.735 1.735s-.779 1.735-1.735 1.735M105.529 101.109l-.043-.003-7.423-.912a.353.353 0 0 1-.308-.393.36.36 0 0 1 .394-.307l3.523.432a.35.35 0 0 1-.126-.315l.397-3.228a.347.347 0 0 1 .393-.306c.193.024.33.2.307.393l-.397 3.228a.35.35 0 0 1-.198.275l3.523.433a.353.353 0 0 1-.042.703"/><path fill="#fab814" d="M102.019 98.6a1.383 1.383 0 1 1-.336 2.742 1.383 1.383 0 0 1 .336-2.742"/><path fill="#171921" d="M101.849 98.939a1.03 1.03 0 1 0 .004 2.058 1.03 1.03 0 0 0-.004-2.058m.004 2.764q-.106 0-.214-.013a1.737 1.737 0 0 1-1.51-1.934 1.74 1.74 0 0 1 1.933-1.51 1.737 1.737 0 0 1-.21 3.457M65.374 101.109a.353.353 0 0 1-.043-.703l3.524-.433a.36.36 0 0 1-.199-.275l-.397-3.228a.353.353 0 0 1 .702-.087l.395 3.228a.35.35 0 0 1-.125.315l3.522-.432a.353.353 0 1 1 .087.7l-7.422.912z"/><path fill="#fab814" d="M68.878 98.6a1.382 1.382 0 1 1 .334 2.744 1.382 1.382 0 0 1-.334-2.744"/><path fill="#171921" d="M69.048 98.939q-.063 0-.127.008a1.028 1.028 0 1 0 .127-.008m-.004 2.764a1.736 1.736 0 0 1-.21-3.458 1.74 1.74 0 0 1 1.934 1.51 1.737 1.737 0 0 1-1.724 1.948"/><path fill="#fab814" d="M118.349 101.629a1.382 1.382 0 1 1-.67 2.682 1.382 1.382 0 0 1 .67-2.682"/><path fill="#171921" d="M118.009 101.939c-.473 0-.882.32-.997.781-.067.266-.024.543.116.779.142.235.367.402.634.468a1.04 1.04 0 0 0 1.247-.75 1.026 1.026 0 0 0-.75-1.246 1 1 0 0 0-.25-.032m.003 2.764a1.734 1.734 0 1 1 1.485-2.628c.24.397.309.863.197 1.313a1.73 1.73 0 0 1-1.682 1.315"/><path fill="#fab814" d="M52.55 101.629a1.382 1.382 0 1 1 .67 2.681 1.382 1.382 0 0 1-.67-2.681"/><path fill="#171921" d="M52.887 101.939a1.032 1.032 0 0 0-1 1.279c.134.54.698.884 1.248.75.266-.067.49-.234.632-.47s.184-.512.116-.778a1.026 1.026 0 0 0-.996-.781m-.003 2.764a1.733 1.733 0 0 1-.419-3.417q.208-.053.422-.053a1.737 1.737 0 0 1-.003 3.47M109.319 113.909q-.386 0-.758-.033c-2.971-.262-6.546-2.128-7.571-6.47-1.243 2.943-3.766 4.775-6.843 4.877-3.736.121-7.066-2.259-8.693-6.137-1.629 3.878-4.953 6.257-8.693 6.137-3.077-.102-5.6-1.934-6.843-4.877-1.025 4.342-4.6 6.208-7.571 6.47-3.343.293-7.494-1.366-8.706-5.71a.353.353 0 0 1 .679-.191c1.11 3.978 4.802 5.479 7.965 5.198 3.007-.266 6.686-2.323 7.162-7.25a.353.353 0 0 1 .693-.055c.896 3.416 3.442 5.605 6.645 5.71 3.692.122 6.966-2.448 8.334-6.545a.353.353 0 0 1 .67 0c1.368 4.097 4.645 6.667 8.334 6.544 3.203-.105 5.75-2.293 6.645-5.709a.353.353 0 0 1 .693.055c.476 4.927 4.155 6.984 7.162 7.25 3.168.28 6.854-1.22 7.965-5.198a.353.353 0 0 1 .68.19c-1.124 4.021-4.763 5.744-7.949 5.744"/><path fill="#fab814" d="M57.733 125.469c-.65.162-1.024-1.593-.375-1.756a146.3 146.3 0 0 1 56.185 0c.65.163.275 1.918-.375 1.756M55.439 114.82a146.3 146.3 0 0 1 60.022 0c.65.162.325 1.837-.325 1.674a146.3 146.3 0 0 0-59.371 0c-.65.163-.976-1.512-.325-1.674"/><path fill="#171921" d="M55.524 115.159c-.028.01-.082.107-.086.293-.008.372.168.674.243.696 19.758-4.094 39.78-4.095 59.527-.004.087-.018.263-.318.255-.69-.004-.192-.06-.29-.087-.296-19.85-4.16-39.991-4.16-59.852 0m.153 1.697a.77.77 0 0 1-.566-.272 1.5 1.5 0 0 1-.319-.639c-.156-.621-.012-1.327.562-1.47l.014-.004c19.961-4.183 40.204-4.183 60.165 0 .589.147.733.851.576 1.474-.044.18-.136.438-.318.64-.204.224-.474.314-.74.248-19.637-4.068-39.563-4.068-59.214.004a.7.7 0 0 1-.16.019m57.58 8.972a.8.8 0 0 1-.174-.02.354.354 0 0 1-.256-.429.35.35 0 0 1 .427-.256c.06-.02.213-.241.262-.58.043-.295-.023-.469-.058-.492a145.3 145.3 0 0 0-56.03.004c-.019.019-.083.191-.042.485.05.34.202.563.267.583a.35.35 0 0 1 .425.256.355.355 0 0 1-.26.429c-.257.063-.513-.018-.719-.23-.353-.366-.526-1.111-.379-1.628.088-.309.284-.517.553-.583 18.704-3.66 37.652-3.66 56.338-.004.525.13.748.743.56 1.494-.15.603-.506.971-.914.971"/><path fill="#fab814" d="M79.923 122.929v-7.056a5.528 5.528 0 0 1 11.054 0v7.056h-9.266v-7.056a3.739 3.739 0 1 1 7.479 0v7.056"/><path fill="#171921" d="M82.065 122.579h6.771v-6.703a3.39 3.39 0 0 0-3.385-3.387 3.39 3.39 0 0 0-3.386 3.387zm8.913.705h-9.266a.353.353 0 0 1-.353-.352v-7.056c0-2.257 1.836-4.093 4.092-4.093s4.091 1.836 4.091 4.093v6.703h1.083v-6.703a5.18 5.18 0 0 0-5.174-5.175 5.18 5.18 0 0 0-5.175 5.175v7.056a.353.353 0 0 1-.705 0v-7.056a5.887 5.887 0 0 1 5.88-5.88 5.887 5.887 0 0 1 5.88 5.88v7.056a.353.353 0 0 1-.353.352"/><path fill="#fab814" d="M83.824 109.539h3.252l-.488 2.927h-2.276z"/><g fill="#171921"><path d="M84.61 112.109h1.68l.369-2.22H84.24zm1.978.705h-2.276a.35.35 0 0 1-.348-.293l-.487-2.927a.351.351 0 0 1 .347-.41h3.252a.35.35 0 0 1 .347.41l-.487 2.927a.35.35 0 0 1-.348.293"/><path d="M85.45 123.549a.44.44 0 0 1-.44-.441V112.51a.44.44 0 1 1 .882 0v10.598a.44.44 0 0 1-.441.44"/><path d="M113.009 126.169a.6.6 0 0 1-.117-.011 145 145 0 0 0-54.88 0 .618.618 0 0 1-.233-1.213 146.3 146.3 0 0 1 55.346 0 .618.618 0 0 1-.116 1.224"/></g><path fill="#fff" d="M56.368 127.179v49.338c0 6.653 0 12.397 8.415 17.294l20.602 11.569L106 193.803c8.406-4.804 8.405-10.428 8.402-16.94v-49.684z"/><path fill="#171921" d="M56.368 127.179v49.338c0 6.653 0 12.397 8.415 17.294l20.602 11.569L106 193.803c8.406-4.804 8.405-10.428 8.402-16.94v-49.684zm29.017 80.628-21.652-12.158c-9.483-5.516-9.483-12.438-9.483-19.131v-51.455h62.268v51.8c.003 6.57.006 13.364-9.475 18.78z"/><path fill="#eb1923" d="M92.392 190.819c-1.122-.146-2.048.536-2.325 1.332.309-.242 1.286-.39 1.92-.194-.88-.048-1.757.666-1.935 1.318.357-.294 1.495-.375 1.918-.196-.797.032-1.561.634-1.789 1.3.374-.243 1.414-.341 2-.195-.862.13-1.48.748-1.675 1.317.521-.341 1.203-.31 2.05-.26-.878.325-1.172.699-1.464 1.284.486-.308 1.35-.325 2.194-.26M69.778 185.47c-.861-.521-2.048-.342-2.6.373.617-.114 1.528.228 1.885.52-.585-.374-1.804-.145-2.275.504.552-.146 1.446.228 1.918.505-.619-.211-1.577-.163-2.179.569.504-.115 1.334.162 1.87.47a1.98 1.98 0 0 0-1.951.635c.667-.146 1.415.244 1.87.456-.862-.017-1.382.324-1.691.682.552-.113 1.399.18 2.016.504m-1.464-37.035c-.194-.892-.975-1.836-1.853-1.722.406.277.715 1.317.83 1.983-.278-.747-.96-1.544-1.773-1.446.439.389.699 1.348.862 2.065-.439-.83-.976-1.447-1.773-1.35.536.52.732 1.43.863 2.13-.26-.586-.863-1.301-1.676-1.22.505.455.716 1.447.895 2.179-.326-.44-.813-1.057-1.577-.993.503.488.732 1.447.943 2.18m5.479-21.005c.015-1.138-.765-1.869-1.447-1.935.406.472.488 1.155.553 1.82-.131-.942-.83-1.56-1.43-1.59.324.34.502 1.04.535 1.722-.098-.52-.585-1.301-1.399-1.383.375.39.488 1.122.57 1.79-.113-.57-.699-1.22-1.35-1.269.278.228.505 1.056.553 1.691-.081-.26-.536-.894-1.251-.975.373.34.536 1.17.602 1.82m24.743-.244c-.91-.438-2.552-.179-4.065-.423-3.039-.486-3.414-1.349-3.414-1.983-.016-.666-.617-.699-.617.017.015 4.226 6.372 2.064 8.177 3.154"/><path fill="#171921" d="M87.14 139.859v-.455c0-.537 1.317-.504 1.317-.018v.358m-2.617.236v-.511c0-.538 1.138-.505 1.155 0v.406m-2.277.195c-.048-.455 0-.845.358-1.106.178.326.374.634.601.911v.113m.878-4.226c.44.13.861.277 1.236.52-.081.195-.227.39-.52.39-.26 0-.553-.016-.716-.324-.081-.163-.048-.392 0-.586m-.194-.05c0 .213-.05.423-.115.521-.162.26-.763.244-.894-.114-.048-.146-.048-.407.017-.65.325.08.667.147.992.243m-2.602-.86c.244.145.586.324 1.09.47-.277.228-.537.554-.619.911a1.27 1.27 0 0 1-.471-1.382m12.616-2.796c.39-.52.99-1.024 1.641-1.235.96-.326 1.35.455.586.714a5.3 5.3 0 0 0-1.626 1.123m-5.25 1.577c-.244 0-.684-.13-.814-.309-1.413-2.162-1.772-1.382-1.983-.634-.179.666-.959.682-.731-.212.569-2.194 2.112-1.885 4.032 1.155m-10.341 11.819c-1.706 2.096-2.665 3.153-2.6 8.242-16.112-9.201-11.397-10.52-14.925-16.014-.552-.862 3.04-2.861 4.179-2.016 2.291 1.69 1.446 4.878 3.348 6.325 1.887 1.43 5.252 2.064 9.998 3.463m4.682-14.908-3.966.146c-.195.017-.341.113-.341.34.016 1.43.292 2.358 1.316 3.105-.13.798-.048 1.204.781 1.87.081-.65.342-.943.747-1.22.033.017.066.017.081.034-.048.292-.048.6.017.78.162.456.959.472 1.171.147.194.471.601.488.926.488.342 0 .505-.246.618-.473.195.163.39.342.569.57.569.78.667 1.788.667 2.747l-.538.048v-.39c-.015-.552-1.3-.65-1.591-.178-.326-.358-1.334-.293-1.334.276v.18a5 5 0 0 1-.553-.912c-.406.26-.65.456-.586 1.383-.177.016-.356.031-.52.048.016 1.073.487 1.365 4.325 1.284.097 1.074-.975 1.676-1.772 2.179-2.08 1.186-4.276 2.487-5.462 4.666-.993 1.724-1.237 3.771-1.122 5.754l1.138-.503.13.618c-2.048.975-5.788 2.958-8.242 4.095-.601.277-2.162.667-2.488.115-1.121-1.935-2.016-3.397-3.317-4.877-.665-.765-5.087 2.894-4.274 4.128 1.853 2.813 4.877 6.845 9.916 6.878 5.219.032 9.754-1.886 10.746-2.178l.21.665c-.665.294-1.25.504-1.949.733.91 3.576 1.967 4.974 4.422 7.152l-.504.375c-.44-.26-1.187-1.09-1.593-1.48-5.219 2.47-7.17 4.943-8.421 7.494-1.383 3.073-1.122 6.569-.537 9.803.113.538-.472.797-.91.634-1.203-.275-1.87-1.478-3.025-1.918-.52-.227-1.203-.487-1.771-.39-.927.163-1.92 4.845-.976 5.3 1.756.861 3.674 1.04 5.624 2.048 1.284.52 2.52 1.367 3.984 1.138.828-.08 1.658-.65 1.74-1.527.73-3.154 1.755-6.504 4.16-8.78 1.156-1.138 2.65-2.047 4.13-2.747-.585-2.244-1.023-4.487-.975-6.828l.715-.032c.52 8.909 2.894 10.778 7.073 14.924.423.422.39 1.22-.228 1.462-.813.406-1.772.423-2.7.473-.99.048-.243 5.543 1.22 5.494 2.569-.081 5.235-2.081 6.78-4.049.65-.812 1.43-1.625 2.048-2.421.763-.992-.065-2.147-.292-3.057-.636-2.601-.928-10.079-.96-11.119l.91.016.131-1.886c-2.716-3.365-2.277-8.633-3.398-12.03-.438-1.382-.926-2.812-.926-4.276 0-1.983 2.242-5.706 2.194-9.022-.016-1.398-.797-3.219-.78-4.048.016-2.406 1.398-1.885 1.365-6.893-.016-1.382-.179-2.406-.537-3.82 2.422-2.552-.91-5.104-2.828-3.513-1.545-.405-1.739-.811-4.764-.811-2.584 0-4.064.698-5.673 1.772"/></g></svg>