<svg xmlns="http://www.w3.org/2000/svg" id="a" viewBox="0 0 45.35 45.35"><defs><style>.f{fill:#fff}.g{fill:#be1e2d}</style></defs><path d="M19.59 30.68h6.35l.01.09h1.26l-.01-.09h1.12v-1.24h-4.98v-1.25H22.1v1.25h-4.98v1.24h1.21l-.01.09h1.26z" class="g"/><path d="M27.21 33.03h-3.25v-.09h-2.38v.09h-5.87v-.09h-.86v-5.78h4.98v-1.24h5.78v1.24h4.98v5.78c-.54-.02-2.8.07-3.38.09" class="f"/><path d="M22.1 23.73v3.79h1.24v-3.77c2.78-.58 2.3-4.97-.58-4.89-2.82-.08-3.37 4.2-.67 4.87m.67-3.63c1.6-.02 1.6 2.5 0 2.47-1.6.02-1.6-2.5 0-2.47" class="g"/><path d="M25.61 29.8h-5.78v-4.72c-3.5-2.58-1.47-8.62 2.94-8.48 4.46-.15 6.46 6.05 2.84 8.56v4.65Zm-2.84-8.67c-.29 0-.25.43 0 .43s.3-.43 0-.43" class="f"/><path d="M26.49 20.64h1.24v1.33h-1.24z" class="g"/><path d="M24.23 18.38h5.78v5.86h-5.78z" class="f"/><path d="M29.48 19.48h1.24v3.73h-1.24z" class="g"/><path d="M27.21 17.21h5.78v8.27h-5.78z" class="f"/><path d="M32.55 18.32h1.24v6.06h-1.24z" class="g"/><path d="M30.28 16.05h5.78v10.59h-5.78z" class="f"/><path d="M35.79 16.99h1.24v8.71h-1.24z" class="g"/><path d="M33.52 14.72h5.78v13.25h-5.78z" class="f"/><path d="M38.86 15.83h1.24v11.03h-1.24z" class="g"/><path d="M36.59 13.56h5.78v15.57h-5.78z" class="f"/><path d="M41.84 14.59h1.24V28.2h-1.24z" class="g"/><path d="M39.57 12.32h5.78v18.14h-5.78z" class="f"/><path d="M17.7 20.64h1.24v1.33H17.7z" class="g"/><path d="M15.43 18.38h5.78v5.86h-5.78z" class="f"/><path d="M14.63 19.48h1.24v3.73h-1.24z" class="g"/><path d="M12.36 17.21h5.78v8.27h-5.78z" class="f"/><path d="M11.64 18.32h1.24v6.06h-1.24z" class="g"/><path d="M9.38 16.05h5.78v10.59H9.38z" class="f"/><path d="M8.49 16.99h1.24v8.71H8.49z" class="g"/><path d="M6.22 14.72H12v13.25H6.22z" class="f"/><path d="M5.42 15.83h1.24v11.03H5.42z" class="g"/><path d="M3.15 13.56h5.78v15.57H3.15z" class="f"/><path d="M2.27 14.59h1.25V28.2H2.27z" class="g"/><path d="M0 12.32h5.78v18.14H0z" class="f"/><path d="M19.59 30.68h6.35l.01.09h1.26l-.01-.09h1.12v-1.24h-4.98v-1.25H22.1v1.25h-4.98v1.24h1.21l-.01.09h1.26zM22.1 23.73v3.79h1.24v-3.77c2.78-.58 2.3-4.97-.58-4.89-2.82-.08-3.37 4.2-.67 4.87m.67-3.63c1.6-.02 1.6 2.5 0 2.47-1.6.02-1.6-2.5 0-2.47M26.49 20.64h1.24v1.33h-1.24zM29.48 19.48h1.24v3.73h-1.24zM32.55 18.32h1.24v6.06h-1.24zM35.79 16.99h1.24v8.71h-1.24zM38.86 15.83h1.24v11.03h-1.24zM41.84 14.59h1.24V28.2h-1.24zM17.7 20.64h1.24v1.33H17.7zM14.63 19.48h1.24v3.73h-1.24zM11.64 18.32h1.24v6.06h-1.24zM8.49 16.99h1.24v8.71H8.49zM5.42 15.83h1.24v11.03H5.42zM2.27 14.59h1.25V28.2H2.27z" class="g"/></svg>