<svg xmlns="http://www.w3.org/2000/svg" width="377.824" height="377.824" viewBox="0 0 99.966 99.966"><g transform="translate(-57.301 -92.341)"><circle cx="107.28" cy="142.32" r="48.483" fill="#fff" stroke="#fff" stroke-width="3"/><g stroke="#000"><path fill="#fff" fill-rule="evenodd" stroke-width=".6300375" d="m77.295 110.59.37 45.003c.107 12.987 13.718 26.909 29.632 26.922 17.377.01 29.732-14.3 29.796-27.906l.205-44.019-30 .001z"/><g stroke-width="1pt"><g stroke-linecap="round" stroke-linejoin="round"><path fill="#ff0" fill-rule="evenodd" stroke-width=".33602pt" d="m114.254 153.29 5.645 8.636s.31.357.544.26c.239-.095.69-1.755 1.28-2.135.595-.38 1.496-.309 2.02-.641.52-.33.733-.38.733-.38s.477-.783 1.068-.497c.595.285.83.641.83.641s-.665-.215-.9-.094c-.239.118-.192.498-.192.498s.225.299-.017.568c-.289.295-.742 0-.742 0s-.094.285-.45.356-.743-.098-.935.07c-.188.165-.201.524-.416.69s-.807.567-.666.806c.145.238.736.403 1.186.332s1.17-.635 1.764-.611c.592.023 1.012.396 1.368.611.356.212.76-.332 1.022-.07.258.258.258.473.258.473s.45-.38.88-.023c.427.356.592.712.592.712s-.712-.097-.995-.047c-.285.047-.356.141-.356.141s.356.41-.185.682c-.507.29-.766-.302-.766-.302.064-.124-.181-.464-.514-.655-.332-.188-.719-.343-.978-.296-.262.05-.426.47-.712.47s-.43-.416-.81-.37c-.38.051-.376.424-.685.424s-.998-.094-.998-.094l1.78 1.993s.474-.215.83.235.38.854.38.854.69-.142.807.38c.117.523-.047 1.162-.047 1.162s-.118-.188-.45-.403c-.333-.212-.427-.189-.427-.189s.164.901-.286.901-.665-.618-.665-.618l-.783-1.613s-.568-.024-.854-.259c-.285-.238-.285-.783-.591-1.068-.31-.286-.712.164-1.021-.215s-.45-.783-.45-.783-.619.285-1.07.285-.251-.168-.584-.215-.181.353-.561.306-.444-.171-.655-.171c-.215 0-.32.47-.877.386-.545-.11-.642-.685-.642-.685s.164-.521-.262-.474-.498.164-.498.164.474-.853 1.092-.709c.615.141.545.33.545.33s.356-.165.524-.094c.165.07.568.332.995.262s.473-.357.473-.69-5.55-7.14-5.55-7.14l-1.778-2.584 2.396-.594z"/><g fill="none"><path stroke-width=".33602pt" d="M116.908 163.09s-.211.567-.783.45M124.976 166.503s-.453.286-.023.974M127.63 162.78s-.332.665.145.877M124.381 159.104s-.164.591.901.474"/></g></g><g stroke-linecap="round" stroke-linejoin="round"><path fill="#ff0" fill-rule="evenodd" stroke-width=".33602pt" d="m100.942 153.72-6.116 8.309s-.329.338-.558.228c-.233-.107-.59-1.79-1.16-2.202-.573-.412-1.476-.391-1.98-.753-.502-.357-.711-.42-.711-.42s-.433-.808-1.04-.555c-.609.252-.864.594-.864.594s.677-.177.905-.044c.231.131.163.508.163.508s-.241.286-.014.568c.272.31.741.04.741.04s.078.291.43.381.747-.056.929.123c.178.175.172.534.377.71s.774.613.62.843c-.158.23-.757.362-1.203.266s-1.132-.699-1.727-.709c-.592-.009-1.032.34-1.4.535-.367.192-.74-.374-1.016-.127-.273.244-.285.459-.285.459s-.428-.405-.877-.073c-.446.332-.63.679-.63.679s.716-.058.995.008c.283.063.348.16.348.16s-.378.39.147.692c.49.317.782-.26.782-.26-.057-.127.207-.452.55-.625.342-.17.736-.302.992-.241.259.065.4.493.685.51s.453-.393.83-.325c.376.072.351.444.66.461s1.002-.038 1.002-.038l-1.89 1.89s-.46-.241-.84.189-.427.83-.427.83-.68-.178-.827.335c-.146.517-.017 1.164-.017 1.164s.128-.182.472-.378c.344-.193.436-.164.436-.164s-.214.89.235.915.699-.58.699-.58l.871-1.567s.569.008.867-.211c.298-.223.329-.766.65-1.034.324-.268.702.204 1.032-.158s.493-.757.493-.757.601.32 1.05.345.262-.154.596-.183.162.363.544.337.452-.147.663-.135c.215.012.293.488.855.435.55-.08.679-.649.679-.649s-.136-.53.288-.458.487.192.487.192-.426-.879-1.051-.769c-.622.107-.562.299-.562.299s-.346-.185-.518-.124c-.168.062-.585.301-1.008.207s-.453-.382-.434-.714 5.939-6.821 5.939-6.821l1.918-2.481-2.359-.727z"/><g fill="none"><path stroke-width=".33602pt" d="M97.747 163.356s.18.579.757.493M89.502 166.316s.437.31-.03.974M87.058 162.451s.295.683-.193.868M90.507 158.962s.131.6-.926.423"/></g></g><g fill-rule="evenodd"><path fill="red" stroke-width=".33602pt" d="M92.772 122.675s-.363 2.164 1.2 4.119c1.566 1.955 2.06 1.72 2.607 1.668s.991.078 1.042-.73c.054-.808-.548-.756-.548-.756s-2.083.417-2.604-1.303-.706-3.571-.706-3.571l-.57-1.043z"/><path fill="red" stroke-linejoin="round" stroke-width=".33602pt" d="M101.17 131.915s-5.273.443-7.188-3.17c-1.919-3.612-1.808-6.045-1.808-6.045s3.797-.848 4.019-4.24-2.95-3.612-2.95-3.612-8.367.405-10.101-.147c-1.73-.554-1.99-.554-1.99-.554s-.37 2.139 1.805 3.281c2.177 1.143 5.087 1.033 5.087 1.033s-4.57 1.327-5.897 1.511-3.575.48-3.575.48.517 3.28 3.908 3.059 4.496-1.401 4.496-1.401-6.415 6.082-6.929 6.377c-.517.295-1.142.811-1.142.811s.772 1.401 2.762 1.29c1.992-.11 5.678-4.57 5.678-4.57s-6.858 13.455-7.372 13.786c-.517.332-1.327 1.66-1.327 1.66s1.697 1.253 3.575-.664c1.882-1.917 6.23-7.926 6.23-7.926s-2.322 5.493-2.47 7.188-.736 6.748-1.031 7.188c-.296.444-3.613 9.476-3.613 9.476s1.512.92 3.428-1.697 7.076-17.695 7.076-17.695-.403 12.164-.736 13.713-1.253 6.563-1.253 6.563 3.206 1.549 4.829-3.945 1.844-15.188 1.844-15.188 1.435 8.037 1.398 8.847c-.033.81.185 2.987 1.29 2.913 1.11-.074 1.808-3.209 1.808-3.209l.847-14.633z"/><path fill="#ff0" stroke-width=".33602pt" d="M100.958 133.232s-5.656.86-7.924-3.597-1.929-8.08-1.929-8.08l1.173-.053s.73.261.756-.678c.027-.938-1.2-.99-1.2-.99l.054-.756s-.208-.886-.99-.86c-.784.026-.81.782-.81.782l.026.938h-.598s-.652.13-.652.86.73.783.73.783l.81-.079s-.34 5.917 2.16 9.176c2.503 3.258 6.569 4.118 8.212 3.91s.182-1.33.182-1.356z"/></g><g fill="none"><path stroke-width=".33602pt" d="M98.773 139.288s.736 5.049.26 8.073M94.2 137.887c0 .222-.588 13.197-1.398 14.413M89.889 134.164s-2.691 14.266-4.755 16.44M87.863 127.934v-.405s-3.834 9.658-6.085 11.28M86.976 124.137c-.222.295-4.385 4.166-4.866 4.461M87.641 120.083s-5.383 2.138-6.636 1.658M83.4 115.806s4.463 1.143 5.162.996.92-.885 1.549-.812M98.847 135.839l-.574 2.137M95.954 135.213l-.574 2.06M93.763 133.962l-1.014 1.564M91.861 132.398l-1.041 1.147M90.793 130.626c-.131.078-1.042 1.068-1.042 1.068M89.933 128.54l-1.042.834M89.67 126.663c-.231.183-1.068.6-1.068.6M89.439 125.1c-.941.078-1.072.208-1.072.208"/><path stroke-linejoin="round" stroke-width=".33602pt" d="M89.358 124.213s-1.667.235-1.535.86c.127.626 1.901.834 1.901.834s-2.137.6-1.901 1.486c.231.886 2.264.183 2.264.183s-2.685 1.147-2.187 2.19c.494 1.042 2.63-.261 2.63-.261s-2.63 2.059-1.847 2.893c.78.834 3.074-1.303 3.074-1.303s-2.399 2.294-1.824 3.258 2.735-1.486 2.735-1.486-1.59 2.841-.702 3.65c.887.807 2.762-1.982 2.762-1.982s-1.042 2.685-.182 3.441 2.97-2.45 2.97-2.45-1.118 3.154.185 3.493c1.3.339 2.477-2.763 2.477-2.763"/></g><g fill-rule="evenodd"><path fill="red" stroke-width=".33602pt" d="M121.818 122.903s.363 2.163-1.2 4.118c-1.566 1.955-2.06 1.72-2.607 1.668s-.992.079-1.042-.73c-.054-.808.548-.755.548-.755s2.083.417 2.604-1.304.705-3.57.705-3.57l.572-1.044z"/><path fill="red" stroke-linejoin="round" stroke-width=".33602pt" d="M113.42 132.143s5.273.443 7.188-3.17c1.919-3.613 1.808-6.046 1.808-6.046s-3.797-.847-4.019-4.239 2.95-3.612 2.95-3.612 8.367.405 10.101-.148c1.73-.553 1.99-.553 1.99-.553s.369 2.138-1.805 3.28c-2.178 1.144-5.088 1.033-5.088 1.033s4.57 1.327 5.898 1.511c1.327.185 3.575.48 3.575.48s-.518 3.28-3.908 3.06c-3.39-.222-4.496-1.402-4.496-1.402s6.415 6.083 6.929 6.378c.517.295 1.142.81 1.142.81s-.773 1.402-2.762 1.291c-1.992-.11-5.679-4.571-5.679-4.571s6.859 13.455 7.373 13.787c.517.331 1.327 1.659 1.327 1.659s-1.697 1.253-3.575-.664c-1.882-1.917-6.23-7.926-6.23-7.926s2.322 5.493 2.47 7.189.735 6.747 1.031 7.188c.296.443 3.612 9.475 3.612 9.475s-1.512.921-3.427-1.697-7.077-17.694-7.077-17.694.404 12.164.736 13.713 1.254 6.562 1.254 6.562-3.206 1.55-4.829-3.945-1.845-15.187-1.845-15.187-1.434 8.037-1.398 8.846c.034.81-.184 2.988-1.29 2.914-1.109-.074-1.808-3.21-1.808-3.21l-.846-14.633z"/><path fill="#ff0" stroke-width=".33602pt" d="M113.632 133.46s5.655.86 7.924-3.598 1.928-8.08 1.928-8.08l-1.172-.052s-.73.26-.756-.678 1.2-.99 1.2-.99l-.055-.756s.209-.887.992-.86c.783.025.81.781.81.781l-.027.939h.598s.652.13.652.86-.73.782-.73.782l-.81-.078s.34 5.917-2.16 9.175c-2.503 3.258-6.57 4.119-8.212 3.91s-.182-1.33-.182-1.356z"/></g><g fill="none"><path stroke-width=".33602pt" d="M115.816 139.516s-.736 5.048-.258 8.072M120.39 138.115c0 .221.588 13.197 1.397 14.413M124.7 134.392s2.692 14.265 4.755 16.44M126.727 128.162v-.406s3.834 9.658 6.085 11.28M127.614 124.365c.222.295 4.385 4.165 4.866 4.46M126.949 120.31s5.383 2.138 6.636 1.659M131.19 116.034s-4.463 1.143-5.162.995-.92-.885-1.55-.811M112.722 122.522s-.924 1.843-.555 2.838M115.742 136.066l.575 2.138M118.636 135.44l.574 2.06M120.826 134.19l1.015 1.564M122.728 132.625l1.042 1.147M123.797 130.853c.13.078 1.041 1.069 1.041 1.069M124.657 128.768l1.042.834M124.92 126.891c.231.182 1.068.6 1.068.6M125.151 125.327c.94.078 1.072.208 1.072.208"/><path stroke-linejoin="round" stroke-width=".33602pt" d="M125.232 124.44s1.666.235 1.535.86c-.127.626-1.902.835-1.902.835s2.137.6 1.902 1.486c-.232.886-2.265.182-2.265.182s2.685 1.147 2.188 2.19c-.494 1.042-2.631-.261-2.631-.261s2.63 2.06 1.848 2.893c-.78.834-3.075-1.303-3.075-1.303s2.4 2.294 1.825 3.258-2.735-1.485-2.735-1.485 1.59 2.841.702 3.649c-.887.808-2.762-1.981-2.762-1.981s1.042 2.685.181 3.44c-.86.756-2.97-2.45-2.97-2.45s1.119 3.154-.185 3.493c-1.3.34-2.476-2.763-2.476-2.763"/></g><path fill="red" fill-rule="evenodd" stroke-linejoin="round" stroke-width=".33602pt" d="M98.886 121.478s.718 0 1.117-.345 3.722-2.766 6.434-2.66c2.713.107 3.005.213 3.005.213s-.027-.505-.399-.797-.85-.692-.85-.692l-2.686-1.33-.186-1.222s1.356-1.33 2.34-1.197 1.542.638 2.286.638c.745 0 1.357-.319 1.914-.16.558.16 1.781-.77 1.781-.77l-1.408 1.037s.85.478 1.143 1.09.504 3.722 1.092 4.334c.585.612 1.142.904 1.142.904s-1.33.133-1.515-.266c-.188-.399.131 1.223-.054 1.835s-.904 1.914-.719 2.579c.188.665.746 1.356.746 1.356s-1.489.053-1.78-.532c-.293-.585-.455 1.888-.455 1.888l-.346-.212s-.184 1.382.215 1.568c.397.187.558.346.558.346l-.746-.053-.396.478-.027 1.356 1.115.08s.824.16.985.559c.158.398.585 2.605.504 3.43s-.32 4.653-.53 6.275-.959 5.157-.8 6.223c.16 1.061 2.288 4.73 2.288 4.73s.453.612.185 1.012c-.266.4-1.355-.265-1.593.239-.242.507-.054 2.419-.054 2.419s-.558.985-1.358.585c-.796-.397-.823-3.508-.823-3.508s-.054-.824-.585-.824c-.532 0-.692 1.435-.692 1.435s-.239 1.408-.292 1.781.612 2.42 1.33 2.9c.716.477 3.536.558 3.828 1.035.292.48 1.677 2.634 1.677 2.634s-1.039.346-1.25.05c-.215-.292-.48-.715-.827-.688-.343.027-1.247.716-2.1.638-.85-.08-3.136-2.527-3.136-2.527s.638 4.2 3.005 5.397c2.365 1.196 4.439 1.33 4.439 1.33l2.792.45s3.881 1.2 3.989 4.92c.107 3.723-2.978 4.523-3.535 4.55-.561.023-2.42-.665-2.42-.665s4.012-.189 4.147-3.593c.134-3.4-2.9-3.534-2.9-3.534s-.585-.4-.823.238 3.219 1.223 2.792 3.112-1.062 1.727-1.062 1.727-.957-1.966-1.677-2.285-4.6-2.18-5.611-2.954c-1.008-.77-3.748-5.527-3.748-5.527s.08 4.12 1.515 5.554c1.437 1.438 1.81 1.596 1.81 1.596s2.815.454 3.084 1.596c.266 1.143-.88.585-.773.958s2.554 1.754 3.085 1.808-3.35.719-5.796-2.127-3.27-4.362-3.27-4.362l.159 5.692s2.127 2.685 2.047 3.562-1.648 1.196-1.648 1.196-.4 1.039-.718 1.543c-.32.504-.878.93-.878.93s-.372-.4-.665-1.038c-.292-.638-.531-1.592-.531-1.592s-1.356.265-1.543-.666 1.702-2.661 1.729-3.3c.026-.635.399-6.273.399-6.273s-2.234 3.243-4.148 4.493c-1.915 1.25-5.026 1.488-5.026 1.488s2.393-.823 2.899-1.566c.505-.746-.719-.107-.506-1.038s3.59-1.489 3.83-1.57 1.621-1.25 1.701-2.603c.08-1.358.718-4.308.718-4.308s-.851 3.085-2.367 4.2c-1.515 1.116-4.148 2.127-5.105 2.739s-3.217 2.923-3.217 2.923-.93.054-.957-1.354c-.027-1.411 2.286-2.5 2.286-2.5s.718-.346.373-.85c-.346-.508-1.995.584-2.58 1.115s-1.01 1.65-1.01 2.181.266 2.02 1.25 2.58c.983.559 2.632 1.355 2.632 1.355s-3.084.692-4.148-.477-1.463-2.37-1.595-3.35c-.133-.985.984-4.281 3.35-4.654s4.28-.427 4.28-.427 2.979-.185 4.016-1.754 2.1-4.362 2.1-4.362-1.063 2.023-2.233 2.181c-1.17.162-1.276-.611-2.127-.477-.851.131-1.835.665-1.835.665s.292-2.395 1.01-2.819c.719-.427 3.297-.346 3.297-.346s.506.027 1.17-.746c.665-.77.692-5.13.692-5.13s.106-.959-.585-1.063c-.691-.107-.691 2.95-1.143 3.535s-.984 1.304-1.303.958c-.32-.346-.027-1.038-.798-1.781-.771-.746-1.223.85-1.702 0-.478-.854.585-1.784.585-1.784s2.021-2.366 2.128-3.508c.106-1.143-1.543-13.295-1.622-14.598s.239-2.26.239-2.26.16-.772.744-1.224c.585-.452 1.994-.452 1.994-.452l.16-1.834-1.33-.054s1.57-.558 1.968-1.17 1.729-2.206 2.074-2.632c.346-.425-1.117-.479-1.835-.106-.717.372-1.116.718-1.116.718s.372-1.223 1.25-1.835 3.376-1.143 3.376-1.143l.053-1.41.719-1.17.372-.664s-1.862-.4-3.164-.346c-1.304.053-3.112.372-4.281 1.037-1.17.665-1.064.984-1.782 1.117s-1.25 0-1.223-.027z"/><path fill="#ff0" fill-rule="evenodd" stroke-width=".33602pt" d="M102.688 118.686s-.638-.585-.638-1.356 1.649-1.595 1.915-1.861.585-.665.717-.771c.133-.106.453-.346.692.106.24.452.266.585.798.984.531.4 1.25.904 2.073.878s3.085.133 3.059 2.047-1.543 2.925-3.51 2.792c-1.968-.133-3.112-1.197-3.112-1.197s1.144-.106 1.968-.053 3.563.718 3.723-1.117-1.117-1.967-1.702-1.914-.585-.16-1.702.027c-1.117.186-1.781-.426-2.393-.373s-1.356.479-1.516.798-.292 1.063-.372 1.01z"/></g></g><g fill="none" stroke="#000" stroke-width="1pt"><g stroke-linecap="round"><path stroke-linejoin="round" stroke-width=".33602pt" d="M105.606 150.979s1.29 9.254 1.216 11.095c-.073 1.845.258 12.756.258 12.756s.627-13.787.738-15.296c.11-1.512 1.327-8.407 1.327-8.407"/><path stroke-width=".33602pt" d="m107.044 150.831.184 2.987M100.224 160.787s.221-.48.885-.591c.663-.111 2.064.148 2.654-.37.59-.514 1.696-1.841 1.696-1.841M109.256 158.059s1.548 2.285 2.212 2.396c.662.11 2.137-.518 2.692-.148"/></g><path stroke-width=".33602pt" d="M110.73 125.028s-.369 1.29.369 1.327M110.509 127.277s-.48 2.064.516 2.138M109.034 127.83s-.073 2.285.7.885M109.698 129.747s-.11 2.765.7 1.511M108.334 130.079s-.221 2.507 1.069 2.507M107.339 131.074s-.148 1.733.81 2.064M106.085 130.595s-.553 3.65.737 2.912M104.684 130.152s-.368 2.802.59 2.212M105.864 127.867l-1.548.258M105.495 128.899l-1.843.332M106.343 115.923s1.29-1.77 2.691-2.027"/><path stroke-width=".33602pt" d="M107.597 114.633c.331.295 1.99 1.29 5.162-.922"/><path stroke-width=".33602pt" d="M110.546 114.744s1.4 1.658 3.207 2.064"/></g><path fill-rule="evenodd" d="M109.698 115.48a1.253.627 0 1 0-2.507 0 1.253.627 0 1 0 2.507 0h-1.254z"/><g fill="none" stroke="#000" stroke-linejoin="round" stroke-width="1pt"><path stroke-width=".33602pt" d="M101.901 134.606s-.703 3.363.417 3.415c1.121.052.704-2.789.704-2.789s.052 4.379 1.304 4.119c1.25-.261.677-4.25.677-4.25s.287 5.058 1.825 4.77c1.538-.286 1.538-3.987 1.538-3.987s.104 3.31 1.017 3.206 1.016-3.154 1.016-3.154.104 2.502.73 2.502c.625 0 1.122-3.545 1.122-3.545"/><path stroke-width=".33602pt" d="M105.42 135.936s.365 3.31 1.408 3.102 1.147-3.128 1.147-3.128M102.866 140.862s.86 3.988 1.929 3.625c1.068-.366.234-3.598.234-3.598s.444 4.794 1.982 4.327c1.537-.47 1.746-4.223 1.746-4.223s-.574 3.413.443 3.413 1.929-3.465 1.929-3.465"/><path stroke-width=".33602pt" d="M105.655 141.748s.156 2.79 1.225 2.554c1.069-.235.938-2.45.938-2.45M103.518 146.076s1.303 3.025 2.267 2.605c.965-.417-.417-2.917-.417-2.917s.887 2.997 1.59 2.708c.704-.285 1.382-2.658 1.382-2.658s-.887 2.218.104 2.739 2.112-2.87 2.112-2.87"/><path stroke-width=".33602pt" d="M106.072 148.345s.183 1.485 1.121 1.276c.938-.208.652-2.295.652-2.295"/></g></g></svg>