<svg xmlns="http://www.w3.org/2000/svg" width="347.91mm" height="347.91mm" viewBox="0 0 347.91 347.91"><g transform="translate(70.498 65.958)"><circle cx="103.46" cy="108" r="173.96" fill="#fff"/><path fill="red" stroke="#000" stroke-width="1.0001124" d="M-6.543 11.756v109.999a110 110 0 0 0 110 110 110 110 0 0 0 109.998-110v-110H103.456z"/><path fill="#feffff" stroke="#fff" stroke-width=".7935955" d="M207.439 151.785c-14.856-3.073-22.48-6.849-26.344-9.677 5.61.23 11.605-2.468 11.961-2.636a1.744 1.744 0 0 0 .933-2.122 1.75 1.75 0 0 0-2.005-1.185c-9.16 1.719-14.57-6.5-18.157-11.952a59 59 0 0 0-1.278-1.916c-8.83-12.761-21.75-13.211-25.535-13.039-9.25-12.176-30.291-12.488-31.138-12.488-10.049-.489-13.037-2.538-13.714-3.117 1.138-10.898-2.49-19.077-5.788-24.065q.15.088.302.196c.6.398 1.404.378 1.995-.053.59-.427.855-1.172.662-1.882-2.01-7.373-9.339-13.893-14.707-17.83a1.775 1.775 0 0 0 1.816-.877c.39-.7.258-1.564-.311-2.115-12.076-11.635-26.229-9.998-30.78-9.088-1.98-3.044-7.123-6.355-8.891-7.437-.76-.466-1.799-.356-2.343.344-.47.594-.531 1.36-.152 1.966A1.75 1.75 0 0 0 42 33.07a1.76 1.76 0 0 0-.44 1.995c.997 2.32.39 7.38-.018 9.679-4.271 4.79-8.626 17.714-9.294 19.74l-1.711 2.498c-1.567 2.235-2.115 5.388-1.438 8.243.484 2.04 1.51 3.574 2.897 4.311 3.368 1.817 6.22 2.122 8.485.919 2.165-1.157 3.098-3.39 3.495-4.84 5.53-1.209 9.812-5.822 11.688-8.173 1.433 1.126 2.367 2.719 2.838 4.836 1.501 6.765-2.398 16.195-5.001 19.572-4.815 6.247-5.295 16.966-5.304 20.702-6.431 1.909-14.25-.571-14.584-.667-5.03-.801-8.882-.164-11.39 1.87-2.476 2.005-2.667 4.593-2.663 4.696-1.26 8.182-5.34 13.18-5.379 13.226a2 2 0 0 0-.236.37c-3.054 6.44.091 13.69.887 15.329l.874 9.141c.576 2.052 1.567 3.428 2.953 4.088 1.665.793 3.17.183 3.422.061 2.325-1.156 3.86-2.918 4.569-5.24 1.597-5.222-1.813-11.357-1.96-11.615a1.74 1.74 0 0 0-.98-.8l-.805-.258c.353-10.29 3.084-14.753 5.367-16.697a7.4 7.4 0 0 1 2.368-1.353 28 28 0 0 0-1.255 3.794c-.14 3.466-1.139 7.114-1.396 8-3.798 6.298-.57 10.466-.433 10.644.11.127.236.248.375.338 1.737 1.194 3.17 4.346 3.679 5.714.494 6.308 4.786 8.71 4.948 8.8.808.449 1.513.604 2.108.604.78 0 1.37-.267 1.73-.497 2.513-1.643 2.35-6.669 2.158-8.444.283-3.175-.392-5.577-2.005-7.137a5.93 5.93 0 0 0-2.7-1.508c.178-1.963-.148-4.042-.258-4.65-2.365-9.48 4.024-11.564 4.782-11.779.1-.024.133-.131.225-.173 5.294 1.461 12.254 2.27 19.956.417 19.173 20.269 38.129 21.375 41.962 21.375h.08c.38.806.759 1.583 1.12 2.309 2.21 4.416 7.227 12.134 7.404 12.415 3.957 6.599 4.182 10.317 3.672 12.285-.375 1.447-1.185 1.991-1.152 1.991-7.37 3.025-10.467 6.22-11.653 7.836-9.456.06-12.329 3.343-12.654 3.76-1.743 2.304-3.57 5.207-2.223 7.231.201.304.443.539.708.721-1.518 1.705-1.417 3.176-1.057 4.103 1.213 3.166 7.253 3.967 8.719 4.075.446.14.896.201 1.348.201.757 0 1.506-.196 2.21-.584 2.23-1.232 3.584-4.21 4.197-5.916 2.93-.388 5.95-1.878 6.095-1.944.349-.178.637-.473.801-.824 3.714-7.887 12.336-12.101 13.812-12.775 4.093-.493 7.007-2.01 8.664-4.525 2.384-3.634 1.092-7.896.956-8.247-4.764-10.79-1.574-16.214-.9-17.179 18.833-12.71 19.249-26.072 18.644-30.944.942-.066 1.71.131 2.32.59 2.52 1.873 2.645 7.924 2.724 11.937.027 1.434.057 2.689.164 3.592.9 7.517 4.164 12.988 9.672 16.266 14.265 8.458 38.527-1.03 39.557-1.438a1.76 1.76 0 0 0 1.1-1.784 1.8 1.8 0 0 0-1.404-1.569z"/><path fill="#000002" d="M207.431 151.78c-14.855-3.072-22.48-6.848-26.343-9.676 5.61.23 11.604-2.468 11.96-2.636a1.744 1.744 0 0 0 .933-2.122 1.747 1.747 0 0 0-2.004-1.185c-9.161 1.719-14.57-6.5-18.157-11.952a59 59 0 0 0-1.279-1.915c-8.829-12.762-21.75-13.212-25.533-13.04-9.25-12.176-30.292-12.487-31.14-12.487-10.048-.489-13.036-2.538-13.713-3.117 1.138-10.898-2.49-19.077-5.789-24.065q.15.089.302.196c.6.398 1.405.378 1.995-.053.59-.427.855-1.172.663-1.881-2.01-7.374-9.339-13.893-14.708-17.83a1.775 1.775 0 0 0 1.817-.878c.389-.7.257-1.564-.311-2.114-12.076-11.636-26.23-9.999-30.779-9.088-1.98-3.045-7.123-6.356-8.891-7.437-.76-.466-1.799-.356-2.343.344-.47.594-.531 1.36-.152 1.966a1.75 1.75 0 0 0-1.966.258 1.76 1.76 0 0 0-.44 1.995c.997 2.32.39 7.38-.017 9.678-4.272 4.79-8.627 17.714-9.295 19.74L30.53 66.98c-1.566 2.234-2.115 5.388-1.437 8.242.484 2.04 1.51 3.574 2.896 4.312 3.368 1.816 6.22 2.121 8.485.918 2.165-1.157 3.098-3.39 3.496-4.84 5.529-1.209 9.811-5.822 11.687-8.173 1.433 1.126 2.367 2.719 2.838 4.836 1.501 6.765-2.398 16.195-5.001 19.571-4.815 6.248-5.295 16.966-5.304 20.703-6.431 1.908-14.25-.572-14.584-.667-5.03-.802-8.881-.165-11.39 1.87-2.475 2.005-2.667 4.593-2.662 4.696-1.26 8.181-5.341 13.179-5.38 13.225a2 2 0 0 0-.236.37c-3.053 6.44.092 13.69.888 15.329l.874 9.141c.576 2.052 1.566 3.429 2.953 4.089 1.665.792 3.17.182 3.421.06 2.326-1.156 3.86-2.918 4.569-5.24 1.597-5.221-1.812-11.357-1.96-11.614a1.74 1.74 0 0 0-.979-.801l-.806-.258c.354-10.289 3.085-14.752 5.367-16.696a7.4 7.4 0 0 1 2.368-1.353 28 28 0 0 0-1.255 3.794c-.14 3.465-1.139 7.114-1.395 8-3.799 6.297-.572 10.466-.434 10.644.11.127.236.248.375.338 1.738 1.194 3.17 4.346 3.679 5.713.494 6.309 4.786 8.711 4.948 8.8.808.45 1.513.604 2.108.604.78 0 1.37-.267 1.73-.496 2.513-1.644 2.35-6.67 2.158-8.444.282-3.175-.392-5.578-2.005-7.138a5.93 5.93 0 0 0-2.7-1.507c.178-1.963-.148-4.042-.258-4.65-2.365-9.48 4.024-11.564 4.782-11.779.1-.024.133-.131.225-.173 5.294 1.46 12.253 2.27 19.956.416 19.173 20.27 38.129 21.375 41.962 21.375h.08c.38.806.76 1.583 1.12 2.31 2.21 4.415 7.226 12.133 7.404 12.414 3.957 6.599 4.182 10.317 3.672 12.285-.375 1.447-1.185 1.99-1.152 1.99-7.37 3.026-10.467 6.22-11.653 7.836-9.455.06-12.328 3.344-12.654 3.76-1.742 2.305-3.569 5.208-2.222 7.232.2.304.442.538.707.72-1.517 1.705-1.417 3.176-1.056 4.103 1.213 3.167 7.252 3.968 8.718 4.075.447.14.897.202 1.349.202.756 0 1.505-.197 2.21-.585 2.229-1.232 3.583-4.21 4.196-5.916 2.93-.388 5.95-1.878 6.096-1.943.348-.179.637-.473.8-.824 3.715-7.887 12.336-12.102 13.812-12.776 4.093-.492 7.007-2.01 8.664-4.524 2.385-3.635 1.092-7.897.956-8.248-4.764-10.79-1.574-16.213-.9-17.178 18.833-12.711 19.249-26.072 18.644-30.943.942-.066 1.71.131 2.32.59 2.52 1.873 2.645 7.924 2.724 11.937.028 1.434.057 2.689.164 3.592.9 7.517 4.164 12.987 9.672 16.265 14.265 8.458 38.525-1.03 39.555-1.437a1.76 1.76 0 0 0 1.1-1.785 1.8 1.8 0 0 0-1.404-1.569M34.14 141.07c.236 1.358.39 3.808-.037 4.748a1.75 1.75 0 0 0 .182 1.757 1.78 1.78 0 0 0 1.62.698c.01 0 1.305-.103 2.183.744 1.015.994 1.079 2.9.953 4.632.206 2.304-.084 5.03-.792 5.274-.119-.075-2.905-1.724-3.177-6.21-.01-.16-.04-.32-.091-.47-.192-.534-1.866-5.216-4.792-7.45-.36-.627-1.404-2.993.883-6.66a1.8 1.8 0 0 0 .185-.407c.063-.192 1.426-4.688 1.546-8.701.397-1.447.992-3.012 1.437-3.874.965.502 2.255 1.12 3.866 1.766-2.772 2.037-5.966 6.178-3.966 14.153m135.823 12.476c-4.515-2.692-7.204-7.292-7.98-13.675-.1-.815-.109-1.939-.136-3.241-.104-4.974-.248-11.783-4.136-14.682-1.812-1.349-4.136-1.653-6.927-.876-.45.127-.833.436-1.063.84-.224.406-.29.898-.154 1.338.178.605 3.999 14.986-17.104 29.107a1.8 1.8 0 0 0-.351.304c-.247.29-5.91 7.11.164 20.86.01.028.843 2.866-.623 5.086-1.081 1.658-3.231 2.664-6.369 2.992a1.9 1.9 0 0 0-.501.126c-.446.187-10.777 4.605-15.556 14.037-1.232.547-3.592 1.433-5.318 1.433-.791 0-1.482.53-1.693 1.302-.35 1.293-1.527 4.206-2.897 4.965-.288.15-.534.182-1.185.023-2.754-.267-5.789-1.204-6.114-1.822.01-.066.106-.3.637-.908l1.525-2.375a1.75 1.75 0 0 0-1.86-2.655c.22-.524.7-1.4 1.731-2.758.023-.023 2.297-2.44 10.145-2.44.238 0 .512-.023.728.005.66 0 1.28-.398 1.583-.992.014-.034 1.917-3.607 10.575-7.171.22-.108 2.168-1.157 3.016-4.042 1.11-3.826-.229-8.95-4.027-15.291-.057-.075-5.119-7.887-7.238-12.12-2.326-4.656-5.213-10.44-2.12-18.687.34-.9-.12-1.911-1.028-2.253a1.75 1.75 0 0 0-2.257 1.02c-2.384 6.351-1.72 11.45-.297 15.625-5.203-.31-20.804-2.783-36.792-18.964 4.275-1.498 8.708-3.859 13.179-7.465a1.765 1.765 0 0 0 .257-2.472 1.754 1.754 0 0 0-2.47-.263c-21.682 17.558-42.143 4.262-43.008 3.69a1.9 1.9 0 0 0-.681-.28c-.152-.014-3.894-.618-7.524 2.393-4.327 3.597-6.594 10.557-6.739 20.692a1.75 1.75 0 0 0 1.199 1.685l1.353.455c.691 1.442 2.293 5.282 1.368 8.294-.424 1.371-1.335 2.394-2.649 3.058a.61.61 0 0 1-.508-.043c-.192-.098-.672-.482-.997-1.54l-.848-9.162a1.8 1.8 0 0 0-.204-.664c-.037-.07-3.552-6.777-1.063-12.328.848-1.086 4.713-6.416 6.018-14.926 0-.01.114-1.301 1.39-2.327 1.68-1.367 4.662-1.76 8.365-1.189.403.13 10.018 3.213 17.816.133A1.76 1.76 0 0 0 51.7 113.7c-.005-.129-.436-13.254 4.562-19.733 3.46-4.49 7.346-14.79 5.648-22.478-.81-3.646-2.848-6.407-5.894-7.98a1.75 1.75 0 0 0-2.262.585c-.05.076-5.084 7.486-11.472 8.224-.82.1-1.464.75-1.54 1.569 0 .024-.321 2.585-1.924 3.438-1.442.777-3.61-.066-5.174-.902-.349-.188-.862-.834-1.145-2.037-.447-1.885-.091-4 .91-5.435l1.872-2.714c.096-.138.17-.297.225-.454 1.332-4.135 5.529-15.612 8.9-18.982a1.75 1.75 0 0 0 .48-.901c.105-.539.732-3.824.713-7.152a1.78 1.78 0 0 0 1.63.342 1.765 1.765 0 0 0 1.248-1.81q-.05-.66-.115-1.25c2.368 1.79 4.142 3.496 4.278 4.234.084.494.372.92.801 1.185.422.264.944.33 1.414.197.133-.05 12.297-3.459 23.953 4.022-.614.026-1.174.11-1.63.28a1.76 1.76 0 0 0-1.145 1.5 1.76 1.76 0 0 0 .88 1.675c.141.082 11.77 6.736 16.973 15.101-1.497-.627-2.892-.953-3.894-.658a1.75 1.75 0 0 0-.642 2.997c.115.103 11.326 10.106 9.252 27.304-.035.277 0 .55.096.81.407 1.13 2.852 4.892 17.075 5.568.211 0 21.06.295 28.943 11.798.37.545 1.016.838 1.658.75.15-.009 14.27-1.582 23.29 11.477.385.552.792 1.176 1.228 1.845 2.623 3.995 6.458 9.826 12.256 12.44-2.473.19-4.884-.104-6.477-1.5a1.79 1.79 0 0 0-2.06-.187 1.76 1.76 0 0 0-.807 1.9c.215.956 2.725 8.951 26.732 15.02-7.834 2.25-21.757 5.003-30.575-.242"/><path fill="none" d="M207.431 151.78c-14.855-3.072-22.48-6.848-26.343-9.676 5.61.23 11.604-2.468 11.96-2.636a1.744 1.744 0 0 0 .933-2.122 1.747 1.747 0 0 0-2.004-1.185c-9.161 1.719-14.57-6.5-18.157-11.952a59 59 0 0 0-1.279-1.915c-8.829-12.762-21.75-13.212-25.533-13.04-9.25-12.176-30.292-12.487-31.14-12.487-10.048-.489-13.036-2.538-13.713-3.117 1.138-10.898-2.49-19.077-5.789-24.065q.15.089.302.196c.6.398 1.405.378 1.995-.053.59-.427.855-1.172.663-1.881-2.01-7.374-9.339-13.893-14.708-17.83a1.775 1.775 0 0 0 1.817-.878c.389-.7.257-1.564-.311-2.114-12.076-11.636-26.23-9.999-30.779-9.088-1.98-3.045-7.123-6.356-8.891-7.437-.76-.466-1.799-.356-2.343.344-.47.594-.531 1.36-.152 1.966a1.75 1.75 0 0 0-1.966.258 1.76 1.76 0 0 0-.44 1.995c.997 2.32.39 7.38-.017 9.678-4.272 4.79-8.627 17.714-9.295 19.74L30.53 66.98c-1.566 2.234-2.115 5.388-1.437 8.242.484 2.04 1.51 3.574 2.896 4.312 3.368 1.816 6.22 2.121 8.485.918 2.165-1.157 3.098-3.39 3.496-4.84 5.529-1.209 9.811-5.822 11.687-8.173 1.433 1.126 2.367 2.719 2.838 4.836 1.501 6.765-2.398 16.195-5.001 19.571-4.815 6.248-5.295 16.966-5.304 20.703-6.431 1.908-14.25-.572-14.584-.667-5.03-.802-8.881-.165-11.39 1.87-2.475 2.005-2.667 4.593-2.662 4.696-1.26 8.181-5.341 13.179-5.38 13.225a2 2 0 0 0-.236.37c-3.053 6.44.092 13.69.888 15.329l.874 9.141c.576 2.052 1.566 3.429 2.953 4.089 1.665.792 3.17.182 3.421.06 2.326-1.156 3.86-2.918 4.569-5.24 1.597-5.221-1.812-11.357-1.96-11.614a1.74 1.74 0 0 0-.979-.801l-.806-.258c.354-10.289 3.085-14.752 5.367-16.696a7.4 7.4 0 0 1 2.368-1.353 28 28 0 0 0-1.255 3.794c-.14 3.465-1.139 7.114-1.395 8-3.799 6.297-.572 10.466-.434 10.644.11.127.236.248.375.338 1.738 1.194 3.17 4.346 3.679 5.713.494 6.309 4.786 8.711 4.948 8.8.808.45 1.513.604 2.108.604.78 0 1.37-.267 1.73-.496 2.513-1.644 2.35-6.67 2.158-8.444.282-3.175-.392-5.578-2.005-7.138a5.93 5.93 0 0 0-2.7-1.507c.178-1.963-.148-4.042-.258-4.65-2.365-9.48 4.024-11.564 4.782-11.779.1-.024.133-.131.225-.173 5.294 1.46 12.253 2.27 19.956.416 19.173 20.27 38.129 21.375 41.962 21.375h.08c.38.806.76 1.583 1.12 2.31 2.21 4.415 7.226 12.133 7.404 12.414 3.957 6.599 4.182 10.317 3.672 12.285-.375 1.447-1.185 1.99-1.152 1.99-7.37 3.026-10.467 6.22-11.653 7.836-9.455.06-12.328 3.344-12.654 3.76-1.742 2.305-3.569 5.208-2.222 7.232.2.304.442.538.707.72-1.517 1.705-1.417 3.176-1.056 4.103 1.213 3.167 7.252 3.968 8.718 4.075.447.14.897.202 1.349.202.756 0 1.505-.197 2.21-.585 2.229-1.232 3.583-4.21 4.196-5.916 2.93-.388 5.95-1.878 6.096-1.943.348-.179.637-.473.8-.824 3.715-7.887 12.336-12.102 13.812-12.776 4.093-.492 7.007-2.01 8.664-4.524 2.385-3.635 1.092-7.897.956-8.248-4.764-10.79-1.574-16.213-.9-17.178 18.833-12.711 19.249-26.072 18.644-30.943.942-.066 1.71.131 2.32.59 2.52 1.873 2.645 7.924 2.724 11.937.028 1.434.057 2.689.164 3.592.9 7.517 4.164 12.987 9.672 16.265 14.265 8.458 38.525-1.03 39.555-1.437a1.76 1.76 0 0 0 1.1-1.785 1.8 1.8 0 0 0-1.404-1.569M34.14 141.07c.236 1.358.39 3.808-.037 4.748a1.75 1.75 0 0 0 .182 1.757 1.78 1.78 0 0 0 1.62.698c.01 0 1.305-.103 2.183.744 1.015.994 1.079 2.9.953 4.632.206 2.304-.084 5.03-.792 5.274-.119-.075-2.905-1.724-3.177-6.21-.01-.16-.04-.32-.091-.47-.192-.534-1.866-5.216-4.792-7.45-.36-.627-1.404-2.993.883-6.66a1.8 1.8 0 0 0 .185-.407c.063-.192 1.426-4.688 1.546-8.701.397-1.447.992-3.012 1.437-3.874.965.502 2.255 1.12 3.866 1.766-2.772 2.037-5.966 6.178-3.966 14.153m135.823 12.476c-4.515-2.692-7.204-7.292-7.98-13.675-.1-.815-.109-1.939-.136-3.241-.104-4.974-.248-11.783-4.136-14.682-1.812-1.349-4.136-1.653-6.927-.876-.45.127-.833.436-1.063.84-.224.406-.29.898-.154 1.338.178.605 3.999 14.986-17.104 29.107a1.8 1.8 0 0 0-.351.304c-.247.29-5.91 7.11.164 20.86.01.028.843 2.866-.623 5.086-1.081 1.658-3.231 2.664-6.369 2.992a1.9 1.9 0 0 0-.501.126c-.446.187-10.777 4.605-15.556 14.037-1.232.547-3.592 1.433-5.318 1.433-.791 0-1.482.53-1.693 1.302-.35 1.293-1.527 4.206-2.897 4.965-.288.15-.534.182-1.185.023-2.754-.267-5.789-1.204-6.114-1.822.01-.066.106-.3.637-.908l1.525-2.375a1.75 1.75 0 0 0-1.86-2.655c.22-.524.7-1.4 1.731-2.758.023-.023 2.297-2.44 10.145-2.44.238 0 .512-.023.728.005.66 0 1.28-.398 1.583-.992.014-.034 1.917-3.607 10.575-7.171.22-.108 2.168-1.157 3.016-4.042 1.11-3.826-.229-8.95-4.027-15.291-.057-.075-5.119-7.887-7.238-12.12-2.326-4.656-5.213-10.44-2.12-18.687.34-.9-.12-1.911-1.028-2.253a1.75 1.75 0 0 0-2.257 1.02c-2.384 6.351-1.72 11.45-.297 15.625-5.203-.31-20.804-2.783-36.792-18.964 4.275-1.498 8.708-3.859 13.179-7.465a1.765 1.765 0 0 0 .257-2.472 1.754 1.754 0 0 0-2.47-.263c-21.682 17.558-42.143 4.262-43.008 3.69a1.9 1.9 0 0 0-.681-.28c-.152-.014-3.894-.618-7.524 2.393-4.327 3.597-6.594 10.557-6.739 20.692a1.75 1.75 0 0 0 1.199 1.685l1.353.455c.691 1.442 2.293 5.282 1.368 8.294-.424 1.371-1.335 2.394-2.649 3.058a.61.61 0 0 1-.508-.043c-.192-.098-.672-.482-.997-1.54l-.848-9.162a1.8 1.8 0 0 0-.204-.664c-.037-.07-3.552-6.777-1.063-12.328.848-1.086 4.713-6.416 6.018-14.926 0-.01.114-1.301 1.39-2.327 1.68-1.367 4.662-1.76 8.365-1.189.403.13 10.018 3.213 17.816.133A1.76 1.76 0 0 0 51.7 113.7c-.005-.129-.436-13.254 4.562-19.733 3.46-4.49 7.346-14.79 5.648-22.478-.81-3.646-2.848-6.407-5.894-7.98a1.75 1.75 0 0 0-2.262.585c-.05.076-5.084 7.486-11.472 8.224-.82.1-1.464.75-1.54 1.569 0 .024-.321 2.585-1.924 3.438-1.442.777-3.61-.066-5.174-.902-.349-.188-.862-.834-1.145-2.037-.447-1.885-.091-4 .91-5.435l1.872-2.714c.096-.138.17-.297.225-.454 1.332-4.135 5.529-15.612 8.9-18.982a1.75 1.75 0 0 0 .48-.901c.105-.539.732-3.824.713-7.152a1.78 1.78 0 0 0 1.63.342 1.765 1.765 0 0 0 1.248-1.81q-.05-.66-.115-1.25c2.368 1.79 4.142 3.496 4.278 4.234.084.494.372.92.801 1.185.422.264.944.33 1.414.197.133-.05 12.297-3.459 23.953 4.022-.614.026-1.174.11-1.63.28a1.76 1.76 0 0 0-1.145 1.5 1.76 1.76 0 0 0 .88 1.675c.141.082 11.77 6.736 16.973 15.101-1.497-.627-2.892-.953-3.894-.658a1.75 1.75 0 0 0-.642 2.997c.115.103 11.326 10.106 9.252 27.304-.035.277 0 .55.096.81.407 1.13 2.852 4.892 17.075 5.568.211 0 21.06.295 28.943 11.798.37.545 1.016.838 1.658.75.15-.009 14.27-1.582 23.29 11.477.385.552.792 1.176 1.228 1.845 2.623 3.995 6.458 9.826 12.256 12.44-2.473.19-4.884-.104-6.477-1.5a1.79 1.79 0 0 0-2.06-.187 1.76 1.76 0 0 0-.807 1.9c.215.956 2.725 8.951 26.732 15.02-7.834 2.25-21.757 5.003-30.575-.242"/><path fill="none" stroke="#fff" stroke-width=".7935955" d="M34.133 141.064c.236 1.358.389 3.808-.038 4.748a1.75 1.75 0 0 0 .183 1.757 1.78 1.78 0 0 0 1.62.698c.01 0 1.304-.103 2.182.744 1.016.993 1.08 2.899.953 4.632.206 2.304-.084 5.03-.791 5.274-.12-.075-2.906-1.724-3.178-6.21-.01-.16-.04-.32-.09-.47-.193-.534-1.867-5.216-4.792-7.45-.36-.628-1.405-2.993.883-6.66.08-.126.142-.271.184-.407.064-.193 1.427-4.688 1.546-8.701.398-1.447.993-3.012 1.437-3.874.966.501 2.255 1.12 3.866 1.766-2.771 2.037-5.965 6.178-3.965 14.153z"/><path fill="none" d="M207.439 151.785c-14.856-3.073-22.48-6.849-26.344-9.677 5.61.23 11.605-2.468 11.961-2.636a1.744 1.744 0 0 0 .933-2.122 1.75 1.75 0 0 0-2.005-1.185c-9.16 1.719-14.57-6.5-18.157-11.952a59 59 0 0 0-1.278-1.916c-8.83-12.761-21.75-13.211-25.535-13.039-9.25-12.176-30.291-12.488-31.138-12.488-10.049-.489-13.037-2.538-13.714-3.117 1.138-10.898-2.49-19.077-5.788-24.065q.15.088.302.196c.6.398 1.404.378 1.995-.053.59-.427.855-1.172.662-1.882-2.01-7.373-9.339-13.893-14.707-17.83a1.775 1.775 0 0 0 1.816-.877c.39-.7.258-1.564-.311-2.115-12.076-11.635-26.229-9.998-30.78-9.088-1.98-3.044-7.123-6.355-8.891-7.437-.76-.466-1.799-.356-2.343.344-.47.594-.531 1.36-.152 1.966A1.75 1.75 0 0 0 42 33.07a1.76 1.76 0 0 0-.44 1.995c.997 2.32.39 7.38-.018 9.679-4.271 4.79-8.626 17.714-9.294 19.74l-1.711 2.498c-1.567 2.235-2.115 5.388-1.438 8.243.484 2.04 1.51 3.574 2.897 4.311 3.368 1.817 6.22 2.122 8.485.919 2.165-1.157 3.098-3.39 3.495-4.84 5.53-1.209 9.812-5.822 11.688-8.173 1.433 1.126 2.367 2.719 2.838 4.836 1.501 6.765-2.398 16.195-5.001 19.572-4.815 6.247-5.295 16.966-5.304 20.702-6.431 1.909-14.25-.571-14.584-.667-5.03-.801-8.882-.164-11.39 1.87-2.476 2.005-2.667 4.593-2.663 4.696-1.26 8.182-5.34 13.18-5.379 13.226a2 2 0 0 0-.236.37c-3.054 6.44.091 13.69.887 15.329l.874 9.141c.576 2.052 1.567 3.428 2.953 4.088 1.665.793 3.17.183 3.422.061 2.325-1.156 3.86-2.918 4.569-5.24 1.597-5.222-1.813-11.357-1.96-11.615a1.74 1.74 0 0 0-.98-.8l-.805-.258c.353-10.29 3.084-14.753 5.367-16.697a7.4 7.4 0 0 1 2.368-1.353 28 28 0 0 0-1.255 3.794c-.14 3.466-1.139 7.114-1.396 8-3.798 6.298-.57 10.466-.433 10.644.11.127.236.248.375.338 1.737 1.194 3.17 4.346 3.679 5.714.494 6.308 4.786 8.71 4.948 8.8.808.449 1.513.604 2.108.604.78 0 1.37-.267 1.73-.497 2.513-1.643 2.35-6.669 2.158-8.444.283-3.175-.392-5.577-2.005-7.137a5.93 5.93 0 0 0-2.7-1.508c.178-1.963-.148-4.042-.258-4.65-2.365-9.48 4.024-11.564 4.782-11.779.1-.024.133-.131.225-.173 5.294 1.461 12.254 2.27 19.956.417 19.173 20.269 38.129 21.375 41.962 21.375h.08c.38.806.759 1.583 1.12 2.309 2.21 4.416 7.227 12.134 7.404 12.415 3.957 6.599 4.182 10.317 3.672 12.285-.375 1.447-1.185 1.991-1.152 1.991-7.37 3.025-10.467 6.22-11.653 7.836-9.456.06-12.329 3.343-12.654 3.76-1.743 2.304-3.57 5.207-2.223 7.231.201.304.443.539.708.721-1.518 1.705-1.417 3.176-1.057 4.103 1.213 3.166 7.253 3.967 8.719 4.075.446.14.896.201 1.348.201.757 0 1.506-.196 2.21-.584 2.23-1.232 3.584-4.21 4.197-5.916 2.93-.388 5.95-1.878 6.095-1.944.349-.178.637-.473.801-.824 3.714-7.887 12.336-12.101 13.812-12.775 4.093-.493 7.007-2.01 8.664-4.525 2.384-3.634 1.092-7.896.956-8.247-4.764-10.79-1.574-16.214-.9-17.179 18.833-12.71 19.249-26.072 18.644-30.944.942-.066 1.71.131 2.32.59 2.52 1.873 2.645 7.924 2.724 11.937.027 1.434.057 2.689.164 3.592.9 7.517 4.164 12.988 9.672 16.266 14.265 8.458 38.527-1.03 39.557-1.438a1.76 1.76 0 0 0 1.1-1.784 1.8 1.8 0 0 0-1.404-1.569zM34.142 141.073c.236 1.358.389 3.808-.038 4.748a1.75 1.75 0 0 0 .183 1.757 1.78 1.78 0 0 0 1.62.698c.01 0 1.304-.103 2.182.744 1.016.994 1.08 2.9.953 4.632.206 2.304-.084 5.03-.791 5.274-.12-.075-2.906-1.724-3.178-6.21q-.015-.242-.09-.47c-.193-.533-1.867-5.216-4.792-7.45-.36-.627-1.405-2.993.883-6.66.08-.126.142-.271.184-.407.064-.192 1.427-4.688 1.546-8.701.398-1.447.993-3.012 1.437-3.874.966.501 2.255 1.12 3.866 1.766-2.771 2.037-5.965 6.178-3.965 14.153zm135.824 12.476c-4.515-2.692-7.203-7.292-7.98-13.675-.099-.815-.108-1.939-.136-3.241-.104-4.974-.248-11.783-4.136-14.682-1.812-1.35-4.136-1.653-6.926-.876-.45.127-.834.436-1.064.84-.224.406-.29.898-.153 1.338.178.605 3.999 14.986-17.105 29.107a1.8 1.8 0 0 0-.35.304c-.248.29-5.91 7.11.163 20.86.01.027.843 2.866-.623 5.087-1.081 1.658-3.23 2.664-6.368 2.992a2 2 0 0 0-.502.126c-.445.187-10.777 4.605-15.556 14.037-1.232.547-3.592 1.433-5.318 1.433-.791 0-1.482.53-1.693 1.302-.35 1.293-1.527 4.207-2.897 4.965-.288.15-.534.182-1.185.024-2.754-.267-5.789-1.204-6.114-1.822.01-.066.106-.3.637-.908l1.525-2.374a1.75 1.75 0 0 0-1.86-2.656c.22-.524.7-1.4 1.731-2.758.024-.024 2.297-2.44 10.145-2.44.238 0 .513-.023.728.007.66 0 1.28-.399 1.583-.993.015-.034 1.918-3.607 10.575-7.171.22-.108 2.168-1.157 3.016-4.042 1.11-3.826-.229-8.95-4.027-15.291-.056-.075-5.119-7.887-7.238-12.12-2.326-4.657-5.213-10.44-2.12-18.687.34-.9-.12-1.911-1.028-2.254a1.75 1.75 0 0 0-2.257 1.022c-2.384 6.35-1.721 11.45-.297 15.624-5.203-.31-20.804-2.783-36.793-18.964 4.276-1.498 8.709-3.859 13.18-7.466a1.766 1.766 0 0 0 .257-2.472 1.754 1.754 0 0 0-2.47-.262c-21.683 17.558-42.145 4.262-43.008 3.69a1.9 1.9 0 0 0-.681-.28c-.152-.016-3.894-.619-7.524 2.393-4.327 3.597-6.594 10.556-6.74 20.691a1.75 1.75 0 0 0 1.2 1.686l1.353.454c.69 1.443 2.293 5.283 1.367 8.295-.423 1.371-1.335 2.394-2.648 3.057a.62.62 0 0 1-.508-.042c-.192-.098-.672-.482-.998-1.54l-.848-9.162a1.8 1.8 0 0 0-.203-.665c-.038-.07-3.552-6.777-1.064-12.327.848-1.086 4.714-6.416 6.018-14.926 0-.01.115-1.302 1.39-2.327 1.68-1.368 4.663-1.76 8.366-1.19.403.13 10.018 3.213 17.816.134a1.76 1.76 0 0 0 1.107-1.698c-.004-.13-.435-13.255 4.562-19.734 3.46-4.489 7.346-14.79 5.648-22.478-.81-3.646-2.848-6.407-5.894-7.98a1.75 1.75 0 0 0-2.262.585c-.049.076-5.084 7.486-11.472 8.224-.82.1-1.464.75-1.54 1.569 0 .023-.321 2.585-1.924 3.438-1.442.777-3.61-.066-5.174-.902-.35-.188-.862-.834-1.145-2.037-.447-1.885-.091-4 .91-5.435l1.872-2.714c.095-.138.17-.298.225-.454 1.332-4.136 5.529-15.612 8.9-18.982a1.75 1.75 0 0 0 .48-.902c.105-.539.732-3.824.713-7.151a1.78 1.78 0 0 0 1.63.342 1.765 1.765 0 0 0 1.248-1.81 38 38 0 0 0-.115-1.25c2.368 1.789 4.143 3.496 4.278 4.233.084.495.373.921.801 1.186.422.264.944.33 1.415.196.133-.049 12.296-3.458 23.952 4.023-.613.026-1.173.11-1.63.279a1.76 1.76 0 0 0-1.144 1.502 1.76 1.76 0 0 0 .88 1.674c.141.082 11.77 6.736 16.973 15.101-1.497-.627-2.892-.953-3.895-.658a1.75 1.75 0 0 0-.641 2.997c.115.103 11.326 10.107 9.252 27.304-.035.277 0 .55.096.81.407 1.13 2.852 4.892 17.075 5.568.211 0 21.06.295 28.943 11.798.37.545 1.016.838 1.659.75.148-.008 14.27-1.582 23.29 11.477.384.552.792 1.176 1.227 1.846 2.624 3.994 6.459 9.825 12.257 12.439-2.473.191-4.885-.103-6.477-1.5a1.79 1.79 0 0 0-2.061-.186 1.76 1.76 0 0 0-.806 1.9c.215.956 2.725 8.95 26.732 15.02-7.834 2.25-21.757 5.003-30.576-.242z"/></g></svg>