<svg xmlns="http://www.w3.org/2000/svg" width="160mm" height="160mm" viewBox="0 0 160 160"><g transform="translate(-26.592 -102.16)"><circle cx="106.59" cy="182.16" r="80" fill="#fff"/><g transform="translate(43.496 118.67)scale(.26458)"><g fill="#ffd042"><path d="M265.32 478.67c-.855.09-1.714.167-2.571.248.857-.08 1.716-.158 2.571-.248M253.76 479.6c-.767.043-1.534.087-2.303.123.769-.036 1.536-.08 2.303-.123M479.14 219.72c.065.767.135 1.533.192 2.303-.057-.77-.128-1.535-.192-2.303M479.65 227c.033.622.059 1.245.088 1.868-.029-.623-.055-1.246-.088-1.868M479.88 232.75q.027.864.049 1.729c-.013-.577-.032-1.153-.049-1.729M299.5 7.438q.682.176 1.36.355-.678-.179-1.36-.355M293.36 5.963q.632.14 1.263.286-.63-.144-1.263-.286M310.78 10.615q.755.235 1.509.474-.754-.24-1.509-.474M287.99 4.803q.598.123 1.194.25-.598-.127-1.194-.25M316.04 12.307c.422.141.847.278 1.268.421-.421-.143-.846-.28-1.268-.421M264.36 1.223c.25.025.5.055.75.081-.25-.026-.5-.056-.75-.081M252.26.309c.147.007.293.018.44.025-.147-.007-.293-.018-.44-.025M276.27 2.726q.5.078 1 .158-.5-.08-1-.158M281.68 3.616c.426.075.853.147 1.278.224q-.638-.114-1.278-.224M304.82 8.866c.42.117.842.231 1.261.351-.419-.12-.841-.234-1.261-.351M321.82 14.316q.824.3 1.645.606a179 179 0 0 0-1.645-.606M327.02 16.275c.422.164.846.323 1.267.49-.42-.166-.845-.326-1.267-.49M437.26 103.29a247 247 0 0 1 3.387 5.004 240 240 0 0 0-6.13-8.881 236 236 0 0 1 2.743 3.877M240 325.71c-32.794 0-64.094-2.195-92.75-6.175a238 238 0 0 0 8.68 35.37c-58.301-7.231-106.56-21.722-135.39-40.346l-.135-.089a118 118 0 0 1-2.691-1.797l-.366-.25a109 109 0 0 1-2.669-1.905l-.249-.187a100 100 0 0 1-2.198-1.682l-.58-.459a90 90 0 0 1-2.296-1.891 238.9 238.9 0 0 0 34.63 72.091c11.966 5.287 25.682 10.079 40.849 14.272a411 411 0 0 0 16.386 4.167 455 455 0 0 0 9.488 2.1l-.042-.088a50 50 0 0 1-.312-.67 94 94 0 0 1-2.614-6.346c-.304-.822-.61-1.688-.908-2.584s-.588-1.821-.858-2.761a56 56 0 0 1-.673-2.565c-.589-2.478-.983-4.962-.982-7.189q0-.643.046-1.254a12 12 0 0 1 .341-2.091 7.8 7.8 0 0 1 .65-1.692q.19-.364.421-.69c1.1-1.553 2.891-2.488 5.655-2.434a49 49 0 0 1 1.7.063c.158.008.317.023.475.033.411.026.822.051 1.235.086.218.019.438.045.656.066.354.034.706.067 1.061.108.254.03.509.066.763.099.323.042.646.081.971.128.265.038.532.084.798.126.315.05.629.097.946.152.275.048.552.102.828.153q.464.084.93.175c.283.056.567.119.851.179q.457.094.915.195c.291.065.583.136.875.205q.452.105.906.216.446.113.894.231.447.114.893.234.452.124.906.253.45.124.899.255.449.132.897.269.458.136.918.279.448.14.897.287.463.148.928.3.45.15.901.304.468.158.936.32.446.156.893.317.48.17.959.344.44.162.88.326.49.182.981.368.434.165.867.334.503.194 1.008.393.423.167.848.338.517.207 1.036.418.414.169.828.341.537.221 1.074.447.395.166.79.334.561.238 1.124.48l.752.326a234 234 0 0 1 1.885.829q.613.272 1.228.549l.67.303a354 354 0 0 1 5.295 2.451l.358.169 1.885.895c4.173 1.991 8.405 4.067 12.69 6.152-5.662-11.023-10.579-22.491-14.502-34.423 26.253 3.252 54.548 5.024 84.043 5.024 26.929 0 52.859-1.477 77.145-4.208l31.322-4.361c55.284-9.26 99.103-25.38 122.19-45.147a238.9 238.9 0 0 1-34.614 72.081c-45.489 20.111-116.36 34.271-196.04 33.064-24.076-.365-47.591-11.348-69.693-22.104a240.6 240.6 0 0 0 39.454 55.686l.124.006.071.073c9.848.411 19.873.625 30.044.625 55.516 0 106.7-6.311 148.08-16.917-27.933 21.94-60.836 37.837-96.751 45.683 107.88-23.509 188.67-119.55 188.67-234.48 0 8.019-.411 15.942-1.18 23.759-29.883 35.776-125.45 61.955-238.82 61.955zM432.7 96.938q.112.156.224.312.64.861 1.274 1.728a241 241 0 0 0-4.237-5.651 234 234 0 0 1 2.734 3.613zM259.05.751q-.462-.037-.925-.073.256.021.512.042zM444.85 115.02a250 250 0 0 1 4.79 8.167c-44.139 23.849-121.51 39.674-209.64 39.674-22.083 0-43.49-.994-63.869-2.859a238.5 238.5 0 0 0-23.856 57.346l.053.007-.003.012a629 629 0 0 0 25.646 2.803l-.002-.007c45.638 3.093 75.471 22.415 103.66 27.463 7.535 1.35 13.04-6.918 8.744-13.254l-8.622-12.716c85.209-4.969 155.6-24.903 187.84-51.677a239.6 239.6 0 0 1 8.751 41.824c-4.413-37.698-17.558-72.721-37.365-103a240 240 0 0 1 3.927 6.206l-.052.012zM252 224c-6.627 0-12-3.582-12-8s5.373-8 12-8 12 3.582 12 8-5.373 8-12 8M271.09 2.001q-.642-.082-1.286-.16zM245.75 479.93c.644-.015 1.285-.042 1.928-.062-.643.02-1.284.047-1.928.062"/></g><g fill="#ff9300"><path d="M234.25 479.93c-.644-.015-1.285-.042-1.928-.062.643.02 1.284.047 1.928.062M217.26 478.92c-.862-.081-1.724-.159-2.583-.249.859.09 1.722.168 2.583.249M228.54 479.72c-.769-.036-1.536-.08-2.303-.123.767.043 1.534.087 2.303.123M109.33 441.25a242 242 0 0 1-12.249-8.525 240 240 0 0 1-5.151-3.922l-.006-.004.004.001c1.931.495 3.89.978 5.863 1.453q.454.11.91.219a431 431 0 0 0 6.198 1.434c30.904 6.91 66.55 11.491 104.86 13.105a240.6 240.6 0 0 1-39.454-55.686c-4.232-2.06-8.412-4.111-12.534-6.077l-.212-.101-1.673-.794-.358-.169q-.772-.364-1.54-.722l-.464-.217q-.708-.33-1.413-.654a281 281 0 0 0-1.878-.858l-.67-.303q-.615-.277-1.228-.549l-.71-.315-1.175-.514q-.377-.165-.752-.326-.563-.242-1.124-.48-.396-.168-.79-.334-.538-.226-1.074-.447-.415-.172-.828-.341-.519-.211-1.036-.418-.425-.17-.848-.338-.505-.199-1.008-.393-.433-.168-.867-.334-.491-.186-.981-.368-.44-.164-.88-.326-.48-.174-.959-.344-.447-.16-.893-.317-.469-.162-.936-.32-.45-.154-.901-.304-.465-.153-.928-.3-.45-.145-.897-.287-.459-.142-.918-.279-.45-.137-.897-.269-.451-.13-.899-.255-.454-.13-.906-.253c-.299-.081-.596-.156-.893-.234-.298-.077-.597-.157-.894-.231-.303-.075-.604-.144-.906-.216q-.438-.106-.875-.205c-.306-.069-.61-.131-.915-.195-.284-.06-.568-.123-.851-.179-.311-.062-.62-.117-.93-.175-.276-.051-.553-.106-.828-.153-.316-.055-.631-.102-.946-.152-.266-.042-.533-.088-.798-.126-.325-.047-.647-.086-.971-.128-.254-.033-.51-.07-.763-.099-.355-.041-.708-.073-1.061-.108-.219-.021-.438-.047-.656-.066a52 52 0 0 0-1.235-.086c-.158-.01-.317-.024-.475-.033a51 51 0 0 0-1.7-.063c-2.764-.054-4.555.881-5.655 2.434a6 6 0 0 0-.421.69 8 8 0 0 0-.65 1.692q-.255.98-.341 2.091-.046.611-.046 1.254c-.001 2.226.393 4.71.982 7.189.204.859.429 1.718.673 2.565.271.94.56 1.865.858 2.761s.604 1.762.908 2.584a94 94 0 0 0 2.614 6.346 57 57 0 0 0 .354.758 461 461 0 0 1-9.488-2.1 411 411 0 0 1-16.386-4.167c-15.167-4.193-28.883-8.985-40.849-14.271a238.9 238.9 0 0 1-34.63-72.092v-.001a90 90 0 0 0 2.296 1.891l.58.459a97 97 0 0 0 2.198 1.682l.249.187q1.302.96 2.669 1.905.182.126.366.25 1.315.904 2.691 1.797l.135.089c28.838 18.624 77.093 33.115 135.39 40.346a238 238 0 0 1-8.68-35.37c-61.528-8.545-110.84-25.337-136.48-46.406q-.135-.113-.27-.224a86 86 0 0 1-2.247-1.927q-.178-.156-.355-.313a76 76 0 0 1-2.269-2.122c-.106-.103-.205-.207-.31-.311a69 69 0 0 1-2.274-2.358 62 62 0 0 1-1.864-2.115l-.003-.004a242 242 0 0 1-1.183-23.757c0 114.93 80.795 210.98 188.68 234.48-28.529-6.231-55.151-17.551-78.897-32.937l-.458-.297zm42.674-49.248c9.667 5.667 16.5 12.5 16 24s-46.5-12-48-24 19.792-7.157 32 0M240 0q-2.113.001-4.219.039c.198-.003.397-.002.596-.006A208 208 0 0 1 240 0M444.85 115.02l.052-.01a243 243 0 0 0-3.927-6.206q-.166-.253-.333-.505a237 237 0 0 0-3.387-5.004 239 239 0 0 1 7.595 11.725M347.33 25.343l.336.167q1.203.606 2.396 1.225.872.45 1.739.905.612.323 1.221.65 1.458.778 2.903 1.576l.33.183c.552.306 1.108.607 1.657.918.195.11.399.205.594.316a240 240 0 0 1 14.362 8.864c.063.042.123.089.186.131-6.821.306-13.564.908-20.225 1.773q-7.421 1.31-15.118 2.45c-55.544 10.855-104.21 40.877-138.88 82.884l.031.002-.007.008a717 717 0 0 0 41.148 1.176c17.369 0 34.322-.614 50.686-1.783q4.689-.335 9.312-.73l29.238-3.176c40.795-5.412 76.311-14.455 103.46-25.942a246 246 0 0 0-2.734-3.613l-.095-.124q-1.104-1.425-2.228-2.832l-.324-.403a242 242 0 0 0-4.285-5.193l-.378-.447a233 233 0 0 0-2.302-2.659q-.158-.18-.317-.357a243 243 0 0 0-4.391-4.843q-.311-.336-.624-.67-1.167-1.246-2.351-2.473-.148-.152-.296-.303a244 244 0 0 0-4.535-4.556q-.428-.42-.86-.84a241 241 0 0 0-2.368-2.267q-.147-.137-.293-.272a246 246 0 0 0-5.783-5.26 219 219 0 0 0-2.355-2.052l-.12-.102a241 241 0 0 0-9.931-8.055c-.577-.444-1.152-.89-1.733-1.328a249 249 0 0 0-3.913-2.883 244 244 0 0 0-5.45-3.834q-1.08-.734-2.169-1.457-.986-.656-1.979-1.302a254 254 0 0 0-5.547-3.515 251.214 251.214 0 0 0-12.004-6.896 243 243 0 0 0-5.168-2.693 240 240 0 0 0-8.462-4.075 249 249 0 0 0-5.334-2.361q-.882-.378-1.767-.75a231 231 0 0 0-4.309-1.76c-.42-.167-.845-.326-1.267-.49q-1.774-.69-3.561-1.354-.821-.305-1.645-.606a248 248 0 0 0-4.507-1.588c-.421-.143-.846-.28-1.268-.421a238 238 0 0 0-3.754-1.219q-.754-.24-1.509-.474-2.34-.723-4.698-1.397c-.419-.12-.841-.234-1.261-.351a236 236 0 0 0-3.962-1.072q-.68-.18-1.36-.355-2.427-.62-4.872-1.189-.63-.145-1.263-.286a241 241 0 0 0-4.18-.91q-.596-.127-1.194-.25-2.505-.508-5.028-.963-.638-.113-1.278-.224a236 236 0 0 0-4.415-.731c-.333-.052-.666-.108-1-.158q-2.577-.39-5.173-.724a238.2 238.2 0 0 1 76.233 23.34zM437.24 103.26a236 236 0 0 0-2.724-3.85q-.158-.218-.317-.435-.633-.867-1.274-1.728a233 233 0 0 1 4.315 6.013M252.92.347l-.222-.013q-.22-.013-.44-.025c-.717-.036-1.436-.062-2.154-.092q1.41.057 2.816.13M261.66.972q-1.305-.117-2.614-.221l-.412-.031q1.515.118 3.026.252M271 1.99q-.597-.076-1.196-.149-1.414-.176-2.833-.336 2.02.226 4.029.485M266.18 1.42l-1.078-.117c-.25-.026-.5-.056-.75-.081-.512-.052-1.026-.096-1.539-.145q1.687.16 3.367.343M248.61.155q-.885-.03-1.774-.053a240 240 0 0 0 1.774.053M234.54.068l-.075.002-1.155.027zM230.19.205q-1.107.043-2.212.095-.446.023-.89.048a228 228 0 0 1 3.102-.143"/></g><g fill="#ff7400"><path d="M373.05 40.278c-.063-.042-.123-.089-.186-.131a240 240 0 0 0-14.362-8.864c-.195-.111-.399-.206-.594-.316-.55-.311-1.105-.612-1.657-.918a241 241 0 0 1 14.26 8.576 510 510 0 0 1-17.686 3.426 241 241 0 0 1 20.225-1.773M347.66 25.51l-.336-.167zM351.8 27.64a260 260 0 0 0-1.739-.905q.872.45 1.739.905M52.578 99.137a252 252 0 0 0 7.105 2.694c.55.2 1.098.4 1.653.598.968.345 1.948.686 2.932 1.025.493.17.979.342 1.476.51q2.115.717 4.28 1.417c.616.199 1.244.394 1.865.591.879.279 1.759.557 2.65.832q1.151.353 2.314.701 1.13.339 2.271.675 1.267.372 2.547.738 1.021.29 2.053.577c.931.26 1.861.52 2.803.775.477.129.962.255 1.442.384q5.612 1.5 11.472 2.888.515.123 1.032.245a495 495 0 0 0 9.005 2.015l.047.01c26.81 5.712 57.003 9.716 89.304 11.574 34.669-42.007 83.337-72.029 138.88-82.884-29.992 4.443-62.991 6.927-97.709 6.927-47.862 0-92.492-4.7-130.42-12.783a240 240 0 0 1 51.298-25.214 222 222 0 0 0-6.45 2.336c-1.229.469-2.448.957-3.667 1.445a237 237 0 0 0-9.279 3.954c-1.046.472-2.099.932-3.137 1.418a239 239 0 0 0-11.336 5.663c-.173.092-.352.175-.524.268a240 240 0 0 0-12.138 7.004c-.315.194-.621.403-.935.599a241 241 0 0 0-10.32 6.807c-.724.504-1.438 1.021-2.156 1.533a242 242 0 0 0-9.037 6.763c-.625.491-1.254.976-1.874 1.472A241.6 241.6 0 0 0 60.19 81.122c-.348.394-.687.795-1.033 1.192a240 240 0 0 0-7.819 9.437c-.375.477-.752.951-1.124 1.43-.976 1.26-1.928 2.541-2.883 3.818 1.295.547 2.613 1.088 3.946 1.624.429.172.867.342 1.301.514M181.5 7.213c-.359.09-.727.159-1.086.25a238 238 0 0 0-13.159 3.791c-1.019.324-2.019.689-3.032 1.026q-.15.051-.297.102a238 238 0 0 1 18.594-5.41c-.338.083-.681.156-1.02.241"/></g><g fill="#ffedb9"><path d="M449.64 123.18a250 250 0 0 0-4.79-8.167 240 240 0 0 0-7.595-11.726l-.019-.027a235 235 0 0 0-4.315-6.013c-.076-.103-.147-.209-.224-.312l-.005.002c-27.148 11.487-62.664 20.53-103.46 25.942l-29.238 3.176q-4.623.396-9.312.73a713 713 0 0 1-50.686 1.783c-14.02 0-27.762-.406-41.148-1.176-8.421 10.201-16.035 21.088-22.699 32.604q-.332-.032-.663-.063l.641.062c20.379 1.865 41.786 2.859 63.869 2.859 88.129 0 165.5-15.825 209.64-39.674zM49.289 132.08c-.457-.189-.917-.377-1.369-.567.452.19.912.378 1.369.567M43.75 129.72l-.183-.081q.09.041.183.081M39.492 127.78c-.415-.195-.823-.392-1.234-.589.41.197.818.394 1.234.589M133.38 154.58q-.812-.133-1.622-.267.81.134 1.622.267M53.932 133.95c-.474-.184-.941-.371-1.41-.557.469.186.936.373 1.41.557M126.29 153.37q-1.113-.2-2.219-.402 1.105.203 2.219.402M120.04 152.22q-1.096-.207-2.185-.419 1.089.212 2.185.419M30.357 123.18l.07.036zM106.23 149.38q-1.003-.223-2-.449.997.226 2 .449M93.429 146.36q-.454-.113-.906-.228.451.115.906.228M100.33 148.04c-.66-.155-1.322-.31-1.978-.467.656.157 1.318.312 1.978.467M112.8 150.78l-1.256-.259zM87.419 144.79c-.604-.163-1.202-.328-1.802-.492.6.164 1.198.329 1.802.492M140.89 155.76q-1.191-.178-2.375-.36 1.184.182 2.375.36M58.762 135.78l-.317-.115zM64.836 137.93q-.78-.266-1.555-.535.774.268 1.555.535M69.944 139.63c-.536-.174-1.065-.349-1.596-.524.532.174 1.061.35 1.596.524M81.888 143.26c-.587-.167-1.176-.334-1.758-.503.582.169 1.171.335 1.758.503M75.363 141.34l-.566-.172zM35.35 125.77c-.399-.199-.8-.398-1.193-.598q.593.299 1.193.598M37.808 110.77c.377-.59.751-1.182 1.134-1.769 2.653-4.079 5.404-8.089 8.301-11.987q.016-.022.03-.043l.056.022-.057-.023c-6.193 8.331-11.827 17.095-16.916 26.207l.006-.009c2.356-4.214 4.856-8.339 7.446-12.398M162.76 158.63q-1.267-.142-2.527-.288 1.26.146 2.527.288M147.45 156.71q-1.196-.167-2.385-.338 1.19.17 2.385.338M169.61 159.36q-1.269-.13-2.532-.265 1.263.135 2.532.265M154.98 157.7q-.93-.116-1.856-.234.926.118 1.856.234M105.27 114.88l-.925-.207zM87.969 110.65c-.48-.128-.965-.254-1.442-.384.477.13.962.256 1.442.384M100.47 113.79l-1.032-.245zM83.724 109.49q-1.031-.287-2.053-.577 1.023.29 2.053.577M109.52 115.81l-.047-.01z"/></g><path fill="#d55a00" d="M182.53 6.972a237 237 0 0 0-21.648 6.459 240 240 0 0 0-51.298 25.214c37.928 8.083 82.558 12.783 130.42 12.783 34.718 0 67.717-2.484 97.709-6.927q7.696-1.141 15.118-2.45a507 507 0 0 0 17.686-3.426 241 241 0 0 0-14.26-8.576l-.33-.183a239 239 0 0 0-4.124-2.226q-.867-.456-1.739-.905-1.193-.62-2.396-1.225l-.336-.167a238.2 238.2 0 0 0-76.231-23.34l-.005-.001-.09-.011a241 241 0 0 0-4.03-.485l-.787-.085a248 248 0 0 0-4.521-.448q-1.51-.135-3.026-.252c-.171-.013-.341-.03-.512-.042q-.431-.03-.864-.06-1.424-.101-2.852-.184-.744-.045-1.489-.086-1.406-.073-2.816-.13-.748-.033-1.498-.062c-.989-.035-1.981-.06-2.973-.083l-.101-.003q-.616-.017-1.232-.031-2.148-.04-4.301-.04c-1.21 0-2.417.016-3.623.033-.198.003-.397.002-.596.006-.415.007-.828.02-1.242.029q-1.508.033-3.012.083-.67.025-1.339.053a227 227 0 0 0-4.171.203 245 245 0 0 0-3.448.224l-.578.04a238.4 238.4 0 0 0-39.465 6.301"/><path fill="#ff9300" d="m281.75 221.65 8.622 12.716c4.296 6.336-1.208 14.604-8.744 13.254-28.186-5.048-58.019-24.37-103.66-27.463l.002.007a630 630 0 0 1-25.646-2.803 240.3 240.3 0 0 0-8.234 56.311l.063.009-.001.024c29.732 3.964 62.044 6.14 95.845 6.14 105.42 0 196.41-21.144 239.55-51.787.199 3.968.449 7.922.449 11.939a241 241 0 0 0-.119-7.251 238 238 0 0 0-.148-3.885c-.029-.623-.054-1.247-.088-1.868a240 240 0 0 0-.315-4.972c-.058-.77-.127-1.536-.192-2.303a244 244 0 0 0-.265-2.987 257 257 0 0 0-.302-2.93q-.11-1.003-.229-2.003a239.5 239.5 0 0 0-8.751-41.824c-32.24 26.773-102.63 46.707-187.84 51.676zM.606 223.78q.132-1.947.296-3.886c.438-5.25.986-10.468 1.757-15.616q.01-.077.02-.153c.822-5.459 1.864-10.844 3.047-16.177.184-.833.382-1.661.575-2.49 1.218-5.225 2.561-10.404 4.111-15.493 26.222 21.782 77.701 39.023 141.86 47.378a238.5 238.5 0 0 1 23.856-57.346l-.641-.062q-2.955-.273-5.88-.572-1.269-.13-2.532-.265a619 619 0 0 1-4.313-.471q-1.267-.141-2.527-.288a583 583 0 0 1-5.263-.639q-.93-.116-1.856-.234a609 609 0 0 1-5.67-.758q-1.195-.167-2.385-.338-2.098-.3-4.177-.612-1.191-.178-2.375-.36a526 526 0 0 1-5.134-.819q-.812-.133-1.622-.267a539 539 0 0 1-5.465-.944q-1.113-.2-2.219-.402a530 530 0 0 1-4.037-.752q-1.096-.207-2.185-.419a506 506 0 0 1-5.046-1.011l-1.256-.259a492 492 0 0 1-5.313-1.142q-1.003-.223-2-.449a426 426 0 0 1-3.906-.899q-.992-.232-1.978-.467a433 433 0 0 1-4.922-1.21q-.454-.113-.906-.228a401 401 0 0 1-5.103-1.338c-.604-.163-1.202-.328-1.802-.492q-1.88-.514-3.729-1.042c-.587-.167-1.176-.334-1.758-.503a368 368 0 0 1-4.767-1.417l-.566-.172a331 331 0 0 1-4.853-1.534c-.536-.174-1.065-.349-1.596-.524q-1.773-.584-3.513-1.181-.78-.266-1.555-.535a285 285 0 0 1-4.519-1.615l-.317-.115a267 267 0 0 1-4.513-1.715c-.474-.184-.94-.371-1.41-.557q-1.635-.648-3.233-1.307c-.457-.189-.917-.377-1.369-.567a228 228 0 0 1-4.17-1.794l-.183-.081a205 205 0 0 1-4.075-1.868c-.415-.195-.823-.392-1.234-.589q-1.474-.705-2.908-1.422c-.399-.199-.8-.398-1.193-.598a175 175 0 0 1-3.73-1.948l-.07-.036c5.088-9.112 10.723-17.877 16.916-26.207l.057.023c.954-1.278 1.906-2.558 2.883-3.818.372-.479.75-.954 1.124-1.43a243 243 0 0 1 7.819-9.437c.346-.396.685-.798 1.033-1.192a241.6 241.6 0 0 1 29.835-28.428c.62-.497 1.249-.981 1.874-1.472a242 242 0 0 1 9.037-6.763c.718-.512 1.432-1.029 2.156-1.533a241 241 0 0 1 10.32-6.807c.314-.196.62-.405.935-.599a240 240 0 0 1 12.138-7.004c.172-.093.352-.176.524-.268a239 239 0 0 1 11.336-5.663c1.039-.486 2.091-.946 3.137-1.418a239 239 0 0 1 9.279-3.954 233 233 0 0 1 3.667-1.445 226 226 0 0 1 6.45-2.336q1.523-.535 3.054-1.049l.297-.102c1.013-.337 2.013-.702 3.032-1.026a239 239 0 0 1 13.159-3.791c.359-.092.727-.16 1.086-.25.338-.085.681-.157 1.021-.241A238.4 238.4 0 0 1 221.987.669q-.347.024-.694.05-2.622.204-5.225.464-.645.064-1.288.132c-1.731.181-3.458.375-5.178.592q-.368.048-.735.098-2.305.3-4.597.643-.67.099-1.338.201-2.445.38-4.873.807c-.485.085-.968.176-1.452.264q-2.062.376-4.111.787c-.382.077-.766.149-1.147.227-1.552.32-3.097.66-4.638 1.01a252 252 0 0 0-6.215 1.492c-.573.146-1.143.301-1.714.451a243 243 0 0 0-3.203.867c-.65.181-1.302.359-1.95.546a231 231 0 0 0-8.921 2.76q-1.771.585-3.53 1.197-1.129.39-2.251.793-1.293.463-2.579.94c-.653.243-1.303.494-1.954.742a237 237 0 0 0-11.466 4.723l-.212.093q-1.603.713-3.195 1.448l-.261.122a240 240 0 0 0-6.258 3.01l-.072.036C62.121 60.523 11.25 129.844 1.65 211.794a222 222 0 0 0-.798 7.938c-.064.763-.134 1.524-.191 2.288a240 240 0 0 0-.315 4.977c-.033.622-.059 1.246-.088 1.869a227 227 0 0 0-.147 3.885q-.027.863-.049 1.729a236 236 0 0 0-.071 5.523c0-5.457.246-10.854.606-16.219z"/><g fill="#ff7400"><path d="M240 279.85c-33.801 0-66.114-2.177-95.845-6.14-.055 2.096-.155 4.182-.155 6.292 0 13.463 1.22 26.629 3.352 39.488-61.537-8.544-110.93-25.295-136.58-46.354 25.634 21.069 74.95 37.861 136.48 46.406 28.657 3.98 59.956 6.175 92.75 6.175 113.37 0 208.94-26.179 238.82-61.955.769-7.818 1.18-15.74 1.18-23.759 0-4.017-.25-7.971-.446-11.939-43.147 30.641-134.13 51.786-239.55 51.786zM1.18 263.76l-.015-.189a248 248 0 0 1-.863-11.601 242.604 242.604 0 0 0 .878 11.79M10.502 272.91"/></g><g fill="#ffedb9"><path d="M436.04 378.36a238.9 238.9 0 0 0 34.614-72.081c-23.084 19.768-66.904 35.888-122.19 45.147l-31.322 4.361c-24.286 2.732-50.216 4.209-77.145 4.209-29.495 0-57.79-1.772-84.039-5.023 3.923 11.931 8.84 23.4 14.502 34.423-4.285-2.085-8.517-4.161-12.69-6.152 4.122 1.967 8.303 4.018 12.534 6.077 22.102 10.756 45.617 21.739 69.693 22.104 79.685 1.207 150.55-12.954 196.04-33.065zM143.78 376.91q-.539-.226-1.074-.447.535.221 1.074.447M138.12 374.64q-.491-.186-.981-.368.49.182.981.368M145.7 377.73q-.563-.242-1.124-.48.56.237 1.124.48M140 375.37q-.505-.199-1.008-.393zM149.56 379.43q-.615-.277-1.228-.549.613.272 1.228.549M125.34 370.56c-.303-.075-.604-.144-.906-.216.302.072.603.141.906.216M123.56 370.13c-.306-.069-.61-.131-.915-.195.305.064.609.126.915.195M127.13 371.02c-.299-.081-.596-.156-.893-.234q.447.115.893.234M153.52 381.24q-.708-.33-1.413-.654.705.325 1.413.654M128.93 371.53q-.451-.13-.899-.255.449.125.899.255M134.41 373.29q-.469-.162-.936-.32.468.158.936.32M136.26 373.95q-.48-.174-.959-.344.479.17.959.344M130.75 372.08q-.46-.142-.918-.279.459.137.918.279M132.57 372.66q-.465-.153-.928-.3.462.147.928.3M105.77 371c1.1-1.553 2.891-2.488 5.655-2.434-2.763-.054-4.554.881-5.655 2.434M14.426 310.34l.249.187zM17.344 312.43q.182.126.366.25-.183-.124-.366-.25M11.648 308.2l.58.459zM9.352 306.3a238.9 238.9 0 0 0 34.63 72.092c11.966 5.287 25.682 10.078 40.849 14.271-15.167-4.193-28.883-8.985-40.849-14.272A238.9 238.9 0 0 1 9.352 306.3M20.401 314.48l.135.089zM121.79 369.76c-.311-.062-.62-.117-.93-.175q.464.084.93.175M120.04 369.43c-.316-.055-.631-.102-.946-.152.315.05.629.097.946.152M118.29 369.15c-.325-.047-.647-.086-.971-.128.323.041.646.08.971.128M116.56 368.93c-.355-.041-.708-.073-1.061-.108.354.034.706.066 1.061.108M114.84 368.75"/></g><g fill="#ff7400"><path d="M251.46 479.72c.769-.036 1.536-.08 2.303-.123a234 234 0 0 0 8.987-.679c.858-.081 1.716-.158 2.571-.248.982-.103 1.959-.221 2.938-.336q5.794-.68 11.499-1.633c.501-.084 1.004-.162 1.505-.249 1.298-.225 2.59-.466 3.881-.712q.645-.122 1.291-.247a234 234 0 0 0 4.893-1.015c35.915-7.845 68.818-23.743 96.751-45.683-41.374 10.607-92.563 16.917-148.08 16.917-10.172 0-20.197-.214-30.044-.625 12.254 12.911 25.871 24.517 40.716 34.455-3.558.158-7.077.457-10.673.457 1.922 0 3.837-.028 5.748-.073.644-.015 1.285-.042 1.928-.062 1.264-.04 2.526-.084 3.785-.144zM221.2 479.2c-1.052-.082-2.109-.145-3.157-.24a239 239 0 0 1-17.773-2.291c-.97-.162-1.932-.344-2.897-.518-12.471-2.243-24.615-5.417-36.335-9.509-.373-.129-.751-.248-1.123-.38a239 239 0 0 1-17.437-6.976c-.362-.161-.722-.327-1.083-.49a241 241 0 0 1-31.61-17.249c23.747 15.386 50.369 26.706 78.897 32.937l.762.166q2.058.442 4.128.848.636.123 1.273.244a250 250 0 0 0 3.895.715c.495.086.993.164 1.489.247q5.72.955 11.527 1.636c.972.114 1.943.231 2.918.334.859.09 1.721.168 2.583.249q1.568.15 3.143.279a249 249 0 0 0 5.837.399c.767.043 1.534.087 2.303.123 1.259.059 2.521.104 3.785.144.643.02 1.284.047 1.928.062 1.911.045 3.826.073 5.749.073-6.335 0-12.592-.321-18.802-.803M98.697 430.47l-.91-.219zM104.9 431.9l-.02-.004zM91.924 428.8h-.004zM144.09 273.67a240.3 240.3 0 0 1 8.234-56.311l.003-.012-.053-.007c-64.163-8.355-115.64-25.597-141.86-47.378-1.55 5.089-2.893 10.267-4.111 15.493-.193.83-.391 1.657-.575 2.49-1.183 5.333-2.225 10.718-3.047 16.177q-.01.077-.02.153c-.771 5.148-1.319 10.367-1.757 15.616a248 248 0 0 0-.296 3.886c-.36 5.365-.606 10.762-.606 16.219 0-4.017.25-7.971.447-11.938 29.299 20.806 80.689 37.21 143.64 45.612z"/></g><path fill="#d55a00" d="M1.166 263.57c.006.063.008.126.015.189l.003.004c.593.709 1.22 1.413 1.864 2.115q.257.278.519.557a69 69 0 0 0 1.755 1.801c.104.103.204.207.31.311a75 75 0 0 0 2.269 2.122c.116.105.237.209.355.313a84 84 0 0 0 2.247 1.927q.134.113.27.224c25.655 21.06 75.044 37.81 136.58 46.354-2.134-12.859-3.354-26.025-3.354-39.488 0-2.11.1-4.196.155-6.292l.001-.024-.063-.009c-62.955-8.402-114.35-24.806-143.64-45.613-.198 3.967-.448 7.921-.448 11.938 0 4.015.108 8.004.303 11.97.195 3.892.488 7.758.863 11.601z"/><path fill="#ffd042" d="M176.15 160c6.664-11.516 14.278-22.403 22.699-32.604l.007-.008-.031-.002c-32.302-1.859-62.495-5.863-89.304-11.574l-.047-.01a481 481 0 0 1-4.208-.919l-.925-.207a411 411 0 0 1-3.872-.889l-1.032-.245a416 416 0 0 1-11.472-2.888c-.48-.128-.965-.254-1.442-.384-.942-.255-1.872-.515-2.803-.775a336 336 0 0 1-4.6-1.315q-1.14-.334-2.271-.675a317 317 0 0 1-2.314-.701c-.891-.274-1.771-.553-2.65-.832-.622-.197-1.25-.391-1.865-.591a331 331 0 0 1-4.28-1.417c-.497-.168-.983-.341-1.476-.51-.984-.339-1.965-.68-2.932-1.025-.555-.198-1.103-.398-1.653-.598a309 309 0 0 1-4.285-1.595q-1.424-.545-2.82-1.099c-.434-.172-.872-.342-1.302-.515a241 241 0 0 1-4.002-1.646q-.016.022-.03.043c-2.897 3.898-5.648 7.908-8.301 11.987-.383.586-.756 1.179-1.134 1.769-2.59 4.06-5.09 8.184-7.445 12.399l-.006.009.07.037c1.216.656 2.464 1.304 3.73 1.948.394.2.795.399 1.193.598q1.434.715 2.908 1.422c.411.197.819.394 1.234.589 1.337.629 2.69 1.252 4.075 1.868q.092.04.183.081a228 228 0 0 0 4.17 1.794c.453.19.912.378 1.369.567q1.598.659 3.233 1.307c.469.186.936.372 1.41.557 1.484.578 2.984 1.151 4.513 1.715l.317.115q2.23.818 4.519 1.615c.515.18 1.036.357 1.555.535q1.74.596 3.513 1.181c.531.175 1.06.351 1.596.524 1.6.518 3.214 1.031 4.853 1.534l.566.172q2.358.718 4.767 1.417.876.253 1.758.503 1.85.526 3.729 1.042c.6.164 1.198.329 1.802.492q2.526.68 5.103 1.338.452.115.906.228a433 433 0 0 0 4.922 1.21q.985.235 1.978.467 1.94.456 3.906.899.997.226 2 .449 2.635.583 5.313 1.142l1.256.259q2.504.516 5.046 1.011c.725.142 1.456.28 2.185.419q2.007.383 4.037.752c.739.135 1.476.27 2.219.402q2.713.483 5.465.944.81.134 1.622.267 2.551.419 5.134.819 1.185.182 2.375.36 2.079.312 4.177.612 1.19.171 2.385.338 2.818.39 5.67.758.926.118 1.856.234 2.617.328 5.263.639c.839.098 1.684.193 2.527.288q2.148.242 4.313.471 1.263.135 2.532.265 2.925.297 5.88.572.332.028.663.061"/><path fill="#d55a00" d="M250.67 479.54c-14.845-9.939-28.462-21.544-40.716-34.455l-.071-.073-.124-.006c-38.315-1.614-73.961-6.195-104.86-13.105l-.02-.004a459 459 0 0 1-6.178-1.43l-.91-.219a423 423 0 0 1-5.863-1.453l-.004-.001.006.004a239 239 0 0 0 6.339 4.798 240 240 0 0 0 11.061 7.649l.458.297a241 241 0 0 0 31.61 17.249c.361.163.72.329 1.083.49a238 238 0 0 0 17.437 6.976c.372.132.75.25 1.123.38 11.721 4.092 23.865 7.266 36.335 9.509.965.173 1.927.356 2.897.518a240 240 0 0 0 17.773 2.291c1.048.095 2.104.158 3.157.24 6.208.48 12.465.801 18.8.801 3.596 0 7.115-.299 10.672-.456z"/><path fill="#ffd042" d="M168 416c.5-11.5-6.333-18.333-16-24-12.208-7.156-33.5-12-32 0s47.5 35.5 48 24"/><ellipse cx="252" cy="216" fill="#ff9300" rx="12" ry="8"/></g><ellipse cx="67.686" cy="182.26" fill="#efecf9" rx="13.951" ry="8.822"/></g></svg>