<svg xmlns="http://www.w3.org/2000/svg" width="377.824" height="377.824" viewBox="0 0 99.966 99.966"><g transform="translate(-57.301 -92.341)"><circle cx="107.28" cy="142.32" r="48.483" fill="#fff" stroke="#fff" stroke-width="3"/><path fill="#848484" d="M126.049 140.299a19.48 19.48 0 0 0-7.92-12.003 19.48 19.48 0 0 0-13.9-3.35c-11.868-6.725-22.516-10.181-28.298-9.162-1.66.293-2.917.954-3.688 2.012-3.275 4.493 3.181 14.849 15.136 25.63-.288 6.459 2.63 12.922 8.319 16.905 5.705 3.995 12.802 4.519 18.783 2.014 10.54 5.547 19.798 8.31 25.045 7.385 1.659-.293 2.917-.953 3.688-2.012 3.455-4.742-3.925-16.01-17.167-27.418zm1.944 17.096c-.56.767-1.641 1.755-3.619 2.104-1.35.238-2.972.155-4.845-.241-1.616-.342-3.42-.916-5.404-1.726-4.015-1.64-8.41-4.104-12.706-7.127-4.278-3.009-8.057-6.288-10.928-9.483a37 37 0 0 1-2.18-2.65c-1.732-2.332-2.763-4.432-3.066-6.263-.336-2.03.28-3.398.856-4.188.56-.767 1.64-1.755 3.618-2.104h.001c2.111-.373 4.88.036 8.243 1.208a19.4 19.4 0 0 0-2.916 1.841c-1.962-.518-3.63-.69-4.872-.47-.88.155-1.548.506-1.957 1.067-.928 1.273-.384 3.432 1.29 6.039 2.433 3.79 7.256 8.527 13.417 12.862 7.249 5.098 14.435 8.292 18.897 8.703.789.072 1.494.06 2.098-.047.88-.155 1.548-.506 1.957-1.067.782-1.073.518-2.776-.587-4.846.416-1.14.721-2.304.916-3.479 1.478 2.1 2.366 4.002 2.644 5.679.335 2.029-.28 3.397-.857 4.188z"/></g></svg>