<svg xmlns="http://www.w3.org/2000/svg" width="347.91mm" height="347.91mm" viewBox="0 0 347.91 347.91"><g transform="translate(70.498 65.958)"><circle cx="103.46" cy="108" r="173.96" fill="#fff"/><path fill="#f3f3f3" stroke="#000" stroke-width="3.00007262" d="M-6.543 11.756v109.999a110 110 0 0 0 110 110 110 110 0 0 0 109.998-110v-110H103.456z"/><g fill="#685ca6"><path d="M139.717 59.288a5.44 5.44 0 0 0-5.051-3.419h-31.211v-9.39h19.23c1.188 0 1.796-1.435.966-2.288l-6.376-6.553 6.376-6.552c.829-.852.224-2.288-.966-2.288h-19.23a5.894 5.894 0 0 0-11.788 0V55.87H61.82c-2.239 0-3.784 2.246-2.985 4.335a63.14 63.14 0 0 1 0 45.095c-.797 2.084.745 4.336 2.985 4.336h72.845a5.44 5.44 0 0 0 5.051-3.419 63.14 63.14 0 0 0 0-46.928zM194.315 123.874h-44.689c-9.492 0-18.424 5.056-23.311 13.194l-13.775 22.944h-9.08v-38.256H91.672v38.256h-7.02v-9.744a5.894 5.894 0 0 0-5.894-5.894h-2.29v-10.486h2.29a5.894 5.894 0 0 0 0-11.787H22.014a5.893 5.893 0 1 0 0 11.787h.811v10.486h-.811a5.894 5.894 0 0 0 0 11.787v5.82c0 6.073 4.924 10.997 10.997 10.997h8v10.967c0 6.073 4.924 10.997 10.998 10.997h92.875c6.074 0 10.998-4.923 10.998-10.997v-10.967h.243a31.91 31.91 0 0 0 29.935-20.855l6.08-16.462h2.178a5.894 5.894 0 1 0 0-11.787zm-150.566 20.5h-9.14v-10.486h9.14zm11.788 0v-10.486h9.14v10.486z"/></g></g></svg>