<svg xmlns="http://www.w3.org/2000/svg" width="309.16mm" height="309.16mm" viewBox="0 0 309.16 309.16"><g transform="translate(51.118 46.578)"><circle cx="103.46" cy="108" r="154.58" fill="#fff"/><path fill="red" stroke="#000" stroke-width="2.5000164199999997" d="M-6.543 11.756v109.999a110 110 0 0 0 110 110 110 110 0 0 0 109.998-110v-110H103.456z"/><path fill="none" stroke="#000" stroke-width=".265" d="m113.18 61.004-6.427.21"/><g fill="#fff" stroke="#000" transform="translate(-3.299 -11.642)"><rect width="19.114" height="7.134" x="97.198" y="93.184" rx="4.1"/><path stroke-width="1.0001124" d="M100.325 61.003c3.412 8.627-1.232 12.47-2.269 15.084-4.11 10.356 4.502 17.135 4.502 17.135l4.195.06 4.194-.06s8.612-6.78 4.502-17.135c-1.037-2.613-5.68-6.457-2.269-15.084l-6.427.211z"/><rect width="19.114" height="7.134" x="97.198" y="54.164" rx="4.1"/><g transform="matrix(1 0 0 -1 0 246.66)"><rect width="19.114" height="7.134" x="97.198" y="93.184" rx="4.1"/><path stroke-width="1.0001124" d="M100.325 61.003c3.412 8.627-1.232 12.47-2.269 15.084-4.11 10.356 4.502 17.135 4.502 17.135l4.195.06 4.194-.06s8.612-6.78 4.502-17.135c-1.037-2.613-5.68-6.457-2.269-15.084l-6.427.211z"/><rect width="19.114" height="7.134" x="97.198" y="54.164" rx="4.1"/></g><g transform="rotate(-60 320.823 .857)scale(1 -1)"><rect width="19.114" height="7.134" x="97.198" y="93.184" rx="4.1"/><path stroke-width="1.0001124" d="M100.325 61.003c3.412 8.627-1.232 12.47-2.269 15.084-4.11 10.356 4.502 17.135 4.502 17.135l4.195.06 4.194-.06s8.612-6.78 4.502-17.135c-1.037-2.613-5.68-6.457-2.269-15.084l-6.427.211z"/><rect width="19.114" height="7.134" x="97.198" y="54.164" rx="4.1"/></g><g transform="rotate(60 107.3 122.1)"><rect width="19.114" height="7.134" x="97.198" y="93.184" rx="4.1"/><path stroke-width="1.0001124" d="M100.325 61.003c3.412 8.627-1.232 12.47-2.269 15.084-4.11 10.356 4.502 17.135 4.502 17.135l4.195.06 4.194-.06s8.612-6.78 4.502-17.135c-1.037-2.613-5.68-6.457-2.269-15.084l-6.427.211z"/><rect width="19.114" height="7.134" x="97.198" y="54.164" rx="4.1"/></g><g transform="rotate(240 107.03 123.84)"><rect width="19.114" height="7.134" x="97.198" y="93.184" rx="4.1"/><path stroke-width="1.0001124" d="M100.325 61.003c3.412 8.627-1.232 12.47-2.269 15.084-4.11 10.356 4.502 17.135 4.502 17.135l4.195.06 4.194-.06s8.612-6.78 4.502-17.135c-1.037-2.613-5.68-6.457-2.269-15.084l-6.427.211z"/><rect width="19.114" height="7.134" x="97.198" y="54.164" rx="4.1"/></g><g transform="rotate(120 35.942 -.387)scale(1 -1)"><rect width="19.114" height="7.134" x="97.198" y="93.184" rx="4.1"/><path stroke-width="1.0001124" d="M100.325 61.003c3.412 8.627-1.232 12.47-2.269 15.084-4.11 10.356 4.502 17.135 4.502 17.135l4.195.06 4.194-.06s8.612-6.78 4.502-17.135c-1.037-2.613-5.68-6.457-2.269-15.084l-6.427.211z"/><rect width="19.114" height="7.134" x="97.198" y="54.164" rx="4.1"/></g><path stroke-width="1.0001124" d="M106.752 38.821c-46.537 0-84.425 37.888-84.425 84.425s37.885 84.427 84.425 84.427c46.537 0 84.428-37.888 84.428-84.427 0-46.537-37.888-84.425-84.428-84.425zm0 15c38.433 0 69.426 30.993 69.426 69.426 0 38.432-30.996 69.425-69.426 69.425-38.433 0-69.426-30.995-69.426-69.425 0-38.433 30.993-69.426 69.426-69.426z" color="#000"/><path stroke-width="1.0001124" d="M106.752 100.233c-12.686 0-23.014 10.327-23.014 23.013s10.328 23.014 23.014 23.014 23.014-10.328 23.014-23.014-10.328-23.013-23.014-23.013zm0 13.137a9.86 9.86 0 0 1 9.877 9.876 9.86 9.86 0 0 1-9.877 9.877 9.86 9.86 0 0 1-9.876-9.877 9.86 9.86 0 0 1 9.876-9.876z" color="#000"/></g></g></svg>