<svg xmlns="http://www.w3.org/2000/svg" width="42.646" height="41.586" viewBox="0 0 11.283 11.003"><path fill="#fff" fill-rule="evenodd" d="M5.642 11.003C2.527 11.003 0 8.538 0 5.501 0 2.457 2.527 0 5.642 0c3.114 0 5.641 2.457 5.641 5.501 0 3.037-2.527 5.502-5.641 5.502"/><g stroke-width=".009"><path fill="#c82025" d="M4.956 10.35a2 2 0 0 1-.295-.116c-.226-.087-.557-.238-.574-.262a1 1 0 0 0-.07-.04 4 4 0 0 1-.424-.255 2 2 0 0 0-.166-.122 2 2 0 0 1-.212-.175 2.6 2.6 0 0 1-.294-.296 2 2 0 0 0-.097-.114c-.04-.04-.11-.144-.197-.287a3 3 0 0 0-.078-.126 3 3 0 0 1-.132-.29 2.8 2.8 0 0 1-.147-.63.4.4 0 0 0-.017-.105q-.006-.001-.007-.013c0-.011.16-.013 1.39-.013h1.39v1.433c0 .789-.001 1.433-.003 1.433zM6.25 8.938V7.506h2.774l-.007.089a4 4 0 0 1-.12.602c-.072.215-.164.368-.318.598a2 2 0 0 1-.162.214 1 1 0 0 0-.056.065 2 2 0 0 1-.24.247.2.2 0 0 0-.053.048 2.5 2.5 0 0 1-.303.243c-.05.035-.1.076-.147.11a8 8 0 0 1-.37.216c-.12.072-.25.13-.364.184a9 9 0 0 1-.634.249zm-4.01-4.99c-.004-.846.005-1.443.006-2.217l.054-.022c.223-.09.793-.172 1.427-.21l.156-.01c.293-.012.6-.03.884-.041l.259-.005v2.546c-.524 0-2.356-.01-2.788-.018zm4.01-1.25V1.443l.263.005q.264.005.27.015.005.009.006-.003c0-.012 0-.012.009 0s.008.012.008 0q0-.013.007-.004c.007.009.142.015.37.024.2.008.383.017.405.019l.109.008c.06.004.229.02.382.035.39.04.742.106.903.168l.044.017.002 1.113.007 1.122c-.924.005-1.858-.004-2.785.007z"/><path d="M5.569 10.94c-.176-.045-.371-.1-.526-.146a7 7 0 0 1-.716-.264 5 5 0 0 1-.84-.444.4.4 0 0 0-.056-.034.7.7 0 0 1-.11-.076 2 2 0 0 0-.19-.142 2 2 0 0 1-.22-.19c-.201-.19-.235-.224-.253-.252a1 1 0 0 0-.074-.087 2.2 2.2 0 0 1-.313-.436c-.006-.013-.014-.024-.018-.024a3 3 0 0 1-.172-.346.2.2 0 0 0-.017-.047 2 2 0 0 1-.08-.228.3.3 0 0 0-.024-.065c-.021-.015-.095-.413-.103-.56l-.005-.092H.456V3.954h1.39l.002-1.188c.002-1 .004-1.191.014-1.21a.6.6 0 0 1 .099-.121.2.2 0 0 0 .044-.025 1 1 0 0 1 .188-.088c.134-.046.408-.105.63-.135a1 1 0 0 0 .118-.022c.002-.004.082-.013.178-.021s.19-.018.212-.022.11-.012.196-.017.176-.01.2-.013c.08-.008.363-.023.638-.033a83 83 0 0 1 2.537 0 16 16 0 0 1 .834.046c.083.005.222.017.308.026l.224.022a.2.2 0 0 1 .067.012c0 .003.052.013.115.022.318.042.604.112.745.182.129.064.184.116.218.206.016.04.016.094.016 1.21v1.17h1.388l.005.019c.003.01.006.81.006 1.776v1.757H9.42v.02c0 .055-.02.23-.036.323-.046.25-.12.438-.196.66-.018.05-.168.35-.182.365a5 5 0 0 1-.302.415c-.076.089-.155.17-.235.254a4 4 0 0 1-.41.347c-.161.13-.342.236-.52.342a7 7 0 0 1-1.06.482 11 11 0 0 1-.773.224c-.034.01-.132.01-.138 0zm.186-.426c.135-.031.37-.096.473-.132.81-.341 1.643-.816 2.193-1.377.173-.192.293-.433.4-.652.07-.166.13-.38.16-.563.027-.094.034-.203.045-.283l-1.382-.002a925 925 0 0 0-4.037 0c-1.203.002-1.361.004-1.361.015q0 .012.006.013a.3.3 0 0 1 .018.104c.022.223.094.512.174.7.035.085.098.216.104.22l.084.136a2 2 0 0 0 .284.387 3 3 0 0 0 .586.53 4 4 0 0 0 .515.325 1 1 0 0 1 .07.039c.01.014.13.074.307.152.104.045.19.083.194.083.012 0 .147.056.15.063.022.03.792.26.89.266.01 0 .067-.01.127-.024M10.42 6.67c0-.245.002-.868.006-1.385l.005-.94-9.58.004-.002 1.277c-.001.702 0 1.325.003 1.383l.005.107h9.563zm-8.5.02a2 2 0 0 1-.344-.073c-.11-.038-.16-.078-.192-.15a.2.2 0 0 0-.022-.035.9.9 0 0 1-.073-.255c-.02-.167.014-.242.11-.242.063 0 .093.027.19.174a.5.5 0 0 0 .21.198.56.56 0 0 0 .349.033c.046-.016.098-.058.098-.08q0-.011.008-.012.01-.002.009-.018 0-.016-.007-.017c-.003 0-.013-.017-.022-.04-.013-.032-.023-.041-.074-.067a1 1 0 0 0-.136-.053 1.6 1.6 0 0 1-.321-.128l-.044-.023a.77.77 0 0 1-.291-.357c-.012-.002-.028-.092-.028-.162 0-.068.016-.17.027-.18a.4.4 0 0 0 .034-.06.8.8 0 0 1 .196-.237.94.94 0 0 1 .462-.15c.114-.007.197.003.358.045l.115.03.055-.018c.097-.03.125-.021.226.076.08.077.133.186.142.293.01.134-.047.213-.155.213-.06 0-.11-.025-.18-.092a1 1 0 0 0-.225-.173c-.17-.08-.343-.022-.328.112.008.078.068.126.2.162.197.053.32.092.382.124.039.019.074.04.079.045a1 1 0 0 0 .075.06.4.4 0 0 1 .173.244.7.7 0 0 1-.01.343.7.7 0 0 1-.264.333.9.9 0 0 1-.313.12 2 2 0 0 1-.47.016zm1.842-.005a.4.4 0 0 1-.31-.264.2.2 0 0 0-.03-.063 3 3 0 0 1-.01-.378 10 10 0 0 0-.006-.382c-.003-.008-.033-.011-.107-.011a.6.6 0 0 1-.115-.008c-.017-.01-.025-.168-.01-.186a1 1 0 0 1 .08-.052 1 1 0 0 0 .084-.056.5.5 0 0 1 .094-.062c.003 0 .067-.04.144-.087.076-.048.14-.087.143-.087.007 0 .1-.061.114-.075.009-.01.037-.012.107-.012.08 0 .096.002.102.015.005.008.01.08.012.157.003.11.007.144.017.15.006.004.08.008.164.008.17 0 .215.008.22.037q.014.064.005.15c-.005.054-.01.067-.03.086-.024.022-.024.022-.182.022-.123 0-.161.003-.174.013-.017.012-.017.023-.014.284.003.31.008.345.057.388.04.036.079.04.145.019a.4.4 0 0 0 .072-.031.1.1 0 0 1 .044-.012c.07 0 .107.077.086.182-.01.043-.095.13-.166.167a.82.82 0 0 1-.536.088m1.52 0a1.7 1.7 0 0 1-.345-.081c-.108-.04-.125-.06-.202-.23a1 1 0 0 1-.053-.247c-.008-.082.006-.132.045-.167.048-.042.099-.034.17.028.022.02.12.16.12.172 0 .019.125.125.175.148a.54.54 0 0 0 .336.04c.057-.016.084-.033.106-.07.02-.033.02-.06 0-.102-.024-.052-.071-.08-.21-.124-.322-.103-.368-.13-.544-.306a.53.53 0 0 1-.148-.402c.016-.234.21-.461.463-.542a1.1 1.1 0 0 1 .648.004c.069.02.1.02.14.004a.18.18 0 0 1 .136.002.47.47 0 0 1 .173.194.4.4 0 0 1 .055.209c0 .108-.068.19-.157.19-.043 0-.132-.052-.192-.112a1 1 0 0 0-.187-.156c-.083-.043-.213-.054-.272-.023-.066.034-.091.079-.08.143q.012.06.096.104c.032.017.192.07.212.07.045 0 .334.116.357.143.005.006.03.025.054.043a.5.5 0 0 1 .155.176.4.4 0 0 0 .032.056.4.4 0 0 1 .02.08c.01.057.01.09.004.145-.01.097-.018.13-.027.13q-.007 0-.008.012a.7.7 0 0 1-.087.17 1 1 0 0 0-.045.064c-.045.069-.223.17-.371.21a1.6 1.6 0 0 1-.57.025zm1.893.006a.5.5 0 0 1-.303-.196.6.6 0 0 1-.041-.101c-.02-.061-.02-.081-.023-.425a4 4 0 0 0-.012-.37.4.4 0 0 0-.111-.008c-.074 0-.107-.003-.115-.011-.007-.007-.013-.04-.014-.088-.004-.093.002-.101.11-.164a1 1 0 0 0 .098-.063c.013-.012.066-.047.117-.078a6 6 0 0 0 .34-.214c.024-.024.19-.027.213-.004a.6.6 0 0 1 .015.158c.004.134.006.15.02.16s.054.013.184.013c.213 0 .204-.005.204.117 0 .097-.007.128-.036.153-.016.014-.035.016-.141.016-.156 0-.212.007-.222.026-.005.008-.01.114-.014.236a1.3 1.3 0 0 0 .008.292c.02.11.042.14.108.158.042.012.085.003.15-.03.056-.028.085-.027.119.003.07.064.055.154-.04.244a.57.57 0 0 1-.297.158c-.073.02-.26.03-.317.017zm1.02-.018q-.113-.025-.14-.105c-.015-.057.01-.111.073-.145.083-.047.108-.13.12-.405l.018-.413a6 6 0 0 0 .007-.34c-.003-.104-.006-.121-.025-.155a.18.18 0 0 0-.113-.088c-.046-.012-.063-.035-.068-.092-.005-.066.014-.101.072-.132.043-.022.049-.023.192-.023l.378.004c.127.002.314 0 .417-.003.134-.006.208-.005.263.003a1 1 0 0 1 .253.072.4.4 0 0 1 .152.158.37.37 0 0 1 .044.197.4.4 0 0 1-.122.312c-.088.088-.085.112.016.165a.56.56 0 0 1 .223.198c.045.094.05.115.05.206 0 .17-.047.28-.174.41a.6.6 0 0 1-.326.16 1 1 0 0 1-.28.016c-.32-.005-.704-.004-.855 0a2 2 0 0 1-.174 0zm.957-.31a.13.13 0 0 0 .069-.068c.02-.04.022-.052.022-.16 0-.105-.003-.123-.02-.163a.3.3 0 0 0-.06-.08.2.2 0 0 0-.14-.053c-.093 0-.106.027-.106.214 0 .208.019.3.063.323.01.005.043.009.073.01a.17.17 0 0 0 .1-.024zm-.096-.793c0-.004.014-.011.03-.017.039-.014.078-.062.093-.113a.6.6 0 0 0-.004-.256c-.017-.056-.058-.108-.1-.125a.2.2 0 0 0-.071-.011c-.035 0-.05.004-.066.02l-.021.022v.22c0 .218 0 .223.02.245.016.019.026.022.069.022.028 0 .05-.003.05-.007m-.024-2.722a54 54 0 0 0-.01-1.12 1.4 1.4 0 0 0-.205-.068 6 6 0 0 0-.738-.117l-.174-.018a9 9 0 0 0-.404-.032c-.04-.003-.21-.01-.378-.015a2 2 0 0 1-.31-.02q-.007-.01-.007.003.001.018-.008 0c-.009-.018-.01-.011-.01 0 0 .012 0 .012-.008 0-.007-.011-.146-.013-1.168-.013a25 25 0 0 0-1.703.04l-.221.013a14 14 0 0 0-.426.034l-.074.008-.1.01a5 5 0 0 0-.682.12c-.146.045-.16.05-.16.075l-.005 1.11c-.003.598-.003 1.113-.003 1.113s1.153-.007 3.403-.007h3.394z"/></g></svg>