<svg xmlns="http://www.w3.org/2000/svg" width="34.735" height="33.872" viewBox="0 0 91.903 89.619"><path fill="#fff" fill-rule="evenodd" d="M45.952 89.62C20.586 89.62 0 69.543 0 44.81 0 20.015 20.586 0 45.952 0c25.365 0 45.951 20.015 45.951 44.81 0 24.734-20.586 44.81-45.951 44.81"/><path fill="#444890" d="m40.418 86.106-.656-2.448a2495 2495 0 0 1-1.88-7.032l-.128-.472-.936-.232a27 27 0 0 1-3.76-1.232l-1.152-.464-1.824 1.352-1.976 1.512a3.4 3.4 0 0 1-.472.368 88 88 0 0 0-2.016 1.464l-1.792 1.296c-.056.024-.312-.12-.576-.312l-3.688-2.888a12 12 0 0 0-1.24-.984 15.4 15.4 0 0 1-1.624-1.304c0-.032.208-.56.464-1.168l.808-1.944.4-.872a47 47 0 0 0 1.232-2.872 18 18 0 0 1 .4-.976l.464-1.112c.056-.152 0-.264-.496-.888l-1.104-1.504a4.3 4.3 0 0 0-.528-.728 11 11 0 0 1-.552-.832l-.424-.688-.608.024-8.672.336-.592.032-.36-1.136-2.24-7.44a89 89 0 0 1 4.4-2.856c.312-.16.8-.48.8-.528s.68-.48 1.512-1.008l1.512-.968v-2.184l.048-2.688.056-.512-1.408-.872-1.416-.92a7.3 7.3 0 0 0-1.112-.712c-.088 0-4.44-2.768-4.464-2.84s.016-.256.864-3.072l1.12-3.736.552-1.696a232 232 0 0 1 9.64.224l.696.04.272-.448a4 4 0 0 1 .408-.568 9 9 0 0 0 .608-.848l1.096-1.504.624-.776-.552-1.288-1.776-4.064a6.4 6.4 0 0 1-.392-.832l-.88-2.064a22 22 0 0 1-.536-1.312 16 16 0 0 1 1.792-1.456 1.8 1.8 0 0 0 .384-.304 189 189 0 0 1 4.544-3.632c.152-.112.312-.184.36-.168a60 60 0 0 1 1.976 1.416l1.928 1.384c.064 0 .936.648 1.024.752a94 94 0 0 0 3.656 2.68l.32.208.88-.344a28 28 0 0 1 3.352-1.08l.8-.192.128-.488 2.807-10.528h9.04l.048.24c.104.512.8 3.064.848 3.096s.168.48.312 1.016l.768 2.864.736 2.792.28.96c.024.032.36.144.736.24a42 42 0 0 1 3.368 1.08c.352.136.68.232.72.2s.544-.424 1.104-.888l1.344-1.072a9 9 0 0 0 .64-.536 111 111 0 0 1 3.664-3.04c.064 0 2.096-1.688 2.2-1.832s.2-.16.376.016a23 23 0 0 0 1.944 1.408l4.6 3.28c.032.056.096.096.144.096.128.008.416.256.416.368a6 6 0 0 1-.432 1.152c-.048.04-.264.632-1.904 5.184l-1.808 5.016.696.912.696.952c0 .032.896 1.416 1.048 1.616a435 435 0 0 0 5.664-.232l6.584-.288.56 1.736 1.296 4.072.752 2.568c.016.232-.016.256-2.272 1.704l-3.072 1.968-.904.616a79 79 0 0 1-3.272 2.128l-.584.368v3.584l.536.368.584.368a82 82 0 0 1 3.48 2.28c.096.112.656.488 1.064.72a117 117 0 0 1 4.576 3.024c-.04 0-.128.2-.2.456l-.656 2.088-1.2 3.736a44 44 0 0 1-.72 2.16c-.04.048-9.128-.36-11.104-.496l-.624-.04-.168.272a62 62 0 0 1-1.752 2.68l-.28.376 1.464 3.672 1.512 3.672c.024 0 .112.168.184.384l.664 1.704.536 1.352a16 16 0 0 1-1.424 1.056 5 5 0 0 0-.824.648 110 110 0 0 1-3.728 2.832c-.024 0-.296.2-.616.44-.384.288-.608.424-.672.384s-.808-.608-1.672-1.272l-1.616-1.216a14 14 0 0 1-1.408-1.096 107 107 0 0 0-3.592-2.76l-.464-.336-.96.416c-1.544.664-3.688 1.384-5.008 1.68-.392.088-.424.112-.48.352l-1.536 5.776-.272.904c-.064.04-.88 3.032-.88 3.216 0 .112-.304.12-4.528.12h-4.528zm7.688-21.432c1.616-.264 4.304-1.024 4.656-1.312a23 23 0 0 1 1.36-.704c1.36-.672 2.104-1.128 3.056-1.88l.592-.472h-.976c-1.568 0-2.512-.224-3.32-.784l-.392-.272-.536.28a17.4 17.4 0 0 1-5.424 1.656 26 26 0 0 1-4.28 0 16.8 16.8 0 0 1-5.32-1.648l-1.368-.744a3.6 3.6 0 0 0-.416-.328l-.272-.184-.264.2-.352.28a11.2 11.2 0 0 1-2.68 1.24l-.24.048.416.328c1.56 1.232 3.2 2.216 4.664 2.8a1.6 1.6 0 0 1 .368.184 13 13 0 0 0 1.992.736 23 23 0 0 0 3.952.728c.136.016 1.072.016 2.064.008 1.4-.016 2.016-.056 2.72-.168zm-18.12-7.408a12.5 12.5 0 0 0 2.624-.848 7.8 7.8 0 0 0 1.952-1.472c.416-.432.616-.72.912-1.32.464-.936.592-1.408.64-2.424.056-1.064-.088-1.824-.488-2.624-.736-1.464-2.096-2.448-4.384-3.184a11 11 0 0 1-1.12-.4 4.5 4.5 0 0 0-.728-.248c-1.384-.4-2.216-.928-2.4-1.536-.32-1.08.896-1.904 2.376-1.592.904.192 1.696.688 3.352 2.136.648.568.864.688 1.352.768.64.104 1.192-.208 1.528-.856.232-.456.256-1.224.064-1.896a6.7 6.7 0 0 0-1.624-2.664c-.552-.496-1.016-.64-1.536-.464-.872.288-.824.288-2.184-.056-1.576-.4-2.408-.512-3.384-.448a8.7 8.7 0 0 0-3.488.888c-1.776.864-3.064 2.36-3.528 4.088a6.3 6.3 0 0 0-.009 2.464c.168.656.624 1.56 1.104 2.168.432.552 1.24 1.28 1.776 1.584a2 2 0 0 1 .4.28c.152.192 1.648.832 3.008 1.288 1.616.544 2.056.744 2.4 1.096.216.224.248.304.272.72.032.464.024.472-.248.752s-.968.592-1.368.592c-.136 0-.256.032-.256.072s-.176.072-.4.072-.4-.032-.4-.072-.104-.072-.24-.072c-.384 0-1.28-.28-1.864-.584-.744-.384-1.336-.968-1.968-1.912-.664-1.008-1.008-1.384-1.416-1.536a.93.93 0 0 0-1.104.296c-.28.32-.336.608-.272 1.552.088 1.488.696 3.264 1.344 3.944.456.48 1.28.824 2.8 1.168a27 27 0 0 0 2.68.432 21.6 21.6 0 0 0 3.816-.168zm15.544.144a9.2 9.2 0 0 0 3.52-1.128c.552-.336 1.416-1.12 1.712-1.568.408-.592.784-1.664.96-2.744a75 75 0 0 0 .152-4.024l.32-5.84c.128-.248.528-.56 1.144-.888s.664-.424.696-.992c.016-.384-.008-.528-.12-.712-.328-.528-.96-.808-2.336-1.032-3.44-.576-7.376-.08-8.192 1.04a1.34 1.34 0 0 0-.136 1.4c.168.352.312.44 1.056.664.408.12.552.208.704.4.28.376.336.576.416 1.496.096 1.208.2 7.784.128 8.344-.088.672-.312 1.224-.664 1.632a1.6 1.6 0 0 1-1.272.616c-.816 0-1.216-.384-1.144-1.088.144-1.352.136-1.64-.056-2.056-.208-.464-.744-1.024-1.104-1.176-.136-.056-.248-.136-.248-.168s-.192-.12-.416-.2c-.728-.24-2.048-.16-2.36.144a3 3 0 0 1-.352.248c-.376.232-.76.68-.992 1.16a2.2 2.2 0 0 1-.272.464c-.096.072-.096 1.936 0 2 .04.024.136.248.216.48.304.92 1 1.736 1.936 2.272 1.744 1 4.4 1.496 6.696 1.248zm26.112-.32c.544-.568 1.632-3.016 1.632-3.672 0-.072.04-.144.088-.16a3.36 3.36 0 0 0 0-1.576 5 5 0 0 1-.256-.36 1.16 1.16 0 0 0-1.016-.584c-.632 0-.888.256-1.544 1.512-.448.872-1.12 1.512-1.848 1.76a.8.8 0 0 0-.288.144c-.152.224-2.456.408-3.624.288-1.336-.136-1.488-.264-1.648-1.448-.152-1.08-.16-3.152-.016-3.528s.416-.568.92-.608a1.6 1.6 0 0 1 1.864 1.512c.096.6.256 1.072.4 1.152a1.6 1.6 0 0 0 1.144-.064c.632-.384 1.064-2.04 1.064-4.096 0-1.928-.304-3.232-.864-3.728a.95.95 0 0 0-1.368 0c-.296.256-.376.472-.512 1.36-.176 1.168-.416 1.36-1.648 1.296-.768-.04-1.064-.144-1.2-.416a21 21 0 0 1-.016-3.808c.2-.744.728-.944 2.496-.928 1.536.008 2.384.144 3.064.488.528.272.744.472 1.304 1.248.448.616.624.72 1.208.72a1.04 1.04 0 0 0 1.096-.72c.24-.52.28-1.168.152-2.072-.192-1.28-.88-2.448-1.608-2.728-.32-.12-.352-.12-.992.032a33 33 0 0 1-1.064.24 134 134 0 0 1-6.488.136l-6.4.144a1.9 1.9 0 0 0-.592.352 1.1 1.1 0 0 0-.352 1.208c.08.304.136.384.384.52a4.3 4.3 0 0 0 .672.288c.448.144.664.384.832.928.36 1.152.448 2.328.448 5.984 0 3.352-.04 4.072-.336 5.536-.208 1.04-.336 1.232-1.072 1.608-.608.304-.784.456-.84.736a1.1 1.1 0 0 0 .28.912c.472.4-.008.376 7.48.424l7.472.152a8 8 0 0 0 .936.112c.328.008.376-.016.656-.312zM42.426 45.898l-.048-1.216-.008-.448-.616-.392a3.82 3.82 0 0 1-1.736-2.536 4.68 4.68 0 0 1 .84-3.744 6.3 6.3 0 0 1 1.92-1.424 5 5 0 0 0 .544-.288c.056-.064.696-.264 1.376-.424 1.056-.248 2.408-.376 3.912-.376a18.2 18.2 0 0 1 4.84.552c.48.128.672.152.784.096s.096-.12-.4-.576c-.968-.888-2.584-1.944-3.48-2.272a14.5 14.5 0 0 0-3.936-1.04 13.36 13.36 0 0 0-8.216 1.808c-.92.56-1.968 1.368-2.456 1.888a4 4 0 0 0-.48.568c0 .032.104.12.232.192.432.256 1.544 1.352 1.952 1.928 1.12 1.568 1.736 3.664 1.528 5.224-.104.776-.44 1.712-.808 2.256-.184.28-.272.472-.232.512s.296.04.664-.016l1.048-.08a8.3 8.3 0 0 1 2.248.4l.504.176c.04.008.048-.32.016-.768zM32.338 34.274c.68-.76 1.744-1.784 2.36-2.272l.792-.64a17.3 17.3 0 0 1 4.664-2.304 20 20 0 0 1 3.328-.632 16.7 16.7 0 0 1 9.568 1.968 7.7 7.7 0 0 1 1.44.952 3 3 0 0 0 .44.328c.752.456 2.136 1.792 3.048 2.944l.512.648 2.088.04 2.112.016c.04-.04-1.016-1.704-1.464-2.304a24 24 0 0 0-.792-1.008 13 13 0 0 1-.488-.608 27 27 0 0 0-2.408-2.232 17 17 0 0 0-3.032-1.96 11 11 0 0 1-1.016-.56c-.128-.192-2.064-.896-3.408-1.232-1.904-.48-2.872-.6-5-.6-2.368-.008-3.888.2-5.856.8-.872.264-2.568.912-2.728 1.04-.048.04-.384.224-.744.416-1.112.576-1.912 1.096-3.416 2.232-1.384 1.032-3.16 3.072-4.328 4.936l-.408.656.488.056c.92.104 1.984.288 2.616.448l.632.16.328-.44a15 15 0 0 1 .688-.84z"/></svg>