<svg xmlns="http://www.w3.org/2000/svg" width="42.219" height="41.17" viewBox="0 0 11.17 10.892"><path fill="#fff" fill-rule="evenodd" d="M5.585 10.893C2.502 10.893 0 8.453 0 5.446 0 2.433 2.502 0 5.585 0s5.585 2.433 5.585 5.446c0 3.007-2.502 5.447-5.585 5.447"/><path fill="#e20613" d="M1.101 8.222a3 3 0 0 1-.09-.176l.265-.145.264-.142-.273.007-.34.007H.858l-.112-.207a3 3 0 0 1-.108-.21c.002-.003.183.002.402.01l.398.016.015-.023.223-.366c.115-.188.211-.342.214-.342s.06.1.125.223l.12.223-.206.274-.215.288c-.006.007.016 0 .05-.02l.46-.248.054-.03.092.17c.05.094.092.174.092.18s-1.217.666-1.254.68c-.01.003-.038-.04-.107-.169m8.253-.21c-.534-.257-.646-.314-.642-.327.003-.009.051-.112.108-.23l.104-.214.437.003.437.003-.048-.02a17 17 0 0 1-.662-.32 4 4 0 0 1 .082-.176l.083-.17.037.02.642.31c.333.16.61.292.613.296a2 2 0 0 1-.104.236l-.11.23h-.857l.068.027c.062.025.618.287.627.295a5 5 0 0 1-.162.341 16 16 0 0 1-.653-.304M1.108 6.475a68 68 0 0 1-.725-.157 4 4 0 0 1-.042-.455l.69-.32c.375-.174.683-.315.684-.314.007.006.047.426.041.431a2 2 0 0 1-.11.05 1 1 0 0 0-.105.05c0 .003.007.09.018.196.011.105.021.201.021.214 0 .023.004.025.12.048.066.013.121.025.122.026.003.003.04.347.04.372q0 .016-.015.016c-.01 0-.34-.07-.739-.156zm.15-.368-.014-.115a1 1 0 0 0-.013-.095 1 1 0 0 0-.125.05 3 3 0 0 1-.2.081l-.082.03.063.005c.034.004.13.02.212.036l.157.032q.006-.002.002-.024m8.704.247a22 22 0 0 1-.625-.034 5 5 0 0 1 .017-.394c.002-.002.127.003.28.011.15.007.277.011.28.008s.01-.1.015-.214l.01-.208h-.047a11 11 0 0 1-.518-.028 4 4 0 0 1 .021-.39c.008-.008 1.426.057 1.433.065.005.005-.01.391-.016.394l-.26-.01a7 7 0 0 0-.26-.01 10 10 0 0 0-.02.42c0 .002.118.01.26.015l.26.012-.002.054-.008.198-.006.143h-.097a50 50 0 0 1-.718-.032zm-8.82-1.267a1 1 0 0 1-.43-.18c-.26-.212-.332-.576-.194-.97.035-.099.117-.267.133-.273.01-.003.322.124.337.138a1 1 0 0 1-.039.072c-.16.272-.175.52-.038.653a.48.48 0 0 0 .34.125c.07 0 .087-.003.134-.026a.3.3 0 0 0 .144-.148.5.5 0 0 0 .042-.166 6 6 0 0 0-.213-.055l-.21-.054a10 10 0 0 1 .098-.383c.002-.002.158.036.346.084l.343.087.007.033a1.7 1.7 0 0 1-.009.37c-.069.38-.242.611-.51.68a1 1 0 0 1-.282.014zm8.27-.082a6 6 0 0 1-.12-.406 1 1 0 0 1 .1-.074l.094-.067-.01-.037-.066-.208-.053-.17h-.12a.5.5 0 0 1-.126-.01 5 5 0 0 1-.063-.19l-.058-.185.365.006.76.012.396.006.066.213c.037.117.065.216.063.22s-.272.205-.602.446l-.61.447q-.013.009-.017-.003zm.482-.832a4 4 0 0 1 .22-.143c0-.003-.422.005-.425.008-.005.005.065.223.072.223.004 0 .063-.04.133-.087zm-8.409-.758c-.324-.22-.592-.403-.593-.407-.003-.01.076-.136.21-.338.166-.248.291-.356.44-.382.074-.013.142 0 .24.047.17.084.275.251.26.414l-.006.056.048.005c.026.003.17.012.32.02s.285.018.302.021l.03.006-.129.187-.134.198c-.006.01-.058.006-.282-.02a5 5 0 0 0-.298-.03c-.019.001.017.03.192.146.12.08.214.15.212.156-.003.014-.21.321-.216.321-.002 0-.27-.18-.595-.4zm.166-.406c.056-.072.073-.163.04-.218a.2.2 0 0 0-.127-.082c-.052-.007-.107.028-.15.094-.02.028-.03.054-.027.058.016.017.235.164.243.164q.01-.001.02-.016zm7.33.447a.6.6 0 0 1-.298-.188c-.072-.076-.38-.498-.37-.507a82 82 0 0 1 1.148-.845c.01 0 .173.203.313.39.111.15.162.246.183.35a.31.31 0 0 1-.075.287.35.35 0 0 1-.362.102l-.046-.016v.083c0 .07-.004.09-.024.134a.42.42 0 0 1-.47.21zm.081-.409c.06-.03.08-.11.043-.179-.03-.058-.084-.126-.096-.12a2 2 0 0 0-.107.073l-.095.07.015.027a.5.5 0 0 0 .116.126c.033.02.087.022.123.003zm.463-.367c.057-.056.05-.104-.035-.212q-.04-.051-.05-.045l-.089.065-.085.065c-.014.013.06.11.103.137a.14.14 0 0 0 .08.026c.035 0 .046-.005.076-.036m-7.04-.557a29 29 0 0 1-.236-.718c0-.016.347-.282.361-.277.02.007 1.25.855 1.248.86-.002.003-.08.063-.173.131-.107.08-.172.123-.18.118l-.09-.064a1 1 0 0 0-.093-.063c-.01-.004-.3.202-.349.246-.01.01-.004.033.03.126l.04.115-.155.114a3 3 0 0 1-.16.114c-.004 0-.113-.316-.243-.702m.457-.136.096-.07a.4.4 0 0 0-.1-.084 4 4 0 0 1-.177-.133l-.07-.056.03.065c.017.037.052.128.08.205.026.076.05.138.05.138s.042-.029.09-.065zm5.171.307a.4.4 0 1 1 .306-.74c.16.077.254.252.225.423a.403.403 0 0 1-.53.317zm-.814-.25-.224-.085-.036-.275c-.034-.277-.044-.33-.054-.304l-.088.24c-.045.125-.085.23-.09.235a4 4 0 0 1-.37-.126c-.003 0 .103-.296.234-.655.13-.36.242-.664.247-.678l.01-.024.241.082c.42.142.544.217.616.374.078.171-.005.43-.176.542a.5.5 0 0 1-.185.064c-.022 0-.026.003-.023.016.015.052.028.116.074.366l.054.293q.002.016-.002.015zm-.005-.918A.17.17 0 0 0 7.38.943c-.014-.05-.085-.105-.16-.122L7.191.815 7.14.958a1 1 0 0 0-.048.146l.053.021c.062.022.102.023.15.001zm-3.359.791L3.585.57c-.005-.012.036-.025.23-.075.13-.033.244-.06.253-.06.014 0 .358.394.522.597a.3.3 0 0 0 .041.045 10 10 0 0 1-.194-.74 5 5 0 0 1 .366-.092c.008.008.36 1.373.356 1.383a2 2 0 0 1-.243.072c-.193.05-.242.06-.25.05a25 25 0 0 1-.475-.56c-.085-.112-.087-.113-.065-.05.031.09.19.707.183.713a3 3 0 0 1-.186.052l-.179.046zm1.88-.25a9 9 0 0 1-.4-.024c-.007-.007.06-1.425.066-1.43.005-.006.836.03.841.035.003.002-.015.335-.018.337 0 0-.1-.003-.22-.01l-.22-.01-.007.098-.006.096.057.005c.032.003.126.008.21.012l.152.006v.065c0 .036-.003.11-.006.164l-.006.098-.164-.006a4 4 0 0 1-.21-.01l-.047-.007-.005.112a1 1 0 0 0 0 .116c.001.002.1.008.218.014l.216.01.002.031c0 .018 0 .096-.005.173l-.007.14-.023.002-.42-.018z"/><path fill="#009739" d="m4.854 10.636-.394-.06c-.1-.015-.102-.015-.102-.039 0-.033.043-.3.05-.307a6 6 0 0 1 .414.057c.023.005.023.004.037-.094l.014-.1-.208-.03c-.166-.025-.207-.034-.207-.045 0-.024.045-.302.05-.306.001-.002.095.01.21.026.111.017.204.03.204.026l.017-.112.016-.107-.019-.004-.214-.033a2 2 0 0 1-.2-.034c-.007-.006.04-.324.047-.333.006-.006.818.113.827.122.003.003-.04.318-.098.7l-.104.707c0 .016-.017.015-.34-.034m.867.044a77 77 0 0 1-.074-1.436 5 5 0 0 1 .391-.02c.005.004.083 1.424.078 1.431a1 1 0 0 1-.147.012 5 5 0 0 0-.248.013m1.014-.064a81 81 0 0 1-.23-1.44c.002-.01.348-.165.424-.19.015-.004.045.033.186.23a5 5 0 0 1 .333.502 3 3 0 0 1-.05-.189 23 23 0 0 1-.122-.677c0-.008.07-.043.197-.096l.208-.085c.01-.002.884 1.17.885 1.184 0 .005-.37.163-.383.163a12 12 0 0 1-.504-.713c.028.1.058.258.096.513l.051.328c.005.025 0 .028-.334.167l-.034.014-.198-.26a6 6 0 0 1-.317-.446c-.006-.009.003.041.02.112.022.098.131.654.143.73q0 .012-.18.088l-.184.076q-.004 0-.007-.012zm-3.277-.346-.222-.12.003-.073c.006-.157.03-.658.034-.722l.005-.069-.054.11c-.054.11-.297.557-.309.57a3 3 0 0 1-.33-.174c-.007-.006.66-1.244.678-1.262.002-.002.104.05.227.116l.223.12-.004.051-.014.292a7 7 0 0 1-.033.514c-.003.016.008 0 .028-.04.05-.1.342-.637.348-.637.003 0 .078.04.168.088.121.065.162.092.16.102a89 89 0 0 1-.679 1.247 2 2 0 0 1-.228-.113zM2.293 8.964a.39.39 0 0 1-.277-.404.38.38 0 0 1 .15-.292.42.42 0 0 1 .44-.04.46.46 0 0 1 .16.16.4.4 0 0 1 .045.227.39.39 0 0 1-.4.366.5.5 0 0 1-.118-.017m6.316-.046a.4.4 0 0 1-.16-.1.37.37 0 0 1-.108-.304.3.3 0 0 1 .037-.152.402.402 0 1 1 .704.386.44.44 0 0 1-.178.155.3.3 0 0 1-.152.031.34.34 0 0 1-.143-.016m-3.237-.232-.108-.009a.4.4 0 0 1-.085-.01c.002-.002.05-.015.103-.03q.458-.121.862-.398c.144-.098.243-.18.433-.357.24-.224.408-.355.605-.47.062-.038.071-.04.168-.049a3.5 3.5 0 0 1 .507.01c.105.014.285.047.294.055.01.01-.122.163-.242.284a3.3 3.3 0 0 1-1.927.953 5 5 0 0 1-.61.022zm-1.51-.466a3.3 3.3 0 0 1-.658-.525 3.2 3.2 0 0 1-.682-1.02c0-.008.105-.01.335-.01h.334l.048.023a.2.2 0 0 1 .07.056c.02.031.022.04.022.15v.115l1.83.002 1.828.002-.072.046a4 4 0 0 0-.203.14.65.65 0 0 1-.26.133 6.4 6.4 0 0 1-1.89.31c-.488.01-.98-.034-1.319-.115a.4.4 0 0 0-.076-.014c-.005.005.23.093.371.14.37.12.783.2 1.164.23.248.018.688.002.886-.034q.036-.008-.01.013a5.3 5.3 0 0 1-1.216.37 6 6 0 0 1-.392.05 1 1 0 0 1-.11-.063zm4.285-.96a3 3 0 0 0-.358-.082l-.045-.007.045-.013c.104-.028.27-.05.425-.055.132-.004.161-.003.161.007 0 .02-.11.182-.12.18a1 1 0 0 1-.108-.03M2.41 6.367a3.2 3.2 0 0 1-.129-.648 4 4 0 0 1 .01-.727c.03-.23.094-.497.17-.709a3.32 3.32 0 0 1 1.417-1.71 3.31 3.31 0 0 1 2.703-.3 3.3 3.3 0 0 1 1.953 1.703 3.25 3.25 0 0 1 .31 1.773c-.006.031-.009.034-.038.034-.026 0-.03.003-.03.022 0 .023.012.02-.207.038l-.075.006V4.785l-.06-.006a.6.6 0 0 0-.119 0l-.058.005v-.69h-.07l-.007.088c-.012.192-.018.221-.053.277a.77.77 0 0 1-.764.363l-.1-.01c-.013 0-.015.06-.015.585v.587h-.022q-.024-.001-.023.02c0 .017-.003.018-.043.012a1 1 0 0 0-.112-.01l-.068-.003-.002-.555c-.002-.547-.002-.554.016-.564.017-.009.018-.019.018-.168s0-.158-.018-.164a.03.03 0 0 1-.018-.027q0-.024-.018-.023c-.018 0-.018 0 .005-.045a.2.2 0 0 0 .023-.068q0-.024.018-.023c.018 0 .018-.006.018-.344v-.344L7 3.668c-.02-.01-.022-.016-.022-.055v-.044l-.069-.026-.068-.026v-.56h-.063v.264c0 .207-.002.264-.012.264a1 1 0 0 1-.084-.029c-.07-.027-.076-.028-.173-.022-.106.006-.25.027-.306.043-.028.008-.034.015-.034.034s.01.03.054.06c.03.02.053.037.05.04a.3.3 0 0 1-.067.02l-.06.013-.002.327c-.002.302 0 .33.015.372q.017.047.036.05c.015.001.02.008.02.032 0 .028-.004.031-.03.034l-.03.003-.006.295c-.008.396-.03.721-.063.88l-.01.048-.056-.006a.3.3 0 0 1-.06-.01 1 1 0 0 0-.072.024l-.09.031-.02.006V3.91l-.143-.154a2 2 0 0 0-.149-.152l-.225.116-.22.113v.31c0 .293.002.325.033.605l.032.297-.032.328a5 5 0 0 0-.033.528v.2h-.036c-.034 0-.035 0-.038-.034l-.003-.034-.05-.003c-.027-.002-.052-.007-.056-.012-.003-.005-.027-.012-.054-.015l-.05-.006-.016-.173-.018-.173.026-.319.025-.319-.025-.312-.026-.312.016-.31c.008-.17.015-.42.015-.555v-.245l-.34-.152-.338-.152-.117-.018a1 1 0 0 0-.125-.013 68 68 0 0 0-.008 1.435V5.81h-.078c-.075 0-.08.001-.148.041a1 1 0 0 1-.077.041c-.003 0-.006-.023-.006-.05 0-.05 0-.05-.032-.064-.026-.01-.032-.018-.032-.04v-.025l-.097-.008-.098-.008-.002-.157-.002-.157h-.063v.31h-.025L2.99 5.68a.6.6 0 0 0-.177 0l-.03.01-.003.082-.003.083-.04.018-.04.018v.583h-.252l-.033-.107z"/></svg>