<svg xmlns="http://www.w3.org/2000/svg" width="42.646" height="41.586" viewBox="0 0 11.283 11.003"><path fill="#fff" fill-rule="evenodd" d="M5.642 11.003C2.527 11.003 0 8.538 0 5.5 0 2.457 2.527 0 5.642 0c3.114 0 5.641 2.457 5.641 5.501 0 3.037-2.527 5.502-5.641 5.502"/><path d="m5.03 9.947-.104-.032c-.144-.045-.21-.087-.247-.158a.17.17 0 0 1 .005-.146.54.54 0 0 1 .163-.153 1 1 0 0 1 .068-.046.4.4 0 0 0 .06-.04q.006-.01.023-.01.015 0 .02-.007a.2.2 0 0 1 .068-.048.2.2 0 0 0 .039-.027.2.2 0 0 1 .038-.027.1.1 0 0 0 .034-.03l.027-.029V7.648c0-.96-.003-1.55-.008-1.559-.007-.01-.048-.013-.276-.013-.196 0-.27.003-.278.01-.012.013-.002.04.09.23.083.174.099.21.127.285a.9.9 0 0 1 .069.35.47.47 0 0 1-.095.233c0 .006-.01.016-.02.02a.4.4 0 0 1-.24.081.36.36 0 0 1-.181-.058.2.2 0 0 1-.04-.034.4.4 0 0 0-.027-.05c-.028-.045-.028-.049-.025-.136.003-.083.005-.093.03-.13a.4.4 0 0 1 .108-.112c.01-.005.02-.014.02-.02a.8.8 0 0 0-.16-.162l-.048-.036a1 1 0 0 0-.132-.095c-.004 0-.017-.01-.03-.024a.2.2 0 0 0-.04-.032 1 1 0 0 1-.067-.05 1 1 0 0 0-.08-.059.1.1 0 0 1-.038-.036c-.005-.009-.015-.017-.022-.017s-.022-.012-.032-.027-.023-.027-.028-.027a.3.3 0 0 1-.08-.08c0-.004-.01-.016-.023-.027a.3.3 0 0 1-.051-.08c-.026-.055-.028-.068-.024-.12.01-.14.108-.237.283-.278.046-.01.317-.013 1.76-.013 1.105 0 1.722.003 1.754.01a.6.6 0 0 1 .19.072c0 .004.01.014.026.022.015.008.027.02.027.025s.01.02.02.03a.2.2 0 0 1 .032.083c.016.077.004.16-.03.2a.1.1 0 0 0-.022.034 2 2 0 0 1-.276.258c-.014.015-.031.027-.037.027q-.01 0-.014.007a1 1 0 0 1-.127.098.3.3 0 0 0-.043.034c-.013.013-.03.024-.035.024q-.01 0-.013.007a1 1 0 0 1-.074.06 1 1 0 0 0-.124.107l-.054.054.07.07c.07.068.072.072.088.14a.27.27 0 0 1-.007.173.3.3 0 0 1-.152.15.4.4 0 0 1-.287-.02.4.4 0 0 1-.125-.124c-.064-.104-.065-.302-.003-.463a1 1 0 0 0 .026-.078c0-.015.117-.267.186-.402a.3.3 0 0 0 .024-.068c.003-.024 0-.028-.024-.033a4 4 0 0 0-.266-.007c-.226 0-.238 0-.256.017s-.018.03-.018 1.56v1.54l.034.035c.03.031.183.137.197.137.008 0 .063.04.067.048a.57.57 0 0 1 .229.182c.047.07.05.127.009.19a.4.4 0 0 1-.194.121l-.101.03a.6.6 0 0 1-.21.018c-.08 0-.166-.004-.194-.009a2.7 2.7 0 0 0-.52-.005c-.107.013-.38.02-.41.01zM1.454 5.541V2.228h1.405v.517h-.752V8.33h.752v.526H1.454zm6.97 3.05V8.33h.744V2.745h-.743v-.518H9.83v6.627H8.425zM4.41 5.413a.3.3 0 0 1-.09-.076 1 1 0 0 1-.11-.203.4.4 0 0 0-.027-.066.3.3 0 0 1-.027-.067 7 7 0 0 1-.248-.855 5 5 0 0 1-.078-.335 2 2 0 0 0-.03-.14 1 1 0 0 1-.024-.114 18 18 0 0 1-.232-1.419 1.4 1.4 0 0 0-.034-.188.1.1 0 0 0-.04-.02 2 2 0 0 1-.32-.173.9.9 0 0 1-.193-.18c-.07-.093-.094-.24-.053-.33.036-.08.094-.124.236-.179.026-.01.187-.013.86-.015.503-.002.859 0 .908.006.114.012.239.075.276.137a.3.3 0 0 1 .056.153c.01.102-.002.154-.045.22-.071.107-.172.151-.317.138a.22.22 0 0 1-.125-.047.3.3 0 0 1-.063-.048.1.1 0 0 0-.022-.03.2.2 0 0 1-.034-.063l-.012-.039-.096-.003-.097-.003-.006.03a1 1 0 0 0 .002.211c.006.03-.008.023.205.081.128.035.339.088.44.111l.173.04c.063.014.125.026.139.026.013 0 .072.01.13.02.088.017.139.02.292.02.225.001.289-.008.694-.102l.104-.028.163-.046.367-.107.176-.053.076-.024-.004-.083a.5.5 0 0 0-.01-.093c-.007-.009-.06-.01-.22-.01h-.213l-.01.025-.017.04a.1.1 0 0 0-.01.028.5.5 0 0 1-.105.112.36.36 0 0 1-.167.05.32.32 0 0 1-.277-.145.2.2 0 0 1-.044-.124.6.6 0 0 1 0-.11c.006-.044.04-.12.052-.12q.006-.002.007-.012c0-.02.074-.08.138-.113a.4.4 0 0 1 .124-.04 30 30 0 0 1 1.379 0c.164.013.318.071.382.143a.37.37 0 0 1 .079.245c-.008.108-.095.233-.222.32a.3.3 0 0 0-.047.037q-.004.007-.02.007a2 2 0 0 1-.242.118c-.04.015-.044.025-.056.127a5 5 0 0 1-.038.231 3 3 0 0 0-.026.163c0 .01-.013.077-.028.15l-.106.476a9 9 0 0 1-.09.353l-.028.11a10 10 0 0 1-.145.484 1 1 0 0 0-.03.104 1 1 0 0 1-.03.093.3.3 0 0 0-.024.072.1.1 0 0 1-.012.04 1 1 0 0 0-.028.072 1 1 0 0 1-.061.158 1.6 1.6 0 0 1-.09.245 6 6 0 0 1-.123.272 1 1 0 0 1-.107.191c-.008.008-.014.02-.014.025s-.008.018-.017.025l-.03.032a.3.3 0 0 1-.044.04c-.03.022-.038.023-.187.025-.177.003-.186.001-.252-.067a1 1 0 0 1-.113-.17l-.028-.05a.2.2 0 0 1-.027-.06.2.2 0 0 0-.027-.058.2.2 0 0 1-.027-.054.4.4 0 0 0-.027-.068 1 1 0 0 1-.028-.064 1 1 0 0 0-.027-.066.4.4 0 0 1-.027-.07.3.3 0 0 0-.022-.056 1 1 0 0 1-.031-.08 1 1 0 0 0-.033-.085.3.3 0 0 1-.023-.063.1.1 0 0 0-.012-.04 1 1 0 0 1-.046-.122 1 1 0 0 0-.042-.107c-.005-.005-.008-.018-.008-.029a.4.4 0 0 0-.027-.085.4.4 0 0 1-.028-.082.4.4 0 0 0-.023-.073 1 1 0 0 1-.036-.108 1 1 0 0 0-.034-.113l-.023-.063-.015.036-.038.104a.5.5 0 0 1-.031.076.05.05 0 0 0-.008.025.3.3 0 0 1-.027.074.4.4 0 0 0-.027.068.4.4 0 0 1-.028.066.4.4 0 0 0-.027.067.3.3 0 0 1-.027.064.3.3 0 0 0-.027.065c0 .01-.025.067-.083.188a.3.3 0 0 0-.026.066.2.2 0 0 1-.021.045.3.3 0 0 0-.03.057 8 8 0 0 1-.32.618.4.4 0 0 1-.046.066.4.4 0 0 1-.14.135c-.024.012-.06.015-.17.014-.076 0-.145-.003-.152-.006zm.472-1.369a4 4 0 0 0 .244-.498.3.3 0 0 1 .024-.064 1 1 0 0 0 .035-.093l.03-.09a2 2 0 0 0 .074-.252l.03-.138a3 3 0 0 0 .06-.432V2.43l-.065-.01a12 12 0 0 1-.76-.148l-.077-.022.003.055a13 13 0 0 0 .157 1.037c0 .01.012.065.027.12s.027.107.027.116c0 .018.045.174.079.274l.03.095a1 1 0 0 0 .059.131.2.2 0 0 0 .024-.034zm1.982-.095a2 2 0 0 0 .12-.267.4.4 0 0 0 .028-.07.3.3 0 0 1 .023-.066 1 1 0 0 0 .03-.084l.03-.1c.044-.126.08-.25.08-.267 0-.01.012-.059.027-.108a1 1 0 0 0 .027-.11c0-.01.012-.073.027-.14.046-.21.1-.565.087-.579a.3.3 0 0 0-.056.015l-.153.046-.183.056a1 1 0 0 1-.1.027 1 1 0 0 0-.102.026c-.118.037-.286.08-.338.087a.1.1 0 0 0-.047.013c-.008.013.012.24.032.35.01.06.023.138.027.174.004.037.018.105.03.153a3.6 3.6 0 0 0 .24.738c.005.012.027.051.047.086l.05.092c.009.016.019.028.023.026a1 1 0 0 0 .052-.098z"/></svg>