<svg xmlns="http://www.w3.org/2000/svg" stroke-linejoin="round" stroke-miterlimit="2" viewBox="0 0 38 38"><path fill="#772500" d="M36.72 18.72c0-9.875-8.125-18-18-18s-18 8.125-18 18 8.125 18 18 18 18-8.125 18-18"/><path fill="#fff" d="M23.33 17.18c-.05 2.194.084 4.388.4 6.56a5.9 5.9 0 0 0 1.17 2.9 2 2 0 0 0 1.45.6 2.085 2.085 0 0 0 2-1.22c.57-1 .83-3 .83-5.87a30.2 30.2 0 0 0-.77-7.93c-.4-1.37-1.14-2-2.25-2a2.25 2.25 0 0 0-2.06 1.31c-.51.86-.77 2.77-.77 5.65M19.88 19a17.9 17.9 0 0 1 .8-6.13A6.63 6.63 0 0 1 23 9.71a6.23 6.23 0 0 1 3.59-1 5.7 5.7 0 0 1 3.34.88 5.5 5.5 0 0 1 2 2.79 18.5 18.5 0 0 1 .69 5.85 17.9 17.9 0 0 1-.83 6.24 6.6 6.6 0 0 1-2.25 3.25A5.74 5.74 0 0 1 26 28.75a5.76 5.76 0 0 1-3.39-1 5.46 5.46 0 0 1-2.08-2.85 18.4 18.4 0 0 1-.65-5.9M6.57 28.47l-.14-.17v-.83l.14-.17a20 20 0 0 0 3-.37.66.66 0 0 0 .37-.34c.202-.899.286-1.82.25-2.74l.12-7.12-.09-4.54c-.09-.29-.11-.25-.25-.25a1 1 0 0 0-.4.11l-3.82 1.74-.2-.12A10.6 10.6 0 0 0 5.26 12l.12-.23a84 84 0 0 0 8.69-2.9l.37.23c-.14 1.28-.23 3.05-.28 5.27l-.09 8.07a28 28 0 0 0 .17 4 .8.8 0 0 0 .31.49c.935.235 1.896.35 2.86.34l.14.17v.83l-.14.17h-1.74c-1.74 0-2.94-.06-3.54-.06z"/></svg>