<svg xmlns="http://www.w3.org/2000/svg" stroke-linejoin="round" stroke-miterlimit="2" viewBox="0 0 38 38"><path fill="#772500" d="M36.72 18.72c0-9.875-8.125-18-18-18s-18 8.125-18 18 8.125 18 18 18 18-8.125 18-18"/><path fill="#fff" d="m26.23 21.14.23-9.49a35.5 35.5 0 0 0-2.62 4.16 55 55 0 0 0-2.74 5.33l2.42.06zm0 2.34-7 .06-.06-.37-.17-.83a72 72 0 0 1 3.33-6.58 61 61 0 0 1 4-6.19l3.56-.71.31.28-.2 4.08-.2 7.92h2.57l.08.2v2.17l-.06.11c-.83-.08-1.68-.11-2.57-.11v.66a8.7 8.7 0 0 0 .2 2.7 4.7 4.7 0 0 0 2.37.49l.14.08v1l-.14.09-4.56-.15h-1.85l-3.08.12-.12-.12v-1.05l.12-.12a23 23 0 0 0 2.65-.2.77.77 0 0 0 .51-.48 19.6 19.6 0 0 0 .17-3.05m-19.78 5-.14-.17v-.83l.14-.17a20 20 0 0 0 3-.37.63.63 0 0 0 .37-.34 10.4 10.4 0 0 0 .26-2.74l.11-7.12-.08-4.54c-.08-.29-.12-.25-.26-.25a1 1 0 0 0-.4.11l-3.83 1.73-.2-.12A10.6 10.6 0 0 0 5.14 12l.11-.23A84 84 0 0 0 14 8.86l.37.23c-.15 1.28-.23 3.05-.29 5.27L14 22.43a26 26 0 0 0 .17 4 .78.78 0 0 0 .31.49 11.2 11.2 0 0 0 2.85.34l.14.17v.83l-.14.17h-1.74c-1.74 0-2.93-.06-3.53-.06l-5.61.1zm-163.19-11.29c-.05 2.194.084 4.388.4 6.56a5.7 5.7 0 0 0 1.17 2.9 2 2 0 0 0 1.45.6 2.09 2.09 0 0 0 2-1.22c.57-1 .82-3 .82-5.87.1-2.666-.159-5.333-.77-7.93-.4-1.37-1.14-2-2.25-2a2.24 2.24 0 0 0-2.08 1.28c-.54.88-.79 2.79-.79 5.67zm-3.5 1.81a17.9 17.9 0 0 1 .8-6.13 6.6 6.6 0 0 1 2.31-3.17 6.2 6.2 0 0 1 3.59-1 5.65 5.65 0 0 1 3.33.88 5.5 5.5 0 0 1 2 2.79 18.9 18.9 0 0 1 .68 5.85 17.9 17.9 0 0 1-.83 6.24 6.6 6.6 0 0 1-2.25 3.25 5.73 5.73 0 0 1-3.47 1.05 5.77 5.77 0 0 1-3.4-1 5.5 5.5 0 0 1-2.08-2.85 18.7 18.7 0 0 1-.68-5.91m-13.31 9.46-.14-.17v-.83l.14-.17a20 20 0 0 0 3-.37.63.63 0 0 0 .37-.34 10.4 10.4 0 0 0 .26-2.74l.11-7.12-.08-4.54c-.08-.29-.12-.25-.26-.25a1 1 0 0 0-.4.11l-3.82 1.74-.2-.12a10.6 10.6 0 0 0-.28-1.68l.11-.23a84 84 0 0 0 8.7-2.9l.37.23c-.15 1.28-.23 3.05-.29 5.27l-.08 8.07a26 26 0 0 0 .17 4 .78.78 0 0 0 .31.49 11.2 11.2 0 0 0 2.85.34l.14.17v.83l-.14.17h-1.74c-1.74 0-2.93-.06-3.53-.06l-5.57.11z"/></svg>