<svg xmlns="http://www.w3.org/2000/svg" stroke-linejoin="round" stroke-miterlimit="2" viewBox="0 0 38 38"><path fill="#202020" d="M36.72 18.72c0-9.875-8.125-18-18-18s-18 8.125-18 18 8.125 18 18 18 18-8.125 18-18"/><path fill="#fff" d="M19.39 24.08V24l.91-.29a7.44 7.44 0 0 0 2.19 2.74 4.2 4.2 0 0 0 2.45.71A3.4 3.4 0 0 0 27.57 26a4.4 4.4 0 0 0 1-3 4.14 4.14 0 0 0-1-3 3.65 3.65 0 0 0-2.82-1.11 4.7 4.7 0 0 0-1.57.26 6.5 6.5 0 0 0-1.68.94l-.57-.31.25-5.73-.22-5 .2-.17 5.67.17 4.47-.17.17.31a8.7 8.7 0 0 0-.17 1.57l.06 1.4-.2.17-5.07-.09-3.37.06-.14 4.61a7.3 7.3 0 0 1 1.8-.82 7.5 7.5 0 0 1 1.88-.23 6.07 6.07 0 0 1 4.3 1.43 5.24 5.24 0 0 1 1.51 4 7.06 7.06 0 0 1-2.36 5.27 8.4 8.4 0 0 1-5.93 2.22 8.7 8.7 0 0 1-1.8-.17 7.3 7.3 0 0 1-1.62-.51 39 39 0 0 0-.97-4.02m-13 4.39-.14-.17v-.83l.14-.17a20 20 0 0 0 3-.37.66.66 0 0 0 .37-.34c.201-.899.282-1.82.24-2.74l.11-7.12-.08-4.54c-.08-.29-.12-.25-.26-.25a1 1 0 0 0-.4.11l-3.78 1.74-.2-.12A10.6 10.6 0 0 0 5.11 12l.11-.23a84 84 0 0 0 8.7-2.9l.37.23c-.15 1.28-.23 3.05-.29 5.27l-.08 8.07a26 26 0 0 0 .17 4 .78.78 0 0 0 .31.49 11.2 11.2 0 0 0 2.85.34l.14.17v.83l-.14.17h-1.74c-1.74 0-2.93-.06-3.53-.06z"/></svg>