<svg xmlns="http://www.w3.org/2000/svg" stroke-linejoin="round" stroke-miterlimit="2" viewBox="0 0 38 38"><path fill="#202020" d="M36.72 18.72c0-9.875-8.125-18-18-18s-18 8.125-18 18 8.125 18 18 18 18-8.125 18-18"/><path fill="#fff" d="m12.38 23.79 1-.27a6.84 6.84 0 0 0 2 3.12 4.27 4.27 0 0 0 2.76.93 3.6 3.6 0 0 0 2.73-1.11A4.2 4.2 0 0 0 22 23.52a3.92 3.92 0 0 0-1.08-2.91 4 4 0 0 0-3-1.08 8.5 8.5 0 0 0-1.74.24l-.18-.21c.18-.57.39-1.35.6-2.31a5.7 5.7 0 0 0 .9.06 3.86 3.86 0 0 0 2.64-.9 3 3 0 0 0 1-2.31 2.62 2.62 0 0 0-.81-2 3.05 3.05 0 0 0-2.19-.78 4.7 4.7 0 0 0-1.74.33 2.8 2.8 0 0 0-1.08.69 9.2 9.2 0 0 0-.84 2l-1.17-.06a31 31 0 0 0 1-4.68 9.2 9.2 0 0 1 2.31-1.14 9.8 9.8 0 0 1 2.55-.33 6 6 0 0 1 4 1.23 3.94 3.94 0 0 1 1.44 3.15 4.08 4.08 0 0 1-.8 2.49 6.8 6.8 0 0 1-2.64 2 7 7 0 0 1 2.64.75 3.8 3.8 0 0 1 1.38 1.59c.367.725.553 1.528.54 2.34a6.85 6.85 0 0 1-3.09 5.64 9.73 9.73 0 0 1-5.85 1.89A8 8 0 0 1 14.9 29a9 9 0 0 1-1.83-.66z"/></svg>