<svg xmlns="http://www.w3.org/2000/svg" stroke-linejoin="round" stroke-miterlimit="2" viewBox="0 0 38 38"><path fill="#772500" d="M36.72 18.72c0-9.875-8.125-18-18-18s-18 8.125-18 18 8.125 18 18 18 18-8.125 18-18"/><path fill="#fff" d="m19.36 21.27.24-10a39 39 0 0 0-2.76 4.38A60 60 0 0 0 14 21.27l2.55.06zm0 2.46-7.41.06-.06-.39-.15-.87a76 76 0 0 1 3.51-6.93 65 65 0 0 1 4.17-6.51l3.75-.75.33.3-.21 4.29-.21 8.34h2.7l.09.21v2.28l-.06.12a27 27 0 0 0-2.7-.12v.69a9 9 0 0 0 .21 2.85 4.9 4.9 0 0 0 2.49.51l.15.09V29l-.15.09-4.8-.15h-1.95l-3.27.06-.12-.12v-1.1l.12-.12a27 27 0 0 0 2.79-.21.83.83 0 0 0 .54-.51c.162-1.062.242-2.135.24-3.21"/></svg>