<svg xmlns="http://www.w3.org/2000/svg" stroke-linejoin="round" stroke-miterlimit="2" viewBox="0 0 38 38"><path fill="#202020" d="M36.72 18.72c0-9.875-8.125-18-18-18s-18 8.125-18 18 8.125 18 18 18 18-8.125 18-18"/><path fill="#fff" d="M19.21 18.39a2.36 2.36 0 0 0 1.92-.84 3.88 3.88 0 0 0 .72-2.61A7.5 7.5 0 0 0 21 10.8a2.53 2.53 0 0 0-2.22-1.23 2.39 2.39 0 0 0-1.95 1 5.23 5.23 0 0 0-.72 3.06 6.4 6.4 0 0 0 .9 3.78 2.54 2.54 0 0 0 2.2.98m2.55.18a10.7 10.7 0 0 1-2.34 2 4.75 4.75 0 0 1-2.19.45 4.35 4.35 0 0 1-3.42-1.5 6.32 6.32 0 0 1-1.32-4.23A7.4 7.4 0 0 1 14.38 10a6.27 6.27 0 0 1 4.77-2 6.37 6.37 0 0 1 3.48 1A6.23 6.23 0 0 1 25 11.7a11.6 11.6 0 0 1 .81 4.8 15 15 0 0 1-1.35 6.78 10.8 10.8 0 0 1-3.87 4.35 11.5 11.5 0 0 1-5.82 1.83l-1.26-1 .36-.54 1.23.09a5.56 5.56 0 0 0 3.18-1 6.75 6.75 0 0 0 2.37-2.91 16.7 16.7 0 0 0 1.11-5.53"/></svg>