<svg xmlns="http://www.w3.org/2000/svg" stroke-linejoin="round" stroke-miterlimit="2" viewBox="0 0 38 38"><path fill="#202020" d="M36.72 18.72c0-9.875-8.125-18-18-18s-18 8.125-18 18 8.125 18 18 18 18-8.125 18-18"/><path fill="#fff" d="m13.29 29-.15-.18v-.87l.15-.18a20.6 20.6 0 0 0 3.15-.39.66.66 0 0 0 .39-.36c.214-.944.305-1.912.27-2.88l.12-7.5-.09-4.77q0-.27-.27-.27a1 1 0 0 0-.42.12l-4 1.83-.21-.12a11 11 0 0 0-.3-1.77l.07-.26a90 90 0 0 0 9.15-3.06l.39.24c-.15 1.35-.24 3.21-.3 5.55l-.09 8.49a29 29 0 0 0 .18 4.26c.04.206.158.389.33.51a11.4 11.4 0 0 0 3 .36l.15.18v.87l-.15.18h-1.83c-1.83 0-3.09-.06-3.72-.06q-2.67-.03-5.82.08"/></svg>