<svg xmlns="http://www.w3.org/2000/svg" stroke-linejoin="round" stroke-miterlimit="2" viewBox="0 0 38 38"><path fill="#202020" d="M36.72 18.72c0-9.875-8.125-18-18-18s-18 8.125-18 18 8.125 18 18 18 18-8.125 18-18"/><path fill="#fff" d="m20.79 28.47-.14-.17v-.83l.14-.17a20 20 0 0 0 3-.37.66.66 0 0 0 .37-.34c.202-.899.286-1.82.25-2.74l.12-7.12-.09-4.54c-.09-.29-.11-.25-.25-.25a1 1 0 0 0-.4.11L20 13.79l-.2-.12a10.7 10.7 0 0 0-.32-1.67l.12-.23a84 84 0 0 0 8.69-2.9l.37.23c-.14 1.28-.23 3.05-.29 5.27l-.08 8.07a28 28 0 0 0 .17 4 .8.8 0 0 0 .31.49 11.2 11.2 0 0 0 2.85.34l.15.17v.83l-.15.17h-1.73c-1.74 0-2.94-.06-3.54-.06zm-14.25 0-.14-.17v-.83l.14-.17a20 20 0 0 0 3-.37.66.66 0 0 0 .37-.34c.202-.899.286-1.82.25-2.74l.12-7.12-.09-4.54c-.09-.29-.11-.25-.25-.25a1 1 0 0 0-.4.11l-3.82 1.74-.2-.12A10.6 10.6 0 0 0 5.23 12l.12-.23A84 84 0 0 0 14 8.86l.37.23c-.14 1.28-.23 3.05-.28 5.27L14 22.43a28 28 0 0 0 .17 4 .8.8 0 0 0 .31.49 11.2 11.2 0 0 0 2.85.34l.15.17v.83l-.15.17H15.6c-1.74 0-2.94-.06-3.54-.06z"/></svg>