<svg xmlns="http://www.w3.org/2000/svg" stroke-linejoin="round" stroke-miterlimit="2" viewBox="0 0 38 38"><path fill="#202020" d="M36.72 18.72c0-9.875-8.125-18-18-18s-18 8.125-18 18 8.125 18 18 18 18-8.125 18-18"/><path fill="#fff" d="m19.7 23.54 1-.26a6.64 6.64 0 0 0 1.91 3 4.1 4.1 0 0 0 2.63.88 3.4 3.4 0 0 0 2.59-1.05 4 4 0 0 0 1-2.8 3.72 3.72 0 0 0-1-2.76 3.78 3.78 0 0 0-2.82-1 8 8 0 0 0-1.65.23l-.18-.2c.18-.54.37-1.28.58-2.2q.422.066.85.06a3.72 3.72 0 0 0 2.51-.85 2.9 2.9 0 0 0 .94-2.2 2.5 2.5 0 0 0-.77-1.91 2.92 2.92 0 0 0-2.08-.74 4.6 4.6 0 0 0-1.66.31c-.38.14-.722.366-1 .66a8.8 8.8 0 0 0-.8 1.94l-1.11-.06c.42-1.457.724-2.945.91-4.45A9 9 0 0 1 23.67 9a9.2 9.2 0 0 1 2.42-.31 5.66 5.66 0 0 1 3.82 1.17 3.73 3.73 0 0 1 1.37 3 3.83 3.83 0 0 1-.72 2.36 6.4 6.4 0 0 1-2.5 1.94 6.5 6.5 0 0 1 2.5.72 3.56 3.56 0 0 1 1.32 1.51c.349.687.524 1.45.51 2.22A6.5 6.5 0 0 1 29.45 27a9.2 9.2 0 0 1-5.56 1.79 7.3 7.3 0 0 1-1.79-.2 8.7 8.7 0 0 1-1.74-.62zM6.48 28.47l-.14-.17v-.83l.14-.17a19.7 19.7 0 0 0 3-.37.63.63 0 0 0 .37-.34 10.4 10.4 0 0 0 .26-2.74l.11-7.12-.08-4.54c-.08-.29-.11-.25-.26-.25a1 1 0 0 0-.4.11l-3.83 1.74-.2-.12A10.6 10.6 0 0 0 5.17 12l.11-.23A84 84 0 0 0 14 8.86l.37.23c-.15 1.28-.23 3.05-.29 5.27L14 22.43a26 26 0 0 0 .17 4 .78.78 0 0 0 .31.49 11.2 11.2 0 0 0 2.85.34l.14.17v.83l-.14.17h-1.74c-1.74 0-2.93-.06-3.53-.06z"/></svg>