<svg xmlns="http://www.w3.org/2000/svg" stroke-linejoin="round" stroke-miterlimit="2" viewBox="0 0 38 38"><path fill="#202020" d="M36.72 18.72c0-9.875-8.125-18-18-18s-18 8.125-18 18 8.125 18 18 18 18-8.125 18-18"/><path fill="#fff" d="M12.12 29v-1.61l3-2.94A30.3 30.3 0 0 0 20 18.9a7.4 7.4 0 0 0 1-3.69 3.92 3.92 0 0 0-.87-2.73 3 3 0 0 0-2.4-1 4.06 4.06 0 0 0-2 .48 2.4 2.4 0 0 0-1.05 1c-.06.15-.27 1-.63 2.49h-1.21c.291-1.708.491-3.431.6-5.16a7.3 7.3 0 0 1 2.43-1.65 8.3 8.3 0 0 1 2.94-.51 6.4 6.4 0 0 1 4.59 1.59 5.3 5.3 0 0 1 1.68 4.08 7.13 7.13 0 0 1-1.32 4c-.88 1.35-3.3 3.84-7.29 7.44l.09.18H20c2.55 0 4.49-.06 5.9-.18l.16.18c-.09.84-.16 1.47-.16 1.89a11.4 11.4 0 0 0 .1 1.58l-.16.15a139 139 0 0 0-6.54-.15c-1.78 0-4.18.11-7.18.11"/></svg>