<svg xmlns="http://www.w3.org/2000/svg" stroke-linejoin="round" stroke-miterlimit="2" viewBox="0 0 38 38"><path fill="#202020" d="M36.72 18.72c0-9.875-8.125-18-18-18s-18 8.125-18 18 8.125 18 18 18 18-8.125 18-18"/><path fill="#fff" d="M12.27 24.36v-.12l1-.3a7.8 7.8 0 0 0 2.31 2.88 4.36 4.36 0 0 0 2.58.75 3.56 3.56 0 0 0 2.76-1.17 4.62 4.62 0 0 0 1.05-3.18A4.32 4.32 0 0 0 20.82 20a3.85 3.85 0 0 0-3-1.17 4.9 4.9 0 0 0-1.65.27 7.2 7.2 0 0 0-1.77 1l-.6-.33.27-6-.24-5.22.21-.18 6 .18 4.71-.18.18.33a9 9 0 0 0-.18 1.65l.06 1.47-.21.18-5.34-.09-3.54.06-.15 4.86a7.4 7.4 0 0 1 1.89-.83 7.8 7.8 0 0 1 2-.24A6.46 6.46 0 0 1 24 17.22a5.54 5.54 0 0 1 1.59 4.17 7.42 7.42 0 0 1-2.49 5.55 8.82 8.82 0 0 1-6.24 2.34 9.7 9.7 0 0 1-1.89-.18 8 8 0 0 1-1.71-.54 38 38 0 0 0-.99-4.2"/></svg>