<svg xmlns="http://www.w3.org/2000/svg" stroke-linejoin="round" stroke-miterlimit="2" viewBox="0 0 38 38"><path fill="#202020" d="M36.72 18.72c0-9.875-8.125-18-18-18s-18 8.125-18 18 8.125 18 18 18 18-8.125 18-18"/><path fill="#fff" d="M18.93 18.72a2.56 2.56 0 0 0-2 .81 3.84 3.84 0 0 0-.72 2.58 8.46 8.46 0 0 0 .79 4.32 2.6 2.6 0 0 0 2.22 1.26 2.24 2.24 0 0 0 1.92-1 5.18 5.18 0 0 0 .75-3.15 6.77 6.77 0 0 0-.89-3.8 2.44 2.44 0 0 0-2.07-1.02m-2.67-.18a13 13 0 0 1 2.34-2 5.2 5.2 0 0 1 2.19-.42 4.35 4.35 0 0 1 3.42 1.5 6.16 6.16 0 0 1 1.32 4.23 7.81 7.81 0 0 1-2 5.49 6 6 0 0 1-4.65 2 6.45 6.45 0 0 1-3.48-1 6.74 6.74 0 0 1-2.34-2.79 12.1 12.1 0 0 1-.81-4.83 14.2 14.2 0 0 1 1.38-6.63 11 11 0 0 1 4-4.26 10.84 10.84 0 0 1 5.64-1.65l1.26 1.11-.51.51a6.2 6.2 0 0 0-1.29-.15 5.13 5.13 0 0 0-2.94 1 6.9 6.9 0 0 0-2.4 2.82 14.3 14.3 0 0 0-1.13 5.07"/></svg>