<svg xmlns="http://www.w3.org/2000/svg" stroke-linejoin="round" stroke-miterlimit="2" viewBox="0 0 38 38"><path fill="#202020" d="M36.72 18.72c0-9.875-8.125-18-18-18s-18 8.125-18 18 8.125 18 18 18 18-8.125 18-18"/><path fill="#fff" d="M17.62 19.38A5.8 5.8 0 0 0 16 21.3a5 5 0 0 0-.48 2.22 4.33 4.33 0 0 0 1.08 3 3.61 3.61 0 0 0 2.7 1.17 3 3 0 0 0 2.37-1 3.53 3.53 0 0 0 1-2.58 3.6 3.6 0 0 0-.39-1.71 4.15 4.15 0 0 0-1.2-1.32 24.5 24.5 0 0 0-3.46-1.7m3.12-2.88a4.8 4.8 0 0 0 1.38-1.59 4 4 0 0 0 .45-1.86 3.22 3.22 0 0 0-.87-2.43 3.06 3.06 0 0 0-2.34-.87 3 3 0 0 0-2.22.78 2.67 2.67 0 0 0-.81 2 2.8 2.8 0 0 0 .81 2 12 12 0 0 0 3.6 1.97m-4.41 2.28a6.06 6.06 0 0 1-2.34-2 5.2 5.2 0 0 1-.72-2.78 5.5 5.5 0 0 1 1.8-4.2 6.74 6.74 0 0 1 4.77-1.65 5.7 5.7 0 0 1 3.93 1.23 4.25 4.25 0 0 1 1.35 3.33 4.3 4.3 0 0 1-.63 2.29 6.9 6.9 0 0 1-2.31 2 6.5 6.5 0 0 1 2.73 1.77A5.3 5.3 0 0 1 26 22.35a6.74 6.74 0 0 1-2 4.95 7.13 7.13 0 0 1-5.19 2 6.16 6.16 0 0 1-4.41-1.56 5.12 5.12 0 0 1-1.68-3.93 5.2 5.2 0 0 1 .78-2.91 6.84 6.84 0 0 1 2.83-2.12M-17.81 8.46v1.41c-2 3.45-3.87 7-5.61 10.71A91 91 0 0 0-27 29a16 16 0 0 0-1.77-.12 13 13 0 0 0-1.71.12l-.15-.45 2.82-4.59 4-6.84 2.64-4.65-.15-.24h-5.58c-.914-.049-1.83.011-2.73.18a.77.77 0 0 0-.39.42 11.8 11.8 0 0 0-.48 2.91l-.12.12-1.2-.09c.06-1.11.12-2.4.12-3.9 0-1-.06-2-.12-3.3l.24-.24c2.85.15 5.79.24 8.79.24z"/></svg>