<svg xmlns="http://www.w3.org/2000/svg" width="698" height="768" viewBox="-1.363 -1.363 48.168 53.036"><path d="M23.96 0h2.369c.265.12.76.011 1.046.11.647 2.125 1.35 4.195 1.982 6.335-8.007-1.71-14.207 1.594-18.066 5.453C7.57 15.62 4.56 22.776 6.72 30.294c1.747 6.081 6.065 10.652 11.621 12.778 3.041 1.164 7.061 1.56 10.631.827 3.346-.688 6.003-2.111 8.263-3.912 2.651-.1 5.47-.036 8.206-.055v.055c-4.23 5.477-10.307 9.862-19.609 10.3-3.077.147-6.1-.466-8.647-1.32-4.896-1.645-8.745-4.48-11.731-8.208C2.476 37.044.397 32.313 0 26.329V23.96c.044-.012.064-.046.055-.11.456-7.306 3.405-12.604 7.326-16.525C11.316 3.391 16.69.515 23.96 0m-5.344 13.66c1.038 4.489 2.018 9.035 3.029 13.55 1.39-3.238 2.625-6.63 3.966-9.915.846 2.477 1.633 5.071 2.479 7.711.121.377.33.853.33 1.102.001.35-.321.893-.495 1.377a827 827 0 0 0-3.36 9.529h-7.05c-1.66-7.814-3.588-15.654-5.178-23.354zm6.61 0h6.388c1.891 5.876 3.707 11.826 5.564 17.736h8.206v5.618H32.441c-2.386-7.767-4.962-15.637-7.215-23.354m10.961 0h6.334a6336 6336 0 0 1-3.855 17.24h-.991c-.814-2.366-1.528-4.899-2.314-7.436-.249-.803-.734-1.671-.771-2.423-.028-.569.255-1.192.386-1.819.371-1.772.708-3.617 1.156-5.397-.005-.077-.008-.156.055-.165" style="fill:#013882;fill-opacity:1;fill-rule:evenodd;stroke:none"/></svg>