<svg xmlns="http://www.w3.org/2000/svg" width="52.346" height="52.346" fill-rule="evenodd" stroke-linejoin="round" stroke-width="28.222" preserveAspectRatio="xMidYMid" viewBox="25 0 1385 1385"><defs class="ClipPathGroup"><clipPath id="a" clipPathUnits="userSpaceOnUse"><path d="M25 0h1385v1385H25z"/></clipPath></defs><g class="SlideGroup"><g class="Slide" clip-path="url(#a)"><g class="Page"><g class="com.sun.star.drawing.ClosedBezierShape"><path fill="none" d="M25 0h1386v1386H25z" class="BoundingBox"/><path fill="#fff" d="M1410 693c0 127-29 236-92 346-64 110-144 190-254 254-110 63-219 92-346 92-128 0-236-29-347-92-110-64-189-144-253-254S25 820 25 693c0-128 29-236 93-347 64-110 143-189 253-253C482 29 590 0 718 0c127 0 236 29 346 93s190 143 254 253c63 111 92 219 92 347"/></g><g class="com.sun.star.drawing.TextShape"><path fill="none" d="M279 844h731v400H279z" class="BoundingBox"/><text class="TextShape"><tspan class="TextParagraph" font-family="Liberation Sans, sans-serif" font-size="423" font-weight="400"><tspan x="279" y="1153" class="TextPosition"><tspan>City</tspan></tspan></tspan></text></g><g class="com.sun.star.drawing.TextShape"><path fill="none" d="M163 345h1044v400H163z" class="BoundingBox"/><text class="TextShape"><tspan class="TextParagraph" font-family="Liberation Sans, sans-serif" font-size="423" font-weight="400"><tspan x="163" y="654" class="TextPosition"><tspan>Open</tspan></tspan></tspan></text></g></g></g></g></svg>