<svg xmlns="http://www.w3.org/2000/svg" fill="#fff" fill-rule="evenodd" stroke-linecap="round" stroke-linejoin="round" stroke-miterlimit="1.414" viewBox="0 0 40 40"><circle cx="20" cy="20" r="19.439" fill="#000"/><path d="M20 3.626a16.374 16.374 0 1 0 0 32.748 16.374 16.374 0 1 0 0-32.748m0 .732a15.642 15.642 0 1 1 0 31.284 15.642 15.642 0 1 1 0-31.284m-9.996 12.833v.646a.67.67 0 0 1-.667.667H8.002a.67.67 0 0 1-.667-.667v-3.876a.67.67 0 0 1 .667-.667h1.335a.67.67 0 0 1 .667.667v.304h-.015q.015.053.015.111v.085a.415.415 0 0 1-.415.415h-.38c-.229 0-.303-.186-.303-.415.064-.07-.042-.231-.096-.196h-.306a.25.25 0 0 0-.249.249v2.703a.25.25 0 0 0 .249.249h.291c-.029-.057.313-.689.542-.689h.253a.415.415 0 0 1 .415.415zm3.487-3.139a.76.76 0 0 0-.758-.758h-1.516a.76.76 0 0 0-.758.758v3.694a.76.76 0 0 0 .758.758h1.516a.76.76 0 0 0 .758-.758zm-.982.349a.244.244 0 0 0-.244-.244h-.487a.244.244 0 0 0-.244.244v2.869a.244.244 0 0 0 .244.244h.487a.244.244 0 0 0 .244-.244zm1.798 4.104a.295.295 0 0 1-.295-.295v-4.62a.295.295 0 0 1 .295-.295h.591a.295.295 0 0 1 .295.295v3.949h.718a.24.24 0 0 1 .242.242v.483a.24.24 0 0 1-.242.241zm5.12-4.452a.76.76 0 0 0-.758-.758h-1.516a.76.76 0 0 0-.758.758v3.694a.76.76 0 0 0 .758.758h1.516a.76.76 0 0 0 .758-.758zm-.982.349a.244.244 0 0 0-.244-.244h-.487a.244.244 0 0 0-.244.244v2.869a.244.244 0 0 0 .244.244h.487a.244.244 0 0 0 .244-.244zm2.699 2.26v1.582a.255.255 0 0 1-.255.255h-.51a.255.255 0 0 1-.255-.255v-4.602c0-.194.214-.35.479-.35h1.269c.751 0 1.008.194 1.008.601v1.675c0 .268-.195.859-.487.988l.614 1.346a.256.256 0 0 1-.126.338l-.464.212a.256.256 0 0 1-.338-.126l-.759-1.664zm.173-1.226c-.096 0-.173-.107-.173-.239v-.794c0-.132-.005-.239.091-.239h.436c.201 0 .237.225.237.503v.266c0 .278-.036.503-.237.503zm2.82-1.233c.203-.905.675-.911.675-.911s.525.041.699.912l.779 3.903a.23.23 0 0 1-.179.268l-.447.089a.227.227 0 0 1-.268-.179l-.118-.591h-.987l-.132.592a.23.23 0 0 1-.272.173l-.445-.1a.23.23 0 0 1-.173-.272zm.356 2.585h.604l-.285-1.426zm2.524 1.708a.54.54 0 0 1-.541-.541v-4.122a.54.54 0 0 1 .541-.541h1.434a1.14 1.14 0 0 1 1.139 1.139v2.927a1.14 1.14 0 0 1-1.139 1.139zm.69-.827c-.108 0-.196-.165-.196-.369v-2.812c0-.204.088-.369.196-.369h.518c.227 0 .412.348.412.777v1.997c0 .429-.184.777-.412.777zm5.33-3.622a.76.76 0 0 0-.758-.758h-1.516a.76.76 0 0 0-.758.758v3.694a.76.76 0 0 0 .758.758h1.516a.76.76 0 0 0 .758-.758zm-.982.349a.244.244 0 0 0-.244-.244h-.487a.244.244 0 0 0-.244.244v2.869c0 .135.109.244.244.244h.487a.244.244 0 0 0 .244-.244zm-24.05 8.521H9.49q.663.038.649.833c.022.43-.222.589-.649.562-.171-.015-.356-.143-.426-.385-.034-.117-.089-.111-.294-.112-.282.068-.333.161-.373.359l.012.462c.057.141.173.22.53.213.418.012 1.2.027 1.2.913v1.211c.018.555-.591 1.2-1.2 1.202h-.934c-.402-.007-.65-.19-.674-.633v-.759c0-1.187.936-.749.931-.169-.006.669.698.533.698.051v-.404c-.004-.24-.21-.593-.698-.593h-.431q-.532.016-.5-.483v-1.559c.012-.42.209-.681.674-.709m5.608.78a.76.76 0 0 0-.758-.758h-1.516a.76.76 0 0 0-.758.758v3.694a.76.76 0 0 0 .758.758h1.516a.76.76 0 0 0 .758-.758zm-.982.349a.244.244 0 0 0-.244-.244H11.9a.244.244 0 0 0-.244.244v2.869c0 .135.109.244.244.244h.487a.244.244 0 0 0 .244-.244zm4.442 3.465a.53.53 0 0 1-.526.611h-1.912a.53.53 0 0 1-.532-.532v-4.134a.555.555 0 0 1 1.11 0v3.602h.75v-3.602c.011-.729 1.099-.729 1.11 0zm2.183-3.656v3.773c.008.738-1.104.738-1.096 0v-3.773h-.469a.447.447 0 0 1-.447-.448v-.042c0-.247.2-.448.447-.448h1.875a.45.45 0 0 1 .448.448v.042a.45.45 0 0 1-.448.448zm1.95 1.74v2.103c0 .637-.955.637-.955 0v-4.302c0-.637.955-.637.955 0v1.211h.774v-1.211c0-.637.955-.637.955 0v4.303c0 .637-.955.637-.955 0v-2.103zm3.409.272v1.305h.926c.257 0 .465.208.465.465v.074a.465.465 0 0 1-.465.465h-1.276l-.052-.003-.051.003h-.197a.453.453 0 0 1-.453-.453V23.37c0-.25.203-.453.453-.453h.197l.051.003c.017.002.034-.003.052-.003h1.276c.257 0 .465.208.465.465v.074a.465.465 0 0 1-.465.465h-.926v1.044h.771c.608-.007.608.909 0 .901zm3.091.446v1.582a.255.255 0 0 1-.255.255h-.51a.255.255 0 0 1-.255-.255v-4.602c0-.194.214-.35.479-.35h1.269c.751 0 1.008.194 1.008.601v1.675c0 .268-.195.859-.487.988l.614 1.346a.256.256 0 0 1-.126.338l-.464.212a.256.256 0 0 1-.338-.126l-.759-1.664zm.173-1.226c-.096 0-.173-.107-.173-.239v-.794c0-.132-.005-.239.091-.239h.436c.201 0 .237.225.237.503v.266c0 .278-.036.503-.237.503zm3.302 1.164v1.463c0 .616-.925.616-.925 0v-4.175a.45.45 0 0 1 .147-.337.46.46 0 0 1 .72.118q.084.076.134.178l.716 1.436v-1.396c.01-.606.914-.606.925 0v4.175q-.002.152-.088.269l-.032.02-.02.01-.003.001-.006.003-.018.006-.009.004-.036.012h-.002l-.002.001.021-.007.015-.006.004-.002.006-.002.009-.004.012-.004.006-.003.006-.002.006-.003.012-.004.032-.02a.45.45 0 0 1-.374.193.46.46 0 0 1-.444-.339l-.003-.004a.6.6 0 0 1-.08-.121zm1.265 1.819-.013-.001zm-.018-.002h-.007l-.014-.002h-.005l.011.001.008.001h.003zm.135-.001h-.004.008zm.009-.001.009-.001zm.018-.003-.004.001.009-.001.014-.002.005-.001.012-.003h.004l.004-.001h.005l.003-.001h.001l.003-.001h.002l.003-.001h.002l.003-.001h.002l-.003.001h-.002l-.002.001h-.002l-.002.001h-.002l-.002.001h-.002l-.002.001h-.006l-.004.001-.013.003-.008.002h-.005l-.004.001zm-.237-.007.01.002zm-.005-.001-.004-.001.002.001zm-.017-.004.003.001-.007-.002-.003-.001h-.002l-.003-.001.008.002zm.344-.008-.003.001h.002l.004-.002h.002-.003zm-.371.001-.008-.003zm-.018-.006.006.002-.002-.001zm-.005-.002.003.001-.007-.002-.009-.003-.007-.002h-.002l-.002-.001.012.004.004.001.003.001zm-.248-.154.002.002zm-.011-.012.002.002zl-.002-.003-.002-.002.002.003zm-.007-.007.002.002-.005-.005zm-.035-.074.002.008zm-.007-.06v.003-.006zm-.844-4.398.002.003zl-.003-.006.002.003.001.002zm-.669-.152a.66.66 0 0 1 .435-.001.65.65 0 0 0-.435.001M16.494 19.9c.2-.471.667-.474.667-.474s.519.021.691.475l.649 1.721c.07.182-.034.514-.168.494l-.248.003c-.122.013-.193-.029-.217-.093l-.194-.36h-1.058l-.187.36c-.027.064-.075.104-.196.09h-.367c-.121-.014-.295-.233-.203-.45l.832-1.765zm.472 1.144h.377l-.182-.541zm2.6-.062v.894c0 .135-.048.244-.304.244s-.463-.109-.463-.244V19.67c0-.072.058-.136.147-.178s.196-.066.315-.066c.278 0 .403.159.484.244l.857.899v-.899c0-.135.123-.244.378-.244s.463.109.463.244v2.206q-.002.08-.088.142a.65.65 0 0 1-.375.102c-.215 0-.374-.083-.527-.245zm2.875 1.139c-.269 0-.487-.125-.487-.28v-2.134c0-.155.218-.28.487-.28h1.292c.566 0 1.025.264 1.025.59v1.515c0 .326-.459.59-1.025.59zm.621-.687c-.097 0-.176-.086-.176-.191V20.24c0-.106.079-.191.176-.191h.467c.205 0 .371.18.371.402v.581c0 .222-.166.402-.371.402z"/></svg>