<svg xmlns="http://www.w3.org/2000/svg" fill-rule="evenodd" stroke-linejoin="round" stroke-miterlimit="1.414" viewBox="0 0 40 40"><path fill="#fff" fill-rule="nonzero" d="m11.81 15.19 2.93 8.12.95.31v1.19h-4.33v-1.19l1-.31-.32-1H9l-.34 1 1.06.33v1.19H5.64v-1.21l1-.31 3-8.07zm-1.23 2.4-1.07 3.23h2.1zm7.19 7.22v-1.19l1.12-.34V16.8h-1.3l-.34 1.3H16v-2.86l7.91-.05v2.91h-1.28l-.34-1.3H21v6.48l1.13.34v1.19zm10.7-1.19v1.19h-4v-1.19l1-.34V16.8l-1-.41v-1.13l3.28-.07 3.68 6.3V16.8l-1-.41v-1.13l3.89-.07v1.2l-1 .41v8h-2.26l-3.66-6.17v4.65z"/><circle cx="20" cy="20" r="17.555" fill="#82009c"/><g fill-rule="nonzero"><path fill="#fff" stroke="#000" stroke-width="1.436" d="M31.024 9.901v13.216q0 1.48-.576 2.934c-.576 1.454-.86 1.83-1.428 2.581s-1.245 1.483-2.03 2.194-1.511 1.302-2.177 1.772a27 27 0 0 1-2.082 1.334l-1.54.852-.731.344q-.207.103-.447.103a.8.8 0 0 1-.448-.103l-.731-.344-1.54-.852a27 27 0 0 1-2.082-1.334 24 24 0 0 1-2.177-1.773 16 16 0 0 1-2.03-2.194q-.852-1.128-1.428-2.581c-.576-1.453-.576-1.947-.576-2.934V9.901q0-.448.327-.774a1.06 1.06 0 0 1 .774-.327h19.824q.447 0 .774.327c.327.327.327.476.327.774z"/><path stroke="#fff" stroke-width=".479" d="M27.72 23.117V12.104h-7.709v19.565a24.3 24.3 0 0 0 3.665-2.358q4.044-3.166 4.044-6.195zm3.304-13.216v13.216q0 1.48-.576 2.934c-.576 1.454-.86 1.83-1.428 2.581s-1.245 1.483-2.03 2.194-1.511 1.302-2.177 1.773a27 27 0 0 1-2.082 1.334l-1.54.852-.731.344q-.207.103-.447.103a.8.8 0 0 1-.448-.103l-.731-.344-1.54-.852a27 27 0 0 1-2.082-1.334 24 24 0 0 1-2.177-1.773 16 16 0 0 1-2.03-2.194q-.852-1.128-1.428-2.581c-.576-1.453-.576-1.947-.576-2.934V9.901q0-.448.327-.774a1.06 1.06 0 0 1 .774-.327h19.824q.447 0 .774.327c.327.327.327.476.327.774z"/></g><g stroke="#eff1e5"><path fill="#001678" stroke-width=".455" d="M1.172 16.694h37.716v6.496H1.172z"/><path fill="#000a35" stroke-width=".456" d="M2.452 17.77h35.622v4.346H2.452z"/></g><text x="4.752" y="21.184" fill="#fff" font-family="TeluguMN, Telugu MN" font-size="3.828">DENVER PACIFIC</text><path fill="#82009c" d="M20 .381C9.172.381.381 9.172.381 20S9.172 39.619 20 39.619 39.619 30.828 39.619 20 30.828.381 20 .381m0 2.393A17.24 17.24 0 0 1 37.227 20 17.24 17.24 0 0 1 20 37.227 17.24 17.24 0 0 1 2.773 20 17.24 17.24 0 0 1 20 2.773z"/></svg>