<svg xmlns="http://www.w3.org/2000/svg" fill-rule="evenodd" stroke-linejoin="round" stroke-miterlimit="2" viewBox="0 0 40 40"><circle cx="20" cy="20" r="19.755" fill="#207b5a"/><circle cx="20" cy="20" r="15.375" fill="#ffebd2"/><g fill="#207b5a"><path d="m21.426 28.201 1.434-.509 2.578 7.256-1.434.509z"/><path d="M26.3 15.416v12.957H13.787V15.416c.485-3.001 3.147-5.292 6.256-5.292s5.771 2.291 6.256 5.292zm-.488.049.044 12.261H14.231l-.044-12.261c.451-2.788 3-4.917 5.889-4.917s5.286 2.128 5.737 4.917z"/><path d="m18.727 28.201-1.434-.509-2.578 7.256 1.434.509z"/><path d="M13.019 33.381h14.023v.979H13.019zm1.012-1.456h12.028l.5.979H13.68zm.55-1.427h10.791l.448.979H14.267zm.467-1.492h9.61l.399.979H14.769zm3.679-13.368h2.699v8.114h-2.699z"/><path d="M24.134 18.346v2.699H16.02v-2.699z"/></g><g fill="#d24053" font-family="Arial-BoldMT, Arial, sans-serif" font-size="83.333" font-weight="700"><text x="171.071" y="459.96" transform="rotate(47.4 37.841 42.316)scale(.0457 .06528)">T</text><text x="171.071" y="459.96" transform="rotate(214.66 11.28 28.412)scale(.0457 .06528)">T</text><text x="167.824" y="459.96" transform="rotate(228.288 10.051 27.76)scale(.0457 .06528)">H</text><text x="169.433" y="459.96" transform="rotate(241.23 8.59 26.969)scale(.0457 .06528)">E</text><text x="167.824" y="459.96" transform="rotate(-99.978 5.792 25.348)scale(.0457 .06528)">D</text><text x="169.433" y="459.96" transform="matrix(.0042 -.0455 .065 .00601 -21.01 25.325)">E</text><text x="167.824" y="459.96" transform="rotate(-72.69 .512 22.579)scale(.0457 .06528)">N</text><text x="169.433" y="459.96" transform="rotate(-59.407 -3.39 20.403)scale(.0457 .06528)">V</text><text x="167.824" y="459.96" transform="rotate(-36.552 -16.544 12.668)scale(.0457 .06528)">R</text><text x="167.824" y="459.96" transform="rotate(-17.556 -51.537 -6.904)scale(.0457 .06528)">&amp;</text><text x="169.433" y="459.96" transform="rotate(15.947 88.204 62.18)scale(.0457 .06528)">S</text><text x="167.824" y="459.96" transform="rotate(19.139 75.397 64.073)scale(.0457 .06528)">A</text><text x="167.824" y="459.96" transform="matrix(.00426 .0455 -.065 .00608 59.398 6.43)">A</text><text x="171.071" y="459.96" transform="rotate(37.307 45.123 46.027)scale(.0457 .06528)">L</text><text x="171.071" y="459.96" transform="rotate(65.302 30.622 38.658)scale(.0457 .06528)">L</text><text x="167.824" y="459.96" transform="rotate(98.15 23.579 34.818)scale(.0457 .06528)">K</text><text x="169.433" y="459.96" transform="rotate(146.458 17.792 31.806)scale(.0457 .06528)">Y</text><text x="167.824" y="459.96" transform="rotate(135.27 19.119 32.312)scale(.0457 .06528)">R</text><text x="169.433" y="459.96" transform="rotate(-41.268 -11.834 17.178)scale(.0457 .06528)">E</text><text x="169.433" y="459.96" transform="rotate(109.987 21.665 34.074)scale(.0457 .06528)">E</text></g></svg>