<svg xmlns="http://www.w3.org/2000/svg" xmlns:xlink="http://www.w3.org/1999/xlink" fill-rule="evenodd" stroke-linecap="round" stroke-linejoin="round" stroke-miterlimit="1.414" viewBox="0 0 40 40"><circle cx="20.148" cy="20.147" r="16.526" fill="#9c002f"/><path fill="#e5891c" d="M20.148 7.302c-7.089 0-12.845 5.756-12.845 12.845s5.756 12.845 12.845 12.845 12.845-5.756 12.845-12.845S27.237 7.302 20.148 7.302m0 .429c6.853 0 12.416 5.563 12.416 12.416S27 32.563 20.148 32.563 7.732 26.999 7.732 20.147 13.296 7.731 20.148 7.731"/><circle cx="300" cy="272.83" r="145.95" transform="translate(-4.716 -2.466)scale(.08288)"/><g transform="translate(-3.586 -1.438)scale(.07911)"><circle cx="300" cy="272.83" r="145.95" fill="url(#a)"/><clipPath id="b"><circle cx="300" cy="272.83" r="145.95"/></clipPath><g clip-path="url(#b)"><g transform="translate(-1 11)"><g fill="#fff"><ellipse cx="158" cy="246.21" rx="13.016" ry="11.096"/><ellipse cx="182.03" cy="235.114" rx="13.016" ry="11.096"/><ellipse cx="158" cy="246.21" rx="13.016" ry="11.096" transform="translate(-43.677 -170)scale(1.5936)"/><ellipse cx="158" cy="246.21" rx="13.016" ry="11.096" transform="translate(-22.934 -186.01)scale(1.5936)"/><ellipse cx="158" cy="246.21" rx="13.016" ry="11.096" transform="translate(5.719 -203.69)scale(1.5936)"/><ellipse cx="158" cy="246.21" rx="13.016" ry="11.096" transform="translate(27.474 -221.38)scale(1.5936)"/><ellipse cx="158" cy="246.21" rx="13.016" ry="11.096" transform="translate(27.474 -205.37)scale(1.5936)"/><ellipse cx="158" cy="246.21" rx="13.016" ry="11.096" transform="translate(-2.192 -192.77)scale(1.5936)"/></g><g fill="#cfcfcf"><ellipse cx="331.82" cy="158.65" rx="31.816" ry="24.549"/><ellipse cx="312.206" cy="168.562" rx="31.816" ry="24.549"/><ellipse cx="331.82" cy="158.65" rx="31.816" ry="24.549" transform="matrix(.59055 0 0 .84672 90.019 43.104)"/><ellipse cx="331.82" cy="158.65" rx="31.816" ry="24.549" transform="matrix(.43166 0 0 .43602 123.42 124.73)"/></g><use xlink:href="#c" fill="#ffc913"/><clipPath id="d"><use xlink:href="#c"/></clipPath><g clip-path="url(#d)"><use xlink:href="#e"/><path d="M167.772 270.95h2.462v68.639h-2.462zm9.966-1.003h2.367v79.704h-2.367z"/><use xlink:href="#e" transform="rotate(73.928 267.247 189.893)scale(1.94274 1)"/><use xlink:href="#e" transform="rotate(66.682 208.44 292.8)"/><use xlink:href="#e" transform="rotate(66.682 393.365 19.69)scale(3.16653 1)"/></g><use xlink:href="#f"/><clipPath id="g"><use xlink:href="#f"/></clipPath><g clip-path="url(#g)"><g fill="#fff"><use xlink:href="#h"/><path d="M380.69 356.52h2.134v33.69h-2.134zm4.902 0h2.134v33.69h-2.134zm5.35-.064h2.134v33.69h-2.134zm-52.061 0h2.134v33.69h-2.134zm-5.101 0h2.134v33.69h-2.134zm-4.996 0h2.134v33.69h-2.134zm-4.838 0h2.134v33.69h-2.134zm-5.301 0h2.134v33.69h-2.134z"/></g><use xlink:href="#h" fill="#fff" transform="rotate(89.851 372.39 342.21)"/><g fill="#fff"><path d="M378.52 319.61h4.413v25.903h-4.413zm30.31 15.85h3.326v21.753h-3.326zM390.63 300h5.501v21.868h-5.501zm2.75-11.64h5.605v5.229h-5.605zm-7.69-15.75h4.142v5.116h-4.142zM378 252.7h5.493v24.416H378zm-124.12 73.43h7.398v48.307h-7.398zm-47.15 47.92h7.859v4.621h-7.859z"/><path d="M210.71 376.95h15.654v4.549H210.71z"/><path d="M217.28 379.33h20.883v6.132H217.28z"/><path d="M228.82 382.07h19.085v6.828H228.82z"/><path d="M240.88 384.24h20.786v7.419H240.88zm86.84-195.87-8.75 4.206v20.451l8.75 6.283z"/><ellipse cx="346.41" cy="280.49" rx="11.625" ry="9.913"/><path d="M348.76 304.93a26 26 0 0 1-3.244.202c-13.763 0-24.92-10.766-24.92-24.047s11.157-24.048 24.92-24.048 24.92 10.767 24.92 24.048a24 24 0 0 1-.127 2.446c-1.094-9.622-9.096-17.09-18.804-17.09-10.456 0-18.932 8.661-18.932 19.346 0 9.731 7.031 17.784 16.187 19.143"/></g><path fill="#fff" d="M330.35 314.507c-.74 3.462 36.488-1.94 32.563 5.043-10.134 18.029-28.002 11.765-47.49 0-15.035-9.077-19.76-31.2-11.582-48.8s27.457-26.77 43.374-19.373a33.21 31.123-65.08 0 1 2.856 1.524c-12.182-3.96-25.887 2.116-31.656 14.531-6.214 13.372-.524 28.343 11.936 34.986 7.313 3.9-.001 12.089-.001 12.089"/></g></g></g></g><path fill="#e5891c" stroke="#e5891c" stroke-width=".113" d="M20.148 3.024c-9.45 0-17.123 7.673-17.123 17.123S10.698 37.27 20.148 37.27s17.123-7.673 17.123-17.123S29.598 3.024 20.148 3.024m0 .571c9.135 0 16.552 7.417 16.552 16.552s-7.417 16.552-16.552 16.552S3.596 29.282 3.596 20.147 11.013 3.595 20.148 3.595"/><path d="m27.499 37.883-14.757-.027-2.939-3.82h20.601zM12.22 30.259h15.876l2.308 3.777H9.802z"/><path fill="#fff" fill-rule="nonzero" d="M14.375 33.954v-1.782q0-.111-.06-.156c-.06-.045-.109-.054-.21-.07q-.05-.015-.05-.096v-.04a.2.2 0 0 1 .007-.05l.194.02.222.005.217-.005a2 2 0 0 0 .182-.02l.006.05.002.04q0 .086-.047.095-.131.025-.178.07c-.047.046-.048.08-.048.146V35.1a.2.2 0 0 1-.053.008l-.05.002q-.027 0-.059-.017c-.032-.017-.043-.036-.067-.073l-1.559-2.511v2.17q0 .05.006.082c.006.032.015.04.032.055s.042.029.075.04a1 1 0 0 0 .133.038q.02.005.033.023c.013.018.014.036.014.073a1 1 0 0 1-.008.085l-.186-.018-.202-.007-.22.007-.191.018a.1.1 0 0 1-.008-.045v-.04q0-.05.014-.07c.014-.02.02-.022.034-.026q.142-.03.19-.075c.047-.045.047-.077.047-.14v-2.542q0-.08-.042-.123c-.042-.043-.09-.05-.187-.067q-.048-.015-.048-.096v-.022l.004-.028.004-.04.107.007.103.008.176.007.144.003q.115 0 .15.012a.11.11 0 0 1 .064.048zm2.1-.353h-.83l-.206.59a.1.1 0 0 0-.016.047l-.004.039q0 .045.042.076c.042.03.084.037.168.05q.055.01.055.082a.4.4 0 0 1-.008.072l-.225-.015-.234-.007-.166.005-.193.017a.1.1 0 0 1-.008-.038v-.034q0-.08.051-.085.123-.026.176-.056c.053-.03.064-.053.085-.101l.953-2.446q.032-.072.095-.072l.04.002.043.006.954 2.522a.17.17 0 0 0 .09.096.5.5 0 0 0 .147.045q.06.012.06.084a.4.4 0 0 1-.008.077l-.25-.015-.23-.006-.134.002-.326.013-.136.006a.1.1 0 0 1-.008-.038v-.034q0-.039.013-.058c.013-.019.02-.02.03-.023q.104-.02.152-.049c.048-.029.05-.046.05-.083a.2.2 0 0 0-.012-.063zm-.075-.212-.336-.955-.344.955zm2.306-.38h-.17v.714q0 .08.077.112c.077.032.14.039.263.053q.056.006.056.068a.3.3 0 0 1-.008.062l-.287-.012-.374-.006-.275.006-.247.012a.1.1 0 0 1-.008-.031v-.028q0-.057.044-.065l.134-.025q.052-.012.08-.028c.027-.016.03-.022.037-.037s.01-.034.01-.057v-1.714q0-.067-.057-.099c-.057-.032-.112-.036-.22-.048a.1.1 0 0 1-.032-.02q-.012-.014-.012-.048v-.03q0-.018.008-.028l.256.012.259.005h.597q.21 0 .376.044c.166.044.205.072.283.127s.137.12.178.195a.51.51 0 0 1-.068.58.8.8 0 0 1-.354.224l.621.783q.072.09.164.123c.092.033.12.04.173.052q.02.003.031.015c.011.012.012.022.012.043v.03a.1.1 0 0 1-.008.035l-.122-.005-.165-.005-.17-.005-.14-.002q-.083 0-.166-.06a.7.7 0 0 1-.162-.16zm-.051-.172q.123 0 .221-.02c.098-.02.123-.037.17-.07s.084-.077.11-.132.037-.124.037-.209q0-.212-.119-.335c-.119-.123-.219-.123-.419-.123h-.119v.89zm2.66-.069h-.147v.578q0 .065.066.09c.066.025.12.032.227.043q.048.006.048.055a.2.2 0 0 1-.007.05l-.247-.01-.322-.004-.237.004-.213.01a.1.1 0 0 1-.006-.025v-.022q0-.047.037-.053l.116-.02q.044-.01.068-.022c.024-.012.027-.019.032-.03s.009-.028.009-.046V31.98q0-.056-.05-.08a.5.5 0 0 0-.189-.04q-.016-.004-.027-.016c-.01-.012-.01-.02-.01-.039v-.024a.03.03 0 0 1 .007-.023l.22.01.223.004h.514q.18 0 .324.036c.144.036.176.058.243.102s.118.097.154.158a.4.4 0 0 1 .052.202q0 .146-.11.267c-.11.12-.176.14-.305.18l.535.634q.06.071.141.1a1 1 0 0 0 .148.04.05.05 0 0 1 .027.013q.01.01.01.035v.025a.1.1 0 0 1-.006.027l-.106-.004-.288-.008-.12-.002q-.072 0-.144-.048c-.072-.048-.094-.075-.14-.128zm-.045-.138a1 1 0 0 0 .191-.016q.086-.017.147-.057c.06-.04.072-.062.093-.106s.033-.1.033-.17q0-.17-.103-.27c-.103-.1-.188-.1-.36-.1h-.103v.72zm1.594-.088a.7.7 0 0 1 .077-.317q.078-.148.211-.26c.133-.112.194-.133.313-.175s.247-.065.383-.065q.21 0 .39.06c.18.06.226.098.314.17s.158.16.208.26.076.21.076.327a.7.7 0 0 1-.077.32.8.8 0 0 1-.211.258q-.135.11-.315.175c-.18.065-.249.064-.385.064q-.21 0-.39-.06c-.18-.06-.224-.097-.312-.17a.8.8 0 0 1-.206-.258.7.7 0 0 1-.076-.329m1.028.691a.5.5 0 0 0 .221-.045.5.5 0 0 0 .17-.122.6.6 0 0 0 .112-.182.6.6 0 0 0 .039-.223q0-.172-.04-.32a.6.6 0 0 0-.119-.256.6.6 0 0 0-.201-.17.6.6 0 0 0-.281-.061.5.5 0 0 0-.198.037.5.5 0 0 0-.17.11q-.072.07-.116.173c-.044.103-.043.145-.043.23q0 .18.042.332c.042.152.069.19.122.263s.12.131.197.173.166.061.265.061zm2.522-1.504.025-.003.02-.001q.022 0 .032.008c.01.008.013.014.02.029l.456.936.34-.765a.1.1 0 0 0 .013-.045q0-.03-.036-.045c-.036-.015-.066-.017-.125-.023q-.033-.002-.033-.04l.001-.01.001-.013.003-.017.135.008.163.003.152-.002.128-.009.003.017.001.013.002.011q0 .041-.036.044-.087.006-.127.021c-.04.015-.046.03-.06.059l-.586 1.278-.02.003h-.019q-.019 0-.029-.007c-.01-.007-.014-.014-.024-.03l-.452-.94-.442.974-.021.003h-.018q-.023 0-.032-.007c-.009-.007-.013-.014-.02-.03l-.61-1.255q-.014-.03-.048-.047c-.034-.017-.07-.019-.14-.025q-.036-.002-.036-.045v-.019q0-.012.005-.018l.095.004.106.004.106.002h.09l.2-.002.195-.008.004.022.002.017q0 .04-.037.041-.088.007-.125.022c-.037.015-.036.024-.036.04q0 .01.003.017l.008.019.364.782zm-7.036 5.04-.148.022-.144.018-.161.012-.203.003q-.296 0-.512-.079c-.216-.079-.262-.128-.355-.226s-.16-.214-.206-.35-.067-.289-.067-.456q0-.195.066-.392a1.1 1.1 0 0 1 .202-.357 1.05 1.05 0 0 1 .826-.361q.192 0 .39.028c.199.028.26.043.378.074l.027.227q.019.14.056.27l-.04.009-.036.005q-.027 0-.045-.009c-.018-.009-.02-.017-.024-.034q-.07-.228-.228-.312c-.158-.084-.236-.084-.392-.084q-.179 0-.315.061c-.136.061-.167.1-.227.175s-.107.167-.139.274-.048.226-.048.36q0 .222.053.406c.053.184.087.229.155.318a.71.71 0 0 0 .597.282q.069 0 .123-.007a1 1 0 0 0 .114-.023v-.474q0-.09-.05-.124c-.05-.034-.09-.04-.174-.051q-.027-.007-.036-.028a.1.1 0 0 1-.01-.041l.001-.03.005-.03.11.007.126.005.124.003.102.002.1-.002.119-.003.119-.005.097-.007a.1.1 0 0 1 .006.033v.027q0 .03-.011.044a.1.1 0 0 1-.028.022q-.106.013-.147.042c-.04.03-.041.053-.041.1v.573q0 .03-.016.05c-.016.02-.042.023-.093.032m2.146-1.105h-.692l-.172.458a.1.1 0 0 0-.013.036l-.003.03q0 .036.034.06c.034.023.07.028.14.039q.047.006.047.063a.3.3 0 0 1-.007.056l-.188-.012-.194-.005-.139.003-.161.014a.1.1 0 0 1-.007-.03v-.026q0-.063.043-.066.102-.02.147-.043c.045-.023.053-.042.07-.08l.795-1.898q.026-.056.079-.056l.033.001.036.005.795 1.959q.02.048.075.074c.055.026.078.028.122.034q.05.01.05.066a.3.3 0 0 1-.007.06l-.207-.012-.192-.005-.112.002-.272.01-.113.005a.1.1 0 0 1-.007-.03v-.026q0-.03.012-.045c.012-.015.015-.016.024-.018q.086-.017.127-.038c.041-.021.041-.036.041-.064a.2.2 0 0 0-.01-.05zm-.063-.165-.28-.742-.287.742zm2.684-.293q0 .164-.034.302c-.034.138-.061.17-.117.236s-.13.118-.222.155-.21.055-.351.055q-.25 0-.404-.058c-.154-.058-.181-.09-.237-.157a.5.5 0 0 1-.111-.234 1.4 1.4 0 0 1-.028-.287v-.959q0-.06-.037-.085c-.037-.025-.074-.03-.15-.039q-.03-.006-.03-.055v-.023a.1.1 0 0 1 .005-.029l.174.01.218.005.206-.005.191-.01.005.029.001.023q0 .05-.031.055-.116.015-.156.04c-.04.025-.041.046-.041.084v.895q0 .3.108.456c.108.156.197.156.374.156q.27 0 .384-.146c.114-.146.114-.255.114-.475v-.886q0-.057-.04-.084c-.04-.027-.075-.03-.149-.04q-.033-.009-.033-.055l.001-.023.004-.029.151.012.148.003.16-.003.139-.012.004.029.001.023q0 .046-.034.055-.104.011-.143.039c-.04.028-.04.047-.04.085zm2.213.506-.138.021-.134.017-.151.01-.19.004q-.276 0-.478-.073c-.202-.073-.245-.119-.33-.21s-.151-.198-.193-.324-.063-.267-.063-.421q0-.18.061-.363a1 1 0 0 1 .19-.331.98.98 0 0 1 .77-.334 3 3 0 0 1 .365.026q.186.026.353.068l.024.21a2 2 0 0 0 .053.25l-.037.008-.034.005q-.025 0-.042-.008c-.017-.008-.019-.015-.023-.032q-.065-.21-.212-.288c-.147-.078-.22-.078-.366-.078a.7.7 0 0 0-.295.057.56.56 0 0 0-.212.162q-.084.105-.13.253c-.045.148-.044.21-.044.334q0 .204.05.375c.05.171.08.212.144.294a.7.7 0 0 0 .236.192q.14.07.321.07a1 1 0 0 0 .116-.007 1 1 0 0 0 .106-.021v-.44q0-.082-.046-.114c-.046-.032-.085-.037-.163-.047a.05.05 0 0 1-.034-.026.1.1 0 0 1-.01-.038l.002-.028.005-.027.103.006.117.004.115.004.096.001.094-.001.11-.004.111-.004.091-.006q.006.015.006.03v.025q0 .027-.01.04a.05.05 0 0 1-.027.02q-.098.013-.137.04c-.039.027-.038.05-.038.092v.53q0 .028-.015.046c-.015.018-.04.023-.087.03zm1.27-1.845v.685h.465q.063 0 .086-.044a.4.4 0 0 0 .04-.144q.002-.023.019-.03a.1.1 0 0 1 .043-.007l.031.001q.021.002.031.005l-.011.152-.005.146.003.12.013.159a.1.1 0 0 1-.03.007l-.032.001q-.06 0-.063-.04-.02-.108-.044-.146c-.024-.038-.044-.038-.081-.038h-.465v.636q0 .06.086.08c.086.02.154.02.29.02h.138a.5.5 0 0 0 .167-.023.4.4 0 0 0 .12-.064.5.5 0 0 0 .092-.097 2 2 0 0 0 .08-.123q.01-.02.046-.02a.1.1 0 0 1 .04.008l.045.017-.014.043-.015.04a.3.3 0 0 0-.027.068.4.4 0 0 1-.02.06l-.014.064-.017.068-.016.058-.012.034q-.013.023-.052.023l-.076-.003-.107-.004-.117-.004-.103-.003h-.748l-.22.004-.222.01a.1.1 0 0 1-.006-.03v-.027q0-.042.033-.045.124-.02.18-.043c.055-.023.054-.042.054-.08v-1.423q0-.03-.01-.047c-.01-.017-.02-.023-.038-.031s-.043-.016-.073-.023l-.113-.021q-.033-.009-.033-.052v-.027q0-.012.006-.027l.25.012.189.003h.676l.255-.009.147-.008q.036 0 .052.025.01.023.017.084a1 1 0 0 0 .023.126l.023.094a1 1 0 0 0 .04.11l-.037.012a.1.1 0 0 1-.04.006q-.035 0-.052-.026a1 1 0 0 0-.077-.126.4.4 0 0 0-.086-.085q-.048-.033-.112-.047a.6.6 0 0 0-.153-.014z"/><circle cx="300" cy="272.83" r="145.95" fill="none" stroke="#ff00df" stroke-width="17.783" transform="translate(-17.115 -13.718)scale(.12422)"/><path fill="#ffc913" d="M16.555 35.003v.902h-2.901z"/><defs><path id="c" d="m213.43 234.21-68.1 23.827v21.489l9.54 47.328 24.027 26.586 16.15 10.041 27.918-112.97z"/><path id="e" d="M162.68 270.95h2.462v68.639h-2.462z"/><path id="f" d="m260.26 208.07-46.137 18.058-6.27 10.021v14.306l-16.371 8.078v41.463l-3.427 6.344v26.535l3.427 4.774v6.878l-3.427 22.794 19.798 33.785 52.407 7.995 78.216-3.07 65.89-6.784 29.037-44.314-13.483-5.457-3.07-29.285h-6.109v-20.195h-9.322s6.618-6.583 5.786-16.73-13.495-20.556-13.495-20.556v-19.402s-8.958-10.665-13.42-10.665h-7.636V216.87l5.613-2.23v-8.171h-9.757v5.612h-14.375l-6.62-4.011v-16.312l6.62-6.061v-19.044l-6.62-5.709-16.746-2.311-14.839 2.311-8.275 5.709v19.044l8.275 6.061-1.68 5.937h-12.617v-7.964l-3.924-2.096-2.664 2.096v7.964l-6.255 2.868h-24.649z"/><path id="h" d="M375.71 356.52h2.134v33.69h-2.134z"/><linearGradient id="a" x1="299" x2="299" y1="418.2" y2="126.31" gradientUnits="userSpaceOnUse"><stop offset="0" stop-color="#fff"/><stop offset="1" stop-color="#0184b4"/></linearGradient></defs><path d="M92.476 1.191h2.03v2.03h-2.03z"/><path fill="#fff" d="M5.093 17.632c.356.066.548-.148.427-.476-.128-.347-.741-.261-.802.112-.032.198.084.31.375.364m1.384-3.418c.167.284.39.378.48.203s-.097-.326-.415-.326h-.137l.073.123m2.188-4.835a.7.7 0 0 1-.037.21c-.055.146.334.513.545.513.184 0 .294.076.387.269.071.147.175.253.453.464.474.358.515.434.318.585a4 4 0 0 0-.324.289c-.164.164-.187.174-.326.148l-.801-.165c-.442-.093-.501-.068-.331.143.071.089.142.162.158.162s.11.063.21.139c.196.15.349.15.514.002.074-.067.121-.037.173.109.026.073-.173.35-.41.573-.069.065-.126.147-.126.182 0 .057-.182.361-.56.938-.069.105-.125.237-.125.294 0 .366-.347.653-.422.35-.122-.497-.617-.348-.748.225-.038.165.186.444.313.391.234-.097.288-.111.347-.088.13.05.066.295-.139.532-.038.044-.09.189-.114.322a3 3 0 0 1-.165.532c-.067.16-.132.372-.146.472-.038.275-.141.326-.444.222-.357-.123-.798-.151-.836-.053-.157.406-.094.514.357.619l.303.07.091-.089c.05-.049.135-.146.19-.215.229-.292.329.202.111.554-.072.116-.085.193-.077.453q.018.643-.221.553c-.133-.05-.173-.104-.174-.235 0-.113-.104-.203-.235-.205a.45.45 0 0 1-.18-.048c-.167-.09-.342-.108-.43-.046-.208.146-.3.136-.503-.053-.104-.097-.22-.177-.257-.177s-.134-.012-.217-.025c-.14-.023-.155-.015-.238.124-.275.465-.491.109-.261-.43.041-.095.069-.308.079-.584.022-.646.184-1.006.559-1.245.272-.174.498-.133.793.143.115.107.142.117.214.073.218-.133.265-.149.418-.15a2.4 2.4 0 0 1 .392.045c.337.068.529-.093.456-.381-.033-.131-.499-.591-.67-.662-.195-.08-.271-.157-.328-.327-.121-.366-.437-.612-.638-.497-.117.067-.123.066-.21-.02l-.09-.09.174-.333.228-.395a.6.6 0 0 0 .082-.242c.067-.439.458-.719.46-.33.001.225.484.375.756.235.19-.098.313-.083.409.051.076.107.114.12.488.168.482.061.541.035.75-.335l.127-.224-.127-.119c-.278-.263-.522-.418-.624-.399-.163.031-.329-.046-.329-.154 0-.139-.116-.315-.279-.425-.236-.16-.289-.17-.413-.079-.196.145-.393.091-.361-.098.016-.097.219-.338.367-.434a.75.75 0 0 0 .198-.245c.118-.229.268-.321.407-.25.055.028.223.065.373.08s.375.065.501.109a.76.76 0 0 0 .359.056l.131-.025-.128-.118c-.505-.465-.684-.565-.806-.45s-.332.119-.361.007c-.016-.06.05-.153.257-.366.153-.157.278-.308.278-.336s.064-.132.142-.232c.171-.219.342-.234.342-.03m15.548-4.92c.12.048.272.126.337.173s.204.093.307.103c.299.029.335.074.266.335l-.08.328c-.035.168-.224.248-.515.218-.383-.04-.515-.186-.431-.477.092-.319-.086-.466-.436-.361-.411.123-.223.707.255.796.166.031.27.123.359.319.031.066.129.201.219.3.564.618.076 1.409-.84 1.361-.389-.02-.876-.143-.979-.246-.115-.114-.258-.158-.496-.15-.329.011-.374-.04-.267-.305a4 4 0 0 0 .122-.356c.087-.324.489-.418.817-.191.18.125.283.34.19.397-.285.176.208.549.552.418.447-.169.34-.618-.195-.813-.227-.083-.391-.226-.391-.342 0-.031-.078-.142-.174-.246-.323-.353-.35-.403-.35-.648.001-.349.028-.402.298-.576l.246-.159.483.018c.373.014.533.038.702.105m-6.539.321c-.075.083-.057.25.035.326.14.116.433-.184.325-.332-.068-.093-.274-.089-.36.006m-.217 1.348c-.225.381.544.732.934.425l.108-.085-.184-.127c-.585-.405-.725-.439-.858-.214m.949-1.71c.384.196.416.499.09.829l-.207.21.133.099c.162.121.497.322.643.385.191.083.344-.213.193-.374-.262-.279-.079-.589.353-.597s.467.021.543.398c.082.407.069.517-.068.545-.584.122-.49.595.132.666.288.033.317.048.351.186.039.156-.077.202-.497.194a3.6 3.6 0 0 0-.514.022.42.42 0 0 1-.276-.03c-.116-.061-.435.018-.707.173-.076.043-.264.058-.766.058h-.666l-.214-.137c-.489-.314-.454-.896.077-1.289.147-.109.138-.237-.029-.413-.513-.54.675-1.309 1.428-.925m7.652.895a2.3 2.3 0 0 1 .296.181.26.26 0 0 0 .151.056c.12 0 .596.195.658.269.085.103-.01.192-.23.215-.277.028-.525.47-.419.748.039.103.028.124-.161.298-.112.103-.203.21-.203.237s-.037.122-.082.21c-.169.33-.169.341-.017.523.293.351.114.442-.354.179a2.3 2.3 0 0 0-.614-.245c-.471-.099-.683-.425-.278-.428.222-.002.289-.032.368-.165.145-.246.217-.528.189-.741s.006-.271.163-.3c.22-.041.407-.649.243-.792-.151-.132-.134-.349.029-.367.016-.002.134.053.262.122m-13.042.911c-.142.054-.302.234-.289.326a.96.96 0 0 0 .414.612c.156.084.18.114.154.181a.48.48 0 0 0 .063.463.5.5 0 0 1 .101.188c0 .092.216.256.338.256.164 0 .387-.178.387-.309 0-.177-.309-.67-.476-.761-.146-.079-.148-.083-.136-.301.021-.389-.29-.756-.556-.655m.88-.318c.141.069.335.198.432.287.104.096.216.163.273.163.142 0 .192.087.189.329l.02.658c.064 1.274-1.427 1.835-2.275.855a1 1 0 0 0-.307-.232l-.17-.073.034-.175c.019-.096.023-.331.01-.521-.073-1.046.884-1.736 1.793-1.292m14.167.406a2.6 2.6 0 0 1 .398.261c.13.102.266.186.302.187s.145.055.243.121.194.12.214.12.031.05.024.111c-.012.106-.023.111-.241.113-.316.003-.508.217-.613.683-.04.179-.064.21-.208.277-.156.073-.442.461-.464.63-.046.355.271.516.428.217.122-.231.348-.28.601-.131a.446.446 0 0 1 .13.661.9.9 0 0 0-.132.274c-.058.224-.112.223-.344-.006-.155-.153-.242-.207-.37-.227-.199-.032-.506-.213-.733-.432a2.3 2.3 0 0 0-.486-.313c-.223-.108-.344-.193-.392-.276l-.07-.121.12-.05a.5.5 0 0 1 .23-.029c.149.029.318-.066.399-.224a2 2 0 0 1 .142-.226.46.46 0 0 0 .075-.269c0-.246.029-.294.203-.341.095-.026.164-.072.18-.121a.7.7 0 0 1 .117-.19c.152-.184.166-.325.044-.453-.212-.221-.083-.378.201-.246M10.982 7.542c.259.35.261.358.096.59-.248.35-.536.4-.68.118-.076-.15-.089-.157-.191-.119-.281.107-.29.313-.026.598.052.056.095.116.095.133s.019.031.043.031c.118 0 .434.173.413.226-.041.108.029.319.153.459l.171.202c.19.252.59.109.59-.21 0-.186-.37-.573-.609-.638-.3-.081-.251-.289.108-.465a.7.7 0 0 0 .295-.24c.2-.338.424-.322.469.034.023.186.059.252.265.494l.316.408.077.128-.096.063a.4.4 0 0 1-.133.063c-.02 0-.104.108-.187.24a1.5 1.5 0 0 1-.39.413l-.323.242c-.164.137-.634.145-.87.014l-.251-.123a2 2 0 0 1-.278-.162.5.5 0 0 0-.245-.1c-.14 0-.202-.131-.202-.426 0-.121-.027-.286-.06-.366-.206-.493.101-1.151.698-1.501a1.5 1.5 0 0 0 .361-.282c.126-.171.14-.165.391.175m19.429.399c.089.096.174.213.188.259s.121.137.236.202c.283.16.378.249.408.381.036.158-.13.224-.305.121-.113-.066-.123-.067-.159-.002a.7.7 0 0 1-.092.122.7.7 0 0 0-.109.214 1.6 1.6 0 0 1-.147.3c-.05.077-.092.171-.092.209s-.018.08-.041.094-.03.042-.018.063c.096.156.962-.339 1.077-.615.112-.27.235-.268.467.006.092.109.239.239.327.288.337.189.255.487-.097.353l-.213-.081-.245.124c-.147.074-.29.184-.358.275-.154.207-.163.211-.423.212-.126 0-.24.017-.252.038s-.14.102-.283.182c-.319.178-.325.187-.224.352.26.427-.114.47-.449.052a2.4 2.4 0 0 0-.39-.384c-.316-.221-.449-.365-.449-.487 0-.127.061-.182.135-.121.207.172.591-.015.591-.288a.7.7 0 0 1 .073-.197c.046-.089.062-.174.044-.223-.101-.272-.063-.37.174-.454a.21.21 0 0 0 .137-.151.8.8 0 0 1 .107-.227c.124-.178.138-.437.031-.588-.066-.093-.075-.128-.035-.141l.114-.037c.033-.011.072-.022.086-.023s.098.076.187.172m3.857 6.492c-.341.121-.401.402-.132.626.284.237.773-.144.638-.498-.071-.187-.228-.227-.506-.128m-1.46-4.109a2.5 2.5 0 0 1 .192.325c.042.09.175.262.294.383.199.2.511.704.511.825 0 .027.073.138.161.245.196.237.197.246.019.32a.8.8 0 0 0-.221.138c-.184.184-.447.135-.622-.117-.151-.218-.136-.349.058-.528s.199-.217.019-.386c-.16-.151-.188-.148-.468.039-.265.178-.292.281-.132.508.37.528.089.683-.345.191-.156-.177-.256-.233-.289-.16a2 2 0 0 1-.283.212c-.305.205-.363.319-.245.477.13.175.197.196.303.095a.34.34 0 0 1 .242-.089c.41 0 .626.665.274.844-.279.143-.22.602.083.638.177.021.708-.249.802-.409s.229-.209.376-.142c.082.037.142.029.335-.048.325-.13.335-.142.335-.365 0-.203.117-.317.267-.26.055.021.177.384.177.526 0 .047.062.184.138.305l.203.359c.035.077.092.17.126.208.083.092.151.801.096 1.005-.084.312-.516.47-.836.304l-.123-.063-.061.179c-.079.233-.157.31-.45.444l-.327.15c-.049.022-.106.107-.132.196-.103.342-.366.255-.42-.139a1.5 1.5 0 0 0-.128-.389c-.126-.249-.126-.249.255-.421.735-.332.779-.372.671-.608-.152-.333-.209-.34-.706-.094l-.245.122.011.199c.012.223-.032.292-.17.272-.144-.021-.228-.201-.168-.359.054-.144.029-.2-.24-.528-.149-.182-.209-.327-.392-.95-.047-.161-.101-.292-.119-.292-.11 0-.623-.644-.711-.894-.031-.088-.166-.279-.299-.425-.35-.382-.322-.582.06-.436.253.097.725-.151.887-.465.072-.14.19-.22.381-.26.36-.074.62-.398.503-.625-.057-.11-.038-.173.061-.211.112-.043.177-.009.292.153m2.772 5.742q.079.04.078.174c0 .073.048.267.107.432a1.9 1.9 0 0 1 .117.642c.008.267.038.418.136.685s.122.384.106.537a1.4 1.4 0 0 0 .026.394c.062.27.019.307-.397.341l-.328.027-.106-.161c-.225-.34-.138-.648.194-.686.243-.027.292-.088.183-.226-.123-.157-.524-.092-.735.118-.152.152-.268.178-.41.092-.148-.09-.246-.091-.585-.001s-.353.099-.385.309c-.073.484-.343.254-.383-.326a2.6 2.6 0 0 0-.112-.632c-.155-.431.09-.708.293-.33.128.238.686.191.949-.08.158-.163.248-.175.44-.057.179.109.64.012.744-.157.039-.063-.022-.213-.071-.174a.395.395 0 0 1-.627-.221c-.089-.355.062-.617.36-.621a.36.36 0 0 0 .179-.061c.093-.07.124-.073.227-.017M4.583 20.128c-.04.016-.124.123-.187.238l-.115.209.157.162c.213.22.566.238.825.042.195-.148.231-.149.337-.015.114.144.587.203.808.1.253-.118.262-.693.012-.756-.221-.056-.733.008-.835.104-.107.101-.212.089-.381-.043-.099-.078-.467-.102-.621-.041m-.197-.861c.154.196.592.253.784.102s.28-.163.402-.049c.097.091.153.106.463.122.816.042 1.076.463.938 1.519-.075.576-.217.715-.76.744-.336.018-.406.034-.49.113-.155.145-.263.153-.443.033-.267-.177-.592-.154-.747.052-.261.347-.392.301-.385-.137.002-.148.014-.285.026-.305s0-.188-.027-.375c-.043-.297-.041-.352.014-.437.059-.09.057-.105-.017-.207a.28.28 0 0 1-.056-.25l.048-.274a.9.9 0 0 0-.039-.347c-.064-.217-.044-.334.065-.379.1-.04.147-.025.224.073m29.691 1.139c-.197.012-.244.032-.332.136-.353.42.369.796.921.48l.219-.125.099.107c.09.097.128.107.416.112l.317.005.088-.174c.212-.419-.367-.705-.793-.39-.125.092-.143.095-.219.039-.215-.159-.331-.22-.405-.213l-.31.022m.925-1.078c.047.044.236.157.419.251 1.157.591 1.14 1.878-.031 2.387a2 2 0 0 0-.404.221c-.115.11-.239.105-.384-.018-.066-.055-.153-.101-.194-.101-.252 0-.766-.348-.95-.643-.438-.7.149-1.932.922-1.935a.6.6 0 0 0 .389-.179c.07-.084.131-.079.234.017m-1.483 2.778a.44.44 0 0 1 .042.176c0 .182.62.433.817.331.224-.116.301-.11.409.031a.6.6 0 0 0 .318.202c.302.095.36.087.552-.073.348-.291.451-.084.205.411a.9.9 0 0 0-.086.383c-.002.272-.052.335-.301.372-.111.017-.235.048-.276.07s-.259.071-.483.11c-.355.061-.415.082-.457.166-.062.124-.086.112.394.199l.415.075.179-.158c.098-.087.199-.158.224-.158.135 0 .166.332.045.483-.084.106-.136.295-.152.555-.017.275-.036.308-.2.347-.1.024-.113.013-.152-.132-.086-.321-.399-.45-.813-.335-.136.037-.157.031-.261-.077-.127-.133-.659-.317-.915-.317-.345 0-.426-.105-.308-.403.044-.112.081-.254.081-.314.002-.246.207-.447.361-.352.059.036.499-.053.823-.166.426-.149.434-.16.163-.218a2 2 0 0 1-.348-.105c-.213-.105-.349-.071-.544.138-.281.301-.395.079-.193-.376a1.1 1.1 0 0 0 .101-.442c0-.409.227-.675.361-.423m-26.991 1.11a4 4 0 0 1-.308.097c-.13.035-.188.08-.262.205l-.094.16-.204-.095c-.343-.159-.801-.028-.873.249-.074.285.125.583.343.513l.281-.08c.196-.054.248-.089.333-.224.116-.183.146-.19.352-.079.43.23 1.173-.136 1.02-.503-.1-.24-.333-.337-.587-.242m-.705-.912c.066.023.286.059.489.081.543.058 1.012.364 1.085.706a4 4 0 0 0 .101.347c.041.122.082.371.092.555.012.227.04.368.089.442.137.209.184.569.087.666l-.084.084-.383-.434-.275.086-.426.111c-.125.02-.162.049-.21.164-.077.184-.148.205-.345.103-.345-.18-.885.01-.886.313-.001.208-.045.261-.192.229s-.197-.14-.232-.546a1.5 1.5 0 0 0-.105-.459c-.482-.95-.34-1.646.437-2.144a1.2 1.2 0 0 0 .3-.271c.096-.146.122-.148.457-.034m27.512 4.128c.129.094.153.386.042.497-.193.193-.501.057-.501-.222 0-.258.265-.417.46-.275m-26.141.127q.19.19-.005.422c-.266.316-.713-.089-.457-.414.112-.143.324-.146.462-.007m25.374 1.189.101.038-.093.234c-.345.86-.33.841-1.624 2.138l-.494.525c0 .017-.054.051-.121.076-.171.065-.165-.061.015-.283.075-.092.165-.226.202-.297.289-.57 1.75-2.469 1.899-2.469a1 1 0 0 1 .115.038m-24.496.415c.203.205.414.451.47.546l.201.31.195.27.392.535.299.447c0 .024.056.121.124.215s.114.196.102.228c-.033.087-.169.068-.237-.034a9 9 0 0 0-.515-.554c-.702-.715-1.186-1.265-1.264-1.436l-.163-.337a1.7 1.7 0 0 1-.122-.322.6.6 0 0 0-.071-.191c-.031-.038-.009-.05.089-.05.11 0 .185.057.498.373"/></svg>