<svg xmlns="http://www.w3.org/2000/svg" data-name="Layer 1" viewBox="0 0 32.59 32.59"><defs><style>.cls-2{fill:#fff}</style></defs><circle cx="16.29" cy="16.29" r="15" style="fill:#2c459a"/><path d="M11.81 21.29a2.3 2.3 0 0 1-.77.28 4.6 4.6 0 0 1-1.06.12 3.38 3.38 0 0 1-2-.65 4.23 4.23 0 0 1-1.37-1.85 7.3 7.3 0 0 1-.49-2.75 8.7 8.7 0 0 1 .49-3 4.5 4.5 0 0 1 1.38-2A3.17 3.17 0 0 1 10 10.7a4.7 4.7 0 0 1 1.1.11 1.6 1.6 0 0 1 .61.22l.09 2.34h-.06a4.7 4.7 0 0 0-.74-.67 1.6 1.6 0 0 0-1-.37 1.3 1.3 0 0 0-1 .5 3.5 3.5 0 0 0-.69 1.43 8.8 8.8 0 0 0-.24 2.18 6.3 6.3 0 0 0 .24 1.82A3 3 0 0 0 9 19.47a1.36 1.36 0 0 0 1 .43 2.5 2.5 0 0 0 1.09-.24 6 6 0 0 0 .8-.48h.07ZM16.89 10.7l2.28 10a1.85 1.85 0 0 0 .36.76v.09h-2.4v-.11a1.05 1.05 0 0 0 .18-.55 1.5 1.5 0 0 0 0-.22l-.39-1.52h-1.5L15 20.78a1.3 1.3 0 0 0 0 .22.94.94 0 0 0 .16.47v.11h-2.33v-.08a1.55 1.55 0 0 0 .29-.55l2.37-9.45a.5.5 0 0 0 0-.14.8.8 0 0 0-.08-.33.7.7 0 0 0-.17-.23v-.1Zm-1.21 7h.95l-.46-2.31ZM24.47 21.58l-1.37-4.49h-.52v3.55a1.86 1.86 0 0 0 .24.83v.11H20.5v-.11a1.8 1.8 0 0 0 .26-.83v-8.9a1.86 1.86 0 0 0-.26-.83v-.11h3a2.59 2.59 0 0 1 2 .83 3.13 3.13 0 0 1 .77 2.19 3.74 3.74 0 0 1-.49 1.91 2.9 2.9 0 0 1-1.15 1.17L26 20.69a3 3 0 0 0 .46.78v.11ZM24 15.11a1.56 1.56 0 0 0 .38-1.1 1.32 1.32 0 0 0-1.47-1.51h-.3v3h.52a1.14 1.14 0 0 0 .87-.39" class="cls-2"/></svg>