<svg xmlns="http://www.w3.org/2000/svg" data-name="Layer 1" viewBox="0 0 32.59 32.59"><defs><style>.cls-2{fill:#fff}</style></defs><circle cx="16.29" cy="16.29" r="15" style="fill:#1e0d0d"/><path d="M12.81 21.29a2.3 2.3 0 0 1-.77.28 4.5 4.5 0 0 1-1.06.12 3.38 3.38 0 0 1-2-.65 4.23 4.23 0 0 1-1.37-1.85 7.3 7.3 0 0 1-.48-2.75 8.7 8.7 0 0 1 .48-3 4.5 4.5 0 0 1 1.38-2A3.18 3.18 0 0 1 11 10.7a4.7 4.7 0 0 1 1.1.11 1.6 1.6 0 0 1 .61.22l.09 2.34h-.06a4.3 4.3 0 0 0-.74-.67 1.6 1.6 0 0 0-1-.37 1.33 1.33 0 0 0-1 .5 3.6 3.6 0 0 0-.69 1.43 8.8 8.8 0 0 0-.24 2.18 6.3 6.3 0 0 0 .24 1.82 2.9 2.9 0 0 0 .69 1.21 1.36 1.36 0 0 0 1 .43 2.5 2.5 0 0 0 1.09-.24 7 7 0 0 0 .81-.48h.06ZM14.84 19.93a1.4 1.4 0 0 0 .95.31 1 1 0 0 0 .81-.37 1.53 1.53 0 0 0 .33-1 2.56 2.56 0 0 0-.38-1.25 7.4 7.4 0 0 0-1.15-1.52 5.7 5.7 0 0 1-1.05-1.5A3.9 3.9 0 0 1 14 13a2.11 2.11 0 0 1 .72-1.67 2.8 2.8 0 0 1 1.91-.63 5 5 0 0 1 .92.07 1.4 1.4 0 0 1 .5.16l.06 2.12H18a2.3 2.3 0 0 0-.57-.61 1.23 1.23 0 0 0-.78-.27.62.62 0 0 0-.52.26.88.88 0 0 0-.2.59 2.25 2.25 0 0 0 .69 1.54 9.2 9.2 0 0 1 1.58 2.15 4.5 4.5 0 0 1 .53 2.07 2.9 2.9 0 0 1-.73 2.11 2.75 2.75 0 0 1-2.06.8 3.3 3.3 0 0 1-1.13-.17 1.6 1.6 0 0 1-.61-.37v-2.08h.12a2.4 2.4 0 0 0 .52.86M25.23 21.29a2.5 2.5 0 0 1-.77.28 4.7 4.7 0 0 1-1.07.12 3.38 3.38 0 0 1-2-.65A4.3 4.3 0 0 1 20 19.19a7.3 7.3 0 0 1-.48-2.75 8.7 8.7 0 0 1 .48-3 4.66 4.66 0 0 1 1.38-2 3.18 3.18 0 0 1 2.06-.71 4.7 4.7 0 0 1 1.1.11 1.6 1.6 0 0 1 .61.22l.1 2.34h-.07a4.3 4.3 0 0 0-.75-.69 1.6 1.6 0 0 0-1-.37 1.33 1.33 0 0 0-1 .5 3.5 3.5 0 0 0-.68 1.43 8.3 8.3 0 0 0-.25 2.18 6 6 0 0 0 .25 1.82 2.8 2.8 0 0 0 .67 1.21 1.36 1.36 0 0 0 1 .43 2.5 2.5 0 0 0 1.09-.24 7 7 0 0 0 .81-.48h.06Z" class="cls-2"/></svg>