<svg xmlns="http://www.w3.org/2000/svg" id="Layer_1" data-name="Layer 1" viewBox="0 0 32.59 32.59"><defs><style>.cls-2{fill:#fff}</style></defs><circle cx="16.29" cy="16.29" r="15" style="fill:#cf2028"/><path d="M12.44 10.8v.11a1.8 1.8 0 0 0-.24.83v9.84h-.63L8.15 15v5.62a1.45 1.45 0 0 0 .28.82v.12H6.06v-.12a1.74 1.74 0 0 0 .27-.82v-8.9a1.3 1.3 0 0 0-.06-.4 3 3 0 0 0-.2-.43v-.09h2l2.29 4.68v-3.74a1.36 1.36 0 0 0-.28-.83v-.11ZM19.33 21.29a2.4 2.4 0 0 1-.77.28 4.6 4.6 0 0 1-1.06.12 3.38 3.38 0 0 1-2-.65 4.23 4.23 0 0 1-1.37-1.85 7.1 7.1 0 0 1-.49-2.75 8.5 8.5 0 0 1 .49-3 4.56 4.56 0 0 1 1.37-2 3.2 3.2 0 0 1 2.07-.71 4.8 4.8 0 0 1 1.1.11 1.7 1.7 0 0 1 .61.22l.09 2.34h-.06a5 5 0 0 0-.76-.69 1.56 1.56 0 0 0-1-.37 1.33 1.33 0 0 0-1 .5 3.5 3.5 0 0 0-.68 1.43 8.3 8.3 0 0 0-.25 2.18 6 6 0 0 0 .25 1.82 3 3 0 0 0 .67 1.21 1.4 1.4 0 0 0 1 .43 2.44 2.44 0 0 0 1.08-.24 6 6 0 0 0 .81-.48h.06ZM24.73 21.58l-1.37-4.49h-.52v3.55a1.8 1.8 0 0 0 .25.83v.11h-2.33v-.11a1.8 1.8 0 0 0 .26-.83v-8.9a1.86 1.86 0 0 0-.26-.83v-.11h3a2.62 2.62 0 0 1 2 .83 3.12 3.12 0 0 1 .76 2.19 3.65 3.65 0 0 1-.52 1.91 2.86 2.86 0 0 1-1.14 1.17l1.41 3.79a3.1 3.1 0 0 0 .47.78v.11Zm-.5-6.47a1.56 1.56 0 0 0 .38-1.1 1.31 1.31 0 0 0-1.46-1.51h-.31v3h.52a1.14 1.14 0 0 0 .87-.39" class="cls-2"/></svg>