<svg xmlns="http://www.w3.org/2000/svg" id="Layer_1" data-name="Layer 1" viewBox="0 0 32.59 32.59"><defs><style>.cls-2{fill:#010101}</style></defs><circle cx="16.29" cy="16.29" r="15" style="fill:#6ccce2"/><path d="M8 19.93a1.4 1.4 0 0 0 .95.31 1 1 0 0 0 .82-.37 1.6 1.6 0 0 0 .32-1 2.56 2.56 0 0 0-.38-1.25 7.4 7.4 0 0 0-1.15-1.52 5.4 5.4 0 0 1-1-1.5 3.8 3.8 0 0 1-.38-1.6 2.12 2.12 0 0 1 .72-1.68 2.8 2.8 0 0 1 1.91-.63 5 5 0 0 1 .93.07 1.5 1.5 0 0 1 .49.16l.06 2.12h-.12a2.7 2.7 0 0 0-.57-.61 1.28 1.28 0 0 0-.79-.27.64.64 0 0 0-.52.26.9.9 0 0 0-.2.59 2.25 2.25 0 0 0 .69 1.54 9.6 9.6 0 0 1 1.59 2.15 4.5 4.5 0 0 1 .52 2.07 2.9 2.9 0 0 1-.78 2.11 2.74 2.74 0 0 1-2 .8 3.2 3.2 0 0 1-1.13-.17 1.45 1.45 0 0 1-.61-.37l-.05-2.08h.12a2.4 2.4 0 0 0 .56.87M16.6 12.34h-1.48V15h.71a2.3 2.3 0 0 0 .91-.26h.12v2h-.12a2.3 2.3 0 0 0-.91-.26h-.71V20h1.74a1.2 1.2 0 0 0 .44 0c.15-.06.36-.17.64-.32H18v1.95h-4.95v-.11a1.8 1.8 0 0 0 .26-.83v-8.9a1.86 1.86 0 0 0-.26-.83v-.16h4.71v1.91h-.06a3 3 0 0 0-1.1-.37M23 10.7l2.28 10a1.7 1.7 0 0 0 .36.76v.09h-2.45v-.11a1 1 0 0 0 .19-.55 1.5 1.5 0 0 0 0-.22L23 19.18h-1.55l-.45 1.6a1.3 1.3 0 0 0 0 .22 1 1 0 0 0 .15.47v.11H18.9v-.07a1.7 1.7 0 0 0 .29-.56l2.37-9.45a.5.5 0 0 0 0-.14.76.76 0 0 0-.06-.36.7.7 0 0 0-.17-.23v-.1Zm-1.21 7h.95l-.46-2.31Z" class="cls-2"/></svg>