<svg xmlns="http://www.w3.org/2000/svg" id="Layer_1" data-name="Layer 1" viewBox="0 0 32.59 32.59"><defs><style>.cls-2{fill:#ffe47a}</style></defs><circle cx="16.29" cy="16.29" r="15" style="fill:#01a150"/><path d="M11.18 19.93a1.4 1.4 0 0 0 1 .31 1 1 0 0 0 .81-.37 1.53 1.53 0 0 0 .33-1 2.56 2.56 0 0 0-.38-1.25 7.4 7.4 0 0 0-1.15-1.49 5.4 5.4 0 0 1-1-1.5 3.76 3.76 0 0 1-.43-1.63 2.12 2.12 0 0 1 .72-1.68A2.8 2.8 0 0 1 13 10.7a5 5 0 0 1 .93.07 1.5 1.5 0 0 1 .49.16l.06 2.12h-.12a2.7 2.7 0 0 0-.57-.61 1.28 1.28 0 0 0-.79-.27.64.64 0 0 0-.52.26.9.9 0 0 0-.2.59 2.25 2.25 0 0 0 .72 1.54 9.6 9.6 0 0 1 1.59 2.15 4.6 4.6 0 0 1 .52 2.07 2.9 2.9 0 0 1-.78 2.11 2.74 2.74 0 0 1-2 .8 3.3 3.3 0 0 1-1.14-.17 1.5 1.5 0 0 1-.6-.37l-.05-2.08h.12a2.4 2.4 0 0 0 .52.86M20.2 21.58l-1.37-4.49h-.53v3.55a1.9 1.9 0 0 0 .25.83v.11h-2.33v-.11a1.7 1.7 0 0 0 .27-.83v-8.9a1.8 1.8 0 0 0-.27-.83v-.11h3a2.62 2.62 0 0 1 2 .83 3.12 3.12 0 0 1 .78 2.19 3.74 3.74 0 0 1-.48 1.91 2.94 2.94 0 0 1-1.15 1.17l1.42 3.79a2.8 2.8 0 0 0 .46.78v.11Zm-.5-6.47a1.56 1.56 0 0 0 .37-1.1c0-1-.48-1.51-1.46-1.51h-.31v3h.53a1.14 1.14 0 0 0 .87-.39" class="cls-2"/></svg>