<svg xmlns="http://www.w3.org/2000/svg" id="Layer_1" data-name="Layer 1" viewBox="0 0 32.59 32.59"><defs><style>.cls-2{fill:#fff}</style></defs><circle cx="16.29" cy="16.29" r="15" style="fill:#ee4d9b"/><path d="M6.85 10.8H9v.13a.7.7 0 0 0-.1.38 1.2 1.2 0 0 0 0 .31L9.83 16 11 10.76h1.06L13.12 16l1-4.27a1.9 1.9 0 0 0 .08-.46.8.8 0 0 0-.08-.35v-.12h2.08v.1a2 2 0 0 0-.28.64l-2.14 10h-1.06l-1.28-6.1-1.31 6.1H9L7.13 11.7a2.1 2.1 0 0 0-.28-.79ZM25.43 11.34a1.2 1.2 0 0 0-.05.4v8.9a1.5 1.5 0 0 0 .25.83v.11h-2.22v-.11a1.8 1.8 0 0 0 .24-.83v-6.31l-1.95 3.9h-.17l-2-3.9v6.39a1.3 1.3 0 0 0 .29.75v.11h-2.29v-.11a1.45 1.45 0 0 0 .32-.83v-9a1.5 1.5 0 0 0-.29-.72v-.12h2.21l1.85 3.85 1.71-3.85h2.33v.11a1.7 1.7 0 0 0-.23.43" class="cls-2"/></svg>