<svg xmlns="http://www.w3.org/2000/svg" id="Layer_1" data-name="Layer 1" viewBox="0 0 32.59 32.59"><defs><style>.cls-2{fill:#fff}</style></defs><circle cx="16.29" cy="16.29" r="15" style="fill:#f69422"/><path d="M5 10.8h2.07v.13a.63.63 0 0 0-.11.38 1.2 1.2 0 0 0 0 .31L7.93 16l1.17-5.24h1.06L11.22 16l1-4.27a1.9 1.9 0 0 0 .08-.46.8.8 0 0 0-.08-.35v-.12h2.08v.1a2 2 0 0 0-.28.64l-2.14 10h-1.06l-1.27-6.1-1.31 6.1H7.13l-1.9-9.84a2.2 2.2 0 0 0-.23-.79ZM21.26 10.8v.11a1.8 1.8 0 0 0-.24.83v9.84h-.64L17 15v5.62a1.5 1.5 0 0 0 .27.82v.12h-2.4v-.12a1.66 1.66 0 0 0 .28-.82v-8.9a1.3 1.3 0 0 0-.06-.4 3 3 0 0 0-.2-.43v-.09h2l2.3 4.68v-3.74a1.45 1.45 0 0 0-.28-.83v-.11ZM27.51 21.29a2.4 2.4 0 0 1-.77.28 4.6 4.6 0 0 1-1.06.12 3.38 3.38 0 0 1-2-.65 4.23 4.23 0 0 1-1.37-1.85 7.1 7.1 0 0 1-.49-2.75 8.5 8.5 0 0 1 .49-3 4.56 4.56 0 0 1 1.37-2 3.2 3.2 0 0 1 2.07-.71 4.8 4.8 0 0 1 1.1.11 1.7 1.7 0 0 1 .61.22l.09 2.34h-.06a5 5 0 0 0-.76-.69 1.56 1.56 0 0 0-1-.37 1.33 1.33 0 0 0-1 .5 3.5 3.5 0 0 0-.73 1.42 8.3 8.3 0 0 0-.25 2.18 6 6 0 0 0 .25 1.82 2.8 2.8 0 0 0 .68 1.21 1.35 1.35 0 0 0 1 .43 2.44 2.44 0 0 0 1.08-.24 6 6 0 0 0 .81-.48h.06Z" class="cls-2"/></svg>