<svg xmlns="http://www.w3.org/2000/svg" id="Layer_1" data-name="Layer 1" viewBox="0 0 32.59 32.59"><defs><style>.cls-2{fill:#010101}</style></defs><circle cx="16.29" cy="16.29" r="15" style="fill:#ffec00"/><path d="M6.47 10.8h2.11v.13a.7.7 0 0 0-.11.38 1.2 1.2 0 0 0 0 .31L9.44 16l1.17-5.25h1.06L12.74 16l1-4.27a1.5 1.5 0 0 0 .08-.46.67.67 0 0 0-.08-.35v-.12h2.08v.1a2.2 2.2 0 0 0-.27.64l-2.15 10h-1.06l-1.28-6.1-1.31 6.1H8.64L6.75 11.7a2.3 2.3 0 0 0-.28-.79ZM16.76 10.8h2.11v.13a.63.63 0 0 0-.11.38 1.2 1.2 0 0 0 0 .31l.97 4.38 1.17-5.25H22L23 16l1-4.27a1.9 1.9 0 0 0 .08-.46.8.8 0 0 0-.08-.35v-.12h2.08v.1a2 2 0 0 0-.28.64l-2.14 10h-1.04l-1.27-6.1L20 21.58h-1.07L17 11.7a2.2 2.2 0 0 0-.27-.79Z" class="cls-2"/></svg>