<svg xmlns="http://www.w3.org/2000/svg" width="40" height="40" data-name="Layer 1"><circle cx="19.98" cy="20" r="19.62"/><path fill="#fff" d="M22.08 17a5 5 0 0 0-1.53-.21c-1.5 0-2.25 1.11-2.25 3.34s.78 3.13 2.32 3.13a3.6 3.6 0 0 0 1.25-.26 5 5 0 0 0 1-.48l.34-.23.79 1.19-.16.16c-.08.07-.23.19-.47.36a6 6 0 0 1-.76.45 5.5 5.5 0 0 1-1 .36 4.8 4.8 0 0 1-1.19.16 4.2 4.2 0 0 1-3.23-1.23 5.18 5.18 0 0 1-1.19-3.6 5.35 5.35 0 0 1 1.24-3.75A4.32 4.32 0 0 1 20.62 15a7.5 7.5 0 0 1 1.53.16 7 7 0 0 1 1.21.32l.44.16-.07 2.59h-1.34z"/></svg>