<svg xmlns="http://www.w3.org/2000/svg" width="40" height="40" data-name="Layer 1"><circle cx="19.98" cy="20" r="19.62" fill="#ff4136"/><path fill="#fff" d="M15.07 17.49a4.7 4.7 0 0 0-1.53-.22c-1.5 0-2.25 1.11-2.25 3.34s.77 3.13 2.32 3.13a3.5 3.5 0 0 0 1.24-.24 4.8 4.8 0 0 0 1-.48l.34-.23L17 24l-.17.16a5 5 0 0 1-.47.36 4 4 0 0 1-.75.45 6 6 0 0 1-1 .36 4.5 4.5 0 0 1-1.19.16 4.18 4.18 0 0 1-3.23-1.23A5.13 5.13 0 0 1 9 20.67a5.36 5.36 0 0 1 1.24-3.74 4.33 4.33 0 0 1 3.36-1.37 8 8 0 0 1 1.52.16 7.4 7.4 0 0 1 1.22.32l.43.16-.06 2.59h-1.33zm2.63-2.61 3.09-.11v4a3.57 3.57 0 0 1 2.29-.93 2 2 0 0 1 1.57.65 2.72 2.72 0 0 1 .54 1.8v3.62l1 .34v1.09h-3.72v-1.09l.71-.33v-3.31c0-.73-.3-1.09-.9-1.09a1.6 1.6 0 0 0-.71.18 2.4 2.4 0 0 0-.57.36l-.21.18v3.67l.72.34v1.09H17.7v-1.09l1.09-.34v-7.67L17.7 16zm9.22 3.2L30 18v5.93l.95.34v1.09h-4v-1.11l1.1-.34v-4.46l-1.1-.27zm.84-2.35a1.2 1.2 0 0 1 .34-.9 1.18 1.18 0 0 1 .83-.33q1.14 0 1.14 1.23a1.18 1.18 0 0 1-.34.9 1.1 1.1 0 0 1-.8.34 1.18 1.18 0 0 1-.87-.32 1.3 1.3 0 0 1-.3-.92"/></svg>