<svg xmlns="http://www.w3.org/2000/svg" width="40" height="40" data-name="Layer 1"><circle cx="19.98" cy="20" r="19.62" fill="#232b2b"/><path fill="#fff" d="M13.91 23.62v1.19H10v-1.19l1-.34V16.8l-1-.41v-1.13l3.51-.07 2.05 4.54 2.14-4.47 3.3-.07v1.2l-1 .41v6.48l1 .34v1.19h-4v-1.19l1-.34v-5.17c-.16.43-.35.87-.56 1.33s-.46 1-.73 1.5l-.62 1.28-1.47.06-1.57-3.23-.23-.71v4.94zM28.08 17a5 5 0 0 0-1.53-.21c-1.5 0-2.25 1.11-2.25 3.34s.77 3.13 2.32 3.13a3.5 3.5 0 0 0 1.24-.26 4.8 4.8 0 0 0 1-.48l.34-.23.8 1.19-.17.16a5 5 0 0 1-.47.36 6 6 0 0 1-.75.45 6 6 0 0 1-1 .36 5 5 0 0 1-1.19.16 4.18 4.18 0 0 1-3.23-1.23 5.13 5.13 0 0 1-1.19-3.6 5.4 5.4 0 0 1 1.24-3.75A4.35 4.35 0 0 1 26.62 15a9.2 9.2 0 0 1 2.74.48l.43.16-.06 2.59h-1.34z"/></svg>