<svg xmlns="http://www.w3.org/2000/svg" width="40" height="40" data-name="Layer 1"><circle cx="19.98" cy="20" r="19.62" fill="#0080ff"/><path fill="#fff" d="M7.63 21.84 7.84 23a2.84 2.84 0 0 0 1.33.28 2.27 2.27 0 0 0 1.18-.28.93.93 0 0 0 .47-.81.78.78 0 0 0-.34-.64 2.4 2.4 0 0 0-.85-.43 10 10 0 0 1-1.11-.4 12 12 0 0 1-1.11-.54 2.3 2.3 0 0 1-.85-.88 2.6 2.6 0 0 1-.34-1.37 2.57 2.57 0 0 1 1-2.13 3.94 3.94 0 0 1 2.46-.8 8 8 0 0 1 1.43.14 9 9 0 0 1 1.16.27l.41.14-.07 2.48h-1.26L11 16.89a4 4 0 0 0-1.2-.2 1.82 1.82 0 0 0-1.06.31.81.81 0 0 0 0 1.34 2.7 2.7 0 0 0 .85.43 10 10 0 0 1 1.11.4 10 10 0 0 1 1.1.53 2.3 2.3 0 0 1 .85.84 2.46 2.46 0 0 1 .35 1.27 2.84 2.84 0 0 1-1 2.33 4 4 0 0 1-2.72.86 9.4 9.4 0 0 1-1.44-.13 10 10 0 0 1-1.19-.27l-.41-.12v-2.64zm10.76 1.77v1.19h-4.16v-1.19l1-.34V16.8l-1-.41v-1.13l3.14-.07h1.29a3.6 3.6 0 0 1 2.44.81 2.65 2.65 0 0 1 .87 2.1 3.16 3.16 0 0 1-1 2.55 4.32 4.32 0 0 1-2.88.86h-.72v1.81zm-1-6.81v3.06h.72a2 2 0 0 0 1.31-.39 1.42 1.42 0 0 0 .46-1.15 1.64 1.64 0 0 0-.36-1.1 1.3 1.3 0 0 0-1-.42zm9.25 6.81v1.19h-3.89v-1.19l1-.34V16.8l-1-.41v-1.13l3.52-.07 2 4.54 2.14-4.47 3.27-.07v1.2l-1 .41v6.47l1 .34v1.19H29.7v-1.19l1.07-.34v-5.16c-.17.42-.36.87-.57 1.32s-.45 1-.72 1.5-.48 1-.62 1.28l-1.47.07-1.57-3.23-.23-.71v4.93z"/></svg>