<svg xmlns="http://www.w3.org/2000/svg" style="width:.52in;height:.52in" viewBox="-26 -26 52 52"><circle r="25" fill="#fff" transform="rotate(45)"/><rect width="37.5" height="37.5" x="-18.75" y="-18.75" fill="#a21c40" rx="2" ry="2" transform="rotate(45)"/><path d="M3.76-2.725h1.96l.1-3.8s-2.24-.94-4.66-.94c-4.1 0-6.74 2.8-6.74 7.5 0 4.64 2.34 7.08 6.4 7.08 3.14 0 5.24-2.18 5.24-2.18l-1.1-1.8s-1.8 1.4-3.8 1.4c-2.1 0-3.4-1.36-3.4-4.6 0-3.34 1.2-4.9 3.3-4.9 1.3 0 2.24.32 2.24.32z" aria-label="C" style="font-style:normal;font-variant:normal;font-weight:700;font-stretch:normal;font-size:20px;font-family:Bitter;-inkscape-font-specification:&quot;Bitter Bold&quot;;font-variant-ligatures:normal;font-variant-caps:normal;font-variant-numeric:normal;font-variant-east-asian:normal;text-anchor:middle;fill:#fff;stroke:none;stroke-width:.5"/><circle r="25" fill="none" stroke="#000"/></svg>