<svg xmlns="http://www.w3.org/2000/svg" xml:space="preserve" width="64.374" height="59.596" style="shape-rendering:geometricPrecision;text-rendering:geometricPrecision;image-rendering:optimizeQuality;fill-rule:evenodd;clip-rule:evenodd" viewBox="0 0 308 285"><defs><style>.fil2{fill:#000;fill-rule:nonzero}</style></defs><g id="Ebene_x0020_1"><path d="M32 14h237c0 7 1 13 5 18 4 6 10 8 18 9-2 23-6 46-13 70-6 24-16 47-27 68q-18 31.5-42 57c-17 16-36 28-57 35-48-21-82-51-102-91-21-40-33-87-37-139 5 0 10-4 14-10 3-7 5-13 4-17" style="fill:#cc6f3c"/><path d="M20 0h264c-1 8 1 14 5 20 5 6 11 9 19 10-1 25-6 51-13 77-8 27-18 52-31 76s-28 45-47 63c-18 18-39 31-62 39-53-23-91-56-114-101S4 88 0 30q9 0 15-12c5-7 6-13 5-18m31 29c1 4-1 9-4 15q-6 9-12 9c3 46 14 86 32 121 18 36 47 62 89 80 36-13 65-39 85-81 20-41 32-81 34-120-13-2-20-10-19-24H51m3 21c3 0 5 2 5 4 0 3-2 5-5 5-2 0-3-2-3-5 0-2 1-4 3-4m201 0c3 0 5 2 5 4 0 3-2 5-5 5-2 0-3-2-3-5 0-2 1-4 3-4m-98 179c2 0 3 2 3 5q0 3-3 3c-3 0-5-1-5-3 0-3 2-5 5-5" style="fill:#2b2a29;fill-rule:nonzero"/><path d="M107 122h19c-1-4-3-8-4-12-2-4-3-8-5-12-2 4-3 8-5 12s-3 8-5 12m55 27c-3 3-6 5-8 6-3 1-5 1-7 1-3 0-6-1-8-3-2-3-4-9-7-18h-30c-2 4-3 6-4 9-1 2-1 4-1 6v3c-1 1-3 2-5 3h-6c-3 0-5 0-7-2-1-1-2-3-2-5 0-3 4-12 11-27 8-14 14-27 19-39-1-1-2-2-2-3l-2-2c3-1 5-2 7-3 3-1 5-1 7-1q6 0 9 3c2 1 4 5 7 9 0 2 3 8 7 19q6 15 12 27c1 4 3 7 5 10s3 5 5 7" class="fil2"/><path id="1" d="M231 135c2 2 3 4 4 6 0 2 1 3 1 5 0 4-2 7-6 8-4 2-10 3-17 3-14 0-26-3-34-11-9-8-13-17-13-30 0-6 1-12 4-18q4.5-7.5 12-15c5-3 10-6 17-8 6-2 13-3 19-3s10 1 13 2c3 2 4 4 4 7 0 1-1 3-1 5-1 2-2 4-4 6-2-1-4-2-6-2-3-1-5-1-8-1-9 0-15 2-20 7s-8 11-8 19c0 7 2 14 7 18 5 5 11 7 19 7 3 0 6 0 9-1s5-2 8-4" class="fil2"/></g></svg>