<svg xmlns="http://www.w3.org/2000/svg" xml:space="preserve" viewBox="0 0 214 246"><path fill="#2c2b2a" d="M1 155c0-.444 0-.889.323-1.263.689-.957 1.376-1.99 1.356-3.009-.053-2.647-.623-5.288-.625-7.932Q1.988 74.6 2.06 6.408c.002-1.533.589-3.065 1.367-4.517 66.856.089 133.247.098 199.638.099.994 0 1.988-.11 3.31.051.475 1.784.623 3.348.665 5.374-.09 46.848-.075 93.233-.099 139.996-1.36 7.261-1.19 14.945-4.35 20.842-4.826 9-8.137 19.425-17.445 25.536-2.417 1.587-4.443 3.772-6.865 5.35-9.56 6.226-18.884 12.917-28.901 18.311-12.14 6.537-25.095 11.552-37.281 18.012-5.04 2.67-8.706 3.754-14.092.704-9.463-5.359-19.543-9.622-29.325-14.423a708 708 0 0 1-21.701-11.127c-11.412-7.52-21.331-16.233-29.838-26.536-6.507-7.882-10.91-16.803-13.29-26.756-.288-1.2.059-4-2.853-2.324m186.976-77.88-2.22-5.554c-5.703.526-10.606 1.37-15.505 1.348-9.257-.043-18.51-.657-27.768-.882-4.14-.1-8.189.312-9.01 5.915 0 0-.41-.01-.662-.691-2.72-6.103-7.937-7.047-15.324-2.973 1.786 14.202-2.79 26.491-11.048 37.717-3.123-9.023-6.06-18.119-9.5-27.02-.868-2.244-3.347-3.867-5.563-6.275-5.344-8.553-12.104-9.027-17.513-1.657 2.086 3.82 4.383 7.315 5.991 11.104 4.923 11.594 9.279 23.44 14.52 34.883 1.681 3.672 5.43 6.399 8.375 10.221 4.314 6.246 8.314 6.511 13.258.116 8.734-11.297 16.257-23.387 20.898-36.996 1.14-3.343 1.177-7.062 2.03-11.091.352-.093.706-.186 1.227.435l2.128 5.557c3.837-.422 7.212-.793 10.696-.247-.33 10.447-.655 20.893-.99 31.34-.14 4.349.702 8.016 6.147 9.413 2.554 6.263 9.561 7.099 16.311 2.796-.114-14.156-.219-27.605-.336-41.054-.027-3.12 1.868-3.31 4.348-3.18 3.79.197 7.719.707 11.358-.039 4.343-.89 4.897-4.614 3.618-8.342-.797-2.323-.74-6.34-5.466-4.843M59.612 79.439c-6.927-8.59-12.538-9.777-18.672-5.068-.567 3.627-.42 6.417-1.451 8.668-6.055 13.221-12.573 26.232-18.529 39.496-2.42 5.39-.961 7.305 5.026 9.334.413 4.79 3.747 5.453 7.517 5.049 3.482-.374 6.463-.814 6.749-5.915.425-7.59 2.643-9.006 10.282-9.006 3.49 0 6.978.001 10.932.518 2.471 2.871 4.942 5.743 7.57 9.295 4.519 6.875 10.308 6.945 16.994.253-2.721-5.275-5.707-10.41-8.084-15.814-3.93-8.93-7.242-18.135-11.281-27.013-1.545-3.396-4.373-6.209-7.053-9.797m95.708-42.576-4.535 1.33c16.285 3.263 20.394 14.7 22.678 28.592 2.238-13.706 6.328-24.833 20.787-28.671-14.218-3.665-18.8-14.226-20.753-28.074-2.155 12.369-5.513 22.448-18.177 26.823M53.75 162.8l-.3-.398c-.073.297-.169.59-.214.89-1.165 7.666-4.692 13.393-13.883 15.47 9.5 2.488 12.93 8.77 14.188 17.866 2.161-8.406 4.633-15.377 13.369-17.709-8.402-2.317-11.098-8.603-13.16-16.12"/><path fill="#fefefe" d="M1 155.469c2.912-2.144 2.565.656 2.852 1.855 2.381 9.953 6.784 18.874 13.291 26.756 8.507 10.303 18.426 19.016 29.78 26.898.87 1.696 1.416 3.085 2.43 3.684 8.26 4.886 16.478 9.87 24.961 14.347C86.094 235.224 98.094 241.023 110 247H1z"/><path fill="#737372" d="M215 158.531c-1.904 6.59-3.612 12.78-5.753 18.818-4.418 12.459-13.238 21.685-23.31 29.611-18.134 14.27-39.391 23.05-59.917 33.083-4.258 2.081-8.497 4.2-12.882 6.63-.888.327-1.638.327-2.763.327-12.28-5.977-24.28-11.776-36.061-17.991-8.483-4.476-16.7-9.461-24.962-14.347-1.013-.599-1.559-1.988-2.263-3.373 7.234 3.249 14.382 6.915 21.593 10.454 9.782 4.801 19.862 9.064 29.325 14.423 5.386 3.05 9.053 1.967 14.092-.704 12.186-6.46 25.141-11.475 37.28-18.012 10.018-5.394 19.343-12.085 28.902-18.311 2.422-1.578 4.448-3.763 6.865-5.35 9.308-6.111 12.619-16.536 17.444-25.536 3.162-5.897 2.99-13.58 4.665-21.126.482-13.608.687-26.554.727-39.5.103-33.231.132-66.463.364-99.774.395-.234.54-.44 1.039-.777C211.54 6.998 213.27 7 215 7z"/><path fill="#cfcfcf" d="M206.048 1.823c-.995.058-1.989.167-2.983.167-66.391-.001-132.782-.01-199.635-.302C2.967 1.405 3 1 3 1c67.354 0 134.708 0 202.556.205.494.205.492.618.492.618"/><path fill="#f0f0ef" d="M2.5 1c.5 0 .467.405.465.608-.316 1.735-.903 3.267-.905 4.8Q1.988 74.6 2.054 142.796c.002 2.644.572 5.285.625 7.932.02 1.02-.667 2.052-1.356 2.676C1 103.667.993 54.334 1.042 5c.001-1.334.625-2.667 1.458-4"/><path fill="#fcfcfc" d="M206.375 2.041c-.327-.218-.325-.631-.35-.836C208.897 1 211.795 1 215 1v5.501c-1.73.498-3.46.497-5.823.526-.634.03-1.061.062-1.3 0-.238-.063-.732-.073-.732-.073-.147-1.565-.295-3.13-.77-4.913M25.888 131.118c-5.89-1.278-7.348-3.193-4.928-8.583 5.956-13.264 12.474-26.275 18.529-39.496 1.03-2.25.884-5.041 1.45-8.668 6.135-4.71 11.746-3.521 18.842 5.706 6.566 15.964 12.965 31.29 19.77 47.592l-10.672 3.46c-2.47-2.871-4.942-5.743-7.691-9.252-.902-4.783-3.135-6.47-7.432-5.942-3.096.38-6.277.074-9.42.074-7.55 0-9.03.4-9.762 7.732-.625 6.258-3.94 7.115-8.686 7.377m17.21-28.468c-.235 1.003-.472 2.006-.954 4.052l12.448-2.463L48.78 88.86a3563 3563 0 0 1-5.682 13.79"/><path fill="#fbfbfb" d="M102.606 132.593c-2.803-3.16-6.55-5.886-8.233-9.558-5.24-11.444-9.596-23.29-14.519-34.883-1.608-3.789-3.905-7.285-5.991-11.104 5.41-7.37 12.17-6.896 17.715 2.297 3.975 12.447 7.101 24.5 13.008 36.51l2.576-3.578c7.536-11.503 12.111-23.792 10.325-37.994 7.387-4.074 12.605-3.13 15.432 3.753-.168 3.075-.203 5.43-.76 7.656-4.031 16.147-12.977 29.699-23.022 42.583-1.521 1.95-4.322 2.904-6.53 4.318"/><path fill="#fcfcfc" d="M157.917 131.087c-5.22-.701-6.06-4.368-5.921-8.717.335-10.447.66-20.893.974-32.245-.017-2.478-.017-4.052-.017-6.51l-12.96 1.392c-.352.092-.706.185-1.55.463-1.848-2.403-3.205-4.991-4.562-7.579.413-5.547 4.462-5.96 8.602-5.859 9.258.225 18.51.84 27.768.882 4.899.022 9.802-.822 15.505-1.348.56 1.399 1.39 3.477 2.256 6.298-.253 5.346-3.093 7.093-7.294 7.11-2.486.01-5.05.087-7.442-.462-4.245-.974-5.304.817-5.227 4.669.263 13.065.357 26.133.527 40.142z"/><path fill="#f8f8f8" d="M155.666 36.752c12.318-4.264 15.676-14.343 17.831-26.712 1.954 13.848 6.535 24.41 20.753 28.074-14.459 3.838-18.55 14.965-20.787 28.671-2.284-13.893-6.393-25.33-22.678-28.593 2.37-.694 3.452-1.012 4.881-1.44"/><path fill="#9d9e9e" d="M158.03 131.435c3.751-.987 7.616-1.627 10.546-2.112-.17-14.01-.264-27.077-.527-40.142-.077-3.852.982-5.643 5.227-4.669 2.392.549 4.956.471 7.442.461 4.2-.016 7.041-1.763 7.39-6.754 4.593-2.594 4.537 1.422 5.334 3.745 1.279 3.728.725 7.452-3.618 8.342-3.64.746-7.569.236-11.358.039-2.48-.13-4.375.06-4.348 3.18.117 13.449.222 26.898.336 41.054-6.75 4.303-13.757 3.467-16.424-3.144"/><path fill="#9c9d9d" d="M133.677 77.919c1.56 2.56 2.918 5.148 4.613 7.793-.208 3.602-.245 7.32-1.385 10.664-4.64 13.61-12.164 25.699-20.898 36.996-4.944 6.395-8.944 6.13-13.33-.447 2.138-1.746 4.939-2.7 6.46-4.65 10.045-12.884 18.99-26.436 23.023-42.583.556-2.225.591-4.58.885-7.316.018-.44.428-.43.632-.457"/><path fill="#9d9e9e" d="M25.937 131.494c4.698-.638 8.012-1.495 8.637-7.753.731-7.332 2.212-7.731 9.762-7.732 3.143 0 6.324.307 9.42-.074 4.297-.528 6.53 1.16 7.199 5.684-3.443.38-6.932.378-10.42.378-7.64 0-9.858 1.415-10.283 9.006-.286 5.101-3.267 5.54-6.75 5.915-3.77.404-7.103-.26-7.565-5.424"/><path fill="#f5f5f5" d="M53.849 163.077c1.962 7.24 4.658 13.526 13.06 15.843-8.736 2.332-11.208 9.303-13.37 17.709-1.257-9.096-4.688-15.378-14.187-17.866 9.19-2.077 12.718-7.804 13.883-15.47.045-.3.141-.593.214-.89.1.133.2.265.4.674"/><path fill="#9c9d9d" d="M68.958 131.47c3.734-1.577 7.547-2.813 10.593-3.801-6.805-16.302-13.204-31.628-19.552-47.338 2.293 2.696 5.12 5.51 6.666 8.905 4.039 8.878 7.352 18.082 11.28 27.013 2.378 5.403 5.364 10.54 8.085 15.814-6.686 6.692-12.475 6.622-17.072-.593"/><path fill="#cacaca" d="M207.04 7.415c.105-.461.599-.451.82-.175s.312.693.312.693c-.058 33.231-.087 66.463-.19 99.694-.04 12.946-.245 25.892-.689 39.123-.328-46.102-.343-92.487-.253-139.335"/><path fill="#9e9f9f" d="M106.8 112.139c-.268 1.014-.899 1.889-2.214 3.715-5.907-12.01-9.033-24.062-12.77-36.26 1.776 1.52 4.255 3.142 5.123 5.387 3.44 8.9 6.377 17.996 9.861 27.158"/><path fill="#9a9b9b" d="M140.078 85.363c4.035-.798 8.153-1.24 12.875-1.748 0 2.458 0 4.032-.037 6.051-3.414.818-6.79 1.19-10.626 1.611a301 301 0 0 1-2.212-5.914"/><path fill="#5f5f5e" d="M208.346 7.853c-.174.08-.266-.337-.248-.55s.445-.246.653-.197c.136.307-.01.513-.405.747"/><path fill="#9e9f9f" d="M43.256 102.292c1.76-4.262 3.364-8.168 5.525-13.432l5.81 15.38-12.447 2.462c.482-2.046.719-3.05 1.112-4.41"/></svg>