<svg xmlns="http://www.w3.org/2000/svg" viewBox="0 0 230 230"><path d="M415 337.36c0 57.99-47.01 105-105 105s-105-47.01-105-105 47.01-105 105-105 105 47.01 105 105" style="fill:red" transform="translate(-194.997 -222.36)"/><path d="M185.27 317.36h12.44q4.697-.108 7.304-2.53 2.606-2.423 3.632-5.873t.984-6.637q.053-2.822-.877-5.964t-3.473-5.378-7.33-2.338h-12.68zm5.88-23.76h5.76q1.33-.065 2.849.49 1.517.557 2.608 2.526 1.092 1.97 1.143 6.144.05 3.7-1.43 6.59t-5.09 3.05h-5.84zM212.89 303q.15 6.645 2.733 9.911c2.583 3.266 3.656 3.605 5.8 4.284q3.217 1.02 5.267.925 2.05.095 5.266-.925c3.216-1.02 4.078-2.107 5.8-4.284s2.634-5.48 2.734-9.911q-.15-6.645-2.734-9.911c-2.584-3.266-3.655-3.605-5.8-4.284q-3.217-1.02-5.266-.925-2.05-.095-5.267.925-3.216 1.019-5.8 4.284c-2.584 3.265-2.633 5.48-2.733 9.911m6 0q.183-5.904 2.685-8.035c2.502-2.13 3.372-2.089 5.115-2.005q2.613-.126 5.115 2.005 2.5 2.131 2.685 8.035-.185 5.904-2.685 8.035c-2.5 2.13-3.373 2.09-5.115 2.005q-2.614.126-5.115-2.005T218.89 303M273.88 308.64h-.08l-11.4-20h-6.32v28.72h5.6v-20.48h.08l11.72 20.48h6v-28.72h-5.6zM283.99 303q.15 6.645 2.733 9.911c2.583 3.266 3.656 3.605 5.8 4.284q3.217 1.02 5.267.925 2.05.095 5.266-.925c3.216-1.02 4.078-2.107 5.8-4.284s2.634-5.48 2.734-9.911q-.15-6.645-2.734-9.911c-2.584-3.266-3.655-3.605-5.8-4.284q-3.216-1.02-5.266-.925-2.05-.095-5.267.925-3.216 1.019-5.8 4.284c-2.584 3.265-2.633 5.48-2.733 9.911m6 0q.183-5.904 2.685-8.035c2.502-2.13 3.372-2.089 5.115-2.005q2.613-.126 5.115 2.005 2.5 2.131 2.685 8.035-.184 5.904-2.685 8.035c-2.501 2.13-3.373 2.09-5.115 2.005q-2.615.126-5.115-2.005-2.502-2.131-2.685-8.035M328.56 293.72h8.68v-5.08h-23.36v5.08h8.68v23.64h6zM216.31 373.64h-21.12v28.72h21.8v-5.08h-15.92v-7.44h14v-5.08h-14v-6.04h15.24zM239.43 393.64h-.08l-11.4-20h-6.32v28.72h5.6v-20.48h.08l11.72 20.48h6v-28.72h-5.6zM263.01 378.72h8.68v-5.08h-23.36v5.08h8.68v23.64h6zM296.39 373.64h-21.12v28.72h21.8v-5.08h-15.92v-7.44h14v-5.08h-14v-6.04h15.24zM301.99 402.36h5.88v-11.24h6.2q3.205-.027 4.005 1.25.798 1.278.675 4.19.002 2.178.17 3.5.167 1.323.47 2.3h6.64v-.76q-.92-.279-1.12-1.465t-.16-4.255q-.006-3.874-.935-5.26-.93-1.384-2.705-2.02 2.14-.76 3.285-2.595 1.143-1.833 1.155-4.245.044-1.32-.646-3.207t-2.655-3.359-5.74-1.554h-14.52zm5.88-16.08v-7.68h7.48q2.572.092 3.42 1.31t.78 2.45q.003 2.109-1.15 3.025t-3.49.895zM165 327.36h190v35H165z" style="fill:#fff" transform="translate(-146.25 -227.36)"/></svg>