<svg xmlns="http://www.w3.org/2000/svg" xml:space="preserve" viewBox="0 0 202 188"><path fill="#2c2b2a" d="M1 31c0-3.03 0-6.061.38-9.547 9.803-3.188 11.072-11.48 13.185-19.212h170.15c1.94 4.71 2.81 9.505 5.543 12.716 2.802 3.293 7.425 5.037 12.442 8.213-1.426 8.585-3.092 18.356-4.667 28.142-3.406 21.162-10.158 41.326-19.516 60.476-10.794 22.09-24.497 42.224-43.804 58.01-8.818 7.21-18.234 13.462-29.106 17.058-2.277.753-5.45.462-7.657-.554-6.565-3.02-13.01-6.378-19.22-10.08-15.172-9.044-28.121-20.549-38.962-34.632-8.305-10.788-14.263-22.735-19.568-35.07C11.35 85.941 5.784 64.438 2.968 42.212 2.492 38.452 1.665 34.736 1 31m111.71 132.294c11.569-5.62 21.401-13.47 29.438-23.47 17.584-21.879 27.262-47.441 33.75-74.33 2.278-9.442 3.32-19.181 4.953-28.937-9.581-1.623-13.282-6.98-13.121-15.466H34.266c-.36 5.922-2.37 11.066-7.158 13.888-3.025 1.783-3.453 3.64-2.949 6.318 2.923 15.503 4.915 31.273 9.122 46.425 9.367 33.737 28.59 59.987 60.745 75.945 6.565 3.258 12.015 3.761 18.683-.373"/><path fill="#dae184" d="M112.39 163.494c-6.35 3.934-11.8 3.43-18.364.173-32.156-15.958-51.378-42.208-60.745-75.945-4.207-15.152-6.2-30.922-9.122-46.425-.504-2.677-.076-4.535 2.95-6.318 4.787-2.822 6.797-7.966 7.157-13.888H167.73c-.161 8.487 3.54 13.843 13.12 15.466-1.631 9.756-2.674 19.495-4.952 28.936-6.488 26.89-16.166 52.452-33.75 74.331-8.037 10-17.87 17.85-29.759 23.67m10.04-112.866-4.927 1.77q.609.39 1.217.783c-.443 2.514-.37 5.269-1.414 7.502-6.033 12.904-12.464 25.622-18.46 38.543-1.912 4.12-.382 6.846 3.304 7.682 4.735 1.074 9.345-1.216 9.879-4.909 1.098-7.592 2.719-8.995 10.392-8.995 1.164 0 2.354.158 3.488-.026 7-1.135 11.594.585 13.805 8.362 1.69 5.942 5.916 6.977 11.513 4.463 1.894-.85 3.608-2.098 4.96-2.9-3.318-6.82-6.644-13.12-9.484-19.63-3.775-8.655-6.958-17.569-10.801-26.19-2.864-6.425-5.493-7.526-13.472-6.455M91.432 62.31c4.525-.664 4.394-4.653 4.28-7.472-.068-1.722-2.649-4.419-4.502-4.818-12.029-2.59-23.138 0-32.707 7.769-8.571 6.96-11.913 16.189-9.968 27.098 1.982 11.118 8.936 18.344 19.509 20.992 6.574 1.646 13.76 1.485 20.609 1.084 2.762-.161 6.63-2.58 7.666-4.978.985-2.278-1.07-5.87-1.804-8.953-3.56 1.115-5.883 2.042-8.295 2.566C75.218 97.991 65.3 92.32 63.292 82.6c-2.195-10.632 3.89-19.666 14.947-21.25 3.996-.573 8.218.43 13.193.96"/><path fill="#030302" d="M122.806 50.485c7.602-.928 10.23.173 13.095 6.598 3.843 8.621 7.026 17.535 10.8 26.19 2.841 6.51 6.167 12.81 9.484 19.63-1.351.802-3.065 2.05-4.959 2.9-5.597 2.514-9.823 1.479-11.513-4.463-2.21-7.777-6.804-9.497-13.805-8.362-1.134.184-2.324.026-3.488.026-7.673 0-9.294 1.403-10.392 8.995-.534 3.693-5.144 5.983-9.88 4.91-3.685-.837-5.215-3.562-3.303-7.683 5.996-12.921 12.427-25.64 18.46-38.543 1.044-2.233.971-4.988 1.414-7.502l-1.217-.783c1.642-.59 3.285-1.18 5.304-1.913m-2.488 30.618c.404.63.784 1.79 1.215 1.808 3.422.15 6.853.084 10.89.084l-6.084-16.932c-2.176 5.487-3.921 9.889-6.02 15.04"/><path fill="#040403" d="M91.004 62.187c-4.547-.407-8.769-1.41-12.765-.837-11.056 1.584-17.142 10.618-14.947 21.25 2.007 9.72 11.926 15.39 22.928 12.998 2.412-.524 4.736-1.45 8.295-2.566.734 3.083 2.789 6.675 1.804 8.953-1.037 2.398-4.904 4.817-7.666 4.978-6.85.401-14.035.562-20.61-1.084-10.572-2.648-17.526-9.874-19.508-20.992-1.945-10.91 1.397-20.138 9.968-27.098 9.569-7.77 20.678-10.359 32.707-7.769 1.853.399 4.434 3.096 4.503 4.818.113 2.819.244 6.808-4.709 7.349"/><path fill="#d3d980" d="M120.495 80.728c1.923-4.776 3.668-9.178 5.844-14.665l6.084 16.932c-4.037 0-7.468.067-10.89-.084-.43-.018-.811-1.177-1.038-2.183"/></svg>