<svg xmlns="http://www.w3.org/2000/svg" xml:space="preserve" width="56.715" height="65.348" style="shape-rendering:geometricPrecision;text-rendering:geometricPrecision;image-rendering:optimizeQuality;fill-rule:evenodd;clip-rule:evenodd" viewBox="0 0 239 276"><defs><style>.fil0,.fil1,.fil5{fill:#2b2a29}.fil1,.fil5{fill-rule:nonzero}.fil5{fill:#000}</style></defs><g id="Ebene_x0020_1"><g id="_597340864"><path d="M239 8H8v157c0 60 65 86 116 111 59-30 115-47 115-111z" class="fil0"/><path id="1" d="M8 7h231v1H8zm0 1V7zm0 157V8zm116 110v1l-5-2-5-3-5-2-5-2-5-3-5-2-5-3-5-2-5-3-5-2-5-3-4-3-5-3-5-3-4-3-4-3-4-3-4-4-4-3-4-4-3-4-4-3-2-4-3-5-3-4-2-4-2-5-1-5-1-5-1-5-1-5v-6 6l1 5 1 5 1 5 2 5 2 4 2 5 2 4 3 4 3 4 3 4 3 4 4 3 4 4 4 3 4 4 4 3 5 3 4 3 5 3 5 2 4 3 5 3 5 2 5 3 5 2 5 3 5 2 5 3 5 2 5 2zm115-110v12l-1 5-1 5-1 5-2 5-2 4-2 5-3 4-3 3-2 4-4 4-3 3-4 3-3 3-4 4-4 2-5 3-4 3-5 3-4 2-5 3-5 3-5 2-5 3-6 2-5 3-5 2-6 3-5 2-6 3-5 3v-1l5-2 6-3 5-3 5-2 6-3 5-2 5-3 6-2 5-3 5-2 4-3 5-3 5-2 4-3 4-3 4-3 4-3 4-3 4-3 3-4 3-3 3-4 3-4 2-4 3-4 1-4 2-5 2-5 1-5v-5l1-6zm0-157v157zV7zm0-1v1z" class="fil1"/><path d="M231 0H0v158c0 60 65 86 116 110 59-29 115-46 115-110z" style="fill:#ffdd02"/><path d="M0 0h231v1H0zm0 158V0h1v158zm116 110v1l-5-3-5-2-5-2-5-3-5-2-5-2-5-3-5-2-5-3-5-3-4-2-5-3-5-3-4-3-5-3-4-3-4-4-4-3-4-3-4-4-3-4-3-4-3-4-3-4-2-4-3-5-2-4-1-5-1-5-1-5-1-5v-6h1v11l1 5 1 5 2 5 2 4 2 5 2 4 3 4 3 4 3 4 4 4 3 3 4 4 4 3 4 3 4 3 5 3 4 3 5 3 5 3 5 3 5 2 5 3 4 3 5 2 5 3 5 2 5 2 5 3 5 2zm115-110h1v6l-1 6-1 5-1 5-1 5-2 5-2 4-2 4-2 4-3 4-3 4-3 3-4 4-3 3-4 3-4 3-4 3-4 3-5 3-4 3-5 2-5 3-5 2-5 3-5 2-5 3-6 2-5 3-5 3-6 2-5 3-6 3v-1l5-3 6-2 5-3 6-3 5-2 5-3 6-2 5-3 5-2 5-3 5-2 4-3 5-3 4-2 5-3 4-3 4-3 3-3 4-4 3-3 3-3 3-4 3-4 2-4 3-4 2-5 1-4 2-5 1-5 1-5v-12m1-158v158h-1V0zm-1 0h1zM105 95c-3 1-5 2-6 3-2 0-4 1-6 1-1 0-2-1-3-1-1-1-2-1-2-3-1-1-1-7-2-17V62c-3 6-7 12-10 19s-5 11-6 12c0 1-1 2-2 3-1 0-2 1-3 1s-2-1-2-1c-1 0-2-1-2-2-1-1-3-5-6-12L45 62c0 4-1 10-1 17 0 10-1 15-1 17-1 1-1 2-2 2s-2 1-4 1c-1 0-3-1-5-1l-6-3c2-5 4-11 5-18s2-15 2-25c0-2 0-3-1-5 0-1-1-3-1-4 1-1 3-2 4-3h6c2 0 4 0 6 2 2 1 4 5 7 11l4 8c4 9 7 14 8 14 0 0 2-4 6-11 2-5 4-8 5-11 3-6 5-9 7-11s4-2 6-2h6c1 1 3 2 5 3-1 2-2 3-2 6-1 2-1 5-1 8 0 8 1 15 2 21 1 7 3 12 5 17M154 85c0 2 1 3 1 4 1 1 1 2 1 3 0 3-1 4-2 5-2 1-5 2-8 2-4 0-8-1-14-1h-15c-2 0-3 0-4 1-1-1-2-3-2-4-1-1-1-2-1-3s0-2 1-4c0-1 1-2 1-3 2-3 4-6 8-10 3-5 6-8 7-9 2-4 4-6 6-9l2-4c0-1-1-1-2-2h-6c-3 0-6 0-8 1-2 0-4 0-6 1-1-1-1-3-1-4-1-1-1-2-1-3 0-2 1-3 2-4 2-1 4-2 8-2 1 0 4 0 9 1h17c2 0 3-1 4-1 1 1 2 2 2 4 1 1 1 2 1 3 0 3-3 9-10 18-4 4-7 8-9 10-2 3-4 6-5 8s-1 3-1 3c0 1 0 1 1 1 0 1 2 1 4 1 5 0 9 0 13-1 3 0 5-1 7-2" class="fil1"/><path id="2" d="M181 74h13l-3-9c-1-2-2-5-3-8-1 3-3 5-4 8zm39 20c-2 1-4 3-6 4-2 0-3 1-5 1s-4-1-5-3q-3-3-6-12h-21l-3 6c0 1-1 3-1 4v1c0 1 1 1 1 2-2 0-3 1-4 1-2 0-3 1-4 1-3 0-4-1-5-2-1 0-2-2-2-4s3-8 8-19c6-10 10-19 13-27 0-1 0-2-1-3l-1-1c2-1 3-2 5-3h5c3 0 5 0 6 2 2 1 3 3 5 7 1 1 2 5 5 13 3 7 6 13 9 19 1 3 2 5 3 7 2 2 3 4 4 6" class="fil1"/></g><path d="M239 8H8v157c0 60 65 86 116 111 59-30 115-47 115-111z" class="fil0"/><path d="M8 7h231v1H8zm0 1V7zm0 157V8zm116 110v1l-5-2-5-3-5-2-5-2-5-3-5-2-5-3-5-2-5-3-5-2-5-3-4-3-5-3-5-3-4-3-4-3-4-3-4-4-4-3-4-4-3-4-4-3-2-4-3-5-3-4-2-4-2-5-1-5-1-5-1-5-1-5v-6 6l1 5 1 5 1 5 2 5 2 4 2 5 2 4 3 4 3 4 3 4 3 4 4 3 4 4 4 3 4 4 4 3 5 3 4 3 5 3 5 2 4 3 5 3 5 2 5 3 5 2 5 3 5 2 5 3 5 2 5 2zm115-110v12l-1 5-1 5-1 5-2 5-2 4-2 5-3 4-3 3-2 4-4 4-3 3-4 3-3 3-4 4-4 2-5 3-4 3-5 3-4 2-5 3-5 3-5 2-5 3-6 2-5 3-5 2-6 3-5 2-6 3-5 3v-1l5-2 6-3 5-3 5-2 6-3 5-2 5-3 6-2 5-3 5-2 4-3 5-3 5-2 4-3 4-3 4-3 4-3 4-3 4-3 3-4 3-3 3-4 3-4 2-4 3-4 1-4 2-5 2-5 1-5v-5l1-6zm0-157v157zV7zm0-1v1z" class="fil1"/><path d="M231 0H0v158c0 60 65 86 116 110 59-29 115-46 115-110z" style="fill:#898989"/><path d="M0 0h231v1H0zm0 158V0h1v158zm116 110v1l-5-3-5-2-5-2-5-3-5-2-5-2-5-3-5-2-5-3-5-3-4-2-5-3-5-3-4-3-5-3-4-3-4-4-4-3-4-3-4-4-3-4-3-4-3-4-3-4-2-4-3-5-2-4-1-5-1-5-1-5-1-5v-6h1v11l1 5 1 5 2 5 2 4 2 5 2 4 3 4 3 4 3 4 4 4 3 3 4 4 4 3 4 3 4 3 5 3 4 3 5 3 5 3 5 3 5 2 5 3 4 3 5 2 5 3 5 2 5 2 5 3 5 2zm115-110h1v6l-1 6-1 5-1 5-1 5-2 5-2 4-2 4-2 4-3 4-3 4-3 3-4 4-3 3-4 3-4 3-4 3-4 3-5 3-4 3-5 2-5 3-5 2-5 3-5 2-5 3-6 2-5 3-5 3-6 2-5 3-6 3v-1l5-3 6-2 5-3 6-3 5-2 5-3 6-2 5-3 5-2 5-3 5-2 4-3 5-3 4-2 5-3 4-3 4-3 3-3 4-4 3-3 3-3 3-4 3-4 2-4 3-4 2-5 1-4 2-5 1-5 1-5v-12m1-158v158h-1V0zm-1 0h1z" class="fil1"/><path d="M231 0H116v268c59-29 115-46 115-110z" style="fill:#e31e24"/><path d="M116 0h115v1H116l-1-1zm-1 0h1zm1 268L115 0h1zv1zm0 1v-1zm115-111h1v6l-1 6-1 5-1 5-1 5-2 5-2 4-2 4-3 4-2 4-3 4-3 3-4 4-3 3-4 3-4 3-4 3-5 3-4 3-5 3-4 2-5 3-5 2-5 3-5 2-6 3-5 2-5 3-6 3-5 2-6 3-5 3v-1l5-3 6-2 5-3 6-3 5-2 5-3 5-2 6-3 5-2 5-3 4-2 5-3 5-3 4-2 4-3 5-3 3-3 4-3 4-4 3-3 3-3 3-4 3-4 2-4 3-4 2-5 1-4 2-5 1-5v-5l1-6zm1-158v158h-1V0zm-1 0h1z" class="fil1"/><path d="M68 132c1 1 2 2 2 4 1 1 1 2 1 3 0 3-1 5-4 6-3 2-7 2-12 2-11 0-19-2-25-8q-9-7.5-9-21c0-5 1-9 3-13s5-8 9-11c3-2 7-4 11-5q7.5-3 15-3c4 0 7 1 9 2 1 1 2 2 2 4v4c-1 2-2 3-3 5-1-1-3-2-5-2-1 0-3-1-5-1q-9 0-15 6c-3 3-5 7-5 13 0 5 2 10 5 13 4 3 8 5 14 5 2 0 4 0 6-1 2 0 4-1 6-2M80 88h31c3 0 4 0 5 1 2 1 2 2 2 4v3c-1 1-1 3-2 4-2 0-3-1-5-1s-5-1-8-1h-3c-1 0-3 1-4 1 0 1 0 3-1 6v7h14c2 0 4-1 5-1 0 1 1 2 1 2v3c0 2 0 3-2 4-1 1-3 2-5 2H95c0 5 0 10 1 14 0 3 1 6 2 8-2 1-4 1-6 2-2 0-3 1-5 1s-4-1-5-2-2-3-2-6c0-1 1-4 1-11V97c0-4-1-6-1-9M161 134c1 1 2 3 2 4v3c0 2 0 3-1 4-2 1-4 1-7 1h-8c-5 0-10 0-15 1h-1c-2 0-3-1-4-1-1-1-1-2-1-4 0 0 0-4 1-10V99c-1-4-1-7-2-9 2-1 4-1 6-2 1 0 3-1 5-1s4 1 5 2 2 3 2 6c0 1 0 5-1 12v29h14c2-1 4-1 5-2" class="fil5"/><path id="3" d="M206 118c2-1 4-2 5-2 2-1 3-1 5-1q3 0 6 3c1 1 1 4 1 7 0 9-1 14-5 18-3 3-10 4-18 4-11 0-19-2-25-7s-9-12-9-20c0-5 1-9 3-14 2-4 5-7 9-11 3-2 7-5 11-6 5-2 9-2 14-2 4 0 7 0 8 1 2 1 3 3 3 5 0 1 0 2-1 3 0 2-1 3-2 5-2-1-3-1-4-2h-5c-6 0-11 1-14 5-4 4-6 8-6 14 0 5 1 9 5 12 3 3 8 5 13 5h4c2 0 3-1 4-1v-3c1-1 1-2 1-3 0-3-1-5-1-6 0-2-1-3-2-4" class="fil5"/></g></svg>