<svg xmlns="http://www.w3.org/2000/svg" xml:space="preserve" width="64.374" height="59.596" style="shape-rendering:geometricPrecision;text-rendering:geometricPrecision;image-rendering:optimizeQuality;fill-rule:evenodd;clip-rule:evenodd" viewBox="0 0 308 285"><defs><style>.fil2{fill:#000;fill-rule:nonzero}</style></defs><g id="Ebene_x0020_1"><path d="M32 14h237c0 7 1 13 5 18 4 6 10 8 18 9-2 23-6 46-13 70-6 24-16 47-27 68q-18 31.5-42 57c-17 16-36 28-57 35-48-21-82-51-102-91-21-40-33-87-37-139 5 0 10-4 14-10 3-7 5-13 4-17" style="fill:#009846"/><path d="M20 0h264c-1 8 1 14 5 20 5 6 11 9 19 10-1 25-6 51-13 77-8 27-18 52-31 76s-28 45-47 63c-18 18-39 31-62 39-53-23-91-56-114-101S4 88 0 30q9 0 15-12c5-7 6-13 5-18m31 29c1 4-1 9-4 15q-6 9-12 9c3 46 14 86 32 121 18 36 47 62 89 80 36-13 65-39 85-81 20-41 32-81 34-120-13-2-20-10-19-24H51m3 21c3 0 5 2 5 4 0 3-2 5-5 5-2 0-3-2-3-5 0-2 1-4 3-4m201 0c3 0 5 2 5 4 0 3-2 5-5 5-2 0-3-2-3-5 0-2 1-4 3-4m-98 179c2 0 3 2 3 5q0 3-3 3c-3 0-5-1-5-3 0-3 2-5 5-5" style="fill:#2b2a29;fill-rule:nonzero"/><path d="m130 135 3 6c1 2 1 3 1 5 0 4-2 7-6 8-4 2-9 3-17 3-14 0-25-3-34-11s-13-17-13-30c0-6 2-12 4-18 3-5 7-10 13-15 4-3 10-6 16-8s13-3 20-3c5 0 10 1 12 2 3 2 4 4 4 7 0 1 0 3-1 5l-3 6c-2-1-5-2-7-2-2-1-5-1-8-1-8 0-15 2-20 7s-8 11-8 19c0 7 3 14 8 18 5 5 11 7 19 7 3 0 5 0 8-1s6-2 9-4" class="fil2"/><path id="1" d="M251 151c-3 2-6 3-8 4-3 1-5 1-8 1-2 0-3 0-5-1-1 0-2-2-3-3 0-2-1-11-1-25-1-9-1-17-1-22-4 8-9 17-14 27-4 10-7 16-8 17s-2 3-3 3c-1 1-2 2-4 2-1 0-2-1-3-1l-3-3-9-18c-4-10-9-19-13-27-1 6-1 14-1 24-1 13-1 21-2 23q-1.5 3-3 3c-1 1-3 1-5 1s-4 0-7-1-5-2-8-4c3-6 5-15 6-25 2-10 3-21 3-35 0-2-1-5-1-7s-1-4-2-5c2-2 4-3 7-4 2-1 4-1 7-1q4.5 0 9 3c2 2 6 7 10 16l5 10c6 14 10 21 11 21s4-6 9-17c3-6 5-11 7-15q6-10.5 9-15 4.5-3 9-3c3 0 5 0 8 1 2 1 4 2 7 4-2 2-2 4-3 7 0 3-1 8-1 13 0 10 1 20 3 29 1 9 3 17 6 23" class="fil2"/></g></svg>