<svg xmlns="http://www.w3.org/2000/svg" xml:space="preserve" width="56.715" height="65.348" style="shape-rendering:geometricPrecision;text-rendering:geometricPrecision;image-rendering:optimizeQuality;fill-rule:evenodd;clip-rule:evenodd" viewBox="0 0 239 276"><defs><style>.fil0,.fil1{fill:#2b2a29}.fil1{fill-rule:nonzero}</style></defs><g id="Ebene_x0020_1"><g id="_912807264"><path d="M239 8H8v157c0 60 65 86 116 111 59-30 115-47 115-111z" class="fil0"/><path id="1" d="M8 7h231v1H8zm0 1V7zm0 157V8zm116 110v1l-5-2-5-3-5-2-5-2-5-3-5-2-5-3-5-2-5-3-5-2-5-3-4-3-5-3-5-3-4-3-4-3-4-3-4-4-4-3-4-4-3-4-4-3-2-4-3-5-3-4-2-4-2-5-1-5-1-5-1-5-1-5v-6 6l1 5 1 5 1 5 2 5 2 4 2 5 2 4 3 4 3 4 3 4 3 4 4 3 4 4 4 3 4 4 4 3 5 3 4 3 5 3 5 2 4 3 5 3 5 2 5 3 5 2 5 3 5 2 5 3 5 2 5 2zm115-110v12l-1 5-1 5-1 5-2 5-2 4-2 5-3 4-3 3-2 4-4 4-3 3-4 3-3 3-4 4-4 2-5 3-4 3-5 3-4 2-5 3-5 3-5 2-5 3-6 2-5 3-5 2-6 3-5 2-6 3-5 3v-1l5-2 6-3 5-3 5-2 6-3 5-2 5-3 6-2 5-3 5-2 4-3 5-3 5-2 4-3 4-3 4-3 4-3 4-3 4-3 3-4 3-3 3-4 3-4 2-4 3-4 1-4 2-5 2-5 1-5v-5l1-6zm0-157v157zV7zm0-1v1z" class="fil1"/><path d="M231 0H0v158c0 60 65 86 116 110 59-29 115-46 115-110z" style="fill:#ffdd02"/><path d="M0 0h231v1H0zm0 158V0h1v158zm116 110v1l-5-3-5-2-5-2-5-3-5-2-5-2-5-3-5-2-5-3-5-3-4-2-5-3-5-3-4-3-5-3-4-3-4-4-4-3-4-3-4-4-3-4-3-4-3-4-3-4-2-4-3-5-2-4-1-5-1-5-1-5-1-5v-6h1v11l1 5 1 5 2 5 2 4 2 5 2 4 3 4 3 4 3 4 4 4 3 3 4 4 4 3 4 3 4 3 5 3 4 3 5 3 5 3 5 3 5 2 5 3 4 3 5 2 5 3 5 2 5 2 5 3 5 2zm115-110h1v6l-1 6-1 5-1 5-1 5-2 5-2 4-2 4-2 4-3 4-3 4-3 3-4 4-3 3-4 3-4 3-4 3-4 3-5 3-4 3-5 2-5 3-5 2-5 3-5 2-5 3-6 2-5 3-5 3-6 2-5 3-6 3v-1l5-3 6-2 5-3 6-3 5-2 5-3 6-2 5-3 5-2 5-3 5-2 4-3 5-3 4-2 5-3 4-3 4-3 3-3 4-4 3-3 3-3 3-4 3-4 2-4 3-4 2-5 1-4 2-5 1-5 1-5v-12m1-158v158h-1V0zm-1 0h1zM105 95c-3 1-5 2-6 3-2 0-4 1-6 1-1 0-2-1-3-1-1-1-2-1-2-3-1-1-1-7-2-17V62c-3 6-7 12-10 19s-5 11-6 12c0 1-1 2-2 3-1 0-2 1-3 1s-2-1-2-1c-1 0-2-1-2-2-1-1-3-5-6-12L45 62c0 4-1 10-1 17 0 10-1 15-1 17-1 1-1 2-2 2s-2 1-4 1c-1 0-3-1-5-1l-6-3c2-5 4-11 5-18s2-15 2-25c0-2 0-3-1-5 0-1-1-3-1-4 1-1 3-2 4-3h6c2 0 4 0 6 2 2 1 4 5 7 11l4 8c4 9 7 14 8 14 0 0 2-4 6-11 2-5 4-8 5-11 3-6 5-9 7-11s4-2 6-2h6c1 1 3 2 5 3-1 2-2 3-2 6-1 2-1 5-1 8 0 8 1 15 2 21 1 7 3 12 5 17M154 85c0 2 1 3 1 4 1 1 1 2 1 3 0 3-1 4-2 5-2 1-5 2-8 2-4 0-8-1-14-1h-15c-2 0-3 0-4 1-1-1-2-3-2-4-1-1-1-2-1-3s0-2 1-4c0-1 1-2 1-3 2-3 4-6 8-10 3-5 6-8 7-9 2-4 4-6 6-9l2-4c0-1-1-1-2-2h-6c-3 0-6 0-8 1-2 0-4 0-6 1-1-1-1-3-1-4-1-1-1-2-1-3 0-2 1-3 2-4 2-1 4-2 8-2 1 0 4 0 9 1h17c2 0 3-1 4-1 1 1 2 2 2 4 1 1 1 2 1 3 0 3-3 9-10 18-4 4-7 8-9 10-2 3-4 6-5 8s-1 3-1 3c0 1 0 1 1 1 0 1 2 1 4 1 5 0 9 0 13-1 3 0 5-1 7-2" class="fil1"/><path id="2" d="M181 74h13l-3-9c-1-2-2-5-3-8-1 3-3 5-4 8zm39 20c-2 1-4 3-6 4-2 0-3 1-5 1s-4-1-5-3q-3-3-6-12h-21l-3 6c0 1-1 3-1 4v1c0 1 1 1 1 2-2 0-3 1-4 1-2 0-3 1-4 1-3 0-4-1-5-2-1 0-2-2-2-4s3-8 8-19c6-10 10-19 13-27 0-1 0-2-1-3l-1-1c2-1 3-2 5-3h5c3 0 5 0 6 2 2 1 3 3 5 7 1 1 2 5 5 13 3 7 6 13 9 19 1 3 2 5 3 7 2 2 3 4 4 6" class="fil1"/></g><path d="M239 8H8v157c0 60 65 86 116 111 59-30 115-47 115-111z" class="fil0"/><path d="M8 7h231v1H8zm0 1V7zm0 157V8zm116 110v1l-5-2-5-3-5-2-5-2-5-3-5-2-5-3-5-2-5-3-5-2-5-3-4-3-5-3-5-3-4-3-4-3-4-3-4-4-4-3-4-4-3-4-4-3-2-4-3-5-3-4-2-4-2-5-1-5-1-5-1-5-1-5v-6 6l1 5 1 5 1 5 2 5 2 4 2 5 2 4 3 4 3 4 3 4 3 4 4 3 4 4 4 3 4 4 4 3 5 3 4 3 5 3 5 2 4 3 5 3 5 2 5 3 5 2 5 3 5 2 5 3 5 2 5 2zm115-110v12l-1 5-1 5-1 5-2 5-2 4-2 5-3 4-3 3-2 4-4 4-3 3-4 3-3 3-4 4-4 2-5 3-4 3-5 3-4 2-5 3-5 3-5 2-5 3-6 2-5 3-5 2-6 3-5 2-6 3-5 3v-1l5-2 6-3 5-3 5-2 6-3 5-2 5-3 6-2 5-3 5-2 4-3 5-3 5-2 4-3 4-3 4-3 4-3 4-3 4-3 3-4 3-3 3-4 3-4 2-4 3-4 1-4 2-5 2-5 1-5v-5l1-6zm0-157v157zV7zm0-1v1z" class="fil1"/><path d="M231 0H0v158c0 60 65 86 116 110 59-29 115-46 115-110z" style="fill:#ef7f1a"/><path d="M0 0h231v1H0zm0 158V0h1v158zm116 110v1l-5-3-5-2-5-2-5-3-5-2-5-2-5-3-5-2-5-3-5-3-4-2-5-3-5-3-4-3-5-3-4-3-4-4-4-3-4-3-4-4-3-4-3-4-3-4-3-4-2-4-3-5-2-4-1-5-1-5-1-5-1-5v-6h1v11l1 5 1 5 2 5 2 4 2 5 2 4 3 4 3 4 3 4 4 4 3 3 4 4 4 3 4 3 4 3 5 3 4 3 5 3 5 3 5 3 5 2 5 3 4 3 5 2 5 3 5 2 5 2 5 3 5 2zm115-110h1v6l-1 6-1 5-1 5-1 5-2 5-2 4-2 4-2 4-3 4-3 4-3 3-4 4-3 3-4 3-4 3-4 3-4 3-5 3-4 3-5 2-5 3-5 2-5 3-5 2-5 3-6 2-5 3-5 3-6 2-5 3-6 3v-1l5-3 6-2 5-3 6-3 5-2 5-3 6-2 5-3 5-2 5-3 5-2 4-3 5-3 4-2 5-3 4-3 4-3 3-3 4-4 3-3 3-3 3-4 3-4 2-4 3-4 2-5 1-4 2-5 1-5 1-5v-12m1-158v158h-1V0zm-1 0h1zM87 132c1 1 2 2 2 4 1 1 1 2 1 3 0 3-2 5-4 6-3 2-7 2-13 2-10 0-18-2-24-8q-9-7.5-9-21c0-5 1-9 3-13s5-8 9-11c3-2 7-4 11-5q7.5-3 15-3c4 0 7 1 8 2 2 1 3 2 3 4v4c-1 2-2 3-3 5-1-1-3-2-5-2-1 0-3-1-5-1q-9 0-15 6c-3 3-5 7-5 13 0 5 2 10 5 13s8 5 14 5c2 0 4 0 6-1 2 0 4-1 6-2M114 117h2q6 0 9-3c3-2 4-4 4-7q0-4.5-3-6c-1-2-4-2-7-2h-4v9c0 3-1 6-1 9m38 19c0 4-2 7-3 9-2 1-4 2-6 2-3 0-7-3-13-11-1-1-2-2-2-3-3-2-4-4-6-5-1-1-3-2-4-2h-2s-1 0-1 1v10c1 3 1 5 2 7-2 1-4 1-6 2-1 0-3 1-5 1s-4-1-5-2-2-3-2-7c0-1 0-4 1-10V97c-1-4-1-7-2-8h5c3 0 7-1 12-1h9c6 0 11 1 14 4q6 4.5 6 12c0 4-1 7-3 10-3 3-6 6-10 7 3 1 6 3 9 6l1 1 6 6c2 1 4 2 5 2M173 136h4c3 0 6-1 8-2q3-1.5 3-6c0-2-1-4-3-5s-5-2-8-2h-4v15m0-24h4c3 0 6 0 8-2 2-1 3-3 3-5 0-3-1-4-3-6-2-1-4-2-7-2h-5v15m17 5c4 1 7 2 9 4s3 5 3 8c0 5-2 9-8 13-5 3-12 5-21 5-5 0-9-1-11-2s-3-3-3-7c0-1 0-5 1-11v-17c0-5 0-10-1-14 0-3-1-6-1-8 5 0 11 0 17-1h3c7 0 14 2 18 4q6 4.5 6 12c0 3-1 6-3 8-2 3-5 4-9 6" class="fil1"/></g></svg>