<svg xmlns="http://www.w3.org/2000/svg" xml:space="preserve" viewBox="0 0 202 187"><path fill="#2c2b29" d="M104 188c-1.067 0-2.133 0-3.71-.35-5.56-2.8-10.97-4.714-15.586-7.808-10.076-6.755-20.262-13.509-29.476-21.351-16.447-14-26.92-32.37-35.153-52.07a244.9 244.9 0 0 1-17.107-64.23C2.497 38.436 1.665 34.728 1 31c0-3.03 0-6.061.38-9.547 9.8-3.186 11.066-11.474 13.198-19.24h170.143c1.917 4.64 2.804 9.402 5.519 12.627 2.78 3.303 7.351 5.1 12.513 8.448-1.885 11.24-3.414 24.02-6.258 36.499-4.945 21.7-12.425 42.491-23.336 62.082-7.57 13.592-16.587 25.994-27.013 37.386C134.394 172.096 120.098 181.422 104 188m46.302-59.204c17.016-28.372 27.4-58.867 29.958-91.027-3.806-2.478-7.501-3.869-9.58-6.524-2.082-2.66-2.55-6.585-3.811-10.205H36.22c-3.356 5.33-5.41 10.418-9.064 13.754-2.466 2.252-3.522 3.948-2.977 6.816 2.943 15.495 4.95 31.257 9.17 46.401 9.665 34.703 29.84 61.261 63.192 76.832 4.458 2.081 8.137 2.315 12.646.267 17.218-7.821 30.44-20.058 41.115-36.314"/><path fill="#f5a947" d="M150.124 129.111c-10.497 15.94-23.719 28.178-40.937 35.999-4.51 2.048-8.188 1.814-12.646-.267-33.353-15.57-53.527-42.129-63.193-76.832-4.218-15.144-6.226-30.906-9.17-46.4-.544-2.869.512-4.565 2.978-6.817 3.654-3.336 5.708-8.425 9.064-13.754H166.87c1.262 3.62 1.73 7.544 3.811 10.205 2.079 2.655 5.774 4.046 9.58 6.524-2.558 32.16-12.942 62.655-30.136 91.342m-.643-70.108 12.332 1.083c.393-1.758.966-3.507 1.144-5.294.338-3.413-1.435-5.744-4.761-5.678-10.055.198-20.103.783-30.164 1.218 0 15.906.102 31.51-.069 47.111-.045 4.119 1.404 5.717 5.506 5.61 6.983-.182 13.976.047 20.962-.078 7.773-.14 9.55-3.566 5.89-9.825l-18.209 1.063v-14.21c4.126 0 7.929.07 11.728-.015 6.937-.155 8.69-3.22 5.67-9.357h-17.16V59.004zM76.805 48.271c-5.752.585-11.77.28-17.206 1.916-18.235 5.488-26.21 25.82-16.644 41.19 6.147 9.877 20.327 14.856 33.686 11.83 8.127-1.842 9.561-6.369 3.857-12.774-8.407 3.508-16.74 4.556-23.702-3.057-4.512-4.934-5.332-13.613-1.81-19.688 6.033-10.404 15.555-9.655 25.247-7.167 4.338-7.571 3.815-9.806-3.428-12.25m40.854 10.943c.499-2.92 2.39-7.076 1.16-8.459-1.721-1.937-6.062-2.98-8.753-2.304-4.663 1.174-9.564 3.187-13.217 6.228-8.443 7.03-7.71 16.92 1.001 23.608 2.63 2.019 5.487 3.814 7.8 6.147 1.226 1.235 2.515 3.852 1.983 5.049-.803 1.808-3.054 3.894-4.902 4.12-3.443.42-7.04-.416-11.927-.849 0 2.525-1.045 6.142.303 8.16 1.273 1.904 5.28 3.29 7.7 2.839 4.728-.883 9.826-2.332 13.63-5.109 9.004-6.572 8.719-17.511.079-24.493-2.451-1.98-5.167-3.694-7.352-5.931-3.734-3.825-2.327-8.206 2.947-8.963 2.882-.413 5.914.208 9.548-.043"/><path fill="#030201" d="M149.014 59.004h-6.664V70.63h17.16c3.02 6.137 1.267 9.202-5.67 9.357-3.8.084-7.602.015-11.728.015v14.21l18.209-1.063c3.66 6.26 1.883 9.685-5.89 9.825-6.986.125-13.979-.104-20.962.078-4.102.107-5.55-1.491-5.506-5.61.17-15.6.069-31.205.069-47.111 10.061-.435 20.109-1.02 30.164-1.218 3.326-.066 5.099 2.265 4.76 5.678-.177 1.787-.75 3.536-1.143 5.294-4.237-.372-8.285-.727-12.8-1.082"/><path fill="#050301" d="M77.218 48.366c6.83 2.35 7.352 4.585 3.014 12.156-9.692-2.488-19.214-3.237-25.246 7.167-3.523 6.075-2.703 14.754 1.81 19.688 6.96 7.613 15.294 6.565 23.701 3.057 5.704 6.405 4.27 10.932-3.857 12.774-13.36 3.026-27.54-1.953-33.686-11.83-9.565-15.37-1.591-35.702 16.644-41.19 5.436-1.635 11.454-1.331 17.62-1.822M117.323 59.418c-3.3.048-6.33-.573-9.213-.16-5.274.757-6.68 5.138-2.947 8.963 2.185 2.237 4.9 3.95 7.352 5.931 8.64 6.982 8.925 17.921-.079 24.493-3.804 2.777-8.902 4.226-13.63 5.109-2.42.451-6.427-.935-7.7-2.84-1.348-2.017-.303-5.634-.303-8.159 4.888.433 8.484 1.268 11.927.849 1.848-.226 4.099-2.312 4.902-4.12.532-1.197-.757-3.814-1.982-5.05-2.314-2.332-5.17-4.127-7.8-6.146-8.712-6.688-9.445-16.579-1.002-23.608 3.653-3.04 8.554-5.054 13.217-6.228 2.69-.677 7.032.367 8.753 2.304 1.23 1.383-.661 5.54-1.495 8.662"/></svg>