<svg xmlns="http://www.w3.org/2000/svg" xml:space="preserve" viewBox="0 0 214 246"><path fill="#2d2c2a" d="M215 158.531c-1.959 6.658-3.776 12.896-5.907 19.026-4.318 12.42-13.12 21.563-23.134 29.355-22.024 17.139-48.222 26.759-72.851 39.741-.858.347-1.608.347-2.733.347-12.276-5.987-24.36-11.642-36.025-18.057-11-6.05-21.59-12.851-32.275-19.459-1.295-.8-2.062-2.453-2.743-3.991 1.76.518 3.169 1.352 4.62 2.108 20.027 10.442 40.06 20.874 60.457 31.407 4.723-1.924 9.181-3.761 13.426-6.003 18.65-9.85 37.87-18.812 55.694-29.995 22.902-14.368 34.215-35.917 33.577-63.45-.39-16.823-.055-33.663-.076-50.495-.037-28.995-.098-57.99-.103-87.253.054-.45.064-.63.073-.812 0 0 .5 0 .737.444.237 2.015.237 3.586.237 5.556H215z"/><path fill="#36332e" d="M2.979 157.87c-.422-1.538-.843-3.075-1.622-4.741C1 103.667.992 54.333 1.042 5c.001-1.334.625-2.667 1.446-3.798.488.203.472.608.135.889-.429 1.6-.6 2.921-.6 4.242-.011 45.564-.036 91.13.038 136.694.008 4.948.598 9.895.918 14.843"/><path fill="#9b644d" d="M206.531 1c.46.181.45.362-.064.787-12.12.233-23.735.193-35.35.218-23.06.05-46.12.137-69.189.109-.007-.1.05-.291.05-.497S102 1 102 1z"/><path fill="#534a39" d="M101.531 1c.469 0 .446.411-.016.68-33.16.222-65.857.176-98.555.13 0 0 .016-.405.028-.608C35.688 1 68.375 1 101.531 1"/><path fill="#d7b56d" d="M2.623 2.09c33.035-.234 65.732-.188 98.892-.205.463-.062.406.13.432.677.352 23.43.678 46.312.758 69.462.423 5.973 1.09 11.677 1.787 17.622-15.862-3.049-25.169.615-29.599 11.184-4.371 10.428-1.325 20.4 8.246 27.106 4.847 7.505 11.977 7.704 20.906 6.324v104.65c-20.032-10.435-40.066-20.867-60.094-31.31-1.45-.755-2.86-1.59-4.629-2.463-6.998-5.902-14.06-11.332-20.212-17.65-7.946-8.16-12.919-18.218-15.904-29.464-.547-5.1-1.137-10.048-1.145-14.996-.074-45.565-.05-91.13-.038-136.694 0-1.32.171-2.641.6-4.242m62.341 98.054-.867-5.31c-4.554 0-8.32 0-12.088-.87v-6.228l19.734 1.202c4.048-6.755 2.973-10.565-3.719-12.711-.141-3.887-2.718-5.159-6.015-5.19-10.243-.097-20.489-.036-30.945-.036.36 6.665.935 11.929.87 17.184-.134 10.956-.551 21.91-.966 32.86-.167 4.431 1.23 7.478 6.05 8.856 2.666 6.33 7.375 6.964 16.62 2.188-.396-2.075-1.05-4.164-1.147-6.278-.213-4.61-1.076-9.552.326-13.679.482-1.417 6.908-.936 10.628-1.107 7.068-.324 9.305-4.201 5.935-10.596-1.437.177-2.894.356-4.416-.285M43.767 179.71l10.893 12.11c1.717-5.852 4.722-11.743 12.79-13.584-8.81-2.017-11.862-8.658-13.8-16.41-1.142 7.927-5.065 13.47-13.264 16.26 1.568.727 2.16 1.002 3.381 1.624"/><path fill="#f08365" d="M104.409 239.008c-.364-34.785-.364-69.471-.364-104.748-8.93 1.38-16.059 1.18-20.501-6.204 6.838 2.062 12.807 1.089 18.553-2.936.656 2.548.993 4.851 1.329 7.154l1.978 1.607c.901-1.71 1.803-3.422 2.943-5.165.238-.033.646.223.654.603 1.793 5.136 3.944 5.997 8.65 4.993 4.676-.997 5.351-3.36 3.908-7.427-.588-1.658-.567-3.598-.528-5.404.275-12.777.678-25.552.92-38.33.063-3.356.05-6.956-4.878-7.552-.63-4.824-3.52-6.095-7.463-5.533-2.254.322-4.442 1.111-6.66 1.69-.325-22.882-.65-45.764-.995-69.094 23.041-.52 46.102-.606 69.162-.657 11.615-.025 23.23.015 35.305.05.51 29.02.571 58.015.608 87.01.021 16.832-.315 33.672.076 50.495.638 27.533-10.675 49.082-33.577 63.45-17.823 11.183-37.043 20.144-55.694 29.995-4.245 2.242-8.703 4.079-13.426 6.003m32.622-113.05s.02-.08.057.622c8.438 8.946 19.149 10.484 30.56 8.916 3.091-.424 6.634-1.723 8.71-3.85 1.292-1.323.567-5.02.096-7.53-.363-1.933-1.648-3.867-4.478-2.83l-3.11-6.15c-8.402 3.218-16.327 4.84-23.902-1.603-1.58-7.38-2.072-14.504 4.234-20.272 6.116-5.595 13.347-6.22 20.948-4.606 2.926.62 4.669.18 5.928-2.695 2.324-5.307 1.07-7.762-5.054-9.772-.055-3.528-2.407-4.76-5.363-5.564-13.163-3.582-31.83 4.165-38.731 15.85-5.947 10.07-6.736 27.991 9.33 39.08.237.24.523.376.775.405m23.877-92.372-9.656 4.047c14.957 2.6 19.504 13.422 22.224 25.952 2.757-12.692 7.387-23.377 23.299-26.149-15.747-3.026-21.012-13.157-23.203-27.272-2.355 9.55-4.125 17.996-12.664 23.422"/><path fill="#040302" d="M102.705 72.024c2.463-.847 4.65-1.636 6.905-1.958 3.942-.562 6.833.709 7.392 5.985.011 1.318-.006 1.815-.004 2.312.044 15.203.143 30.407.033 45.609-.008 1.17-1.233 2.8-2.334 3.385-1.701.904-3.784 1.091-5.704 1.582 0 0-.408-.256-.915-.428-2.055-1.845-3.602-3.518-5.174-5.218l-1.127 1.582c-5.426 4.27-11.395 5.243-18.307 2.83-9.902-6.475-12.948-16.447-8.577-26.875 4.43-10.569 13.737-14.233 29.599-11.184-.696-5.945-1.364-11.65-1.787-17.622m-9.893 46.877c8.12.07 10.2-1.953 10.187-9.878-.003-1.651.055-3.303.735-5.323-.67-1.602-.894-3.995-2.089-4.67-5.099-2.883-11.935-.457-14.451 4.7-3.019 6.188-1.104 12.09 5.618 15.17"/><path fill="#030201" d="M52.01 94.835h12.087c.21 1.28.538 3.295.685 6.017-2.556 1.855-4.835 3.62-7.326 4.004-3.662.565-7.477.146-11.915.146l1.681 22.072-10.232 2.093c-4.793-.643-6.19-3.69-6.022-8.12.415-10.951.832-21.905.967-32.86.064-5.256-.51-10.52-.871-17.185 10.456 0 20.702-.06 30.945.036 3.297.031 5.874 1.303 5.989 5.932-.723 2.722-1.42 4.702-1.858 5.949L46.295 81.78v13.055z"/><path fill="#ed8364" d="M37.005 129.535c3.493-1.085 7-1.803 10.217-2.461l-1.68-22.072c4.437 0 8.252.42 11.914-.146 2.491-.385 4.77-2.149 7.358-3.593 1.672-.477 3.13-.656 4.566-.833 3.37 6.395 1.133 10.272-5.935 10.596-3.72.171-10.146-.31-10.628 1.107-1.402 4.127-.539 9.068-.326 13.679.097 2.114.75 4.203 1.147 6.278-9.245 4.776-13.954 4.143-16.633-2.555"/><path fill="#fcfbf7" d="M43.453 179.536c-.906-.448-1.499-.723-3.067-1.45 8.199-2.79 12.122-8.333 13.263-16.26 1.94 7.752 4.99 14.393 13.801 16.41-8.068 1.84-11.073 7.732-12.79 13.584-3.556-3.954-7.224-8.032-11.207-12.284"/><path fill="#ec8264" d="M52.01 94.4c-1.806.435-3.613.435-5.715.435V81.78L66.14 82.92c.438-1.247 1.135-3.227 1.928-5.568 6.648 1.023 7.723 4.833 3.675 11.588l-19.734-1.202z"/><path fill="#040302" d="M135.979 125.158c-15.79-10.693-15-28.614-9.053-38.684 6.9-11.685 25.568-19.432 38.731-15.85 2.956.805 5.308 2.036 5.271 6.299-1.032 2.77-1.972 4.806-2.856 6.72-14.286-3.498-23.804-.695-28.257 7.98-4.002 7.796-1.977 16.82 5.12 22.814 7.604 5.54 15.53 3.917 23.93.7 1.074 2.122 2.092 4.136 3.12 6.859-.656 4.878-3.802 6.247-7.325 7.055-9.565 2.193-18.724.661-27.608-3.173 0 0-.02.08-.073-.16-.368-.347-.684-.453-1-.56"/><path fill="#fefbfa" d="M161.205 33.369c8.242-5.208 10.012-13.654 12.367-23.204 2.191 14.115 7.456 24.246 23.203 27.272-15.912 2.772-20.542 13.457-23.299 26.15-2.72-12.531-7.267-23.352-22.224-25.953 3.575-1.498 6.616-2.773 9.953-4.265"/><path fill="#d4b26b" d="M144.95 113.985c-7.112-5.542-9.137-14.566-5.135-22.363 4.453-8.674 13.97-11.477 28.257-7.98.884-1.913 1.824-3.949 2.907-6.344 6.166.9 7.419 3.355 5.095 8.662-1.26 2.874-3.002 3.315-5.928 2.695-7.601-1.613-14.832-.99-20.948 4.606-6.306 5.768-5.813 12.891-4.249 20.724"/><path fill="#d4b06b" d="M109 129.32c1.913-.872 3.996-1.059 5.697-1.963 1.1-.585 2.326-2.215 2.334-3.385.11-15.202.011-30.406-.033-45.609a21 21 0 0 1 .094-1.943c4.908-.225 4.922 3.375 4.858 6.732-.24 12.777-.644 25.552-.92 38.33-.038 1.805-.059 3.745.53 5.403 1.442 4.067.767 6.43-3.91 7.427-4.705 1.004-6.856.143-8.65-4.993"/><path fill="#d5b26c" d="M137.07 126.229c8.866 3.483 18.025 5.015 27.59 2.822 3.523-.808 6.67-2.177 7.422-6.708 2.724-2.094 4.01-.16 4.372 1.774.471 2.51 1.196 6.206-.096 7.53-2.076 2.126-5.619 3.425-8.71 3.85-11.411 1.567-22.122.03-30.578-9.268"/><path fill="#d3a567" d="M102.097 125.12c.132-.878.583-1.512.807-1.827 1.572 1.7 3.12 3.373 4.935 5.25-.632 1.916-1.534 3.627-2.435 5.338l-1.978-1.607c-.336-2.303-.673-4.606-1.329-7.154"/><path fill="#d5b26c" d="M136.117 125.356c.178-.091.494.015.903.365-.24.209-.527.073-.903-.365"/><path fill="#ec8163" d="M92.024 118.62c-5.934-2.8-7.849-8.702-4.83-14.89 2.516-5.157 9.352-7.583 14.451-4.7 1.195.675 1.419 3.068 1.371 4.832-8.45 1.179-11.073 4.904-10.992 14.757"/><path fill="#d6b36c" d="M92.418 118.76c-.475-9.994 2.147-13.719 10.273-14.713.363 1.673.305 3.325.308 4.976.014 7.925-2.066 9.948-10.581 9.737"/></svg>