<svg xmlns="http://www.w3.org/2000/svg" xml:space="preserve" width="56.715" height="65.348" style="shape-rendering:geometricPrecision;text-rendering:geometricPrecision;image-rendering:optimizeQuality;fill-rule:evenodd;clip-rule:evenodd" viewBox="0 0 136 156"><defs><style>.fil0,.fil1,.fil5{fill:#2b2a29}.fil1,.fil5{fill-rule:nonzero}.fil5{fill:#000}</style></defs><g id="Layer_x0020_1"><g id="_733599432"><path d="M136 4H5v90c0 33 36 48 65 62 33-17 66-26 66-62z" class="fil0"/><path id="1" d="M5 4h131zH4zM4 4h1zm0 90V4h1v90zm66 62-3-1-2-1-3-2-3-1-3-1-3-2-3-1-2-2-3-1-3-1-3-2-2-2-3-1-3-2-2-2-3-1-2-2-2-2-2-2-2-2-2-2-2-3-2-2-1-2-2-3-1-2-1-3-1-2-1-3v-6l-1-3h1v6l1 3v2l1 3 1 3 1 2 2 3 1 2 2 2 2 2 2 3 2 2 2 2 2 2 3 1 2 2 3 2 2 2 3 1 2 2 3 1 3 2 3 1 3 2 2 1 3 1 3 2 3 1 3 1 2 2zm65-62h1v3l-1 3v3l-1 3-1 3-1 3-1 2-1 2-1 3-2 2-1 2-2 2-2 2-2 2-2 2-3 1-2 2-2 2-3 1-2 2-3 1-3 2-3 1-3 2-2 1-3 1-3 2-3 1-4 2-3 1-3 2-3 1 3-1 3-2 3-1 3-2 3-1 3-2 3-1 3-2 3-1 3-2 3-1 2-2 3-1 3-2 2-1 2-2 3-2 2-1 2-2 2-2 1-2 2-2 2-2 1-3 1-2 1-3 1-2 1-3 1-3v-9m1-90v90h-1V4zm0 0" class="fil1"/><path d="M131 0H0v90c0 33 37 48 66 62 33-17 65-26 65-62z" style="fill:#ffdd02"/><path d="M0 0h131zm0 90V0zm66 62-3-1-3-1-3-2-2-1-3-1-3-2-3-1-3-2-3-1-2-2-3-1-3-2-2-1-3-2-3-2-2-2-2-1-3-2-2-2-2-2-2-2-2-3-1-2-2-2-1-3-1-2-1-3-1-3-1-2-1-3v-6 3l1 3v3l1 2 1 3 1 3 1 2 1 3 2 2 2 2 1 2 2 2 2 2 3 2 2 2 2 2 3 2 2 2 3 1 2 2 3 2 3 1 3 2 2 1 3 2 3 1 3 1 3 2 2 1 3 1 3 2zm65-62v9l-1 3-1 3-1 2-1 3-1 2-2 3-1 2-2 2-2 2-2 2-2 2-2 2-2 1-2 2-3 2-2 1-3 2-3 1-2 2-3 1-3 1-3 2-3 1-3 2-3 1-3 2-3 1-3 2-3 1 3-2 3-1 3-2 3-1 3-2 3-1 3-1 3-2 3-1 3-2 2-1 3-2 3-1 2-2 3-1 2-2 2-2 2-2 2-1 2-2 2-2 2-2 1-3 1-2 2-2 1-3 1-2 1-3v-3l1-3v-6m0-90v90zM59 54c-1 1-2 1-3 1-1 1-2 1-3 1s-2 0-2-1c-1 0-1 0-1-1-1-1-1-4-1-10v-9c-2 3-4 7-6 11s-3 6-3 7l-1 1c-1 1-1 1-2 1s-1 0-1-1c-1 0-1 0-2-1 0 0-1-3-3-7s-4-8-6-11v10c0 5 0 8-1 9 0 1 0 1-1 2h-2c-1 0-2 0-3-1-1 0-2 0-3-1 1-3 2-6 3-10 0-4 1-9 1-15 0-1-1-1-1-2s0-2-1-3c1 0 2-1 3-1s2-1 3-1 3 1 4 2c1 0 2 3 4 6 0 1 1 3 2 4 2 6 4 9 4 9 1 0 2-3 4-7l3-6c1-3 3-5 4-6s2-2 3-2 2 1 3 1 2 1 3 2c0 0-1 1-1 3v5c0 4 0 8 1 11 0 4 1 7 2 10M87 48c1 1 1 2 1 3v1c0 2 0 3-1 3-1 1-2 1-5 1h-7c-3-1-5-1-7-1h-2c-1 1-1 1-2 1-1-1-1-1-1-2-1-1-1-1-1-2s0-1 1-2c0-1 0-1 1-2 0-1 2-3 4-6 2-2 3-4 4-5 1-2 2-3 3-5 1-1 1-2 1-2 0-1 0-1-1-1h-8c-1 0-2 1-3 1 0-1-1-1-1-2v-2c0-1 0-2 1-2 1-1 2-1 4-1h18s1 1 1 2v2c0 1-2 5-6 10-2 2-3 4-4 6-2 1-3 3-3 4-1 1-1 2-1 2l1 1h2c3 0 5 0 7-1 2 0 3 0 4-1" class="fil1"/><path id="2" d="M102 42h8c-1-2-1-3-2-5 0-2-1-3-2-5 0 2-1 3-2 5 0 2-1 3-2 5m23 11c-2 1-3 2-4 2-1 1-2 1-2 1-2 0-3-1-4-2 0-1-1-3-3-7h-12c-1 2-1 3-1 4-1 1-1 2-1 2v2s-1 0-2 1h-2c-1 0-2 0-3-1 0 0-1-1-1-2s2-5 5-11 5-11 7-16v-1c-1 0-1-1-1-1 1 0 2-1 3-1h3c1 0 2 0 3 1 1 0 2 2 3 4 0 0 1 3 3 7 1 4 3 8 4 11 1 2 2 3 3 4 0 1 1 2 2 3" class="fil1"/></g><path d="M136 4H5v90c0 33 36 48 65 62 33-17 66-26 66-62z" class="fil0"/><path d="M5 4h131zH4zM4 4h1zm0 90V4h1v90zm66 62-3-1-2-1-3-2-3-1-3-1-3-2-3-1-2-2-3-1-3-1-3-2-2-2-3-1-3-2-2-2-3-1-2-2-2-2-2-2-2-2-2-2-2-3-2-2-1-2-2-3-1-2-1-3-1-2-1-3v-6l-1-3h1v6l1 3v2l1 3 1 3 1 2 2 3 1 2 2 2 2 2 2 3 2 2 2 2 2 2 3 1 2 2 3 2 2 2 3 1 2 2 3 1 3 2 3 1 3 2 2 1 3 1 3 2 3 1 3 1 2 2zm65-62h1v3l-1 3v3l-1 3-1 3-1 3-1 2-1 2-1 3-2 2-1 2-2 2-2 2-2 2-2 2-3 1-2 2-2 2-3 1-2 2-3 1-3 2-3 1-3 2-2 1-3 1-3 2-3 1-4 2-3 1-3 2-3 1 3-1 3-2 3-1 3-2 3-1 3-2 3-1 3-2 3-1 3-2 3-1 2-2 3-1 3-2 2-1 2-2 3-2 2-1 2-2 2-2 1-2 2-2 2-2 1-3 1-2 1-3 1-2 1-3 1-3v-9m1-90v90h-1V4zm0 0" class="fil1"/><path d="M131 0H0v90c0 33 37 48 66 62 33-17 65-26 65-62z" style="fill:#00a0e3"/><path d="M0 0h131zm0 90V0zm66 62-3-1-3-1-3-2-2-1-3-1-3-2-3-1-3-2-3-1-2-2-3-1-3-2-2-1-3-2-3-2-2-2-2-1-3-2-2-2-2-2-2-2-2-3-1-2-2-2-1-3-1-2-1-3-1-3-1-2-1-3v-6 3l1 3v3l1 2 1 3 1 3 1 2 1 3 2 2 2 2 1 2 2 2 2 2 3 2 2 2 2 2 3 2 2 2 3 1 2 2 3 2 3 1 3 2 2 1 3 2 3 1 3 1 3 2 2 1 3 1 3 2zm65-62v9l-1 3-1 3-1 2-1 3-1 2-2 3-1 2-2 2-2 2-2 2-2 2-2 2-2 1-2 2-3 2-2 1-3 2-3 1-2 2-3 1-3 1-3 2-3 1-3 2-3 1-3 2-3 1-3 2-3 1 3-2 3-1 3-2 3-1 3-2 3-1 3-1 3-2 3-1 3-2 2-1 3-2 3-1 2-2 3-1 2-2 2-2 2-2 2-1 2-2 2-2 2-2 1-3 1-2 2-2 1-3 1-2 1-3v-3l1-3v-6m0-90v90zm0 0" class="fil1"/><path d="M131 0H66v152c33-17 65-26 65-62z" style="fill:#fff"/><path d="M66 0h65zh-1zm-1 0h1zm0 152V0h1v152zm1 0h-1zm65-62v6l-1 3v3l-1 3-1 2-1 3-1 2-2 3-1 2-2 2-2 2-2 2-2 2-2 2-2 1-2 2-3 2-2 1-3 2-3 1-2 2-3 1-3 1-3 2-3 1-3 2-3 1-3 2-3 1-3 2-3 1 3-2 3-1 3-2 3-1 3-2 3-1 3-1 3-2 3-1 3-2 2-1 3-2 3-1 2-2 2-1 3-2 2-2 2-2 2-1 2-2 2-2 2-2 1-3 1-2 2-2 1-3 1-2v-3l1-3 1-3v-6m0-90v90zm0 0" class="fil1"/><path d="M19 50h20c1 1 1 1 1 3v1c0 1 0 2-1 3-1-1-2-1-3-1h-8v3c0 2-1 3-1 4h1c1 0 2 1 3 1 2 0 3-1 4-1h3s0 1 1 1v2c0 1-1 2-1 2-1 1-2 1-4 1h-7c0 3 0 6 1 8 0 2 0 3 1 5-1 0-2 0-3 1h-3c-1 0-2 0-3-1s-1-2-1-3v-7c0-4 1-7 1-11 0-2 0-4-1-6zM61 74v-8c-1 0-2-1-2-1h-2c-2 0-4 1-5 2s-1 3-1 5c0 1 0 3 1 4s2 1 3 1 2 0 3-1c1 0 2-1 3-2m8 8c-1 0-2 0-3 1h-2c-1 0-2 0-2-1-1 0-1-1-1-2v-1l-3 3c-2 1-3 1-5 1-3 0-5-1-7-3s-3-5-3-8c0-2 0-3 1-5 1-1 1-3 3-4 1-1 2-2 4-3 1 0 3-1 4-1s2 1 3 1 2 0 3 1v-7c-1-2-1-3-1-4 1 0 1-1 2-1h3c1 0 2 0 2 1 1 0 1 1 1 3v25c0 1 0 3 1 4M73 76c1 0 2 0 3 1h2c2 0 3 0 4-1 1 0 1-1 1-2 0-2-1-3-4-5s-5-3-5-4c-1-1-2-3-2-4s1-3 1-4c1-1 2-2 2-3 2-2 4-3 5-4 2 0 4-1 7-1 1 0 2 1 3 1 0 1 1 1 1 2s-1 2-1 3c0 0 0 1-1 2-1 0-1-1-2-1h-2c-2 0-3 0-4 1-1 0-1 1-1 2s1 3 4 5c1 0 1 0 1 1 2 1 3 2 4 3s1 3 1 4c0 2 0 3-1 4 0 2-1 3-2 4-2 1-3 2-5 3h-9c-1-1-1-2-1-3v-2c0-1 1-2 1-2" class="fil5"/><path id="3" d="M104 77h2c2 0 3 0 4-1s2-2 2-3c0-2-1-3-2-3-1-1-2-1-4-1h-2v8m0-13h2c2 0 3-1 4-1 1-1 2-2 2-4 0-1-1-2-2-3s-2-1-4-1h-2v9m9 2c2 1 4 1 5 3 2 1 2 2 2 4 0 3-1 5-4 7q-4.5 3-12 3c-3 0-6 0-7-1s-1-2-1-4V55c0-2-1-4-1-5 3 0 6 0 9-1h2c5 0 8 1 11 3 2 1 3 4 3 6s0 4-2 5c-1 1-3 2-5 3" class="fil5"/></g></svg>