<svg xmlns="http://www.w3.org/2000/svg" xml:space="preserve" viewBox="0 0 214 246"><path fill="#ae4a84" d="M1 152c0-3.03 0-6.061.355-9.782.454-2.676.636-4.661.638-6.646.054-44.442.088-88.883.582-133.384 67.465-.086 134.472-.114 201.478-.122.792 0 1.584.244 2.54.402.195 1.633.367 3.09.482 5.01-.074 44.76-.039 89.054-.172 133.349-.016 5.45-.547 10.966-1.493 16.336-3.632 20.62-15.293 36.375-32.778 46.69-21.282 12.556-43.667 23.245-65.655 34.587-1.366.704-3.694.622-5.13-.048-20.774-9.692-41.686-19.136-60.7-32.166-1.521-1.042-3.465-1.466-5.183-2.199.03-.02.008.05.04-.276-.339-.458-.71-.59-1.047-.733.034-.009.019.059.037-.255-.344-.458-.707-.602-1.035-.75.034-.006.025.062.016-.251-.374-.459-.74-.604-1.419-.864-5.257-5.06-10.659-9.638-15.017-15.056-4.102-5.099-7.575-10.853-10.45-16.745C4.453 163.694 2.983 157.722 1 152m23.208-21.568c.318.153.637.305.849.392 0 0 .085-.091.215.627 5.59 2.129 11.043 5.467 16.802 6.13 11.452 1.316 21.627 1.489 27.95-9.893 2.29 1.82 4.58 3.64 6.93 6.218.763 4.061 4.249 3.91 7.015 4.009 10.174.362 17.829-4.086 23.008-12.137-.217 4.824 2.897 6.522 6.976 8.128 1.675 1.31 3.169 3.325 5.055 3.807 7.278 1.86 18.71-2.957 22.738-9.354 4.673-7.424 5.502-17.264-5.073-22.902-3.206-2.82-6.412-5.639-9.645-9.274-.645-4.2 1.736-6.2 5.395-6.77 2.558-.399 5.236.032 7.826-.236 1.347-.14 3.167-.614 3.835-1.584 3.607-5.237 2.356-8.358-4.134-11.291-2.373-1.436-4.723-4.057-7.121-4.102-10.01-.187-17.979 4.034-23.565 12.282.03-4.175-1.818-6.82-6.314-8.18-2.203-1.435-4.34-3.973-6.62-4.107-8.393-.494-15.678 2.612-21.126 9.15-6.548 7.856-5.509 16.595 2.52 23.01 2.462 1.967 5.453 3.443 7.435 5.792 1.737 2.058 4.019 6.133 3.187 7.347-1.547 2.257-5.068 3.486-8.001 4.34-1.691.491-3.827-.704-5.787-.918-1.133-.123-2.314.196-3.545-.623-.012-2.327.243-4.694-.094-6.972-.563-3.814-1.338-7.701-6.693-8.781-3.52-5.7-8.811-6.128-15.042-1.946v17.089c-5.924 2.018-11.707 2.093-17.269-2.11-.332-1.107-.661-2.215-.998-3.32-4.51-14.784 7.757-28.106 22.865-24.833 4.45.964 6.389-.35 7.122-4.827.621-3.795-1.38-6.118-5.93-7.394-.631-3.736-3.598-4.809-6.601-4.904-4.277-.135-8.72-.163-12.838.826C21.503 76.49 11.716 84.747 8.66 99.323c-2.705 12.899 2.403 22.642 13.674 30.098.58.186 1.159.372 1.672.576 0 0-.008-.069.202.435m166.652-48.78c-.14-.271-.345-.48-1.045-1.174-3.586-5.014-8.81-7.12-14.628-7.312-9.233-.304-18.484-.08-27.371-.08.45 7.572 1.143 13.693 1.105 19.809-.064 10.292-.59 20.582-.927 30.873-.158 4.828 1.55 8.104 6.96 9.132 1.537 5.13 5.675 4.407 9.347 3.78 6.988-1.192 7.634-2.479 6.383-9.322-.472-2.584-.393-5.265-.676-7.89-.334-3.09 1.4-3.704 4.51-3.13 5.463 5.59 10.927 11.18 16.534 17.463 5.377 5.967 10.191 5.268 13.786-1.494 2.987-5.62-1.285-7.025-4.693-9.943-4.49-4.046-8.98-8.091-12.734-12.317 7.605-3.283 10.886-9.419 10.464-17.318-.243-4.559-1.436-9.226-6.88-10.723 0 0-.003.068-.135-.354m-14.77-25.83c3.016-8.694 8.653-14.721 18.11-17.229-13.396-3.448-18.245-13.338-20.774-25.433-2.694 12.888-8.13 23.044-23.351 25.181 13.585 3.358 15.114 5.13 23.51 26.468.817-2.9 1.568-5.567 2.505-8.987M58.897 184.452l7.987-5.4c-7.52-1.561-11.123-7.38-13.11-14.986-1.912 7.738-5.788 13.259-15.156 15.393 9.732 1.574 12.642 7.838 14.983 15.067 1.877-3.713 3.343-6.613 5.296-10.075"/><path fill="#2c2a2a" d="M215 158.531c-1.65 6.064-3.104 11.727-4.99 17.241-4.636 13.55-13.75 23.675-24.932 32.24-21.592 16.542-47.066 25.859-70.971 38.64-1.496.348-2.885.348-4.69.348-12.47-6.006-24.874-11.407-36.478-18.18-12.645-7.38-24.547-16.034-36.889-24.452 1.632.392 3.576.816 5.097 1.858 19.014 13.03 39.926 22.474 60.7 32.166 1.436.67 3.764.752 5.13.048 21.988-11.342 44.373-22.031 65.655-34.586 17.485-10.316 29.146-26.071 32.778-46.691.946-5.37 1.477-10.885 1.493-16.336.133-44.295.098-88.59.416-133.36.302-.474.789-.51 1.218-.49 2.44.02 4.452.022 6.463.023z"/><path fill="#382c32" d="M208.108 6.957s-.487.036-.731.046c-.417-1.446-.59-2.902-.783-4.535-.957-.158-1.749-.403-2.54-.402-67.007.008-134.014.036-201.518-.19-.51-.46-.523-.668-.536-.876 68.354 0 136.708 0 205.531.426.505 2.127.54 3.83.577 5.53"/><path fill="#342c2f" d="M1.5 1c.513.208.526.417.579.936.002 44.753-.032 89.194-.086 133.636a30.5 30.5 0 0 1-.638 6.192C1 95 1 48 1.5 1"/><path fill="#fdfcfc" d="M190.91 133.108c-5.465-5.59-10.929-11.18-16.787-17.271-2.723-3.497-5.317-5.85-9.77-4.338 0 3.01-.144 5.958.041 8.885.186 2.935.702 5.849 1.162 9.477l-10.655 2.283c-5.358-.272-7.065-3.548-6.907-8.376.338-10.29.863-20.58.927-30.873.038-6.116-.655-12.237-1.105-19.81 8.887 0 18.138-.223 27.37.081 5.82.192 11.043 2.298 14.87 7.817.384.806.616 1.001.936 1.091 0 0 .004-.068-.006.35-.181 4.915.78 9.881-.837 13.777-1.668 4.016-5.845 6.99-8.99 10.493l5.517 3.533c4.49 4.046 8.98 8.091 13.412 12.837-1.632 5.244-3.45 9.553-9.179 10.044M175.9 87.434c-2.738-1.144-5.405-2.611-8.257-3.247-.926-.207-3.285 1.69-3.365 2.747-.367 4.883-.162 9.81-.162 15.406 2.246-.501 4.074-.91 6.627-1.332 5.909-3.122 7.364-6.635 5.157-13.574M22.018 128.88C11.063 121.966 5.955 112.223 8.66 99.324c3.056-14.576 12.843-22.831 26.875-26.202 4.117-.99 8.561-.961 12.838-.826 3.003.095 5.97 1.168 6.607 5.65-.725 5.656-2.179 8.06-8.345 6.426-8.923-2.363-18.228 3.251-21.4 11.346-3.42 8.726-.706 17.902 6.712 22.7 5.53 3.36 11.313 3.284 17.237 1.266v-17.089c6.23-4.182 11.522-3.753 15.27 2.683.293 3.553.61 6.392.377 9.184-1.005 12-5.163 17.029-17.095 17.971-7.44.588-15.056-1.057-22.594-1.7 0 0-.085.092-.027-.186-.334-.391-.725-.504-1.117-.618 0 0 .008.069-.132-.192-.709-.46-1.278-.657-1.848-.855"/><path fill="#fcfbfc" d="M76.893 133.148c-2.29-1.82-4.58-3.64-6.902-6.176.343-2.391.719-4.066 1.094-5.74 1.16-.12 2.34-.44 3.473-.316 1.96.214 4.096 1.41 5.787.917 2.933-.853 6.454-2.082 8-4.339.833-1.214-1.449-5.289-3.186-7.347-1.982-2.349-4.973-3.825-7.436-5.793-8.028-6.414-9.067-15.153-2.52-23.01 5.45-6.537 12.734-9.643 21.128-9.15 2.279.135 4.416 2.673 6.654 4.834-.655 5.662-2.6 8.374-8.421 7.137-3.852-.818-8.687-.68-10.199 4.003-1.435 4.444 2.577 6.648 5.876 9.12 3.417 3.07 6.662 5.86 10.005 9.02 3.586 7.84 1.32 14.15-3.992 19.711-5.256 5.504-12.058 7.056-19.36 7.129M113.894 133.148c-4.02-.848-7.134-2.546-6.833-8.063.395-1.744.708-2.794 1.314-4.057 1.481-.114 2.67-.03 3.856.084 2.607.25 5.364 1.15 7.774.58 2.114-.5 4.704-2.296 5.464-4.174.625-1.545-.673-4.402-1.94-6.043-1.573-2.037-3.836-3.676-6.073-5.04-7.88-4.81-11.43-11.255-8.2-20.571.376-.276.459-.502.41-.775 5.184-8.855 13.154-13.076 23.163-12.889 2.398.045 4.748 2.666 7.156 4.828-.656 5.657-2.591 8.377-8.416 7.138-3.85-.82-8.682-.682-10.201 3.991-1.445 4.442 2.563 6.648 5.687 8.842 3.206 2.82 6.412 5.639 9.956 9.069 3.817 8.083 1.555 14.393-3.758 19.953-5.257 5.502-12.057 7.054-19.36 7.127"/><path fill="#fcfafb" d="M175.997 56.199c-.844 3.043-1.595 5.71-2.412 8.61-8.396-21.337-9.925-23.11-23.51-26.468 15.22-2.137 20.657-12.293 23.351-25.18 2.53 12.094 7.378 21.984 20.774 25.432-9.457 2.508-15.094 8.535-18.203 17.606"/><path fill="#766375" d="M31.931 117.996c-7.402-4.377-10.116-13.553-6.696-22.28 3.172-8.094 12.477-13.708 21.4-11.345 6.166 1.633 7.62-.77 8.432-6.068 4.456.172 6.458 2.495 5.837 6.29-.733 4.478-2.671 5.79-7.122 4.827-15.108-3.273-27.374 10.049-22.865 24.832a50 50 0 0 1 1.014 3.744"/><path fill="#766275" d="M71.049 120.762c-.34 2.144-.715 3.819-1.154 5.862-6.194 12.446-16.369 12.273-27.82 10.956-5.76-.662-11.212-4-16.868-6.488 7.473.283 15.09 1.928 22.53 1.34 11.93-.942 16.09-5.972 17.094-17.97.233-2.793-.084-5.632-.19-8.903 4.94.06 5.715 3.948 6.278 7.762.337 2.278.082 4.645.13 7.441"/><path fill="#766174" d="M108.08 121.24c-.311 1.051-.624 2.101-1.063 3.456-5.22 9.133-12.874 13.581-23.048 13.219-2.766-.099-6.252.052-7.045-4.388 7.272-.452 14.074-2.004 19.33-7.508 5.312-5.561 7.578-11.87 4.328-19.649 6.175 3.07 7.88 8.472 7.499 14.87M113.924 133.527c7.272-.452 14.072-2.004 19.33-7.506 5.312-5.56 7.574-11.87 3.996-19.715 9.998 4.789 9.17 14.63 4.496 22.053-4.027 6.397-15.46 11.213-22.738 9.354-1.886-.482-3.38-2.497-5.084-4.186"/><path fill="#fbf7f9" d="M58.654 184.732c-1.71 3.18-3.176 6.08-5.053 9.794-2.34-7.229-5.25-13.493-14.983-15.067 9.368-2.134 13.244-7.655 15.157-15.393 1.986 7.605 5.588 13.425 13.109 14.987-2.65 1.79-5.319 3.594-8.23 5.68"/><path fill="#776476" d="M154.928 132.522c3.462-1.125 6.95-1.873 10.628-2.66-.46-3.63-.976-6.543-1.162-9.478-.185-2.927-.04-5.876-.04-8.885 4.452-1.511 7.046.84 9.482 4.162-2.428.103-4.162.716-3.828 3.807.283 2.625.204 5.306.676 7.89 1.25 6.843.605 8.13-6.383 9.323-3.672.626-7.81 1.348-9.373-4.16"/><path fill="#766375" d="M187.044 110.137c-2.406-1.216-4.445-2.521-5.885-3.443 3.145-3.503 7.322-6.477 8.99-10.493 1.617-3.896.656-8.862.803-13.77 5.487 1.072 6.68 5.74 6.923 10.298.422 7.9-2.859 14.035-10.831 17.408M109.465 84.785c.25.577.167.803-.533 1.223-2.051 2.886-3.933 3.655-7.308 3.176-8.374-1.187-11.543 1.295-11.555 7.824-3.127-2.192-7.139-4.396-5.704-8.84 1.512-4.683 6.347-4.82 10.199-4.003 5.822 1.237 7.766-1.475 8.528-6.784 4.354.282 6.201 2.926 6.373 7.404M127.041 96.591c-3.11-1.786-7.118-3.992-5.673-8.434 1.52-4.673 6.352-4.81 10.201-3.991 5.825 1.24 7.76-1.48 8.523-6.785 6.348 1.854 7.599 4.975 3.992 10.212-.668.97-2.488 1.445-3.835 1.584-2.59.268-5.268-.163-7.826.236-3.659.57-6.04 2.57-5.382 7.178"/><path fill="#766175" d="M190.98 133.455c5.658-.838 7.476-5.147 9.185-10.035 3.388 1.862 7.66 3.267 4.673 8.887-3.595 6.762-8.41 7.461-13.857 1.148"/><path fill="#766275" d="M22.176 129.151c.412-.072.981.126 1.723.576-.406.066-.986-.12-1.723-.576M24.103 130.18c.287-.138.678-.025 1.065.398-.323.159-.642.007-1.065-.398"/><path fill="#766375" d="M190.926 81.863c-.254.121-.486-.074-.653-.606.242-.085.446.124.653.606"/><path fill="#2c2a2a" d="M33.975 201.762c-.3.133-.61-.046-1.013-.488.272-.116.639.03 1.013.488M34.994 202.763c-.323.138-.628-.039-1-.48.293-.122.656.022 1 .48M36.004 203.751c-.334.15-.637-.024-1.01-.461.3-.13.671.003 1.01.461"/><path fill="#756475" d="m170.018 101.022-5.903 1.318c0-5.596-.205-10.523.162-15.406.08-1.057 2.439-2.954 3.365-2.747 2.852.636 5.519 2.103 8.05 3.856-4.612.572-6.304 2.737-5.717 7.069.263 1.936.043 3.938.043 5.91"/><path fill="#ae5087" d="M170.38 101.015c-.362-1.965-.142-3.967-.405-5.903-.587-4.332 1.105-6.497 5.798-6.704 2.333 5.965.878 9.478-5.393 12.607"/><path fill="#af4d86" d="M90.24 97.287c-.159-6.808 3.01-9.29 11.384-8.103 3.375.479 5.257-.29 7.145-3.078-2.743 9.074.807 15.519 8.687 20.328 2.237 1.365 4.5 3.004 6.073 5.04 1.267 1.642 2.565 4.499 1.94 6.044-.76 1.878-3.35 3.673-5.464 4.174-2.41.57-5.167-.33-7.774-.58-1.186-.113-2.375-.198-3.856-.084.088-6.186-1.618-11.587-7.891-15.026-3.581-2.854-6.826-5.645-10.243-8.715"/></svg>