<svg xmlns="http://www.w3.org/2000/svg" xml:space="preserve" viewBox="0 0 203 187"><path fill="#2c2b2a" d="M105 188c-1.067 0-2.134 0-3.711-.35-4.534-2.353-8.574-4.32-12.576-6.365-17.369-8.873-32.283-20.724-44.826-35.757-11.163-13.379-19.09-28.513-24.78-44.732C14.11 86.55 9.714 72.01 6.334 57.306c-2.688-11.692-3.442-23.829-5.055-35.77 7.609-.952 13.086-10.48 14.137-19.346h170.306c1.904 4.592 2.804 9.332 5.505 12.569 2.768 3.316 7.3 5.16 12.492 8.596-1.849 11.105-3.335 23.898-6.198 36.373-4.98 21.695-12.41 42.513-23.35 62.108-7.586 13.59-16.586 26.006-27.01 37.404C135.407 172.09 121.106 181.423 105 188M38.998 98.97s.01-.105-.643.478c10.948 31.511 32.186 53.407 62.552 66.656 1.713.748 4.24.71 6.023.05 14.536-5.379 26.535-14.399 36.261-26.387 16.691-20.57 26.067-44.67 32.634-69.92 2.816-10.827 4.163-22.036 6.219-33.294-10.014-1.554-13.501-7.283-13.389-15.522H35.248c-.302 6.006-2.434 11.178-7.364 14.14-2.789 1.675-3.103 3.348-2.76 5.905 1.016 7.579 1.414 15.306 3.196 22.7 2.74 11.373 6.43 22.517 9.673 33.712 0 0-.016-.06.025.771.362.241.724.482.98.711"/><path fill="#f3b1b5" d="M38.036 97.533c-3.287-11.24-6.977-22.384-9.716-33.756-1.782-7.395-2.18-15.122-3.196-22.701-.343-2.557-.029-4.23 2.76-5.906 4.93-2.96 7.062-8.133 7.364-14.139h133.407c-.112 8.239 3.375 13.968 13.389 15.522-2.056 11.258-3.403 22.467-6.22 33.293-6.566 25.25-15.942 49.35-32.633 69.921-9.726 11.988-21.725 21.008-36.261 26.387-1.783.66-4.31.698-6.023-.05-30.366-13.25-51.604-35.145-61.835-67.001 1.484-.026 2.24.32 3.018.61 8.016 2.978 10.641 1.385 11.227-7.125.484-7.034.695-14.088 1.026-21.133 4.254 6.48 7.364 13.354 11.004 19.936 1.572 2.844 4.238 5.084 6.407 7.598 2.297-2.589 5.144-4.873 6.78-7.829 3.555-6.426 6.493-13.195 9.684-19.824 1.087 1.899 1.286 3.506 1.367 5.118.32 6.312.378 12.647.966 18.932.48 5.119 2.98 6.698 7.81 5.284 2.28-.667 4.386-1.928 6.497-2.886-4.87-14.637-5.838-26.37-3.754-41.922.117-.877-.34-2.213-1.003-2.75-4.295-3.482-10.393-2.747-13.655 1.767-1.836 2.539-3.283 5.38-4.723 8.179-3.016 5.863-5.912 11.788-9.324 18.624-1.528-2.669-2.625-4.45-3.591-6.299-3.383-6.478-6.48-13.12-10.15-19.428-3.094-5.32-9.299-6.598-14.264-3.343-.792.519-1.51 2.047-1.364 2.966 2.292 14.472.554 28.432-4.994 41.955m104.352-18.53h6.529c-.27 4.303-.51 7.93-.722 11.557-.58 9.904 2.555 12.351 12.009 9.358.922-.292 1.786-.765 2.684-1.157-.38-1.836-.99-3.428-.998-5.024-.06-11.278-.158-22.561.082-33.835.17-7.957-2.468-10.308-10.233-8.292-1.554.403-3.047 1.042-3.91 1.343l1.423 16.71h-24.199c.332-3.653.716-6.952.916-10.263.436-7.206-2.607-9.695-9.745-7.954-1.716.418-3.344 1.195-4.049 1.454 0 13.02.243 25.268-.075 37.502-.262 10.082 2.408 12.462 11.933 9.502.919-.286 1.751-.85 2.09-1.02-.486-6.793-.94-13.15-1.423-19.881z"/><path fill="#040303" d="M38.015 97.51c5.57-13.5 7.307-27.46 5.015-41.932-.146-.92.572-2.447 1.364-2.966 4.965-3.255 11.17-1.977 14.264 3.343 3.67 6.309 6.767 12.95 10.15 19.428.966 1.85 2.063 3.63 3.59 6.299 3.413-6.836 6.309-12.761 9.325-18.624 1.44-2.8 2.887-5.64 4.723-8.18 3.262-4.513 9.36-5.248 13.655-1.767.664.538 1.12 1.874 1.003 2.751-2.084 15.552-1.116 27.285 3.754 41.922-2.111.958-4.217 2.219-6.497 2.886-4.83 1.414-7.33-.165-7.81-5.284-.588-6.285-.647-12.62-.966-18.932-.081-1.612-.28-3.22-1.367-5.118-3.19 6.63-6.129 13.398-9.685 19.825-1.635 2.955-4.482 5.24-6.78 7.828-2.168-2.514-4.834-4.754-6.406-7.598-3.64-6.582-6.75-13.456-11.004-19.936-.331 7.045-.542 14.099-1.026 21.133-.586 8.51-3.21 10.103-11.227 7.124-.777-.289-1.534-.635-2.691-.9-.39.053-.4.158-.349-.188-.323-.63-.698-.913-1.073-1.195 0 0 .016.06.038.082"/><path fill="#f3b1b5" d="M37.997 97.844c.355-.133.73.15 1.106.785-.361.112-.723-.129-1.106-.785"/><path fill="#030202" d="M141.9 79.003h-17.2l1.424 19.881c-.34.17-1.172.734-2.091 1.02-9.525 2.96-12.195.58-11.933-9.502.318-12.234.075-24.483.075-37.502.705-.26 2.333-1.036 4.049-1.454 7.138-1.741 10.181.748 9.745 7.954-.2 3.31-.584 6.61-.916 10.263h24.2l-1.424-16.71c.863-.301 2.356-.94 3.91-1.343 7.765-2.016 10.403.335 10.233 8.292-.24 11.274-.142 22.557-.082 33.835.008 1.596.617 3.188.998 5.024-.898.392-1.762.865-2.684 1.157-9.454 2.993-12.588.546-12.009-9.358.212-3.628.452-7.254.722-11.557z"/></svg>