<svg xmlns="http://www.w3.org/2000/svg" xml:space="preserve" width="64.374" height="59.596" style="shape-rendering:geometricPrecision;text-rendering:geometricPrecision;image-rendering:optimizeQuality;fill-rule:evenodd;clip-rule:evenodd" viewBox="0 0 308 285"><defs><style>.fil2{fill:#000;fill-rule:nonzero}</style></defs><g id="Ebene_x0020_1"><path d="M32 14h237c0 7 1 13 5 18 4 6 10 8 18 9-2 23-6 46-13 70-6 24-16 47-27 68q-18 31.5-42 57c-17 16-36 28-57 35-48-21-82-51-102-91-21-40-33-87-37-139 5 0 10-4 14-10 3-7 5-13 4-17" style="fill:#a2d9f7"/><path d="M20 0h264c-1 8 1 14 5 20 5 6 11 9 19 10-1 25-6 51-13 77-8 27-18 52-31 76s-28 45-47 63c-18 18-39 31-62 39-53-23-91-56-114-101S4 88 0 30q9 0 15-12c5-7 6-13 5-18m31 29c1 4-1 9-4 15q-6 9-12 9c3 46 14 86 32 121 18 36 47 62 89 80 36-13 65-39 85-81 20-41 32-81 34-120-13-2-20-10-19-24H51m3 21c3 0 5 2 5 4 0 3-2 5-5 5-2 0-3-2-3-5 0-2 1-4 3-4m201 0c3 0 5 2 5 4 0 3-2 5-5 5-2 0-3-2-3-5 0-2 1-4 3-4m-98 179c2 0 3 2 3 5q0 3-3 3c-3 0-5-1-5-3 0-3 2-5 5-5" style="fill:#2b2a29;fill-rule:nonzero"/><path d="M186 151c-3 2-6 3-9 4-2 0-5 1-7 1s-4 0-5-1-2-2-3-4-1-10-2-25c0-9 0-16-1-22-4 8-8 17-13 27s-7 16-8 17c-1 2-2 3-3 4-2 1-3 1-4 1-2 0-3 0-4-1l-3-3c-1-1-3-7-8-17s-9-19-14-28c0 6 0 15-1 24 0 14-1 22-2 23 0 2-1 3-2 4-2 0-3 1-5 1-3 0-5-1-7-1-3-1-6-3-9-4 3-7 6-15 7-25s2-22 2-36v-6c-1-2-2-4-2-6 2-2 4-3 6-4s5-1 7-1q6 0 9 3c3 2 6 8 10 16 2 3 3 6 5 11 7 13 11 20 11 20 1 0 4-5 9-16 3-6 6-11 7-15 4-8 7-13 10-15 2-3 5-4 9-4 2 0 5 1 7 1 2 1 5 3 7 4-1 2-2 5-2 8-1 3-1 7-1 12 0 11 1 20 2 30 2 9 4 16 7 23" class="fil2"/><path id="1" d="M196 138c2 1 4 2 6 2 2 1 4 1 6 1 4 0 7-1 9-2q3-3 3-6c0-3-3-7-10-11 0 0 0-1-1-1-6-4-10-8-12-10-2-3-3-6-3-10 0-3 1-6 2-9s3-6 6-9 7-6 12-8 10-2 15-2c3 0 6 0 7 2 2 1 3 3 3 5s0 4-1 5l-3 6c-2-1-3-1-5-1-2-1-3-1-5-1-4 0-7 1-9 2-3 2-4 3-4 6s4 7 11 12c1 0 2 1 2 1 5 3 8 6 10 9s3 6 3 10-1 7-2 10c-2 3-4 6-7 9s-7 5-11 7c-4 1-9 2-13 2s-7-1-10-2c-2-2-3-4-3-7 0-2 1-4 1-5 1-2 2-4 3-5" class="fil2"/></g></svg>