<svg xmlns="http://www.w3.org/2000/svg" xml:space="preserve" width="64.374" height="59.596" style="shape-rendering:geometricPrecision;text-rendering:geometricPrecision;image-rendering:optimizeQuality;fill-rule:evenodd;clip-rule:evenodd" viewBox="0 0 308 285"><defs><style>.fil2{fill:#000;fill-rule:nonzero}</style></defs><g id="Ebene_x0020_1"><path d="M32 14h237c0 7 1 13 5 18 4 6 10 8 18 9-2 23-6 46-13 70-6 24-16 47-27 68q-18 31.5-42 57c-17 16-36 28-57 35-48-21-82-51-102-91-21-40-33-87-37-139 5 0 10-4 14-10 3-7 5-13 4-17" style="fill:#9d9e9e"/><path d="M20 0h264c-1 8 1 14 5 20 5 6 11 9 19 10-1 25-6 51-13 77-8 27-18 52-31 76s-28 45-47 63c-18 18-39 31-62 39-53-23-91-56-114-101S4 88 0 30q9 0 15-12c5-7 6-13 5-18m31 29c1 4-1 9-4 15q-6 9-12 9c3 46 14 86 32 121 18 36 47 62 89 80 36-13 65-39 85-81 20-41 32-81 34-120-13-2-20-10-19-24H51m3 21c3 0 5 2 5 4 0 3-2 5-5 5-2 0-3-2-3-5 0-2 1-4 3-4m201 0c3 0 5 2 5 4 0 3-2 5-5 5-2 0-3-2-3-5 0-2 1-4 3-4m-98 179c2 0 3 2 3 5q0 3-3 3c-3 0-5-1-5-3 0-3 2-5 5-5" style="fill:#2b2a29;fill-rule:nonzero"/><path d="M177 151c-3 2-6 3-9 4-2 1-5 1-7 1s-4 0-5-1c-2 0-3-2-3-3-1-2-2-11-2-25 0-9-1-17-1-22-4 8-9 17-13 27-5 10-8 16-9 17 0 1-2 3-3 3-1 1-2 2-3 2-2 0-3-1-4-1-1-1-2-2-3-4-1-1-4-7-8-17-5-10-10-19-14-27 0 6-1 14-1 24 0 13-1 21-2 23s-1 3-3 3c-1 1-2 1-5 1-2 0-4 0-7-1-2-1-5-2-8-4 3-6 5-15 7-25 1-10 2-22 2-35 0-2 0-5-1-7 0-2-1-4-2-5 2-2 5-3 7-4s4-1 7-1q6 0 9 3c3 2 6 7 10 16l5 10c7 14 10 21 11 21s4-6 9-17c3-6 5-11 7-15 4-7 7-12 10-15q3-3 9-3c2 0 5 0 7 1s5 2 7 4c-1 2-2 4-3 7v13c0 10 0 20 2 29 1 9 4 17 7 23" class="fil2"/><path id="1" d="M245 138c1 2 2 3 2 5 1 2 1 3 1 4 0 4-1 6-3 7-2 2-6 2-11 2s-11 0-19-1h-22c-1 0-3 1-5 1-1-1-2-3-3-4-1-2-1-3-1-5s0-3 1-5c0-2 1-4 2-5 2-4 6-9 11-14 5-6 8-10 10-13 3-4 6-8 8-12q3-4.5 3-6c0-1-1-1-2-2h-21c-3 1-5 2-8 3 0-2-1-4-2-6v-4q0-4.5 3-6c2-2 5-2 10-2h43c1 1 2 3 3 4 1 2 1 3 1 5 0 4-5 13-15 25-5 6-9 11-11 15-4 4-6 7-8 10-1 3-2 4-2 5s1 1 2 2h6c7 0 13 0 17-1 5 0 8-1 10-2" class="fil2"/></g></svg>