<svg xmlns="http://www.w3.org/2000/svg" xml:space="preserve" width="64.374" height="59.596" style="shape-rendering:geometricPrecision;text-rendering:geometricPrecision;image-rendering:optimizeQuality;fill-rule:evenodd;clip-rule:evenodd" viewBox="0 0 308 285"><defs><style>.fil2{fill:#000;fill-rule:nonzero}</style></defs><g id="Ebene_x0020_1"><path d="M32 14h237c0 7 1 13 5 18 4 6 10 8 18 9-2 23-6 46-13 70-6 24-16 47-27 68q-18 31.5-42 57c-17 16-36 28-57 35-48-21-82-51-102-91-21-40-33-87-37-139 5 0 10-4 14-10 3-7 5-13 4-17" style="fill:#ffed00"/><path d="M20 0h264c-1 8 1 14 5 20 5 6 11 9 19 10-1 25-6 51-13 77-8 27-18 52-31 76s-28 45-47 63c-18 18-39 31-62 39-53-23-91-56-114-101S4 88 0 30q9 0 15-12c5-7 6-13 5-18m31 29c1 4-1 9-4 15q-6 9-12 9c3 46 14 86 32 121 18 36 47 62 89 80 36-13 65-39 85-81 20-41 32-81 34-120-13-2-20-10-19-24H51m3 21c3 0 5 2 5 4 0 3-2 5-5 5-2 0-3-2-3-5 0-2 1-4 3-4m201 0c3 0 5 2 5 4 0 3-2 5-5 5-2 0-3-2-3-5 0-2 1-4 3-4m-98 179c2 0 3 2 3 5q0 3-3 3c-3 0-5-1-5-3 0-3 2-5 5-5" style="fill:#2b2a29;fill-rule:nonzero"/><path d="M113 134c2 1 3 1 5 2h5c3 0 6 0 7-1 2-2 3-3 3-5 0-3-3-6-8-9h-1c-5-4-8-7-10-9-1-2-2-5-2-8s1-5 2-8c1-2 2-4 4-6 3-3 6-5 10-7 4-1 8-2 12-2 3 0 5 1 6 2 2 1 2 2 2 4s0 3-1 4c0 2-1 3-2 5-1-1-3-1-4-1-1-1-3-1-4-1-3 0-6 1-8 2-1 1-2 3-2 5s3 6 9 10c0 0 1 0 1 1 4 2 6 4 8 7 2 2 2 5 2 8s0 6-1 8c-2 3-3 5-6 7-2 3-5 4-9 6-3 1-7 1-11 1-3 0-5 0-7-2-2-1-2-3-2-5v-4c1-1 1-3 2-4" class="fil2"/><path id="1" d="M208 132c1 1 2 3 2 4 1 2 1 3 1 4 0 3-1 5-5 7-3 2-7 2-13 2-12 0-21-3-28-9s-11-14-11-24c0-5 2-10 4-15 2-4 6-8 10-12 4-3 8-5 13-6 5-2 11-3 16-3s8 1 10 2 4 3 4 5c0 1-1 3-1 4-1 2-2 4-3 5-2 0-4-1-6-1-2-1-4-1-6-1-7 0-12 2-16 6-4 3-6 9-6 15s1 11 5 15 9 6 16 6c2 0 4-1 7-1 2-1 4-2 7-3" class="fil2"/></g></svg>