<svg xmlns="http://www.w3.org/2000/svg" xml:space="preserve" viewBox="0 0 214 246"><path fill="#a979b2" d="M1 152c0-3.03 0-6.061.291-9.595C1.388 141.6 1.194 141.3 1 141V1c33.354 0 66.708 0 100.337.289.37.5.467.71.572 1.374.311 25.79.614 51.127.641 76.255-5.323-5.383-8.438-5.262-16.344.295-.492-.287-.795-.383-1.304-.7-2.771-1.377-5.344-3.29-7.96-3.35-6.8-.156-13.617.539-20.43.815-2.766.112-5.539.019-8.39.019.314 5.755.88 10.892.815 16.02-.138 10.813-.57 21.622-.96 32.43-.127 3.526.297 6.684 3.98 8.834 5.463 5.172 10.526 1.886 15.292.478l-1.652-21.796c2.394 0 4.006.012 5.618-.002 2.994-.026 6.174.54 8.916-.307 1.922-.595 4.103-2.922 4.565-4.859.371-1.555-1.664-3.685-2.79-5.9-1.166-1.021-2.157-2.257-3.181-2.287-4.233-.12-8.476.126-12.711-.204.004-3.21.004-5.98.004-9.669l20.421 1.296c.508-2.086 1.124-4.623 2.016-6.954a1271 1271 0 0 1 14.695 36.129c.33 40.41.702 80.335.71 120.128-22.345-10.363-44.456-20.344-64.454-34.302-.93-.65-2.304-.664-3.441-1 .03-.027-.002.047.106-.315-.31-.468-.73-.574-1.115-.693.034-.014.009.055.103-.285-.317-.467-.728-.593-1.104-.724.036-.005.032.066.044-.258-.369-.468-.75-.613-1.442-.867-4.907-4.715-9.566-9.257-14.08-13.94-6.125-6.353-10.649-13.622-12.939-22.28C4.395 160.347 2.535 156.216 1 152m37.641-74.586c-1.91-1.135-3.776-3.156-5.739-3.255-9.575-.48-17.617 2.99-23.13 11.049-4.57 6.683-3.7 13.653 2.26 19.208 3.238 3.017 7.03 5.442 10.241 8.483 1.557 1.474 3.744 4.512 3.2 5.506-1.085 1.985-3.742 4.016-5.955 4.274-3.634.424-7.431-.55-11.368-.955-3.482 5.39-3.11 8.225 2.046 12.48 1.374.854 2.643 2.092 4.138 2.497 9.784 2.651 22.675-4.393 25.742-14.038 1.451-4.562 1.952-9.103-2.373-13.428-4.943-4.422-9.887-8.844-14.715-14.023 1.288-5.185 4.83-7.177 11.97-5.992 2.981.495 5.043.645 6.144-2.715 1.096-3.34 1.924-6.45-2.461-9.09m16.984 91.29-2.243-6.822c-.933 9.373-5.1 14.824-14.254 17.713 9.323 1.389 11.983 7.825 14.822 14.478 2.18-7.214 5.683-12.75 14.365-14.594-6.485-1.902-10.611-4.68-12.69-10.774"/><path fill="#2d2b2a" d="M215 158.531c-1.65 6.064-3.103 11.727-4.99 17.242-4.635 13.549-13.75 23.675-24.93 32.24-21.593 16.541-47.067 25.859-70.973 38.64-1.496.347-2.885.347-4.69.347-12.468-6.005-24.87-11.407-36.474-18.179-12.644-7.38-24.547-16.03-36.891-24.445 1.05-.008 2.424.006 3.354.656 19.998 13.958 42.109 23.939 64.708 34.376 5.426-2.053 10.32-4.144 15.021-6.601 17.638-9.218 35.753-17.673 52.682-28.058 24.395-14.963 36.202-37.233 35.516-66.42-.707-30.085-.136-60.201.123-90.638.358-13.828.47-27.321 1.015-40.76 2.464.06 4.496.064 6.529.069z"/><path fill="#423a33" d="M208.039 6.876c-.112 13.494-.225 26.987-.667 40.35-.33-15.023-.33-29.917-.33-44.595-.909-.332-1.206-.536-1.502-.536-34.547.029-69.093.073-103.64.115-.096-.21-.192-.422-.094-.921C137.02 1 172.042 1 207.539 1.42c.485 2.099.492 3.777.5 5.455"/><path fill="#342f33" d="M1 141.25c.194.05.388.35.291.7C1 142 1 141.5 1 141.25"/><path fill="#fdcb0a" d="M101.909 2.663c34.538-.495 69.084-.54 103.63-.568.297 0 .594.204 1.503.536 0 14.678 0 29.572.084 44.93.071 30.567-.5 60.683.207 90.769.686 29.186-11.121 51.456-35.516 66.42-16.929 10.384-35.044 18.84-52.682 28.057-4.702 2.457-9.595 4.548-14.655 6.734-.628-40-1-79.925-1.067-120.096 3.414 4.629 6.521 9.503 9.78 14.705 4.592 3.698 6.805 3.704 10.372-.239 2.216-2.45 4.113-5.22 5.931-7.991 7.302-11.134 14.289-22.463 17.016-35.74.813-3.96 1.767-8.319-2.89-11.463-4.094-4.628-7.439-4.915-14.271-1.482 2.222 12.593-4.937 34.78-12.678 38.7-.585-1.282-1.166-2.56-1.564-4.095a768 768 0 0 0-9.047-28.339c-.342-1.003-1.69-1.663-2.717-2.692-.27-.7-.395-1.191-.52-1.682-.302-25.337-.605-50.674-.916-76.464m87.165 130.917c4.97 3.713 9.009 3.151 15.484-2.435-.837-.897-1.662-1.782-2.94-3.141-4.23-8.971-8.461-17.942-12.347-27.437-2.402-5.17-4.805-10.34-7.368-16.208-5.98-10.309-11.5-12.051-18.754-7.2-.785 3.863-.83 6.76-1.95 9.155-5.885 12.578-12.078 25.012-18.083 37.534-1.757 3.665-1.88 7.086 2.774 9.94 2.957 3.412 6.505 2.08 10.11 1.461 3.71-.637 2.733-3.528 3.271-5.753 1.638-6.765 2.59-7.473 9.75-7.497 4.15-.013 8.299-.09 12.847.4 2.283 3.496 4.566 6.992 7.206 11.18M171.72 19.043c-2.514 4.428-4.276 9.614-7.759 13.065-3.308 3.278-8.416 4.74-12.242 6.743 14.022 2.13 19.062 12.86 21.687 25.928 2.76-12.076 7.028-22.692 20.76-26.204-13.342-3.538-18.26-13.323-21.093-25.065a1012 1012 0 0 1-1.353 5.533"/><path fill="#2e2c2a" d="M113.042 133.821c-3.108-4.873-6.215-9.747-9.586-14.86-5.084-12.052-9.905-23.865-15.124-36.194-.9-1.493-1.406-2.47-1.91-3.447 7.69-5.664 10.805-5.785 16.128-.402.4.7.525 1.19.932 2.271 2.69 7.93 4.998 15.304 7.556 22.59 1.009 2.875 2.575 5.553 3.887 8.32l1.748 3.836c7.74-3.92 14.9-26.107 12.678-38.7 6.832-3.433 10.177-3.146 14.282 1.929.033 3.348.172 6.048-.398 8.588-3.646 16.238-12.57 29.802-22.476 42.726-1.49 1.944-5.092 2.27-7.717 3.343"/><path fill="#2d2c29" d="M51.843 132.914c-3.569-1.783-3.993-4.94-3.866-8.467.39-10.808.822-21.617.96-32.43.066-5.128-.501-10.265-.816-16.02 2.852 0 5.625.093 8.39-.019 6.814-.276 13.631-.971 20.431-.815 2.616.06 5.189 1.973 7.918 3.76-.473 3.394-1.084 6.068-1.513 7.947l-20.36-1.11c0 4.21-.209 7.514.138 10.759.092.868 1.877 1.555 2.885 2.326 4.24-.111 8.482-.357 12.715-.237 1.024.03 2.015 1.266 3.15 2.668.33 5.926-2.626 7.742-7.34 7.713-3.756-.024-7.513-.005-11.968-.005l1.56 22.406z"/><path fill="#2e2c2a" d="M9.97 133.434c-4.93-3.485-5.302-6.32-1.82-11.71 3.937.405 7.734 1.379 11.368.955 2.213-.258 4.87-2.29 5.955-4.274.544-.994-1.643-4.032-3.2-5.506-3.211-3.04-7.003-5.466-10.24-8.483-5.96-5.555-6.832-12.525-2.26-19.208 5.512-8.06 13.554-11.529 23.13-11.049 1.962.099 3.828 2.12 5.914 3.953-.784 7.71-1.302 8.136-8.254 7.889-1.493-.053-3.196-.398-4.44.176-2.132.983-4.797 2.204-5.66 4.058-.588 1.265 1.512 3.779 2.41 5.734 4.943 4.422 9.887 8.844 14.664 13.756-.218 3.406.317 6.482-.425 9.21-2.89 10.63-14.513 16.682-27.142 14.5"/><path fill="#fbf9fb" d="M55.755 169.061c1.949 5.74 6.075 8.517 12.56 10.419-8.682 1.844-12.184 7.38-14.365 14.594-2.839-6.653-5.499-13.089-14.822-14.478 9.153-2.89 13.321-8.34 14.254-17.713a1356 1356 0 0 0 2.373 7.178"/><path fill="#f8e508" d="M51.956 133.281c4.057-.884 8.227-1.402 12.17-1.891l-1.56-22.406c4.456 0 8.213-.019 11.97.005 4.713.03 7.669-1.787 7.499-7.372.997 1.493 3.032 3.623 2.66 5.178-.461 1.937-2.642 4.264-4.564 4.859-2.742.848-5.922.281-8.916.307-1.612.014-3.224.002-5.618.002l1.652 21.796c-4.766 1.408-9.83 4.694-15.293-.478"/><path fill="#f7e507" d="M10.083 133.82c12.516 1.797 24.14-4.255 27.029-14.884.742-2.729.207-5.805.575-8.92 4.341 3.544 3.84 8.085 2.39 12.647-3.068 9.645-15.96 16.69-25.743 14.038-1.495-.405-2.764-1.643-4.251-2.882"/><path fill="#f6e404" d="M66.014 98.404c-1.012-.33-2.797-1.017-2.89-1.885-.346-3.245-.138-6.548-.138-10.76l20.361 1.11c.429-1.878 1.04-4.552 1.692-7.637.372-.402.675-.306 1.167-.02.72 1.085 1.225 2.062 1.852 3.35-.495 2.846-1.111 5.383-1.619 7.47l-20.421-1.297c0 3.688 0 6.459-.004 9.67"/><path fill="#f5e306" d="M22.93 95.59c-.955-1.576-3.055-4.09-2.467-5.355.863-1.854 3.528-3.075 5.66-4.058 1.244-.574 2.947-.23 4.44-.176 6.952.247 7.47-.18 8.465-7.594 3.998 1.649 3.17 4.758 2.074 8.098-1.101 3.36-3.163 3.21-6.143 2.715-7.141-1.185-10.683.807-12.029 6.37"/><path fill="#2d2b2a" d="M33.999 201.757c-.322.14-.633-.044-1.036-.493.287-.12.667.025 1.036.493M35.059 202.739c-.396.162-.697-.016-1.069-.456.341-.137.752-.01 1.069.456M36.071 203.717c-.408.187-.707.013-1.078-.42.348-.154.767-.048 1.078.42"/><path fill="#2e2c2a" d="M188.926 101.092c4.23 8.97 8.462 17.94 12.578 27.317-4.339 1.763-8.563 3.12-12.787 4.477-2.283-3.495-4.566-6.99-7.166-11.168-1.593-1.361-2.835-2.534-4.151-2.625-3.796-.265-7.623-.095-11.437-.095-7.04 0-9.022 1.064-9.626 8.03-.434 4.997-3.284 5.419-6.775 5.903-1.305.18-2.649.09-3.975.123-4.35-2.12-4.228-5.541-2.47-9.206 6.004-12.522 12.197-24.956 18.082-37.534 1.12-2.394 1.165-5.292 1.95-9.155 7.253-4.851 12.775-3.109 18.85 7.914 2.372 5.816 4.65 10.917 6.927 16.019m-19.992 7.89h8.095c-1.808-4.362-3.287-7.931-4.772-12.176l-1.75-5.133-6.878 17.183c1.88 0 3.146 0 5.305.126"/><path fill="#fefdf8" d="M171.817 18.663c.484-1.97.87-3.562 1.255-5.154 2.833 11.742 7.75 21.527 21.092 25.065-13.73 3.512-17.999 14.128-20.759 26.204-2.625-13.069-7.665-23.798-21.687-25.928 3.826-2.004 8.934-3.465 12.242-6.743 3.483-3.45 5.245-8.637 7.857-13.444"/><path fill="#a97aaa" d="M113.194 134.15c2.473-1.403 6.074-1.728 7.565-3.672 9.907-12.924 18.83-26.488 22.476-42.726.57-2.54.431-5.24.61-8.313 4.434 2.422 3.48 6.782 2.667 10.74-2.727 13.278-9.714 24.607-17.016 35.74-1.818 2.773-3.715 5.543-5.931 7.992-3.567 3.943-5.78 3.937-10.371.24"/><path fill="#a879ae" d="M145.739 133.42c1.174-.4 2.518-.309 3.823-.49 3.49-.483 6.341-.905 6.775-5.902.604-6.966 2.586-8.03 9.626-8.03 3.814 0 7.64-.17 11.437.095 1.316.091 2.558 1.264 3.951 2.355-4.031.46-8.18.538-12.33.551-7.16.024-8.112.732-9.75 7.497-.538 2.225.438 5.116-3.271 5.753-3.605.62-7.153 1.951-10.261-1.829"/><path fill="#a679a1" d="M115.109 111.84c-1.496-2.508-3.062-5.186-4.07-8.06-2.559-7.287-4.868-14.662-7.413-22.381.745.439 2.094 1.099 2.436 2.102a768 768 0 0 1 9.047 28.339"/><path fill="#aa7baa" d="M188.896 133.233c4.045-1.704 8.27-3.06 12.834-4.586 1.166.716 1.99 1.6 2.828 2.498-6.475 5.586-10.515 6.148-15.662 2.088"/><path fill="#ab7d9e" d="M189.098 100.83c-2.45-4.84-4.727-9.941-7.02-15.407 2.388 4.805 4.79 9.974 7.02 15.406"/><path fill="#a577a8" d="M168.041 108.856h-4.412l6.878-17.183c.813 2.383 1.281 3.758 1.644 5.869-1.44 4.262-2.775 7.788-4.11 11.314"/><path fill="#f7c60e" d="M168.488 108.919c.888-3.59 2.223-7.115 3.666-11.04 1.588 3.172 3.067 6.741 4.875 11.103-3.333 0-5.714 0-8.541-.063"/></svg>