<svg xmlns="http://www.w3.org/2000/svg" xml:space="preserve" viewBox="0 0 214 246"><path fill="#019846" d="M1 152c0-3.03 0-6.061.335-9.805.445-2.695.651-4.677.653-6.66.048-44.448.072-88.896.562-133.391 68.258-.047 136.054-.047 204.025-.047.216 1.998.374 3.455.488 5.379-.058 45.078-.026 89.69-.153 134.303-.015 5.109-.594 10.274-1.48 15.313-3.66 20.81-15.482 36.598-33.124 46.977-21.155 12.445-43.394 23.052-65.243 34.301-1.387.714-3.726.677-5.173.011-21.27-9.79-42.544-19.595-61.94-32.93-1.128-.777-2.666-.959-3.985-1.432.03-.015.015.049.007-.253-.352-.45-.696-.598-1.008-.754.032-.007.018.057.004-.241-.357-.451-.7-.603-1.009-.76.035-.005.033.065-.023-.216-.389-.439-.722-.597-1.378-.89-1.854-1.411-3.455-2.615-4.908-3.978-8.487-7.96-16.237-16.55-20.742-27.455C4.566 163.802 2.946 157.834 1 152m127.992-41.447c-.26-.207-.52-.415-1.186-1.172-.7-.896-1.402-1.792-1.619-3.161 1.08-.756 2.2-1.462 3.236-2.275 8.218-6.455 7.331-16.583-2.328-22.35-3.348-4.514-7.928-7.292-13.404-7.602-8.727-.494-17.493-.402-26.238-.271-.796.012-1.56 2.105-3.177 3.291-1.109.13-2.218.259-3.78-.217l-1.804-4.23c-5.799.519-10.894 1.358-15.987 1.344-8.804-.025-17.606-.63-26.411-.898-8.851-.27-11.168 3.142-7.832 11.4.295.734.756 1.4 1.08 1.988 1.571-.16 2.877-.291 4.305.353l1.427 4.668c3.87-.514 7.215-.958 10.703-.479-.327 10.753-.62 21.506-.997 32.257-.17 4.866 1.03 8.578 6.866 9.736 2.734 5.215 8.337 5.605 15.64 1.732-.148-13.932-.279-27.305-.442-40.678-.042-3.474 1.68-4.092 4.808-3.599 5.197.82 10.588 2.011 15.116-1.62-.323 10.909-.547 21.822-1.013 32.725-.225 5.287 1.412 9.006 7.04 11.041 1.64 1.201 3.13 3.088 4.947 3.489 9.819 2.166 19.55 1.423 28.2-3.859 3.418-2.086 6.375-5.792 8.184-9.434 2.46-4.951-.225-9.722-5.332-11.73 0 0-.027.062-.002-.449m32.019-14.592v-7.209l19.807 1.117c3.943-6.843 2.935-10.406-3.842-12.617-1.988-1.417-3.928-3.973-5.97-4.057-10.248-.42-20.522-.192-30.963-.192.37 6.693.955 11.974.892 17.247-.134 11.148-.553 22.294-.964 33.437-.178 4.846 1.3 8.17 6.859 9.255 2.546 5.214 7.074 5.569 15.28 1.45l-1.469-22.39c4.499 0 8.107.066 11.712-.015 7.072-.16 9.255-3.923 6.127-10.592-1.424.167-2.88.338-4.454-.276l-1.003-4.282c-4.475 0-8.24 0-12.012-.876m16.658-70.323-4.464-13.773c-1.846 12.918-6.845 24.035-23.6 26.616 16.901 2.693 21.485 14.162 23.848 28.56 2.352-13.72 6.447-24.772 22-28.406-8.429-2.314-14.05-5.876-17.784-12.997M56.852 187.508l9.064-8.668c-6.948-1.689-10.204-7.606-12.185-14.813-1.916 7.763-5.676 13.396-14.821 15.378 9.48 1.729 12.668 7.858 14.582 15.815 1.203-2.867 2.087-4.977 3.36-7.712"/><path fill="#2b2b29" d="M215 158.531c-1.651 6.064-3.106 11.726-4.992 17.24-4.635 13.55-13.749 23.675-24.93 32.241-21.594 16.54-47.068 25.857-70.972 38.64-1.495.348-2.884.348-4.69.348-12.469-6.006-24.875-11.407-36.48-18.182-12.646-7.382-24.55-16.038-36.888-24.462 1.236.136 2.774.318 3.903 1.094 19.395 13.336 40.668 23.14 61.94 32.931 1.446.666 3.785.703 5.172-.01 21.849-11.25 44.088-21.857 65.243-34.302 17.642-10.38 29.464-26.167 33.124-46.977.886-5.04 1.465-10.204 1.48-15.313.127-44.612.095-89.225.404-134.315.461-.487.629-.496 1.226-.486 2.44.02 4.45.021 6.46.022z"/><path fill="#27342b" d="M208.11 6.958c-.167.01-.335.02-.753.04-.408-1.446-.566-2.903-.782-4.9-67.97 0-135.767 0-204.056-.252-.5-.45-.51-.648-.519-.846 68.354 0 136.708 0 205.53.426.506 2.129.543 3.83.58 5.532"/><path fill="#29312b" d="M1.5 1c.51.198.518.397.559.893.001 44.746-.023 89.194-.07 133.642-.003 1.983-.209 3.965-.654 6.206C1 95 1 48 1.5 1"/><path fill="#fbfcfc" d="M85.114 76.954c.779-1.127 1.543-3.22 2.339-3.232 8.745-.131 17.511-.223 26.238.271 5.476.31 10.056 3.088 13.753 8.23 3.111 9.949 1.818 12.388-9.834 20.177l8.092 4.293c.702.896 1.403 1.792 2.307 3.23.454.741.706.941.958 1.14 0 0 .027-.06-.062.376.338 8.484-2.907 13.498-11.213 17.237-7.932 3.57-16.35 3.623-24.818 3.1-5.507-1.275-7.144-4.994-6.919-10.28.466-10.904.69-21.817.973-33.602-.632-4.23-1.223-7.585-1.814-10.94m21.629 43.868c4.43-1.247 8.16-3.05 6.879-9.449-3.247-5.142-8.22-4.436-13.274-4.211v13.588c2.127 0 3.903 0 6.395.072m0-23c6.743-2.27 8.043-4.253 6.327-10.568-3.166-4.847-7.759-4.584-12.765-3.83v14.634c2.119-.114 3.92-.211 6.437-.236"/><path fill="#fbfdfc" d="m33.726 85.977-4.184.423c-.324-.588-.785-1.254-1.08-1.987-3.336-8.259-1.02-11.671 7.832-11.401 8.805.269 17.607.873 26.41.898 5.094.014 10.19-.825 15.988-1.344.42.986 1.112 2.608 2.018 4.899-.009 6.726-1.635 8.437-7.52 8.502-2.322.026-4.7-.015-6.963-.47-4.165-.837-5.252.93-5.168 4.799.285 13.071.353 26.148.509 39.643-.825.253-2.375.828-3.972 1.192-1.94.442-3.92.707-5.883 1.049-5.703-.403-6.903-4.115-6.733-8.981.377-10.75.67-21.504.996-33.158-.092-2.25-.182-3.598-.31-5.506z"/><path fill="#fbfcfc" d="M146.681 132.186c-5.41-.33-6.888-3.653-6.71-8.499.41-11.143.83-22.289.964-33.437.063-5.273-.523-10.554-.892-17.247 10.441 0 20.715-.228 30.963.192 2.042.084 3.982 2.64 5.99 4.8-.636 3.064-1.294 5.386-1.73 6.921l-19.968-1.13v13.051h17.725c.213.91.608 2.596.931 5.028-1.098 4.27-3.84 5.1-7.043 5.128-3.922.035-7.846.008-12.38.008.582 7.854 1.126 15.216 1.702 23.015z"/><path fill="#f8fbf9" d="M177.832 25.974c3.572 6.785 9.192 10.347 17.621 12.661-15.553 3.634-19.648 14.687-22 28.406-2.363-14.398-6.947-25.867-23.848-28.56 16.755-2.581 21.754-13.698 23.6-26.616 1.414 4.364 2.939 9.068 4.627 14.11"/><path fill="#5d5e53" d="M51.78 132.557c1.896-.719 3.876-.984 5.816-1.426 1.597-.364 3.147-.94 3.972-1.192-.156-13.495-.224-26.572-.509-39.643-.084-3.87 1.003-5.636 5.168-4.8 2.263.456 4.64.497 6.964.47 5.884-.064 7.51-1.775 7.746-8.198 1.121-.496 2.23-.626 3.758-.784 1.01 3.325 1.601 6.68 2.13 10.44-4.385 4.977-9.776 3.786-14.973 2.966-3.128-.493-4.85.125-4.808 3.599.163 13.373.294 26.746.443 40.678-7.304 3.873-12.907 3.483-15.708-2.11"/><path fill="#5b5d52" d="M146.756 132.564c3.136-1.107 6.347-1.837 9.477-2.548L154.532 107c4.533 0 8.457.027 12.38-.008 3.202-.028 5.944-.858 7.101-4.736 1.587-.524 3.043-.695 4.467-.862 3.128 6.669.945 10.432-6.127 10.592-3.605.081-7.213.014-11.712.014l1.468 22.39c-8.205 4.12-12.733 3.765-15.353-1.827M92.934 132.157c8.408.142 16.826.09 24.758-3.481 8.306-3.74 11.551-8.753 11.183-17.223 5.226 1.557 7.91 6.328 5.451 11.279-1.809 3.642-4.766 7.348-8.184 9.434-8.65 5.282-18.381 6.025-28.2 3.859-1.817-.401-3.307-2.288-5.008-3.868"/><path fill="#f4faf7" d="M56.657 187.82c-1.078 2.423-1.962 4.533-3.165 7.4-1.914-7.957-5.102-14.086-14.582-15.815 9.145-1.982 12.905-7.615 14.82-15.378 1.982 7.207 5.238 13.124 12.186 14.813-2.963 2.833-6.014 5.75-9.259 8.98"/><path fill="#5d5e53" d="M161.015 96.399c-1.803.438-3.61.438-5.717.438v-13.05l19.969 1.13a553 553 0 0 0 1.824-6.558c6.662 1.104 7.67 4.667 3.727 11.51l-19.807-1.117c0 3.004 0 5.106.004 7.647M125.945 106.457c-2.987-1.22-5.732-2.676-8.335-4.057 11.652-7.79 12.945-10.228 10.048-19.944 9.096 4.906 9.983 15.034 1.765 21.489-1.036.813-2.155 1.52-3.478 2.512"/><path fill="#5b5d52" d="M33.786 86.365c3.737-.847 7.534-1.305 11.88-1.83.128 1.908.218 3.257.238 5.044-3.415.884-6.76 1.328-10.63 1.842-.426-1.392-.926-3.03-1.488-5.056M128.98 110.808c-.265.056-.517-.144-.768-.61.26-.06.52.148.767.61"/><path fill="#2b2b29" d="M33.936 201.795c-.253.108-.562-.065-.963-.497.24-.1.574.058.963.497M34.968 202.77c-.293.126-.6-.048-.975-.488.275-.114.618.038.975.489M35.972 203.766c-.298.13-.604-.042-.975-.48.279-.118.623.03.975.48"/><path fill="#5f5e54" d="m106.028 97.75-5.723.308V83.423c5.006-.753 9.599-1.016 12.373 4.196-5.605-.603-7.45 1.735-6.713 6.723.165 1.115.05 2.27.063 3.408M106.028 120.75h-5.68v-13.588c5.054-.225 10.027-.93 12.886 4.548-2.585.337-4.783.337-7.206.337z"/><path fill="#08994b" d="M106.385 97.786c-.37-1.173-.255-2.33-.42-3.444-.737-4.988 1.108-7.326 6.78-6.364 2.041 5.591.74 7.574-6.36 9.808M106.385 120.786c-.357-2.649-.357-5.261-.357-8.74 2.423 0 4.62 0 7.25.005 1.625 5.721-2.105 7.524-6.893 8.735"/></svg>