<svg xmlns="http://www.w3.org/2000/svg" xml:space="preserve" width="64.374" height="59.596" style="shape-rendering:geometricPrecision;text-rendering:geometricPrecision;image-rendering:optimizeQuality;fill-rule:evenodd;clip-rule:evenodd" viewBox="0 0 308 285"><defs><style>.fil2{fill:#000;fill-rule:nonzero}</style></defs><g id="Ebene_x0020_1"><path d="M32 14h237c0 7 1 13 5 18 4 6 10 8 18 9-2 23-6 46-13 70-6 24-16 47-27 68q-18 31.5-42 57c-17 16-36 28-57 35-48-21-82-51-102-91-21-40-33-87-37-139 5 0 10-4 14-10 3-7 5-13 4-17" style="fill:#e5097f"/><path d="M20 0h264c-1 8 1 14 5 20 5 6 11 9 19 10-1 25-6 51-13 77-8 27-18 52-31 76s-28 45-47 63c-18 18-39 31-62 39-53-23-91-56-114-101S4 88 0 30q9 0 15-12c5-7 6-13 5-18m31 29c1 4-1 9-4 15q-6 9-12 9c3 46 14 86 32 121 18 36 47 62 89 80 36-13 65-39 85-81 20-41 32-81 34-120-13-2-20-10-19-24H51m3 21c3 0 5 2 5 4 0 3-2 5-5 5-2 0-3-2-3-5 0-2 1-4 3-4m201 0c3 0 5 2 5 4 0 3-2 5-5 5-2 0-3-2-3-5 0-2 1-4 3-4m-98 179c2 0 3 2 3 5q0 3-3 3c-3 0-5-1-5-3 0-3 2-5 5-5" style="fill:#2b2a29;fill-rule:nonzero"/><path d="M151 138c1 2 1 3 2 5v4c0 4-1 6-3 7s-5 2-11 2c-4 0-11 0-18-1H99c-2 0-4 1-5 1-2-1-3-3-3-4-1-2-1-4-1-5v-5c1-2 2-4 3-5 2-4 5-9 10-15 5-5 8-10 10-12 4-4 6-8 8-12q3-4.5 3-6c0-1 0-2-2-2h-20c-3 1-6 2-8 3-1-2-2-4-2-6-1-2-1-3-1-4q0-4.5 3-6c2-2 6-2 10-2h43c2 1 3 3 3 4 1 2 1 3 1 5 0 4-5 13-15 25-4 6-8 11-11 15s-6 7-7 10c-2 3-2 4-2 5s0 1 1 2h6c7 0 13 0 18-1 4 0 7-1 10-2" class="fil2"/><path id="1" d="M186 114h6c4 0 8-1 10-3 3-3 4-6 4-10q0-6-3-9c-2-2-6-3-10-3-1 0-2 0-3 1h-3v12c-1 4-1 8-1 12m-23-39h22c6-1 10-1 13-1 9 0 16 2 21 7 6 4 8 10 8 18q0 13.5-9 21c-6 6-14 8-24 8h-8c0 5 1 10 1 14 1 4 2 8 3 11-3 1-5 2-8 2-2 1-5 1-7 1-4 0-6-1-8-2-1-2-2-5-2-9 0-2 0-7 1-15 0-8 1-15 1-21 0-10-1-17-1-22q-1.5-9-3-12" class="fil2"/></g></svg>