<svg xmlns="http://www.w3.org/2000/svg" width="55.96" height="55.963" viewBox="0 0 14.806 14.807"><defs><clipPath id="a"><path d="M0 0h2479.2v3507.7H0z"/></clipPath><clipPath id="b"><path d="M0 0h2426v6868.5H0z"/></clipPath><clipPath id="c"><path d="M628.67 2223.9h174.14v174.15H628.67z"/></clipPath><clipPath id="d"><path d="M629.81 2310.9q0-8.465 1.651-16.766a85.8 85.8 0 0 1 4.89-16.122 85.7 85.7 0 0 1 7.942-14.858 85.8 85.8 0 0 1 10.687-13.023 85.7 85.7 0 0 1 13.023-10.688 85.7 85.7 0 0 1 14.857-7.942 85.7 85.7 0 0 1 16.12-4.89 85.7 85.7 0 0 1 16.767-1.651q8.463 0 16.765 1.65a85.7 85.7 0 0 1 16.12 4.891 85.7 85.7 0 0 1 14.858 7.942 85.7 85.7 0 0 1 13.023 10.688 85.7 85.7 0 0 1 10.687 13.023 85.7 85.7 0 0 1 7.941 14.858 85.7 85.7 0 0 1 4.89 16.122 85.8 85.8 0 0 1 1.652 16.766q0 8.464-1.651 16.766a85.7 85.7 0 0 1-4.89 16.121 85.7 85.7 0 0 1-7.942 14.858 85.8 85.8 0 0 1-10.687 13.023 85.8 85.8 0 0 1-13.023 10.688 85.7 85.7 0 0 1-14.857 7.941 85.8 85.8 0 0 1-16.121 4.891 85.7 85.7 0 0 1-16.765 1.652q-8.464 0-16.766-1.652a85.7 85.7 0 0 1-16.121-4.89q-7.82-3.24-14.857-7.942c-7.037-4.702-9.033-6.697-13.022-10.688a85.7 85.7 0 0 1-10.687-13.023 85.7 85.7 0 0 1-7.942-14.858 85.7 85.7 0 0 1-4.89-16.121 85.7 85.7 0 0 1-1.651-16.766z"/></clipPath><clipPath id="e"><path d="M0 0h2426v3507.7H0z" clip-rule="evenodd"/></clipPath></defs><g clip-path="url(#a)" transform="translate(-53.197 -188.258)scale(.08467)"><g clip-path="url(#b)"><g clip-path="url(#c)"><g clip-path="url(#d)"><path fill="#00afad" d="M801.688 2310.9a85.9 85.9 0 0 1-3.7 24.947 85.9 85.9 0 0 1-10.783 22.8 85.9 85.9 0 0 1-16.937 18.686 85.9 85.9 0 0 1-29.571 15.807 85.9 85.9 0 0 1-24.947 3.7 85.9 85.9 0 0 1-24.947-3.7 85.9 85.9 0 0 1-22.798-10.783 85.9 85.9 0 0 1-18.686-16.937 85.9 85.9 0 0 1-15.806-29.573 85.9 85.9 0 0 1-3.7-24.947 85.9 85.9 0 0 1 3.7-24.947 85.9 85.9 0 0 1 10.782-22.8 85.9 85.9 0 0 1 16.936-18.686 85.9 85.9 0 0 1 29.572-15.807 85.9 85.9 0 0 1 24.947-3.7 85.9 85.9 0 0 1 24.947 3.7 85.9 85.9 0 0 1 22.797 10.783 85.9 85.9 0 0 1 18.687 16.937 85.9 85.9 0 0 1 15.806 29.573 85.9 85.9 0 0 1 3.7 24.947"/><text font-family="Bitter" font-size="15.87" font-weight="bold" transform="matrix(3.1276 0 0 3.1277 669.69 2327.967)"><tspan x="0 10.347229 19.869217" y="0">CTS</tspan></text></g></g></g></g><g clip-path="url(#e)" transform="translate(-53.197 -188.258)scale(.08467)"><path fill="none" stroke="#000" stroke-miterlimit="10" d="M28.622 0a28.6 28.6 0 0 1-4.824 15.902 28.6 28.6 0 0 1-10.306 9.34 28.6 28.6 0 0 1-10.687 3.242 28.6 28.6 0 0 1-13.758-2.04 28.625 28.625 0 0 1-17.531-29.25 28.6 28.6 0 0 1 4.686-13.096 28.6 28.6 0 0 1 10.306-9.34 28.6 28.6 0 0 1 10.686-3.242 28.6 28.6 0 0 1 13.76 2.04A28.625 28.625 0 0 1 28.621 0z" transform="matrix(3.0025 0 0 3.0026 715.75 2310.9)"/></g></svg>