<svg xmlns="http://www.w3.org/2000/svg" width="55.96" height="55.963" viewBox="0 0 14.806 14.807"><defs><clipPath id="a"><path d="M0 0h2479.2v3507.7H0z"/></clipPath><clipPath id="b"><path d="M0 0h2426v6868.5H0z"/></clipPath><clipPath id="c"><path d="M88.23 2404h174.14v174.15H88.23z"/></clipPath><clipPath id="d"><path d="M89.365 2491.1q0-8.465 1.651-16.766c1.651-8.301 2.731-10.908 4.89-16.122a85.7 85.7 0 0 1 7.942-14.858 85.8 85.8 0 0 1 10.687-13.023 85.7 85.7 0 0 1 13.023-10.688 85.7 85.7 0 0 1 14.857-7.941 85.7 85.7 0 0 1 16.12-4.89 85.7 85.7 0 0 1 16.766-1.652q8.464 0 16.765 1.651a85.7 85.7 0 0 1 16.12 4.89 85.7 85.7 0 0 1 14.858 7.942 85.7 85.7 0 0 1 13.023 10.688 85.7 85.7 0 0 1 10.687 13.023q4.702 7.037 7.941 14.858c3.24 7.821 3.79 10.587 4.89 16.122s1.652 11.123 1.652 16.766q0 8.464-1.651 16.766a85.8 85.8 0 0 1-4.89 16.122 85.7 85.7 0 0 1-7.942 14.858 85.7 85.7 0 0 1-10.687 13.023 85.8 85.8 0 0 1-13.023 10.688 85.7 85.7 0 0 1-14.857 7.942 85.8 85.8 0 0 1-16.121 4.89 85.8 85.8 0 0 1-16.765 1.652 85.8 85.8 0 0 1-16.765-1.651 85.7 85.7 0 0 1-16.121-4.891 85.7 85.7 0 0 1-14.857-7.942 85.7 85.7 0 0 1-13.023-10.688q-5.985-5.984-10.687-13.023c-4.702-7.039-5.782-9.644-7.941-14.858a85.7 85.7 0 0 1-4.89-16.122 85.7 85.7 0 0 1-1.652-16.766z"/></clipPath><clipPath id="e"><path d="M0 0h2426v3507.7H0z" clip-rule="evenodd"/></clipPath></defs><g clip-path="url(#a)" transform="translate(-7.439 -203.512)scale(.08467)"><g clip-path="url(#b)"><g clip-path="url(#c)"><g clip-path="url(#d)"><path fill="#0095da" d="M261.238 2491.1a85.9 85.9 0 0 1-3.7 24.947 85.9 85.9 0 0 1-10.783 22.8 85.9 85.9 0 0 1-16.937 18.686 85.9 85.9 0 0 1-29.571 15.807 85.9 85.9 0 0 1-24.947 3.7 85.9 85.9 0 0 1-24.947-3.7 85.9 85.9 0 0 1-22.798-10.783 85.9 85.9 0 0 1-18.686-16.937 85.9 85.9 0 0 1-15.806-29.573 85.9 85.9 0 0 1-3.7-24.947 85.9 85.9 0 0 1 3.7-24.947 85.9 85.9 0 0 1 10.782-22.8 85.9 85.9 0 0 1 16.936-18.686 85.9 85.9 0 0 1 29.572-15.807 85.9 85.9 0 0 1 24.947-3.7 85.9 85.9 0 0 1 24.947 3.7 85.9 85.9 0 0 1 22.797 10.783 85.9 85.9 0 0 1 18.687 16.937 85.9 85.9 0 0 1 15.806 29.573 85.9 85.9 0 0 1 3.7 24.947"/><text font-family="Bitter" font-size="12.69" font-weight="bold" transform="matrix(3.1276 0 0 3.1277 131.423 2504.753)"><tspan x="0 4.7587433 13.032623 20.697372" y="0">ICSF</tspan></text></g></g></g></g><g clip-path="url(#e)" transform="translate(-7.439 -203.512)scale(.08467)"><path fill="none" stroke="#000" stroke-miterlimit="10" d="M28.622 0a28.6 28.6 0 0 1-4.824 15.902 28.6 28.6 0 0 1-10.306 9.34 28.6 28.6 0 0 1-10.687 3.242 28.6 28.6 0 0 1-13.758-2.04 28.625 28.625 0 0 1-17.531-29.25 28.6 28.6 0 0 1 4.686-13.096 28.6 28.6 0 0 1 10.306-9.34 28.6 28.6 0 0 1 10.686-3.242 28.6 28.6 0 0 1 13.76 2.04A28.625 28.625 0 0 1 28.621 0z" transform="matrix(3.0025 0 0 3.0026 175.3 2491.1)"/></g></svg>