<svg xmlns="http://www.w3.org/2000/svg" width="55.96" height="55.963" viewBox="0 0 14.806 14.807"><defs><clipPath id="a"><path d="M0 0h2479.2v3507.7H0z"/></clipPath><clipPath id="b"><path d="M0 0h2426v6868.5H0z"/></clipPath><clipPath id="c"><path d="M88.23 1503.2h174.14v174.15H88.23z"/></clipPath><clipPath id="d"><path d="M89.365 1590.3q0-8.465 1.651-16.766a85.8 85.8 0 0 1 4.89-16.122 85.8 85.8 0 0 1 7.942-14.858 85.8 85.8 0 0 1 10.687-13.023 85.7 85.7 0 0 1 13.023-10.688 85.7 85.7 0 0 1 14.857-7.942 85.8 85.8 0 0 1 16.12-4.89 85.7 85.7 0 0 1 16.766-1.651q8.464 0 16.765 1.65a85.7 85.7 0 0 1 16.12 4.891 85.7 85.7 0 0 1 14.858 7.942 85.8 85.8 0 0 1 13.023 10.688 85.7 85.7 0 0 1 10.687 13.023 85.7 85.7 0 0 1 7.941 14.858 85.7 85.7 0 0 1 4.89 16.122 85.8 85.8 0 0 1 1.652 16.766q0 8.463-1.651 16.766a85.8 85.8 0 0 1-4.89 16.122 85.8 85.8 0 0 1-7.942 14.858 85.8 85.8 0 0 1-10.687 13.023 85.7 85.7 0 0 1-13.023 10.688 85.8 85.8 0 0 1-14.857 7.942 85.7 85.7 0 0 1-16.121 4.89 85.7 85.7 0 0 1-16.765 1.652q-8.464 0-16.765-1.652a85.7 85.7 0 0 1-16.121-4.89 85.7 85.7 0 0 1-14.857-7.942 85.7 85.7 0 0 1-13.023-10.688 85.7 85.7 0 0 1-10.687-13.023 85.7 85.7 0 0 1-7.941-14.858 85.7 85.7 0 0 1-4.89-16.122 85.7 85.7 0 0 1-1.652-16.766z"/></clipPath><clipPath id="e"><path d="M0 0h2479.2v3507.7H0z"/></clipPath><clipPath id="f"><path d="M0 0h2426v6868.5H0z"/></clipPath><clipPath id="g"><path d="M88.23 1503.2h174.14v174.15H88.23z"/></clipPath><clipPath id="h"><path d="M89.365 1590.3q0-8.465 1.651-16.766a85.8 85.8 0 0 1 4.89-16.122 85.8 85.8 0 0 1 7.942-14.858 85.8 85.8 0 0 1 10.687-13.023 85.7 85.7 0 0 1 13.023-10.688 85.7 85.7 0 0 1 14.857-7.942 85.8 85.8 0 0 1 16.12-4.89 85.7 85.7 0 0 1 16.766-1.651q8.464 0 16.765 1.65a85.7 85.7 0 0 1 16.12 4.891 85.7 85.7 0 0 1 14.858 7.942 85.8 85.8 0 0 1 13.023 10.688 85.7 85.7 0 0 1 10.687 13.023 85.7 85.7 0 0 1 7.941 14.858 85.7 85.7 0 0 1 4.89 16.122 85.8 85.8 0 0 1 1.652 16.766q0 8.463-1.651 16.766a85.8 85.8 0 0 1-4.89 16.122 85.8 85.8 0 0 1-7.942 14.858 85.8 85.8 0 0 1-10.687 13.023 85.7 85.7 0 0 1-13.023 10.688 85.8 85.8 0 0 1-14.857 7.942 85.7 85.7 0 0 1-16.121 4.89 85.7 85.7 0 0 1-16.765 1.652q-8.464 0-16.765-1.652a85.7 85.7 0 0 1-16.121-4.89 85.7 85.7 0 0 1-14.857-7.942 85.7 85.7 0 0 1-13.023-10.688 85.7 85.7 0 0 1-10.687-13.023 85.7 85.7 0 0 1-7.941-14.858 85.7 85.7 0 0 1-4.89-16.122 85.7 85.7 0 0 1-1.652-16.766z"/></clipPath><clipPath id="i"><path d="M88.23 1503.2h174.14v174.15H88.23z"/></clipPath><clipPath id="j"><path d="M89.365 1590.3q0-8.465 1.651-16.766a85.8 85.8 0 0 1 4.89-16.122 85.8 85.8 0 0 1 7.942-14.858 85.8 85.8 0 0 1 10.687-13.023 85.7 85.7 0 0 1 13.023-10.688 85.7 85.7 0 0 1 14.857-7.942 85.8 85.8 0 0 1 16.12-4.89 85.7 85.7 0 0 1 16.766-1.651q8.464 0 16.765 1.65a85.7 85.7 0 0 1 16.12 4.891 85.7 85.7 0 0 1 14.858 7.942 85.8 85.8 0 0 1 13.023 10.688 85.7 85.7 0 0 1 10.687 13.023 85.7 85.7 0 0 1 7.941 14.858 85.7 85.7 0 0 1 4.89 16.122 85.8 85.8 0 0 1 1.652 16.766q0 8.463-1.651 16.766a85.8 85.8 0 0 1-4.89 16.122 85.8 85.8 0 0 1-7.942 14.858 85.8 85.8 0 0 1-10.687 13.023 85.7 85.7 0 0 1-13.023 10.688 85.8 85.8 0 0 1-14.857 7.942 85.7 85.7 0 0 1-16.121 4.89 85.7 85.7 0 0 1-16.765 1.652q-8.464 0-16.765-1.652a85.7 85.7 0 0 1-16.121-4.89 85.7 85.7 0 0 1-14.857-7.942 85.7 85.7 0 0 1-13.023-10.688 85.7 85.7 0 0 1-10.687-13.023 85.7 85.7 0 0 1-7.941-14.858 85.7 85.7 0 0 1-4.89-16.122 85.7 85.7 0 0 1-1.652-16.766z"/></clipPath><clipPath id="k"><path d="M0 0h2479.2v3507.7H0z"/></clipPath><clipPath id="l"><path d="M0 0h2426v6868.5H0z"/></clipPath><clipPath id="m"><path d="M88.23 1503.2h174.14v174.15H88.23z"/></clipPath><clipPath id="n"><path d="M89.365 1590.3q0-8.465 1.651-16.766a85.8 85.8 0 0 1 4.89-16.122 85.8 85.8 0 0 1 7.942-14.858 85.8 85.8 0 0 1 10.687-13.023 85.7 85.7 0 0 1 13.023-10.688 85.7 85.7 0 0 1 14.857-7.942 85.8 85.8 0 0 1 16.12-4.89 85.7 85.7 0 0 1 16.766-1.651q8.464 0 16.765 1.65a85.7 85.7 0 0 1 16.12 4.891 85.7 85.7 0 0 1 14.858 7.942 85.8 85.8 0 0 1 13.023 10.688 85.7 85.7 0 0 1 10.687 13.023 85.7 85.7 0 0 1 7.941 14.858 85.7 85.7 0 0 1 4.89 16.122 85.8 85.8 0 0 1 1.652 16.766q0 8.463-1.651 16.766a85.8 85.8 0 0 1-4.89 16.122 85.8 85.8 0 0 1-7.942 14.858 85.8 85.8 0 0 1-10.687 13.023 85.7 85.7 0 0 1-13.023 10.688 85.8 85.8 0 0 1-14.857 7.942 85.7 85.7 0 0 1-16.121 4.89 85.7 85.7 0 0 1-16.765 1.652q-8.464 0-16.765-1.652a85.7 85.7 0 0 1-16.121-4.89 85.7 85.7 0 0 1-14.857-7.942 85.7 85.7 0 0 1-13.023-10.688 85.7 85.7 0 0 1-10.687-13.023 85.7 85.7 0 0 1-7.941-14.858 85.7 85.7 0 0 1-4.89-16.122 85.7 85.7 0 0 1-1.652-16.766z"/></clipPath><clipPath id="o"><path d="M88.23 1503.2h174.14v174.15H88.23z"/></clipPath><clipPath id="p"><path d="M89.365 1590.3q0-8.465 1.651-16.766a85.8 85.8 0 0 1 4.89-16.122 85.8 85.8 0 0 1 7.942-14.858 85.8 85.8 0 0 1 10.687-13.023 85.7 85.7 0 0 1 13.023-10.688 85.7 85.7 0 0 1 14.857-7.942 85.8 85.8 0 0 1 16.12-4.89 85.7 85.7 0 0 1 16.766-1.651q8.464 0 16.765 1.65a85.7 85.7 0 0 1 16.12 4.891 85.7 85.7 0 0 1 14.858 7.942 85.8 85.8 0 0 1 13.023 10.688 85.7 85.7 0 0 1 10.687 13.023 85.7 85.7 0 0 1 7.941 14.858 85.7 85.7 0 0 1 4.89 16.122 85.8 85.8 0 0 1 1.652 16.766q0 8.463-1.651 16.766a85.8 85.8 0 0 1-4.89 16.122 85.8 85.8 0 0 1-7.942 14.858 85.8 85.8 0 0 1-10.687 13.023 85.7 85.7 0 0 1-13.023 10.688 85.8 85.8 0 0 1-14.857 7.942 85.7 85.7 0 0 1-16.121 4.89 85.7 85.7 0 0 1-16.765 1.652q-8.464 0-16.765-1.652a85.7 85.7 0 0 1-16.121-4.89 85.7 85.7 0 0 1-14.857-7.942 85.7 85.7 0 0 1-13.023-10.688 85.7 85.7 0 0 1-10.687-13.023 85.7 85.7 0 0 1-7.941-14.858 85.7 85.7 0 0 1-4.89-16.122 85.7 85.7 0 0 1-1.652-16.766z"/></clipPath><clipPath id="q"><path d="M0 0h2479.2v3507.7H0z"/></clipPath><clipPath id="r"><path d="M0 0h2426v6868.5H0z"/></clipPath><clipPath id="s"><path d="M88.23 1503.2h174.14v174.15H88.23z"/></clipPath><clipPath id="t"><path d="M89.365 1590.3q0-8.465 1.651-16.766a85.8 85.8 0 0 1 4.89-16.122 85.8 85.8 0 0 1 7.942-14.858 85.8 85.8 0 0 1 10.687-13.023 85.7 85.7 0 0 1 13.023-10.688 85.7 85.7 0 0 1 14.857-7.942 85.8 85.8 0 0 1 16.12-4.89 85.7 85.7 0 0 1 16.766-1.651q8.464 0 16.765 1.65a85.7 85.7 0 0 1 16.12 4.891 85.7 85.7 0 0 1 14.858 7.942 85.8 85.8 0 0 1 13.023 10.688 85.7 85.7 0 0 1 10.687 13.023 85.7 85.7 0 0 1 7.941 14.858 85.7 85.7 0 0 1 4.89 16.122 85.8 85.8 0 0 1 1.652 16.766q0 8.463-1.651 16.766a85.8 85.8 0 0 1-4.89 16.122 85.8 85.8 0 0 1-7.942 14.858 85.8 85.8 0 0 1-10.687 13.023 85.7 85.7 0 0 1-13.023 10.688 85.8 85.8 0 0 1-14.857 7.942 85.7 85.7 0 0 1-16.121 4.89 85.7 85.7 0 0 1-16.765 1.652q-8.464 0-16.765-1.652a85.7 85.7 0 0 1-16.121-4.89 85.7 85.7 0 0 1-14.857-7.942 85.7 85.7 0 0 1-13.023-10.688 85.7 85.7 0 0 1-10.687-13.023 85.7 85.7 0 0 1-7.941-14.858 85.7 85.7 0 0 1-4.89-16.122 85.7 85.7 0 0 1-1.652-16.766z"/></clipPath><clipPath id="u"><path d="M88.23 1503.2h174.14v174.15H88.23z"/></clipPath><clipPath id="v"><path d="M89.365 1590.3q0-8.465 1.651-16.766a85.8 85.8 0 0 1 4.89-16.122 85.8 85.8 0 0 1 7.942-14.858 85.8 85.8 0 0 1 10.687-13.023 85.7 85.7 0 0 1 13.023-10.688 85.7 85.7 0 0 1 14.857-7.942 85.8 85.8 0 0 1 16.12-4.89 85.7 85.7 0 0 1 16.766-1.651q8.464 0 16.765 1.65a85.7 85.7 0 0 1 16.12 4.891 85.7 85.7 0 0 1 14.858 7.942 85.8 85.8 0 0 1 13.023 10.688 85.7 85.7 0 0 1 10.687 13.023 85.7 85.7 0 0 1 7.941 14.858 85.7 85.7 0 0 1 4.89 16.122 85.8 85.8 0 0 1 1.652 16.766q0 8.463-1.651 16.766a85.8 85.8 0 0 1-4.89 16.122 85.8 85.8 0 0 1-7.942 14.858 85.8 85.8 0 0 1-10.687 13.023 85.7 85.7 0 0 1-13.023 10.688 85.8 85.8 0 0 1-14.857 7.942 85.7 85.7 0 0 1-16.121 4.89 85.7 85.7 0 0 1-16.765 1.652q-8.464 0-16.765-1.652a85.7 85.7 0 0 1-16.121-4.89 85.7 85.7 0 0 1-14.857-7.942 85.7 85.7 0 0 1-13.023-10.688 85.7 85.7 0 0 1-10.687-13.023 85.7 85.7 0 0 1-7.941-14.858 85.7 85.7 0 0 1-4.89-16.122 85.7 85.7 0 0 1-1.652-16.766z"/></clipPath><clipPath id="w"><path d="M0 0h2479.2v3507.7H0z"/></clipPath><clipPath id="x"><path d="M0 0h2426v6868.5H0z"/></clipPath><clipPath id="y"><path d="M88.23 1503.2h174.14v174.15H88.23z"/></clipPath><clipPath id="z"><path d="M89.365 1590.3q0-8.465 1.651-16.766a85.8 85.8 0 0 1 4.89-16.122 85.8 85.8 0 0 1 7.942-14.858 85.8 85.8 0 0 1 10.687-13.023 85.7 85.7 0 0 1 13.023-10.688 85.7 85.7 0 0 1 14.857-7.942 85.8 85.8 0 0 1 16.12-4.89 85.7 85.7 0 0 1 16.766-1.651q8.464 0 16.765 1.65a85.7 85.7 0 0 1 16.12 4.891 85.7 85.7 0 0 1 14.858 7.942 85.8 85.8 0 0 1 13.023 10.688 85.7 85.7 0 0 1 10.687 13.023 85.7 85.7 0 0 1 7.941 14.858 85.7 85.7 0 0 1 4.89 16.122 85.8 85.8 0 0 1 1.652 16.766q0 8.463-1.651 16.766a85.8 85.8 0 0 1-4.89 16.122 85.8 85.8 0 0 1-7.942 14.858 85.8 85.8 0 0 1-10.687 13.023 85.7 85.7 0 0 1-13.023 10.688 85.8 85.8 0 0 1-14.857 7.942 85.7 85.7 0 0 1-16.121 4.89 85.7 85.7 0 0 1-16.765 1.652q-8.464 0-16.765-1.652a85.7 85.7 0 0 1-16.121-4.89 85.7 85.7 0 0 1-14.857-7.942 85.7 85.7 0 0 1-13.023-10.688 85.7 85.7 0 0 1-10.687-13.023 85.7 85.7 0 0 1-7.941-14.858 85.7 85.7 0 0 1-4.89-16.122 85.7 85.7 0 0 1-1.652-16.766z"/></clipPath><clipPath id="A"><path d="M0 0h2426v3507.7H0z" clip-rule="evenodd"/></clipPath></defs><g clip-path="url(#a)" transform="translate(-7.439 -127.241)scale(.08467)"><g clip-path="url(#b)"><g clip-path="url(#c)"><g clip-path="url(#d)"><path fill="#71cfeb" d="M261.238 1590.3a85.9 85.9 0 0 1-3.7 24.947 85.9 85.9 0 0 1-10.783 22.8 85.9 85.9 0 0 1-16.937 18.686 85.9 85.9 0 0 1-29.571 15.807 85.9 85.9 0 0 1-24.947 3.7 85.9 85.9 0 0 1-24.947-3.7 85.9 85.9 0 0 1-22.798-10.783 85.9 85.9 0 0 1-18.686-16.937 85.9 85.9 0 0 1-15.806-29.573 85.9 85.9 0 0 1-3.7-24.947 85.9 85.9 0 0 1 3.7-24.947 85.9 85.9 0 0 1 10.782-22.8 85.9 85.9 0 0 1 16.936-18.686 85.9 85.9 0 0 1 29.572-15.807 85.9 85.9 0 0 1 24.947-3.7 85.9 85.9 0 0 1 24.947 3.7 85.9 85.9 0 0 1 22.797 10.783 85.9 85.9 0 0 1 18.687 16.937 85.9 85.9 0 0 1 15.806 29.573 85.9 85.9 0 0 1 3.7 24.947"/></g></g></g></g><g clip-path="url(#e)" transform="translate(-7.439 -127.241)scale(.08467)"><g clip-path="url(#f)"><g clip-path="url(#g)"><g clip-path="url(#h)"><g clip-path="url(#i)"><g clip-path="url(#j)"><path fill="#fff" d="M25.175 1537.103h300.25v17.732H25.175z"/></g></g></g></g></g></g><g clip-path="url(#k)" transform="translate(-7.439 -127.241)scale(.08467)"><g clip-path="url(#l)"><g clip-path="url(#m)"><g clip-path="url(#n)"><g clip-path="url(#o)"><g clip-path="url(#p)"><path fill="#fff" d="M25.175 1625.764h300.25v17.732H25.175z"/></g></g></g></g></g></g><g clip-path="url(#q)" transform="translate(-7.439 -127.241)scale(.08467)"><g clip-path="url(#r)"><g clip-path="url(#s)"><g clip-path="url(#t)"><g clip-path="url(#u)"><g clip-path="url(#v)"><path fill="#f1f1d9" d="M25.175 1563.702h300.25v53.197H25.175z"/><path fill="none" stroke="#000" stroke-miterlimit="10" d="M-50-8.858H50V8.859H-50z" transform="matrix(3.0025 0 0 3.0026 175.3 1590.3)"/></g></g></g></g></g></g><g clip-path="url(#w)" transform="translate(-7.439 -127.241)scale(.08467)"><g clip-path="url(#x)"><g clip-path="url(#y)"><g clip-path="url(#z)"><text font-family="Bitter" font-size="15.87" font-weight="bold" transform="matrix(3.1276 0 0 3.1277 132.514 1607.367)"><tspan x="0 9.5854797 18.79007" y="0">SFL</tspan></text></g></g></g></g><g clip-path="url(#A)" transform="translate(-7.439 -127.241)scale(.08467)"><path fill="none" stroke="#000" stroke-miterlimit="10" d="M28.622 0a28.6 28.6 0 0 1-4.824 15.902 28.6 28.6 0 0 1-10.306 9.34 28.6 28.6 0 0 1-10.687 3.242 28.6 28.6 0 0 1-13.758-2.04 28.625 28.625 0 0 1-17.531-29.25 28.6 28.6 0 0 1 4.686-13.096 28.6 28.6 0 0 1 10.306-9.34 28.6 28.6 0 0 1 10.686-3.242 28.6 28.6 0 0 1 13.76 2.04A28.625 28.625 0 0 1 28.621 0z" transform="matrix(3.0025 0 0 3.0026 175.3 1590.3)"/></g></svg>