<svg xmlns="http://www.w3.org/2000/svg" xml:space="preserve" id="svg735" width="37.817" height="37.817" fill-rule="evenodd" clip-rule="evenodd" image-rendering="optimizeQuality" shape-rendering="geometricPrecision" text-rendering="geometricPrecision" viewBox="0 0 1003.974 1004"><defs id="defs4"><style id="style2" type="text/css">.str0,.str2{stroke-width:7.64585}.str2{stroke:#fefefe}.str0{stroke:#2b2a29}.fil4{fill:none;fill-rule:nonzero}.fil5{fill:#2b2a29}.fil3{fill:#fefefe;fill-rule:nonzero}</style></defs><g id="layer1" transform="translate(-1308.468 -94.632)"><g id="CL" fill-rule="evenodd" clip-rule="evenodd" image-rendering="optimizeQuality" shape-rendering="geometricPrecision" text-rendering="geometricPrecision"><circle id="circle59-9" cx="1810.219" cy="596.632" r="502" fill="#fefefe" stroke-width="1"/><g id="_733351096" transform="translate(-10460.58 -205.291)scale(1.27542)"><path id="path507" d="m9311 428 310-121 311 114c-12 274-104 478-315 577-210-133-312-322-306-570z" class="fil5 str0"/><path id="path509" d="M9578 540h98l-29 28v220h2l7 1h2V570l22-22 3 4-20 21v216c6 1 12 1 18 1 22 0 38-5 49-15 12-9 19-25 23-48 13 38 26 64 40 77h-215l28-23V566zm235 263-9 18h-215l-5-5h218l6-13c-16-19-28-40-37-62l-1-3 7 3 2 3c9 21 20 39 32 57z" class="fil3"/><path id="path511" d="M9578 540h98l-29 28v220h2l7 1h2V570l22-22 3 4-20 21v216c6 1 12 1 18 1 22 0 38-5 49-15 12-9 19-25 23-48 13 38 26 64 40 77h-215l28-23V566zm235 263-9 18h-215l-5-5h218l6-13c-16-19-28-40-37-62l-1-3 7 3 2 3c9 21 20 39 32 57z" class="fil4 str2"/><path id="path513" d="m9620 300 325 122c0 254-99 477-325 593-212-116-326-332-323-595zm302 137-302-111-299 111c-6 246 102 448 299 554 210-106 302-315 302-554z" class="fil5 str0"/><path id="path515" d="m9561 430-3 4c-12 22-23 44-32 65l-2 5-2-2c-3-20-11-37-22-49q-18-18-42-18c-18 0-32 7-44 22-15 19-22 51-22 97 0 39 7 69 20 91q21 33 57 33c19 0 34-6 46-19 11-13 18-31 20-55 1-5 3-8 7-8 6 0 8 4 8 13 0 13-3 27-9 41-12 31-39 46-79 46-36 0-64-13-85-38s-32-59-32-102q0-58.5 33-99c22-26 49-40 82-40 15 0 33 4 52 12 11 4 19 6 26 6s14-2 19-6zm-60 36c-12-10-24-15-35-15-36 0-53 34-53 102 0 31 4 56 12 77s20 34 34 40v2c-16-3-29-16-38-37-10-22-15-49-15-83 0-71 20-106 59-106 13 0 25 6 36 17zm67 142c-2 34-12 60-28 77-17 18-41 27-71 27-23 0-44-7-64-21v-2c18 12 39 18 64 18q40.5 0 66-27c9-8 15-18 19-28 4-11 6-25 8-42v-5zm8-168-3 4c-15 26-26 49-35 70l-6-2 2-6c7-14 13-26 18-35l17-30 2-3z" class="fil3"/><path id="path517" d="m9561 430-3 4c-12 22-23 44-32 65l-2 5-2-2c-3-20-11-37-22-49q-18-18-42-18c-18 0-32 7-44 22-15 19-22 51-22 97 0 39 7 69 20 91q21 33 57 33c19 0 34-6 46-19 11-13 18-31 20-55 1-5 3-8 7-8 6 0 8 4 8 13 0 13-3 27-9 41-12 31-39 46-79 46-36 0-64-13-85-38s-32-59-32-102q0-58.5 33-99c22-26 49-40 82-40 15 0 33 4 52 12 11 4 19 6 26 6s14-2 19-6zm-60 36c-12-10-24-15-35-15-36 0-53 34-53 102 0 31 4 56 12 77s20 34 34 40v2c-16-3-29-16-38-37-10-22-15-49-15-83 0-71 20-106 59-106 13 0 25 6 36 17zm67 142c-2 34-12 60-28 77-17 18-41 27-71 27-23 0-44-7-64-21v-2c18 12 39 18 64 18q40.5 0 66-27c9-8 15-18 19-28 4-11 6-25 8-42v-5zm8-168-3 4c-15 26-26 49-35 70l-6-2 2-6c7-14 13-26 18-35l17-30 2-3z" class="fil4 str2"/></g></g></g></svg>