<svg xmlns="http://www.w3.org/2000/svg" xml:space="preserve" id="svg735" width="37.817" height="37.817" fill-rule="evenodd" clip-rule="evenodd" image-rendering="optimizeQuality" shape-rendering="geometricPrecision" text-rendering="geometricPrecision" viewBox="0 0 1003.974 1004"><defs id="defs4"><style id="style2" type="text/css">.str0{stroke:#2b2a29;stroke-width:7.64585}.fil3,.fil4{fill-rule:nonzero}.fil4{fill:none}.fil3{fill:#fefefe}</style></defs><g id="layer1" transform="translate(-2742.81 -3718.615)"><g id="KK" fill-rule="evenodd" clip-rule="evenodd" image-rendering="optimizeQuality" shape-rendering="geometricPrecision" text-rendering="geometricPrecision"><circle id="circle59-3-1-8" cx="3244.561" cy="4220.615" r="502" fill="#fefefe" fill-opacity="1" stroke-width="1"/><g id="g3432" transform="translate(9.772 -5.823)"><path id="path637" fill="#d7b56d" d="m2844.18 3986.7 394.855-155.294 397.263 145.663c-15.65 350.314-133.625 609.136-400.874 735.538-268.454-168.535-399.67-410.505-391.244-725.907z" class="str0"/><path id="path639" stroke-width="1.204" d="M2898.352 3960.216h127.606l-37.319 36.114v166.128l14.446-16.853v-146.867l31.3-30.096 3.611 6.02-27.688 27.688v134.828l84.268-102.325c13.242-14.446 19.261-27.688 19.261-39.726 0-6.02-3.611-13.243-10.834-19.262-7.223-7.223-15.65-10.834-25.28-13.242v-2.407h144.458v2.407c-31.3 8.427-65.006 33.707-102.325 78.249l-38.522 45.745 102.325 196.224 45.745 30.096H3086.15l36.115-26.484-67.415-137.237-44.541 55.376v78.25l44.541 52.968h-140.847l-7.223-7.223h131.217l-34.911-42.134v-85.472l48.153-58.987-6.02-12.039-56.579 67.414v85.472l32.503 30.096h-125.198l37.319-32.504V3992.72zm338.275 25.28c-27.688 1.204-54.172 18.057-81.86 46.95l-48.153 54.171 97.51 196.224 78.249 52.969h-175.759l-7.223-7.223h158.905l-57.783-39.727-101.122-202.243 51.765-57.783c26.484-30.096 54.172-46.95 81.86-49.357z" class="fil3"/><path id="path641" d="M2898.352 3960.216h127.606l-37.319 36.114v166.128l14.446-16.853v-146.867l31.3-30.096 3.611 6.02-27.688 27.688v134.828l84.268-102.325c13.242-14.446 19.261-27.688 19.261-39.726 0-6.02-3.611-13.243-10.834-19.262-7.223-7.223-15.65-10.834-25.28-13.242v-2.407h144.458v2.407c-31.3 8.427-65.006 33.707-102.325 78.249l-38.522 45.745 102.325 196.224 45.745 30.096H3086.15l36.115-26.484-67.415-137.237-44.541 55.376v78.25l44.541 52.968h-140.847l-7.223-7.223h131.217l-34.911-42.134v-85.472l48.153-58.987-6.02-12.039-56.579 67.414v85.472l32.503 30.096h-125.198l37.319-32.504V3992.72zm338.275 25.28c-27.688 1.204-54.172 18.057-81.86 46.95l-48.153 54.171 97.51 196.224 78.249 52.969h-175.759l-7.223-7.223h158.905l-57.783-39.727-101.122-202.243 51.765-57.783c26.484-30.096 54.172-46.95 81.86-49.357z" class="fil4 str0"/><path id="path643" fill="#2b2a29" d="m3234.22 3807.33 414.116 155.293c0 325.034-125.198 609.137-414.116 757.207-270.861-148.07-416.524-423.747-412.913-759.614zm385.224 174.555-385.224-142.052-381.613 142.052c-7.223 314.198 130.013 571.817 381.613 706.646 268.453-134.829 385.224-400.874 385.224-706.646z" class="str0"/><path id="path645" stroke-width="1.204" d="M3112.633 4114.305h128.81l-38.523 36.115v166.128l14.446-16.853v-146.867l31.3-30.096 4.815 6.02-28.892 27.687v134.829l85.472-102.325q18.057-21.669 18.057-39.727c0-7.223-3.611-13.242-10.834-19.26-6.02-7.224-14.446-10.835-25.28-13.243v-2.408h145.662v2.408c-32.503 8.427-66.21 33.707-102.325 78.249l-38.522 44.541 101.121 197.428 45.746 30.096h-142.052l36.115-26.485-68.618-137.236-44.542 55.376v78.249l44.542 52.968h-140.848l-7.223-7.223h132.42l-36.114-42.134v-85.471l48.153-58.988-6.019-12.038-56.58 67.414v85.472l33.707 30.096h-126.401l38.522-32.504V4146.81zm338.276 25.28c-26.485 1.205-54.173 16.854-80.657 46.95l-48.153 54.172 96.306 196.224 78.249 52.968h-174.555l-7.223-7.223h158.905l-58.987-40.93-99.918-201.039 50.56-57.783c26.485-30.096 54.173-46.95 83.065-49.357z" class="fil3"/><path id="path647" d="M3112.633 4114.305h128.81l-38.523 36.115v166.128l14.446-16.853v-146.867l31.3-30.096 4.815 6.02-28.892 27.687v134.829l85.472-102.325q18.057-21.669 18.057-39.727c0-7.223-3.611-13.242-10.834-19.26-6.02-7.224-14.446-10.835-25.28-13.243v-2.408h145.662v2.408c-32.503 8.427-66.21 33.707-102.325 78.249l-38.522 44.541 101.121 197.428 45.746 30.096h-142.052l36.115-26.485-68.618-137.236-44.542 55.376v78.249l44.542 52.968h-140.848l-7.223-7.223h132.42l-36.114-42.134v-85.471l48.153-58.988-6.019-12.038-56.58 67.414v85.472l33.707 30.096h-126.401l38.522-32.504V4146.81zm338.276 25.28c-26.485 1.205-54.173 16.854-80.657 46.95l-48.153 54.172 96.306 196.224 78.249 52.968h-174.555l-7.223-7.223h158.905l-58.987-40.93-99.918-201.039 50.56-57.783c26.485-30.096 54.173-46.95 83.065-49.357z" class="fil4 str0"/></g></g></g></svg>