<svg xmlns="http://www.w3.org/2000/svg" xml:space="preserve" id="svg735" width="37.817" height="37.817" fill-rule="evenodd" clip-rule="evenodd" image-rendering="optimizeQuality" shape-rendering="geometricPrecision" text-rendering="geometricPrecision" viewBox="0 0 1003.974 1004"><defs id="defs4"><style id="style2" type="text/css">.str0{stroke:#2b2a29;stroke-width:7.64585}.fil3,.fil4{fill-rule:nonzero}.fil4{fill:none}.fil3{fill:#fefefe}</style></defs><g id="layer1" transform="translate(-3918.286 -2559.322)"><g id="SD" fill-rule="evenodd" clip-rule="evenodd" image-rendering="optimizeQuality" shape-rendering="geometricPrecision" text-rendering="geometricPrecision"><circle id="circle61" cx="4420.037" cy="3061.322" r="502" fill="#fefefe"/><g id="g76" transform="translate(-12076.975 957.79)scale(1.12)"><path id="path63" fill="#ef7f1a" d="m14727 1525-356 133c5 209 19 447 359 663 260-149 365-379 362-663z"/><g id="g74"><path id="path65" d="M14652 1864h92c46 0 79 9 101 26 32 26 48 66 48 121q0 85.5-42 123c-13 12-27 20-43 24-16 5-37 7-63 7h-100l32-24v-250zm72 20v263h12v-247c8-2 16-2 22-2 13 0 23 1 31 4 7 2 15 7 22 14-16-8-34-12-53-12-4 0-10 0-16 1v242c17 0 31-1 40-4s17-9 25-17c23-23 34-61 34-116q0-79.5-36-108c-15-12-38-18-70-18zm-64 301-4-7h86c43 0 75-5 97-17 47-25 70-74 70-146 0-48-10-83-31-107l-10-10-3-3c34 20 50 60 50 119 0 62-16 108-49 137-25 22-67 34-124 34z" class="fil3"/><path id="1" d="M14652 1864h92c46 0 79 9 101 26 32 26 48 66 48 121q0 85.5-42 123c-13 12-27 20-43 24-16 5-37 7-63 7h-100l32-24v-250zm72 20v263h12v-247c8-2 16-2 22-2 13 0 23 1 31 4 7 2 15 7 22 14-16-8-34-12-53-12-4 0-10 0-16 1v242c17 0 31-1 40-4s17-9 25-17c23-23 34-61 34-116q0-79.5-36-108c-15-12-38-18-70-18zm-64 301-4-7h86c43 0 75-5 97-17 47-25 70-74 70-146 0-48-10-83-31-107l-10-10-3-3c34 20 50 60 50 119 0 62-16 108-49 137-25 22-67 34-124 34z" class="fil4 str0"/><path id="path68" fill="#2b2a29" d="m14729 1504 370 139c0 290-112 544-370 676-241-132-372-378-369-678zm344 157-344-127-341 127c-6 280 116 510 341 630 240-120 344-358 344-630z" class="str0"/><path id="path70" d="M14705 1631c-8 11-15 23-19 35-10 23-16 38-19 43l-2 1c0-1-1-3-1-4-4-14-8-23-11-29q-4.5-7.5-12-15c-15-13-31-19-49-19-17 0-31 4-42 14-11 9-17 21-17 35 0 26 20 44 60 53l39 10c57 14 85 43 85 89 0 26-9 47-29 65-19 17-43 26-71 26-18 0-38-3-60-8l-28-7c-11-3-20-4-27-4q-15 0-30 9l-2-3c20-29 33-57 41-84l4 1c4 25 13 44 30 58 16 13 38 20 64 20 21 0 38-5 50-14 13-10 19-23 19-40 0-19-9-34-26-46-12-9-38-17-76-25-30-6-51-15-64-29-14-13-20-32-20-56 0-25 9-45 26-60 18-15 41-23 70-23 18 0 40 3 64 10 11 3 20 4 25 4 8 0 17-2 26-8zm15 10-2 4c-7 11-12 21-17 31q-16.5 34.5-18 39l-2 1-5-2 1-2c4-11 11-24 19-41l16-31 2-2zm-69 47c-17-18-36-28-56-28-12 0-22 4-29 11-8 7-12 15-12 26q0 18 24 36l2 1-1 2c-21-9-31-23-31-40 0-12 4-22 13-30s20-11 34-11 25 2 35 8c11 6 18 14 23 24zm54 93c21 16 32 38 32 67s-11 55-35 75c-23 21-51 32-84 32-17 0-32-2-46-6l-38-9c-8-2-18-3-28-3-9 0-17 2-25 5l-2-7c8-3 16-5 25-5s20 1 32 4l36 9c15 3 30 5 46 5 31 0 58-10 80-30s33-44 33-72c0-24-9-45-26-63zm-167 68c6 28 21 48 46 60v2c-29-9-46-29-52-61zm-30-76 9 4c5 10 20 17 45 23l38 10c25 6 42 12 51 16q13.5 7.5 18 21l-1 1c-8-8-15-14-23-18-9-3-24-8-48-13-34-8-56-15-68-21-11-6-18-13-21-23" class="fil3"/><path id="path72" d="M14705 1631c-8 11-15 23-19 35-10 23-16 38-19 43l-2 1c0-1-1-3-1-4-4-14-8-23-11-29q-4.5-7.5-12-15c-15-13-31-19-49-19-17 0-31 4-42 14-11 9-17 21-17 35 0 26 20 44 60 53l39 10c57 14 85 43 85 89 0 26-9 47-29 65-19 17-43 26-71 26-18 0-38-3-60-8l-28-7c-11-3-20-4-27-4q-15 0-30 9l-2-3c20-29 33-57 41-84l4 1c4 25 13 44 30 58 16 13 38 20 64 20 21 0 38-5 50-14 13-10 19-23 19-40 0-19-9-34-26-46-12-9-38-17-76-25-30-6-51-15-64-29-14-13-20-32-20-56 0-25 9-45 26-60 18-15 41-23 70-23 18 0 40 3 64 10 11 3 20 4 25 4 8 0 17-2 26-8zm15 10-2 4c-7 11-12 21-17 31q-16.5 34.5-18 39l-2 1-5-2 1-2c4-11 11-24 19-41l16-31 2-2zm-69 47c-17-18-36-28-56-28-12 0-22 4-29 11-8 7-12 15-12 26q0 18 24 36l2 1-1 2c-21-9-31-23-31-40 0-12 4-22 13-30s20-11 34-11 25 2 35 8c11 6 18 14 23 24zm54 93c21 16 32 38 32 67s-11 55-35 75c-23 21-51 32-84 32-17 0-32-2-46-6l-38-9c-8-2-18-3-28-3-9 0-17 2-25 5l-2-7c8-3 16-5 25-5s20 1 32 4l36 9c15 3 30 5 46 5 31 0 58-10 80-30s33-44 33-72c0-24-9-45-26-63zm-167 68c6 28 21 48 46 60v2c-29-9-46-29-52-61zm-30-76 9 4c5 10 20 17 45 23l38 10c25 6 42 12 51 16q13.5 7.5 18 21l-1 1c-8-8-15-14-23-18-9-3-24-8-48-13-34-8-56-15-68-21-11-6-18-13-21-23z" class="fil4 str0"/></g></g></g></g></svg>