<svg xmlns="http://www.w3.org/2000/svg" xml:space="preserve" id="svg735" width="37.817" height="37.817" fill-rule="evenodd" clip-rule="evenodd" image-rendering="optimizeQuality" shape-rendering="geometricPrecision" text-rendering="geometricPrecision" viewBox="0 0 1003.974 1004"><defs id="defs4"><style id="style2" type="text/css">.str0{stroke:#2b2a29;stroke-width:7.64585}.fil3,.fil4{fill-rule:nonzero}.fil4{fill:none}.fil3{fill:#fefefe}</style></defs><g id="layer1" transform="translate(-5086.098 -2566.67)"><g id="UG" fill-rule="evenodd" clip-rule="evenodd" image-rendering="optimizeQuality" shape-rendering="geometricPrecision" text-rendering="geometricPrecision"><circle id="circle59-09" cx="5587.849" cy="3068.67" r="502" fill="#fefefe" stroke-width="1"/><g id="_744039408" transform="translate(-13886.676 -762.458)scale(1.21431)"><path id="path193" fill="#d7b56d" stroke="#b7cbd8" stroke-width="7.646" d="m16030 2832-310 116c4 181 16 389 312 577 227-130 318-330 316-577z"/><path id="path195" fill="#ae4a84" d="m16029 2823-324 121c5 190 17 406 327 604 237-136 332-345 330-604z"/><path id="path197" d="m16168 3122-40 79c-3-22-10-39-22-51-11-12-27-18-46-18-27 0-48 10-63 31s-23 51-23 89c0 83 35 125 103 125h35v-112h-55c-12 0-20-1-25-2-5-2-10-4-15-9v-5c5 4 10 6 16 8 5 1 13 1 25 1h54v-11h-70q-33 0-33-24 0-9 6-15c3-5 8-7 13-7 4 0 7 2 10 4 3 3 4 6 4 10 0 7-2 10-7 11l-5 1c-2 1-3 1-3 2 0 2 3 3 7 3h151l-30 29v107l28 24h-133c-18 0-33-2-45-7-12-4-25-12-37-24-29-26-43-62-43-106 0-46 13-82 41-108 24-23 52-34 85-34 15 0 32 3 51 8s32 8 38 8c10 0 19-3 28-7m13 13-37 73-5-2 37-73zm-69 33-4-3c-16-11-31-17-45-17-17 0-31 6-43 18-9 8-15 20-19 34-3 14-5 32-5 55 0 29 3 51 8 67 6 15 17 29 32 41v3c-16-10-29-24-36-42s-11-43-11-74c0-34 6-61 19-80s31-28 55-28c20 0 36 8 49 25zm83 76-23 23v101l36 42-86-1-78 1c-4 0-8-1-11-1-9-1-18-5-27-11h4c10 4 23 6 41 6h145l-30-33v-106l25-26z" class="fil3"/><path id="path199" d="m16168 3122-40 79c-3-22-10-39-22-51-11-12-27-18-46-18-27 0-48 10-63 31s-23 51-23 89c0 83 35 125 103 125h35v-112h-55c-12 0-20-1-25-2-5-2-10-4-15-9v-5c5 4 10 6 16 8 5 1 13 1 25 1h54v-11h-70q-33 0-33-24 0-9 6-15c3-5 8-7 13-7 4 0 7 2 10 4 3 3 4 6 4 10 0 7-2 10-7 11l-5 1c-2 1-3 1-3 2 0 2 3 3 7 3h151l-30 29v107l28 24h-133c-18 0-33-2-45-7-12-4-25-12-37-24-29-26-43-62-43-106 0-46 13-82 41-108 24-23 52-34 85-34 15 0 32 3 51 8s32 8 38 8c10 0 19-3 28-7zm13 13-37 73-5-2 37-73zm-69 33-4-3c-16-11-31-17-45-17-17 0-31 6-43 18-9 8-15 20-19 34-3 14-5 32-5 55 0 29 3 51 8 67 6 15 17 29 32 41v3c-16-10-29-24-36-42s-11-43-11-74c0-34 6-61 19-80s31-28 55-28c20 0 36 8 49 25zm83 76-23 23v101l36 42-86-1-78 1c-4 0-8-1-11-1-9-1-18-5-27-11h4c10 4 23 6 41 6h145l-30-33v-106l25-26z" class="fil4 str0"/><path id="path201" fill="#2b2a29" d="m16037 2809 341 128c0 267-103 501-341 623-223-122-343-348-340-625zm317 144-317-117-314 117c-6 259 106 470 314 582 221-112 317-331 317-582z" class="str0"/><path id="path203" d="m16062 2934-39 31v140c0 26-1 44-3 56-1 11-5 20-9 27-13 19-37 28-73 28-38 0-64-9-79-28q-18-21-18-84v-143l-29-27h102l-29 29v175c0 22 4 37 13 46s24 13 46 13c23 0 39-6 48-20 7-11 10-35 10-72l1-140-33-31zm7 15-29 24v135c0 44-4 73-11 86-14 27-41 41-82 41-36 0-63-9-80-27l1 1 8 4c18 11 40 16 68 16 40 0 67-13 80-38 7-13 10-41 10-82v-138l32-27zm-146-3-21 21v176l6 28c4 5 10 12 19 20l1 2c-12-5-21-12-25-22-5-9-7-24-7-43v-163l24-24z" class="fil3"/><path id="path205" d="m16062 2934-39 31v140c0 26-1 44-3 56-1 11-5 20-9 27-13 19-37 28-73 28-38 0-64-9-79-28q-18-21-18-84v-143l-29-27h102l-29 29v175c0 22 4 37 13 46s24 13 46 13c23 0 39-6 48-20 7-11 10-35 10-72l1-140-33-31zm7 15-29 24v135c0 44-4 73-11 86-14 27-41 41-82 41-36 0-63-9-80-27l1 1 8 4c18 11 40 16 68 16 40 0 67-13 80-38 7-13 10-41 10-82v-138l32-27zm-146-3-21 21v176l6 28c4 5 10 12 19 20l1 2c-12-5-21-12-25-22-5-9-7-24-7-43v-163l24-24z" class="fil4 str0"/></g></g></g></svg>