<svg xmlns="http://www.w3.org/2000/svg" width="40" height="40" data-name="Layer 1"><circle cx="20" cy="20" r="19.62" fill="red"/><path fill="#fff" d="M13 17a5 5 0 0 0-1.53-.21c-1.49 0-2.24 1.11-2.24 3.34s.77 3.13 2.31 3.13a3.6 3.6 0 0 0 1.22-.26 4.7 4.7 0 0 0 1-.48l.34-.23.75 1.22-.16.16a5 5 0 0 1-.47.36 5 5 0 0 1-.76.45 5.5 5.5 0 0 1-1 .36 4.8 4.8 0 0 1-1.19.16 4.17 4.17 0 0 1-3.22-1.23 5.13 5.13 0 0 1-1.14-3.6 5.35 5.35 0 0 1 1.24-3.75A4.33 4.33 0 0 1 11.51 15a7.5 7.5 0 0 1 1.53.16 7 7 0 0 1 1.21.32l.44.16-.07 2.59h-1.33zm6.42.31a3.3 3.3 0 0 1 2.54 1 3.83 3.83 0 0 1 .9 2.72 4.07 4.07 0 0 1-1 2.89 3.45 3.45 0 0 1-2.65 1.06q-3.48 0-3.48-3.75a3.94 3.94 0 0 1 1-2.85 3.56 3.56 0 0 1 2.69-1.07m-.07 1.57a1.29 1.29 0 0 0-1.14.5 3.13 3.13 0 0 0-.36 1.74 3.4 3.4 0 0 0 .34 1.72 1.21 1.21 0 0 0 1.09.53 1.23 1.23 0 0 0 1.11-.53 3.4 3.4 0 0 0 .35-1.78 3.24 3.24 0 0 0-.33-1.65 1.17 1.17 0 0 0-1.06-.53m11.17-.75L30.17 17a5 5 0 0 0-1.54-.21c-1.51 0-2.27 1.11-2.27 3.34s.77 3.16 2.31 3.16a4.4 4.4 0 0 0 .69-.06q.38-.06.6-.12l.21-.07v-1.77l-1-.31v-1.12l3.93-.06V21l-.93.31v2.79c-.11.07-.26.15-.46.25a7 7 0 0 1-1.26.41 8.2 8.2 0 0 1-2 .25 4.17 4.17 0 0 1-3.22-1.23 5.13 5.13 0 0 1-1.14-3.6 5.35 5.35 0 0 1 1.24-3.75A4.35 4.35 0 0 1 28.67 15a7.4 7.4 0 0 1 1.53.16 7.6 7.6 0 0 1 1.23.32l.42.16-.07 2.46z"/></svg>