<svg xmlns="http://www.w3.org/2000/svg" width="40" height="40" data-name="Layer 1"><circle cx="20" cy="20" r="19.62" fill="green"/><path fill="#fff" d="M16.58 18.13 16.24 17a5 5 0 0 0-1.54-.21c-1.52 0-2.27 1.11-2.27 3.34s.77 3.16 2.31 3.16a4.4 4.4 0 0 0 .69-.06 5 5 0 0 0 .59-.12l.22-.07v-1.77l-1-.31v-1.12l3.93-.06V21l-.93.31v2.79c-.11.07-.26.15-.46.25a7 7 0 0 1-1.26.41 8.2 8.2 0 0 1-2 .25 4.17 4.17 0 0 1-3.22-1.23 5.13 5.13 0 0 1-1.14-3.6 5.35 5.35 0 0 1 1.24-3.75A4.33 4.33 0 0 1 14.74 15a7.5 7.5 0 0 1 1.53.16 7.6 7.6 0 0 1 1.23.32l.42.16-.07 2.46zM26 15.19l2.93 8.12 1 .31v1.19h-4.42v-1.19l1-.31-.32-1h-3l-.34 1 1.06.33v1.19h-4.12v-1.21l1-.31 3-8.07zm-1.22 2.4-1.08 3.23h2.1z"/></svg>