<svg xmlns="http://www.w3.org/2000/svg" width="40" height="40" data-name="Layer 1"><circle cx="19.99" cy="20" r="19.62" fill="gold"/><path d="M8.87 21.84 9.08 23a2.84 2.84 0 0 0 1.33.28 2.27 2.27 0 0 0 1.18-.28.93.93 0 0 0 .47-.81.78.78 0 0 0-.34-.64 2.4 2.4 0 0 0-.85-.43 10 10 0 0 1-1.11-.4 12 12 0 0 1-1.11-.54 2.3 2.3 0 0 1-.85-.88 2.6 2.6 0 0 1-.34-1.37 2.57 2.57 0 0 1 1-2.13 3.94 3.94 0 0 1 2.5-.76 8 8 0 0 1 1.43.14 9 9 0 0 1 1.16.27l.41.14-.07 2.48H12.6l-.35-1.16a3.9 3.9 0 0 0-1.2-.2A1.76 1.76 0 0 0 10 17a.83.83 0 0 0-.38.7.81.81 0 0 0 .34.64 2.7 2.7 0 0 0 .85.43 10 10 0 0 1 1.11.4 10 10 0 0 1 1.1.53 2.3 2.3 0 0 1 .85.84 2.46 2.46 0 0 1 .34 1.31 2.84 2.84 0 0 1-1 2.33 4 4 0 0 1-2.65.84 9.4 9.4 0 0 1-1.44-.13 10 10 0 0 1-1.19-.27l-.41-.12v-2.66zm12.37-6.65 2.93 8.11.95.31v1.19h-4.33v-1.19l1-.31-.33-1h-3l-.34 1 1.06.32v1.18h-4.12v-1.19l1-.31 3-8.07zM20 17.59l-1.08 3.23H21zm8.86-.79v6.4h2.08l.3-1.54h1.3v3.14h-6.82v-1.19l1-.34V16.8l-1-.41v-1.13l4.16-.07v1.2z"/></svg>