<svg xmlns="http://www.w3.org/2000/svg" id="Layer_1" data-name="Layer 1" viewBox="0 0 29 29"><defs><style>.cls-2{fill:#3184c6}</style></defs><circle cx="14.5" cy="14.5" r="14" fill="#fff" transform="rotate(-76.63 14.497 14.498)"/><path d="M14.5 1.41A13 13 0 0 0 1.67 14.5 13 13 0 0 0 14.5 27.59 13 13 0 0 0 27.33 14.5 13 13 0 0 0 14.5 1.41m0 25.12a11.6 11.6 0 0 1-5.93-1.62h11.86a11.57 11.57 0 0 1-5.92 1.62zm7.16-2.46H7.34a12.14 12.14 0 0 1-4.4-7.13h23.13a12 12 0 0 1-4.4 7.13zM2.78 15.91a11 11 0 0 1-.08-1.42 11.92 11.92 0 0 1 11.81-12 11.93 11.93 0 0 1 11.81 12 12 12 0 0 1-.09 1.45z" class="cls-2"/><path d="M14.56 3a.17.17 0 0 0-.14.18.5.5 0 0 0 .08.26.54.54 0 0 0-.14.35 1.3 1.3 0 0 0 .07.39l-.17.28h.58l-.14-.22a.32.32 0 0 1 0-.26 1.16 1.16 0 0 0 0-.52s.06-.46-.14-.46m-.17 1.62a1.5 1.5 0 0 1 .36 0v.15l.05.06c.05.06.07.07.07.07v.08s0 .06.06.07 0 .05 0 .05a.2.2 0 0 0 .08.07.64.64 0 0 1 .29.17.25.25 0 0 1 0 .29.3.3 0 0 0-.08-.16 1.06 1.06 0 0 0-.71-.21s-.6 0-.78.25v.05s-.07 0-.06-.2a.27.27 0 0 1 .19-.2l.22-.07v-.06a.1.1 0 0 1 .06 0 .15.15 0 0 0 .08-.03s0-.07.09-.13v-.19s0-.05.08-.06M15.57 13a8 8 0 0 0-.86-.05v1.7h.86zm1.04.12c-.23 0-.47-.09-.73-.12v1.67l.73.07zm.97.21-.58-.15v1.6l.63.1zm.81.26s-.2-.08-.54-.18v1.51l.54.11zm.61 1.57-.33-.08v-1.37a1 1 0 0 1 .33.36zm-8.48-.05-.3.08v-1.26a1.4 1.4 0 0 1 .3-.25zm.78-1.73-.52.18v1.49l.52-.11zm.94-.24-.65.16v1.59l.65-.11zM13.3 13c-.27 0-.53.06-.76.11v1.65l.76-.07zm1.05-.09h-.75v1.7h.75z" class="cls-2"/><path d="M14.53 12.12a11.4 11.4 0 0 0-4.26.8c-.09 0-.09.1-.09.1a.14.14 0 0 1-.07.07.1.1 0 0 0 0 .09.1.1 0 0 1 0 .08.5.5 0 0 0-.12.17.35.35 0 0 0 .12.28c0 .12.07.13.07.13a.9.9 0 0 1 .44-.37 10.3 10.3 0 0 1 4-.73 10.9 10.9 0 0 1 4 .73 1.7 1.7 0 0 1 .5.34v-.09c0-.09.28-.23.08-.39l-.13-.1a.13.13 0 0 1-.07-.12c0-.1-.14-.16-.14-.16a11.5 11.5 0 0 0-4.33-.83m3.52.3.24.08v-.45a1.6 1.6 0 0 0-.17-.35.2.2 0 0 0-.07-.07zm-.73-.2.5.13v-.84a6 6 0 0 0-.5-.23zm-2.05-.31.79.08v-1.08a7 7 0 0 0-.79-.11zm-1.14 0h.79v-1.14h-.79zM13 12c.26 0 .53-.06.82-.08v-1.13c-.24 0-.52.06-.82.12zm-1 .18c.21 0 .44-.09.69-.13V11a7 7 0 0 0-.68.2zm-.74.17.47-.12v-1l-.48.22zm-.26-.73a1.1 1.1 0 0 0-.2.4v.47l.2-.07zm5.37.38v-1a6 6 0 0 1 .68.19v1c-.25-.08-.47-.13-.68-.19" class="cls-2"/><path d="M10.78 11.74a.43.43 0 0 1-.16-.35.42.42 0 0 1 .21-.35.38.38 0 0 1 0-.25c.08-.13.15-.14.15-.14a.17.17 0 0 1 0-.12.1.1 0 0 1 .1 0v-.1a.13.13 0 0 1 .1 0 8.3 8.3 0 0 1 3.16-.64 7.5 7.5 0 0 1 3.17.66.13.13 0 0 1 .09.13h.13c.01 0 0 0 0 0h.06a.08.08 0 0 1 .07.08v.08a.5.5 0 0 1 .18.28.3.3 0 0 0 .08.15.5.5 0 0 1 .16.34.42.42 0 0 1-.15.31.49.49 0 0 0-.26-.36 7.6 7.6 0 0 0-3.55-.83 7.74 7.74 0 0 0-3.5.82.43.43 0 0 0-.16.16.37.37 0 0 0-.07.2s.21-.05.19-.07m3.62-2.35c-.29 0-.57 0-.83.06a5.2 5.2 0 0 1 .49-2 2 2 0 0 1 .37 0 18 18 0 0 0-.03 1.94m-2.62.48-.32.13s.4-1.57 1.2-2a3.84 3.84 0 0 0-.88 1.9z" class="cls-2"/><path d="M12.47 9.65 12 9.8s.35-1.67 1.35-2.12a3.7 3.7 0 0 0-.88 1.97" class="cls-2"/><path d="M12.67 9.6c.21 0 .44-.09.69-.13a6.5 6.5 0 0 1 .52-2 3 3 0 0 0-.35.09 4.76 4.76 0 0 0-.86 2.04m2.76-.16h-.76a10.3 10.3 0 0 0-.07-1.94 3 3 0 0 1 .37 0 5.3 5.3 0 0 1 .46 1.94m1.64.36-.52-.15a3.8 3.8 0 0 0-.69-1.88 3.2 3.2 0 0 1 1.21 2.03m.55.2a3 3 0 0 0-.35-.14 4.1 4.1 0 0 0-.78-1.77A2.88 2.88 0 0 1 17.62 10m-1.28-.4a6 6 0 0 0-.67-.12 5.6 5.6 0 0 0-.45-1.95l.3.1a3.66 3.66 0 0 1 .82 1.97m-.48-2.1h-.08a.13.13 0 0 1-.06-.08v-.29l-.21-.06c-.08 0-.09-.08-.09-.08v-.12h-.13V5.62a.1.1 0 0 0 0-.07.5.5 0 0 0-.29-.09 1.28 1.28 0 0 0-.87 0 .5.5 0 0 0-.2.11.26.26 0 0 0-.06.14v1h-.06v.13a.09.09 0 0 1 0 .08l-.16.06c-.09 0-.1.1-.1.1v.14a.12.12 0 0 1-.07.07c-.07 0-.08.07-.08.07h.06a2.9 2.9 0 0 1 1.21-.24 2.8 2.8 0 0 1 1.28.28zm-1.75-1.07h-.12v-.64h.12zm.16-.06v-.78h.1v.77zm.5 0h-.13v-.8h.13zm.28.13h-.12v-.78h.11zm-.52 8.39a18 18 0 0 1 5.23.79H9.4a16.2 16.2 0 0 1 5.13-.79m-2.87 5.24a2 2 0 0 0-.63-.2 1.24 1.24 0 0 0 .78-1.24 1.32 1.32 0 0 0-1.4-1.24H7.19v.21a.52.52 0 0 1 .38.26 1 1 0 0 1 .13.51v4.27a.52.52 0 0 1-.51.49v.21h3.31a2 2 0 0 0 2.11-1.74 1.59 1.59 0 0 0-.95-1.53M9 18.05h.59a.88.88 0 0 1 .86.89c0 .43-.26.85-1.11.85H9zm2.11 3.49a1 1 0 0 1-1 1H9v-2.11h1a1.09 1.09 0 0 1 1.17 1.07zm6.14 1.17a.44.44 0 0 1-.6-.28l-.08-.25a1.5 1.5 0 0 1 .41-.39l-.2-.53a2.4 2.4 0 0 0-.38.24 2.7 2.7 0 0 0-.72-1.14h.05a.93.93 0 0 0 .52-.85 1 1 0 0 0-.69-.95 1.47 1.47 0 0 0-1.31 0 1 1 0 0 0-.47 1.16.86.86 0 0 0 .48.54l.1.05a1.6 1.6 0 0 0-1.09 1.49 1.59 1.59 0 0 0 1.61 1.59 1.61 1.61 0 0 0 1.24-.57c.08.14.34.54.66.54a.8.8 0 0 0 .6-.28zm-2-3.66a.51.51 0 0 1 .56.44.57.57 0 1 1-.56-.44m.54 3.11a.78.78 0 0 1-.95.29.94.94 0 0 1-.54-.76.93.93 0 0 1 .43-.76l.33-.19.11.08a2.34 2.34 0 0 1 .65 1 1.5 1.5 0 0 1 .08.21.8.8 0 0 0-.15.13zm4.49-4.72a2.93 2.93 0 0 0-2.73 3 2.87 2.87 0 0 0 2.73 2.93A2.79 2.79 0 0 0 23 20.39a2.85 2.85 0 0 0-2.72-2.95m0 5.1c-.85 0-1.29-1-1.29-2.18s.43-2.18 1.29-2.18 1.29 1 1.29 2.18-.36 2.19-1.26 2.18z" class="cls-2"/></svg>