<svg xmlns="http://www.w3.org/2000/svg" data-name="Layer 1" viewBox="0 0 29 29"><path fill="#f70" d="M28.5 14.5a14 14 0 1 1-14-14 14 14 0 0 1 14 14"/><path fill="#fff" d="M10.13 17a5 5 0 0 1-1 .94l-.13.11a2.9 2.9 0 0 0-.71.68h-.68a4 4 0 0 1-4-4.07 5.6 5.6 0 0 1 .29-1.79 6.8 6.8 0 0 1 1.94-1.5v-.89l.57-.3a10 10 0 0 0-.27 2.19v.87A4.17 4.17 0 0 1 7.44 11a1.94 1.94 0 0 0 1.12.41 1.9 1.9 0 0 0 .57-.09 3.6 3.6 0 0 0 .6-.28 2.24 2.24 0 0 1-.5 1.23 2.5 2.5 0 0 1-.43.11 1.7 1.7 0 0 1-.39 0 2.13 2.13 0 0 1-1.07-.32 3 3 0 0 0-.9 1.13 3.15 3.15 0 0 0-.37 1.45v2.59a3.07 3.07 0 0 0 1.68.49 2.34 2.34 0 0 0 1.09-.27 3.5 3.5 0 0 0 1-.8zm-4.36.15v-5.4a3.63 3.63 0 0 0-1.16 2.87 3 3 0 0 0 .29 1.31 4 4 0 0 0 .87 1.2zm8.85.57a3.3 3.3 0 0 0-.93 1h-.49a2.76 2.76 0 0 1-1.85-.73 2.11 2.11 0 0 1-.82-1.62c0-.64.58-1.31 1.75-2a3.94 3.94 0 0 1-.68-2 7.2 7.2 0 0 1 1.75-1.32 2.46 2.46 0 0 1 1.16.53 1.17 1.17 0 0 1 .38.91c0 .71-.51 1.32-1.54 1.85a14.6 14.6 0 0 0 1.72 2.38 1.8 1.8 0 0 0 .43-1.07q0-.6-.72-.69a1.6 1.6 0 0 0 .48-.81 3.8 3.8 0 0 1 1-.11h.36a4.7 4.7 0 0 1 1.1.11 1.18 1.18 0 0 0-.33.74 1 1 0 0 0 0 .21 4 4 0 0 0-1.04-.1h-.24a1.6 1.6 0 0 1 0 .34A2.42 2.42 0 0 1 15.3 17a4.7 4.7 0 0 0 .87.75 4.4 4.4 0 0 0 .82-.4l.18.24a6.3 6.3 0 0 0-1.28 1.17 7.5 7.5 0 0 1-1.27-1.04m-2.17-3a1.86 1.86 0 0 0-.95 1.37 1.66 1.66 0 0 0 .63 1.18 1.9 1.9 0 0 0 1.27.59 1.3 1.3 0 0 0 .44-.1 4 4 0 0 0 .54-.3 15 15 0 0 1-1.93-2.71zm.74-.68c.66-.38 1-.8 1-1.26a.85.85 0 0 0-.36-.68 1.3 1.3 0 0 0-.84-.29 3 3 0 0 0-.43.05 1.6 1.6 0 0 0 0 .37 3.33 3.33 0 0 0 .63 1.84zm4.37 3.78a1.32 1.32 0 0 0 .62-.64.6.6 0 0 0 .22 0 1.85 1.85 0 0 0 1.42-.88v-.25a1.6 1.6 0 0 1 .1-.5h.34a3.53 3.53 0 0 0 .53-1.9 2.06 2.06 0 0 0-.29-1.13.83.83 0 0 0-.73-.44 1.45 1.45 0 0 0-.72.2 2.4 2.4 0 0 0-.64.63 2 2 0 0 1 0-.29 2.44 2.44 0 0 1 .3-1.15 3.6 3.6 0 0 1 .7-.32 2.2 2.2 0 0 1 .64-.11 1.46 1.46 0 0 1 .87.28 2.16 2.16 0 0 1 .63.86 7 7 0 0 1 1.94-1.69 9.2 9.2 0 0 0-.2 2 14.3 14.3 0 0 0 .37 3.09h.15a2.5 2.5 0 0 1 .78.12 1.7 1.7 0 0 1 .14.61v.13a5.4 5.4 0 0 0-.91-.21 7.4 7.4 0 0 0 .56 1.53 4.4 4.4 0 0 0 .82-.27l.11.27a7.3 7.3 0 0 0-1.67 1 5.8 5.8 0 0 1-.92-2.54h-2a3.7 3.7 0 0 1-1.83 1.3 3.2 3.2 0 0 0 1 .55 2.1 2.1 0 0 1-.77.69 8.4 8.4 0 0 1-1.56-.94m5-2.23a12.7 12.7 0 0 1-.17-2.11v-1.74a6.7 6.7 0 0 0-.79.86 2.5 2.5 0 0 1 .08.64 4.7 4.7 0 0 1-.67 2.35z"/></svg>