<svg xmlns="http://www.w3.org/2000/svg" viewBox="0 0 30.61 30.61"><defs><style>.cls-1{fill:#a2dced}.cls-2{fill:#040000}</style></defs><g id="Company_Homes" data-name="Company Homes"><circle cx="15.31" cy="15.31" r="15.28" class="cls-1" transform="rotate(-45 15.31 15.308)"/><path d="M25.82 20.38a7.2 7.2 0 1 1-7.2-7.19 7.2 7.2 0 0 1 7.2 7.19" class="cls-2"/><path d="M21.36 20.15a2.74 2.74 0 1 1-2.74-2.74 2.74 2.74 0 0 1 2.74 2.74M4.85 10.24a7.65 7.65 0 1 1 7.65 7.65 7.64 7.64 0 0 1-7.65-7.65" class="cls-1"/><path d="M19.72 10.37a7.2 7.2 0 1 1-7.2-7.2 7.2 7.2 0 0 1 7.2 7.2" class="cls-2"/><path d="M15.27 10.37a2.75 2.75 0 1 1-2.75-2.75 2.75 2.75 0 0 1 2.75 2.75" class="cls-1"/><path d="m14.58 9.11 5.49-1.24.45 4.91-6.06-1.36z" class="cls-1"/><path fill="#231f20" stroke="#231f20" stroke-miterlimit="2.61" stroke-width=".14" d="M16.87 9.42h.51l.76 1.48h-.49l-.14-.31h-.79l-.15.31h-.47zm0 .92h.55l-.27-.58zm1.54-.92h.47l.85 1v-1h.42v1.48h-.45l-.87-1.05v1.05h-.42zm3.43.03a.8.8 0 0 1 .36.19.54.54 0 0 1 .16.24 1 1 0 0 1 0 .24.73.73 0 0 1-.18.5.89.89 0 0 1-.72.28h-.93V9.42h.93a1.6 1.6 0 0 1 .38.03zm-.84.23v1h.42a.45.45 0 0 0 .44-.22.5.5 0 0 0 .07-.28.5.5 0 0 0-.1-.34.54.54 0 0 0-.41-.12z"/></g></svg>