<svg xmlns="http://www.w3.org/2000/svg" viewBox="0 0 30.61 30.61"><defs><style>.cls-2{fill-rule:evenodd;fill:#fff}</style></defs><g id="Company_Homes" data-name="Company Homes"><path fill="#6d0020" fill-rule="evenodd" d="M15.3 1.47A13.84 13.84 0 1 1 1.47 15.31 13.84 13.84 0 0 1 15.3 1.47"/><g id="CDWDel.tif"><path d="M30.57 17.14a5.6 5.6 0 0 0-.21 1.08 18 18 0 0 1-.78 2.78A17 17 0 0 1 28 24a12 12 0 0 1-1.05 1.38A15.8 15.8 0 0 1 24 28a15.9 15.9 0 0 1-4.82 2.16 16 16 0 0 1-1.94.35 13.5 13.5 0 0 1-3.05.05 14.5 14.5 0 0 1-4.81-1.25 16.1 16.1 0 0 1-4-2.56A14.3 14.3 0 0 1 2.94 24a15.5 15.5 0 0 1-2.4-5.16 13 13 0 0 1-.45-2.54v-1.87a10 10 0 0 1 .21-1.9A15 15 0 0 1 1 9.84a14.8 14.8 0 0 1 2.3-4.17A17 17 0 0 1 4.87 4a15 15 0 0 1 2.65-2A13 13 0 0 1 10.69.65a15.4 15.4 0 0 1 2.45-.49A20 20 0 0 1 15.83 0 17.3 17.3 0 0 1 19 .46a14 14 0 0 1 2.64.91 12.7 12.7 0 0 1 1.94 1.07c.61.4 1.21.83 1.78 1.29a16 16 0 0 1 1.61 1.59c.29.32.54.67.82 1a8 8 0 0 1 .71 1.11 13 13 0 0 1 1.08 2.31A9 9 0 0 1 30 11a13 13 0 0 1 .52 2.69c0 .06 0 .12.07.14m-15 15.15a10.4 10.4 0 0 0 2.88-.28 13 13 0 0 0 3.27-1.2c.75-.42 1.44-.94 2.15-1.43a10.9 10.9 0 0 0 2.45-2.53 12 12 0 0 0 1.71-3 14.8 14.8 0 0 0 .95-4.43 13.6 13.6 0 0 0-.47-4.43 13.77 13.77 0 0 0-4.76-7.22 13.4 13.4 0 0 0-4-2.19 15.4 15.4 0 0 0-3.36-.72 13.4 13.4 0 0 0-2.83 0 13.6 13.6 0 0 0-2.79.64 12.4 12.4 0 0 0-2.94 1.4 13.3 13.3 0 0 0-3.29 3 12.7 12.7 0 0 0-2.11 3.78A12.4 12.4 0 0 0 1.64 15a14.5 14.5 0 0 0 .18 2.29 16.2 16.2 0 0 0 1 3.24 15.3 15.3 0 0 0 1.86 3.12 13.3 13.3 0 0 0 2.42 2.4 13.9 13.9 0 0 0 3.63 2.05 12.6 12.6 0 0 0 4.88.84z" class="cls-2"/><path d="M19.46 21.2a1.42 1.42 0 0 0 .48-1c.43-1.7.86-3.4 1.25-5.11q.19-.86.36-1.71c0-.17.07-.31.23-.33s.26.14.31.28c.36 1.07.8 2.11 1.2 3.17s.73 2 1.09 3c.06.15.05.31.16.44s0 .21.17.2.16-.12.2-.2a11 11 0 0 0 .62-1.7 9.7 9.7 0 0 0 .47-3.4 10 10 0 0 0-.75-3.36 10.3 10.3 0 0 0-1.35-2.59c-.29-.35-.57-.72-.89-1a5.2 5.2 0 0 0-.87-.89.25.25 0 0 1-.14-.22v-1.5a.43.43 0 0 1 .25-.35c.15-.07.21.1.31.17a8 8 0 0 1 1.87 1.6 14.2 14.2 0 0 1 2.27 3.47 16 16 0 0 1 .85 2.66 6 6 0 0 1 .17 1.11 12 12 0 0 1 .08 1.69 12.5 12.5 0 0 1-.9 4.26A15 15 0 0 1 25.18 23a12.6 12.6 0 0 1-2.45 2.45c-.08.06-.2.18-.33.06s-.08-.19 0-.31a7 7 0 0 0 .23-1.65c.05-.3.31-.42.42-.66a3.9 3.9 0 0 0 .28-2.56c-.26-.94-.67-1.82-1-2.74 0-.07 0-.16-.16-.14s-.07.09-.08.15c-.4 1.5-.77 3-1.16 4.5-.25.94-.5 1.87-.71 2.81a2.23 2.23 0 0 0 .08 1.64c.15.26-.17.41-.35.44-.52.1-1 .34-1.5.48h-.2c-.34.06-.43-.06-.43-.42V4.95a3.8 3.8 0 0 0-.29-1.63c-.11-.23 0-.42.3-.36.56.12 1.12.25 1.66.42a.34.34 0 0 1 .23.54A2.2 2.2 0 0 0 19.46 5zm-8.39-.67a.37.37 0 0 0 .08-.33V4.45c0-.18 0-.32-.21-.41s-.28-.36 0-.52a6.7 6.7 0 0 1 1.16-.35 4 4 0 0 1 .52-.17c.3 0 .46.13.32.38a2.4 2.4 0 0 0-.18 1.21v21.58a1.65 1.65 0 0 0 .18.85.26.26 0 0 1 0 .32.26.26 0 0 1-.31.1L11.12 27c-.45-.15-.48-.24-.21-.64a1.22 1.22 0 0 0 0-1.13c-.38-1.28-.78-2.55-1.18-3.82S9 19 8.57 17.72C8 15.85 7.37 14 6.77 12.09c-.2-.63-.4-1.26-.57-1.9 0-.11-.11-.12-.16-.14s-.11.08-.14.15a11.5 11.5 0 0 0-.9 2.7 12.5 12.5 0 0 0-.26 2.44 14 14 0 0 0 .38 2.49 14.7 14.7 0 0 0 1.74 3.8 6.9 6.9 0 0 0 1 1.32 1.18 1.18 0 0 1 .26.82 6.4 6.4 0 0 0 .31 1.14c.05.13.13.27 0 .36s-.31 0-.43-.09c-.31-.25-.63-.5-.92-.78a14.5 14.5 0 0 1-1.6-1.72 11.6 11.6 0 0 1-1.3-2.09 15 15 0 0 1-.92-2.52 12.4 12.4 0 0 1-.34-3.75 11.45 11.45 0 0 1 1.13-4.56 11.2 11.2 0 0 1 2.22-3.19C6.83 6 7.45 5.56 8 5.06c.2-.17.44-.06.44.23a3.8 3.8 0 0 1-.28 2 3.8 3.8 0 0 0-.36 2.34 21.5 21.5 0 0 0 1.05 3.89c.67 2.18 1.32 4.36 2 6.53.06.18.15.3.22.48m3.22-2.6v.77a1.7 1.7 0 0 0 .25 1.13c.24.3.13.45-.25.45h-.7c-.21 0-.35-.05-.23-.3a1.4 1.4 0 0 0 .1-.64V14.7a3.8 3.8 0 0 0-.15-1c-.1-.31 0-.53.34-.53.8 0 1.61-.05 2.41 0 1 .07 1.14.38 1.3 1.44a2.1 2.1 0 0 1-.09.89 1 1 0 0 1-.71.72c-.24.08-.29.21-.21.43.41 1.08.63 2.22 1.12 3.27a.22.22 0 0 1 0 .28 1.54 1.54 0 0 1-.9 0s-.09-.1-.06-.15c.26-.35-.05-.6-.14-.88-.28-.84-.57-1.68-.84-2.52a.49.49 0 0 0-.55-.39c-.64 0-.64 0-.64.65zm.92-2.47H16c.33 0 .46-.21.52-.48a1.6 1.6 0 0 0 0-.38.63.63 0 0 0-.67-.68h-1c-.56 0-.56 0-.56.56 0 .31-.11.73.05.91s.66.04.87.07" class="cls-2"/><path d="M15.23 2.54a1.06 1.06 0 0 1 1 1.45 3.65 3.65 0 0 1-.74 1.42.59.59 0 0 0-.1.71c.26.57.52 1.15.79 1.71 0 .09.06.28.21.21a.28.28 0 0 0 .15-.37c0-.09 0-.2-.11-.28a.2.2 0 0 1 0-.33.27.27 0 0 1 .35 0 .94.94 0 0 1 .34 1.14.87.87 0 0 0 0 .93c.15.22.05.5.06.74s-.07.14-.17.15a.35.35 0 0 1-.35-.17c-.16-.31-.33-.29-.6-.12a1.86 1.86 0 0 1-2.93-.87 2.57 2.57 0 0 1 .47-2.42 2.8 2.8 0 0 1 .4-.51.76.76 0 0 0 .19-.9 7 7 0 0 1-.27-1 1.28 1.28 0 0 1 1.31-1.49M15 9.25h.17a1 1 0 0 0 .65-.37c.14-.18-.09-.32-.17-.48a13 13 0 0 1-.9-1.79c0-.15-.12-.28-.28 0a3.2 3.2 0 0 0-.54 1.28A1.12 1.12 0 0 0 15 9.25m-.31-5.48c.06.23.1.47.18.69s.15.24.29 0a2.3 2.3 0 0 0 .44-.74c.06-.22.07-.47-.21-.57a.5.5 0 0 0-.61.24.8.8 0 0 0-.09.38M17 20.91c.15.05.43-.11.51.1s-.2.32-.3.49c-.22.39-.42.79-.63 1.19-.08.16-.17.32-.26.47a2.4 2.4 0 0 0-.32 1.31v1.92a1.9 1.9 0 0 0 .18.82c.15.29 0 .51-.29.54a4 4 0 0 1-.67 0c-.31 0-.23-.28-.19-.42a11 11 0 0 0 .1-3.25c0-.55-.47-1-.74-1.52a5.3 5.3 0 0 0-.83-1.36c-.14-.13 0-.26.14-.28a4 4 0 0 1 .67 0 .27.27 0 0 1 .23.23 7.4 7.4 0 0 0 .82 1.85c.11.24.21 0 .25-.05.2-.38.39-.78.58-1.17l.2-.42s.07-.08.07-.11c.02-.34.02-.34.48-.34m-1.7-10.06H17c.16 0 .2 0 .21.21 0 .91 0 .91-.88.91H13.7c-.2 0-.25-.06-.25-.25 0-.88 0-.88.84-.88z" class="cls-2"/></g></g></svg>