<svg xmlns="http://www.w3.org/2000/svg" id="Layer_1" data-name="Layer 1" viewBox="0 0 29 29"><defs><style>.cls-5{fill-rule:evenodd}.cls-4,.cls-5{fill:#231f20}</style></defs><circle cx="14.5" cy="14.5" r="13.976" fill="#fff"/><path fill="none" fill-rule="evenodd" d="M14.499 24.57A10.07 10.07 0 1 0 4.429 14.5a10.07 10.07 0 0 0 10.07 10.07"/><path fill="#fff" fill-rule="evenodd" d="M14.499 24.57A10.07 10.07 0 1 0 4.429 14.5a10.07 10.07 0 0 0 10.07 10.07m0 3.65A13.72 13.72 0 1 0 .78 14.5 13.72 13.72 0 0 0 14.5 28.22z"/><path d="M14.499 24.57v-.28a9.793 9.793 0 1 0-6.922-2.868 9.76 9.76 0 0 0 6.922 2.869v.559a10.351 10.351 0 1 1 10.35-10.35A10.35 10.35 0 0 1 14.5 24.85zm0 3.65v-.28a13.44 13.44 0 1 0-9.504-3.937 13.4 13.4 0 0 0 9.504 3.938v.559a14 14 0 1 1 14-14 14 14 0 0 1-14 14z" class="cls-4"/><path d="m24.814 17.567.384.134-.108.316-.384-.133zm1.4-1.338a.9.9 0 0 0-.565.03.414.414 0 0 0-.133.674.93.93 0 0 0 .523.24.9.9 0 0 0 .56-.026.428.428 0 0 0 .13-.681.9.9 0 0 0-.515-.237m.055-.36a1.5 1.5 0 0 1 .592.23.86.86 0 0 1 .303.357.8.8 0 0 1 .034.454.76.76 0 0 1-.396.544 1.52 1.52 0 0 1-1.61-.328.73.73 0 0 1-.148-.633.74.74 0 0 1 .372-.536 1.26 1.26 0 0 1 .853-.087zm-.248-.765-.144.335a.96.96 0 0 1-.511-.283.66.66 0 0 1-.148-.461.68.68 0 0 1 .28-.542 1.27 1.27 0 0 1 .824-.214 1.32 1.32 0 0 1 .84.275.69.69 0 0 1 .247.58.67.67 0 0 1-.217.482.9.9 0 0 1-.428.19l-.09-.35a.47.47 0 0 0 .27-.124.34.34 0 0 0 .1-.23.37.37 0 0 0-.157-.32.97.97 0 0 0-.55-.14 1.02 1.02 0 0 0-.573.098.36.36 0 0 0-.18.303.31.31 0 0 0 .099.243.7.7 0 0 0 .338.158m.103-3.478.058.254a1.4 1.4 0 0 0 .09.291l.104.083.176.002.149-.075.057-.127a1.4 1.4 0 0 0-.048-.282l-.062-.266zm-1.272-.066 2.068-.476.165.72a1 1 0 0 1 .035.406l-.147.241a.7.7 0 0 1-.313.15.63.63 0 0 1-.417-.024.53.53 0 0 1-.262-.288l-.13.22a2.6 2.6 0 0 1-.292.276l-.355.297-.094-.407.393-.351a3 3 0 0 0 .262-.253l.062-.121-.017-.178-.016-.07-.862.2zm.693-1.748.095.243a1.4 1.4 0 0 0 .128.276l.117.07.172-.025.138-.095.039-.133a1.4 1.4 0 0 0-.087-.272l-.098-.257zm-1.267.11 1.98-.758.265.689a1.1 1.1 0 0 1 .093.399.46.46 0 0 1-.114.259.7.7 0 0 1-.288.192.64.64 0 0 1-.417.033.54.54 0 0 1-.3-.249.9.9 0 0 1-.099.238 2.4 2.4 0 0 1-.25.312l-.311.346-.15-.39.34-.405a3 3 0 0 0 .227-.286l.044-.13-.041-.17-.026-.068-.828.316zm-1.198-1.97 1.799-1.124.682 1.096-.303.189-.5-.797-.398.249.464.74-.303.19-.464-.741-.49.306.516.824-.303.19zm-.455-.5 1.602-1.39.229.264-1.6 1.391zm-.128-1.884.188.181a1.2 1.2 0 0 0 .233.197l.135.014.146-.095.084-.145-.02-.137a1.5 1.5 0 0 0-.195-.21l-.197-.19zm-1.104.639L22.87 4.68l.53.513a1.1 1.1 0 0 1 .253.324.46.46 0 0 1 .006.28.7.7 0 0 1-.18.299.64.64 0 0 1-.362.204.54.54 0 0 1-.378-.098.8.8 0 0 1 .012.256 2.4 2.4 0 0 1-.096.388l-.135.446-.3-.292.137-.509a3 3 0 0 0 .082-.353l-.013-.137-.11-.139-.053-.05-.616.637zm-1.307-.938 1.248-1.717 1.044.76-.211.29-.761-.552-.277.38.707.513-.211.29-.706-.514-.34.467.788.571-.21.29zm-2.096-.957.794-1.966 1.197.483-.135.333-.872-.353-.175.436.81.328-.134.332-.811-.328-.216.534.902.365-.134.332zm-1.684-.44.477-2.066.342.077-.212.919.904-.759.46.106-.823.66.38 1.416-.443-.102-.242-1.078-.358.281-.143.623zm-.762-.93-.17-.804-.302.764zm.57.894-.38-.033-.109-.494-.692-.062-.184.469-.373-.033.86-2.054.37.032zm-3.035-.022-.185-2.095.35-.03.151 1.74.871-.078.031.357zm-2.175-.48-.115.208v.216l.13.188.203.025a.44.44 0 0 0 .25-.24zm.006-.461.064-.106.044-.205-.086-.117-.137-.016-.105.077-.014.122.123.156zm1.19.858-.107.357a1.2 1.2 0 0 1-.343-.154.62.62 0 0 1-.421.357.56.56 0 0 1-.5-.056.67.67 0 0 1-.264-.37.73.73 0 0 1 .202-.734.85.85 0 0 1-.3-.399.44.44 0 0 1 .037-.355.47.47 0 0 1 .304-.22.46.46 0 0 1 .594.33l.004.26a1 1 0 0 1-.168.315l.34.307a1.2 1.2 0 0 0 .003-.251l.313-.004a1.5 1.5 0 0 1-.024.463l.176.093zM8.544 5.52l-1.06-1.837.303-.175.417.723.596-.345-.416-.722.304-.175 1.06 1.834-.304.178-.464-.805-.596.346.463.804zm-1.389.065-.239-.266.562-.507.565.629a.9.9 0 0 1-.085.387 1 1 0 0 1-.248.355.83.83 0 0 1-.422.21.86.86 0 0 1-.486-.073 1.45 1.45 0 0 1-.482-.364 1.4 1.4 0 0 1-.316-.523.9.9 0 0 1-.024-.479.8.8 0 0 1 .25-.39.684.684 0 0 1 .967-.03l-.206.29a.46.46 0 0 0-.274-.09.37.37 0 0 0-.243.103.45.45 0 0 0-.154.372.85.85 0 0 0 .254.488.96.96 0 0 0 .501.332.41.41 0 0 0 .375-.104l.126-.18.059-.23-.18-.2zm-1.97 1.382.166-.201a1.5 1.5 0 0 0 .18-.245l.004-.135-.104-.14-.151-.074-.136.029a1.5 1.5 0 0 0-.196.208l-.175.212zm.712 1.053L4.271 6.658l.475-.567a1 1 0 0 1 .305-.274.46.46 0 0 1 .278-.025.7.7 0 0 1 .31.158.63.63 0 0 1 .231.35.53.53 0 0 1-.072.381.9.9 0 0 1 .255-.029 2.4 2.4 0 0 1 .395.068l.452.104-.269.32-.517-.1a3 3 0 0 0-.36-.06l-.132.025-.133.12-.046.056.677.569zm-2.745.347.185-.297.975.61a3 3 0 0 0 .303.173l.243.022.187-.155.059-.199-.073-.167a2 2 0 0 0-.335-.243L3.7 7.489l.187-.299.945.59a3 3 0 0 1 .498.367.52.52 0 0 1 .154.338.68.68 0 0 1-.125.418.8.8 0 0 1-.307.31.55.55 0 0 1-.35.042 2 2 0 0 1-.59-.288zm.374 2.078.53.204.117-.304a1 1 0 0 0 .078-.265l-.045-.127-.143-.098-.176-.02-.128.076a1.2 1.2 0 0 0-.13.27zm-.787-.301.458.175.084-.216a2 2 0 0 0 .085-.243l-.02-.158-.14-.108-.155-.015-.105.065a2 2 0 0 0-.133.31zm-.455.2.25-.65a1 1 0 0 1 .193-.356.46.46 0 0 1 .242-.116.6.6 0 0 1 .306.033.6.6 0 0 1 .234.162l.106.231a.47.47 0 0 1 .263-.158.56.56 0 0 1 .335.033.68.68 0 0 1 .324.245.46.46 0 0 1 .091.316 3 3 0 0 1-.151.467l-.213.554zm.915 2.265.031-.343q.408.027.478-.287a.36.36 0 0 0-.03-.26l-.183-.134-.128.006-.102.077a3 3 0 0 0-.172.285 1.1 1.1 0 0 1-.212.292.6.6 0 0 1-.238.117.6.6 0 0 1-.286.002.63.63 0 0 1-.29-.14.54.54 0 0 1-.16-.257.74.74 0 0 1 .003-.351.66.66 0 0 1 .262-.432.66.66 0 0 1 .504-.081l-.054.347a.4.4 0 0 0-.257.048.33.33 0 0 0-.11.2.34.34 0 0 0 .013.226l.128.107.156-.039a1 1 0 0 0 .195-.286 1.3 1.3 0 0 1 .237-.339.53.53 0 0 1 .251-.131.75.75 0 0 1 .332.006.67.67 0 0 1 .419.264.69.69 0 0 1 .072.56q-.132.624-.86.543zm.575 1.144-1.758-.123-.037.517-.357-.025.096-1.38.358.026-.035.513 1.757.123zm-.004 1.484-1.755.152.045.515-.358.031-.12-1.377.357-.031.045.513 1.756-.152zm.111 1.084-2.08.403-.067-.343 2.082-.403zm-1.41 1.713.577-.166-.053-.187a.9.9 0 0 0-.1-.247l-.127-.083-.181.004-.157.095-.065.137a1.2 1.2 0 0 0 .058.283zm1.789-.15-2.038.584-.157-.542a1.7 1.7 0 0 1-.083-.405.47.47 0 0 1 .13-.303.76.76 0 0 1 .37-.21.8.8 0 0 1 .394-.023.5.5 0 0 1 .27.148 1.1 1.1 0 0 1 .186.415l.063.22.77-.22zm19.76 5.347-1.308-1.178-.346.384-.267-.24.925-1.028.266.241-.346.384 1.311 1.177-.234.26m-1.553 1.46-1.392-1.6.258-.224 1.467.602-.931-1.069.248-.216 1.39 1.601-.265.232-1.437-.585.907 1.046zm-1.107-.227-.62-.54.217.793zm.992.369-.323.202-.384-.328-.59.369.134.484-.317.199-.548-2.16.314-.196zm-1.947 1.174-.963-1.888.312-.158.963 1.888zm-1.25-.293-.128-.335.706-.27.303.789a.9.9 0 0 1-.219.331 1 1 0 0 1-.359.242.8.8 0 0 1-.47.044.85.85 0 0 1-.426-.241 1.6 1.6 0 0 1-.426-1.115.9.9 0 0 1 .148-.456.8.8 0 0 1 .373-.274.68.68 0 0 1 .912.319l-.295.198a.44.44 0 0 0-.224-.183.38.38 0 0 0-.263.008.45.45 0 0 0-.276.293.84.84 0 0 0 .06.546.94.94 0 0 0 .35.49.42.42 0 0 0 .388.037l.182-.122.137-.195-.096-.25zm-2.702 1.557-.332-2.095 1.274-.202.057.354-.929.147.073.465.863-.137.057.353-.864.137.09.57.96-.151.056.353zm-1.474.164-.147-2.1.35-.024.122 1.742.87-.062.027.357zm-1.103-.008.031-1.761-.517-.01.007-.358 1.38.025-.005.357-.516-.008-.03 1.761zm-1.758-.218.276-1.74-.51-.08.057-.356 1.363.216-.056.357-.508-.083-.276 1.742zm-1.194-.281.549-2.05.337.092-.548 2.048zm-1.38-.461.65-2 .333.107-.54 1.663.832.268-.11.342zM7.495 25.4l1.027-1.856 1.13.627-.175.313-.822-.456-.228.411.763.425-.171.312-.765-.424-.28.505.85.47-.173.313zM6.08 24.327l1.305-1.672.278.216-.515.658.543.424.514-.658.277.216-1.306 1.673-.277-.218.57-.73-.543-.424-.57.731zm-.794-.729 1.202-1.289-.378-.353.245-.262 1.01.943-.245.263-.378-.351-1.2 1.286z" class="cls-4"/><path d="M10.152 13.227a1.81 1.81 0 0 0 1.779 1.134 3.35 3.35 0 0 0 2.05-1.01 2.26 2.26 0 0 0 .414-1.781c-.02-.425-.585-.683-.585-.683s.464-.074.438-.782a1.5 1.5 0 0 0-.542-1.261 2.06 2.06 0 0 0-1.567-.483 3.3 3.3 0 0 0-1.963.745c-.463.525-.61.965-.452 1.354a1.8 1.8 0 0 0 .696.805 3 3 0 0 1 .378.243s-.171.098-.39.208c-.22.11-.524.317-.512.658a2.9 2.9 0 0 0 .256.853m-2.805 7.018c.197.039 1.298.197 1.298-.47 0-.67.109-9.093.109-9.606 0-.51-.023-1.215-.583-1.314-.561-.096-.683.197-.367-.34.318-.538.708-.267.878-.244a2.3 2.3 0 0 0 .976.293 3.7 3.7 0 0 0 1.073-.293 4.87 4.87 0 0 1 2.854-.074 3.48 3.48 0 0 1 1.926 2.074c.122.805-.057.967.122 1.073l.282.166c.083.05-.174.15-.33.187a8.8 8.8 0 0 1-.936 1.729 4.64 4.64 0 0 1-2.332 1.211 2.3 2.3 0 0 1-1.733-.27 3 3 0 0 1-.535-.486s-.17 3.096-.147 3.852-.122 1.488.463 1.781c.586.291 1.415.098.78.463a1.51 1.51 0 0 1-1.267.243c-.245-.073-.268-.097-.537.27-.267.365-.829.365-1.194.365-.368 0-.8-.61-.8-.61" class="cls-5"/><path d="M12.53 10.972c.024.513 0 8.17-.072 8.706a1.4 1.4 0 0 1-.514 1.05 7 7 0 0 1-.926.51 1.25 1.25 0 0 0 .78.464 1.47 1.47 0 0 0 .952-.17.59.59 0 0 1 .78 0 4.84 4.84 0 0 0 2.268.096c.61-.096 1.365-.463 1.61-.291l.804.561s-.024-1.17 0-1.636a14 14 0 0 1 .268-1.535 3.3 3.3 0 0 0-.83.83c-.316.487-.78 1.317-1.608 1.317-.83 0-2.098.17-2.269-1.293a22 22 0 0 1-.146-3.073c0-.903-.035-8.193-.042-8.731a1.17 1.17 0 0 1 .871-1.245 7 7 0 0 1 1.098-.17 1.1 1.1 0 0 0-.707-.487 5.7 5.7 0 0 0-1.269.171 2.1 2.1 0 0 1-.585-.098.65.65 0 0 1-.366.366 5.7 5.7 0 0 1-1.024.097 3.7 3.7 0 0 1 .635.39c.45.353.316 1 .292 2.195a40 40 0 0 0 0 1.976" class="cls-5"/><path d="M18.675 9.191a16 16 0 0 0 1.73-.097c.32-.073.709.03.709-.39s.244-.418.244-.418-.024.882 0 1.54c.025.657-.098.999.098 1.34a2.2 2.2 0 0 1 .243.587 1.4 1.4 0 0 1-.78-.415 4.4 4.4 0 0 1-.587-1.464 3.9 3.9 0 0 0-1.194-.145c-.658.023-1.78-.318-1.804 1.414-.025 1.73.025 3.342.025 3.342s.804.073 1.023-.124c.22-.195.804-.365.635-.853s-.537-.976-.05-.683.831.633.708.977a2.25 2.25 0 0 1-.633.73 1.17 1.17 0 0 1 .487.78.74.74 0 0 1-.343.781.65.65 0 0 1-.412.122s.292-.463.219-.731a.75.75 0 0 0-.563-.635 9 9 0 0 0-1.046-.025v2.22a17 17 0 0 0-.075 1.83c.075.34.391.657 1.415.634 1.025-.025 1.464.023 1.805-.683.342-.708.463-.976.658-1.072a.67.67 0 0 1 .438-.026 1.22 1.22 0 0 0-.414.853c0 .513.05 1.49.05 1.756a1.2 1.2 0 0 1-.17.538.92.92 0 0 0-.44-.66 2.26 2.26 0 0 0-1.438-.218c-.611.023-1.709-.171-2.074-.146-.366.023-.634.243-1.074.293a1.09 1.09 0 0 1-.83-.124c-.144-.121-.4-.403-.4-.403a.77.77 0 0 1 .572 0c.243.135.562-.085.658-.376.099-.293.27-.22.245-2.78-.025-2.562-.025-5.926-.05-6.366-.023-.438-.023-.731-.218-.903a1.13 1.13 0 0 0-.561-.195s.17-.438.451-.45a1.4 1.4 0 0 1 .914.328 1.42 1.42 0 0 0 .927.317z" class="cls-5"/><path d="M15.657 14.759c0-.22 0-.5.013-.683.011-.184-.098-.378.464-.562.56-.183.917-.293 1.202-.121a1.03 1.03 0 0 1 .554.646c.071.305.206.646-.039.951-.243.305-.319.525-.62.598a2.6 2.6 0 0 1-.805.048c-.305-.011-.658.062-.745-.096-.085-.16-.011-.257-.011-.38 0-.122-.013-.401-.013-.401m-.689 1.578c0-.537-.008-1.25.007-1.69s.102-.664-.093-.85c-.196-.186-.307-.289-.307-.289s.345-.144.516 0c.17.147.363-.073.78-.293.417-.218 1.438-.584 1.976.025a1.84 1.84 0 0 1 .414 1.95c-.293.415-.683.562-.438.929a2.3 2.3 0 0 1 .412.9.85.85 0 0 0 .612.683 1.8 1.8 0 0 1 .535.197 6 6 0 0 1-.804.182.71.71 0 0 1-.727-.336 7 7 0 0 1-.273-1.053c-.105-.323-.08-.319-.396-.506a1.6 1.6 0 0 0-.876-.166c-.362 0-.656-.096-.63.147.023.243-.074 1.098-.026 1.244.049.145.221.291.245.438.025.147 0 .293-.268.268a1.8 1.8 0 0 0-.805.025c-.267.097-.463.023-.267-.268.194-.293.413-.073.413-.561z" class="cls-5"/><path d="M11.805 14.691c0-.22 0-.5.01-.683.014-.181-.096-.378.465-.561.56-.182.918-.292 1.203-.122a1.02 1.02 0 0 1 .553.646c.073.305.206.647-.037.952-.245.304-.32.524-.621.598a2.5 2.5 0 0 1-.805.048c-.306-.012-.66.062-.744-.097-.086-.16-.014-.256-.014-.378 0-.123-.01-.403-.01-.403m-.69 1.58c0-.538-.008-1.25.007-1.69.014-.442.1-.665-.094-.85-.196-.188-.307-.288-.307-.288s.346-.147.515 0c.172.145.365-.075.782-.293.416-.22 1.438-.587 1.975.023a1.84 1.84 0 0 1 .414 1.952c-.291.415-.682.56-.439.926a2.3 2.3 0 0 1 .415.903.85.85 0 0 0 .61.683 1.7 1.7 0 0 1 .537.195 6 6 0 0 1-.806.183.72.72 0 0 1-.725-.336 6.6 6.6 0 0 1-.274-1.055c-.105-.322-.081-.318-.397-.505a1.6 1.6 0 0 0-.875-.166c-.363 0-.655-.097-.63.146.024.245-.074 1.098-.025 1.245.049.146.22.293.244.44.024.144 0 .29-.268.266a1.8 1.8 0 0 0-.805.025c-.269.098-.463.025-.268-.268s.414-.074.414-.562z" class="cls-5"/></svg>