<svg xmlns="http://www.w3.org/2000/svg" id="Layer_1" data-name="Layer 1" viewBox="0 0 34.02 34.02"><defs><style>.cls-3{fill:#231f20}</style></defs><path d="M17 0A17 17 0 1 1 0 17 17 17 0 0 1 17 0" style="fill:#d3d3d3;fill-rule:evenodd"/><path d="M4.93 7.02h24.36v19.82H4.93z" style="fill:#ec1c24"/><path d="M4.93 26.84v-.24h24.12V7.26H5.18v19.58zv-.24zh-.24V6.78h24.84v20.3H4.69v-.24z" class="cls-3"/><path d="M6.54 8.55h21.24v16.76H6.54z" style="fill:#fff"/><path d="M13.19 19.39v-1.28c0-.1 0-.16-.12-.16h-.43v1.58h.45zm2.06 2.1v-1.73l-.14-.14h-.38l-.14.14v1.73l.14.14h.38Zm-5.33-7-.12-.14h-.6v1.58h.58l.14-.16Zm0-.8v-1.33l-.14-.15H9.2v1.58h.6Zm11.15 6.71v-.6l-.14-.14h-.39l-.13.14v.6ZM19.49 15v-1l-.13-.14H19l-.14.14v1l.14.14h.39Zm3.76.78V14l-.14-.14h-.39l-.13.14v1.73l.13.14h.39Zm-9.54 6.4h-.52v-2l-.12-.12h-.43v2.1h-.52v-4.74h1.07a.55.55 0 0 1 .52.53v1.58a.27.27 0 0 1-.25.25.27.27 0 0 1 .25.27Zm2.07-.52a.59.59 0 0 1-.53.52h-.66a.59.59 0 0 1-.53-.52v-2a.59.59 0 0 1 .53-.52h.66a.57.57 0 0 1 .53.52Zm-5.33-7.32v1.58a.57.57 0 0 1-.53.52H8.67v-4.76h1.25a.6.6 0 0 1 .53.53v1.58a.3.3 0 0 1-.28.27.27.27 0 0 1 .28.25Zm7.33 7.84h-1.07a.56.56 0 0 1-.52-.52V19.1h.52v2.39l.12.14h.43V19.1h.52Zm-5.23-5.74h-1.07a.55.55 0 0 1-.53-.52v-2.56h.53v2.39l.13.14H12v-2.53h.53Zm1.32-2.53-.14-.11-.13.11v2.53h-.53v-3.08h.8Zm5.72 5.74h-.52v2.26a.28.28 0 0 0 .25.27h-.53a.29.29 0 0 1-.25-.27v-2.29H18v-.52h.53v-.53s.31 0 .41-.19a1.4 1.4 0 0 0 .12-.18v.9h.52Zm2 1.56v.45a.58.58 0 0 1-.52.52h-.66a.57.57 0 0 1-.53-.52v-2a.57.57 0 0 1 .53-.52h.66a.56.56 0 0 1 .52.52v1.27h-1.18v.6l.13.14h.39l.14-.14v-.31Zm-6.81-4.77h-.52v-4.76h.52Zm1.07 0h-.52v-3.08h.52Zm2.07 0h-.53V14l-.13-.14h-.43v2.53h-.53v-3.03h1.09a.59.59 0 0 1 .53.52Zm-2.07-4.2h-.52v-.53h.52ZM20 15.11a.57.57 0 0 1-.53.52h-.58l-.08.16a.29.29 0 0 0 .27.25h.35a.59.59 0 0 1 .53.53v.37a.56.56 0 0 1-.53.52h-.62a.56.56 0 0 1-.52-.52v-.22h.52v.08l.14.14h.35l.13-.14v-.17l-.13-.14h-.56a.48.48 0 0 1-.45-.45.46.46 0 0 1 .45-.41.58.58 0 0 1-.45-.52v-1.23a.58.58 0 0 1 .52-.52H19a.52.52 0 0 1 .33-.49l.11.25a.26.26 0 0 0-.19.24h.21a.57.57 0 0 1 .53.52Zm1.77-1.23h-.52v2.28a.26.26 0 0 0 .25.25H21a.26.26 0 0 1-.25-.25v-2.28h-.53v-.52h.53v-.53a.84.84 0 0 0 .41-.17 1.3 1.3 0 0 1 .12-.18v.88h.52Zm2 2a.56.56 0 0 1-.52.52h-.66a.56.56 0 0 1-.53-.52v-2a.58.58 0 0 1 .53-.52h.66a.58.58 0 0 1 .52.52Zm2.07.52h-.53V14l-.13-.14h-.43v2.53h-.53v-3.03h1.09a.59.59 0 0 1 .53.52Zm1.26 8.31V9.29H7.21v15.43Zm.31.34H6.9V9h20.51Zm.67.64V8.32H6.24V25.7Z" class="cls-3"/></svg>