<svg xmlns="http://www.w3.org/2000/svg" data-name="Layer 1" viewBox="0 0 34.02 34.02"><path d="M17 0A17 17 0 1 1 0 17 17 17 0 0 1 17 0" style="fill:#0ff;fill-rule:evenodd"/><path d="M9.39 21.54c.78 0 1.41-.63 1.41-1.73s-.63-2-1.88-3.38a5.36 5.36 0 0 1-1.71-3.81c0-1.7 1.29-2.84 3.24-2.84a4.1 4.1 0 0 1 1.75.28l.07 2.62h-.15a2.17 2.17 0 0 0-1.67-1.08 1 1 0 0 0-.89 1 2.7 2.7 0 0 0 .86 1.9C12.14 16.36 13 18 13 19.73a3.35 3.35 0 0 1-3.49 3.59 2.9 2.9 0 0 1-2.14-.66l-.06-2.57h.16a2 2 0 0 0 1.92 1.45M16.33 21.54c.78 0 1.4-.63 1.4-1.73s-.62-2-1.87-3.38a5.36 5.36 0 0 1-1.71-3.81c0-1.7 1.29-2.84 3.24-2.84a4.1 4.1 0 0 1 1.75.28l.07 2.62h-.15a2.17 2.17 0 0 0-1.67-1.08 1 1 0 0 0-.89 1 2.7 2.7 0 0 0 .86 1.9C19.08 16.36 20 18 20 19.73a3.35 3.35 0 0 1-3.49 3.59 2.9 2.9 0 0 1-2.14-.66l-.06-2.57h.16a2 2 0 0 0 1.86 1.45M24.28 9.91V10a2 2 0 0 0-.35 1v10.14h2c.36 0 .58-.15 1.32-.68h.08v2.73h-6v-.14a2.15 2.15 0 0 0 .33-1v-11a2.2 2.2 0 0 0-.33-1v-.14Z"/></svg>