<svg xmlns="http://www.w3.org/2000/svg" id="Layer_1" data-name="Layer 1" viewBox="0 0 38 38"><defs><style>.cls-3{fill:#f26722}</style></defs><path fill="#fff" fill-rule="evenodd" d="m18.94.94 1.92.12 1.8.24 1.68.48 1.68.6 1.56.72 1.44.96 1.44.96 1.32 1.2 1.08 1.32 1.08 1.32.96 1.56.72 1.56.6 1.68.48 1.68.24 1.8.12 1.92-.12 1.8-.24 1.8-.48 1.68-.6 1.68-.72 1.56-.96 1.56-1.08 1.32-1.08 1.32-1.32 1.2-1.44.96-1.44.96-1.56.72-1.68.6-1.68.48-1.8.24-1.92.12-1.8-.12-1.8-.24-1.68-.48-1.68-.6-1.56-.72-1.56-.96-1.32-.96-1.32-1.2-1.2-1.32-.96-1.32-.96-1.56-.72-1.56-.6-1.68-.48-1.68-.24-1.8-.12-1.8.12-1.92.24-1.8.48-1.68.6-1.68.72-1.56.96-1.56.96-1.32 1.2-1.32 1.32-1.2 1.32-.96 1.56-.96 1.56-.72 1.68-.6 1.68-.48 1.8-.24z"/><path d="M18.94.46v1h-.36l-.48.12h-1.32l-.48.12-.36.12h-.48L15 1.9l-.38.1-.48.12-.36.12-.36.12-.48.12-.36.12-.36.24-.48.16-.36.24-.38.1-.36.24-.36.24-.36.12-.36.24-.36.24-.36.24-.34.24-.36.36-.36.24-.24.24-.36.26-.24.36-.36.24-.24.36-.34.22-.24.36-.26.36-.36.24-.24.36-.24.36-.24.36-.24.36-.24.36-.12.36-.24.36-.24.34-.12.36-.22.38-.12.48-.24.36-.12.36-.12.48-.12.36-.12.36-.16.48-.1.38-.12.48v.48l-.12.36-.12.48v.84l-.12.48v1h-1v-1.5l.12-.48v-.48l.12-.48v-.48l.12-.48.12-.36.12-.48.12-.48.12-.36.12-.48.12-.48.24-.36.12-.48.24-.36.16-.38.24-.48.24-.36.12-.36.24-.48.24-.32.24-.36.24-.36.36-.36.24-.36.24-.36.34-.38.24-.24.36-.36.24-.36.36-.24.36-.36.26-.26.36-.36.36-.24.36-.24.36-.24.36-.36.38-.22.36-.24.48-.24.36-.12.36-.24.36-.24.48-.12.36-.24.48-.12.36-.24.48-.12.36-.12.48-.12.48-.12.48-.12.36-.12.46-.12h.48l.48-.12h.48l.48-.12zM.46 19.06h1v.84l.12.48v.84l.12.48.12.36v.48l.08.46.12.36.12.48.12.36.12.36.12.48.12.36.24.36.12.48.24.36.12.36.24.36.24.36.12.36.24.36.24.36.24.36.24.36.24.36.36.24.24.36.24.36.36.24.24.36.36.24.24.36.36.24.24.24.36.36.36.24.36.24.36.24.36.24.36.24.36.12.36.24.36.24.36.12.36.24.48.12.36.24.36.12.48.12.36.12.36.12.48.12.36.12.48.12h.48l.36.12.48.12h1.32l.48.12h.36v1h-1.32l-.48-.12h-.48l-.48-.12h-.48l-.48-.12-.36-.12-.48-.12-.48-.12-.48-.12-.36-.12-.48-.12-.36-.24-.48-.12-.36-.24-.48-.12-.36-.24-.36-.24-.36-.12-.48-.24-.34-.26-.36-.24-.36-.24-.36-.36-.36-.24-.36-.24-.38-.34-.24-.24-.36-.36-.36-.24-.24-.36-.36-.36-.26-.26-.36-.36-.24-.36-.24-.36-.36-.36-.24-.36-.22-.38-.24-.36-.24-.48-.12-.36-.24-.36-.24-.44-.12-.36-.24-.36-.12-.48-.24-.36-.12-.48-.12-.48-.12-.36-.12-.48-.12-.48-.12-.36-.12-.5v-.48l-.12-.48v-.48l-.12-.48zm18.48 18.48v-1h.48l.48-.12h1.32l.48-.12.36-.12h.48l.36-.12.48-.12.36-.12.48-.12.36-.12.48-.12.36-.12.36-.24.48-.12.36-.24.36-.12.36-.24.36-.24.36-.12.36-.24.36-.24.36-.24.36-.24.36-.24.24-.36.36-.24.36-.24.24-.36.36-.24.24-.36.36-.24.24-.36.24-.36.24-.24.36-.36.24-.36.24-.36.24-.36.12-.36.24-.36.24-.36.24-.36.12-.36.24-.36.12-.48.12-.36.24-.36.12-.48.12-.36.12-.36.12-.48.12-.34.12-.48v-.48l.12-.36v-.48l.12-.48v-.82l.12-.48v-.36h1v1.32l-.12.48v.48l-.12.48v.48l-.12.48-.12.36-.12.48-.12.48-.12.36-.12.48-.12.48-.24.36-.12.48-.24.36-.12.36-.24.48-.24.36-.24.36-.12.48-.24.36-.24.36-.36.36-.24.36-.24.36-.24.36-.36.36-.24.24-.36.36-.24.36-.36.24-.36.36-.24.24-.36.36-.36.24-.36.24-.36.36-.36.24-.36.24-.36.24-.48.24-.36.12-.36.24-.48.24-.36.12-.36.24-.48.12-.36.24-.48.12-.48.12-.36.12-.48.12-.48.12-.36.12-.48.12h-.48l-.48.12h-.48l-.48.12zm18.6-18.48h-1v-.48l-.12-.48v-.84l-.12-.48v-.48l-.12-.36v-.48L36.1 15l-.1-.38-.12-.48-.12-.36-.12-.36-.12-.48-.24-.36-.12-.36-.16-.48-.24-.36-.1-.38-.24-.36-.24-.36-.24-.36-.12-.36-.24-.36-.24-.36-.24-.34-.36-.36-.24-.24-.24-.36-.26-.36-.36-.24-.24-.36-.36-.24-.22-.34-.36-.24-.36-.26-.24-.24-.36-.36-.36-.24-.36-.24-.36-.24-.36-.24-.36-.12-.36-.24-.34-.24-.36-.12-.38-.22-.48-.12-.36-.24-.36-.12-.48-.12-.36-.12-.48-.12-.36-.16-.48-.1-.36-.12h-.48l-.36-.12-.48-.12H19.9l-.48-.12h-.48v-1h1.44l.48.12h.48l.48.12h.48l.48.12.36.12.48.12.48.12.36.12.48.12.48.12.36.24.48.12.36.24.36.12.48.24.36.24.36.12.48.24.36.24.36.24.36.36.36.24.36.24.36.24.36.36.24.24.36.36.36.24.24.36.36.36.24.24.36.36.24.36.24.36.24.36.36.36.24.36.24.36.12.48.24.36.24.36.24.48.12.36.24.36.12.48.24.36.12.48.12.48.12.36.12.48.12.48.12.36.12.48v.48l.12.48v.48l.12.48v1.44z"/><path fill="#fff" d="M8.14 8.14h21.72v21.72H8.14z"/><path d="M7.54 8.14v-.6h.6zm.6-.6.6.6v21.72h-1.2V8.14zm0 22.92h-.6v-.6zm-.6-.6.6-.6h21.72v1.2H8.14zm22.92 0v.6h-.6zm-.6.6-.6-.6V8.14h1.2v21.72zm0-22.92h.6v.6zm.6.6-.6.6H8.14v-1.2h21.72z" class="cls-3"/><path fill="#f26722" fill-rule="evenodd" d="M9.46 16.3v12.12H21.7zm18.96 5.4V9.58H16.3z"/><path d="M10.09 9.53v4.89a9 9 0 0 0 .07 1.36 1.9 1.9 0 0 0 .24.7l1.41-.9a1.6 1.6 0 0 1-.07-.42v-2.34h1.62v2.76H15V9.53h-1.66v1.9h-1.62v-1.9z" class="cls-3"/><path d="M10.09 9.53h.12v4.89a10 10 0 0 0 .07 1.34 1.8 1.8 0 0 0 .23.65l-.11.07-.06-.11 1.4-.9.07.11h-.12a2 2 0 0 1-.08-.46V12.7h1.88v2.75h1.37V9.66h-1.39v1.89h-1.88V9.66h-1.5v-.25h1.75v1.89h1.38V9.41h1.87v6.29h-1.87V13h-1.38v2.2a1.7 1.7 0 0 0 .07.39v.09l-1.59 1-.07-.1a1.9 1.9 0 0 1-.25-.78 9 9 0 0 1 0-1.38v-5h.13zM21 15h-2a4.1 4.1 0 0 0-1.35.17 1.5 1.5 0 0 0-.75.53 2.3 2.3 0 0 0-.28.54 2.2 2.2 0 0 0-.09.63 2 2 0 0 0 .16.8 2.3 2.3 0 0 0 .45.74l1.92 2.14.11.17v.15a.25.25 0 0 1-.1.22.45.45 0 0 1-.28.07h-2.26l.53 1.84h1.84a7.3 7.3 0 0 0 1.34-.09 1.9 1.9 0 0 0 .73-.31 1.56 1.56 0 0 0 .52-.62 1.9 1.9 0 0 0 .19-.82 2.1 2.1 0 0 0-.2-.87 3.8 3.8 0 0 0-.59-.88l-1.75-1.95-.15-.2v-.17a.23.23 0 0 1 .1-.2.6.6 0 0 1 .31-.07h2.11z" class="cls-3"/><path d="M21 15v.13h-2a4.2 4.2 0 0 0-1.31.15 1.46 1.46 0 0 0-.69.5l-.1-.08.1.08a1.8 1.8 0 0 0-.26.5 2 2 0 0 0-.09.59 2.1 2.1 0 0 0 .15.76 2.7 2.7 0 0 0 .43.7l-.09.08.09-.08 1.92 2.13.14.2.05.2a.36.36 0 0 1-.14.32.6.6 0 0 1-.36.1h-2.15l.46 1.6h1.75a7 7 0 0 0 1.32-.08 1.8 1.8 0 0 0 .68-.29 1.5 1.5 0 0 0 .48-.58 1.7 1.7 0 0 0 .17-.76 2 2 0 0 0-.18-.81 3.3 3.3 0 0 0-.57-.85l-1.76-2-.17-.22-.06-.23a.37.37 0 0 1 .19-.26.74.74 0 0 1 .38-.08h1.92l-.45-1.67zh.12l.53 2h-2.3a.5.5 0 0 0-.24 0v.21l.13.17 1.75 2a3.7 3.7 0 0 1 .62.91 2.3 2.3 0 0 1 .2.92 2 2 0 0 1-.2.87 1.7 1.7 0 0 1-.55.67 2 2 0 0 1-.78.33 7.7 7.7 0 0 1-1.37.09H17l-.6-2.09h2.5a.34.34 0 0 0 .21-.05v-.21l-.1-.15.1-.08-.1.08-1.94-2.17a2.5 2.5 0 0 1-.48-.77 2.3 2.3 0 0 1-.17-.85 2.1 2.1 0 0 1 .11-.66 1.8 1.8 0 0 1 .29-.58 1.74 1.74 0 0 1 .81-.57 4.3 4.3 0 0 1 1.37-.18h2.05v.09zm1.83 13.42h1.61l-.07-3.62 1.28 1.76 1.27-1.76-.07 3.62h1.61v-6.05h-1.52l-1.29 2.03-1.31-2.03h-1.51z" class="cls-3"/><path d="M22.83 28.42v-.12h1.48l-.07-3.9 1.41 1.95 1.4-1.95-.07 3.9h1.36v-5.8h-1.33l-1.36 2.13-1.38-2.13h-1.32v5.92zv-.12zh-.13v-6.17h1.71l1.24 1.91 1.22-1.91h1.72v6.3h-1.86l.06-3.35-1.14 1.57-1.15-1.58.07 3.36H22.7v-.13z" class="cls-3"/></svg>