<svg xmlns="http://www.w3.org/2000/svg" id="Layer_1" data-name="Layer 1" viewBox="0 0 38 38"><defs><style>.cls-2{fill:#fff}.cls-2,.cls-3{fill-rule:evenodd}.cls-3,.cls-4{fill:#243e90}</style></defs><path fill="#b3b3b3" d="m23.74 28.78-.48-.12-.26-.36z"/><path d="m18.94.94 1.92.12 1.8.24 1.68.48 1.68.6 1.56.72 1.44.96 1.44.96 1.32 1.2 1.08 1.32 1.08 1.32.84 1.56.84 1.56.6 1.68.48 1.68.24 1.8.12 1.8-.12 1.92-.24 1.8-.48 1.68-.6 1.68-.84 1.56-.84 1.44-1.08 1.44-1.08 1.32-1.32 1.08-1.44 1.08-1.44.96-1.56.72-1.68.6-1.68.48-1.8.24-1.92.12-1.8-.12-1.8-.24-1.68-.48-1.68-.6-1.56-.72-1.56-.96-1.32-1.08-1.32-1.08-1.2-1.32-.96-1.44-.96-1.44-.72-1.56-.6-1.68-.48-1.68-.24-1.8-.12-1.92.12-1.8.24-1.8.48-1.68.6-1.68.72-1.56.96-1.56.96-1.32 1.2-1.32 1.32-1.2 1.32-.96 1.56-.96 1.56-.72 1.68-.6 1.68-.48 1.8-.24z" class="cls-2"/><path d="M18.94.46v1h-.84l-.48.12h-.84l-.48.12-.48.12h-.36L15 1.9l-.38.1-.48.12-.36.12-.48.12-.36.12-.36.12-.48.24-.36.16-.36.24-.38.1-.36.24-.48.24-.36.12-.36.24-.36.24-.24.24-.34.24-.36.24-.36.36-.24.24-.36.26-.36.36-.24.24-.36.36-.22.22-.24.36-.36.24-.24.36-.26.36-.24.36-.24.36-.24.36-.24.36-.24.36-.12.36-.24.34-.24.36-.1.38-.12.48-.24.36-.12.36-.12.48-.12.36-.12.36-.16.48-.1.38-.12.48-.12.48v.36l-.12.48v.36l-.12.48v1.32h-1v-1.8l.12-.48v-.48l.16-.5.12-.48.12-.36.12-.48.12-.48.12-.48.12-.36.12-.48.12-.36.24-.48.1-.36.24-.48.24-.36.12-.36.24-.36.24-.48.26-.34.24-.36.24-.36.24-.36.36-.36.24-.36.24-.36.36-.24.24-.36.36-.36.36-.24.24-.36.36-.28.36-.36.36-.24.36-.24.36-.36.36-.24.38-.22.36-.24.36-.24.48-.12.36-.24.36-.24.48-.12.36-.24.48-.12.36-.24.48-.12.36-.12.48-.12.48-.12.36-.12.48-.12.46-.12h.48l.48-.12H17l.5-.12zM.46 18.94h1v1.44l.12.36v.48l.12.48v.36l.12.48.12.36.12.48.12.36.12.48.12.36.12.48.12.36.24.36.12.48.12.36.24.36.24.36.12.36.24.36.24.36.24.36.24.36.24.36.24.36.24.24.36.36.24.36.24.24.36.36.24.24.36.36.36.24.24.24.36.24.36.36.36.24.24.24.36.24.36.12.36.24.48.24.36.24.36.12.36.24.36.12.48.12.36.24.36.12.48.12.36.12.48.12.36.12.48.12h.36l.48.12h.48l.36.12h1l.36.12h.48v1H18l-.48-.12h-.84l-.48-.12h-.5l-.48-.12-.48-.12-.36-.12-.48-.12-.48-.12-.36-.12-.48-.12-.36-.24-.48-.12-.36-.24-.48-.12-.36-.24-.36-.24-.48-.3-.36-.12-.34-.22-.36-.24-.36-.36-.36-.24-.36-.24-.36-.24-.38-.34-.36-.24-.24-.36-.36-.24-.36-.36-.24-.36-.36-.24-.24-.36-.24-.36-.36-.36-.24-.36-.24-.36-.24-.4-.24-.36-.24-.48-.24-.36-.12-.36-.24-.44-.26-.38-.12-.36-.24-.48-.12-.36-.12-.48-.12-.48-.12-.36-.12-.48-.12-.48-.12-.36-.1-.48-.12-.48v-.48l-.12-.48zm18.48 18.6v-1h.48l.48-.12h.84l.48-.12h.36l.48-.12h.48l.36-.12.48-.12.36-.12.48-.12.36-.12.36-.12.48-.24.36-.12.36-.12.48-.24.36-.12.36-.24.36-.24.36-.24.36-.12.36-.24.36-.24.36-.24.24-.36.36-.24.36-.24.24-.22.36-.36.36-.24.24-.36.24-.24.36-.36.24-.36.24-.24.26-.34.24-.36.24-.36.24-.36.24-.36.24-.36.24-.36.12-.36.24-.36.12-.36.24-.48.12-.36.24-.36.12-.48.12-.36.12-.48.12-.36.12-.48v-.36l.12-.48.12-.36v-.48l.12-.48v-1.8h1.08v1l-.12.48v.48l-.12.48v.48l-.12.48v.48l-.12.36-.12.48-.12.48-.12.36-.12.48-.24.48-.12.36-.12.48-.24.36-.24.36-.12.48-.24.36-.24.36-.24.48-.24.36-.24.36-.24.36-.24.36-.24.36-.36.36-.24.36-.24.24-.36.36-.36.36-.24.24-.36.36-.36.24-.36.36-.24.24-.36.24-.36.24-.36.36-.48.24-.36.24-.36.12-.36.24-.36.24-.48.24-.36.12-.48.24-.36.12-.48.24-.36.12-.48.12-.48.12-.36.12-.48.12-.48.12-.36.12h-.48l-.48.12h-1l-.48.12h-1zm18.6-18.6h-1.08v-1.8l-.12-.36v-.48l-.12-.36-.12-.48V15l-.1-.38-.12-.48-.12-.36-.12-.36-.12-.48-.24-.36-.12-.36-.24-.48-.12-.36-.26-.38-.12-.36-.24-.36-.24-.36-.24-.36-.24-.36-.24-.36L33 8.5l-.24-.36-.24-.36-.24-.24-.36-.36-.24-.24-.24-.36-.36-.24L30.7 6l-.24-.24-.36-.26-.36-.36-.24-.24-.36-.24-.36-.24-.36-.24-.36-.24-.36-.12-.36-.24-.34-.24-.36-.12-.5-.22-.36-.12-.36-.24-.48-.12-.36-.12-.36-.12-.48-.12-.36-.16-.48-.1-.36-.12h-.48l-.48-.12-.36-.12h-1l-.36-.12h-1v-1h1.44l.48.12h.48l.48.12h.48l.36.12.48.12.48.12.36.12.48.12.48.12.36.12.48.24.36.12.48.24.36.12.48.24.36.24.36.12.36.24.36.24.48.24.36.24.36.36.36.24.24.24.36.36.36.24.36.36.24.24.36.36.36.36.24.24.24.36.36.36.24.36.24.36.24.36.24.36.24.36.24.48.24.36.24.36.12.36.24.48.24.36.12.48.12.36.24.48.12.36.12.48.12.48.12.48.12.36v.48l.12.48v.48l.12.48v.48l.12.36v1z"/><path d="m18.94 2.74 1.68.12 1.56.24 1.56.36 1.56.6 1.44.6 1.32.84 1.2.96 1.2 1.08 1.08 1.08.84 1.32.84 1.32.72 1.44.48 1.44.48 1.56.24 1.68.12 1.56-.12 1.68-.24 1.68-.48 1.56-.48 1.44-.72 1.44-.84 1.32-.84 1.2-1.08 1.2-1.2 1.08-1.2.96-1.32.72-1.44.72-1.56.6-1.56.36-1.56.24-1.68.12-1.68-.12-1.56-.24-1.56-.36-1.44-.6-1.44-.72-1.32-.72-1.32-.96-1.08-1.08-1.08-1.2-.96-1.2-.84-1.32-.6-1.44-.6-1.44-.36-1.56-.24-1.68-.12-1.68.12-1.56.24-1.68.36-1.56.6-1.44.6-1.44.84-1.32.96-1.32 1.08-1.08 1.08-1.08 1.32-.96 1.32-.84 1.44-.6 1.44-.6 1.56-.36 1.56-.24z" class="cls-3"/><path d="m33.1 22.78-.36 1.08-.48 1.08-.48 1.08-.6.96-.6.96-.72.84-.84.84-.84.72H9.82l-.84-.72-.84-.84-.72-.84-.72-.96-.6-.96-.48-1.08-.48-1.08-.24-1.08z" class="cls-2"/><path d="M12.2 27.93c.78.43 1.59.89 2.41 1.38v-5.26h-.26v2.43c-.78-.39-1.57-.8-2.35-1.23s-1.58-.88-2.37-1.35v5.25h.26v-2.44c.75.38 1.52.79 2.31 1.22" class="cls-4"/><path d="m12.2 27.93.06-.11c.78.43 1.59.89 2.41 1.38l-.06.11h-.13v-5.13h-.07v2.56l-.18-.1c-.78-.39-1.57-.8-2.35-1.23s-1.5-.93-2.29-1.41l.06-.11h.13v5.12h.07v-2.5l.18.09c.76.38 1.53.79 2.32 1.22l-.06.11-.06.11c-.79-.43-1.56-.84-2.31-1.21l.06-.12H10v2.27a.4.4 0 0 1-.06.24l-.22.09-.22-.07-.03-.24v-5.32l.19.11a76 76 0 0 0 4.7 2.58l-.05.11h-.13v-2.26a.4.4 0 0 1 .06-.24l.22-.1.23.08.08.22v5.34l-.19-.11c-.82-.48-1.62-.94-2.4-1.37zm3.17.01a2.2 2.2 0 0 0 .48.71 2.1 2.1 0 0 0 .7.47 2.26 2.26 0 0 0 1.67 0 2.2 2.2 0 0 0 .7-.48 2.2 2.2 0 0 0 .47-.7 2.1 2.1 0 0 0 .16-.83 2.12 2.12 0 0 0-.63-1.54 2.1 2.1 0 0 0-.71-.47 2.1 2.1 0 0 0-.82-.16 2.1 2.1 0 0 0-.84.16 2.2 2.2 0 0 0-.7.47 2.2 2.2 0 0 0-.48.71 2.23 2.23 0 0 0 0 1.66m1.89-2.76h.06a2 2 0 0 1 1.43.56 1.91 1.91 0 0 1 0 2.74 2 2 0 0 1-1.45.52z" class="cls-4"/><path d="M15.37 27.94h.12a2 2 0 0 0 .45.66 1.8 1.8 0 0 0 .66.44 2.1 2.1 0 0 0 .79.15 2.1 2.1 0 0 0 .78-.15 2.2 2.2 0 0 0 .66-.44 2.1 2.1 0 0 0 .44-.67 2 2 0 0 0 .16-.78 2.1 2.1 0 0 0-.16-.79 2 2 0 0 0-.44-.66 2.2 2.2 0 0 0-.66-.45 2.13 2.13 0 0 0-1.57 0 2 2 0 0 0-.66.45l-.09-.09.09.09a2 2 0 0 0-.45.66 2 2 0 0 0 0 1.58h-.23a2.31 2.31 0 0 1 .5-2.51 2.23 2.23 0 0 1 1.63-.67 2.25 2.25 0 0 1 2.11 1.42 2.24 2.24 0 0 1 0 1.76 2.26 2.26 0 0 1-1.24 1.24 2.1 2.1 0 0 1-.87.17 2.2 2.2 0 0 1-.89-.17 2.3 2.3 0 0 1-.74-.49 2.2 2.2 0 0 1-.5-.75zm1.89-2.76v-.12h.06a2.07 2.07 0 0 1 1.52.59 2.05 2.05 0 0 1 0 2.92 2.12 2.12 0 0 1-1.54.59h-.16v-4.1h.12zh.13V29h-.13v-.13a1.9 1.9 0 0 0 1.37-.52 1.81 1.81 0 0 0 0-2.56 1.84 1.84 0 0 0-1.35-.52h-.06v-.13zm4.79 1.03a2.3 2.3 0 0 1 .51-.56 1 1 0 0 1 .52-.2.7.7 0 0 1 .27.06h.21l.2-.06.07-.19a.3.3 0 0 0-.11-.24.48.48 0 0 0-.29-.09 1.26 1.26 0 0 0-.68.21 3.2 3.2 0 0 0-.7.66v-.78h-1.92v4.07h1.94v-.82z" class="cls-4"/><path d="m22.05 26.21-.11-.07a2.4 2.4 0 0 1 .55-.59 1 1 0 0 1 .59-.22.9.9 0 0 1 .31.06l.17.05h.11v-.1l-.06-.14a.33.33 0 0 0-.21-.07 1.2 1.2 0 0 0-.62.2 3 3 0 0 0-.67.63l-.23.29V25.1h.13v.13h-1.88v-.13h.12v4.07h-.12V29h1.94v.12h-.13v-2.95l.11.07h.12v3.06H20V25h2.2v.9h-.12l-.1-.08a3.2 3.2 0 0 1 .73-.68 1.33 1.33 0 0 1 .75-.24.54.54 0 0 1 .36.12.41.41 0 0 1 .16.34.37.37 0 0 1-.11.28.4.4 0 0 1-.28.1l-.25-.07a.7.7 0 0 0-.23 0 .72.72 0 0 0-.44.18 2 2 0 0 0-.49.52l-.1-.07zm6.85 2.39v-4.61H27v1.57a1.75 1.75 0 0 0-.6-.45 1.7 1.7 0 0 0-.7-.14 1.75 1.75 0 0 0-.73.16 1.8 1.8 0 0 0-.63.44 2.1 2.1 0 0 0-.42.67 2.7 2.7 0 0 0-.14.87 2.5 2.5 0 0 0 .14.86 1.8 1.8 0 0 0 .42.67 1.8 1.8 0 0 0 .63.44 1.75 1.75 0 0 0 .73.16 1.54 1.54 0 0 0 .7-.14 1.75 1.75 0 0 0 .6-.45v.49h1.95c-.04-.14-.05-.35-.05-.54m-2.35.15a.8.8 0 0 1-.45.15.24.24 0 0 1-.22-.1.7.7 0 0 1-.07-.35v-2.69a.7.7 0 0 1 .07-.35.24.24 0 0 1 .22-.1.8.8 0 0 1 .45.15 1.6 1.6 0 0 1 .43.42v2.45a1.6 1.6 0 0 1-.43.42" class="cls-4"/><path d="M28.9 28.6h-.13v-4.61h.13v.13H27V24h.12v1.89l-.22-.23a1.9 1.9 0 0 0-.56-.43 1.6 1.6 0 0 0-.65-.12 1.7 1.7 0 0 0-.68.14 1.85 1.85 0 0 0-1 1.05 2.65 2.65 0 0 0 0 1.64 2.1 2.1 0 0 0 .39.63 2 2 0 0 0 .6.43 1.7 1.7 0 0 0 .68.15 1.6 1.6 0 0 0 .65-.13 1.7 1.7 0 0 0 .56-.42l.22-.24v.85h-.13V29h1.95v.12h-.13v-.53h.2v.67h-2.2v-.6h.2l.09.09a2.1 2.1 0 0 1-.63.48 1.9 1.9 0 0 1-.76.15 2 2 0 0 1-.78-.17 2.2 2.2 0 0 1-.67-.47 2.1 2.1 0 0 1-.45-.72 2.8 2.8 0 0 1-.14-.9 2.6 2.6 0 0 1 .15-.91 2.1 2.1 0 0 1 .44-.72 2.4 2.4 0 0 1 .65-.49 2 2 0 0 1 .78-.16 1.9 1.9 0 0 1 .76.15 2 2 0 0 1 .63.48l-.09.08h-.12v-1.69H29v4.74zm-2.35.15.07.1a1 1 0 0 1-.52.18.36.36 0 0 1-.32-.16.75.75 0 0 1-.09-.42v-2.69a.75.75 0 0 1 .09-.42.35.35 0 0 1 .32-.16 1 1 0 0 1 .52.18 1.7 1.7 0 0 1 .46.44v2.54a1.7 1.7 0 0 1-.46.44l-.07-.1-.06-.11a1.4 1.4 0 0 0 .39-.38l.1.07h-.12v-2.38H27l-.1.07a1.6 1.6 0 0 0-.39-.38.7.7 0 0 0-.39-.14l-.12.05a.8.8 0 0 0 0 .28v2.69a.8.8 0 0 0 0 .28l.12.05a.7.7 0 0 0 .39-.14z" class="cls-4"/><path d="M18.94 4.42h1.56l1.44.24 1.32.36 1.44.48 1.2.6 1.2.72 1.2.84.96.96.96 1.08.84 1.08.72 1.2.6 1.32.6 1.32.36 1.44.12 1.44.12 1.44v.84l-.12.84H4.42v-.84l-.12-.84.12-1.44.24-1.44.36-1.44.48-1.32.6-1.32.72-1.2.84-1.08.96-1.08 1.08-.96 1.08-.84 1.2-.72 1.32-.6 1.32-.48 1.44-.36 1.44-.24z" class="cls-2"/><path d="M18.58 6.34V6h.24v-.86h.12V6h.12v.7h-.12l.12 1.56v1.2l.12 1.08v.72l.12 1.44.12 1.2h.36v1.2l.12.48.12.48.24.48h.24v.6h-.12l.36.72.36.6.36.48.48.36h-1.32l-.36-.48-.26-.48-.1-.34-.24-.24-.36-.24h-.84l-.24.12-.12.24-.1.22-.12.24-.24.48-.36.48h-1.2l.36-.36.36-.48.36-.6.36-.72v-.6h.12l.12-.48.12-.48.12-.48.12-.72V14h.24l.12-1.56.1-1.44v-.84l.12-1V6.7zm.12 8.4h.36v-.36h-.36zm.36.12h-.36v.48l-.12.36-.12.48v.36h1l-.24-.72z" class="cls-3"/></svg>