<svg xmlns="http://www.w3.org/2000/svg" width="40" height="40" data-name="Layer 1"><circle cx="19.99" cy="20" r="19.62" fill="red"/><path fill="#fff" d="M17.46 23.62v1.19h-4.39v-1.19l1-.34V16.8l-1-.41v-1.13l3.14-.07H20v2.6h-1.24l-.34-1h-2.21v2.42H19v1.5h-2.79v2.56zm3.38-6.07 2.82-.11.13.94.3-.3a5 5 0 0 1 .68-.47 1.83 1.83 0 0 1 .91-.3 3.2 3.2 0 0 1 .63.06 2 2 0 0 1 .46.13l.14.05-.11 2.59h-1.19l-.2-1.14a1.5 1.5 0 0 0-.72.2 1.9 1.9 0 0 0-.56.38l-.19.19v3.62l1.29.34v1.1h-4.39v-1.1l1.09-.34v-4.47l-1.09-.28z"/></svg>