<svg xmlns="http://www.w3.org/2000/svg" xml:space="preserve" width="48" height="48" style="shape-rendering:geometricPrecision;text-rendering:geometricPrecision;image-rendering:optimizeQuality;fill-rule:evenodd;clip-rule:evenodd" viewBox="0 0 0.028 0.028"><circle cx=".014" cy=".014" r=".014" style="fill:#3e4095"/><path d="M.014.006h.009v.001q0 .014-.01.019Q.006.02.006.007z" style="fill:#ecc13b"/><path d="M.014.007h.008q0 .014-.008.018Q.006.021.006.008z" style="fill:#f4c036"/><path d="M.022.007H.014zM.014.025h.001V.023h.001V.022h.001V.021h.001V.02H.02V.018H.02V.015h.001V.007h.001v.007L.02.017v.002L.02.02V.02H.018v.001L.017.023.016.024.015.025zM.006.008v.007l.001.001v.002L.009.02V.02H.01v.001H.01v.001l.001.001h.001v.001h.001l.001.001H.012L.011.023H.01V.022L.01.021.008.02V.02H.007V.017L.006.017V.013H.005V.007m0 0V.006m0 0V.006M.014.006H.005h.007m0 0" style="fill:#3e4095;fill-rule:nonzero"/><path d="M.009.01H.01V.008zm0 .002L.01.01.01.013.009.015.011.013h.002L.015.01H.012v.001H.011Q.013.01.018.008H.013L.011.01zm.01.003v.001zM.01.02V.019M.02.009C.019.01.018.014.017.014L.018.011.016.013V.012L.015.013H.014v.001L.013.013H.011v.005-.001H.01V.015L.01.018q-.002 0 0 .002V.018h.001q.002 0 .003-.003h.001v.002c.002 0 0-.002.002-.002v.001q0-.002.003-.004L.018.013z" style="fill:#35598b"/><path d="M.012.01zm.004.004zM.01.019" style="fill:#e3b73e"/></svg>