<svg xmlns="http://www.w3.org/2000/svg" xml:space="preserve" width="48.945" height="48.945" style="shape-rendering:geometricPrecision;text-rendering:geometricPrecision;image-rendering:optimizeQuality;fill-rule:evenodd;clip-rule:evenodd" viewBox="0 0 0.029 0.029"><circle cx=".014" cy=".014" r=".014" style="stroke:#000;stroke-width:.000556961;fill:#fde71d"/><path d="m.003.014.011.012.012-.012L.014.003z" style="stroke:#000;stroke-width:.000169762;fill:#fefefe"/><path d="M.026.014.014.002.002.014l.012.012zm0 0L.013.025l-.01-.01.01-.011zm-.005 0L.017.008H.012a.01.01 0 0 0-.004.009.007.007 0 0 0 .013-.003M.02.017H.018V.011h.001v.006m-.002 0H.015V.011zm-.002 0V.015H.013v.002H.012V.011h.002v.006m-.003 0H.01V.011h.001v.006M.014.014V.012z" style="fill:#000;fill-rule:nonzero"/></svg>