<svg xmlns="http://www.w3.org/2000/svg" xml:space="preserve" width="48.667" height="48.667" style="shape-rendering:geometricPrecision;text-rendering:geometricPrecision;image-rendering:optimizeQuality;fill-rule:evenodd;clip-rule:evenodd" viewBox="0 0 0.029 0.029"><defs><style>.str0{stroke:#000;stroke-width:.000390884}.fil2{fill:#000;fill-rule:nonzero}</style></defs><g id="Layer_x0020_1"><g id="_297350320"><circle id="_297352392" cx=".014" cy=".014" r=".014" class="str0" style="fill:#91d8f7"/><path id="_297351944" d="M.01.022h.008A.01.01 0 0 0 .024.016L.023.014V.012A.01.01 0 0 0 .019.006L.014.007H.011a.01.01 0 0 0-.006.005l.001.002-.001.002q0 .006.006.006z" class="str0" style="fill:#fefefe"/><path id="_297351160" d="M.009.02H.01V.015.02h.003V.009H.012v.004-.004H.008z" class="fil2"/><path id="_2973511601" d="M.015.02h.002V.015h.001V.02H.02V.009H.015zM.018.013V.011z" class="fil2"/></g></g></svg>