<svg xmlns="http://www.w3.org/2000/svg" xml:space="preserve" width="48.667" height="48.667" style="shape-rendering:geometricPrecision;text-rendering:geometricPrecision;image-rendering:optimizeQuality;fill-rule:evenodd;clip-rule:evenodd" viewBox="0 0 0.029 0.029"><circle cx=".014" cy=".014" r=".014" style="stroke:#000;stroke-width:.00039089;fill:#000"/><path d="M.027.014V.013L.026.01.025.01.023.009.021.008.018.007h-.01L.004.01.003.01.002.013v.004L.005.02h.002l.002.002H.02L.025.019.026.018V.014m0 0v.002L.024.017.024.02.02.02.018.021h-.01L.004.018.003.017V.016L.001.014V.012L.005.01.006.01.008.008h.015L.025.01v.002h.001zm0 0zV.012L.023.01H.023L.02.007H.008L.004.01v.002L.001.013v.002l.001.002.001.001.002.001.002.001.003.001h.01L.023.017.025.017.026.015M.022.012.021.01H.02V.01h.001zm.002.003H.023V.013v.002zM.021.01H.018V.01zm-.003 0v.002H.016V.01zm.004.006V.015H.02V.012zM.016.01zH.014L.014.01zM.02.014H.017v.001H.015V.013h.002M.02.019V.018H.02L.018.018V.02.017v.001H.02V.016h.001zM.013.01v.001H.01V.01h.002m.002.004v.002H.013V.013H.012zM.018.02H.017V.017h.001-.001zM.01.012H.01V.01v.002zm.006.005V.02.018H.013V.016zM.012.015H.01V.014H.008h.002zM.008.012H.006V.01H.005V.01zV.01zm.006.006V.02H.011zL.011.017V.016h.001zM.009.015H.005V.013h.002-.001v.002M.01.017V.02.017H.008zm-.003 0H.004V.012h.002-.001v.003h.002m.001.001V.02H.007V.016H.007zM.018.011V.01H.016v.001m0 .003H.015z" style="fill:#fefefe;fill-rule:nonzero"/></svg>