<svg xmlns="http://www.w3.org/2000/svg" xml:space="preserve" width="48.667" height="48.667" style="shape-rendering:geometricPrecision;text-rendering:geometricPrecision;image-rendering:optimizeQuality;fill-rule:evenodd;clip-rule:evenodd" viewBox="0 0 0.029 0.029"><defs><style>.fil2{fill:none}.fil1{fill:#fefefe;fill-rule:nonzero}</style></defs><g id="Layer_x0020_1"><g id="NYH"><circle id="_297361576" cx=".014" cy=".014" r=".014" style="fill:#fff"/><path id="_297369696" d="m.003.014.011.009.012-.009L.014.006z" style="fill:#8c4776"/><path id="_297369248" d="M.008.011.01.012zM.01.01v.001h.001H.01m.001 0h.001V.01zm.003 0h.001v.001zM.015.01.017.01h.001v.001zm.002 0H.02v.001m.002 0H.02v.002zH.018z" class="fil1"/><path id="_297367176" d="M.006.016h.001V.015v.001H.01V.013H.007v.001-.001H.006z" class="fil1"/><path id="_2973671761" d="M.009.016h.003V.013H.008zM.01.015V.014" class="fil1"/><path id="_29736717612" d="M.013.016h.002V.014H.013V.012H.012v.003zV.015zm0-.002" class="fil1"/><path id="_297367176123" d="M.015.016h.002zV.012H.015z" class="fil1"/><path id="_2973671761234" d="M.017.016h.002V.012H.017z" class="fil1"/><path id="_29736717612345" d="M.02.016h.001V.014v.002h.002V.013H.02v.001-.001H.019zV.014z" class="fil1"/><path id="_297366896" d="M.008.018V.016H.01v.002H.008m0 0H.01V.016m.002 0h.001v.001M.012.018h.001V.02zm.001.001h.001V.02zm.002.001V.018h.001V.02zm0 0zm.002 0V.018h.001V.02zm0 0V.017m.002 0V.017L.02.02m0 0V.017M.02.016H.02v.001zm0 0H.02" class="fil1"/><path id="_297364936" d="M.008.013.014.01.02.013" class="fil2"/><path id="_297363256" d="m.008.016.006.002L.02.016" class="fil2"/><path id="_297364208" d="M.015.012H.013m0 0z" class="fil1"/><path id="_297362080" d="m.002.014.012.01.012-.01L.014.005z" class="fil2" style="stroke:#ed3237;stroke-width:.000390884"/><circle id="_681072696" cx=".014" cy=".014" r=".014" class="fil2" style="stroke:#000;stroke-width:.000390884"/></g></g></svg>