<svg xmlns="http://www.w3.org/2000/svg" xml:space="preserve" width="48.944" height="48.944" style="shape-rendering:geometricPrecision;text-rendering:geometricPrecision;image-rendering:optimizeQuality;fill-rule:evenodd;clip-rule:evenodd" viewBox="0 0 0.029 0.029"><circle cx=".014" cy=".014" r=".014" style="stroke:#000;stroke-width:.000556953;fill:#e96b21"/><path d="M.022.009H.02zL.018.012H.02zm0-.002H.019L.016.01V.007H.015v.004V.01L.02.008.02.006zM.02.009H.019v.002H.017zm-.001 0H.017L.015.011h.001zM.022.01.02.013.018.013v.001L.016.015v.002L.019.012.022.012zm0 .004H.02v.002-.002h.001v.001L.02.016zM.016.009H.014V.01zH.013V.01L.013.012.015.01v.001h.001zM.02.014H.018L.018.016H.02V.015zm.003.002zL.021.019H.02L.02.02h.001L.022.018zM.013.009.011.011h.001-.001.001zm.004.005H.015L.014.017h.001zM.01.008H.008zm.01.01L.019.02zM.01.005H.006V.01L.008.006zM.008.008V.006L.007.009zV.01zm.01.01L.016.02h.001zm.004.004H.021L.02.023h.001zM.014.007H.012V.01L.01.013V.01L.011.009V.007L.01.007V.01L.007.016h.001L.01.01v.004L.007.018.01.015.013.008zm.004.01H.016L.016.02zM.02.021.02.023zM.014.013.012.014V.013v.001H.012L.01.016.013.015v.001-.001zm.003 0H.015L.014.015V.013h.001L.01.02v.001L.013.015h.001L.012.02v.001zm0 .004H.015v.001L.015.02V.019h.001zM.012.014H.01L.008.016H.01V.015zm.007.008L.016.023h.001zM.015.018H.013V.02H.012V.02h.001zm.002.004L.016.023h.001zM.02.016.017.018Q.018.02.016.02v.002H.014L.014.025H.01V.02H.008v.002l.002.001h.004V.022L.017.022V.02L.019.018zm-.007 0v.001H.01v.001H.01V.02L.012.018zm.003.006L.012.023h.001zM.01.018.008.02V.02zm.003.004v.001zM.01.018H.007V.02m.003.004v.001zm0 0H.01L.01.023zM.017.009v.002H.016zM.02.014H.018M.013.009V.01M.011.007V.01zm.01.011V.02zm-.002 0V.02H.017zM.012.014H.01m.007.008H.017M.014.02V.02M.011.018V.02m-.003 0V.02M.01.023" style="fill:#000;fill-rule:nonzero"/></svg>