<svg xmlns="http://www.w3.org/2000/svg" xml:space="preserve" width="48.665" height="48.665" style="shape-rendering:geometricPrecision;text-rendering:geometricPrecision;image-rendering:optimizeQuality;fill-rule:evenodd;clip-rule:evenodd" viewBox="0 0 0.029 0.029"><defs><style>.fil2{fill:#fefefe;fill-rule:nonzero}</style></defs><g id="Layer_x0020_1"><g id="RWO_x0020_logo"><circle id="_297315096" cx=".014" cy=".014" r=".014" style="stroke:#000;stroke-width:.000389986;fill:#fff"/><path id="Clover" d="M.014.012.01.01.007.007q0-.002.002-.002H.01V.004h.003l.001.002zV.01L.019.006h.003v.002l.001.001.002.002-.002.002H.015h.002L.02.017l.001.002V.02H.017L.014.022H.014V.014L.012.019.012.021.01.025H.007V.023L.01.02.012.018.013.015.01.019.009.019H.007V.016L.006.015.005.013.006.012h.007" style="fill:#117949"/><path id="R" d="M.01.015zV.014h.002V.011L.008.014H.007v.003h.001L.011.016h.001V.014H.01zm0 0L.007.017V.015z" class="fil2"/><path id="W" d="M.012.01.01.006H.008.01L.011.01zV.006l.001.002h.001V.004H.012h.001v.003L.013.006H.01z" class="fil2"/><path id="__x0026_" d="M.02.011h.002zV.007H.016V.01l.001.001v.002H.02zm-.001 0H.018V.009H.02zm0-.002H.02a.001.001 0 0 1 0 .002zm0 0L.02.007" class="fil2"/><path id="O" d="M.014.018.015.02h.002L.019.019V.015H.016L.015.016zm.001 0V.015h.002l.001.002V.02H.015z" class="fil2"/></g></g></svg>