<svg xmlns="http://www.w3.org/2000/svg" xml:space="preserve" width="48.667" height="48.667" style="shape-rendering:geometricPrecision;text-rendering:geometricPrecision;image-rendering:optimizeQuality;fill-rule:evenodd;clip-rule:evenodd" viewBox="0 0 0.029 0.029"><defs><style>.fil5{fill:none}.fil2{fill:#000}.fil4{fill:#848688;fill-rule:nonzero}</style></defs><g id="Mine"><g id="_824957624"><path id="_297336712" d="M.013.018V.016zM.015.016v.002z" style="fill:#847059;fill-rule:nonzero"/><path d="M.015.007h.003Q.02.008.02.01v.004-.001h.002v.001h.001V.011h.001v.003H.017L.014.017.01.015H.006h.002V.008L.009.007z" style="fill:#847059"/><path d="M.012.008H.009v.004h.002z" class="fil2"/><path d="M.013.008v.008zm.003 0H.013zm0 .008V.008z" style="fill:#000;fill-rule:nonzero"/><g id="Rear_x0020_wheel"><path d="M.004.016h.001v.002h.001V.02h.002V.02H.005V.018H.004V.016M.008.012v.001H.006L.005.015v.001L.004.017V.013h.001V.012zm.004.004V.014H.01V.013H.01L.008.012h.002v.001h.001zM.008.02H.01V.018h.001V.016h.001V.02H.01V.02H.008" class="fil4"/><path d="M.008.017V.016z" class="fil2"/><path id="1" d="M.008.016v.001m.001.001" class="fil4"/><path d="M.009.013v.003zM.007.013l.001.003zM.006.014l.002.002zM.005.015l.003.001zM.005.017h.003zM.005.018.008.017zM.006.02.008.016zM.008.02V.017zM.01.02.007.017zM.01.02.01.016zM.012.018.009.017zM.012.017H.01zM.012.015.009.016zM.011.014.01.016zM.01.013.009.016zM.009.013v.003z" class="fil4"/></g><path d="M.013.008h.002v.004H.013zM.017.008h.002v.004H.017z" class="fil2"/><g id="Front_x0020_wheel"><path d="M.017.017v.001h.001V.02H.02V.02H.017V.017zM.02.014H.018v.001H.017v.001H.016V.014h.001V.013H.02m.004.003L.022.015V.014H.02V.013h.002v.002M.02.02h.002V.018h.001V.016.02H.021V.02z" class="fil4"/><path d="M.02.018V.016z" class="fil2"/><path d="M.02.014v.002zM.02.014v.002L.019.014zM.018.015.02.016zM.017.016H.02zM.017.017H.02zM.018.018H.02zM.018.02.02.016zM.02.02V.018zM.02.02V.018L.022.02zM.022.02.021.018zM.023.019.021.017zM.024.017H.02zM.023.016H.021zM.023.015.02.017zM.022.014.02.016zM.02.014v.002z" class="fil4"/></g><circle cx=".014" cy=".014" r=".014" class="fil5"/><circle cx=".014" cy=".014" r=".014" class="fil5" style="stroke:#000;stroke-width:.000390884"/></g></g></svg>