<svg xmlns="http://www.w3.org/2000/svg" width="192" height="192" viewBox="0 0 50.8 50.8"><g fill-rule="evenodd" transform="matrix(3.90756 0 0 3.9077 -683.159 -50.441)"><circle cx="181.33" cy="19.408" r="6.5" fill="#d81e3e"/><circle cx="181.33" cy="19.408" r="3.701" fill="#fff"/></g><path fill="#d81e3e" d="M26.118 13.305a7.971 7.972 0 0 0-2.22.332c-.39.114-.383.157.079.528.312.25.52.715.547 1.223.039.782-.028.852-1.517 1.583-1.692.824-4.446 1.453-7.014 1.586-.89.047-1.672.133-1.73.192s.527.73 1.3 1.492l1.415 1.388 2.079-.645c1.145-.352 2.145-.578 2.223-.5.211.207.368 4.287.192 4.982-.094.371-.32.606-.59.606-.243 0-.782.117-1.196.258-.621.215-.754.39-.754.977v.715l2.813-.086c2.15-.063 2.814-.012 2.794.21l-.058 2.197-.04 1.899h-7.666v2.997l2.215-.324c3.267-.48 11.016-.489 12.442-.016 1.032.344 1.192.336 2.04-.039.89-.394 2.473-1.922 2.473-2.387 0-.141-1.828-.235-4.673-.235h-4.674v-2.11c0-1.465.094-2.141.301-2.22.164-.062 1.266-.132 2.45-.156l2.24-.137c.05-.05-.008-.39-.13-.758l-.226-.664-3.693-.121c-3.071-.102-3.696-.18-3.696-.477 0-.453 1.395-.672 4.493-.696 1.286-.007 2.337-.074 2.337-.144s-.164-.45-.367-.832l-.364-.704h-3.231c-2.58 0-3.228-.062-3.228-.324 0-.625.614-.805 2.876-.836 2.814-.04 4.314-.235 4.314-.567 0-.137.242-.035.54.234.492.442.648.462 1.863.211 1.466-.297 2.59-.984 3.349-2.04l.5-.695-.547-.11-2.337-.39c-3.227-.52-6.799-1.954-7.084-2.845a3.8 3.8 0 0 1 0-1.407c.137-.8.09-.938-.363-1.082a1.9 1.9 0 0 0-.477-.063m-.594 4.604c.215.02.496.156 1.04.437 2.281 1.157 2.274 1.212-.122 1.516l-3.45.274-1.301-.004 1.316-.742 1.876-1.18c.274-.212.426-.317.64-.301m2.93 11.011c-.156 0-.656 1-.656 1.321 0 .055.352.25.782.438 1.023.445 1.965.461 2.32.039.235-.285.063-.469-.988-1.07a9.3 9.3 0 0 0-1.461-.728zm-5.794.305c-.258.016-.672.145-1.47.407a27.529 27.53 0 0 0-1.73.598c-.04.03 0 .343.09.699.183.72.343.711 2.629-.137 1.407-.52 1.473-.605.985-1.266-.153-.21-.25-.312-.508-.3z"/></svg>