<svg xmlns="http://www.w3.org/2000/svg" id="Layer_2" data-name="Layer 2" viewBox="0 0 33.1 33.1"><defs><clipPath id="clippath"><path d="M2.48.25h28.15V28.4H2.48z" class="cls-2"/></clipPath><clipPath id="clippath-1"><path d="M2.48.25h28.15V28.4H2.48z" class="cls-2"/></clipPath><style>.cls-2{stroke-width:0;fill:none}</style></defs><g id="Tokens"><g id="Bombay"><circle cx="16.55" cy="16.55" r="16.3" style="fill:#6653a3;stroke-width:0"/><g style="clip-path:url(#clippath)"><g style="clip-path:url(#clippath-1)"><path d="M23.59 9.74c-.27-1.86-.95-3.11-1.69-3.93-.39-.51-.85-1.08-1.17-1.4-.06.57-.24 1.2-.54 1.87-.21.47-.41.8-.58 1.09-.02.03-.03.05-.05.08 0 .39.01.77.02 1.17.05 2.15.11 4.56-1 8.62 1.82-1.54 5.39-4.94 5.01-7.51m-2.88-.92h1.15c.29 0 .52.24.52.54h-2.2c0-.3.23-.54.52-.54m1.47 2.39h-1.98v-.54h1.98zm.42-.92h-2.4v-.54h2.4zm1.23 10.82c-1.48-.25-3.72-.49-6.1-.6a1 1 0 0 1-.07-.44c.06-.81.29-1.67.58-2.52 1.2-4.25 1.14-6.72 1.09-8.91 0-.24-.01-.48-.02-.71-.09.19-.15.38-.18.62-.04.27-.02.52 0 .76.03.47.06.91-.28 1.45-.26.41-.63.55-.89.6 0 .14-.03.68.03 1 .12.57.34.87.29.82-.1-.09-.33-.36-.45-.48-.07-.06.25.73.24.71-.14-.14-.42-.52-.49-.71-.16-.39-.19-1.22-.2-1.37-.27-.06-.67-.21-.93-.6-.39-.57-.35-.99-.32-1.43.02-.23.04-.47-.01-.75-.04-.24-.11-.43-.21-.6.07 1.88.04 3.42-.11 4.85-.2 1.83-.59 3.49-1.21 5.05-.33.98-.65 1.94-.83 2.59-2.17.05-4.16.26-5.48.7-4.83 1.64-2.25 5.76 2.95 5.76 1.13 0 4.23.07 5.85.1.21 0 1.56.05 1.36-.03-1.33-.52-3.18-1.48-4.27-3.13-.07-.1-2.26-.03-3.39-.04-1.15 0-1.33-.74-.52-.74 1.01 0 2.28-.01 3.65-.03 1.06 2.53 4.55 3.79 4.91 3.92.02 0 .04.01.06.01h5.59c1.07 0 3.59-1.05 3.59-3.25 0-1.57-2.27-2.28-4.23-2.61m-1.19 2.46c-.47-.1-1.07-.3-1.68-.57.88 0 1.58.07 2.26.08.18 0 .91.06.9.28-.03.39-.9.32-1.47.21M15.62 7.62s0-.04.01-.06c-.02-.03-.05-.06-.07-.09a10 10 0 0 1-.69-1.02c-.55-.95-.51-1.78-.48-2.21-.06.05-.12.1-.18.14-.18.13-.38.32-.59.56-1.26 1.23-2.83 3.24-2.83 5.15 0 2.82 2.71 6.05 3.73 7.15 1.2-3.35 1.23-6.73 1.1-9.62m-.73 3.61h-1.98v-.54h1.98zm0-.92h-2.4v-.54h2.4zm-1.98-.98c0-.3.23-.54.52-.54h.94c.29 0 .52.24.52.54zm4.38-6.46c-1.31 0-2.07.67-2.67 1.18 0 .04 0 .09-.01.15-.04.42-.1 1.2.44 2.14.26.45.49.75.67 1 .29.38.5.66.59 1.18.05.3.03.56.01.8-.03.42-.06.78.28 1.29.37.54 1.07.55 1.08.55.03 0 .63.02.98-.53.3-.48.28-.87.25-1.32a4.3 4.3 0 0 1 0-.8c.05-.41.2-.71.38-1.03l.16-.28c.16-.27.34-.58.53-1.01.32-.71.5-1.37.53-1.95-.9-.74-1.78-1.36-3.24-1.36m-.73 3.95h-.02c-.06 0-.11-.04-.12-.09 0 0 0-.05-.03-.13-.05.04-.12.07-.2.07-.16 0-.29-.12-.29-.26s.13-.26.29-.26h.05c-.1-.22-.24-.44-.45-.56-.06-.03-.07-.1-.04-.15s.1-.07.16-.04c.58.32.73 1.25.74 1.29 0 .06-.03.11-.1.12m2.73-1.22c-.19.12-.32.34-.4.56h.04c.14 0 .26.12.26.26s-.12.26-.26.26c-.07 0-.13-.03-.18-.07-.02.08-.03.13-.03.13 0 .05-.05.09-.1.09h-.02c-.06 0-.1-.06-.09-.12 0-.04.15-.97.66-1.29.05-.03.11-.01.14.04s.01.12-.04.15" style="stroke-width:0;fill:#fff"/></g></g></g></g><circle id="Dire_line" cx="16.55" cy="16.55" r="16.3" data-name="Dire line" style="fill:none;stroke:#231f20;stroke-miterlimit:10;stroke-width:.5px"/></svg>