<svg xmlns="http://www.w3.org/2000/svg" id="Layer_2" data-name="Layer 2" viewBox="0 0 33.1 33.1"><defs><clipPath id="clippath"><path d="M1.6.2h28.1v28.1H1.6z" class="cls-2"/></clipPath><clipPath id="clippath-1"><path d="M1.6.2h28.1v28.1H1.6z" class="cls-2"/></clipPath><style>.cls-2{stroke-width:0;fill:none}</style></defs><circle cx="16.5" cy="16.5" r="16.3" style="stroke-width:0;fill:#fff"/><g id="Tokens"><g id="Bombay" style="clip-path:url(#clippath)"><g style="clip-path:url(#clippath-1)"><path d="M22.8 9.7c-.3-1.9-1-3.1-1.7-3.9-.4-.5-.9-1.1-1.2-1.4 0 .6-.2 1.2-.5 1.9-.2.5-.4.8-.6 1.1v1.2c0 2.1.1 4.6-1 8.6 1.8-1.5 5.4-4.9 5-7.5m-2.9-.9H21c.3 0 .5.2.5.5h-2.2c0-.3.2-.5.5-.5m1.5 2.4h-2v-.5h2zm.5-.9h-2.4v-.5h2.4zM23 21.1c-1.5-.2-3.7-.5-6.1-.6v-.4c0-.8.3-1.7.6-2.5 1.2-4.2 1.1-6.7 1.1-8.9V8c0 .2-.1.4-.2.6v.8c0 .5 0 .9-.3 1.4q-.45.6-.9.6v1c.1.6.3.9.3.8-.1 0-.3-.4-.5-.5l.2.7c-.1-.1-.4-.5-.5-.7-.2-.4-.2-1.2-.2-1.4-.3 0-.7-.2-.9-.6-.4-.6-.4-1-.3-1.4v-.8c0-.2-.1-.4-.2-.6 0 1.9 0 3.4-.1 4.8q-.3 2.7-1.2 5.1c-.3 1-.6 1.9-.8 2.6-2.2 0-4.2.3-5.5.7-4.8 1.6-2.2 5.8 3 5.8s4.2 0 5.9.1h1.4c-1.3-.5-3.2-1.5-4.3-3.1 0-.1-2.3 0-3.4 0s-1.3-.7-.5-.7h3.6c1.1 2.5 4.6 3.8 4.9 3.9h5.6c1.1 0 3.6-1 3.6-3.2s-2.3-2.3-4.2-2.6m-1.3 2.2c-.5-.1-1.1-.3-1.7-.6h2.3c.2 0 .9 0 .9.3 0 .4-.9.3-1.5.2m-7-15.8c-.2-.2-.4-.6-.7-1-.6-.9-.5-1.8-.5-2.2 0 0-.1 0-.2.1q-.3.15-.6.6C11.5 6.3 10 8.3 10 10.3c0 2.8 2.7 6 3.7 7.1 1.2-3.4 1.2-6.7 1.1-9.6m-.7 3.4h-2v-.5h2zm0-.9h-2.4v-.5h2.4zm-2-1c0-.3.2-.5.5-.5h.9c.3 0 .5.2.5.5h-2Zm4.4-6.4c-1.3 0-2.1.7-2.7 1.2v.2c0 .4-.1 1.2.4 2.1.3.4.5.8.7 1 .3.4.5.7.6 1.2v.8c0 .4 0 .8.3 1.3.4.5 1.1.6 1.1.6s.6 0 1-.5c.3-.5.3-.9.2-1.3v-.8c0-.4.2-.7.4-1l.2-.3c.2-.3.3-.6.5-1 .3-.7.5-1.4.5-1.9-.9-.7-1.8-1.4-3.2-1.4m-.8 3.7h-.1v-.1h-.2q-.3 0-.3-.3c0-.3.1-.3.3-.3-.1-.2-.2-.4-.4-.6v-.2c0-.2.1 0 .2 0 .6.3.7 1.2.7 1.3 0 0 0 .1-.1.1m2.6-1.1c-.2.1-.3.3-.4.6.1 0 .3.1.3.3s-.1.3-.3.3h-.2v.1h-.1s-.1 0 0-.1c0 0 .1-1 .7-1.3h.1v.2" style="fill:#6653a3;stroke-width:0"/></g></g></g></svg>