<svg xmlns="http://www.w3.org/2000/svg" id="Layer_2" data-name="Layer 2" viewBox="0 0 33.1 33.1"><defs><clipPath id="clippath"><path d="M2.56 1.83h29.45v29.45H2.56z" class="cls-2"/></clipPath><clipPath id="clippath-1"><path d="M2.56 1.83h29.45v29.45H2.56z" class="cls-2"/></clipPath><style>.cls-2{stroke-width:0;fill:none}</style></defs><g id="Tokens"><g id="Darjeeling"><circle cx="16.55" cy="16.55" r="16.3" style="fill:#158c4f;stroke-width:0"/><g style="clip-path:url(#clippath)"><g style="clip-path:url(#clippath-1)"><path d="m29.89 20.17-4.77-9.48-2.48 4.37-4.43-9.97-5.3 10.55-2.82-5.86-6.53 11.99 6.25.03-.96 1.91 17.69.1-1.63-3.68 4.99.02Zm-4.78-9.21.47.97s-.62-.29-1.09.19c-.03.03.62-1.15.62-1.15m-14.3.84c-.79.13-1.49 1.9-2.2 1.04-.04-.05 1.42-2.66 1.42-2.66s.87 1.6.78 1.61m8.53-3.44c-1.31-.56-1.35.92-3.17 1.39-.08.02 2.04-4.11 2.04-4.11s1.23 2.76 1.13 2.72" style="stroke-width:0;fill:#fff"/></g></g></g></g><circle id="Dire_line" cx="16.55" cy="16.55" r="16.3" data-name="Dire line" style="fill:none;stroke:#231f20;stroke-miterlimit:10;stroke-width:.5px"/></svg>