<svg xmlns="http://www.w3.org/2000/svg" id="Layer_2" data-name="Layer 2" viewBox="0 0 33.1 33.1"><defs><clipPath id="clippath"><path d="M2.2 1.8h29.5v29.5H2.2z" class="cls-1"/></clipPath><clipPath id="clippath-1"><path d="M2.2 1.8h29.5v29.5H2.2z" class="cls-1"/></clipPath><style>.cls-1{fill:none;stroke-width:0}</style></defs><circle id="Dire_line" cx="16.5" cy="16.5" r="16.3" data-name="Dire line" style="stroke-width:0;fill:#fff"/><g id="Tokens"><g id="Darjeeling" style="clip-path:url(#clippath)"><g style="clip-path:url(#clippath-1)"><path d="m29.5 20.2-4.8-9.5-2.5 4.4-4.4-10-5.3 10.6-2.8-5.9-6.5 12h6.3l-1 1.9h17.7c0 .1-1.6-3.6-1.6-3.6h5ZM24.7 11l.5 1s-.6-.3-1.1.2l.6-1.1m-14.3.7c-.8.1-1.5 1.9-2.2 1l1.4-2.7s.9 1.6.8 1.6M19 8.4c-1.3-.6-1.4.9-3.2 1.4l2-4.1s1.2 2.8 1.1 2.7" style="stroke-width:0;fill:#188c4c"/></g></g></g></svg>