<svg xmlns="http://www.w3.org/2000/svg" id="Layer_2" data-name="Layer 2" viewBox="0 0 33.1 33.1"><defs><clipPath id="clippath"><path d="M2.2 0h29.3v29.3H2.2z" class="cls-1"/></clipPath><clipPath id="clippath-1"><path d="M2.2 0h29.3v29.3H2.2z" class="cls-1"/></clipPath><style>.cls-1,.cls-2{fill:none;stroke-width:0}.cls-2{fill:#78848f}</style></defs><circle id="Dire_line" cx="16.5" cy="16.5" r="16.3" data-name="Dire line" style="stroke-width:0;fill:#fff"/><g id="Tokens"><g id="Eastern_Bengal" data-name="Eastern Bengal" style="clip-path:url(#clippath)"><g style="clip-path:url(#clippath-1)"><path d="M21.4 19.9v8.4H11.2v-8.4c0-2.1 1.7-2.7 1.7-2.7S10.7 16 10.7 13c0-4.5 5.6-7 5.6-7s5.5 2.4 5.5 7-2.2 4.2-2.2 4.2 1.7.7 1.7 2.7" class="cls-2"/><path d="M23.5 17.8c.3.7.5 1.5.5 2.4v9.2h-1.6v-9.2c0-1.3-.6-2.2-1.1-2.7-.1-.1-.3-.2-.4-.3l.7-.7c.6-.7 1.3-2 1.3-3.8s-.3-2.4-1-3.5c-.5-.9-1.3-1.7-2.2-2.5-1.5-1.3-3.1-2-3.1-2h-.4s-1.6.7-3.1 2c-.9.8-1.7 1.6-2.2 2.5-.7 1.1-1 2.3-1 3.5 0 1.8.7 3.1 1.3 3.8.2.3.5.5.7.7-.1.1-.3.2-.4.3-.5.5-1.1 1.4-1.1 2.7v9.2H8.8v-9.2c0-.8.2-1.6.5-2.4.1-.2.3-.5.4-.7-.7-1-1.4-2.4-1.4-4.5s.4-3 1.2-4.4c.6-1 1.5-2 2.5-2.9 1.7-1.4 3.4-2.2 3.5-2.3l.7-.3h.2l.7.3c.2 0 1.8.8 3.5 2.3 1 .9 1.9 1.9 2.5 2.9.8 1.4 1.2 2.8 1.2 4.4s-.7 3.5-1.4 4.5c.2.2.3.5.4.7" class="cls-2"/></g></g></g></svg>