<svg xmlns="http://www.w3.org/2000/svg" id="Layer_2" data-name="Layer 2" viewBox="0 0 33.1 33.1"><defs><clipPath id="clippath"><path d="M2.37 2.37h28.36v28.36H2.37z" class="cls-2"/></clipPath><clipPath id="clippath-1"><path d="M2.37 2.37h28.36v28.36H2.37z" class="cls-2"/></clipPath><style>.cls-2,.cls-3{stroke-width:0}.cls-2{fill:none}.cls-3{fill:#fff}</style></defs><g id="Tokens"><g id="East_India" data-name="East India"><circle cx="16.55" cy="16.55" r="16.3" style="fill:#f26322;stroke-width:0"/><g style="clip-path:url(#clippath)"><g style="clip-path:url(#clippath-1)"><path d="M14.09 14.55a.54.54 0 0 0-.3-.15c-.69.62-2.05 1.07-3.74 1.23-1.76.17-4.18-.26-5.79-.71s-.04 0-.05-.01c-.2-.08-.35.05-.09.18l.22.1c2.73 1.32 7.18 2.02 8.33 1.51.07-.04 1.42-.76 1.64-1.6a.7.7 0 0 0-.21-.56m-3.6.83h.07z" class="cls-3"/><path d="M28.54 13.92c-3.22-2.23-5.32-1.73-6.42-1.13-.58.3-.89.63-.89.63-.04.04-.16.07-.2.03s-.04-.16 0-.2c.03-.03.7-.79 2-1.09.36-.08.71-.13 1.09-.13-.12-.12-.17-.18-.19-.28-.29-.96-1.54-1.78-2.13-1.85-1.36-.18-3.23.47-4.18.47-.9 0-2.79-.17-4.64 1.12-.2.09-2.4 1.25-3.37-.31s.93-2.8.93-2.8 1.71-1.06 4.05-.16 3.52 1.43 4.95.41c.22-.16.52-.59.37-1.28-.15-.32-.53-.03-.53-.03s-.25-.34-.56-.06c-.03.16.07 1.14-1.34.69-1.46-.53-4.91-3.35-8.69-.97-3.3 2.08-1.81 5.86-.46 7.15-1.01 0-2.08-.14-3.06-.44-.67-.21-.3.18 0 .31 1.61.83 3.75 1.33 5.2 1.37h.07c.54-.08 1.03-.18 1.48-.32.7-.21 1.25-.48 1.61-.8.03-.04.09-.07.23-.04.23.06.65.33.61.91s0 .02 0 .02c-.16.64-.86 1.19-1.33 1.5-.53.71-1.12 1.67-1.03 2.36 0 0 .39-.47 1.25 0 .28.16.81 0 .81 0-.31.84.55 1.09.9 1-.16 1.94 1.66 1.32 2.18 2.18.35.36-.29 4.04-.03 3.89.3-.17 1.76-.3 3.07-.3-.32-.59-.54-1.23-.77-1.93-.46-1.4-.69-3.02-.74-4.79 0-.05.07-.16.12-.16.06 0 .16.1.16.15.04 1.48.23 2.74.49 3.8 0 .02 0 .04.02.06 1.1 4.35 3.49 5.53 3.52 5.55-.02-.02-1.09-1.45.6-3.65 0 0 1.61-1.98 3.28-2.91 2.14-.96 5.6-4.29 1.55-7.98m-10.1-1.11c-.17-.04-.33-.3-.83-.25 0 0 .22-.26.49-.41-.02.05-.03.11-.03.17.01.19.17.34.35.35.21 0 .39-.16.39-.37q0-.075-.03-.15c.26.15.43.41.49.56-.11.11-.66.14-.83.1m3.87 13.28s0-.02.02-.07c0 .02 0 .05-.02.07" class="cls-3"/></g></g></g></g><circle id="Dire_line" cx="16.55" cy="16.55" r="16.3" data-name="Dire line" style="fill:none;stroke:#231f20;stroke-miterlimit:10;stroke-width:.5px"/></svg>