<svg xmlns="http://www.w3.org/2000/svg" id="Layer_2" data-name="Layer 2" viewBox="0 0 33.1 33.1"><defs><clipPath id="clippath"><path d="M1.2 2.4h28.4v28.4H1.2z" class="cls-1"/></clipPath><clipPath id="clippath-1"><path d="M1.2 2.4h28.4v28.4H1.2z" class="cls-1"/></clipPath><style>.cls-1,.cls-3{fill:none;stroke-width:0}.cls-3{fill:#f1582a}</style></defs><circle id="Dire_line" cx="16.5" cy="16.5" r="16.3" data-name="Dire line" style="stroke-width:0;fill:#fff"/><g id="Tokens"><g id="East_India" data-name="East India" style="clip-path:url(#clippath)"><g style="clip-path:url(#clippath-1)"><path d="M13 14.6c-.1-.1-.2-.1-.3-.1-.7.6-2.1 1.1-3.7 1.2-1.8.2-4.2-.3-5.8-.7-.2 0-.3 0 0 .2h.2c2.7 1.4 7.2 2.1 8.3 1.6 0 0 1.4-.8 1.6-1.6 0-.3-.1-.5-.2-.6m-3.7.8" class="cls-3"/><path d="M27.4 13.9c-3.2-2.2-5.3-1.7-6.4-1.1-.6.3-.9.6-.9.6h-.2v-.2s.7-.8 2-1.1c.4 0 .7-.1 1.1-.1-.1-.1-.2-.2-.2-.3-.3-1-1.5-1.8-2.1-1.9-1.4-.2-3.2.5-4.2.5s-2.8-.2-4.6 1.1c-.2 0-2.4 1.2-3.4-.3s.9-2.8.9-2.8 1.7-1.1 4.1-.2c2.3.9 3.5 1.4 5 .4.2-.2.5-.6.4-1.3-.1-.3-.5 0-.5 0s-.2-.3-.6 0c0 .2 0 1.1-1.3.7-1.5-.5-4.9-3.3-8.7-1C4.5 9 6 12.8 7.3 14c-1 0-2.1-.1-3.1-.4-.7-.2-.3.2 0 .3 1.6.8 3.8 1.3 5.2 1.4.5 0 1-.2 1.5-.3.7-.2 1.2-.5 1.6-.8h.2c.2 0 .6.3.6.9-.2.7-.9 1.2-1.3 1.5-.5.7-1.1 1.7-1 2.4 0 0 .4-.5 1.2 0 .3.2.8 0 .8 0-.3.8.6 1.1.9 1-.2 1.9 1.7 1.3 2.2 2.2.4.4-.3 4 0 3.9.3-.2 1.8-.3 3.1-.3-.3-.6-.5-1.2-.8-1.9-.5-1.4-.7-3-.7-4.8 0 0 0-.2.1-.2s.2.1.2.1c0 1.5.2 2.7.5 3.8 1.1 4.4 3.5 5.5 3.5 5.5s-1.1-1.5.6-3.6c0 0 1.6-2 3.3-2.9 2.1-1 5.6-4.3 1.5-8m-10.1-1c-.2 0-.3-.3-.8-.2 0 0 .2-.3.5-.4v.2c0 .2.2.3.4.4.2 0 .4-.2.4-.4v-.1c.3.1.4.4.5.6-.1.1-.7.1-.8.1m3.6 13.1" class="cls-3"/></g></g></g></svg>