<svg xmlns="http://www.w3.org/2000/svg" id="Layer_2" data-name="Layer 2" viewBox="0 0 33.1 33.1"><defs><clipPath id="clippath"><path d="M3.1 3.1h26.8v26.8H3.1z" class="cls-2"/></clipPath><clipPath id="clippath-1"><path d="M3.1 3.1h26.8v26.8H3.1z" class="cls-2"/></clipPath><style>.cls-2,.cls-3{stroke-width:0}.cls-2{fill:none}.cls-3{fill:#fff}</style></defs><g id="Tokens"><circle id="Kolar" cx="16.5" cy="16.5" r="16.3" style="fill:#a7a9ac;stroke-width:0"/><g id="GIPR" style="clip-path:url(#clippath)"><g style="clip-path:url(#clippath-1)"><path d="M16.5 3.9c-7 0-12.6 5.7-12.6 12.6s5.7 12.6 12.6 12.6 12.6-5.7 12.6-12.6S23.5 3.9 16.5 3.9M23.7 25c-.2-.2-.5-.3-.8 0s-.3.5-.1.8l-1.5.9c-.1-.3-.4-.4-.7-.3s-.4.4-.3.7c-.6.2-1.1.4-1.7.5 0-.3-.3-.5-.6-.5s-.5.3-.5.6h-1.8c0-.3-.2-.6-.5-.6s-.6.2-.6.5c-.6-.1-1.2-.3-1.7-.5.1-.3 0-.6-.3-.7s-.6 0-.7.3c-.5-.3-1.1-.6-1.6-.9.2-.2.1-.6-.1-.8s-.6-.1-.8 0c-.4-.4-.9-.8-1.3-1.3.2-.2.3-.5 0-.8s-.5-.3-.8-.1l-.9-1.5c.3-.1.4-.4.3-.7s-.4-.4-.7-.3c-.2-.6-.3-1.1-.5-1.7.3 0 .5-.3.5-.6s-.3-.5-.6-.5v-1.8c.3 0 .6-.2.6-.5s-.2-.6-.5-.6c.1-.6.3-1.2.5-1.7.3.1.6 0 .7-.3s0-.6-.3-.7c.3-.5.6-1.1.9-1.6.2.2.6.1.8-.1s.1-.6 0-.8c.4-.4.8-.9 1.3-1.3.2.2.5.3.8 0 .2-.2.3-.5.1-.8.5-.3 1-.6 1.6-.9.1.3.4.4.7.3s.4-.4.3-.7c.6-.2 1.1-.3 1.7-.5 0 .3.3.5.6.5s.5-.3.5-.6h1.8c0 .3.2.6.5.6s.6-.2.6-.5c.6.1 1.2.3 1.7.5-.1.3 0 .6.3.7s.6 0 .7-.3c.5.3 1.1.6 1.5.9-.2.2-.1.6.1.8s.6.1.8 0c.5.4.9.8 1.3 1.3-.2.2-.3.5 0 .8.2.2.5.3.8.1.3.5.6 1 .9 1.6-.3.1-.4.4-.3.7s.4.4.7.3c.2.6.4 1.1.5 1.7-.3 0-.5.3-.5.6s.3.5.6.5v1.8c-.3 0-.6.2-.6.5s.2.6.5.6c-.1.6-.3 1.2-.5 1.7-.3-.1-.6 0-.7.3s0 .6.3.7c-.3.5-.6 1.1-.9 1.5-.2-.2-.6-.1-.8.1s-.1.6 0 .8c-.4.5-.8.9-1.3 1.3" class="cls-3"/><path d="M16.7 18.8h.4l.3 2.2 2.1 6.3-1.4-6.5-.8-2.1c.1 0 .2 0 .3-.1l.9 2 3.6 5.6-3-5.9-1.3-1.8c.1 0 .2-.1.3-.2l1.4 1.8 5 4.4-4.4-5-1.8-1.4s.1-.2.2-.3l1.8 1.3 5.9 3-5.6-3.6-2-.9c0-.1.1-.2.1-.3l2.1.8 6.5 1.4-6.3-2.1-2.2-.3v-.4l2.2.3 6.6-.4-6.6-.4-2.2.3v-.4l2.2-.3 6.3-2.1-6.5 1.4-2.1.8c0-.1 0-.2-.1-.3l2-.9 5.6-3.7-5.9 3-1.8 1.3c0-.1-.1-.2-.2-.3l1.8-1.4 4.4-5-5 4.4-1.4 1.8s-.2-.1-.3-.2l1.3-1.8 3-5.9-3.6 5.6-.9 2.1c-.1 0-.2-.1-.3-.1l.8-2.1 1.4-6.5-2.1 6.3-.3 2.2h-.4l.3-2.2-.4-6.6-.4 6.6.3 2.2h-.4l-.3-2.2-2.1-6.3 1.4 6.5.8 2.1c-.1 0-.2 0-.3.1l-.9-2.1L11 6.9l3 5.9 1.3 1.8c-.1 0-.2.1-.3.2L13.6 13l-5-4.4 4.4 5 1.8 1.4s-.1.2-.2.3L12.8 14l-5.9-3 5.6 3.6 2.1.9c0 .1-.1.2-.1.3l-2.1-.8-6.5-1.4 6.3 2.1 2.2.3v.4l-2.2-.3-6.6.4 6.6.4 2.2-.3v.4l-2.2.3-6.3 2.1 6.5-1.4 2.1-.8c0 .1 0 .2.1.3l-2.1.9L6.9 22l5.9-3 1.8-1.3c0 .1.1.2.2.3L13 19.4l-4.4 5 5-4.4 1.4-1.8s.2.1.3.2L14 20.2l-3 5.9 3.6-5.6.9-2c.1 0 .2.1.3.1l-.8 2.1-1.4 6.5 2.1-6.3.3-2.2h.4l-.3 2.2.4 6.6.4-6.6-.3-2.2Z" class="cls-3"/></g></g></g><circle id="Dire_line" cx="16.5" cy="16.5" r="16.3" class="cls-2" data-name="Dire line"/></svg>