<svg xmlns="http://www.w3.org/2000/svg" id="Layer_2" data-name="Layer 2" viewBox="0 0 33.1 33.1"><defs><clipPath id="clippath"><path d="M3.13 3.13h26.84v26.84H3.13z" class="cls-1"/></clipPath><clipPath id="clippath-1"><path d="M3.13 3.13h26.84v26.84H3.13z" class="cls-1"/></clipPath><style>.cls-1,.cls-3{stroke-width:0}.cls-1{fill:none}.cls-3{fill:#fff}</style></defs><g id="Tokens"><g id="GIPR"><circle cx="16.55" cy="16.55" r="16.3" style="stroke-width:0;fill:#010101"/><g style="clip-path:url(#clippath)"><g style="clip-path:url(#clippath-1)"><path d="M16.55 3.92c-6.98 0-12.64 5.66-12.64 12.64S9.57 29.2 16.55 29.2s12.64-5.66 12.64-12.64S23.53 3.92 16.55 3.92m7.17 21.07a.56.56 0 0 0-.77-.09c-.24.18-.29.52-.11.76-.49.34-1.01.64-1.55.9a.564.564 0 0 0-.72-.29c-.28.12-.41.43-.3.71a11 11 0 0 1-1.73.46.55.55 0 0 0-.62-.46c-.3.04-.51.31-.48.61-.29.02-.59.04-.89.04s-.6-.01-.89-.04c.03-.3-.18-.57-.48-.61s-.57.17-.62.46c-.59-.11-1.17-.26-1.73-.46.11-.28-.02-.6-.3-.71-.28-.12-.6.01-.72.29-.54-.26-1.06-.56-1.55-.9.18-.24.13-.58-.11-.76a.56.56 0 0 0-.77.09c-.45-.39-.88-.81-1.26-1.26.23-.19.27-.53.09-.77a.543.543 0 0 0-.76-.11c-.34-.49-.64-1.01-.9-1.55.27-.12.4-.44.29-.72a.55.55 0 0 0-.71-.3 11 11 0 0 1-.46-1.73c.3-.05.5-.32.46-.62a.557.557 0 0 0-.61-.48c-.02-.29-.04-.59-.04-.89s.01-.6.04-.89c.3.03.57-.18.61-.48s-.17-.57-.46-.62c.11-.59.26-1.17.46-1.73.28.11.6-.02.71-.3.12-.28-.01-.6-.29-.72.26-.54.56-1.06.9-1.55.24.18.58.13.76-.11s.14-.58-.09-.77c.39-.45.81-.88 1.26-1.26.19.23.53.27.77.09s.29-.52.11-.76c.49-.34 1.01-.64 1.55-.9.12.27.44.4.72.29.28-.12.41-.43.3-.71a11 11 0 0 1 1.73-.46c.05.3.32.5.62.46s.51-.31.48-.61c.29-.02.59-.04.89-.04s.6.01.89.04c-.03.3.18.57.48.61s.57-.17.62-.46c.59.11 1.17.26 1.73.46-.11.28.02.6.3.71.28.12.6-.01.72-.29.54.26 1.06.56 1.55.9-.18.24-.13.58.11.76s.58.14.77-.09c.45.39.88.81 1.26 1.26-.23.19-.27.53-.09.77s.52.29.76.11c.34.49.64 1.01.9 1.55-.27.12-.4.44-.29.72.12.28.43.41.71.3a11 11 0 0 1 .46 1.73c-.3.05-.5.32-.46.62s.31.51.61.48c.02.29.04.59.04.89s-.01.6-.04.89c-.3-.03-.57.18-.61.48s.17.57.46.62c-.11.59-.26 1.17-.46 1.73-.28-.11-.6.02-.71.3-.12.28.01.6.29.72-.26.54-.56 1.06-.9 1.55a.543.543 0 0 0-.76.11c-.18.24-.14.58.09.77-.39.45-.81.88-1.26 1.26" class="cls-3"/><path d="M16.67 18.77c.12 0 .24-.02.35-.05l.32 2.21 2.08 6.31-1.35-6.51-.83-2.07c.11-.04.22-.08.32-.13l.88 2.05 3.65 5.56-2.99-5.94-1.34-1.79c.1-.06.19-.14.28-.21l1.38 1.75 4.96 4.42-4.42-4.96-1.75-1.38c.08-.09.15-.18.21-.28l1.79 1.34 5.94 2.99-5.56-3.65-2.05-.88c.05-.1.1-.21.13-.32l2.07.83 6.51 1.35-6.31-2.08-2.21-.32c.02-.11.04-.23.05-.35l2.21.27 6.63-.38-6.63-.38-2.21.27c0-.12-.02-.24-.05-.35l2.21-.32 6.31-2.08-6.51 1.35-2.07.83c-.04-.11-.08-.22-.13-.32l2.05-.88 5.56-3.65-5.94 2.99-1.79 1.34c-.06-.1-.14-.19-.21-.28l1.75-1.38 4.42-4.96-4.96 4.42-1.38 1.75a2 2 0 0 0-.28-.21l1.34-1.79 2.99-5.94-3.65 5.56-.88 2.05c-.1-.05-.21-.1-.32-.13l.83-2.07 1.35-6.51-2.08 6.31-.32 2.21c-.11-.02-.23-.04-.35-.05l.27-2.21-.38-6.63-.38 6.63.27 2.21c-.12 0-.24.02-.35.05l-.32-2.21-2.08-6.31 1.35 6.51.83 2.07c-.11.04-.22.08-.32.13l-.88-2.05-3.65-5.56 2.99 5.94 1.34 1.79c-.1.06-.19.14-.28.21l-1.38-1.75-4.96-4.42 4.42 4.96 1.75 1.38c-.08.09-.15.18-.21.28l-1.79-1.34-5.94-2.99 5.56 3.65 2.05.88c-.05.1-.1.21-.13.32l-2.07-.83-6.51-1.35 6.31 2.08 2.21.32c-.02.11-.04.23-.05.35l-2.21-.27-6.63.38 6.63.38 2.21-.27c0 .12.02.24.05.35l-2.21.32-6.31 2.08 6.51-1.35 2.07-.83c.04.11.08.22.13.32l-2.05.88-5.56 3.65 5.94-2.99 1.79-1.34c.06.1.14.19.21.28l-1.75 1.38-4.42 4.96 4.96-4.42 1.38-1.75c.09.08.18.15.28.21l-1.34 1.79-2.99 5.94 3.65-5.56.88-2.05c.1.05.21.1.32.13l-.83 2.07-1.35 6.51 2.08-6.31.32-2.21c.11.02.23.04.35.05l-.27 2.21.38 6.63.38-6.63z" class="cls-3"/></g></g></g></g><circle id="Dire_line" cx="16.55" cy="16.55" r="16.3" data-name="Dire line" style="fill:none;stroke:#231f20;stroke-miterlimit:10;stroke-width:.5px"/></svg>