<svg xmlns="http://www.w3.org/2000/svg" id="Layer_2" data-name="Layer 2" viewBox="0 0 33.1 33.1"><defs><clipPath id="clippath"><path d="M2.29 2.29h28.52v28.52H2.29z" class="cls-1"/></clipPath><clipPath id="clippath-1"><path d="M2.29 2.29h28.52v28.52H2.29z" class="cls-1"/></clipPath><style>.cls-1,.cls-3{fill:none;stroke-width:0}.cls-3{fill:#fff}</style></defs><g id="Tokens"><g id="Kolar"><circle cx="16.55" cy="16.55" r="16.3" style="stroke-width:0;fill:#ed1a3a"/><g style="clip-path:url(#clippath)"><path d="M25.17 10.9V7.74h-3.26V5.11H10.58v2.63H7.34v3.16H4.79v11.33h2.55v3.34h3.24v2.45h11.33v-2.45h3.26v-3.34h2.53V10.9zm1.61 10.4h-1.61v-2.34h-.92v5.68h-5.4v.92h2.14v1.53H11.5v-1.53h2.65v-.92H8.27v-5.68h-.92v2.34H5.72v-9.49h1.63v2.44h.92v-5.6h5.88v-.92H11.5V6.02h9.49v1.71h-2.14v.92h5.4v5.6h.92v-2.44h1.61z" class="cls-3"/><path d="M16.25 9.99c-3.68 0-6.66 2.98-6.66 6.66s2.98 6.66 6.66 6.66 6.66-2.98 6.66-6.66-2.98-6.66-6.66-6.66m.03 12.42-5.78-5.78 5.78-5.78 5.78 5.78z" class="cls-3" style="clip-path:url(#clippath-1)"/></g></g></g><circle id="Dire_line" cx="16.55" cy="16.55" r="16.3" data-name="Dire line" style="fill:none;stroke:#231f20;stroke-miterlimit:10;stroke-width:.5px"/></svg>