<svg xmlns="http://www.w3.org/2000/svg" id="Layer_2" data-name="Layer 2" viewBox="0 0 33.1 33.1"><defs><clipPath id="clippath"><path d="M3 2.3h28.5v28.5H3z" class="cls-1"/></clipPath><clipPath id="clippath-1"><path d="M3 2.3h28.5v28.5H3z" class="cls-1"/></clipPath><style>.cls-1,.cls-3{fill:none;stroke-width:0}.cls-3{fill:#d81f3d}</style></defs><circle id="Dire_line" cx="16.5" cy="16.5" r="16.3" data-name="Dire line" style="stroke-width:0;fill:#fff"/><g id="Tokens"><g id="Kolar" style="clip-path:url(#clippath)"><path d="M25.9 10.9V7.7h-3.3V5.1H11.3v2.6H8.1v3.2H5.5v11.3h2.6v3.3h3.2V28h11.3v-2.5h3.3v-3.3h2.5V10.9zm1.6 10.4h-1.6V19H25v5.7h-5.4v.9h2.1v1.5h-9.5v-1.5h2.6v-.9H8.9V19H8v2.3H6.4v-9.5H8v2.4h.9V8.6h5.9v-.9h-2.6V6h9.5v1.7h-2.1v.9H25v5.6h.9v-2.4h1.6z" class="cls-3"/><path d="M17 10a6.7 6.7 0 1 0 0 13.4A6.7 6.7 0 0 0 17 10m0 12.4-5.8-5.8 5.8-5.8 5.8 5.8z" class="cls-3" style="clip-path:url(#clippath-1)"/></g></g></svg>