<svg xmlns="http://www.w3.org/2000/svg" id="Layer_2" data-name="Layer 2" viewBox="0 0 33.1 33.1"><defs><clipPath id="clippath"><path d="M1.37 1.85h30.35V32.2H1.37z" class="cls-1"/></clipPath><clipPath id="clippath-1"><path d="M1.37 1.85h30.35V32.2H1.37z" class="cls-1"/></clipPath><style>.cls-1,.cls-3{stroke-width:0}.cls-1{fill:none}.cls-3{fill:#fff}</style></defs><g id="Tokens"><g id="Madras"><circle cx="16.55" cy="16.55" r="16.3" style="stroke-width:0;fill:#ffd030"/><g style="clip-path:url(#clippath)"><g style="clip-path:url(#clippath-1)"><path d="M19.35 21.8c-1.11-.91-2.53-.84-2.81-.82h-.16c-.45 0-1.33.11-2.31.83-.47.34-.79.87-.96 1.57-.2.83.05 1.69.68 2.32l2.32 2.32c.19.2.47.3.76.29.28 0 .55-.13.73-.34l2.01-2.27c.55-.63.78-1.5.6-2.34-.15-.7-.43-1.23-.85-1.57M13.76 18.83c.2.74.42 1.22.55 1.44 1.05-.59 2.4-.6 2.46-.6s1.35 0 2.36.59c.12-.23.33-.71.52-1.44.22-.83.48-2.21.48-4.06 0-3.47-.98-6.19-1.81-7.86-.62-1.26-1.25-2.13-1.57-2.53-.33.41-.99 1.28-1.64 2.56-.85 1.66-1.86 4.37-1.86 7.83 0 1.86.27 3.23.5 4.06M12.5 18.46c-.36-1.5-.66-3.97-.06-7.26-.14-.16-.86-.6-2.82-1.26-1.21-.4-2.29-.69-2.78-.79.24 5.2 1.94 8.15 3.34 9.72 1.25 1.4 2.48 1.97 2.91 2.14l.24-.23c-.19-.35-.55-1.13-.84-2.32M12.46 21.94c-.74-.39-1.42-.93-1.81-1.3-3.32-3.16-5.63-4.82-6.63-5.49.23 1.14.87 3.55 2.52 5.26 1.13 1.18 2.69 1.58 3.79 1.7.94.11 1.72.05 2.04 0 .03-.06.06-.13.09-.18M11.95 23.19c-.68.02-1.4-.06-2.1-.14-.74-.08-1.43-.16-1.93-.09-1.39.2-2.26 1.43-2.63 2.06.42.03 1.18.02 2.23-.25 1.97-.5 3.67-.6 4.36-.61 0-.19-.01-.42 0-.53.01-.15.04-.3.07-.44M20.92 18.46c-.31 1.18-.7 1.95-.91 2.31l.28.24c.45-.16 1.83-.72 3.23-2.15 1.54-1.57 3.4-4.52 3.67-9.72-.52.09-1.72.37-3.07.79-2.15.66-2.96 1.1-3.12 1.27.66 3.29.32 5.76-.07 7.26M21.05 22.12c.34.04 1.21.1 2.27 0 1.22-.13 2.94-.53 4.19-1.71 1.82-1.73 2.53-4.15 2.77-5.28-1.06.64-3.63 2.31-7.34 5.53-.42.37-1.17.9-1.98 1.29.03.05.06.11.09.17M21.59 23.63v.53c.73.02 2.62.11 4.8.61 1.17.27 2.02.28 2.48.25-.4-.63-1.37-1.86-2.9-2.06-.55-.07-1.32 0-2.13.09-.78.08-1.57.16-2.32.14.03.13.06.29.07.44" class="cls-3"/></g></g></g></g><circle id="Dire_line" cx="16.55" cy="16.55" r="16.3" data-name="Dire line" style="fill:none;stroke:#231f20;stroke-miterlimit:10;stroke-width:.5px"/></svg>