<svg xmlns="http://www.w3.org/2000/svg" id="Layer_2" data-name="Layer 2" viewBox="0 0 33.1 33.1"><defs><clipPath id="clippath"><path d="M1.4 1.9h30.4v30.4H1.4z" class="cls-1"/></clipPath><clipPath id="clippath-1"><path d="M1.4 1.9h30.4v30.4H1.4z" class="cls-1"/></clipPath><style>.cls-1,.cls-3{fill:none;stroke-width:0}.cls-3{fill:#ffd030}</style></defs><circle id="Dire_line" cx="16.5" cy="16.5" r="16.3" data-name="Dire line" style="stroke-width:0;fill:#fff"/><g id="Tokens"><g id="Madras" style="clip-path:url(#clippath)"><g style="clip-path:url(#clippath-1)"><path d="M19.4 21.8c-1.1-.9-2.5-.8-2.8-.8h-.2c-.4 0-1.3.1-2.3.8-.5.3-.8.9-1 1.6-.2.8 0 1.7.7 2.3l2.3 2.3c.2.2.5.3.8.3s.5-.1.7-.3l2-2.3c.5-.6.8-1.5.6-2.3-.1-.7-.4-1.2-.9-1.6M13.8 18.8c.2.7.4 1.2.6 1.4 1.1-.6 2.4-.6 2.5-.6s1.4 0 2.4.6c.1-.2.3-.7.5-1.4.2-.8.5-2.2.5-4.1 0-3.5-1-6.2-1.8-7.9-.6-1.3-1.2-2.1-1.6-2.5-.3.4-1 1.3-1.6 2.6-.9 1.7-1.9 4.4-1.9 7.8s.3 3.2.5 4.1M12.5 18.5c-.4-1.5-.7-4 0-7.3-.1-.2-.9-.6-2.8-1.3-1.2-.4-2.3-.7-2.8-.8.2 5.2 1.9 8.2 3.3 9.7 1.2 1.4 2.5 2 2.9 2.1l.2-.2c-.2-.4-.6-1.1-.8-2.3M12.5 21.9c-.7-.4-1.4-.9-1.8-1.3-3.3-3.2-5.6-4.8-6.6-5.5.2 1.1.9 3.5 2.5 5.3 1.1 1.2 2.7 1.6 3.8 1.7.9.1 1.7 0 2 0v-.2M11.9 23.2c-.7 0-1.4 0-2.1-.1-.7 0-1.4-.2-1.9 0-1.4.2-2.3 1.4-2.6 2.1.4 0 1.2 0 2.2-.2 2-.5 3.7-.6 4.4-.6v-.9M20.9 18.5c-.3 1.2-.7 2-.9 2.3l.3.2c.5-.2 1.8-.7 3.2-2.1 1.5-1.6 3.4-4.5 3.7-9.7-.5 0-1.7.4-3.1.8-2.1.7-3 1.1-3.1 1.3.7 3.3.3 5.8 0 7.3M21 22.1c.3 0 1.2.1 2.3 0 1.2-.1 2.9-.5 4.2-1.7 1.8-1.7 2.5-4.1 2.8-5.3-1.1.6-3.6 2.3-7.3 5.5-.4.4-1.2.9-2 1.3zM21.6 23.6v.5c.7 0 2.6.1 4.8.6 1.2.3 2 .3 2.5.2-.4-.6-1.4-1.9-2.9-2.1h-2.1c-.8 0-1.6.2-2.3.1v.4" class="cls-3"/></g></g></g></svg>