<svg xmlns="http://www.w3.org/2000/svg" id="Layer_2" data-name="Layer 2" viewBox="0 0 33.1 33.1"><defs><clipPath id="clippath"><path d="M3.3 0h28v28h-28z" class="cls-1"/></clipPath><clipPath id="clippath-1"><path d="M3.3 0h28v28h-28z" class="cls-1"/></clipPath><style>.cls-1{fill:none;stroke-width:0}</style></defs><circle id="Dire_line" cx="16.5" cy="16.5" r="16.3" data-name="Dire line" style="stroke-width:0;fill:#fff"/><g id="Tokens"><g id="North_Central" data-name="North Central" style="clip-path:url(#clippath)"><g style="clip-path:url(#clippath-1)"><path d="M29.1 23.3v.5h-9.5v-5.1c0-.1-.8-1.6-2.6-1.9-1.8.3-2.6 1.7-2.6 1.8v5.2H4.8v-.5h.3v-2.9s-.1-.1-.1-.2 0-.1.2-.2v-3.3c-.1 0-.2-.1-.2-.2s.1-.1.3-.2v-3.7s-.1 0-.1-.1 0-.1.2-.1v-1c-.1 0-.2 0-.2-.1s0-.1.2-.1V11c0-.3.2-.4.5-.7v-.4c0-.2 0-.1.1-.2V9v.7c.1 0 .2 0 .2.2v.4c.3.3.5.4.5.7v.2c.2 0 .2 0 .2.1s-.1.1-.3.2v1c.2 0 .3 0 .3.1s0 .1-.2.1v3.6c.3 0 .4.1.4.2s-.1.1-.3.2v3.2c.2 0 .3.1.3.2s0 .1-.2.2v2.9H8v-8.4c0-.2-.1-.1-.1-.4s.5-.3.5-.6v-.6.6c0 .2.5.3.5.6s-.1.2-.1.4v.2l1 .9h.5v-1.5h.7s-.6-.2-.6-.8c0-1.6 1.4-1.2 1.4-1.8h.1v-.5c-.1 0-.2-.1-.2-.3s.1-.3.3-.3v-.6.6q.3 0 .3.3c0 .3 0 .3-.2.3v.5h.1c0 .4.6.5 1 .8-.1-.2-.5-.7-.5-1.9 0-2.6 3.4-3.5 4.2-4.9v-.3s-.1-.1-.1-.2 0-.2.2-.3V3c.1 0 .3 2 .3 2l.1.2s0 .2-.1.2v.4c.9 1.4 4.2 2.3 4.2 4.8s-.3 1.7-.5 1.9c.3-.3 1-.3 1-.8h.1v-.5s-.2-.2-.2-.3.1-.3.3-.3V10v.6c.1 0 .3.1.3.3s-.1.3-.2.3v.5h.1c0 .6 1.4.3 1.4 1.8s-.6.8-.6.8h.7v1.5h.5l1-.9v-.2c0-.2-.1-.1-.1-.4s.5-.4.5-.6v-.6.6c0 .2.5.3.5.6s-.1.3-.1.4v8.4h1v-2.9s-.2-.1-.2-.2.1-.1.2-.2v-3.2c-.1 0-.2-.1-.2-.2s.1-.2.4-.2v-3.6s-.1 0-.1-.1.1-.1.3-.1v-1c-.1 0-.2 0-.2-.2s0-.1.2-.1v-.2c0-.3.2-.4.5-.7v-.4c0-.2 0-.1.1-.2v-.7.7c.1 0 .2 0 .2.2s0 .1-.1.2v.2c.3.3.5.4.5.7v.2c.1 0 .2 0 .2.1s0 .1-.2.1v1c.2 0 .2 0 .2.1s0 .1-.2.1v3.7c.3 0 .4.1.4.2s-.1.1-.3.2v3.3c.2 0 .3.1.3.2s0 .1-.2.2v2.9h.4Z" style="stroke-width:0;fill:#d9bea8"/></g></g></g></svg>