<svg xmlns="http://www.w3.org/2000/svg" id="Layer_2" data-name="Layer 2" viewBox="0 0 33.1 33.1"><defs><clipPath id="clippath"><path d="M1.77 1.76h29.57v29.57H1.77z" class="cls-2"/></clipPath><clipPath id="clippath-1"><path d="M1.77 1.76h29.57v29.57H1.77z" class="cls-2"/></clipPath><style>.cls-2,.cls-3{stroke-width:0}.cls-2{fill:none}.cls-3{fill:#fff}</style></defs><g id="Tokens"><g id="Nizam"><circle cx="16.55" cy="16.55" r="16.3" style="fill:#288fce;stroke-width:0"/><g style="clip-path:url(#clippath)"><g style="clip-path:url(#clippath-1)"><path d="M27.32 11.73a3 3 0 0 0-.79-.11c-.41 0-.84.08-1.3.24h-.02a10 10 0 0 0-1.71-2.23 10 10 0 0 0-2.26-1.67v-.01c.29-.81.33-1.54.12-2.18 1.94-.6 4.42 1.56 5.07.91l-.04.04c-.64.64 1.46 3.08.92 5.01M26.4 26.45l-.04-.04c-.64-.64-3.08 1.45-5.01.91.16-.55.15-1.15-.05-1.82.9-.5 1.72-1.13 2.43-1.87l.04-.04c.02-.02.04-.04.06-.07.02-.02.04-.05.06-.07s.04-.05.06-.07.04-.05.07-.08c.52-.6.98-1.26 1.34-1.97.38.12.75.17 1.09.17.3 0 .58-.04.85-.13.6 1.94-1.57 4.42-.92 5.07M11.7 25.5c-.18.66-.18 1.27 0 1.81-1.94.6-4.41-1.57-5.06-.93l.04-.04c.64-.64-1.45-3.08-.9-5.01.25.08.52.11.8.11.33 0 .68-.05 1.05-.16.91 1.78 2.34 3.25 4.09 4.22M6.74 6.61l.04.04c.63.64 3.03-1.4 4.95-.91-.2.64-.16 1.37.14 2.18a9.996 9.996 0 0 0-4 3.85 4 4 0 0 0-1.22-.22c-.29 0-.57.04-.84.13-.59-1.94 1.58-4.41.94-5.06M6.56 16.74c0 1.44.3 2.83.88 4.1-.32.09-.61.13-.88.13-.22 0-.43-.03-.62-.08-.09-.02-.17-.05-.25-.09-.01 0-.02 0-.03-.01 0 0-.02 0-.03-.01-.01 0-.03-.01-.04-.02-.02 0-.04-.02-.06-.03-.01 0-.02-.01-.03-.02 0 0-.02 0-.03-.02-.13-.07-.25-.15-.36-.25-.01 0-.02-.02-.03-.03 0 0-.02-.02-.03-.02-.01-.01-.03-.02-.04-.03l-.06-.06s-.02-.02-.03-.02c-.11-.1-.2-.22-.3-.34-.01-.01-.02-.03-.03-.04-.03-.04-.06-.08-.09-.13 0-.01-.02-.03-.03-.04-.11-.16-.2-.32-.29-.49 0-.02-.02-.03-.03-.05 0-.02-.02-.03-.03-.05 0-.02-.02-.04-.03-.06-.02-.03-.03-.06-.05-.09-.13-.26-.24-.53-.35-.79 0-.02-.01-.03-.02-.05-.02-.04-.03-.08-.05-.12 0-.02-.01-.03-.02-.05 0-.02-.01-.03-.02-.05-.02-.05-.04-.09-.06-.14 0-.02-.01-.03-.02-.05-.01-.03-.02-.05-.03-.08a.7.7 0 0 1-.05-.13c0-.02-.02-.05-.03-.07v-.01c-.02-.04-.03-.08-.05-.12l-.06-.12c-.01-.02-.02-.05-.03-.07s-.02-.05-.03-.07c0-.01-.01-.02-.02-.03a2.5 2.5 0 0 0-.18-.29s-.01-.02-.02-.02c0 0-.01-.02-.02-.02a.8.8 0 0 0-.16-.15h-.01c-.02-.01-.04-.03-.06-.04h-.16.21s.01 0 .02-.01c.01 0 .02-.01.03-.02h.01c.01 0 .02-.02.03-.03l.02-.02.02-.02c.03-.03.05-.05.08-.09 0 0 .01-.02.02-.02 0 0 .01-.02.02-.02.01-.02.03-.04.04-.05.01-.02.02-.04.04-.05.02-.04.05-.08.07-.12 0-.01.01-.02.02-.03.04-.08.08-.16.13-.25 0-.01.01-.03.02-.04a.3.3 0 0 1 .04-.08c.02-.04.03-.07.05-.11 0-.01.01-.03.02-.04.04-.09.08-.19.12-.28.01-.03.03-.07.04-.1.03-.07.06-.13.09-.2.02-.05.04-.09.06-.14.11-.24.22-.49.34-.74 0-.02.02-.03.03-.05.03-.05.06-.11.09-.16.02-.03.03-.06.05-.08.01-.02.02-.04.03-.05 0-.01.02-.03.02-.04.06-.09.11-.19.17-.27 0-.01.02-.03.03-.04 0-.01.02-.03.03-.04l.09-.12c.01-.02.02-.03.04-.05.01-.01.02-.03.03-.04s.02-.03.03-.04.02-.03.03-.04.02-.03.03-.04c.02-.03.05-.06.08-.08l.03-.03.07-.07.07-.07.03-.03.04-.04c.01 0 .02-.02.03-.03.03-.02.05-.04.08-.06.01-.01.03-.02.04-.03.01 0 .03-.02.04-.03.04-.03.08-.05.13-.08.01 0 .03-.02.04-.02s.03-.02.04-.02c0 0 .02-.01.03-.01s.02 0 .03-.01c.01 0 .02-.01.03-.02.01 0 .03-.01.04-.02.01 0 .02-.01.04-.02h.01c.01 0 .03-.01.04-.02.02 0 .04-.02.06-.02.01 0 .03 0 .04-.01.02 0 .03-.01.05-.02.2-.06.42-.09.65-.09.3 0 .64.05 1.01.17a10 10 0 0 0-1.09 4.55M20.88 25.72c.15.56.14 1.03.03 1.44 0 .01 0 .03-.01.04s-.01.03-.02.05c0 .02-.01.03-.02.05 0 .02-.01.03-.02.05 0 .02-.01.04-.02.05-.01.03-.03.07-.05.1 0 .02-.02.03-.03.05 0 .02-.02.03-.03.05-.02.03-.04.06-.06.1l-.06.09-.06.09c-.01.01-.02.03-.03.04s-.02.03-.03.04-.02.03-.04.04c-.04.04-.07.08-.11.12l-.04.04-.04.04c-.04.04-.08.07-.11.1-.02.01-.03.03-.05.04-.01.01-.03.02-.04.03-.03.02-.06.05-.09.07-.02.01-.03.02-.05.03s-.03.02-.05.03-.03.02-.05.03-.03.02-.05.03-.03.02-.05.03c-.04.03-.09.06-.13.09-.02.01-.03.02-.05.03-.03.02-.07.04-.1.06-.02 0-.03.02-.05.03-.02 0-.03.02-.05.03-.05.03-.1.06-.15.08-.14.07-.27.14-.41.2-.02.01-.05.02-.07.03-.05.02-.09.04-.14.06-.02 0-.04.02-.05.02-.05.02-.1.04-.15.07l-.15.06c-.02 0-.03.01-.05.02-.03.01-.07.03-.1.04-.02 0-.03.01-.05.02-.02 0-.04.02-.05.02-.03.01-.06.02-.09.04a9 9 0 0 0-.5.22c-.01 0-.03.01-.04.02-.04.02-.07.03-.11.05-.02.01-.05.02-.07.04-.01 0-.02.01-.03.02-.02.01-.04.02-.07.04-.01 0-.02.01-.03.02-.01 0-.02.01-.03.02s-.02.01-.03.02c-.02.01-.03.02-.05.03-.01 0-.02.02-.04.02 0 0-.02.01-.03.02 0 0-.02.01-.03.02h-.01l-.02.02s-.05.04-.08.07l-.04.04c-.01.01-.02.03-.03.04 0 0 0 .01-.01.02 0 0 0 .01-.01.02 0 0 0 .01-.01.02 0 0 0 .01-.01.02v.16-.22a.5.5 0 0 0-.13-.16l-.02-.02-.02-.02s-.02-.01-.02-.02c0 0-.02-.01-.02-.02 0 0-.02-.01-.03-.02a.2.2 0 0 0-.08-.05s-.02-.01-.03-.02c0 0-.02-.01-.03-.02 0 0-.02-.01-.03-.02-.01 0-.02-.01-.03-.02-.03-.02-.07-.04-.1-.06l-.06-.03c-.03-.01-.05-.03-.08-.04-.02-.01-.05-.02-.07-.03-.03-.01-.06-.03-.1-.04-.02 0-.04-.02-.06-.03-.01 0-.03-.01-.04-.02-.01 0-.03-.01-.04-.02-.06-.02-.11-.05-.17-.08-.05-.02-.09-.04-.14-.06 0 0-.02 0-.03-.01-.02-.01-.05-.02-.07-.03-.03-.01-.07-.03-.1-.04-.02 0-.03-.01-.05-.02-.03-.01-.07-.03-.1-.04s-.07-.03-.1-.04l-.21-.09c-.03-.02-.07-.03-.1-.05-.02 0-.03-.02-.05-.02-.03-.02-.07-.03-.1-.05-.07-.03-.14-.07-.21-.1-.03-.02-.07-.03-.1-.05a.5.5 0 0 0-.1-.05c-.02 0-.04-.02-.05-.03-.08-.05-.17-.09-.25-.14 0 0-.02-.01-.03-.02-.04-.02-.08-.05-.12-.08-.02-.01-.03-.02-.05-.03s-.03-.02-.05-.03l-.09-.06c-.02-.01-.03-.02-.05-.04-.05-.03-.09-.07-.13-.1-.03-.02-.06-.05-.09-.07a.3.3 0 0 1-.08-.08c-.05-.05-.11-.1-.16-.16l-.04-.04c-.03-.03-.05-.06-.07-.08-.01-.01-.02-.03-.03-.04s-.02-.03-.03-.04-.02-.03-.03-.04a5 5 0 0 1-.15-.23c-.01-.03-.03-.05-.04-.08 0 0 0-.02-.01-.03-.01-.02-.02-.05-.03-.07 0-.01-.01-.03-.02-.04 0-.02-.02-.04-.03-.07 0-.02-.01-.03-.02-.05 0-.02-.02-.05-.02-.07-.12-.4-.14-.88 0-1.44 1.35.66 2.84 1.01 4.39 1.01s3.01-.34 4.35-.99M12.29 7.71c-.25-.73-.27-1.32-.12-1.81 0-.02.01-.03.02-.05 0-.02.01-.04.02-.05.01-.04.03-.07.04-.11 0-.02.01-.03.02-.05 0-.02.02-.04.03-.06 0-.01.01-.03.02-.04 0-.02.02-.03.03-.05 0-.02.02-.03.03-.05 0-.02.02-.03.03-.05.05-.08.1-.16.16-.23.01-.01.02-.03.03-.04 0-.01.02-.02.03-.04.03-.03.05-.06.08-.09.01-.01.02-.03.04-.04l.04-.04.04-.04c.04-.04.08-.08.13-.12.01-.01.03-.02.04-.04.01-.01.03-.02.04-.04.01-.01.03-.02.04-.04.01 0 .02-.02.03-.03.34-.26.72-.47 1.12-.66.02 0 .03-.02.05-.02.13-.06.26-.12.38-.17.02 0 .03-.01.05-.02.05-.02.09-.04.14-.06.03-.01.05-.02.08-.03.38-.16.73-.3 1.01-.44.01 0 .03-.01.04-.02.01 0 .02-.01.04-.02.03-.02.06-.03.08-.05.01 0 .02-.01.03-.02 0 0 .02-.01.03-.02.07-.04.13-.09.18-.13l.02-.02.03-.03.02-.02.02-.02s0-.01.01-.02c0 0 .02-.02.02-.03l.02-.02s.01-.02.02-.02c0 0 0-.01.01-.02 0-.02.02-.03.02-.05v-.13.2s0 .02.01.02 0 .01.01.02c.01.02.03.05.05.07l.02.02.04.04.02.02c.02.02.04.03.06.05 0 0 .02.01.02.02.01 0 .02.02.03.02.02.02.05.03.07.05.02.01.04.03.07.04.01 0 .02.01.03.02.1.06.21.11.33.17.01 0 .02.01.04.02.22.1.47.2.73.31.03.01.06.03.09.04.08.03.16.07.23.1.02 0 .03.01.05.02.14.06.29.13.43.2.02 0 .03.02.05.02 0 0 .02 0 .03.01.02 0 .03.02.05.02.07.03.14.07.21.11.03.02.06.03.09.05s.06.04.09.05c.01 0 .03.01.04.02.02.01.04.02.05.03.02 0 .03.02.04.03.06.04.12.07.17.11.02.01.03.02.05.03.09.06.17.12.26.19.01 0 .02.02.04.03.01.01.03.02.04.03s.03.02.04.03c.06.06.13.12.18.18l.02.02c.02.02.04.05.07.07 0 0 .02.02.02.03s.02.02.03.03c0 .01.02.02.03.03 0 .01.02.02.02.03.01.01.02.03.03.04.03.03.05.07.08.11 0 .01.02.02.02.03 0 .02.02.03.03.05.02.04.04.07.06.11 0 .01.01.02.02.04 0 .01.01.03.02.04v.01c0 .01.01.03.02.04 0 .02.01.03.02.05 0 .02.01.03.02.05.01.04.03.07.04.11 0 .02.01.03.02.05.15.48.14 1.07-.11 1.78-1.32-.63-2.78-.97-4.29-.97s-2.93.32-4.24.94" class="cls-3"/><path d="M25.45 16.74c0 1.35-.3 2.62-.84 3.77-.13.29-.28.57-.44.84-.01.02-.02.04-.03.05l-.03.06c-1.58 2.52-4.38 4.21-7.57 4.21-4.92 0-8.92-4-8.92-8.92s4-8.92 8.92-8.92c1.39 0 2.7.32 3.88.89 1.75.85 3.19 2.26 4.07 4 .62 1.21.97 2.58.97 4.04M30.51 16.57h-.21s-.02 0-.02.01-.01 0-.02.01c-.03.02-.06.04-.08.06 0 0-.01 0-.02.01 0 0-.02.02-.03.02l-.02.02-.02.02s-.01.02-.02.02l-.02.02c-.03.03-.05.07-.07.1 0 0-.01.02-.02.03-.02.04-.05.08-.07.12 0 .01-.01.02-.02.03 0 .01-.01.02-.02.03 0 .01-.01.02-.02.03-.05.09-.1.19-.14.29a.3.3 0 0 1-.04.08c-.02.05-.05.11-.07.16-.03.06-.05.12-.08.19-.03.06-.05.13-.08.2v.01c-.01.03-.03.06-.04.09 0 .02-.01.03-.02.05-.01.03-.03.07-.04.1-.03.07-.06.14-.09.2l-.09.21c-.03.07-.06.14-.1.21-.02.05-.04.09-.07.14-.01.02-.02.05-.03.07-.02.05-.05.09-.07.14-.02.04-.05.09-.07.13-.02.03-.04.07-.06.1-.01.02-.02.03-.03.05s-.02.03-.03.05c0 .02-.02.03-.03.05-.02.03-.04.06-.06.1-.04.06-.08.12-.13.18-.01.02-.02.03-.03.05-.01.01-.02.03-.03.04s-.02.03-.04.04c-.01.01-.02.03-.04.04-.01.01-.02.03-.04.04l-.04.04c-.01.01-.02.03-.04.04l-.08.08-.04.04-.04.04c-.01.01-.03.02-.04.04-.01.01-.03.02-.04.04-.02.01-.03.03-.05.04-.01 0-.02.02-.04.03l-.09.06c-.02.01-.03.02-.05.03s-.04.03-.07.04c-.02.01-.04.03-.07.04-.02 0-.03.02-.05.03-.02 0-.03.02-.05.03-.02 0-.03.02-.05.02s-.03.01-.05.02c-.02 0-.03.01-.05.02-.02 0-.03.01-.05.02-.03.01-.06.02-.1.04h-.02c-.02 0-.03 0-.05.01q-.3.09-.66.09c-.27 0-.56-.04-.88-.13.59-1.29.91-2.71.91-4.17 0-1.57-.36-3.09-1.05-4.46.4-.13.76-.19 1.08-.19.22 0 .42.03.61.08.02 0 .03 0 .05.01.02 0 .04.01.05.02.02 0 .03.01.05.02.01 0 .03.01.04.02.01 0 .03.01.04.02.02 0 .04.02.06.03 0 0 .02 0 .03.01.01 0 .02 0 .03.01l.06.03c.02 0 .03.02.05.02.07.04.13.07.19.12.02.01.03.02.05.03s.03.02.04.03c.02.01.03.03.05.04.01 0 .02.02.04.03.01.01.03.02.04.04.01.01.03.02.04.04.01.01.03.02.04.04l.04.04.04.04.04.04.08.08c.01.01.02.03.04.04.01.01.02.03.04.04.01.01.02.03.04.04.01.01.02.03.04.04.01.01.02.03.03.04.01.02.02.03.03.05.02.03.04.06.07.09l.06.09c.04.06.08.13.12.2 0 .02.02.03.03.05l.03.06c0 .01.02.03.03.04 0 .02.02.03.03.05 0 .02.02.03.03.05.02.03.04.07.05.1.02.03.04.07.05.1.02.05.05.09.07.14l.06.12c0 .02.02.04.02.05.02.03.03.07.05.1 0 .02.02.03.02.05.02.05.05.1.07.16.01.03.03.06.04.09.02.04.03.08.05.11.01.03.02.05.03.07q.09.225.18.42c.01.02.02.05.03.07 0 .02.02.04.03.06 0 .02.01.03.02.05 0 .02.01.03.02.04.05.1.09.2.14.29.01.03.03.05.04.08 0 .01.01.03.02.04 0 .01.01.02.02.04v.01c.02.03.03.06.05.09s.04.07.06.1c0 .01.01.02.02.03 0 0 .01.02.02.03 0 0 .01.02.02.03.01.02.03.03.04.05 0 0 .01.02.02.02 0 0 .01.02.02.02l.04.04c.01.01.03.02.04.03 0 0 .01 0 .02.01.02.01.03.02.05.03h.02s.02 0 .03.01h.12" class="cls-3"/></g></g></g></g><circle id="Dire_line" cx="16.55" cy="16.55" r="16.3" data-name="Dire line" style="fill:none;stroke:#231f20;stroke-miterlimit:10;stroke-width:.5px"/></svg>