<svg xmlns="http://www.w3.org/2000/svg" id="Layer_2" data-name="Layer 2" viewBox="0 0 33.1 33.1"><defs><clipPath id="clippath"><path d="M1.8 1.8h29.6v29.6H1.8z" class="cls-1"/></clipPath><clipPath id="clippath-1"><path d="M1.8 1.8h29.6v29.6H1.8z" class="cls-1"/></clipPath><style>.cls-1,.cls-2{fill:none;stroke-width:0}.cls-2{fill:#268ece}</style></defs><circle id="Dire_line" cx="16.5" cy="16.5" r="16.3" data-name="Dire line" style="stroke-width:0;fill:#fff"/><g id="Tokens"><g id="Nizam" style="clip-path:url(#clippath)"><g style="clip-path:url(#clippath-1)"><path d="M27.3 11.7c-.2 0-.5-.1-.8-.1-.4 0-.8 0-1.3.2-.5-.8-1-1.6-1.7-2.2-.7-.7-1.4-1.2-2.3-1.7.3-.8.3-1.6.1-2.2 1.9-.6 4.4 1.6 5.1.9-.6.7 1.5 3.1.9 5.1M26.4 26.5c-.6-.7-3.1 1.4-5 .9.2-.5.1-1.1 0-1.8.9-.5 1.7-1.1 2.4-1.9v-.1c.5-.6 1-1.3 1.3-2 .4.1.8.2 1.1.2s.6 0 .9-.1c.6 1.9-1.6 4.4-.9 5.1M11.7 25.5q-.3 1.05 0 1.8c-1.9.6-4.4-1.6-5.1-.9.6-.7-1.5-3.1-.9-5.1.2 0 .5.1.8.1s.7 0 1.1-.2c.9 1.8 2.3 3.2 4.1 4.2M6.7 6.6c.6.7 3-1.4 4.9-.9-.2.6-.2 1.4.1 2.2-.8.4-1.6 1-2.3 1.6s-1.3 1.4-1.7 2.2c-.4-.1-.8-.2-1.2-.2s-.6 0-.8.1c-.6-1.9 1.6-4.4.9-5.1M6.6 16.7c0 1.4.3 2.8.9 4.1-.3 0-.6.1-.9.1h-.8c-.1 0-.2-.1-.4-.2l-.3-.3v-.1c-.1-.2-.2-.3-.3-.5-.1-.3-.2-.5-.3-.8v-.5c0-.1 0 0 0 0 0-.1-.1-.2-.2-.3 0 0 0-.1-.2-.1h-.2.2V18s0-.2.1-.2v-.1s0-.2.1-.3V17c.1-.2.2-.5.3-.7v-.2s.1-.2.2-.3v-.1h.8c.3 0 .6 0 1 .2-.7 1.4-1.1 2.9-1.1 4.5" class="cls-2"/><path d="M20.9 25.7c.1.6.1 1 0 1.4v.2l-.1.1-.1.1h-.3c-.1 0-.3.1-.4.2h-.4c-.1 0-.3.1-.4.2h-.1v.2-.2c0-.1 0-.2-.1-.2h-1.2s-.1 0-.2-.1h-.2s-.2 0-.2-.1h-.1l-.1-.1-.2-.2s-.1-.1-.1-.2c-.1-.4-.1-.9 0-1.4 1.4.7 2.8 1 4.4 1s3-.3 4.4-1M12.3 7.7c-.2-.7-.3-1.3-.1-1.8v-.1s.1-.2.2-.2l.1-.1c.3-.3.7-.5 1.1-.7.1 0 .3-.1.4-.2h.1c.4-.2.7-.3 1-.4 0 0 .1 0 .2-.1 0-.1 0 0 0 0v.2c.1 0 .2.1.3.2.2 0 .5.2.7.3h.2c.1 0 .3.1.4.2 0 0 .1 0 .2.1 0 0 .1 0 .2.1 0 0 .2.1.3.2l.2.2v.3c.1.5.1 1.1-.1 1.8-1.3-.6-2.8-1-4.3-1s-2.9.3-4.2.9M25.5 16.7c0 1.4-.3 2.6-.8 3.8-.1.3-.3.6-.4.8-1.6 2.5-4.4 4.2-7.6 4.2-4.9 0-8.9-4-8.9-8.9s4-8.9 8.9-8.9 2.7.3 3.9.9c1.8.9 3.2 2.3 4.1 4 .6 1.2 1 2.6 1 4M30.5 16.6h-.2v.2s-.1.2-.1.3v1.2c0 .1 0 .1-.1.2v.5s0 .1-.1.2v.1h-.8c-.3 0-.6 0-.9-.1q.9-1.95.9-4.2c0-2.25-.4-3.1-1-4.5.4-.1.8-.2 1.1-.2h.6s.1 0 .2.1c0 0 0 .1.1.2v.7c0 .1 0 0 0 0v.1c0 .1.1.3.2.4 0 .1 0 .2.1.3s0 0 0 .1v.1h.1" class="cls-2"/></g></g></g></svg>