<svg xmlns="http://www.w3.org/2000/svg" id="Layer_2" data-name="Layer 2" viewBox="0 0 33.1 33.1"><defs><clipPath id="clippath"><path d="M2.57 2.57h27.97v27.97H2.57z" class="cls-1"/></clipPath><clipPath id="clippath-1"><path d="M2.57 2.57h27.97v27.97H2.57z" class="cls-1"/></clipPath><style>.cls-1,.cls-3{fill:none;stroke-width:0}.cls-3{fill:#fff}</style></defs><g id="Tokens"><g id="Northwest"><circle cx="16.55" cy="16.55" r="16.3" style="stroke-width:0;fill:#4ab649"/><g style="clip-path:url(#clippath)"><g style="clip-path:url(#clippath-1)"><path d="M5.31 21.99c1.81 1.25 5.17 1.25 8.85-.03.13-.13.27-.28.41-.45-2.22-.22-4.38-.73-6.25-1.49-1.39.47-2.42 1.15-3.01 1.97m1.95.13c-.09.15-.23.25-.4.27h-.07c-.12 0-.24-.04-.34-.12a.74.74 0 0 1-.28-.48c-.03-.2.02-.39.13-.54.09-.12.22-.2.36-.22.32-.05.63.22.69.59.03.18 0 .35-.1.49M7.67 26.4c2.19.47 3.88-.44 5.86-2.06-.13-.59-.01-1.22.32-1.76-1.35.54-2.8.75-4.08.91-1.24 1.13-1.89 2.03-2.09 2.9m1.72-1.15c.2.32.13.72-.14.9-.08.05-.18.08-.28.08-.04 0-.09 0-.14-.02a.74.74 0 0 1-.45-.33.77.77 0 0 1-.11-.49c.02-.18.11-.32.25-.41.28-.17.67-.05.87.27M24.42 15.7l.05-.05c.03-.03.07-.06.1-.1s.08-.08.11-.12.07-.07.11-.11.08-.07.11-.11.07-.07.11-.11l.11-.11.11-.11h.01c.06-.07.12-.13.17-.19l.02-.03s.07-.07.1-.11.07-.07.1-.11c.04-.04.07-.08.1-.12s.07-.07.1-.11c.03-.03.05-.06.08-.09.04-.04.08-.09.11-.13.02-.02.04-.05.06-.07l.03-.04s.06-.08.09-.11c.03-.04.06-.07.09-.11s.06-.07.08-.1c0 0 .01-.02.02-.02.05-.07.1-.13.15-.19s0-.02.01-.03.05-.06.07-.09c.03-.04.06-.07.08-.11.03-.03.05-.07.07-.1.05-.07.11-.15.16-.23l.08-.11c.08-.12.15-.22.22-.33.02-.04.05-.07.07-.11.05-.08.09-.15.13-.22.02-.03.03-.05.05-.08v-.02h.02s.04-.08.06-.11.03-.06.05-.08l.05-.08s.02-.03.02-.04c.02-.04.04-.07.06-.11.02-.03.03-.06.04-.09.08-.15.15-.31.21-.46 0-.02.02-.04.03-.07s.02-.05.03-.07.02-.05.02-.07v-.02s.02-.05.03-.07c.02-.07.04-.12.06-.18l.03-.09c0-.02.01-.04.02-.06 0-.02.01-.04.02-.07s0-.01 0-.02.01-.04.02-.06 0-.04.01-.05 0-.02 0-.02.01-.05.02-.07c0-.03.01-.05.02-.07.01-.07.03-.13.04-.19 0-.02 0-.05.01-.07v-.02s0-.04.01-.06 0-.04 0-.06v-.12h-.43s-.05.01-.07.02c-.03 0-.05.01-.07.02-.02 0-.04 0-.06.01-.02 0-.04 0-.06.01-.06.02-.12.03-.17.05-.03 0-.06.02-.09.03-.03 0-.06.02-.09.03s-.01 0-.02 0h-.02s-.04.02-.06.02l-.09.03-.11.04s-.05.02-.07.03h-.01s-.07.03-.1.04-.05.02-.08.03c-.04.02-.08.03-.12.05q-.255.105-.51.24c-.03.02-.07.04-.1.05-.03.02-.07.03-.1.05-.04.02-.07.04-.11.06s-.07.04-.1.06c-.13.08-.27.16-.41.25-.08.05-.15.1-.21.14-.04.02-.07.05-.11.07s-.07.05-.11.07h-.02s-.06.05-.09.07l-.11.08-.11.08-.11.08c-.11.08-.22.17-.32.25h-.01c-.06.06-.13.11-.19.16h-.01c-.08.07-.15.12-.22.18a.2.2 0 0 1-.07.05l-.05.05s-.06.06-.1.08l-.22.19c-.04.03-.07.06-.11.1-.04.03-.07.07-.11.1-.1.09-.21.2-.32.3l-.18.18-.03.03s-.07.07-.1.11l-.11.11c-.06.07-.13.13-.21.22-.07.07-.14.15-.23.24-.09.1-.16.17-.22.25l-.02.02a24.5 24.5 0 0 0-3.86 5.82c.66-.6 1.37-1.15 2.11-1.66 1.22-.84 2.49-1.52 3.77-2.03.24-.09.48-.18.72-.26m2.3-5.46c.13-.13.3-.2.48-.2s.36.07.48.2c.27.27.27.7 0 .97-.13.13-.31.2-.48.2s-.35-.07-.48-.2a.68.68 0 0 1 0-.97M15.07 19.13c-.26-.52-.55-1.04-.85-1.55-.16.02-.32.05-.48.07l-.24.03-.23.03h-.11c.13.08.25.17.38.25.53.36 1.04.75 1.54 1.16M21.9 12.62c.1-.23.19-.47.27-.71.02-.06.05-.13.07-.2.09-.27.18-.53.26-.79.05-.15.09-.32.14-.48.06-.23.11-.45.16-.66.02-.07.03-.14.04-.19.02-.12.05-.23.06-.34 0-.06.02-.12.03-.19s0-.06.01-.09c0-.03 0-.06.01-.09 0-.03 0-.06.01-.09v-.18s.02-.06.02-.08c0-.06.01-.13.02-.17v-.08c0-.04 0-.09.01-.14v-.08c0-.09 0-.18.01-.27v-.06c0-.59-.05-1.12-.18-1.59-.02.01-.04.02-.07.03-.04.02-.06.03-.09.05-.02 0-.03.02-.05.03h-.01s-.05.04-.07.05c-.05.03-.11.07-.16.11-.02.01-.04.03-.07.05-.02.02-.05.03-.07.05s-.05.04-.07.06c-.03.02-.05.04-.08.06h-.02l-.06.06c-.05.04-.1.08-.15.13a.5.5 0 0 0-.08.07c-.03.02-.05.04-.07.07l-.07.07-.07.07h-.01s-.04.05-.07.08c-.02.02-.05.05-.07.08-.03.03-.05.05-.07.08-.05.05-.09.1-.15.16-.05.06-.1.12-.15.17-.05.06-.1.11-.15.17-.02.03-.05.06-.07.09-.03.04-.06.07-.08.11s-.04.06-.06.08c-.02.03-.04.05-.06.08h-.01s-.03.05-.04.07-.03.04-.03.04c-.02.03-.05.06-.07.1-.04.06-.09.13-.14.2-.11.17-.23.35-.35.53-.05.08-.09.15-.14.22-.07.11-.13.23-.2.35-.02.04-.04.08-.07.12l-.07.12s-.04.08-.06.11c-.11.21-.21.42-.32.63-.04.08-.08.16-.12.26-.06.13-.12.26-.18.4s-.12.28-.17.41l-.06.15c.26.18.4.5.34.83-.02.09-.04.18-.06.26q.105.045.21.12c.31.24.37.68.14.99s-.51.53-.83.65c.05.4.01.83-.12 1.25l-.03.08-.05.06c-.17.2-.41.38-.73.55l-.08.27s-.11.42-.08 1.04c.02.36.07.74.17 1.12.51-1.04 1.11-2.07 1.78-3.05.75-1.1 1.58-2.13 2.45-3.06.05-.13.11-.26.17-.39m-.4-5.12c.07-.17.2-.3.37-.37s.36-.07.53 0 .3.2.37.37.07.36 0 .53-.2.3-.37.37c-.08.04-.17.05-.26.05s-.18-.02-.26-.05a.684.684 0 0 1-.37-.9M15.4 7.45c-.31 1.16-.48 2.56-.48 4.04.24.59.47 1.21.67 1.83l.21-.09c.38-.15.75-.2 1.09-.17.07-.16.12-.31.14-.46-.4-.07-.7-.38-.76-.78-.03-.24.03-.49.18-.69s.37-.32.61-.36h.13c.45 0 .84.33.91.79l.03.2c.03-.07.05-.13.08-.19.03-2.97-.53-5.34-1.57-6.7-.52.6-.94 1.49-1.24 2.58m1.85-.78c0 .38-.31.69-.69.69s-.69-.31-.69-.69.31-.69.69-.69.69.31.69.69M8.76 16.12h-.02c-.11-.05-.22-.08-.33-.12H8.4s-.08-.03-.12-.04l-.19-.06c-.09-.03-.19-.05-.28-.08l-.11-.03s-.05-.01-.08-.02l-.28-.06c-.03 0-.06-.01-.09-.02s-.05-.01-.08-.02c-.08-.02-.17-.03-.26-.05-.04 0-.07-.01-.1-.02-.03 0-.06 0-.09-.01l-.1-.02c-.12-.02-.23-.03-.34-.04-.14-.02-.29-.03-.43-.03h-.18q-1.185-.03-2.04.3l.03.06c0 .02.02.04.03.05.06.11.13.22.2.33.01.02.02.03.03.05s.02.04.04.06l.06.09c.02.02.03.04.05.06s.02.03.03.04.02.03.03.05.03.03.04.05.04.05.06.07.04.05.06.07l.02.02.04.04c.02.02.04.05.06.07l.06.06c.05.05.09.09.13.14.05.05.1.09.14.13.07.06.14.13.22.2.07.06.15.13.23.19.03.02.05.04.08.06s.05.04.08.06.05.04.08.06c.02.02.04.03.07.05h.02c.87.66 1.94 1.23 3.18 1.71l.15.06c1.83.7 3.91 1.16 6.05 1.35.08-.15.15-.29.21-.45.02-.06.05-.13.07-.19v-.02c.03-.09.06-.19.09-.28 0-.02.01-.05.02-.07-1.94-1.74-4.25-3.12-6.51-3.87h-.01Zm-3.06.48c-.11.27-.36.44-.62.44a.6.6 0 0 1-.22-.04.6.6 0 0 1-.34-.36.7.7 0 0 1 .02-.51c.07-.18.21-.32.38-.39a.605.605 0 0 1 .8.36c.06.16.05.34-.02.51M19.27 22.5c.33.54.45 1.17.32 1.76 1.98 1.62 3.67 2.52 5.86 2.06-.19-.87-.85-1.77-2.09-2.9-1.28-.16-2.73-.37-4.08-.91m4.43 2.65c.2-.32.59-.44.87-.27s.34.58.14.9a.7.7 0 0 1-.45.33c-.05.01-.09.02-.14.02-.1 0-.2-.03-.28-.08-.28-.17-.34-.58-.14-.9M11.46 13.84l-.02-.02c-.06-.07-.13-.15-.22-.24-.07-.07-.13-.14-.19-.21-.01-.02-.03-.03-.04-.04-.03-.03-.06-.07-.1-.1-.03-.03-.06-.06-.09-.1-.04-.04-.08-.09-.13-.13l-.06-.06-.07-.07c-.24-.24-.49-.48-.74-.7l-.08-.07s-.07-.06-.11-.09c-.11-.09-.21-.18-.32-.27-.03-.02-.06-.05-.08-.07l-.04-.03c-.05-.04-.12-.1-.19-.15s-.02-.02-.03-.02c-.07-.06-.14-.11-.2-.15l-.11-.08-.11-.08c-.03-.02-.05-.04-.08-.06l-.03-.02-.09-.06c-.22-.15-.43-.3-.65-.43s-.07-.04-.1-.06-.07-.04-.1-.06c-.07-.04-.12-.07-.17-.1a.3.3 0 0 0-.08-.04s-.05-.03-.08-.04-.05-.03-.08-.04-.07-.04-.1-.06c-.04-.02-.07-.04-.1-.05s-.05-.03-.08-.04h-.02s-.07-.04-.11-.06c-.03-.02-.07-.03-.1-.04-.14-.06-.28-.12-.41-.17s-.04-.02-.06-.02h-.02s-.02-.01-.03-.02-.05-.02-.07-.03-.04-.02-.06-.02c-.04-.01-.09-.03-.13-.04-.03 0-.05-.02-.08-.02l-.1-.03c-.06-.02-.11-.03-.15-.04s-.01 0-.02 0c-.03 0-.05-.01-.08-.02s-.03 0-.04-.01-.04 0-.05-.01h-.02s-.04-.01-.06-.02c-.02 0-.04 0-.06-.01h-.37c0 .03 0 .05.01.08v.02s0 .06.01.08 0 .05.01.07 0 .04.01.06 0 .05.01.07c0 .02 0 .04.02.07.02.1.05.2.08.3 0 .03.02.06.03.09 0 .03.02.06.03.09 0 .03.02.05.03.08v.02l.03.06c.01.04.03.08.04.11s.02.06.03.08c.06.15.12.3.19.45.01.03.03.05.04.08v.02s.03.05.04.07 0 .02.01.03.02.04.03.06c.03.05.05.1.08.15l.03.06c.09.17.19.34.3.52.02.03.03.06.05.09.02.04.04.07.07.11.07.11.14.21.21.32.02.04.05.07.07.11.04.06.1.14.15.21s.05.07.07.11l.08.11.08.11.08.11c.19.25.4.5.62.75.39.45.83.9 1.29 1.34.41.12.82.27 1.24.43.97.38 1.93.87 2.86 1.44a.62.62 0 0 1 0-.62l.13-.23q.045-.09.12-.21c.08-.14.17-.28.25-.41q-.78-1.095-1.65-2.07Zm-4.97-2.69c-.13.13-.31.2-.48.2s-.35-.07-.48-.2a.68.68 0 0 1 0-.97c.27-.27.7-.27.97 0s.27.7 0 .97M15.46 17.35c-.22.05-.46.09-.7.14.26.45.51.91.75 1.37.12-.95-.01-1.41-.03-1.46l-.02-.04ZM18.78 21.81c1.9.72 3.79 1.11 5.45 1.15 1.64.03 2.99-.29 3.92-.93-.59-.82-1.62-1.5-3.01-1.97-1.95.79-4.2 1.31-6.53 1.51.05.08.11.16.17.24m7.33-.15c.05-.37.36-.64.69-.59.16.02.3.12.4.27.09.14.12.32.1.49-.03.2-.13.37-.28.48-.1.08-.22.12-.34.12h-.07c-.32-.05-.55-.39-.49-.76M27.93 15.54h-.46c-.09 0-.17.01-.24.02h-.08l-.2.03s-.07 0-.1.01-.07.01-.1.02c-.03 0-.06 0-.09.01h-.02c-.07.01-.13.03-.21.04-.03 0-.07.01-.11.02-.04 0-.07.01-.11.02-.08.02-.15.03-.22.05l-.11.03-.11.03h-.02l-.09.03c-.33.09-.67.19-1.01.3-.13.04-.26.09-.38.13h-.03s-.07.04-.11.05c-2.19.83-4.4 2.22-6.24 3.93.01.03.03.06.04.09.03.06.06.12.09.19.04.08.07.15.11.21.06.11.11.21.17.31 2.25-.18 4.44-.66 6.36-1.39l.1-.04c.31-.12.62-.25.92-.39.07-.03.15-.07.22-.1.14-.07.29-.14.43-.21.21-.11.41-.22.61-.34.1-.06.2-.12.29-.17.25-.16.49-.32.71-.48h.01s.05-.04.07-.06c.03-.02.05-.04.08-.06s.05-.04.08-.06.05-.04.08-.06c.08-.06.16-.13.23-.19.08-.07.15-.13.22-.2.04-.04.09-.08.14-.13.04-.04.09-.09.13-.14l.06-.06c.02-.02.04-.05.06-.07.01-.02.03-.03.04-.05l.02-.02s.04-.05.06-.07.04-.05.06-.07.02-.03.04-.05c.01-.02.02-.03.03-.04s.02-.03.03-.05.03-.05.05-.07l.06-.09c.01-.02.03-.04.04-.05s.02-.04.03-.06c.07-.11.14-.22.2-.33.01-.02.02-.04.03-.05l.03-.06c-.51-.2-1.12-.3-1.81-.3h-.09Zm.15.21c.16-.07.33-.06.5.02.16.07.28.21.35.37.14.35 0 .74-.32.87a.6.6 0 0 1-.22.04c-.26 0-.51-.17-.62-.44a.7.7 0 0 1-.02-.51c.06-.17.18-.3.34-.36M14.41 11.63v-.02s-.04-.1-.06-.14l-.02-.05s-.02-.06-.04-.09c-.02-.05-.04-.09-.06-.14-.08-.18-.16-.36-.25-.53s0 0 0-.01l-.25-.5-.02-.04s-.03-.06-.05-.09v-.03s-.05-.06-.07-.1a1 1 0 0 0-.07-.12c-.11-.2-.22-.39-.34-.58-.02-.04-.05-.08-.07-.12l-.02-.03s-.03-.05-.05-.08c-.02-.04-.05-.07-.07-.11-.05-.07-.09-.14-.14-.21-.03-.04-.05-.08-.08-.11-.02-.04-.05-.07-.07-.1l-.07-.1c-.12-.17-.24-.33-.37-.48-.02-.03-.05-.06-.07-.09s-.05-.07-.07-.09c-.02-.03-.05-.06-.07-.08-.02-.03-.05-.05-.07-.08-.02-.02-.04-.05-.07-.07-.1-.11-.21-.22-.31-.32-.03-.02-.05-.05-.07-.07-.03-.02-.05-.05-.08-.07l-.02-.02s-.03-.02-.04-.04l-.04-.04s-.01-.01-.02-.01-.03-.03-.05-.05l-.02-.02s-.03-.02-.04-.03c-.02-.02-.04-.03-.06-.05h-.02c-.06-.06-.11-.1-.16-.14h-.01s-.04-.04-.06-.05c-.07-.05-.15-.11-.22-.15s-.02-.01-.03-.02-.05-.03-.07-.05l-.07-.04s-.03-.02-.05-.03c-.05-.03-.11-.06-.16-.09q-.195.705-.18 1.59v.06c0 .09 0 .18.01.27v.08c0 .04 0 .09.01.14v.08c0 .05 0 .11.02.17v.18s.02.05.02.08 0 .06.01.09c0 .03 0 .06.01.09 0 .03 0 .05.01.08.01.08.02.15.03.2.02.11.04.22.06.34.01.06.03.13.04.19.05.21.1.43.16.66.05.17.09.33.14.48.08.26.16.52.26.79.03.07.05.14.07.2.09.24.18.47.27.71.05.13.11.27.17.39.7.74 1.38 1.56 2.01 2.42.13-.19.26-.37.39-.53.44-.57.88-1.01 1.31-1.31-.15-.48-.32-.97-.5-1.43-.07-.18-.14-.36-.22-.54m-3.1-3.22c-.08.04-.17.05-.26.05s-.18-.02-.26-.05c-.17-.07-.3-.2-.37-.37a.67.67 0 0 1 0-.52c.07-.17.2-.3.37-.37.35-.14.75.02.9.37.14.35-.02.75-.37.9M18.21 13.92" class="cls-3"/></g></g></g></g><circle id="Dire_line" cx="16.55" cy="16.55" r="16.3" data-name="Dire line" style="fill:none;stroke:#231f20;stroke-miterlimit:10;stroke-width:.5px"/></svg>