<svg xmlns="http://www.w3.org/2000/svg" id="Layer_2" data-name="Layer 2" viewBox="0 0 33.1 33.1"><defs><clipPath id="clippath"><path d="M1.9 1.6h29.3v29.3H1.9z" class="cls-1"/></clipPath><clipPath id="clippath-1"><path d="M1.9 1.6h29.3v29.3H1.9z" class="cls-1"/></clipPath><style>.cls-1{fill:none}.cls-1,.cls-2,.cls-3{stroke-width:0}.cls-2{fill:#49b749}.cls-3{fill:#fff}</style></defs><circle id="Dire_line" cx="16.6" cy="16.2" r="16.3" class="cls-3" data-name="Dire line"/><g id="Tokens"><g id="Northwest" style="clip-path:url(#clippath)"><g style="clip-path:url(#clippath-1)"><path d="M4.8 21.9c1.9 1.3 5.4 1.3 9.3 0 .1-.1.3-.3.4-.5-2.3-.2-4.6-.8-6.6-1.6-1.5.5-2.5 1.2-3.2 2.1m2.1.2c0 .2-.2.3-.4.3-.1 0-.3 0-.4-.1-.2-.1-.3-.3-.3-.5s0-.4.1-.6c0-.1.2-.2.4-.2.3 0 .7.2.7.6 0 .2 0 .4-.1.5M7.3 26.5c2.3.5 4.1-.5 6.1-2.2-.1-.6 0-1.3.3-1.8-1.4.6-2.9.8-4.3 1-1.3 1.2-2 2.1-2.2 3m1.9-1.2c.2.3.1.8-.1.9h-.4c-.2 0-.4-.2-.5-.3 0-.2-.1-.3-.1-.5s.1-.3.3-.4c.3-.2.7 0 .9.3M24.8 15.3l.1-.1.1-.1.1-.1.1-.1.1-.1.1-.1.1-.1.2-.2s0-.1.1-.1 0 0 .1-.1l.1-.1.1-.1.1-.1v-.4l.2-.2v-.2s.1-.2.2-.2v-.1c0-.1.2-.2.2-.3v-.1s0-.2.1-.2 0 0 0-.1v-.2c0-.2.2-.3.2-.5v-.6h-.8c-.1 0 0 0 0 0h-.1c-.2 0-.4.2-.5.3h-.4c-.1 0-.3.2-.4.3l-.2.1h-.5c-.1 0-.2.2-.3.3l-.2.2s-.2.1-.2.2c0 0 0 .1-.1.1 0 0-.2.1-.2.2l-.1.1-.1.1c-.1 0-.2.2-.3.3l-.2.2-.1.1-.1.1-.2.2s-.1.2-.2.3c0 .1-.2.2-.2.3-1.6 1.8-3 3.9-4 6.1.7-.6 1.4-1.2 2.2-1.7 1.3-.9 2.6-1.6 4-2.1.3 0 .5-.2.8-.3m2.5-6.6c.1-.1.3-.2.5-.2s.4 0 .5.2c.3.3.3.7 0 1-.1.1-.3.2-.5.2s-.4 0-.5-.2c-.3-.3-.3-.7 0-1M15 18.9c-.3-.5-.6-1.1-.9-1.6H13c.1 0 .3.2.4.3.6.4 1.1.8 1.6 1.2" class="cls-2"/><path d="M22.2 12.1c.1-.2.2-.5.3-.7v-.2c0-.3.2-.6.3-.8 0-.2 0-.3.1-.5 0-.2.1-.5.2-.7V7.4c0-.7 0-1.2-.2-1.7 0 0-.1 0-.2.1 0 0-.1 0-.2.1 0 0 0 .1-.2.2l-.2.2-.2.2v.2s0 .1-.1.2c-.1.2-.2.4-.4.6 0 0 0 .2-.1.2 0 .1-.1.2-.2.4v.3c-.1.2-.2.4-.3.7 0 0 0 .2-.1.3 0 .1-.1.3-.2.4 0 .1-.1.3-.2.4v.2c.3.2.4.5.4.9v.3s.1 0 .2.1c.3.3.4.7.1 1-.2.3-.5.6-.9.7 0 .4 0 .9-.1 1.3v.1c-.2.2-.4.4-.8.6v.3s-.2.4-.2 1.1c0 .4 0 .8.2 1.2.5-1.1 1.2-2.2 1.9-3.2.8-1.2 1.7-2.2 2.6-3.2 0-.1.1-.3.2-.4m-2.1-4.4c0-.2.2-.3.4-.4h.6c.2 0 .3.2.4.4v.6c0 .2-.2.3-.4.4h-.6c-.4-.1-.5-.6-.4-.9M15.4 6.7c-.3 1.2-.5 2.7-.5 4.2.3.6.5 1.3.7 1.9h.2c.4-.2.8-.2 1.1-.2 0-.2.1-.3.1-.5-.4 0-.7-.4-.8-.8 0-.3 0-.5.2-.7s.4-.3.6-.4h.1c.5 0 .9.3 1 .8v.2-.2c0-3.1-.6-5.6-1.6-7-.5.6-1 1.6-1.3 2.7m2.1-.8c0 .4-.3.7-.7.7s-.7-.3-.7-.7.3-.7.7-.7.7.3.7.7M8.4 15.8c-.1 0-.2 0-.3-.1s0 0-.1 0h-.2s-.2-.1-.3-.1h-2c-.8 0-1.5 0-2.1.3v.1c0 .1.1.2.2.3l.1.1s.1 0 .1.1l.2.2s.2.1.2.2q1.35 1.05 3.3 1.8h.2c1.9.8 4.1 1.3 6.3 1.5 0-.2.2-.3.2-.5v-.5c-2-1.8-4.5-3.3-6.8-4Zm-3.2.5c-.1.3-.4.5-.6.5h-.2c-.2 0-.3-.2-.4-.4v-.5c0-.2.2-.3.4-.4h.5c.2 0 .3.2.4.4v.5M19.4 22.4c.3.6.5 1.2.3 1.8 2.1 1.7 3.8 2.6 6.1 2.2-.2-.9-.9-1.9-2.2-3-1.3-.2-2.9-.4-4.3-1m4.8 2.8c.2-.3.6-.5.9-.3s.4.6.1.9c-.1.2-.3.3-.5.3h-.4c-.3-.2-.4-.6-.1-.9M11.3 13.4s-.1-.2-.2-.3l-.2-.2-.1-.1v-.1l-.1-.1v-.1c-.3-.3-.5-.5-.8-.7 0 0 0-.1-.1-.2-.1 0-.2-.2-.3-.3l-.2-.2-.2-.2h-.2c-.2-.2-.5-.3-.7-.4s0 0-.1 0H8s-.1 0-.2-.1 0 0-.1 0h-.3c-.1 0-.3-.1-.4-.2h-.8v.5c0 .2.1.3.2.5v.2c0 .2.2.4.3.6v.1c0 .1.1.2.2.3v.1l.2.2v.4c.2.3.4.5.6.8.4.5.9.9 1.4 1.4.4.1.9.3 1.3.4q1.5.6 3 1.5-.15-.3 0-.6s0-.2.1-.2c0 0 0-.1.1-.2 0-.1.2-.3.3-.4-.5-.8-1.1-1.5-1.7-2.2ZM6 10.6c-.1.1-.3.2-.5.2s-.4 0-.5-.2c-.3-.3-.3-.7 0-1s.7-.3 1 0 .3.7 0 1M15.4 17.1c-.2 0-.5 0-.7.1.3.5.5 1 .8 1.4.1-1 0-1.5 0-1.5ZM18.9 21.7c2 .8 4 1.2 5.7 1.2s3.1-.3 4.1-1c-.6-.9-1.7-1.6-3.2-2.1-2 .8-4.4 1.4-6.8 1.6 0 0 .1.2.2.3m7.7-.1c0-.4.4-.7.7-.6.2 0 .3.1.4.3 0 .1.1.3.1.5s-.1.4-.3.5c-.1 0-.2.1-.4.1-.3 0-.6-.4-.5-.8M28.5 15.2h-2c-.3 0-.7.2-1.1.3-.1 0-.3 0-.4.1s0 0-.1 0c-2.3.9-4.6 2.3-6.5 4.1v.2s0 .2.1.2c0 .1.1.2.2.3 2.4-.2 4.7-.7 6.7-1.5h.1c.3-.2.6-.3 1-.4 0 0 .2 0 .2-.1.1 0 .3-.1.5-.2s.4-.2.6-.4c.1 0 .2-.1.3-.2.3-.2.5-.3.7-.5 0 0 .2-.1.2-.2 0 0 .2-.1.2-.2l.1-.1.1-.1v-.1c0-.1.1-.2.2-.3-.5-.2-1.2-.3-1.9-.3Zm.2.2h.5c.2 0 .3.2.4.4.1.4 0 .8-.3.9h-.2c-.3 0-.5-.2-.6-.5v-.5c0-.2.2-.3.4-.4" class="cls-2"/><path d="M14.3 11.1v-.4c0-.2-.2-.4-.3-.6 0-.2-.2-.4-.3-.5s0-.1 0-.1v-.2c-.1-.2-.2-.4-.4-.6v-.3s0-.1-.1-.2v-.3c-.1-.2-.3-.3-.4-.5l-.3-.3s-.1-.1-.2-.1c0 0-.2-.1-.2-.2h-.2c-.1.5-.2 1-.2 1.7v1.8c0 .2.1.4.2.7 0 .2 0 .3.1.5 0 .3.2.5.3.8v.2c0 .3.2.5.3.7 0 .1.1.3.2.4.7.8 1.4 1.6 2.1 2.5.1-.2.3-.4.4-.6.5-.6.9-1.1 1.4-1.4-.2-.5-.3-1-.5-1.5 0-.2-.1-.4-.2-.6m-4.9-4.3h-.6c-.2 0-.3-.2-.4-.4s0-.4 0-.5c0-.2.2-.3.4-.4.4-.1.8 0 .9.4s0 .8-.4.9" class="cls-2"/><path d="M18.3 13.5" class="cls-3"/></g></g></g></svg>