<svg xmlns="http://www.w3.org/2000/svg" id="Layer_2" data-name="Layer 2" viewBox="0 0 33.1 33.1"><defs><clipPath id="clippath"><path d="M1.34 0h30.43v30.43H1.34z" class="cls-1"/></clipPath><clipPath id="clippath-1"><path d="M1.34 0h30.43v30.43H1.34z" class="cls-1"/></clipPath><style>.cls-1,.cls-3{stroke-width:0}.cls-1{fill:none}.cls-3{fill:#fff}</style></defs><g id="Tokens"><g id="Punjab"><circle cx="16.55" cy="16.55" r="16.3" style="stroke-width:0;fill:#acbd39"/><g style="clip-path:url(#clippath)"><g style="clip-path:url(#clippath-1)"><path d="M21.62 9.88c-3.4 1.19-7.59.26-8.89-.06a8.65 8.65 0 0 1 3.94-1.27v-.94c0-.16.13-.29.3-.29h.92c.16 0 .3.13.3.29v.97c1.37.15 2.33.58 3.44 1.3" class="cls-3"/><path d="M30.96 13.26c-.23-1.78-1.88-2.47-3.46-2.3-1.25.14-2.47 1.51-2.8 1.91-.72-1.2-1.64-1.91-2.8-2.66-3.64 1.53-8.27.23-9.57-.1-2.18 1.35-3.46 3.33-3.92 6.02-.02.14-.19.21-.31.13-.95-.67-1.38-1.75-2.48-2.72-.42-.38-1.53-.7-2.04-.84a.203.203 0 0 0-.26.2l.02.8c0 .11.08.2.19.23.4.09 1.33.42 1.75 1.54.38 1.01.77 3.5 1.92 5.14 1.9 2.7 4.95 3.64 7.67 3.88 4.49.4 7.41 0 8.65-.51.99-.41 1.59-.95 1.96-1.64.23.15.57.25 1.07.25.26 0-.83-.26-.7-1.27.02-.14.04-.27.07-.39.22-.87.74-1.26 1.49-1.89 3.14-2.65 3.82-3.62 3.54-5.76m-7.33 9.4c-.08.17-.31.24-.52.24-.07.15-.17.29-.3.34-5.29 2.02-8.25-2.99-8.25-2.99s1.74-.88 4.26-.28c-1.32-2.17-.92-4.68-.92-4.68s2.16.33 3.9 2.45c.52-1.72 1.63-2.91 1.63-2.91s2.67 2.73.2 7.84m4.46-5.35c-.81.68-1.51 1.39-2.03 2.05.01-.5 0-1.04 0-1.61 0-1.47-.33-2.86-.92-4.09.37-.49 1.15-1.23 2.45-1.33 1.25-.1 1.89.22 2.19 1.3.45 1.63-.38 2.58-1.71 3.69" class="cls-3"/></g></g></g></g><circle id="Dire_line" cx="16.55" cy="16.55" r="16.3" data-name="Dire line" style="fill:none;stroke:#231f20;stroke-miterlimit:10;stroke-width:.5px"/></svg>