<svg xmlns="http://www.w3.org/2000/svg" id="Layer_2" data-name="Layer 2" viewBox="0 0 33.1 33.1"><defs><clipPath id="clippath"><path d="M.2 0h30.4v30.4H.2z" class="cls-1"/></clipPath><clipPath id="clippath-1"><path d="M.2 0h30.4v30.4H.2z" class="cls-1"/></clipPath><style>.cls-1,.cls-2{fill:none}.cls-1,.cls-2,.cls-3{stroke-width:0}.cls-2{stroke:#abbe39;stroke-miterlimit:10}.cls-3{fill:#abbe39}</style></defs><circle id="Dire_line" cx="16.5" cy="16.5" r="16.3" data-name="Dire line" style="stroke-width:0;fill:#fff"/><g id="Tokens"><g id="Punjab" style="clip-path:url(#clippath)"><g style="clip-path:url(#clippath-1)"><path d="M20.5 9.9c-3.4 1.2-7.6.3-8.9 0 1.2-.7 2.5-1.2 3.9-1.3v-.9q0-.3.3-.3h.9q.3 0 .3.3v1c1.4.1 2.3.6 3.4 1.3" class="cls-3"/><path d="M20.5 9.9c-3.4 1.2-7.6.3-8.9 0 1.2-.7 2.5-1.2 3.9-1.3v-.9q0-.3.3-.3h.9q.3 0 .3.3v1c1.4.1 2.3.6 3.4 1.3Z" class="cls-2"/><path d="M29.9 13.3c-.2-1.8-1.9-2.5-3.5-2.3-1.2.1-2.5 1.5-2.8 1.9-.7-1.2-1.6-1.9-2.8-2.7-3.6 1.5-8.3.2-9.6-.1-2.2 1.4-3.5 3.3-3.9 6 0 .1-.2.2-.3.1-.9-.7-1.4-1.8-2.5-2.7-.4-.4-1.5-.7-2-.8-.1 0-.3 0-.3.2v.8c0 .1 0 .2.2.2.4 0 1.3.4 1.7 1.5.4 1 .8 3.5 1.9 5.1 1.9 2.7 4.9 3.6 7.7 3.9 4.5.4 7.4 0 8.6-.5 1-.4 1.6-1 2-1.6.2.1.6.2 1.1.2s-.8-.3-.7-1.3v-.4c.2-.9.7-1.3 1.5-1.9 3.1-2.6 3.8-3.6 3.5-5.8m-7.2 9.6c0 .2-.3.2-.5.2 0 .1-.2.3-.3.3-5.3 2-8.2-3-8.2-3s1.7-.9 4.3-.3c-1.3-2.2-.9-4.7-.9-4.7s2.2.3 3.9 2.5c.5-1.7 1.6-2.9 1.6-2.9s2.7 2.7.2 7.8m4.4-5.3c-.8.7-1.5 1.4-2 2v-1.6c0-1.5-.3-2.9-.9-4.1.4-.5 1.1-1.2 2.5-1.3 1.2-.1 1.9.2 2.2 1.3.5 1.6-.4 2.6-1.7 3.7" class="cls-3"/><path d="M29.9 13.3c-.2-1.8-1.9-2.5-3.5-2.3-1.2.1-2.5 1.5-2.8 1.9-.7-1.2-1.6-1.9-2.8-2.7-3.6 1.5-8.3.2-9.6-.1-2.2 1.4-3.5 3.3-3.9 6 0 .1-.2.2-.3.1-.9-.7-1.4-1.8-2.5-2.7-.4-.4-1.5-.7-2-.8-.1 0-.3 0-.3.2v.8c0 .1 0 .2.2.2.4 0 1.3.4 1.7 1.5.4 1 .8 3.5 1.9 5.1 1.9 2.7 4.9 3.6 7.7 3.9 4.5.4 7.4 0 8.6-.5 1-.4 1.6-1 2-1.6.2.1.6.2 1.1.2s-.8-.3-.7-1.3v-.4c.2-.9.7-1.3 1.5-1.9 3.1-2.6 3.8-3.6 3.5-5.8Zm-7.4 9.4c0 .2-.3.2-.5.2 0 .1-.2.3-.3.3-5.3 2-8.2-3-8.2-3s1.7-.9 4.3-.3c-1.3-2.2-.9-4.7-.9-4.7s2.2.3 3.9 2.5c.5-1.7 1.6-2.9 1.6-2.9s2.7 2.7.2 7.8Zm4.5-5.4c-.8.7-1.5 1.4-2 2v-1.6c0-1.5-.3-2.9-.9-4.1.4-.5 1.1-1.2 2.5-1.3 1.2-.1 1.9.2 2.2 1.3.5 1.6-.4 2.6-1.7 3.7Z" class="cls-2"/></g></g></g></svg>