<svg xmlns="http://www.w3.org/2000/svg" id="Layer_2" data-name="Layer 2" viewBox="0 0 33.1 33.1"><defs><clipPath id="clippath"><path d="M4.69 5.59h23.72v23.72H4.69z" class="cls-2"/></clipPath><clipPath id="clippath-1"><path d="M4.69 5.59h23.72v23.72H4.69z" class="cls-2"/></clipPath><style>.cls-2,.cls-3{stroke-width:0}.cls-2{fill:none}.cls-3{fill:#fff}</style></defs><g id="Tokens"><g id="South_indian" data-name="South indian"><circle cx="16.55" cy="16.55" r="16.3" style="fill:#733a30;stroke-width:0"/><g style="clip-path:url(#clippath)"><g style="clip-path:url(#clippath-1)"><path d="m24.91 10.87-1.85-1.85 2.24-2.24c1.19.01 1.76.68 1.85 1.85zM22.56 9.53l-9.33 9.32-.02.86a.977.977 0 0 0 1.01 1.01l.86-.02 9.33-9.32zm-2.31 5.78-.17.17c-.06.06-.15.06-.2 0l-1.46-1.46c-.06-.06-.06-.15 0-.2l.17-.17c.06-.06.15-.06.2 0l1.46 1.46c.06.06.06.15 0 .2m-1.63 1.64-.17.17c-.06.06-.15.06-.2 0l-1.46-1.46c-.06-.06-.06-.15 0-.2l.17-.17c.06-.06.15-.06.2 0l1.46 1.46c.06.06.06.15 0 .2m-1.63 1.62-.17.17c-.06.06-.15.06-.2 0l-1.46-1.46c-.06-.06-.06-.15 0-.2l.17-.17c.06-.06.15-.06.2 0l1.46 1.46c.06.06.06.15 0 .2m-1.59 1.6-.17.17c-.06.06-.15.06-.2 0l-1.46-1.46c-.06-.06-.06-.15 0-.2l.17-.17c.06-.06.15-.06.2 0l1.46 1.46c.06.06.06.15 0 .2m6.66-6.67-.17.17c-.06.06-.15.06-.2 0l-1.46-1.46c-.06-.06-.06-.15 0-.2l.17-.17c.06-.06.15-.06.2 0l1.46 1.46c.06.06.06.15 0 .2m1.71-1.7-.17.17c-.06.06-.15.06-.2 0l-1.46-1.46c-.06-.06-.06-.15 0-.2l.17-.17c.06-.06.15-.06.2 0l1.46 1.46c.06.06.06.15 0 .2" class="cls-3"/><path d="M14.79 21.17s-.7 0-.95-.01c-.42 0-.8-.32-.8-.32s-.31-.38-.31-.78v-.93s-4.13-.66-5.66.99-1.21 2.8-.76 3.67.98 1.53.98 1.53l-.57.62.6.61.63.63.62-.57s.68.55 1.58 1.03c.89.48 2.08.82 3.73-.7 1.65-1.53.9-5.74.9-5.74m-4.32 5.05-2.89-2.89.74-.74 2.89 2.89zm.74-1.61-2.11-2.11.81-.8 2.11 2.11-.8.8ZM13.65 17.59c.18.18.11.56-.17.83s-.65.35-.83.17-.11-.56.17-.83.65-.35.83-.17M15.24 16c.18.18.11.56-.17.83-.28.28-.65.35-.83.17s-.11-.56.17-.83c.28-.28.65-.35.83-.17M16.87 14.37c.18.18.11.56-.17.83-.28.28-.65.35-.83.17s-.11-.56.17-.83c.28-.28.65-.35.83-.17M18.5 12.74c.18.18.11.56-.17.83-.28.28-.65.35-.83.17s-.11-.56.17-.83c.28-.28.65-.35.83-.17M20.31 10.93c.18.18.11.56-.17.83-.28.28-.65.35-.83.17s-.11-.56.17-.83c.28-.28.65-.35.83-.17M21.92 9.32c.18.18.11.56-.17.83-.28.28-.65.35-.83.17s-.11-.56.17-.83c.28-.28.65-.35.83-.17M23.7 7.54c.18.18.11.56-.17.83-.28.28-.65.35-.83.17s-.11-.56.17-.83c.28-.28.65-.35.83-.17M24.91 6.33c.18.18.11.56-.17.83-.28.28-.65.35-.83.17s-.11-.56.17-.83c.28-.28.65-.35.83-.17M26.41 10.24c.18.18.11.56-.17.83-.28.28-.65.35-.83.17s-.11-.56.17-.83c.28-.28.65-.35.83-.17M27.61 9.04c.18.18.11.56-.17.83-.28.28-.65.35-.83.17s-.11-.56.17-.83c.28-.28.65-.35.83-.17" class="cls-3"/></g></g></g></g><circle id="Dire_line" cx="16.55" cy="16.55" r="16.3" data-name="Dire line" style="fill:none;stroke:#231f20;stroke-miterlimit:10;stroke-width:.5px"/></svg>