<svg xmlns="http://www.w3.org/2000/svg" id="Layer_2" data-name="Layer 2" viewBox="0 0 33.1 33.1"><defs><clipPath id="clippath"><path d="M4.7 5.6h23.7v23.7H4.7z" class="cls-2"/></clipPath><clipPath id="clippath-1"><path d="M4.7 5.6h23.7v23.7H4.7z" class="cls-2"/></clipPath><style>.cls-1,.cls-2{fill:#753a30;stroke-width:0}.cls-2{fill:none}</style></defs><circle id="Dire_line" cx="16.5" cy="16.5" r="16.3" data-name="Dire line" style="stroke-width:0;fill:#fff"/><g id="Tokens"><g id="South_indian" data-name="South indian" style="clip-path:url(#clippath)"><g style="clip-path:url(#clippath-1)"><path d="M24.9 10.9 23 9l2.2-2.2c1.2 0 1.8.7 1.9 1.9zM22.6 9.5l-9.3 9.3v.9c0 .6.4 1 1 1h.9l9.3-9.3s-1.9-1.9-1.9-1.8Zm-2.4 5.8-.2.2h-.2L18.3 14v-.2l.2-.2h.2l1.5 1.5zM18.6 17l-.2.2h-.2l-1.5-1.5v-.2l.2-.2h.2l1.5 1.5zM17 18.6l-.2.2h-.2l-1.5-1.5v-.2l.2-.2h.2l1.5 1.5zm-1.6 1.6-.2.2H15l-1.5-1.5v-.2l.2-.2h.2l1.5 1.5zm6.7-6.7-.2.2h-.2l-1.5-1.5V12l.2-.2h.2l1.5 1.5zm1.7-1.7-.2.2h-.2l-1.5-1.5v-.2l.2-.2h.2l1.5 1.5z" class="cls-1"/><path d="M14.8 21.2h-.9c-.4 0-.8-.3-.8-.3s-.3-.4-.3-.8v-.9s-4.1-.7-5.7 1-1.2 2.8-.8 3.7 1 1.5 1 1.5l-.6.6.6.6.6.6.6-.6s.7.5 1.6 1 2.1.8 3.7-.7.9-5.7.9-5.7m-4.2 5-2.9-2.9.7-.7 2.9 2.9zm.7-1.6-2.1-2.1.8-.8 2.1 2.1zM13.6 17.6c.2.2.1.6-.2.8s-.6.4-.8.2-.1-.6.2-.8.6-.4.8-.2M15.2 16c.2.2.1.6-.2.8-.3.3-.6.4-.8.2s-.1-.6.2-.8c.3-.3.6-.4.8-.2M16.9 14.4c.2.2.1.6-.2.8-.3.3-.6.4-.8.2s-.1-.6.2-.8c.3-.3.6-.4.8-.2M18.5 12.7c.2.2.1.6-.2.8-.3.3-.6.4-.8.2s-.1-.6.2-.8c.3-.3.6-.4.8-.2M20.3 10.9c.2.2.1.6-.2.8-.3.3-.6.4-.8.2s-.1-.6.2-.8c.3-.3.6-.4.8-.2M21.9 9.3c.2.2.1.6-.2.8-.3.3-.6.4-.8.2s-.1-.6.2-.8c.3-.3.6-.4.8-.2M23.7 7.5c.2.2.1.6-.2.8-.3.3-.6.4-.8.2s-.1-.6.2-.8c.3-.3.6-.3.8-.2M24.9 6.3c.2.2.1.6-.2.8-.3.3-.6.3-.8.2s-.1-.6.2-.8c.3-.3.6-.3.8-.2M26.4 10.2c.2.2.1.6-.2.8-.3.3-.6.4-.8.2s-.1-.6.2-.8c.3-.3.6-.4.8-.2M27.6 9c.2.2.1.6-.2.8-.3.3-.6.4-.8.2s-.1-.6.2-.8c.3-.3.6-.4.8-.2" class="cls-1"/></g></g></g></svg>