<svg xmlns="http://www.w3.org/2000/svg" id="Layer_2" data-name="Layer 2" viewBox="0 0 33.1 33.1"><defs><clipPath id="clippath"><path d="M2.36 2.87h28.37v28.37H2.36z" class="cls-1"/></clipPath><clipPath id="clippath-1"><path d="M2.36 2.87h28.37v28.37H2.36z" class="cls-1"/></clipPath><style>.cls-1,.cls-3{fill:none;stroke-width:0}.cls-3{fill:#fff}</style></defs><g id="Tokens"><g id="Sind_Punjab" data-name="Sind Punjab"><circle cx="16.55" cy="16.55" r="16.3" style="stroke-width:0;fill:#ceb984"/><g style="clip-path:url(#clippath)"><g style="clip-path:url(#clippath-1)"><path d="M16.28 22.91c-6.02 0-11.04-4.31-12.26-10.05-.18.87-.28 1.77-.28 2.69 0 7.04 5.61 12.74 12.54 12.74s12.54-5.7 12.54-12.74c0-.92-.1-1.82-.28-2.69-1.22 5.74-6.24 10.05-12.26 10.05" class="cls-3"/><path d="M22.53 11.84c-.49 0-.91.27-1.08.65h-.63c-.09-.9-.48-1.72-1.09-2.36l.46-.53c.13.05.27.07.42.07.64 0 1.16-.46 1.16-1.02s-.52-1.02-1.16-1.02-1.16.46-1.16 1.02c0 .18.05.35.14.49l-.42.48c-.68-.52-1.54-.85-2.47-.93v-.72c.45-.14.78-.52.78-.97 0-.56-.52-1.02-1.16-1.02s-1.16.46-1.16 1.02c0 .45.33.83.78.97v.72a4.7 4.7 0 0 0-2.02.63l-.52-.69a.96.96 0 0 0 .23-.61c0-.56-.52-1.02-1.16-1.02s-1.16.46-1.16 1.02.52 1.02 1.16 1.02c.1 0 .2-.01.29-.03l.55.73c-.65.54-1.13 1.25-1.36 2.06l-.82-.17c-.11-.47-.57-.82-1.13-.82-.64 0-1.16.46-1.16 1.02s.52 1.02 1.16 1.02c.42 0 .79-.2.99-.49l.84.17c0 .11-.01.21-.01.32 0 .79.24 1.53.65 2.16l-.67.58a1.3 1.3 0 0 0-.48-.09c-.64 0-1.16.46-1.16 1.02s.52 1.02 1.16 1.02 1.16-.46 1.16-1.02c0-.15-.04-.3-.11-.43l.57-.49c.75.79 1.81 1.32 3.01 1.41v.72c-.46.14-.78.52-.78.97 0 .56.52 1.02 1.16 1.02s1.16-.46 1.16-1.02c0-.45-.33-.83-.78-.97v-.72c.93-.07 1.77-.4 2.46-.92l.45.45a.94.94 0 0 0-.16.52c0 .56.52 1.02 1.16 1.02s1.16-.46 1.16-1.02-.52-1.02-1.16-1.02c-.14 0-.27.02-.4.06l-.5-.5c.61-.65 1.02-1.47 1.1-2.38h.63c.17.38.59.65 1.08.65.64 0 1.16-.46 1.16-1.02s-.52-1.02-1.16-1.02m-6.19 3.91c-1.76 0-3.19-1.29-3.19-2.88s1.43-2.88 3.19-2.88 3.19 1.29 3.19 2.88-1.43 2.88-3.19 2.88" class="cls-3"/></g></g></g></g><circle id="Dire_line" cx="16.55" cy="16.55" r="16.3" data-name="Dire line" style="fill:none;stroke:#231f20;stroke-miterlimit:10;stroke-width:.5px"/></svg>