<svg xmlns="http://www.w3.org/2000/svg" id="Layer_2" data-name="Layer 2" viewBox="0 0 33.1 33.1"><defs><clipPath id="clippath"><path d="M1.2 2.2h30.6v30.6H1.2z" class="cls-1"/></clipPath><clipPath id="clippath-1"><path d="M1.2 2.2h30.6v30.6H1.2z" class="cls-1"/></clipPath><style>.cls-1,.cls-2{fill:none;stroke-width:0}.cls-2{fill:#c7b389}</style></defs><circle id="Dire_line" cx="16.5" cy="16.5" r="16.3" data-name="Dire line" style="stroke-width:0;fill:#fff"/><g id="Tokens"><g id="Sind_Punjab" data-name="Sind Punjab" style="clip-path:url(#clippath)"><g style="clip-path:url(#clippath-1)"><path d="M16.3 23.9c-6.5 0-11.9-4.7-13.2-10.8-.2.9-.3 1.9-.3 2.9 0 7.6 6.1 13.8 13.5 13.8S29.8 23.6 29.8 16s-.1-2-.3-2.9c-1.3 6.2-6.7 10.8-13.2 10.8" class="cls-2"/><path d="M23 11.9c-.5 0-1 .3-1.2.7h-.7c0-1-.5-1.9-1.2-2.5l.5-.6h.5c.7 0 1.3-.5 1.3-1.1s-.6-1.1-1.3-1.1-1.3.5-1.3 1.1 0 .4.2.5l-.5.5c-.7-.6-1.7-.9-2.7-1v-.8c.5-.2.8-.6.8-1s-.6-1.1-1.3-1.1-1.3.5-1.3 1.1.4.9.8 1v.8c-.8 0-1.5.3-2.2.7l-.6-.7c.2-.2.2-.4.2-.7 0-.6-.6-1.1-1.3-1.1s-1.3.5-1.3 1.1.6 1.1 1.3 1.1h.3l.6.8c-.7.6-1.2 1.3-1.5 2.2l-.9-.2c-.1-.5-.6-.9-1.2-.9s-1.3.5-1.3 1.1.6 1.1 1.3 1.1.9-.2 1.1-.5l.9.2v.3c0 .9.3 1.7.7 2.3l-.7.6h-.5c-.7 0-1.3.5-1.3 1.1s.6 1.1 1.3 1.1 1.3-.5 1.3-1.1 0-.3-.1-.5l.6-.5c.8.9 2 1.4 3.2 1.5v.8c-.5.2-.8.6-.8 1s.6 1.1 1.3 1.1 1.3-.5 1.3-1.1-.4-.9-.8-1v-.8c1 0 1.9-.4 2.7-1l.5.5c-.1.2-.2.4-.2.6 0 .6.6 1.1 1.3 1.1s1.3-.5 1.3-1.1-.6-1.1-1.3-1.1h-.4l-.5-.5c.7-.7 1.1-1.6 1.2-2.6h.7c.2.4.6.7 1.2.7s1.3-.5 1.3-1.1-.6-1.1-1.3-1.1m-6.7 4.3c-1.9 0-3.4-1.4-3.4-3.1s1.5-3.1 3.4-3.1 3.4 1.4 3.4 3.1-1.5 3.1-3.4 3.1" class="cls-2"/></g></g></g></svg>