<svg xmlns="http://www.w3.org/2000/svg" id="Layer_2" data-name="Layer 2" viewBox="0 0 33.1 33.1"><defs><clipPath id="clippath"><path d="M2.4 2.3H33v30.6H2.4z" class="cls-2"/></clipPath><clipPath id="clippath-1"><path d="M2.4 2.3H33v30.6H2.4z" class="cls-2"/></clipPath><style>.cls-2{stroke-width:0;fill:none}</style></defs><circle id="Dire_line" cx="16.5" cy="16.5" r="16.3" data-name="Dire line" style="stroke-width:0;fill:#fff"/><g id="Tokens"><g id="Tirhoot" style="clip-path:url(#clippath)"><g style="clip-path:url(#clippath-1)"><path d="M25.1 19.1c1.4-.8 1.4-2.6 1.4-2.6-2.2.4-2.9 1.2-3.1 1.9 0 .3-.3.7-.5.9-.4.3-.9.6-1.7.7-1.2.2-3.5.3-3.8 1 0 .1-.5-1.2-.7-2.3-.1-.6-.2-1.1-.2-1.7 0-.3 0-.6.3-.9.7-.9 1.9-1.9 4.2-2.1.3 0 .7-.2 1-.4 0 1.2 1.1 2.2 1.1 2.2 1-1.2 1.1-2.1.9-2.7.8.3 2 .3 3.2-1.4 0 0-2-.9-3.4-.2 0-1.4-1.5-2.5-1.5-2.5-.7 1.2-.7 2-.6 2.5-.6 0-1.3 0-2.2.3 0 0 .6 1 1.9 1.3-.2 0-.4.1-.5.2-.1 0-1.7 0-2.7.6-.5.3-1 .7-1.4 1-.1 0-.3 0-.3-.1 0-.8 0-1.5-.3-2.1-1-2.2-.9-1.1-.9-2s0-.9.2-1.5c.5 1.2 3 1.2 3 1.2-.2-1.6-1.2-2-2-2 .9-.8.9-2.8.9-2.8-2 .2-2.3 1.6-2.2 2.5-.7-1-3-.8-3-.8.5 2 2.2 1.9 2.9 1.7-.2.4-.3.8-.4 1.1v.1c0 .1-.2.2-.3.1h-.9c-.9-.2-1.6-.5-2.4-1l-.8-.4c1.1-.4 1.8-2.1 1.8-2.1-1.7-.3-2.4.4-2.7 1C8.9 6.8 7 6.3 7 6.3c-.3 1.8.9 2.4 1.7 2.5-1 .7-1.1 2.5-1.1 2.5 2.2-.2 2.3-1.5 2.3-2.2l1.2.9c.8.5 1.6.9 2.3 1 .7 0 1.3.5 1.7 1 .1.2.2.3.2.3s0 .2.3.7c.5 1.2-.1 3.3 0 5.2 0 .1-.1.2-.2.2-.8 0-1.2.1-2.6-1.5-.5-.6-.8-1-1.1-1.3.6-.3 1.2-1.1.8-3 0 0-1.5.5-2 1.7-.4-.5-1.2-.9-2.8-.9 0 0 .3 2 1.9 2.4-1.1.5-1.8 2-1.8 2 2.6.7 3.2-.9 3.3-1.6.3.4.5.7.7.8 1.2 1 1.5 2.5 3.1 2.5.5 0 1 .3 1.2.8.2.7.5 1.4.7 2.1 0 .1.1 0-1.2 0-.6 0-2-.3-3.4-.2.6-1.2-.7-2.9-.7-2.9-1.4 1.1-1.3 2.1-.9 2.8-1-.9-3.2-.4-3.2-.4.7 1.5 1.7 1.7 2.5 1.7-.3 1 0 2.2 0 2.2 1.1-.4 1.6-.9 1.7-1.5.4.4 1.1.7 2.2 1 0 0 0-1.5-.9-2.3.9 0 1.7.2 2 .2h.2c.5 0 .9.1 1.9.5 0 0 .1 0 .1.1.2.6.3 1.2.4 1.8 0 .7-.8 2.7-1.2 3.3 0 0 0 .2.1.2h2s.1 0 .2-.1c.1-.5.7-2.6.5-3.6 0-.2-.3-1.4-.9-2.9-.3-.9 1.4-1.2 2.7-1.5.5 0 .9-.2 1.3-.4-.2.6-.1 1.5.6 2.7 0 0 1.5-1.1 1.6-2.4 1.2 1.2 3.4.5 3.4.5-.9-1.6-1.8-2-2.6-2" style="fill:#000;stroke-width:0"/></g></g></g></svg>