<svg xmlns="http://www.w3.org/2000/svg" id="Layer_2" data-name="Layer 2" viewBox="0 0 33.1 33.1"><defs><clipPath id="clippath"><path d="M1.06.25h30.99v30.99H1.06z" class="cls-2"/></clipPath><clipPath id="clippath-2"><path d="M1.06.25h30.99v30.99H1.06z" class="cls-2"/></clipPath><style>.cls-2,.cls-3{stroke-width:0}.cls-2{fill:none}.cls-3{fill:#fff}</style></defs><g id="Tokens"><g id="West_of_Port" data-name="West of Port"><circle cx="16.55" cy="16.55" r="16.3" style="fill:#f16882;stroke-width:0"/><g style="clip-path:url(#clippath)"><path d="m14.8 18.14.01.06v-.07z" class="cls-3"/><path d="m14.81 18.13-.01.01.01.06h.01v-.07z" class="cls-3"/><path d="M29.5 14.31c-1.93 1.57-5.75 1.68-9.19 1.99-.08 0-.16.01-.23.02l-1.65-5.63a.405.405 0 0 0-.39-.29c-.04 0-.08 0-.12.02a.41.41 0 0 0-.28.51l1.6 5.45c-.08 0-.16 0-.24.01-1.32.07-2.72.06-4.19 0h-.53l-.02-.07-1.65-5.63a.405.405 0 0 0-.39-.29c-.04 0-.08 0-.12.02a.41.41 0 0 0-.28.51l1.6 5.44c-5.74-.28-7.97-2.28-8.3-4.69 0-1.01.38-1.08 1.32-.14 0-2.33-2.23-1.62-2.79-.11-.56 1.52-.67 4.33.86 6.59 1.84 2.35 4.69 3.44 9.3 3.63l.6 2.04c.19.64.79 1.09 1.45 1.09.14 0 .29-.02.43-.06.39-.11.71-.37.9-.73s.24-.77.12-1.15l-.33-1.12c.44 0 .87.05 1.34.03.43-.02.9-.01 1.29-.07l.59 2.02c.19.64.79 1.09 1.45 1.09.14 0 .29-.02.43-.06.39-.11.71-.37.9-.73s.24-.77.12-1.15l-.43-1.47c.5-.24 1.72-.84 1.78-.87 2.98-1.42 3.69-3.17 4.65-5.04 0 0 .54-.54.68-.91a.196.196 0 0 0-.31-.22m-14.66 3.79v.06l-.02-.06zm2.29 4.76c.2.68-.19 1.4-.87 1.6-.12.04-.24.05-.36.05-.17 0-.34-.04-.5-.1-.03-.01-.06-.03-.09-.04-.03-.02-.06-.03-.09-.05-.01 0-.03-.02-.04-.03-.07-.05-.14-.1-.2-.16a.6.6 0 0 1-.07-.08c-.02-.03-.04-.05-.06-.08l-.06-.09c-.01-.02-.03-.05-.04-.07s-.02-.05-.03-.07c-.02-.05-.04-.1-.05-.15l-.58-1.96-.07-.23-.41-1.41a1.31 1.31 0 0 1 .49-1.42l.07.25c.02.06.04.11.08.15 0 0 .01.02.02.02a.4.4 0 0 0 .29.12c.04 0 .08 0 .12-.02a.41.41 0 0 0 .28-.51l-.07-.25c.08 0 .17.02.25.04.07.02.13.04.2.07.03.01.06.03.09.04.03.02.06.03.09.05.01 0 .03.02.04.03.07.05.14.1.2.16s.11.13.16.2c.02.02.03.05.04.07l.03.06a.3.3 0 0 1 .04.1l.03.1.4 1.38.65 2.22Zm3.53-4.76v.06l-.02-.06zm2.28 4.76c.2.68-.19 1.4-.87 1.6-.12.04-.24.05-.36.05-.17 0-.34-.04-.5-.1-.03-.01-.06-.03-.09-.04-.03-.02-.06-.03-.09-.05-.01 0-.03-.02-.04-.03-.07-.05-.14-.1-.2-.16a.6.6 0 0 1-.07-.08c-.02-.03-.04-.05-.06-.08l-.06-.09c-.01-.02-.03-.05-.04-.07s-.02-.05-.03-.07c-.02-.05-.04-.1-.05-.15l-.64-2.19-.41-1.41a1.31 1.31 0 0 1 .49-1.42l.07.25c.02.06.04.11.08.15 0 0 .01.02.02.02a.4.4 0 0 0 .29.12c.04 0 .08 0 .12-.02a.41.41 0 0 0 .28-.51l-.07-.25c.08 0 .17.02.25.04.07.02.13.04.2.07.03.01.06.03.09.04.03.02.06.03.09.05.01 0 .03.02.04.03.07.05.14.1.2.16s.11.13.16.2c.02.02.03.05.04.07l.03.06a.3.3 0 0 1 .04.1l.03.1.4 1.38.23.78.42 1.44Z" class="cls-3" style="clip-path:url(#clippath-2)"/></g></g></g><circle id="Dire_line" cx="16.55" cy="16.55" r="16.3" data-name="Dire line" style="fill:none;stroke:#231f20;stroke-miterlimit:10;stroke-width:.5px"/></svg>