<svg xmlns="http://www.w3.org/2000/svg" id="Layer_2" data-name="Layer 2" viewBox="0 0 33.1 33.1"><defs><clipPath id="clippath"><path d="M.6.2h31.9v31.9H.6z" class="cls-1"/></clipPath><clipPath id="clippath-1"><path d="M.6.2h31.9v31.9H.6z" class="cls-1"/></clipPath><style>.cls-1,.cls-2{fill:none;stroke-width:0}.cls-2{fill:#f16983}</style></defs><circle id="Dire_line" cx="16.5" cy="16.5" r="16.3" data-name="Dire line" style="stroke-width:0;fill:#fff"/><g id="Tokens"><g id="West_of_Port" data-name="West of Port" style="clip-path:url(#clippath)"><path d="M14.7 18.7h.1zM14.8 18.7h-.1z" class="cls-2"/><path d="M29.9 14.7c-2 1.6-5.9 1.7-9.5 2h-.2l-1.7-5.8c0-.2-.2-.3-.4-.3H18c-.2 0-.4.3-.3.5l1.6 5.6h-5.1l-1.7-5.9c0-.2-.2-.3-.4-.3H12c-.2 0-.4.3-.3.5l1.6 5.6c-5.9-.3-8.2-2.3-8.5-4.8 0-1 .4-1.1 1.4-.1 0-2.4-2.3-1.7-2.9-.1s-.7 4.5.9 6.8c1.9 2.4 4.8 3.5 9.6 3.7l.6 2.1c.2.7.8 1.1 1.5 1.1h.4c.4-.1.7-.4.9-.8s.2-.8.1-1.2l-.3-1.2h2.7l.6 2.1c.2.7.8 1.1 1.5 1.1h.4c.4-.1.7-.4.9-.8s.2-.8.1-1.2l-.4-1.5c.5-.2 1.8-.9 1.8-.9 3.1-1.5 3.8-3.3 4.8-5.2 0 0 .6-.6.7-.9 0-.2-.2-.4-.3-.2m-12.7 9c.2.7-.2 1.4-.9 1.6h-.4c-.2 0-.4 0-.5-.1l-.2-.2c-.1-.1 0 0 0 0v-.2l-.6-2v-.2L14 21c-.1-.5 0-1 .3-1.3l.2-.2v.3l.2.2s.2.1.3.1h.1c.2 0 .4-.3.3-.5v-.3h.4l.2.2.2.2v.3l.4 1.4.7 2.3Zm6 0c.2.7-.2 1.4-.9 1.6h-.4c-.2 0-.4 0-.5-.1l-.2-.2v-.2l-.7-2.3-.4-1.5c-.1-.5 0-1 .3-1.3l.2-.2v.3l.2.2s.2.1.3.1h.1c.2 0 .4-.3.3-.5v-.3h.4l.2.2.2.2v.2l.4 1.4.2.8.4 1.5Z" class="cls-2" style="clip-path:url(#clippath-1)"/></g></g></svg>