<svg xmlns="http://www.w3.org/2000/svg" id="Layer_2" data-name="Layer 2" viewBox="0 0 33.1 33.1"><defs><clipPath id="clippath"><path d="M5.22 5.21h22.67v22.67H5.22z" class="cls-2"/></clipPath><clipPath id="clippath-1"><path d="M5.22 5.21h22.67v22.67H5.22z" class="cls-2"/></clipPath><style>.cls-2,.cls-3{stroke-width:0}.cls-2{fill:none}.cls-3{fill:#fff}</style></defs><g id="Tokens"><g id="Western"><circle cx="16.55" cy="16.55" r="16.3" style="fill:#3765a1;stroke-width:0"/><g style="clip-path:url(#clippath)"><g style="clip-path:url(#clippath-1)"><path d="M21.66 26.99h-3.71l-7.56-9.39v-2.48h3.52c1.55 0 2.87-.9 3.39-2.17h2.38c-.59 2.45-2.95 4.29-5.76 4.29-.14 0-.26.01-.4 0zM21.96 12.69H9.68l1.58-2.54h12.28zM23.47 6.25l-1.58 2.54h-2.97c.23.34.42.71.56 1.1h-2.55c-.32-.45-.74-.83-1.23-1.1H9.61l1.03-1.66.55-.88h12.27Z" class="cls-3"/></g></g></g></g><circle id="Dire_line" cx="16.55" cy="16.55" r="16.3" data-name="Dire line" style="fill:none;stroke:#231f20;stroke-miterlimit:10;stroke-width:.5px"/></svg>