<svg xmlns="http://www.w3.org/2000/svg" id="Layer_2" data-name="Layer 2" viewBox="0 0 33.1 33.1"><defs><clipPath id="clippath"><path d="M2.9 3.2h27.3V30H2.9z" class="cls-2"/></clipPath><clipPath id="clippath-1"><path d="M2.9 3.2h27.3V30H2.9z" class="cls-2"/></clipPath><style>.cls-1,.cls-2{fill:#246bb5;stroke-width:0}.cls-2{fill:none}</style></defs><circle id="Dire_line" cx="16.5" cy="16.5" r="16.3" data-name="Dire line" style="stroke-width:0;fill:#fff"/><g id="Tokens"><g id="Western" style="clip-path:url(#clippath)"><g style="clip-path:url(#clippath-1)"><path d="M22.7 28.9h-4.5L9.1 17.8v-2.9h4.2c1.9 0 3.5-1.1 4.1-2.6h2.9c-.7 2.9-3.6 5.1-6.9 5.1h-.5zM23.1 12H8.3l1.9-3H25zM24.9 4.4l-1.9 3h-3.6c.3.4.5.8.7 1.3H17c-.4-.5-.9-1-1.5-1.3H8.2l1.2-2 .7-1z" class="cls-1"/></g></g></g></svg>