<svg xmlns="http://www.w3.org/2000/svg" id="art" viewBox="0 0 34.02 34.02"><defs><clipPath id="clip-path"><circle cx="17.01" cy="17.01" r="16.67" style="fill:none"/></clipPath><style>.cls-3{fill:#f05f72}.cls-4{fill:#fff}</style></defs><g style="clip-path:url(#clip-path)"><path d="M37.84 17A20.84 20.84 0 1 1 17-3.83 20.84 20.84 0 0 1 37.84 17" class="cls-3"/><path d="M28.25 17A11.25 11.25 0 1 1 17 5.76 11.24 11.24 0 0 1 28.25 17" class="cls-3"/><path d="m9.38 9.13 3 13.42a2.6 2.6 0 0 0 .47 1v.12H9.68v-.14a1.18 1.18 0 0 0 .21-1l-.51-2h-2l-.58 2.14a1.5 1.5 0 0 0 0 .29 1.36 1.36 0 0 0 .21.64v.14h-3v-.1a2 2 0 0 0 .39-.74l3.1-12.7v-.19a.94.94 0 0 0-.1-.43 1 1 0 0 0-.23-.31v-.14Zm-1.63 9.38H9l-.62-3.08ZM11.31 9.27h2.82v.17A1 1 0 0 0 14 10a1.6 1.6 0 0 0 .06.41l1.24 5.87 1.56-7h1.42l1.42 7 1.36-5.7a2.3 2.3 0 0 0 .1-.62 1 1 0 0 0-.1-.47v-.22h2.78v.13a2.9 2.9 0 0 0-.37.86L20.6 23.68h-1.44l-1.71-8.15-1.75 8.15h-1.48l-2.53-13.21a3 3 0 0 0-.38-1.05ZM25.2 21.48a1.9 1.9 0 0 0 1.26.41 1.41 1.41 0 0 0 1.1-.5A2.1 2.1 0 0 0 28 20a3.4 3.4 0 0 0-.51-1.68 10.1 10.1 0 0 0-1.53-2 7.5 7.5 0 0 1-1.4-2 5.15 5.15 0 0 1-.45-2.13 2.83 2.83 0 0 1 1-2.25 3.73 3.73 0 0 1 2.55-.84 6.2 6.2 0 0 1 1.23.1 2.1 2.1 0 0 1 .66.21l.08 2.84h-.16a3.2 3.2 0 0 0-.76-.81 1.7 1.7 0 0 0-1.05-.36.86.86 0 0 0-.7.33 1.27 1.27 0 0 0-.27.8 3 3 0 0 0 .93 2.06 12.8 12.8 0 0 1 2.12 2.87 6.1 6.1 0 0 1 .7 2.76 3.88 3.88 0 0 1-1 2.82 3.65 3.65 0 0 1-2.75 1.07 4.3 4.3 0 0 1-1.51-.22 2 2 0 0 1-.82-.5l-.06-2.78h.17a3.2 3.2 0 0 0 .73 1.19" class="cls-4"/></g></svg>