<svg xmlns="http://www.w3.org/2000/svg" id="art" viewBox="0 0 34.02 34.02"><defs><clipPath id="clip-path"><circle cx="17.01" cy="17.01" r="16.67" style="fill:none"/></clipPath><style>.cls-4{fill:#231f20}</style></defs><g style="clip-path:url(#clip-path)"><path d="M37.84 17A20.84 20.84 0 1 1 17-3.83 20.83 20.83 0 0 1 37.84 17" style="fill:#fbb116"/><path d="M13.08 9.34a2.94 2.94 0 0 1 2.36 1 4 4 0 0 1 .85 2.7 3.44 3.44 0 0 1-.29 1.49 4.2 4.2 0 0 1-.88 1.24 3.74 3.74 0 0 1 1.52 1.48 4.3 4.3 0 0 1 .52 2.18 4.85 4.85 0 0 1-.51 2.26 3.6 3.6 0 0 1-1.43 1.53 4.2 4.2 0 0 1-2.12.53H9.36v-.14a2.46 2.46 0 0 0 .35-1.11V10.6a2.54 2.54 0 0 0-.35-1.11v-.15Zm.52 5.15a2.12 2.12 0 0 0 .53-1.44 2 2 0 0 0-.3-1.15.87.87 0 0 0-.77-.46h-.92v3.65a1.87 1.87 0 0 0 1.46-.6m.56 6.7a3.13 3.13 0 0 0 .43-1.72 3.55 3.55 0 0 0-.37-1.78 1.14 1.14 0 0 0-1.06-.69h-1v4.8h.92a1.28 1.28 0 0 0 1.08-.61M21.54 9.34v.15a2.3 2.3 0 0 0-.36 1.11v10.93h2.18a1.14 1.14 0 0 0 .54-.14 10 10 0 0 0 .9-.6h.08v3H18.4v-.14a2.46 2.46 0 0 0 .35-1.11V10.6a2.4 2.4 0 0 0-.35-1.11v-.15Z" class="cls-4"/></g></svg>