<svg xmlns="http://www.w3.org/2000/svg" id="art" viewBox="0 0 34.02 34.02"><defs><clipPath id="clip-path"><circle cx="17.01" cy="17.01" r="16.67" style="fill:none"/></clipPath><style>.cls-4{fill:#fff}</style></defs><g style="clip-path:url(#clip-path)"><path d="M37.84 17A20.84 20.84 0 1 1 17-3.83 20.83 20.83 0 0 1 37.84 17" style="fill:#584232"/><path d="M16 23.21a3.3 3.3 0 0 1-1 .38 6.6 6.6 0 0 1-1.42.15 4.5 4.5 0 0 1-2.73-.87A5.6 5.6 0 0 1 9 20.4a9.7 9.7 0 0 1-.65-3.67 11.6 11.6 0 0 1 .65-4A6 6 0 0 1 10.83 10a4.3 4.3 0 0 1 2.76-1 6.7 6.7 0 0 1 1.47.15 2.15 2.15 0 0 1 .81.3l.13 3.18h-.08a6.7 6.7 0 0 0-1-.92 2.16 2.16 0 0 0-1.32-.5 1.76 1.76 0 0 0-1.37.67 4.6 4.6 0 0 0-.91 1.91 11.5 11.5 0 0 0-.32 2.94 8.1 8.1 0 0 0 .33 2.43 3.86 3.86 0 0 0 .9 1.62 1.87 1.87 0 0 0 1.34.58A3.25 3.25 0 0 0 15 21a7 7 0 0 0 1.08-.64h.08ZM23 23.6l-1.83-6h-.7v4.75a2.5 2.5 0 0 0 .33 1.12v.14h-3.15v-.14a2.46 2.46 0 0 0 .35-1.13V10.45a2.4 2.4 0 0 0-.35-1.11v-.15h4a3.46 3.46 0 0 1 2.69 1.12 4.14 4.14 0 0 1 1 2.92 5 5 0 0 1-.65 2.55 3.85 3.85 0 0 1-1.54 1.56l1.9 5.07a4.3 4.3 0 0 0 .61 1.05v.14Zm-.71-8.6a2.12 2.12 0 0 0 .5-1.49 1.75 1.75 0 0 0-1.95-2h-.41v4h.7a1.53 1.53 0 0 0 1.16-.51" class="cls-4"/></g></svg>