<svg xmlns="http://www.w3.org/2000/svg" id="art" viewBox="0 0 34.02 34.02"><defs><clipPath id="clip-path"><circle cx="17.01" cy="17.01" r="16.67" style="fill:none"/></clipPath><style>.cls-4{fill:#231f20}</style></defs><g style="clip-path:url(#clip-path)"><path d="M37.84 17A20.84 20.84 0 1 1 17-3.83 20.83 20.83 0 0 1 37.84 17" style="fill:#e5df17"/><path d="M15.63 23.5a3.2 3.2 0 0 1-1 .38 6 6 0 0 1-1.42.16 4.44 4.44 0 0 1-2.73-.88 5.67 5.67 0 0 1-1.83-2.47A9.7 9.7 0 0 1 8 17a11.5 11.5 0 0 1 .65-4 6.14 6.14 0 0 1 1.85-2.7 4.25 4.25 0 0 1 2.75-1 6 6 0 0 1 1.47.16 2 2 0 0 1 .82.3l.12 3.12h-.08a7.3 7.3 0 0 0-1-.92 2.14 2.14 0 0 0-1.32-.5 1.81 1.81 0 0 0-1.37.67 4.8 4.8 0 0 0-.91 1.92 11.4 11.4 0 0 0-.37 2.95 8.1 8.1 0 0 0 .33 2.43 3.9 3.9 0 0 0 .9 1.62 1.83 1.83 0 0 0 1.34.58 3.2 3.2 0 0 0 1.45-.33 6.3 6.3 0 0 0 1.08-.64h.09ZM23.07 9.49h2.82v.1l-.22.37-.15.37-3.27 13.56H20.5L17.58 10.7a3.3 3.3 0 0 0-.49-1.07v-.14h3v.14a1.16 1.16 0 0 0-.14.58 3 3 0 0 0 0 .41l1.5 7.28 1.59-7.14a4 4 0 0 0 .08-.59 1.5 1.5 0 0 0-.11-.54Z" class="cls-4"/></g></svg>