<svg xmlns="http://www.w3.org/2000/svg" id="art" viewBox="0 0 34.02 34.02"><defs><clipPath id="clip-path"><circle cx="17.01" cy="17.01" r="16.67" style="fill:none"/></clipPath><style>.cls-4{fill:#fff}</style></defs><g style="clip-path:url(#clip-path)"><path d="M37.84 17A20.84 20.84 0 1 1 17-3.83 20.83 20.83 0 0 1 37.84 17" style="fill:#b43e95"/><path d="M13.81 11.53h-2v3.54h.95a3.1 3.1 0 0 0 1.24-.35h.17v2.63H14a3.1 3.1 0 0 0-1.22-.35h-.95v4.82h2.33a1.4 1.4 0 0 0 .58-.13 7.5 7.5 0 0 0 .86-.43h.08v2.62H9.05v-.15a2.3 2.3 0 0 0 .35-1.11V10.73a2.35 2.35 0 0 0-.35-1.12v-.14h6.3V12h-.08a3.8 3.8 0 0 0-1.46-.47M22.46 23.88l-1.83-6h-.7v4.75a2.46 2.46 0 0 0 .33 1.11v.15h-3.11v-.15a2.3 2.3 0 0 0 .35-1.11v-11.9a2.35 2.35 0 0 0-.35-1.12v-.14h4a3.46 3.46 0 0 1 2.68 1.11 4.16 4.16 0 0 1 1 2.92 5 5 0 0 1-.65 2.56 3.83 3.83 0 0 1-1.53 1.56l1.89 5.06a4.7 4.7 0 0 0 .62 1.05v.15Zm-.66-8.65a2.14 2.14 0 0 0 .5-1.48 1.76 1.76 0 0 0-1.95-2h-.42v4.06h.7a1.56 1.56 0 0 0 1.17-.58" class="cls-4"/></g></svg>