<svg xmlns="http://www.w3.org/2000/svg" id="art" viewBox="0 0 34.02 34.02"><defs><clipPath id="clip-path"><circle cx="17.01" cy="17.01" r="16.67" style="fill:none"/></clipPath><style>.cls-4{fill:#fff}</style></defs><g style="clip-path:url(#clip-path)"><path d="M37.84 17A20.84 20.84 0 1 1 17-3.83 20.83 20.83 0 0 1 37.84 17" style="fill:#2ab24b"/><path d="M9.78 11.19a1.9 1.9 0 0 0-.59-.11H7.36V15h1a2.75 2.75 0 0 0 1.21-.37h.19v2.65h-.24a2.8 2.8 0 0 0-1.21-.37h-1v5.43a2 2 0 0 0 .44 1.12v.14H4.58v-.14a2.35 2.35 0 0 0 .35-1.12V10.4a2.3 2.3 0 0 0-.35-1.11v-.15h6.16v2.43h-.08c-.37-.18-.66-.3-.88-.38M17.52 23.55l-1.83-6H15v4.75a2.5 2.5 0 0 0 .33 1.12v.14h-3.12v-.14a2.35 2.35 0 0 0 .35-1.12V10.4a2.3 2.3 0 0 0-.35-1.11v-.15h4a3.46 3.46 0 0 1 2.68 1.11 4.18 4.18 0 0 1 1 2.93 5 5 0 0 1-.65 2.55 3.83 3.83 0 0 1-1.53 1.56l1.89 5.07a4.3 4.3 0 0 0 .62 1.05v.14Zm-.67-8.64a2.12 2.12 0 0 0 .51-1.49 1.75 1.75 0 0 0-2-2H15v4.05h.7a1.51 1.51 0 0 0 1.15-.56M26.93 23.55l-1.83-6h-.7v4.75a2.5 2.5 0 0 0 .33 1.12v.14h-3.11v-.14a2.35 2.35 0 0 0 .38-1.13V10.4a2.3 2.3 0 0 0-.35-1.11v-.15h4a3.46 3.46 0 0 1 2.68 1.11 4.18 4.18 0 0 1 1 2.93 5 5 0 0 1-.65 2.55 3.83 3.83 0 0 1-1.53 1.56L29 22.36a4.3 4.3 0 0 0 .62 1.05v.14Zm-.67-8.64a2.12 2.12 0 0 0 .51-1.49 1.75 1.75 0 0 0-2-2h-.37v4.05h.7a1.51 1.51 0 0 0 1.16-.56" class="cls-4"/></g></svg>