<svg xmlns="http://www.w3.org/2000/svg" id="art" viewBox="0 0 34.02 34.02"><defs><clipPath id="clip-path"><circle cx="17.01" cy="17.01" r="16.67" style="fill:none" transform="rotate(-73.15 17.01 17.01)"/></clipPath><style>.cls-4{fill:#fff}</style></defs><g style="clip-path:url(#clip-path)"><path d="M37.84 17A20.84 20.84 0 1 1 17-3.83 20.83 20.83 0 0 1 37.84 17" style="fill:#09743b"/><path d="M16.13 16.94v4.71A2.67 2.67 0 0 1 15 23.21a3.9 3.9 0 0 1-2.1.52 3.7 3.7 0 0 1-2.47-.95 6.23 6.23 0 0 1-1.83-2.61 10 10 0 0 1-.66-3.7 10.6 10.6 0 0 1 .67-3.95 5.85 5.85 0 0 1 1.84-2.59A4.28 4.28 0 0 1 13.1 9a3.9 3.9 0 0 1 1.62.28 3.7 3.7 0 0 1 1 .66v2.76h-.09a3.5 3.5 0 0 0-1-.91 2.5 2.5 0 0 0-1.32-.36 2.2 2.2 0 0 0-2 1.24 7.84 7.84 0 0 0-.7 3.76A7.7 7.7 0 0 0 11 19a5.5 5.5 0 0 0 1 1.82 1.62 1.62 0 0 0 1.14.67.88.88 0 0 0 .64-.25v-4.46a1.77 1.77 0 0 0-.37-.93v-.14h3.13v.14a1.86 1.86 0 0 0-.41 1.09M23.36 23.59l-1.83-6h-.7v4.75a2.46 2.46 0 0 0 .33 1.11v.15h-3.11v-.15a2.3 2.3 0 0 0 .35-1.11v-11.9a2.35 2.35 0 0 0-.35-1.12v-.14h4a3.46 3.46 0 0 1 2.68 1.11 4.16 4.16 0 0 1 1 2.92 5 5 0 0 1-.65 2.56 3.83 3.83 0 0 1-1.53 1.56l1.89 5.06a4.3 4.3 0 0 0 .62 1.05v.15Zm-.67-8.65a2.1 2.1 0 0 0 .51-1.48 1.75 1.75 0 0 0-2-2h-.41v4.04h.7a1.52 1.52 0 0 0 1.2-.56" class="cls-4"/></g></svg>