<svg xmlns="http://www.w3.org/2000/svg" id="art" viewBox="0 0 34.02 34.02"><defs><clipPath id="clip-path"><circle cx="17.01" cy="17.01" r="16.67" style="fill:none" transform="rotate(-75.13 17.004 17.01)"/></clipPath><style>.cls-4{fill:#fff}</style></defs><g style="clip-path:url(#clip-path)"><path d="M37.84 17A20.84 20.84 0 1 1 17-3.83 20.83 20.83 0 0 1 37.84 17" style="fill:#ec2785"/><path d="M11.47 9.2v.15a4.5 4.5 0 0 0-.25.56 1.4 1.4 0 0 0-.07.45v12.1a1.87 1.87 0 0 0 .32 1v.14H8.61v-.14A2.5 2.5 0 0 0 9 22.35v-5.43H6.66v5.43a1.7 1.7 0 0 0 .08.51c.06.16.14.36.25.61v.14H4v-.14a2.64 2.64 0 0 0 .34-1.12V10.46A2.64 2.64 0 0 0 4 9.35V9.2h3v.15a2.6 2.6 0 0 0-.33 1.11v4.26H9v-4.26a2.5 2.5 0 0 0-.34-1.11V9.2ZM20.82 9.2v.15a2.5 2.5 0 0 0-.3 1.11v13.15h-.76l-4.14-8.77v7.51a2.1 2.1 0 0 0 .38 1.09v.17h-2.92v-.17a2.3 2.3 0 0 0 .34-1.09V10.46a2 2 0 0 0-.08-.54 3 3 0 0 0-.24-.57V9.2h2.41l2.77 6.26v-5A2 2 0 0 0 18 9.35V9.2ZM29.86 9.2v.15c-.11.23-.19.42-.24.56a1.4 1.4 0 0 0-.07.45v12.1a1.94 1.94 0 0 0 .31 1v.14H27v-.14a2.5 2.5 0 0 0 .34-1.12v-5.42h-2.28v5.43a1.4 1.4 0 0 0 .08.51c.06.16.14.36.25.61v.14h-3v-.14a2.6 2.6 0 0 0 .33-1.12V10.46a2.6 2.6 0 0 0-.33-1.11V9.2h3v.15a2.6 2.6 0 0 0-.33 1.11v4.26h2.29v-4.26A2.5 2.5 0 0 0 27 9.35V9.2Z" class="cls-4"/></g></svg>