<svg xmlns="http://www.w3.org/2000/svg" id="art" viewBox="0 0 34.02 34.02"><defs><clipPath id="clip-path"><circle cx="17.01" cy="17.01" r="16.67" style="fill:none" transform="rotate(-67.5 17.008 17.004)"/></clipPath><style>.cls-4{fill:#fff}</style></defs><g style="clip-path:url(#clip-path)"><path d="M37.84 17A20.84 20.84 0 1 1 17-3.83 20.83 20.83 0 0 1 37.84 17" style="fill:#3b60ab"/><path d="M12.6 9.23v.14a3.4 3.4 0 0 0-.27.57 1.3 1.3 0 0 0-.08.44v12.1a1.74 1.74 0 0 0 .35 1v.14H9.45v-.14a2.36 2.36 0 0 0 .37-1.11v-5.43H7.29v5.44a1.4 1.4 0 0 0 .09.5 6 6 0 0 0 .28.61v.14H4.39v-.14a2.5 2.5 0 0 0 .37-1.11v-11.9a2.5 2.5 0 0 0-.37-1.11v-.14h3.27v.14a2.36 2.36 0 0 0-.37 1.11v4.26h2.53v-4.26a2.36 2.36 0 0 0-.37-1.11v-.14ZM19 23.63l-1.84-6h-.69v4.76a2.64 2.64 0 0 0 .32 1.11v.14h-3.1v-.14a2.46 2.46 0 0 0 .31-1.12v-11.9a2.46 2.46 0 0 0-.35-1.11v-.14h4a3.48 3.48 0 0 1 2.69 1.11 4.18 4.18 0 0 1 1 2.92 5 5 0 0 1-.64 2.55 4 4 0 0 1-1.54 1.57l1.9 5.06a4.3 4.3 0 0 0 .61 1v.14ZM18.31 15a2.16 2.16 0 0 0 .5-1.48c0-1.35-.65-2-1.95-2h-.41v4h.69a1.55 1.55 0 0 0 1.17-.52M27.64 23.63l-1.84-6h-.7v4.76a2.5 2.5 0 0 0 .33 1.11v.14h-3.1v-.14a2.46 2.46 0 0 0 .35-1.11V10.48a2.46 2.46 0 0 0-.35-1.11v-.14h4A3.46 3.46 0 0 1 29 10.34a4.14 4.14 0 0 1 1 2.92 4.9 4.9 0 0 1-.65 2.55 3.9 3.9 0 0 1-1.53 1.57l1.89 5.06a4.7 4.7 0 0 0 .62 1v.14ZM27 15a2.16 2.16 0 0 0 .5-1.48c0-1.35-.65-2-1.95-2h-.45v4h.7A1.55 1.55 0 0 0 27 15" class="cls-4"/></g></svg>