<svg xmlns="http://www.w3.org/2000/svg" id="art" viewBox="0 0 34.02 34.02"><defs><clipPath id="clip-path"><circle cx="17.01" cy="17.01" r="16.67" style="fill:none" transform="rotate(-80.78 17.01 17.004)"/></clipPath><style>.cls-4{fill:#231f20}</style></defs><g style="clip-path:url(#clip-path)"><path d="M37.84 17A20.84 20.84 0 1 1 17-3.83 20.84 20.84 0 0 1 37.84 17" style="fill:#6dcef5"/><path d="M12.17 9.38v.15a2.4 2.4 0 0 0-.32 1.11v13.15H11L6.43 15v7.51a2.06 2.06 0 0 0 .37 1.1v.16H3.63v-.16A2.26 2.26 0 0 0 4 22.53V10.64a1.6 1.6 0 0 0-.08-.54 2.8 2.8 0 0 0-.27-.57v-.15h2.66l3.07 6.26v-5A1.9 1.9 0 0 0 9 9.53v-.15ZM17.13 9.38v.15a2.34 2.34 0 0 0-.37 1.11v10.93h2.18a1.15 1.15 0 0 0 .55-.14 9 9 0 0 0 .89-.6h.09v3H14v-.14a2.35 2.35 0 0 0 .35-1.12V10.64A2.3 2.3 0 0 0 14 9.53v-.15ZM30.38 9.38v.15a2.3 2.3 0 0 0-.33 1.11v13.15h-.84L24.64 15v7.51a2 2 0 0 0 .37 1.1v.16h-3.17v-.16a2.26 2.26 0 0 0 .37-1.1V10.64a2 2 0 0 0-.08-.54 5 5 0 0 0-.27-.57v-.15h2.65l3.07 6.26v-5a1.83 1.83 0 0 0-.37-1.11v-.15Z" class="cls-4"/></g></svg>