<svg xmlns="http://www.w3.org/2000/svg" id="art" viewBox="0 0 34.02 34.02"><defs><clipPath id="clip-path"><circle cx="17.01" cy="17.01" r="16.67" style="fill:none"/></clipPath><style>.cls-4{fill:#fff}</style></defs><g style="clip-path:url(#clip-path)"><path d="M37.84 17A20.84 20.84 0 1 1 17-3.83 20.83 20.83 0 0 1 37.84 17" style="fill:#cf6d28"/><path d="M16.38 6.43v.1a1.7 1.7 0 0 0-.23.78v9.11h-.58l-3.17-6.08v5.21a1.3 1.3 0 0 0 .26.76v.11h-2.2v-.11a1.6 1.6 0 0 0 .25-.76V7.31a1.1 1.1 0 0 0-.05-.37 2.4 2.4 0 0 0-.19-.41v-.1h1.84l2.13 4.34V7.31a1.33 1.33 0 0 0-.26-.78v-.1ZM19.32 16.42v-.1l.21-.42.06-.35v-4l-1.85-4.29a3 3 0 0 0-.43-.73v-.1h2.15v.1a1.5 1.5 0 0 0-.07.42 1.2 1.2 0 0 0 .07.36l1 2.46 1-2.56v-.22a1.6 1.6 0 0 0-.09-.46v-.1h2.16v.08a2.3 2.3 0 0 0-.37.65l-1.89 4.43v4l.07.31a3 3 0 0 0 .2.4v.1ZM16.29 17.74v.1a1.5 1.5 0 0 0-.23.77v9.12h-.59l-3.16-6.08v5.21a1.34 1.34 0 0 0 .25.75v.12h-2.2v-.12a1.46 1.46 0 0 0 .26-.75v-8.25a1.1 1.1 0 0 0-.06-.37 2 2 0 0 0-.18-.4v-.1h1.84l2.13 4.34v-3.47a1.3 1.3 0 0 0-.26-.77v-.1ZM23.26 17.74v.1q-.12.24-.18.39l-.06.31v8.39a1.26 1.26 0 0 0 .24.7v.1h-2.18v-.1a1.7 1.7 0 0 0 .26-.77v-3.77h-1.76v3.77l.07.35a3 3 0 0 0 .19.42v.1h-2.27v-.1a1.7 1.7 0 0 0 .26-.77v-8.25a1.66 1.66 0 0 0-.26-.77v-.1h2.27v.1a1.66 1.66 0 0 0-.26.77v2.95h1.76v-2.95a1.66 1.66 0 0 0-.26-.77v-.1Z" class="cls-4"/></g></svg>