<svg xmlns="http://www.w3.org/2000/svg" id="art" viewBox="0 0 34.02 34.02"><defs><clipPath id="clip-path"><circle cx="17.01" cy="17.01" r="16.67" style="fill:none"/></clipPath><style>.cls-4{fill:#fff}</style></defs><g style="clip-path:url(#clip-path)"><path d="M37.84 17A20.84 20.84 0 1 1 17-3.83 20.83 20.83 0 0 1 37.84 17" style="fill:#ec1e29"/><path d="M10.65 10.22v.13a2.4 2.4 0 0 0-.27 1v12.31h-.71l-3.85-8.18v7a2 2 0 0 0 .31 1v.15H3.46v-.15a2.3 2.3 0 0 0 .32-1V11.39a2 2 0 0 0-.07-.5 3 3 0 0 0-.23-.54v-.13h2.24l2.58 5.83v-4.66a1.94 1.94 0 0 0-.31-1v-.13ZM14.17 23.66v-.13a6 6 0 0 0 .25-.58 1.3 1.3 0 0 0 .08-.46v-5.34l-2.25-5.82a3.5 3.5 0 0 0-.52-1v-.13h2.61v.13a2.6 2.6 0 0 0-.08.56 2.2 2.2 0 0 0 .08.48l1.16 3.32 1.23-3.46a1.3 1.3 0 0 0 0-.29 2.7 2.7 0 0 0-.1-.61v-.13h2.61v.09a3.7 3.7 0 0 0-.45.88l-2.29 6v5.42a1.3 1.3 0 0 0 .08.42 6 6 0 0 0 .25.54v.13ZM20.32 10.22h2.37v.15a1 1 0 0 0-.12.48 2 2 0 0 0 .05.38l1 5.48L25 10.16h1.2l1.19 6.55 1.14-5.32a2.4 2.4 0 0 0 .09-.58 1 1 0 0 0-.09-.44v-.15h2.34v.11a3 3 0 0 0-.31.81l-2.43 12.52h-1.21l-1.44-7.61L24 23.66h-1.24l-2.13-12.33a3 3 0 0 0-.31-1Z" class="cls-4"/></g></svg>