<svg xmlns="http://www.w3.org/2000/svg" id="art" viewBox="0 0 34.02 34.02"><defs><clipPath id="clip-path"><circle cx="17.01" cy="17.01" r="16.67" style="fill:none"/></clipPath><style>.cls-4{fill:#fff}</style></defs><g style="clip-path:url(#clip-path)"><path d="M37.84 17A20.84 20.84 0 1 1 17-3.83 20.83 20.83 0 0 1 37.84 17" style="fill:#b94e27"/><path d="M13.26 9.33a3.47 3.47 0 0 1 3.29 2.08 5.16 5.16 0 0 1 .45 2.28 5.2 5.2 0 0 1-.52 2.37 3.7 3.7 0 0 1-1.45 1.58 4.13 4.13 0 0 1-2.15.56H12v4.28a1.93 1.93 0 0 0 .43 1.11v.14h-3.2v-.14a2.4 2.4 0 0 0 .35-1.11v-11.9a2.54 2.54 0 0 0-.35-1.11v-.14Zm.74 6.18a3.16 3.16 0 0 0 .41-1.74 2.9 2.9 0 0 0-.52-1.77 1.7 1.7 0 0 0-1.41-.68H12v4.88h.88a1.24 1.24 0 0 0 1.12-.69M23 11.39h-2v3.54h1a3.1 3.1 0 0 0 1.22-.35h.16v2.63h-.16a3.1 3.1 0 0 0-1.22-.35h-1v4.82h2.32a1.4 1.4 0 0 0 .59-.13 8 8 0 0 0 .85-.43h.08v2.61h-6.6v-.14a2.4 2.4 0 0 0 .35-1.11v-11.9a2.46 2.46 0 0 0-.35-1.11v-.14h6.29v2.55h-.08a3.7 3.7 0 0 0-1.45-.49" class="cls-4"/></g></svg>