<svg xmlns="http://www.w3.org/2000/svg" id="art" viewBox="0 0 34.02 34.02"><defs><clipPath id="clip-path"><circle cx="17.01" cy="17.01" r="16.67" style="fill:none"/></clipPath><style>.cls-4{fill:#fff}</style></defs><g style="clip-path:url(#clip-path)"><path d="M37.84 17A20.84 20.84 0 1 1 17-3.83 20.83 20.83 0 0 1 37.84 17" style="fill:#231f20"/><path d="M2.72 10.11h2.64v.15a.87.87 0 0 0-.14.48 1.5 1.5 0 0 0 .06.39l1.15 5.47 1.46-6.55h1.33l1.32 6.55 1.27-5.32a2.4 2.4 0 0 0 .1-.58 1.05 1.05 0 0 0-.1-.44v-.15h2.59v.11a2.8 2.8 0 0 0-.34.81l-2.67 12.52H10L8.45 16l-1.64 7.6H5.43L3.07 11.22a2.8 2.8 0 0 0-.35-1ZM23 10.11v.13a2.1 2.1 0 0 0-.31 1v12.31h-.79l-4.26-8.18v7a1.83 1.83 0 0 0 .34 1v.15H15v-.12a2.2 2.2 0 0 0 .35-1V11.28a1.6 1.6 0 0 0-.08-.5 3 3 0 0 0-.25-.54v-.13h2.48L20.38 16v-4.72a1.75 1.75 0 0 0-.34-1v-.13ZM28.89 23.55l-1.71-5.61h-.65v4.44a2.3 2.3 0 0 0 .31 1v.13h-2.9v-.13a2.3 2.3 0 0 0 .32-1v-11.1a2.3 2.3 0 0 0-.32-1v-.13h3.72a3.24 3.24 0 0 1 2.51 1 3.93 3.93 0 0 1 .95 2.73 4.65 4.65 0 0 1-.6 2.38 3.55 3.55 0 0 1-1.44 1.46l1.77 4.73a4 4 0 0 0 .58 1v.13Zm-.62-8.06a2 2 0 0 0 .47-1.39 1.64 1.64 0 0 0-1.83-1.88h-.38V16h.65a1.44 1.44 0 0 0 1.09-.51" class="cls-4"/></g></svg>