<svg xmlns="http://www.w3.org/2000/svg" xmlns:xlink="http://www.w3.org/1999/xlink" viewBox="0 0 36 36"><defs><path id="a" d="M52.827 47.577c.936.35 1.66.973 2.177 1.884q.769 1.358.768 3.408 0 1.965-.786 3.368c-.526.942-1.242 1.581-2.16 1.928V47.577zm-6.14-5.309V79.07h5.684V62.954q1.649 1.169 2.653 4.061 1.347 3.838 1.702 12.055h5.73c-.363-4.385-.792-7.817-1.305-10.32-.504-2.496-1.191-4.543-2.047-6.14q-.618-1.126-1.94-2.391c1.204-.918 2.096-1.884 2.664-2.888.806-1.418 1.211-3.033 1.211-4.856 0-3.221-.997-5.721-2.983-7.513s-4.755-2.694-8.317-2.694zM64.15 79.074h5.688V42.268H64.15zM78.197 63.22a5.5 5.5 0 0 1 2.441 2.19c.592.969.892 2.067.892 3.282q.001 2.096-.956 3.39c-.957 1.294-1.422 1.422-2.377 1.677zm0-15.643c.656.119 1.248.544 1.761 1.266q1.055 1.526 1.054 3.914.002 3.994-2.816 5.116V47.577zm-5.677-5.309V79.07h4.312c2.259 0 4.187-.473 5.796-1.415 1.609-.936 2.758-2.027 3.445-3.258.911-1.66 1.367-3.544 1.367-5.666 0-2.14-.475-3.967-1.417-5.484-.656-1.068-1.673-2.034-3.045-2.89 2.49-1.928 3.738-4.572 3.738-7.942 0-3.196-.955-5.679-2.864-7.463-1.904-1.785-4.486-2.683-7.738-2.683zm32.247 0V79.07h8.993v-4.905h-3.307V42.268zm16.669 6.17c.643.418 1.103.861 1.398 1.33q.853 1.312 1.211 3.476c.348 1.99.517 4.425.517 7.313 0 3.527-.156 6.058-.462 7.619-.313 1.561-.749 2.771-1.316 3.65q-.413.627-1.347 1.237zm-5.673-6.17V79.07h2.633c2.067 0 3.819-.368 5.261-1.085 1.068-.531 2.065-1.367 2.996-2.527q1.88-2.349 2.864-6.177c.984-3.828.979-5.455.979-8.724 0-3.188-.319-5.941-.955-8.248s-1.51-4.231-2.633-5.754q-1.677-2.293-3.969-3.289c-2.292-.996-3.364-.997-5.497-.997h-1.679zm16.933 36.806h5.688V42.268h-5.688zM15.542 47.04c-1.928 3.37-2.89 8.006-2.89 13.921q0 5.018.993 8.761c.667 2.496 1.541 4.475 2.633 5.928s2.367 2.465 3.833 3.051c1.048.438 2.496.656 4.33.656 1.411 0 2.527-.095 3.364-.293V60.713h-7.826v4.786h2.248v8.717c-.806-.605-1.429-1.299-1.86-2.078-.568-1.054-1.01-2.626-1.341-4.717s-.489-4.5-.489-7.225c0-4.394.469-7.7 1.418-9.928s2.259-3.346 3.949-3.346c1.305 0 2.602.724 3.901 2.173v-5.761c-1.193-.572-2.102-.936-2.727-1.103a8 8 0 0 0-2.003-.251c-3.097-.001-5.604 1.685-7.533 5.06m20.891 10.921.387-9.891h.473l.594 12.105.429 7.476h-2.477zm-2.327-15.988L29.332 79.07h5.635l.562-6.619h3.17l.282 6.619h5.728l-4.436-37.097zm60.41 15.988.394-9.891h.466l.594 12.105.429 7.476h-2.477zm-2.327-15.988L87.414 79.07h5.635l.561-6.619h3.177l.275 6.619h5.728l-4.438-37.097z"/></defs><circle cx="18.03" cy="18.01" r="17.5" fill="red"/><path fill="#ca4d51" d="M3.823 9.118h28.82v17.317H3.823z"/><path d="M29.095 9.119h1.244v17.317h-1.244z"/><use xlink:href="#a" fill="#412714" transform="translate(2.431 2.037)scale(.18554)"/><path fill="#fff" d="M30.34 9.116h1.244v17.32H30.34z"/></svg>