<svg xmlns="http://www.w3.org/2000/svg" viewBox="0 0 36 36"><circle cx="18.03" cy="18.01" r="17.5" fill="#f9d231"/><path fill="#f9b231" stroke="#000" stroke-width=".314" d="M18.472 25.79q-.1.006-.133.034c-.033.028-.034.059-.033.12l.017.63q.324-.019.464-.126.128-.099.123-.3c-.005-.201-.04-.225-.11-.28q-.096-.076-.297-.078zm3.742-.065-.142.655.319-.046.253-.052-.383-.565-.028-.017zm-1.978-.037q-.099.01-.132.04c-.033.03-.028.062-.022.122l.063.628q.321-.043.453-.16.12-.108.101-.307c-.019-.199-.056-.222-.13-.272a.4.4 0 0 0-.235-.057zm-8.73-.643-.299 1.207q-.03.128.026.188c.056.06.124.077.26.11q.153.038.284.038.515 0 .663-.595.187-.756-.59-.947L11.668 25l-.065-.005q-.086 0-.097.05zm16.518-1.42a.58.58 0 0 0-.335.373.8.8 0 0 0 .054.563q.162.36.443.484a.7.7 0 0 0 .26.053.8.8 0 0 0 .332-.075.57.57 0 0 0 .334-.375q.078-.26-.059-.569-.158-.356-.445-.477a.7.7 0 0 0-.26-.052.8.8 0 0 0-.324.074zm-8.001-5.236q-.319.17-.32.358v1.233q0 .886.981.886.51 0 .824-.328c.314-.328.312-.52.312-.904q0-.63-.35-1.035a1.03 1.03 0 0 0-.804-.381 1.34 1.34 0 0 0-.643.17zm8.492.061a1.2 1.2 0 0 0-.309.834q0 .794.36 1.233a1.06 1.06 0 0 0 .863.405q.507 0 .801-.335c.294-.335.294-.514.294-.87q0-.722-.35-1.172a1.05 1.05 0 0 0-.864-.437 1.02 1.02 0 0 0-.795.342zm-4.433.808v.11l1.251-.377q.304-.088.303-.318a.59.59 0 0 0-.204-.444.71.71 0 0 0-.504-.19q-.845 0-.846 1.219zM5.86 12.037l.113.756.32-.18.25-.156-.638-.448L5.869 12zm19.685-1.953-.481 1.34q-.05.141.007.216c.057.075.133.102.283.156s.29.08.415.08q.51 0 .727-.604.3-.837-.559-1.145l-.203-.072-.101-.017q-.073.001-.088.046zm-3.515-.73q-.246.192-.316.562-.086.445.1.743c.186.298.31.316.57.366l.145.014a.64.64 0 0 0 .412-.149q.244-.194.316-.57.084-.44-.108-.74-.183-.287-.562-.36l-.144-.014a.65.65 0 0 0-.413.147zm-2.085-.449q-.043.028-.053.131l-.068.719.128.005q.273-.002.416-.084.16-.094.181-.324c.021-.23-.014-.261-.085-.332s-.192-.116-.362-.136h-.059a.2.2 0 0 0-.098.02zM18.09 25.717l.19-.01.28-.012h.039a.74.74 0 0 1 .389.09q.178.108.183.323.01.373-.416.503.145.307.337.526c.192.219.246.228.347.241l.046.051-.052.033h-.015q-.473 0-.917-.8l-.176.014.017.563q.001.064.032.082a.4.4 0 0 0 .139.034q.074.01.075.05l-.012.041-.066.007h-.06q-.218-.001-.469.028h-.012q-.045-.001-.047-.047-.001-.036.056-.042.131-.017.128-.148l-.035-1.283q-.004-.127-.154-.153-.074-.013-.075-.046l.049-.05.032.002.101.004zm-1.949 1.656q.002-.035.06-.038.08-.005.104-.026c.024-.021.03-.054.032-.112l.054-1.234q.005-.124-.016-.159c-.021-.035-.056-.045-.123-.07l-.037-.067.022-.03h.008l.063.01q.086.019.446.035l.49.011h.146q.072 0 .072.014l-.003.014a1.3 1.3 0 0 0-.037.3l-.04.04-.052-.038-.06-.131a.2.2 0 0 0-.12-.069 4 4 0 0 0-.453-.03l-.057.01-.008.041-.024.56.037.035.101.001.254-.002.06-.038.037-.11q.01-.042.041-.043l.022.005.038.043a2 2 0 0 0-.045.473l-.045.038-.045-.047a.4.4 0 0 0-.028-.137q-.021-.034-.077-.043l-.332-.028-.025.017-.024.584q-.007.125.137.16l.25.017.04.001q.3 0 .388-.216l.067-.034.031.051q-.044.16-.063.32-.003.02-.05.02h-.033l-.533-.035-.543-.014-.072.001q-.057 0-.055-.05zm3.71-1.733.187-.023.28-.032.123-.006a.7.7 0 0 1 .308.064.37.37 0 0 1 .207.31q.037.369-.379.531.169.295.374.498c.205.203.263.211.365.217l.048.049-.048.036-.056.002q-.453 0-.93-.733l-.175.025.056.561q.006.062.04.081c.034.019.067.019.138.022q.075.006.08.046l-.009.041-.066.013q-.243.012-.526.066h-.017q-.04 0-.045-.044-.004-.035.053-.045.13-.027.117-.157l-.127-1.278q-.014-.127-.165-.142-.075-.006-.078-.04l.045-.053.032-.001.022.001zm-5.703.217q.065-.138.095-.4.003-.02.04-.02l.044.004.635.094.84.074h.027q.068-.001.07.034.017.18-.014.414l-.01.032-.029.009-.061-.045q-.036-.183-.108-.252-.099-.094-.372-.126l-.068-.005q-.048 0-.057.015l-.007.022-.156 1.328q-.01.085.026.124a.4.4 0 0 0 .15.08l.056.022.009.052-.034.03-.054-.01a3 3 0 0 0-.575-.07h-.006l-.07-.01-.014-.034q-.006-.043.053-.052a.35.35 0 0 0 .164-.052q.05-.042.062-.145l.152-1.29-.043-.052-.077-.01-.136-.008a.5.5 0 0 0-.249.052.56.56 0 0 0-.189.22l-.066.03zM21.6 27.19q-.01-.033.073-.088c.083-.055.104-.113.131-.22l.201-.792.134-.735q.001-.042.089-.097h.007q.022 0 .064.068l.903 1.353q.079.115.221.13.064.007.063.04l-.01.045-.037.003q-.196 0-.553.092l-.043.007q-.028 0-.037-.02l.034-.064q.132-.084.123-.134l-.027-.054-.23-.347-.328.064-.335.05-.073.34-.003.086q.014.075.1.094.134.03.136.06.006.045-.077.05-.252.017-.456.098zm-8.07-.094a5 5 0 0 0-.538-.097l-.054-.03v-.027q.01-.026.07-.03l.134-.012q.047-.02.061-.1l.234-1.295q.018-.11-.125-.162-.06-.021-.054-.05l.017-.045h.048q.252.08.534.096l.061.006.012.051q-.005.033-.08.041-.169.02-.182.096l-.231 1.284q-.023.123.12.178.07.026.062.063l-.02.04zm-2.578-.793.309-1.247q.017-.071-.005-.103l-.094-.061-.075-.043-.007-.043.038-.034.058.01.746.166q.45.11.669.394a.76.76 0 0 1 .131.683q-.11.453-.47.614a1 1 0 0 1-.411.079 1.8 1.8 0 0 1-.42-.056l-.187-.054-.225-.064-.24-.049q-.057-.009-.045-.06.007-.025.046-.026l.02.001.033.003q.102 0 .129-.11zm13.8-1.543q-.015-.054.042-.063.22-.034.473-.134l.058-.017.034.038q.009.033-.056.072-.142.086-.106.222l.253.93.136.473q.021.067-.011.086l-.035.01q-.038 0-.08-.043-.098-.107-.672-.468l-.92-.558h-.025l-.006.033.288 1.061a.19.19 0 0 0 .2.158l.027-.001.018-.001q.06 0 .067.032.013.048-.067.067a4 4 0 0 0-.48.13l-.067-.03.045-.055q.093-.05.116-.1c.023-.05.014-.08-.003-.144l-.311-1.146a.2.2 0 0 0-.063-.107.4.4 0 0 0-.136-.043q-.071-.012-.077-.044c-.006-.032.013-.038.05-.043a1.2 1.2 0 0 0 .295-.07l.045-.008a.15.15 0 0 1 .081.026l1.4.862.035.016.001-.037-.254-.936q-.04-.15-.192-.15l-.033.003-.022.001q-.042 0-.047-.022zM9.193 25.865q.035-.016.062-.098l.387-1.173q.039-.12.027-.157c-.012-.037-.04-.06-.1-.101l-.017-.076.03-.02.065.029.421.152.596.18.06.021.017.017-.005.013q-.069.115-.118.278l-.05.027-.038-.05-.023-.142a.2.2 0 0 0-.098-.1l-.425-.153-.059-.004-.02.036-.175.533.027.044.342.094.068-.019.064-.095.073-.02.024.051a2 2 0 0 0-.172.444l-.054.023-.03-.057a.4.4 0 0 0 .009-.14l-.061-.062-.312-.117-.029.01-.183.556q-.04.119.089.19l.236.086a.6.6 0 0 0 .202.036.32.32 0 0 0 .268-.128l.074-.013.015.057-.147.291-.022.01-.063-.016-.504-.177-.587-.18q-.055-.015-.04-.063.007-.023.04-.023l.028.003.07.009zm16.432-1.386.011-.034.068-.019.428-.138.579-.224.074-.023.012.006.002.013a1.3 1.3 0 0 0 .08.292l-.024.053-.062-.017-.104-.097a.17.17 0 0 0-.092-.024l-.046.004-.43.141-.05.033.009.04.188.529.047.018.329-.136.041-.057-.007-.114q-.007-.06.045-.06l.05.025q.027.184.137.456l-.029.051-.059-.025-.077-.117-.052-.016-.036.005-.317.099-.017.025.196.551q.037.1.144.1l.044-.004.238-.078q.315-.112.315-.36 0-.057.046-.057l.053.036q.017.164.061.32.007.024-.07.047l-.507.17-.574.219-.07-.026.04-.057q.074-.035.088-.063.017-.035-.012-.116l-.414-1.163q-.043-.118-.075-.141c-.032-.023-.054-.019-.108-.019h-.033q-.059 0-.06-.048zm2.42.736a.86.86 0 0 1-.528-.494.87.87 0 0 1-.008-.72.97.97 0 0 1 .522-.52 1 1 0 0 1 .428-.097.9.9 0 0 1 .303.052q.36.125.522.49a.87.87 0 0 1 .005.718q-.15.356-.511.518a1.1 1.1 0 0 1-.44.1 1 1 0 0 1-.292-.047zm-21.409-.43q.038-.024.08-.114l.507-1.074q.032-.071.018-.121a.3.3 0 0 0-.079-.119l-.031-.086h.065q.177.109.326.15l.073.035.016.058.014 1.401.007.032.036-.024 1.038-.91q.041-.036.078-.036l.026.006a2 2 0 0 0 .336.103l.062.02v.054q-.011.025-.062.025l-.026-.001-.064-.004q-.116 0-.137.055l-.464 1.22q-.027.074-.007.117c.02.043.038.052.083.081s.059.055.048.078l-.029.033-.068-.024-.5-.211q-.057-.02-.036-.067.006-.018.037-.018l.033.004.131.017.02-.002q.034-.01.064-.083l.404-1.072-.004-.04-.032.012-.576.498-.493.456-.073.078-.049.015-.023-.006q-.023-.01-.013-.091.04-.312-.01-1.465l-.017-.042-.038.03-.454.96q-.078.159.08.262.064.042.048.077l-.029.033-.067-.022a5 5 0 0 0-.44-.187q-.058-.02-.037-.068.007-.017.037-.017l.034.003.076.01zm21.245-3.928q-.491-.478-.492-1.264a1.77 1.77 0 0 1 .62-1.37q.603-.539 1.44-.538.896 0 1.398.483.488.468.488 1.268c0 .8-.199.986-.594 1.355s-.886.553-1.471.553-1.049-.162-1.39-.487zm-17.218.465q-.046-.032-.047-.148 0-.106.244-.174.268-.078.267-.51v-1.206q0-.361-.073-.51-.102-.202-.42-.308-.142-.05-.142-.152 0-.132.208-.198.386-.12.684-.317.24-.165.294-.165.184 0 .18.239l-.019 2.456q0 .297.087.427.098.142.368.202.3.069.272.216-.023.134-.11.152l-.022.001-.199-.01a8 8 0 0 0-1.348.018l-.112.007q-.083 0-.112-.02zm5.433 0q-.045-.032-.045-.148 0-.106.244-.174.265-.078.265-.51v-1.206q0-.361-.073-.51-.1-.202-.417-.308-.144-.05-.143-.152 0-.132.206-.198a2.7 2.7 0 0 0 .685-.317q.239-.165.295-.165.183 0 .179.239l-.02 2.456q0 .297.09.427.095.142.367.202.3.069.27.216-.023.134-.11.152l-.022.001-.198-.01a8 8 0 0 0-1.348.018l-.113.007q-.082 0-.112-.02zm7.684-.441q-.505-.483-.505-1.288 0-.91.566-1.463a1.79 1.79 0 0 1 1.296-.515q.455.001.85.29.354.258.47.589.041.116.124.129.12.022.12.161 0 .187-.452.322l-2.12.63q.208 1.095 1.123 1.094.528 0 1.205-.386a.4.4 0 0 1 .197-.06q.074 0 .074.133 0 .198-.534.492a2.6 2.6 0 0 1-1.246.327q-.694 0-1.168-.455zm-12.585-4.466a.44.44 0 0 1-.138-.336.54.54 0 0 1 .169-.377.5.5 0 0 1 .36-.174q.47 0 .47.441a.6.6 0 0 1-.158.394q-.16.181-.348.182a.5.5 0 0 1-.355-.13zm5.435 0a.44.44 0 0 1-.138-.336q0-.201.168-.377a.5.5 0 0 1 .36-.174q.47 0 .47.441a.6.6 0 0 1-.16.394q-.157.181-.346.182a.5.5 0 0 1-.354-.13zm-9.498-1.208.168-.012h.02q.092.016.106.126.014.125-.06.17l-.188.056q-.322.072-.405.168c-.083.096-.082.195-.082.397v4.115q0 .387.258.527c.258.14.489.14.946.14q.653 0 .967-.168c.314-.168.382-.322.513-.632q.055-.138.156-.139l.07.016q.146.035.11.17-.157.587-.157 1.103 0 .075-.22.075l-.073-.001a35 35 0 0 0-1.798-.037l-2.033.049h-.056q-.083 0-.11-.025c-.027-.025-.03-.066-.03-.139q-.001-.12.196-.138.45-.046.45-.483V16.3q0-.322-.086-.477-.107-.184-.404-.285-.181-.065-.157-.207.014-.102.06-.12l.07-.008.168.012q.317.035.689.035zm6.173 6.12q-.045-.03-.045-.153 0-.109.251-.186c.251-.077.25-.202.25-.452v-4.162q0-.372-.107-.548c-.107-.176-.199-.206-.38-.27q-.142-.05-.141-.143 0-.138.207-.206a3 3 0 0 0 .647-.314q.276-.165.35-.165.17 0 .17.234l-.018.46-.01.896.02 4.107q0 .281.137.406c.137.125.25.14.474.169q.206.023.206.156 0 .165-.163.164l-.043-.002a6 6 0 0 0-.607-.027l-.966.044-.128.007q-.078.001-.104-.016zm6.185-.139q-.497-.151-.501-.275l.004-.74.014-1.132-.019-2.892q0-.33-.1-.455-.093-.11-.4-.175-.12-.042-.12-.152 0-.096.18-.16a4.4 4.4 0 0 0 .638-.309q.305-.17.377-.17.143 0 .143.235l-.014.478-.004.878.009 1.591q0 .159.077.158l.08-.03q.551-.316 1.149-.317.69 0 1.122.416c.432.416.432.64.432 1.088a2.04 2.04 0 0 1-.634 1.526 2 2 0 0 1-1.445.593q-.474 0-.988-.156zm9.27-7.917.804-1.166a.36.36 0 0 0 .066-.148.24.24 0 0 0-.057-.154l-.004-.086.039-.023.064.047a2.8 2.8 0 0 0 .442.3l.053.033.005.054-.049.035-.061-.02-.125-.032-.018.002q-.04.01-.099.093l-.777 1.13q-.073.105-.028.194c.045.089.107.13.233.217q.18.123.297.138l.031.001q.105 0 .23-.079l.085.01-.002.067a1.4 1.4 0 0 0-.25.274l-.016.007-.08-.043-.486-.35-.567-.372-.042-.036.018-.045.03-.017.05.016a.2.2 0 0 0 .093.027q.07 0 .122-.074zm-22.96.583q-.026-.035.04-.128.074-.099.05-.286l-.106-.93a7 7 0 0 0-.155-.838q-.014-.046.058-.139l.013-.004q.026 0 .089.047l1.514 1.078a.34.34 0 0 0 .193.062l.096-.012.042-.007q.033 0 .041.024l.008.052-.038.02q-.21.078-.554.321l-.066.03L7 13.132l.009-.082q.106-.143.076-.193l-.048-.047-.388-.278-.325.203-.338.19.062.392.031.094q.037.06.114.061l.031-.002.106-.01q.056 0 .063.018.024.045-.062.085a1.7 1.7 0 0 0-.448.291h-.085zm21.206-1.397q.043-.014.088-.101l.64-1.258q.063-.127.058-.172c-.005-.045-.035-.074-.095-.131l-.006-.088.036-.018.07.042q.08.058.448.246l.64.306q.093.04.083.058l-.009.011q-.097.12-.181.295l-.06.024-.035-.066a.6.6 0 0 0-.001-.163.22.22 0 0 0-.093-.129 4 4 0 0 0-.455-.247l-.065-.015-.028.037-.29.572.022.054.37.165.08-.01.09-.095.085-.011.018.063q-.134.166-.27.471l-.065.017-.026-.069a.5.5 0 0 0 .036-.157l-.059-.08-.332-.187-.035.007-.303.596q-.064.126.068.23l.252.137a.65.65 0 0 0 .29.08.36.36 0 0 0 .256-.101l.086-.003.01.068a2.3 2.3 0 0 0-.22.302l-.017.009-.076-.03-.539-.288-.632-.304q-.059-.028-.034-.078.01-.021.036-.021l.043.01.102.025zM7.16 10.827v-.044l.078-.03q.215-.066.488-.215l.056-.026.05.023.003.06-.05.042q-.088.065-.102.104c-.014.039.001.071.027.134l.544 1.258q.051.12.149.128l.018.001a.8.8 0 0 0 .29-.084.7.7 0 0 0 .273-.178.4.4 0 0 0 .075-.261q-.003-.067.052-.068l.057.038q.028.2.097.358.01.027-.081.062l-.555.226-.615.282-.054.016-.029-.039q-.014-.036.043-.068.132-.074.074-.207l-.56-1.299a.35.35 0 0 0-.091-.135.2.2 0 0 0-.128-.035l-.033.001h-.01q-.054 0-.066-.043zm17.61.624.496-1.382q.027-.078.006-.117l-.1-.081-.08-.057-.004-.05.046-.034.066.018.83.274q.497.179.714.527.225.361.07.791-.18.503-.605.643a1 1 0 0 1-.335.05q-.279 0-.613-.12l-.206-.083-.249-.099-.267-.083q-.063-.016-.043-.072.01-.027.043-.027l.034.006.057.007q.1 0 .14-.111zm-14.254-.043a.97.97 0 0 1-.507-.637 1.01 1.01 0 0 1 .124-.834 1.12 1.12 0 0 1 .678-.49 1.8 1.8 0 0 1 .462-.07h.086q.208.023.23.076a3 3 0 0 1 .115.363q.01.04-.062.068l-.036.008a.05.05 0 0 1-.045-.025q-.147-.232-.304-.294a.5.5 0 0 0-.171-.03 1 1 0 0 0-.248.036.74.74 0 0 0-.478.363q-.16.296-.051.708c.109.412.211.471.414.596q.195.124.419.123a1 1 0 0 0 .239-.033.62.62 0 0 0 .34-.2.7.7 0 0 0 .126-.371q.007-.07.095-.075h.006q.057 0 .065.05.034.201.022.335-.008.086-.19.202a1.76 1.76 0 0 1-.83.248q-.265 0-.499-.117zm11.778-.253q-.468-.09-.721-.429a.98.98 0 0 1-.174-.806 1 1 0 0 1 .463-.683 1.1 1.1 0 0 1 .587-.171q.117 0 .239.024.465.087.716.434a1 1 0 0 1 .17.802 1 1 0 0 1-.464.676 1.07 1.07 0 0 1-.587.175q-.112 0-.229-.022zm-9.778-.044q-.007-.04.057-.057.09-.026.11-.055.028-.034.011-.132l-.237-1.39q-.025-.143-.055-.175c-.03-.032-.073-.038-.155-.049q-.066-.007-.058-.066l.019-.036.08-.007q.1-.002.508-.072l.697-.137.076-.011.024.008v.016a1.4 1.4 0 0 0 .03.345l-.035.054-.066-.03-.099-.132a.22.22 0 0 0-.15-.049h-.004q-.08 0-.51.073l-.061.028v.047l.108.631.05.03.396-.087.059-.055.014-.13q.002-.06.05-.06h.012l.052.039q-.007.213.064.54l-.043.052-.061-.04a.5.5 0 0 0-.064-.148.11.11 0 0 0-.084-.03h-.012l-.377.05-.024.025.112.66q.024.14.192.144l.285-.04q.375-.065.425-.344.008-.056.05-.056l.017.003.047.049q-.012.188.005.372.003.03-.087.04l-.604.09-.69.137h-.023q-.044 0-.05-.046zm7.399-.333a5 5 0 0 0-.604-.045q-.066-.002-.061-.06.004-.04.07-.04.151 0 .165-.15l.14-1.46q.014-.146-.154-.195-.081-.024-.077-.061.003-.053.052-.053h.009l.036.008.19.028.216.016.321.025q.304.029.471.16a.42.42 0 0 1 .163.393q-.04.423-.541.512.122.369.307.642.192.28.361.323l.044.065q0 .031-.046.032h-.016q-.547-.055-.945-1.039l-.2-.01-.062.641q-.007.072.026.098a.4.4 0 0 0 .152.057q.083.023.078.068l-.018.045-.024.004zm-2.928-1.58-.037-.057q.056-.165.06-.467 0-.03.065-.031h.03l.732.035.378.003.608-.02.033-.003q.054 0 .06.031a2.3 2.3 0 0 1 .032.472l-.008.038-.032.014-.018.002q-.04 0-.056-.045-.062-.206-.153-.274-.124-.096-.438-.1h-.015q-.113 0-.125.025l-.005.027-.02 1.527q-.002.098.043.138c.045.04.091.052.182.074l.066.018.014.058-.034.039-.064-.006a4 4 0 0 0-.427-.025l-.24.012-.05.004-.031-.005-.02-.037q-.012-.048.054-.065a.4.4 0 0 0 .18-.079q.052-.052.054-.171l.02-1.485-.054-.053-.09-.003-.023-.001q-.274.001-.408.095a.6.6 0 0 0-.19.274q-.019.046-.05.046zm-.553-.562.068-.007.03.05q.004.038-.077.07c-.12.042-.175.12-.167.226l.084 1.099.052.558q.011.08-.03.094l-.028.005q-.05 0-.094-.068-.088-.138-.654-.668l-.915-.823-.028-.005-.013.036.097 1.253q.015.201.222.224.086.01.089.053.003.06-.09.061a5 5 0 0 0-.567.046h-.018q-.049 0-.052-.051-.002-.032.063-.05.116-.037.15-.087c.034-.05.034-.089.029-.164l-.105-1.352a.22.22 0 0 0-.047-.133.4.4 0 0 0-.143-.08q-.076-.027-.077-.066c-.001-.039.02-.036.055-.036h.012l.12.004q.125 0 .224-.018l.027-.003a.16.16 0 0 1 .111.049l1.387 1.265.037.027.009-.042-.085-1.105q-.016-.194-.22-.215-.075-.005-.076-.036-.005-.062.057-.062h.068a3 3 0 0 0 .495-.049zm1.504-.457c-4.62 0-8.8 1.104-11.816 2.878s-4.861 4.215-4.86 6.883 1.84 5.105 4.86 6.882S13.317 27.7 17.936 27.7s8.802-1.103 11.817-2.878c3.02-1.777 4.861-4.215 4.86-6.882s-1.84-5.106-4.86-6.883-7.196-2.878-11.813-2.878z"/></svg>