<svg xmlns="http://www.w3.org/2000/svg" viewBox="0 0 36 36"><circle cx="18.03" cy="18.01" r="17.5" fill="#0189d1"/><path fill="#3f89aa" d="M17.68 25.339h.413l-.207-.626zm10.431 0h.412l-.206-.626zm-18.143-.983v.488H10q.301 0 .301-.236a.27.27 0 0 0-.06-.174q-.062-.076-.204-.078zm13.388 0v.488h.034q.3 0 .3-.236a.27.27 0 0 0-.061-.174q-.06-.076-.204-.078zM8.855 23.84H10.5q.428 0 .672.216a.7.7 0 0 1 .245.54.64.64 0 0 1-.289.557q.409.465.488 1.208H10.46q-.03-.479-.143-.706c-.113-.227-.19-.228-.347-.228v.934H8.855zm3.034 0h1.117v2.521h-1.117zm3 0h1.115v2.541h-.846l-.541-.796v.774h-1.115v-2.52h.798l.588.854zm2.202 0h1.59l.873 2.52h-1.113l-.146-.427h-.818l-.144.428h-1.117zm5.152 0h1.646q.429 0 .672.216a.69.69 0 0 1 .245.54.64.64 0 0 1-.287.557q.407.465.486 1.208h-1.157q-.03-.479-.143-.706c-.113-.227-.19-.228-.348-.228v.934h-1.114zm3.034 0h1.117v2.521h-1.117zm-5.365 2.19a1.22 1.22 0 0 1-.38-.912 1.24 1.24 0 0 1 .396-.944q.396-.373 1.007-.373.263 0 .545.072c.282.072.344.113.47.195l-.467.89a1.4 1.4 0 0 0-.453-.073q-.354 0-.354.193 0 .093.1.146a.6.6 0 0 0 .28.051q.248 0 .427-.089l.466.954a1.8 1.8 0 0 1-.478.19 2.2 2.2 0 0 1-.537.071q-.64 0-1.022-.371m-3.745-8.945h3.45v1.719h-.866v2.163h-1.717v-2.163h-.867zm.315-5.205h3.192v.974h-1.476v.704h1.093v.973h-1.093v1.23h-1.716zm.553-5.207h1.719v3.882h-1.719zM6.926 23.84h1.622v1.116h-.561v1.402H6.87v-1.402h-.56v-.049l-.904 1.567h24.97l-.882-1.532.492 1.416h-1.115l-.144-.426h-.82l-.144.426h-1.115l.874-2.518h1.336L17.893 4.847zm-1.953 2.716 1.337-2.314v-.402h.232l11.35-19.658 13.061 22.625H4.831zm-1.489 1.026H32.3L17.891 2.628z"/><path fill="#73c1d4" d="M6.926 23.84 17.893 4.847 28.858 23.84h.254l.382 1.102.883 1.53H5.406l.904-1.565v-.665l-1.337 2.314-.142.251h26.123L17.893 4.182 6.543 23.84z"/><path fill="#412714" d="M16.167 17.084v1.719h.867v2.163h1.717v-2.163h.867v-1.719zm.315-5.205v3.88h1.716V14.53h1.093v-.973h-1.093v-.704h1.476v-.974zm.553-1.325h1.719V6.672h-1.719zM8.55 23.839H6.307v1.117h.563v1.404h1.116v-1.404h.562zm1.418.517h.07q.141.002.203.078a.27.27 0 0 1 .06.174q0 .237-.3.236h-.033zm-1.113-.517v2.52H9.97v-.933q.236 0 .347.228c.111.228.122.386.143.706h1.157q-.079-.743-.488-1.208a.65.65 0 0 0 .289-.557.7.7 0 0 0-.245-.54q-.245-.215-.672-.216zm3.034 2.521h1.117v-2.521h-1.117zm3-2.521v.853l-.59-.853h-.797v2.52h1.115v-.775l.541.796h.846v-2.54zm2.997.874.207.626h-.413zm-.795-.874-.875 2.52h1.117l.144-.427h.818l.146.428h1.113l-.873-2.521zm6.265.517h.07q.142.002.203.078a.27.27 0 0 1 .06.174q0 .237-.3.236h-.033zm-1.113-.517v2.52h1.114v-.933q.238 0 .348.228c.11.228.122.386.143.706h1.157q-.08-.743-.486-1.208a.64.64 0 0 0 .287-.557.69.69 0 0 0-.245-.54q-.243-.215-.672-.216zm3.034 2.521h1.117v-2.521h-1.117zm3.04-1.647.206.626h-.412zm.795-.874h-1.59l-.874 2.52h1.114l.146-.427h.819l.144.428h1.115l-.492-1.418zm-9.184.334a1.24 1.24 0 0 0-.397.944q0 .541.381.912c.381.371.595.371 1.022.371a2.2 2.2 0 0 0 .537-.071q.281-.072.478-.19l-.466-.954a.95.95 0 0 1-.426.09.6.6 0 0 1-.282-.052q-.1-.053-.1-.146.001-.192.355-.193a1.4 1.4 0 0 1 .453.072l.466-.89a1.5 1.5 0 0 0-.469-.194 2.2 2.2 0 0 0-.545-.072q-.61 0-1.007.373"/></svg>