<svg xmlns="http://www.w3.org/2000/svg" viewBox="0 0 36 36"><circle cx="18.03" cy="18.01" r="17.5" fill="pink"/><path fill="#d79cc6" d="M28.063 13.961v7.193l6.228-3.596z"/><path fill="#3f1f0c" d="M28.158 20.988v-6.863l5.944 3.432zm-.182.156-.01.01.01.009v.138l6.487-3.744-6.487-3.744z"/><path fill="#d79cc6" d="M12.058 11.554h11.836L17.978 8.14z"/><path fill="#3f1f0c" d="M23.539 11.458H12.412l5.565-3.211zm-11.804.183v.005l.004.004 12.477-.004.003-.008-.002-.005-6.144-3.55-.101-.049-.093.05-6.144 3.549z"/><path fill="#d79cc6" d="M23.274 23.92H12.679l5.295 3.056z"/><path fill="#3f1f0c" d="m12.356 23.827-.002.009.001.005 5.524 3.19.092.06.1-.06 5.527-3.195-.002-.01-.003-.002H12.36zm.677.187h9.886l-4.945 2.853z"/><path fill="#d79cc6" d="M7.124 20.712v-6.31l-5.463 3.156z"/><g fill="#3f1f0c"><path d="M7.03 14.568v5.98l-5.18-2.99zm.18-.156.01-.01-.01-.009v-.139l-5.72 3.303 5.72 3.303z"/><path d="M25.522 16.8v.073a.68.68 0 0 0 .137.418q.138.18.403.254l.295.056q.29.055.457.12.166.064.279.199a.55.55 0 0 1 .113.368.57.57 0 0 1-.154.395.7.7 0 0 0 .077-.301.57.57 0 0 0-.1-.336.6.6 0 0 0-.278-.213 1.7 1.7 0 0 0-.351-.086l-.388-.078a.7.7 0 0 1-.242-.112.74.74 0 0 1-.28-.567q0-.093.033-.244zm.085 1.777.067.11.088.113a.3.3 0 0 0-.14.018.3.3 0 0 0-.1.098v-.53zm1.239-1.958-.118-.154-.13-.114.145.022a.4.4 0 0 0 .124-.022l.06.38zm-1.385 2.406h.106a.28.28 0 0 1 .237-.121.8.8 0 0 1 .258.064l.236.085a.7.7 0 0 0 .205.021q.24 0 .436-.123a.85.85 0 0 0 .304-.33.95.95 0 0 0 .107-.447.86.86 0 0 0-.117-.445.8.8 0 0 0-.33-.307 1.2 1.2 0 0 0-.312-.097l-.446-.092a.86.86 0 0 1-.375-.16q-.127-.104-.127-.304a.51.51 0 0 1 .505-.508q.27 0 .471.192t.384.557h.129l-.08-.816h-.141a.4.4 0 0 1-.19.048 1.5 1.5 0 0 1-.258-.037 1.4 1.4 0 0 0-.297-.036.69.69 0 0 0-.537.244.9.9 0 0 0-.141.878.7.7 0 0 0 .174.251.8.8 0 0 0 .275.164q.105.038.355.082.249.043.402.094.153.05.263.177a.52.52 0 0 1 .11.353q0 .24-.165.397a.57.57 0 0 1-.4.154.7.7 0 0 1-.357-.103 1.04 1.04 0 0 1-.315-.316 2.1 2.1 0 0 1-.247-.528h-.123zm-2.648-.25.1-.17-.003.067q0 .146.118.246h-.357zm1.72-.026a.16.16 0 0 1-.048.117.18.18 0 0 1-.136.051h-.04l.082-.076q.02-.026.02-.084 0-.09-.062-.248l-.659-1.798a.8.8 0 0 0-.087-.181.3.3 0 0 0-.135-.106l.088-.008q.09 0 .143.058a.6.6 0 0 1 .101.191l.665 1.798a1 1 0 0 1 .068.286m-.89-1.98.398 1.071h-.792zm.706 1.976q0 .091-.07.123a.8.8 0 0 1-.217.048v.11h1.11v-.11a.5.5 0 0 1-.23-.106.7.7 0 0 1-.149-.27l-.862-2.347h-.172l-.448.164v.097a.4.4 0 0 1 .164.045.3.3 0 0 1 .107.126l-.646 1.76q-.177.485-.466.532v.11h.863v-.11a.28.28 0 0 1-.22-.108.37.37 0 0 1-.08-.234q0-.14.049-.269l.123-.338h.882l.208.569a.6.6 0 0 1 .054.208m-3.925.184-.214-.108a1.1 1.1 0 0 1-.217-.179 1.3 1.3 0 0 1-.27-.458 1.55 1.55 0 0 1 .134-1.37 1.4 1.4 0 0 1 .256-.318 1.1 1.1 0 0 1 .305-.197l.212-.062-.222.118q-.095.057-.2.162a1.6 1.6 0 0 0-.34.517 1.45 1.45 0 0 0-.027 1.108 1.5 1.5 0 0 0 .538.695l.313.172zm1.146-.895a.4.4 0 0 0-.106-.115q.124.014.181.063a.2.2 0 0 1 .071.133l.014.284a.8.8 0 0 1-.034.259.34.34 0 0 1-.116.162.6.6 0 0 1-.228.096.47.47 0 0 0 .193-.196.5.5 0 0 0 .06-.24v-.261a.4.4 0 0 0-.035-.185m-.142-1.677.058.015.074.016.075.004a.4.4 0 0 0 .139-.035l.026.361a1.6 1.6 0 0 0-.372-.361m.414-.174q-.067.1-.24.1a2 2 0 0 1-.315-.057 2 2 0 0 0-.442-.058q-.285 0-.524.12t-.408.327q-.17.209-.26.476a1.7 1.7 0 0 0 0 1.101q.092.264.271.464t.442.312q.262.11.589.11.176.001.359-.035a2.4 2.4 0 0 0 .693-.251v-.443q0-.192.024-.273a.17.17 0 0 1 .096-.111 1 1 0 0 1 .257-.047v-.114h-1.211v.114q.182.015.257.048a.16.16 0 0 1 .095.114q.019.081.02.28l-.016.214a.4.4 0 0 1-.065.16.47.47 0 0 1-.188.154.6.6 0 0 1-.267.059.7.7 0 0 1-.452-.166 1.1 1.1 0 0 1-.33-.47q-.122-.301-.122-.686a2 2 0 0 1 .11-.689q.113-.3.314-.469a.7.7 0 0 1 .458-.168.76.76 0 0 1 .505.186q.115.095.223.24.108.149.194.334h.1l-.031-.876zm-4.837 2.592.102-.17-.004.067q0 .146.118.246h-.358zm1.72-.026a.16.16 0 0 1-.048.117.18.18 0 0 1-.135.051h-.04l.081-.076q.02-.026.02-.084a.7.7 0 0 0-.061-.248l-.66-1.798a.8.8 0 0 0-.087-.181.3.3 0 0 0-.134-.106l.087-.008a.18.18 0 0 1 .144.058.6.6 0 0 1 .1.191l.665 1.798a1 1 0 0 1 .069.286m-.89-1.98.398 1.071h-.792zm.706 1.976q0 .091-.071.123a.8.8 0 0 1-.216.048v.11h1.11v-.11a.5.5 0 0 1-.23-.106.8.8 0 0 1-.15-.27l-.862-2.347h-.172l-.447.164v.097a.4.4 0 0 1 .164.045.3.3 0 0 1 .107.126l-.646 1.76q-.176.485-.467.531v.11h.864v-.11a.28.28 0 0 1-.22-.107.37.37 0 0 1-.08-.235q0-.139.05-.268l.122-.338h.882l.208.569a.6.6 0 0 1 .054.208m-2.926-1.342q.099-.134.098-.404a.9.9 0 0 0-.082-.41.6.6 0 0 0-.252-.246q.22.034.34.196a.72.72 0 0 1 .119.436.7.7 0 0 1-.134.447.57.57 0 0 1-.384.198.66.66 0 0 0 .296-.217m-.385.403.046.063.267.334.253.337.228.263a1 1 0 0 0 .221.165.7.7 0 0 1-.174-.03.6.6 0 0 1-.19-.117 1.5 1.5 0 0 1-.23-.26l-.27-.371-.223-.29-.156-.162h.153zm-.539-1.31a.2.2 0 0 1 .098-.124.46.46 0 0 1 .217-.04q.142-.001.234.02.09.018.174.08.237.175.237.547 0 .314-.153.467a.6.6 0 0 1-.225.132.9.9 0 0 1-.303.054h-.303v-.898a1 1 0 0 1 .024-.239m-.448-.043q-.025-.076-.123-.12.118-.008.174.03a.17.17 0 0 1 .073.116q.017.079.018.233v2.004q-.001.195-.247.201.13-.07.13-.257V16.7a.9.9 0 0 0-.025-.247m.836 2.464-.118-.008-.132-.026q-.102-.03-.131-.103a.5.5 0 0 1-.03-.197v-.842h.206q.067 0 .155.096l.27.346.26.355.223.271a.8.8 0 0 0 .203.16.5.5 0 0 0 .227.058h.351v-.11l-.125-.057-.118-.097-.121-.133-.152-.19-.057-.069-.038-.044-.184-.233-.317-.388a1 1 0 0 0 .3-.1.8.8 0 0 0 .222-.169.68.68 0 0 0 .083-.84.74.74 0 0 0-.314-.272 1.1 1.1 0 0 0-.485-.104h-1.472v.112a.9.9 0 0 1 .28.037q.088.031.115.11.027.075.027.236v1.855q0 .15-.032.219a.19.19 0 0 1-.12.097 1 1 0 0 1-.27.03v.11h1.294zm-3.774-.144a.16.16 0 0 1-.059.105q-.048.039-.161.04h-.047q.095-.043.126-.104a.5.5 0 0 0 .03-.211v-1.876a1 1 0 0 0-.025-.288q-.025-.064-.117-.107.172-.002.217.07t.046.291v1.878zm1.562-.015a.15.15 0 0 1-.047.111.16.16 0 0 1-.12.05h-.05q.092-.052.092-.137a.3.3 0 0 0-.038-.133l-.12-.171-.701-.954.084-.082.754 1.01q.146.192.146.306m-.022-2.316-.2.184a.3.3 0 0 0 .028-.123q0-.094-.088-.172h.438a.8.8 0 0 0-.178.111m-.459-.11q.108 0 .166.055a.2.2 0 0 1 .059.146q.001.082-.064.176a1.4 1.4 0 0 1-.192.213l-.757.721v-.99q0-.173.07-.247t.287-.074h.026v-.11H10.71v.11q.188 0 .279.036.09.036.118.106a.6.6 0 0 1 .028.203v1.869a.8.8 0 0 1-.022.21.2.2 0 0 1-.1.119.5.5 0 0 1-.244.042h-.059v.11h1.274v-.11l-.07-.007-.102-.01q-.12-.013-.166-.099a.55.55 0 0 1-.045-.248v-.761l.233-.223.738.984.08.118.03.103q0 .143-.298.143v.11h1.255v-.11a.5.5 0 0 1-.16-.047.5.5 0 0 1-.133-.102l-.175-.215-.988-1.318.45-.423.287-.243q.126-.096.255-.158a.9.9 0 0 1 .255-.079v-.111h-1.115v.111zm-4.172 2.444.102-.17-.003.067a.31.31 0 0 0 .117.246h-.358zm1.72-.026a.16.16 0 0 1-.048.117.18.18 0 0 1-.134.051h-.041l.081-.076q.02-.026.02-.084a.8.8 0 0 0-.06-.248l-.66-1.798a.8.8 0 0 0-.088-.181.3.3 0 0 0-.134-.106l.087-.008a.18.18 0 0 1 .144.058.6.6 0 0 1 .1.191l.666 1.798a1 1 0 0 1 .068.286m-.89-1.98.397 1.071h-.791zm.707 1.976q0 .091-.072.123a.8.8 0 0 1-.216.048v.11h1.11v-.11a.5.5 0 0 1-.23-.106.74.74 0 0 1-.148-.27l-.864-2.347h-.172l-.447.164v.097a.4.4 0 0 1 .164.045.3.3 0 0 1 .107.126l-.646 1.76q-.177.485-.467.532v.11h.865v-.11a.28.28 0 0 1-.221-.108.37.37 0 0 1-.08-.234q0-.14.049-.269l.124-.338h.88l.209.569a.6.6 0 0 1 .055.208m16.991 5.09v-.005h-.036v.005H8.459a1.256 1.256 0 0 1-1.25-1.253V12.89c.001-.69.56-1.25 1.25-1.252h18.268c.69.003 1.249.561 1.251 1.252v9.692a1.257 1.257 0 0 1-1.22 1.253zm-.036.17v.003h.036v-.002h.019a1.424 1.424 0 0 0 1.385-1.424V12.89c0-.785-.636-1.422-1.422-1.422H8.459c-.784 0-1.422.637-1.422 1.422v9.692c0 .786.638 1.423 1.422 1.423z"/><path d="M7.123 12.803h20.941v.174H7.123zm0 1.711h20.941v.174H7.123z"/><path d="M10.992 12.551h.194v2.429h-.194zm1.626 0h.194v2.429h-.194zm1.626 0h.194v2.429h-.194zm1.626 0h.194v2.429h-.194zm1.627 0h.194v2.429h-.194zm1.626 0h.194v2.429h-.194zm1.626 0h.194v2.429h-.194zm1.626 0h.194v2.429h-.194zm1.626 0h.194v2.429h-.194zm1.626 0h.194v2.429h-.194zm1.626 0h.194v2.429h-.194zm-20.13 8.125h20.941v.174H7.123zm0 1.712h20.941v.174H7.123z"/><path d="M10.992 20.424h.194v2.428h-.194zm1.626 0h.194v2.428h-.194zm1.626 0h.194v2.428h-.194zm1.626 0h.194v2.428h-.194zm1.627 0h.194v2.428h-.194zm1.626 0h.194v2.428h-.194zm1.626 0h.194v2.428h-.194zm1.626 0h.194v2.428h-.194zm1.626 0h.194v2.428h-.194zm1.626 0h.194v2.428h-.194zm1.626 0h.194v2.428h-.194zM7.82 12.551h.194v2.429H7.82zm1.626 0h.194v2.429h-.194zM7.82 20.424h.194v2.428H7.82zm1.626 0h.194v2.428h-.194z"/></g></svg>